<svg xmlns="http://www.w3.org/2000/svg" xmlns:xlink="http://www.w3.org/1999/xlink" width="600" height="400" viewBox="0 0 2400 1600">
<defs>
  <clipPath id="clip770">
    <rect x="0" y="0" width="2400" height="1600"></rect>
  </clipPath>
</defs>
<path clip-path="url(#clip770)" d="M0 1600 L2400 1600 L2400 0 L0 0  Z" fill="#ffffff" fill-rule="evenodd" fill-opacity="1"></path>
<defs>
  <clipPath id="clip771">
    <rect x="480" y="0" width="1681" height="1600"></rect>
  </clipPath>
</defs>
<path clip-path="url(#clip770)" d="M289.251 1423.18 L2352.76 1423.18 L2352.76 47.2441 L289.251 47.2441  Z" fill="#ffffff" fill-rule="evenodd" fill-opacity="1"></path>
<defs>
  <clipPath id="clip772">
    <rect x="289" y="47" width="2065" height="1377"></rect>
  </clipPath>
</defs>
<polyline clip-path="url(#clip772)" style="stroke:#000000; stroke-linecap:round; stroke-linejoin:round; stroke-width:2; stroke-opacity:0.1; fill:none" points="327.988,1423.18 327.988,47.2441 "></polyline>
<polyline clip-path="url(#clip772)" style="stroke:#000000; stroke-linecap:round; stroke-linejoin:round; stroke-width:2; stroke-opacity:0.1; fill:none" points="819.58,1423.18 819.58,47.2441 "></polyline>
<polyline clip-path="url(#clip772)" style="stroke:#000000; stroke-linecap:round; stroke-linejoin:round; stroke-width:2; stroke-opacity:0.1; fill:none" points="1311.17,1423.18 1311.17,47.2441 "></polyline>
<polyline clip-path="url(#clip772)" style="stroke:#000000; stroke-linecap:round; stroke-linejoin:round; stroke-width:2; stroke-opacity:0.1; fill:none" points="1802.76,1423.18 1802.76,47.2441 "></polyline>
<polyline clip-path="url(#clip772)" style="stroke:#000000; stroke-linecap:round; stroke-linejoin:round; stroke-width:2; stroke-opacity:0.1; fill:none" points="2294.35,1423.18 2294.35,47.2441 "></polyline>
<polyline clip-path="url(#clip772)" style="stroke:#000000; stroke-linecap:round; stroke-linejoin:round; stroke-width:2; stroke-opacity:0.1; fill:none" points="289.251,1176.3 2352.76,1176.3 "></polyline>
<polyline clip-path="url(#clip772)" style="stroke:#000000; stroke-linecap:round; stroke-linejoin:round; stroke-width:2; stroke-opacity:0.1; fill:none" points="289.251,885.005 2352.76,885.005 "></polyline>
<polyline clip-path="url(#clip772)" style="stroke:#000000; stroke-linecap:round; stroke-linejoin:round; stroke-width:2; stroke-opacity:0.1; fill:none" points="289.251,593.71 2352.76,593.71 "></polyline>
<polyline clip-path="url(#clip772)" style="stroke:#000000; stroke-linecap:round; stroke-linejoin:round; stroke-width:2; stroke-opacity:0.1; fill:none" points="289.251,302.415 2352.76,302.415 "></polyline>
<polyline clip-path="url(#clip770)" style="stroke:#000000; stroke-linecap:round; stroke-linejoin:round; stroke-width:4; stroke-opacity:1; fill:none" points="289.251,1423.18 2352.76,1423.18 "></polyline>
<polyline clip-path="url(#clip770)" style="stroke:#000000; stroke-linecap:round; stroke-linejoin:round; stroke-width:4; stroke-opacity:1; fill:none" points="327.988,1423.18 327.988,1404.28 "></polyline>
<polyline clip-path="url(#clip770)" style="stroke:#000000; stroke-linecap:round; stroke-linejoin:round; stroke-width:4; stroke-opacity:1; fill:none" points="819.58,1423.18 819.58,1404.28 "></polyline>
<polyline clip-path="url(#clip770)" style="stroke:#000000; stroke-linecap:round; stroke-linejoin:round; stroke-width:4; stroke-opacity:1; fill:none" points="1311.17,1423.18 1311.17,1404.28 "></polyline>
<polyline clip-path="url(#clip770)" style="stroke:#000000; stroke-linecap:round; stroke-linejoin:round; stroke-width:4; stroke-opacity:1; fill:none" points="1802.76,1423.18 1802.76,1404.28 "></polyline>
<polyline clip-path="url(#clip770)" style="stroke:#000000; stroke-linecap:round; stroke-linejoin:round; stroke-width:4; stroke-opacity:1; fill:none" points="2294.35,1423.18 2294.35,1404.28 "></polyline>
<path clip-path="url(#clip770)" d="M327.988 1454.1 Q324.377 1454.1 322.549 1457.66 Q320.743 1461.2 320.743 1468.33 Q320.743 1475.44 322.549 1479.01 Q324.377 1482.55 327.988 1482.55 Q331.623 1482.55 333.428 1479.01 Q335.257 1475.44 335.257 1468.33 Q335.257 1461.2 333.428 1457.66 Q331.623 1454.1 327.988 1454.1 M327.988 1450.39 Q333.799 1450.39 336.854 1455 Q339.933 1459.58 339.933 1468.33 Q339.933 1477.06 336.854 1481.67 Q333.799 1486.25 327.988 1486.25 Q322.178 1486.25 319.1 1481.67 Q316.044 1477.06 316.044 1468.33 Q316.044 1459.58 319.1 1455 Q322.178 1450.39 327.988 1450.39 Z" fill="#000000" fill-rule="nonzero" fill-opacity="1"></path><path clip-path="url(#clip770)" d="M798.851 1481.64 L815.17 1481.64 L815.17 1485.58 L793.226 1485.58 L793.226 1481.64 Q795.888 1478.89 800.471 1474.26 Q805.078 1469.61 806.258 1468.27 Q808.504 1465.74 809.383 1464.01 Q810.286 1462.25 810.286 1460.56 Q810.286 1457.8 808.342 1456.07 Q806.42 1454.33 803.319 1454.33 Q801.119 1454.33 798.666 1455.09 Q796.235 1455.86 793.457 1457.41 L793.457 1452.69 Q796.282 1451.55 798.735 1450.97 Q801.189 1450.39 803.226 1450.39 Q808.596 1450.39 811.791 1453.08 Q814.985 1455.77 814.985 1460.26 Q814.985 1462.39 814.175 1464.31 Q813.388 1466.2 811.281 1468.8 Q810.703 1469.47 807.601 1472.69 Q804.499 1475.88 798.851 1481.64 Z" fill="#000000" fill-rule="nonzero" fill-opacity="1"></path><path clip-path="url(#clip770)" d="M825.031 1451.02 L843.388 1451.02 L843.388 1454.96 L829.314 1454.96 L829.314 1463.43 Q830.332 1463.08 831.351 1462.92 Q832.369 1462.73 833.388 1462.73 Q839.175 1462.73 842.554 1465.9 Q845.934 1469.08 845.934 1474.49 Q845.934 1480.07 842.462 1483.17 Q838.99 1486.25 832.67 1486.25 Q830.494 1486.25 828.226 1485.88 Q825.98 1485.51 823.573 1484.77 L823.573 1480.07 Q825.656 1481.2 827.879 1481.76 Q830.101 1482.32 832.578 1482.32 Q836.582 1482.32 838.92 1480.21 Q841.258 1478.1 841.258 1474.49 Q841.258 1470.88 838.92 1468.77 Q836.582 1466.67 832.578 1466.67 Q830.703 1466.67 828.828 1467.08 Q826.976 1467.5 825.031 1468.38 L825.031 1451.02 Z" fill="#000000" fill-rule="nonzero" fill-opacity="1"></path><path clip-path="url(#clip770)" d="M1285.87 1451.02 L1304.23 1451.02 L1304.23 1454.96 L1290.15 1454.96 L1290.15 1463.43 Q1291.17 1463.08 1292.19 1462.92 Q1293.21 1462.73 1294.23 1462.73 Q1300.01 1462.73 1303.39 1465.9 Q1306.77 1469.08 1306.77 1474.49 Q1306.77 1480.07 1303.3 1483.17 Q1299.83 1486.25 1293.51 1486.25 Q1291.33 1486.25 1289.07 1485.88 Q1286.82 1485.51 1284.41 1484.77 L1284.41 1480.07 Q1286.5 1481.2 1288.72 1481.76 Q1290.94 1482.32 1293.42 1482.32 Q1297.42 1482.32 1299.76 1480.21 Q1302.1 1478.1 1302.1 1474.49 Q1302.1 1470.88 1299.76 1468.77 Q1297.42 1466.67 1293.42 1466.67 Q1291.54 1466.67 1289.67 1467.08 Q1287.82 1467.5 1285.87 1468.38 L1285.87 1451.02 Z" fill="#000000" fill-rule="nonzero" fill-opacity="1"></path><path clip-path="url(#clip770)" d="M1325.99 1454.1 Q1322.38 1454.1 1320.55 1457.66 Q1318.74 1461.2 1318.74 1468.33 Q1318.74 1475.44 1320.55 1479.01 Q1322.38 1482.55 1325.99 1482.55 Q1329.62 1482.55 1331.43 1479.01 Q1333.25 1475.44 1333.25 1468.33 Q1333.25 1461.2 1331.43 1457.66 Q1329.62 1454.1 1325.99 1454.1 M1325.99 1450.39 Q1331.8 1450.39 1334.85 1455 Q1337.93 1459.58 1337.93 1468.33 Q1337.93 1477.06 1334.85 1481.67 Q1331.8 1486.25 1325.99 1486.25 Q1320.18 1486.25 1317.1 1481.67 Q1314.04 1477.06 1314.04 1468.33 Q1314.04 1459.58 1317.1 1455 Q1320.18 1450.39 1325.99 1450.39 Z" fill="#000000" fill-rule="nonzero" fill-opacity="1"></path><path clip-path="url(#clip770)" d="M1776.62 1451.02 L1798.84 1451.02 L1798.84 1453.01 L1786.29 1485.58 L1781.41 1485.58 L1793.21 1454.96 L1776.62 1454.96 L1776.62 1451.02 Z" fill="#000000" fill-rule="nonzero" fill-opacity="1"></path><path clip-path="url(#clip770)" d="M1808.01 1451.02 L1826.36 1451.02 L1826.36 1454.96 L1812.29 1454.96 L1812.29 1463.43 Q1813.31 1463.08 1814.33 1462.92 Q1815.34 1462.73 1816.36 1462.73 Q1822.15 1462.73 1825.53 1465.9 Q1828.91 1469.08 1828.91 1474.49 Q1828.91 1480.07 1825.44 1483.17 Q1821.96 1486.25 1815.65 1486.25 Q1813.47 1486.25 1811.2 1485.88 Q1808.96 1485.51 1806.55 1484.77 L1806.55 1480.07 Q1808.63 1481.2 1810.85 1481.76 Q1813.08 1482.32 1815.55 1482.32 Q1819.56 1482.32 1821.9 1480.21 Q1824.23 1478.1 1824.23 1474.49 Q1824.23 1470.88 1821.9 1468.77 Q1819.56 1466.67 1815.55 1466.67 Q1813.68 1466.67 1811.8 1467.08 Q1809.95 1467.5 1808.01 1468.38 L1808.01 1451.02 Z" fill="#000000" fill-rule="nonzero" fill-opacity="1"></path><path clip-path="url(#clip770)" d="M2253.96 1481.64 L2261.6 1481.64 L2261.6 1455.28 L2253.29 1456.95 L2253.29 1452.69 L2261.55 1451.02 L2266.23 1451.02 L2266.23 1481.64 L2273.87 1481.64 L2273.87 1485.58 L2253.96 1485.58 L2253.96 1481.64 Z" fill="#000000" fill-rule="nonzero" fill-opacity="1"></path><path clip-path="url(#clip770)" d="M2293.31 1454.1 Q2289.7 1454.1 2287.87 1457.66 Q2286.07 1461.2 2286.07 1468.33 Q2286.07 1475.44 2287.87 1479.01 Q2289.7 1482.55 2293.31 1482.55 Q2296.95 1482.55 2298.75 1479.01 Q2300.58 1475.44 2300.58 1468.33 Q2300.58 1461.2 2298.75 1457.66 Q2296.95 1454.1 2293.31 1454.1 M2293.31 1450.39 Q2299.12 1450.39 2302.18 1455 Q2305.26 1459.58 2305.26 1468.33 Q2305.26 1477.06 2302.18 1481.67 Q2299.12 1486.25 2293.31 1486.25 Q2287.5 1486.25 2284.42 1481.67 Q2281.37 1477.06 2281.37 1468.33 Q2281.37 1459.58 2284.42 1455 Q2287.5 1450.39 2293.31 1450.39 Z" fill="#000000" fill-rule="nonzero" fill-opacity="1"></path><path clip-path="url(#clip770)" d="M2323.48 1454.1 Q2319.86 1454.1 2318.04 1457.66 Q2316.23 1461.2 2316.23 1468.33 Q2316.23 1475.44 2318.04 1479.01 Q2319.86 1482.55 2323.48 1482.55 Q2327.11 1482.55 2328.91 1479.01 Q2330.74 1475.44 2330.74 1468.33 Q2330.74 1461.2 2328.91 1457.66 Q2327.11 1454.1 2323.48 1454.1 M2323.48 1450.39 Q2329.29 1450.39 2332.34 1455 Q2335.42 1459.58 2335.42 1468.33 Q2335.42 1477.06 2332.34 1481.67 Q2329.29 1486.25 2323.48 1486.25 Q2317.66 1486.25 2314.59 1481.67 Q2311.53 1477.06 2311.53 1468.33 Q2311.53 1459.58 2314.59 1455 Q2317.66 1450.39 2323.48 1450.39 Z" fill="#000000" fill-rule="nonzero" fill-opacity="1"></path><path clip-path="url(#clip770)" d="M988.22 1522.08 L988.22 1528.35 Q984.56 1526.6 981.313 1525.74 Q978.067 1524.88 975.043 1524.88 Q969.792 1524.88 966.927 1526.92 Q964.094 1528.96 964.094 1532.71 Q964.094 1535.87 965.972 1537.49 Q967.882 1539.08 973.165 1540.07 L977.048 1540.86 Q984.242 1542.23 987.647 1545.7 Q991.085 1549.14 991.085 1554.93 Q991.085 1561.84 986.438 1565.4 Q981.823 1568.97 972.879 1568.97 Q969.505 1568.97 965.686 1568.2 Q961.898 1567.44 957.824 1565.94 L957.824 1559.32 Q961.739 1561.52 965.495 1562.63 Q969.25 1563.75 972.879 1563.75 Q978.385 1563.75 981.377 1561.58 Q984.369 1559.42 984.369 1555.41 Q984.369 1551.91 982.205 1549.93 Q980.072 1547.96 975.171 1546.97 L971.256 1546.21 Q964.062 1544.78 960.848 1541.72 Q957.633 1538.67 957.633 1533.22 Q957.633 1526.92 962.057 1523.29 Q966.513 1519.66 974.311 1519.66 Q977.653 1519.66 981.122 1520.27 Q984.592 1520.87 988.22 1522.08 Z" fill="#000000" fill-rule="nonzero" fill-opacity="1"></path><path clip-path="url(#clip770)" d="M1000.25 1553.98 L1000.25 1532.4 L1006.11 1532.4 L1006.11 1553.75 Q1006.11 1558.81 1008.08 1561.36 Q1010.05 1563.87 1014 1563.87 Q1018.74 1563.87 1021.48 1560.85 Q1024.25 1557.83 1024.25 1552.61 L1024.25 1532.4 L1030.11 1532.4 L1030.11 1568.04 L1024.25 1568.04 L1024.25 1562.57 Q1022.12 1565.82 1019.28 1567.41 Q1016.48 1568.97 1012.76 1568.97 Q1006.62 1568.97 1003.43 1565.15 Q1000.25 1561.33 1000.25 1553.98 M1014.99 1531.54 L1014.99 1531.54 Z" fill="#000000" fill-rule="nonzero" fill-opacity="1"></path><path clip-path="url(#clip770)" d="M1067.76 1550.25 Q1067.76 1543.79 1065.09 1540.13 Q1062.44 1536.44 1057.8 1536.44 Q1053.15 1536.44 1050.48 1540.13 Q1047.84 1543.79 1047.84 1550.25 Q1047.84 1556.71 1050.48 1560.4 Q1053.15 1564.07 1057.8 1564.07 Q1062.44 1564.07 1065.09 1560.4 Q1067.76 1556.71 1067.76 1550.25 M1047.84 1537.81 Q1049.68 1534.62 1052.48 1533.1 Q1055.31 1531.54 1059.23 1531.54 Q1065.72 1531.54 1069.76 1536.69 Q1073.84 1541.85 1073.84 1550.25 Q1073.84 1558.65 1069.76 1563.81 Q1065.72 1568.97 1059.23 1568.97 Q1055.31 1568.97 1052.48 1567.44 Q1049.68 1565.88 1047.84 1562.7 L1047.84 1568.04 L1041.95 1568.04 L1041.95 1518.52 L1047.84 1518.52 L1047.84 1537.81 Z" fill="#000000" fill-rule="nonzero" fill-opacity="1"></path><path clip-path="url(#clip770)" d="M1106.27 1533.45 L1106.27 1538.98 Q1103.79 1537.71 1101.12 1537.07 Q1098.44 1536.44 1095.58 1536.44 Q1091.22 1536.44 1089.02 1537.77 Q1086.86 1539.11 1086.86 1541.79 Q1086.86 1543.82 1088.42 1545 Q1089.98 1546.15 1094.69 1547.2 L1096.69 1547.64 Q1102.93 1548.98 1105.54 1551.43 Q1108.18 1553.85 1108.18 1558.21 Q1108.18 1563.17 1104.24 1566.07 Q1100.32 1568.97 1093.45 1568.97 Q1090.58 1568.97 1087.46 1568.39 Q1084.37 1567.85 1080.94 1566.74 L1080.94 1560.69 Q1084.18 1562.38 1087.33 1563.24 Q1090.49 1564.07 1093.57 1564.07 Q1097.71 1564.07 1099.94 1562.66 Q1102.17 1561.23 1102.17 1558.65 Q1102.17 1556.27 1100.54 1554.99 Q1098.95 1553.72 1093.51 1552.54 L1091.47 1552.07 Q1086.03 1550.92 1083.61 1548.56 Q1081.19 1546.18 1081.19 1542.04 Q1081.19 1537.01 1084.76 1534.27 Q1088.32 1531.54 1094.88 1531.54 Q1098.12 1531.54 1100.99 1532.01 Q1103.85 1532.49 1106.27 1533.45 Z" fill="#000000" fill-rule="nonzero" fill-opacity="1"></path><path clip-path="url(#clip770)" d="M1123.17 1562.7 L1123.17 1581.6 L1117.28 1581.6 L1117.28 1532.4 L1123.17 1532.4 L1123.17 1537.81 Q1125.02 1534.62 1127.82 1533.1 Q1130.65 1531.54 1134.57 1531.54 Q1141.06 1531.54 1145.1 1536.69 Q1149.18 1541.85 1149.18 1550.25 Q1149.18 1558.65 1145.1 1563.81 Q1141.06 1568.97 1134.57 1568.97 Q1130.65 1568.97 1127.82 1567.44 Q1125.02 1565.88 1123.17 1562.7 M1143.1 1550.25 Q1143.1 1543.79 1140.42 1540.13 Q1137.78 1536.44 1133.14 1536.44 Q1128.49 1536.44 1125.81 1540.13 Q1123.17 1543.79 1123.17 1550.25 Q1123.17 1556.71 1125.81 1560.4 Q1128.49 1564.07 1133.14 1564.07 Q1137.78 1564.07 1140.42 1560.4 Q1143.1 1556.71 1143.1 1550.25 Z" fill="#000000" fill-rule="nonzero" fill-opacity="1"></path><path clip-path="url(#clip770)" d="M1175.09 1550.12 Q1167.99 1550.12 1165.25 1551.75 Q1162.51 1553.37 1162.51 1557.29 Q1162.51 1560.4 1164.55 1562.25 Q1166.62 1564.07 1170.15 1564.07 Q1175.02 1564.07 1177.95 1560.63 Q1180.91 1557.16 1180.91 1551.43 L1180.91 1550.12 L1175.09 1550.12 M1186.77 1547.71 L1186.77 1568.04 L1180.91 1568.04 L1180.91 1562.63 Q1178.9 1565.88 1175.91 1567.44 Q1172.92 1568.97 1168.59 1568.97 Q1163.12 1568.97 1159.87 1565.91 Q1156.66 1562.82 1156.66 1557.67 Q1156.66 1551.65 1160.67 1548.6 Q1164.71 1545.54 1172.7 1545.54 L1180.91 1545.54 L1180.91 1544.97 Q1180.91 1540.93 1178.24 1538.73 Q1175.59 1536.5 1170.79 1536.5 Q1167.73 1536.5 1164.84 1537.23 Q1161.94 1537.97 1159.27 1539.43 L1159.27 1534.02 Q1162.48 1532.78 1165.51 1532.17 Q1168.53 1531.54 1171.39 1531.54 Q1179.13 1531.54 1182.95 1535.55 Q1186.77 1539.56 1186.77 1547.71 Z" fill="#000000" fill-rule="nonzero" fill-opacity="1"></path><path clip-path="url(#clip770)" d="M1224.48 1533.76 L1224.48 1539.24 Q1222 1537.87 1219.49 1537.2 Q1217 1536.5 1214.46 1536.5 Q1208.76 1536.5 1205.61 1540.13 Q1202.46 1543.73 1202.46 1550.25 Q1202.46 1556.78 1205.61 1560.4 Q1208.76 1564 1214.46 1564 Q1217 1564 1219.49 1563.33 Q1222 1562.63 1224.48 1561.26 L1224.48 1566.68 Q1222.03 1567.82 1219.39 1568.39 Q1216.78 1568.97 1213.82 1568.97 Q1205.77 1568.97 1201.03 1563.91 Q1196.28 1558.85 1196.28 1550.25 Q1196.28 1541.53 1201.06 1536.53 Q1205.86 1531.54 1214.2 1531.54 Q1216.91 1531.54 1219.49 1532.11 Q1222.06 1532.65 1224.48 1533.76 Z" fill="#000000" fill-rule="nonzero" fill-opacity="1"></path><path clip-path="url(#clip770)" d="M1265.16 1548.76 L1265.16 1551.62 L1238.23 1551.62 Q1238.62 1557.67 1241.86 1560.85 Q1245.14 1564 1250.96 1564 Q1254.34 1564 1257.49 1563.17 Q1260.67 1562.35 1263.79 1560.69 L1263.79 1566.23 Q1260.64 1567.57 1257.33 1568.27 Q1254.02 1568.97 1250.61 1568.97 Q1242.08 1568.97 1237.09 1564 Q1232.12 1559.04 1232.12 1550.57 Q1232.12 1541.82 1236.83 1536.69 Q1241.58 1531.54 1249.6 1531.54 Q1256.79 1531.54 1260.96 1536.18 Q1265.16 1540.8 1265.16 1548.76 M1259.3 1547.04 Q1259.24 1542.23 1256.6 1539.37 Q1253.99 1536.5 1249.66 1536.5 Q1244.76 1536.5 1241.8 1539.27 Q1238.87 1542.04 1238.42 1547.07 L1259.3 1547.04 Z" fill="#000000" fill-rule="nonzero" fill-opacity="1"></path><path clip-path="url(#clip770)" d="M1318.95 1537.81 L1318.95 1518.52 L1324.81 1518.52 L1324.81 1568.04 L1318.95 1568.04 L1318.95 1562.7 Q1317.1 1565.88 1314.27 1567.44 Q1311.47 1568.97 1307.52 1568.97 Q1301.06 1568.97 1296.99 1563.81 Q1292.95 1558.65 1292.95 1550.25 Q1292.95 1541.85 1296.99 1536.69 Q1301.06 1531.54 1307.52 1531.54 Q1311.47 1531.54 1314.27 1533.1 Q1317.1 1534.62 1318.95 1537.81 M1298.99 1550.25 Q1298.99 1556.71 1301.64 1560.4 Q1304.31 1564.07 1308.96 1564.07 Q1313.6 1564.07 1316.28 1560.4 Q1318.95 1556.71 1318.95 1550.25 Q1318.95 1543.79 1316.28 1540.13 Q1313.6 1536.44 1308.96 1536.44 Q1304.31 1536.44 1301.64 1540.13 Q1298.99 1543.79 1298.99 1550.25 Z" fill="#000000" fill-rule="nonzero" fill-opacity="1"></path><path clip-path="url(#clip770)" d="M1336.87 1532.4 L1342.73 1532.4 L1342.73 1568.04 L1336.87 1568.04 L1336.87 1532.4 M1336.87 1518.52 L1342.73 1518.52 L1342.73 1525.93 L1336.87 1525.93 L1336.87 1518.52 Z" fill="#000000" fill-rule="nonzero" fill-opacity="1"></path><path clip-path="url(#clip770)" d="M1382.73 1539.24 Q1384.93 1535.29 1387.99 1533.41 Q1391.04 1531.54 1395.18 1531.54 Q1400.75 1531.54 1403.77 1535.45 Q1406.8 1539.33 1406.8 1546.53 L1406.8 1568.04 L1400.91 1568.04 L1400.91 1546.72 Q1400.91 1541.59 1399.09 1539.11 Q1397.28 1536.63 1393.56 1536.63 Q1389.01 1536.63 1386.36 1539.65 Q1383.72 1542.68 1383.72 1547.9 L1383.72 1568.04 L1377.83 1568.04 L1377.83 1546.72 Q1377.83 1541.56 1376.02 1539.11 Q1374.2 1536.63 1370.42 1536.63 Q1365.93 1536.63 1363.29 1539.68 Q1360.65 1542.71 1360.65 1547.9 L1360.65 1568.04 L1354.76 1568.04 L1354.76 1532.4 L1360.65 1532.4 L1360.65 1537.93 Q1362.65 1534.66 1365.45 1533.1 Q1368.25 1531.54 1372.1 1531.54 Q1375.99 1531.54 1378.69 1533.51 Q1381.43 1535.48 1382.73 1539.24 Z" fill="#000000" fill-rule="nonzero" fill-opacity="1"></path><path clip-path="url(#clip770)" d="M1448.97 1548.76 L1448.97 1551.62 L1422.04 1551.62 Q1422.43 1557.67 1425.67 1560.85 Q1428.95 1564 1434.77 1564 Q1438.15 1564 1441.3 1563.17 Q1444.48 1562.35 1447.6 1560.69 L1447.6 1566.23 Q1444.45 1567.57 1441.14 1568.27 Q1437.83 1568.97 1434.42 1568.97 Q1425.89 1568.97 1420.9 1564 Q1415.93 1559.04 1415.93 1550.57 Q1415.93 1541.82 1420.64 1536.69 Q1425.39 1531.54 1433.41 1531.54 Q1440.6 1531.54 1444.77 1536.18 Q1448.97 1540.8 1448.97 1548.76 M1443.11 1547.04 Q1443.05 1542.23 1440.41 1539.37 Q1437.8 1536.5 1433.47 1536.5 Q1428.57 1536.5 1425.61 1539.27 Q1422.68 1542.04 1422.23 1547.07 L1443.11 1547.04 Z" fill="#000000" fill-rule="nonzero" fill-opacity="1"></path><path clip-path="url(#clip770)" d="M1488.21 1546.53 L1488.21 1568.04 L1482.36 1568.04 L1482.36 1546.72 Q1482.36 1541.66 1480.38 1539.14 Q1478.41 1536.63 1474.46 1536.63 Q1469.72 1536.63 1466.99 1539.65 Q1464.25 1542.68 1464.25 1547.9 L1464.25 1568.04 L1458.36 1568.04 L1458.36 1532.4 L1464.25 1532.4 L1464.25 1537.93 Q1466.35 1534.72 1469.18 1533.13 Q1472.05 1531.54 1475.77 1531.54 Q1481.91 1531.54 1485.06 1535.36 Q1488.21 1539.14 1488.21 1546.53 Z" fill="#000000" fill-rule="nonzero" fill-opacity="1"></path><path clip-path="url(#clip770)" d="M1522.62 1533.45 L1522.62 1538.98 Q1520.14 1537.71 1517.47 1537.07 Q1514.79 1536.44 1511.93 1536.44 Q1507.57 1536.44 1505.37 1537.77 Q1503.21 1539.11 1503.21 1541.79 Q1503.21 1543.82 1504.77 1545 Q1506.33 1546.15 1511.04 1547.2 L1513.04 1547.64 Q1519.28 1548.98 1521.89 1551.43 Q1524.53 1553.85 1524.53 1558.21 Q1524.53 1563.17 1520.58 1566.07 Q1516.67 1568.97 1509.79 1568.97 Q1506.93 1568.97 1503.81 1568.39 Q1500.72 1567.85 1497.29 1566.74 L1497.29 1560.69 Q1500.53 1562.38 1503.68 1563.24 Q1506.83 1564.07 1509.92 1564.07 Q1514.06 1564.07 1516.29 1562.66 Q1518.52 1561.23 1518.52 1558.65 Q1518.52 1556.27 1516.89 1554.99 Q1515.3 1553.72 1509.86 1552.54 L1507.82 1552.07 Q1502.38 1550.92 1499.96 1548.56 Q1497.54 1546.18 1497.54 1542.04 Q1497.54 1537.01 1501.11 1534.27 Q1504.67 1531.54 1511.23 1531.54 Q1514.47 1531.54 1517.34 1532.01 Q1520.2 1532.49 1522.62 1533.45 Z" fill="#000000" fill-rule="nonzero" fill-opacity="1"></path><path clip-path="url(#clip770)" d="M1533.86 1532.4 L1539.71 1532.4 L1539.71 1568.04 L1533.86 1568.04 L1533.86 1532.4 M1533.86 1518.52 L1539.71 1518.52 L1539.71 1525.93 L1533.86 1525.93 L1533.86 1518.52 Z" fill="#000000" fill-rule="nonzero" fill-opacity="1"></path><path clip-path="url(#clip770)" d="M1565.78 1536.5 Q1561.07 1536.5 1558.33 1540.19 Q1555.6 1543.85 1555.6 1550.25 Q1555.6 1556.65 1558.3 1560.34 Q1561.04 1564 1565.78 1564 Q1570.46 1564 1573.2 1560.31 Q1575.93 1556.62 1575.93 1550.25 Q1575.93 1543.92 1573.2 1540.23 Q1570.46 1536.5 1565.78 1536.5 M1565.78 1531.54 Q1573.42 1531.54 1577.78 1536.5 Q1582.14 1541.47 1582.14 1550.25 Q1582.14 1559 1577.78 1564 Q1573.42 1568.97 1565.78 1568.97 Q1558.11 1568.97 1553.75 1564 Q1549.42 1559 1549.42 1550.25 Q1549.42 1541.47 1553.75 1536.5 Q1558.11 1531.54 1565.78 1531.54 Z" fill="#000000" fill-rule="nonzero" fill-opacity="1"></path><path clip-path="url(#clip770)" d="M1621.48 1546.53 L1621.48 1568.04 L1615.62 1568.04 L1615.62 1546.72 Q1615.62 1541.66 1613.65 1539.14 Q1611.68 1536.63 1607.73 1536.63 Q1602.99 1536.63 1600.25 1539.65 Q1597.51 1542.68 1597.51 1547.9 L1597.51 1568.04 L1591.63 1568.04 L1591.63 1532.4 L1597.51 1532.4 L1597.51 1537.93 Q1599.61 1534.72 1602.45 1533.13 Q1605.31 1531.54 1609.04 1531.54 Q1615.18 1531.54 1618.33 1535.36 Q1621.48 1539.14 1621.48 1546.53 Z" fill="#000000" fill-rule="nonzero" fill-opacity="1"></path><path clip-path="url(#clip770)" d="M1667.92 1524.09 L1684.37 1568.04 L1678.17 1568.04 L1668.17 1541.69 L1655.89 1568.04 L1649.68 1568.04 L1665.31 1533.86 L1662.95 1527.56 Q1661.46 1523.55 1658.05 1523.55 L1655 1523.55 L1655 1518.52 L1658.72 1518.58 Q1665.91 1518.68 1667.92 1524.09 Z" fill="#000000" fill-rule="nonzero" fill-opacity="1"></path><polyline clip-path="url(#clip770)" style="stroke:#000000; stroke-linecap:round; stroke-linejoin:round; stroke-width:4; stroke-opacity:1; fill:none" points="289.251,1423.18 289.251,47.2441 "></polyline>
<polyline clip-path="url(#clip770)" style="stroke:#000000; stroke-linecap:round; stroke-linejoin:round; stroke-width:4; stroke-opacity:1; fill:none" points="289.251,1176.3 308.149,1176.3 "></polyline>
<polyline clip-path="url(#clip770)" style="stroke:#000000; stroke-linecap:round; stroke-linejoin:round; stroke-width:4; stroke-opacity:1; fill:none" points="289.251,885.005 308.149,885.005 "></polyline>
<polyline clip-path="url(#clip770)" style="stroke:#000000; stroke-linecap:round; stroke-linejoin:round; stroke-width:4; stroke-opacity:1; fill:none" points="289.251,593.71 308.149,593.71 "></polyline>
<polyline clip-path="url(#clip770)" style="stroke:#000000; stroke-linecap:round; stroke-linejoin:round; stroke-width:4; stroke-opacity:1; fill:none" points="289.251,302.415 308.149,302.415 "></polyline>
<path clip-path="url(#clip770)" d="M115.214 1196.09 L122.852 1196.09 L122.852 1169.73 L114.542 1171.39 L114.542 1167.13 L122.806 1165.47 L127.482 1165.47 L127.482 1196.09 L135.121 1196.09 L135.121 1200.03 L115.214 1200.03 L115.214 1196.09 Z" fill="#000000" fill-rule="nonzero" fill-opacity="1"></path><path clip-path="url(#clip770)" d="M154.565 1168.55 Q150.954 1168.55 149.125 1172.11 Q147.32 1175.65 147.32 1182.78 Q147.32 1189.89 149.125 1193.45 Q150.954 1196.99 154.565 1196.99 Q158.199 1196.99 160.005 1193.45 Q161.834 1189.89 161.834 1182.78 Q161.834 1175.65 160.005 1172.11 Q158.199 1168.55 154.565 1168.55 M154.565 1164.84 Q160.375 1164.84 163.431 1169.45 Q166.51 1174.03 166.51 1182.78 Q166.51 1191.51 163.431 1196.12 Q160.375 1200.7 154.565 1200.7 Q148.755 1200.7 145.676 1196.12 Q142.621 1191.51 142.621 1182.78 Q142.621 1174.03 145.676 1169.45 Q148.755 1164.84 154.565 1164.84 Z" fill="#000000" fill-rule="nonzero" fill-opacity="1"></path><path clip-path="url(#clip770)" d="M166.51 1158.94 L190.621 1158.94 L190.621 1162.14 L166.51 1162.14 L166.51 1158.94 Z" fill="#000000" fill-rule="nonzero" fill-opacity="1"></path><path clip-path="url(#clip770)" d="M206.946 1147.04 Q204.012 1147.04 202.526 1149.93 Q201.059 1152.81 201.059 1158.61 Q201.059 1164.38 202.526 1167.28 Q204.012 1170.15 206.946 1170.15 Q209.899 1170.15 211.366 1167.28 Q212.852 1164.38 212.852 1158.61 Q212.852 1152.81 211.366 1149.93 Q209.899 1147.04 206.946 1147.04 M206.946 1144.03 Q211.667 1144.03 214.15 1147.77 Q216.651 1151.5 216.651 1158.61 Q216.651 1165.7 214.15 1169.44 Q211.667 1173.16 206.946 1173.16 Q202.226 1173.16 199.724 1169.44 Q197.241 1165.7 197.241 1158.61 Q197.241 1151.5 199.724 1147.77 Q202.226 1144.03 206.946 1144.03 Z" fill="#000000" fill-rule="nonzero" fill-opacity="1"></path><path clip-path="url(#clip770)" d="M223.328 1167.84 L227.296 1167.84 L227.296 1172.62 L223.328 1172.62 L223.328 1167.84 Z" fill="#000000" fill-rule="nonzero" fill-opacity="1"></path><path clip-path="url(#clip770)" d="M235.685 1172.03 L235.685 1168.57 Q237.114 1169.25 238.581 1169.61 Q240.048 1169.96 241.459 1169.96 Q245.22 1169.96 247.195 1167.44 Q249.189 1164.91 249.471 1159.75 Q248.38 1161.37 246.706 1162.23 Q245.032 1163.1 243.001 1163.1 Q238.788 1163.1 236.324 1160.56 Q233.879 1158 233.879 1153.58 Q233.879 1149.26 236.437 1146.64 Q238.995 1144.03 243.245 1144.03 Q248.117 1144.03 250.674 1147.77 Q253.251 1151.5 253.251 1158.61 Q253.251 1165.24 250.091 1169.21 Q246.95 1173.16 241.628 1173.16 Q240.198 1173.16 238.731 1172.88 Q237.264 1172.6 235.685 1172.03 M243.245 1160.13 Q245.803 1160.13 247.289 1158.38 Q248.794 1156.63 248.794 1153.58 Q248.794 1150.56 247.289 1148.81 Q245.803 1147.04 243.245 1147.04 Q240.687 1147.04 239.183 1148.81 Q237.697 1150.56 237.697 1153.58 Q237.697 1156.63 239.183 1158.38 Q240.687 1160.13 243.245 1160.13 Z" fill="#000000" fill-rule="nonzero" fill-opacity="1"></path><path clip-path="url(#clip770)" d="M114.931 904.797 L122.57 904.797 L122.57 878.432 L114.26 880.098 L114.26 875.839 L122.524 874.172 L127.2 874.172 L127.2 904.797 L134.839 904.797 L134.839 908.732 L114.931 908.732 L114.931 904.797 Z" fill="#000000" fill-rule="nonzero" fill-opacity="1"></path><path clip-path="url(#clip770)" d="M154.283 877.251 Q150.672 877.251 148.843 880.816 Q147.038 884.358 147.038 891.487 Q147.038 898.594 148.843 902.158 Q150.672 905.7 154.283 905.7 Q157.917 905.7 159.723 902.158 Q161.552 898.594 161.552 891.487 Q161.552 884.358 159.723 880.816 Q157.917 877.251 154.283 877.251 M154.283 873.547 Q160.093 873.547 163.149 878.154 Q166.227 882.737 166.227 891.487 Q166.227 900.214 163.149 904.82 Q160.093 909.404 154.283 909.404 Q148.473 909.404 145.394 904.82 Q142.339 900.214 142.339 891.487 Q142.339 882.737 145.394 878.154 Q148.473 873.547 154.283 873.547 Z" fill="#000000" fill-rule="nonzero" fill-opacity="1"></path><path clip-path="url(#clip770)" d="M166.227 867.649 L190.339 867.649 L190.339 870.846 L166.227 870.846 L166.227 867.649 Z" fill="#000000" fill-rule="nonzero" fill-opacity="1"></path><path clip-path="url(#clip770)" d="M206.664 855.743 Q203.73 855.743 202.244 858.64 Q200.777 861.517 200.777 867.31 Q200.777 873.084 202.244 875.981 Q203.73 878.858 206.664 878.858 Q209.617 878.858 211.084 875.981 Q212.57 873.084 212.57 867.31 Q212.57 861.517 211.084 858.64 Q209.617 855.743 206.664 855.743 M206.664 852.734 Q211.385 852.734 213.868 856.477 Q216.369 860.201 216.369 867.31 Q216.369 874.401 213.868 878.144 Q211.385 881.867 206.664 881.867 Q201.943 881.867 199.442 878.144 Q196.959 874.401 196.959 867.31 Q196.959 860.201 199.442 856.477 Q201.943 852.734 206.664 852.734 Z" fill="#000000" fill-rule="nonzero" fill-opacity="1"></path><path clip-path="url(#clip770)" d="M223.046 876.545 L227.014 876.545 L227.014 881.322 L223.046 881.322 L223.046 876.545 Z" fill="#000000" fill-rule="nonzero" fill-opacity="1"></path><path clip-path="url(#clip770)" d="M243.885 865.768 Q241.327 865.768 239.822 867.517 Q238.336 869.266 238.336 872.313 Q238.336 875.341 239.822 877.109 Q241.327 878.858 243.885 878.858 Q246.443 878.858 247.928 877.109 Q249.433 875.341 249.433 872.313 Q249.433 869.266 247.928 867.517 Q246.443 865.768 243.885 865.768 M251.427 853.863 L251.427 857.323 Q249.997 856.646 248.53 856.289 Q247.082 855.932 245.653 855.932 Q241.891 855.932 239.898 858.471 Q237.923 861.01 237.641 866.144 Q238.75 864.508 240.424 863.643 Q242.098 862.759 244.11 862.759 Q248.342 862.759 250.787 865.335 Q253.251 867.893 253.251 872.313 Q253.251 876.639 250.693 879.253 Q248.135 881.867 243.885 881.867 Q239.014 881.867 236.437 878.144 Q233.86 874.401 233.86 867.31 Q233.86 860.652 237.02 856.703 Q240.18 852.734 245.502 852.734 Q246.932 852.734 248.38 853.016 Q249.847 853.298 251.427 853.863 Z" fill="#000000" fill-rule="nonzero" fill-opacity="1"></path><path clip-path="url(#clip770)" d="M115.59 613.502 L123.229 613.502 L123.229 587.137 L114.918 588.803 L114.918 584.544 L123.182 582.878 L127.858 582.878 L127.858 613.502 L135.497 613.502 L135.497 617.438 L115.59 617.438 L115.59 613.502 Z" fill="#000000" fill-rule="nonzero" fill-opacity="1"></path><path clip-path="url(#clip770)" d="M154.941 585.956 Q151.33 585.956 149.502 589.521 Q147.696 593.063 147.696 600.192 Q147.696 607.299 149.502 610.864 Q151.33 614.405 154.941 614.405 Q158.576 614.405 160.381 610.864 Q162.21 607.299 162.21 600.192 Q162.21 593.063 160.381 589.521 Q158.576 585.956 154.941 585.956 M154.941 582.253 Q160.752 582.253 163.807 586.859 Q166.886 591.442 166.886 600.192 Q166.886 608.919 163.807 613.526 Q160.752 618.109 154.941 618.109 Q149.131 618.109 146.053 613.526 Q142.997 608.919 142.997 600.192 Q142.997 591.442 146.053 586.859 Q149.131 582.253 154.941 582.253 Z" fill="#000000" fill-rule="nonzero" fill-opacity="1"></path><path clip-path="url(#clip770)" d="M166.886 576.354 L190.997 576.354 L190.997 579.551 L166.886 579.551 L166.886 576.354 Z" fill="#000000" fill-rule="nonzero" fill-opacity="1"></path><path clip-path="url(#clip770)" d="M207.322 564.449 Q204.388 564.449 202.903 567.345 Q201.436 570.223 201.436 576.015 Q201.436 581.789 202.903 584.686 Q204.388 587.563 207.322 587.563 Q210.275 587.563 211.742 584.686 Q213.228 581.789 213.228 576.015 Q213.228 570.223 211.742 567.345 Q210.275 564.449 207.322 564.449 M207.322 561.439 Q212.043 561.439 214.526 565.182 Q217.027 568.906 217.027 576.015 Q217.027 583.106 214.526 586.849 Q212.043 590.573 207.322 590.573 Q202.602 590.573 200.1 586.849 Q197.618 583.106 197.618 576.015 Q197.618 568.906 200.1 565.182 Q202.602 561.439 207.322 561.439 Z" fill="#000000" fill-rule="nonzero" fill-opacity="1"></path><path clip-path="url(#clip770)" d="M223.704 585.25 L227.672 585.25 L227.672 590.027 L223.704 590.027 L223.704 585.25 Z" fill="#000000" fill-rule="nonzero" fill-opacity="1"></path><path clip-path="url(#clip770)" d="M247.458 574.887 Q250.185 575.47 251.709 577.313 Q253.251 579.156 253.251 581.865 Q253.251 586.021 250.392 588.297 Q247.533 590.573 242.267 590.573 Q240.499 590.573 238.619 590.215 Q236.757 589.877 234.763 589.181 L234.763 585.513 Q236.343 586.435 238.224 586.905 Q240.104 587.375 242.154 587.375 Q245.728 587.375 247.59 585.965 Q249.471 584.554 249.471 581.865 Q249.471 579.382 247.722 577.99 Q245.991 576.58 242.888 576.58 L239.615 576.58 L239.615 573.458 L243.038 573.458 Q245.841 573.458 247.327 572.348 Q248.812 571.219 248.812 569.113 Q248.812 566.95 247.27 565.803 Q245.747 564.637 242.888 564.637 Q241.327 564.637 239.54 564.975 Q237.753 565.314 235.609 566.028 L235.609 562.643 Q237.772 562.041 239.653 561.74 Q241.553 561.439 243.226 561.439 Q247.552 561.439 250.073 563.414 Q252.593 565.37 252.593 568.718 Q252.593 571.05 251.257 572.668 Q249.922 574.266 247.458 574.887 Z" fill="#000000" fill-rule="nonzero" fill-opacity="1"></path><path clip-path="url(#clip770)" d="M145.795 322.208 L153.434 322.208 L153.434 295.842 L145.124 297.509 L145.124 293.249 L153.388 291.583 L158.063 291.583 L158.063 322.208 L165.702 322.208 L165.702 326.143 L145.795 326.143 L145.795 322.208 Z" fill="#000000" fill-rule="nonzero" fill-opacity="1"></path><path clip-path="url(#clip770)" d="M185.147 294.661 Q181.536 294.661 179.707 298.226 Q177.901 301.768 177.901 308.898 Q177.901 316.004 179.707 319.569 Q181.536 323.11 185.147 323.11 Q188.781 323.11 190.586 319.569 Q192.415 316.004 192.415 308.898 Q192.415 301.768 190.586 298.226 Q188.781 294.661 185.147 294.661 M185.147 290.958 Q190.957 290.958 194.012 295.564 Q197.091 300.148 197.091 308.898 Q197.091 317.624 194.012 322.231 Q190.957 326.814 185.147 326.814 Q179.336 326.814 176.258 322.231 Q173.202 317.624 173.202 308.898 Q173.202 300.148 176.258 295.564 Q179.336 290.958 185.147 290.958 Z" fill="#000000" fill-rule="nonzero" fill-opacity="1"></path><path clip-path="url(#clip770)" d="M206.796 273.154 Q203.862 273.154 202.376 276.05 Q200.909 278.928 200.909 284.721 Q200.909 290.495 202.376 293.391 Q203.862 296.269 206.796 296.269 Q209.749 296.269 211.216 293.391 Q212.701 290.495 212.701 284.721 Q212.701 278.928 211.216 276.05 Q209.749 273.154 206.796 273.154 M206.796 270.145 Q211.517 270.145 213.999 273.887 Q216.501 277.611 216.501 284.721 Q216.501 291.811 213.999 295.554 Q211.517 299.278 206.796 299.278 Q202.075 299.278 199.574 295.554 Q197.091 291.811 197.091 284.721 Q197.091 277.611 199.574 273.887 Q202.075 270.145 206.796 270.145 Z" fill="#000000" fill-rule="nonzero" fill-opacity="1"></path><path clip-path="url(#clip770)" d="M223.177 293.955 L227.146 293.955 L227.146 298.732 L223.177 298.732 L223.177 293.955 Z" fill="#000000" fill-rule="nonzero" fill-opacity="1"></path><path clip-path="url(#clip770)" d="M243.546 273.154 Q240.612 273.154 239.126 276.05 Q237.659 278.928 237.659 284.721 Q237.659 290.495 239.126 293.391 Q240.612 296.269 243.546 296.269 Q246.499 296.269 247.966 293.391 Q249.452 290.495 249.452 284.721 Q249.452 278.928 247.966 276.05 Q246.499 273.154 243.546 273.154 M243.546 270.145 Q248.267 270.145 250.75 273.887 Q253.251 277.611 253.251 284.721 Q253.251 291.811 250.75 295.554 Q248.267 299.278 243.546 299.278 Q238.825 299.278 236.324 295.554 Q233.841 291.811 233.841 284.721 Q233.841 277.611 236.324 273.887 Q238.825 270.145 243.546 270.145 Z" fill="#000000" fill-rule="nonzero" fill-opacity="1"></path><path clip-path="url(#clip770)" d="M17.4306 1109.12 L17.4306 1099.54 L49.7684 1087.41 L17.4306 1075.22 L17.4306 1065.64 L64.9506 1065.64 L64.9506 1071.91 L23.2234 1071.91 L55.8158 1084.16 L55.8158 1090.62 L23.2234 1102.88 L64.9506 1102.88 L64.9506 1109.12 L17.4306 1109.12 Z" fill="#000000" fill-rule="nonzero" fill-opacity="1"></path><path clip-path="url(#clip770)" d="M45.6625 1022.64 L48.5271 1022.64 L48.5271 1049.57 Q54.5745 1049.18 57.7573 1045.94 Q60.9084 1042.66 60.9084 1036.83 Q60.9084 1033.46 60.0808 1030.31 Q59.2533 1027.13 57.5982 1024.01 L63.1364 1024.01 Q64.4732 1027.16 65.1734 1030.47 Q65.8736 1033.78 65.8736 1037.18 Q65.8736 1045.71 60.9084 1050.71 Q55.9431 1055.68 47.4767 1055.68 Q38.7239 1055.68 33.5995 1050.97 Q28.4433 1046.22 28.4433 1038.2 Q28.4433 1031.01 33.0902 1026.84 Q37.7054 1022.64 45.6625 1022.64 M43.9437 1028.5 Q39.1376 1028.56 36.2731 1031.2 Q33.4085 1033.81 33.4085 1038.14 Q33.4085 1043.04 36.1776 1046 Q38.9467 1048.93 43.9756 1049.37 L43.9437 1028.5 Z" fill="#000000" fill-rule="nonzero" fill-opacity="1"></path><path clip-path="url(#clip770)" d="M34.7135 989.569 L15.4254 989.569 L15.4254 983.713 L64.9506 983.713 L64.9506 989.569 L59.6034 989.569 Q62.7862 991.415 64.3458 994.248 Q65.8736 997.049 65.8736 1001 Q65.8736 1007.46 60.7174 1011.53 Q55.5612 1015.57 47.1584 1015.57 Q38.7557 1015.57 33.5995 1011.53 Q28.4433 1007.46 28.4433 1001 Q28.4433 997.049 30.0028 994.248 Q31.5306 991.415 34.7135 989.569 M47.1584 1009.53 Q53.6196 1009.53 57.3117 1006.88 Q60.972 1004.21 60.972 999.563 Q60.972 994.916 57.3117 992.243 Q53.6196 989.569 47.1584 989.569 Q40.6972 989.569 37.037 992.243 Q33.3448 994.916 33.3448 999.563 Q33.3448 1004.21 37.037 1006.88 Q40.6972 1009.53 47.1584 1009.53 Z" fill="#000000" fill-rule="nonzero" fill-opacity="1"></path><path clip-path="url(#clip770)" d="M29.3026 971.65 L29.3026 965.793 L64.9506 965.793 L64.9506 971.65 L29.3026 971.65 M15.4254 971.65 L15.4254 965.793 L22.8414 965.793 L22.8414 971.65 L15.4254 971.65 Z" fill="#000000" fill-rule="nonzero" fill-opacity="1"></path><path clip-path="url(#clip770)" d="M47.0311 937.338 Q47.0311 944.436 48.6544 947.173 Q50.2776 949.911 54.1925 949.911 Q57.3117 949.911 59.1578 947.874 Q60.972 945.805 60.972 942.272 Q60.972 937.402 57.5345 934.474 Q54.0652 931.514 48.3361 931.514 L47.0311 931.514 L47.0311 937.338 M44.6121 925.657 L64.9506 925.657 L64.9506 931.514 L59.5397 931.514 Q62.7862 933.519 64.3458 936.511 Q65.8736 939.503 65.8736 943.831 Q65.8736 949.306 62.8181 952.552 Q59.7307 955.767 54.5745 955.767 Q48.5589 955.767 45.5033 951.757 Q42.4478 947.714 42.4478 939.726 L42.4478 931.514 L41.8749 931.514 Q37.8327 931.514 35.6365 934.187 Q33.4085 936.829 33.4085 941.635 Q33.4085 944.691 34.1406 947.587 Q34.8726 950.484 36.3367 953.157 L30.9259 953.157 Q29.6846 949.942 29.0798 946.919 Q28.4433 943.895 28.4433 941.031 Q28.4433 933.296 32.4536 929.477 Q36.464 925.657 44.6121 925.657 Z" fill="#000000" fill-rule="nonzero" fill-opacity="1"></path><path clip-path="url(#clip770)" d="M43.4345 883.962 L64.9506 883.962 L64.9506 889.818 L43.6255 889.818 Q38.5647 889.818 36.0503 891.792 Q33.5358 893.765 33.5358 897.712 Q33.5358 902.454 36.5595 905.192 Q39.5832 907.929 44.8031 907.929 L64.9506 907.929 L64.9506 913.817 L29.3026 913.817 L29.3026 907.929 L34.8408 907.929 Q31.6261 905.828 30.0347 902.995 Q28.4433 900.131 28.4433 896.407 Q28.4433 890.264 32.2627 887.113 Q36.0503 883.962 43.4345 883.962 Z" fill="#000000" fill-rule="nonzero" fill-opacity="1"></path><path clip-path="url(#clip770)" d="M17.4306 851.306 L17.4306 844.877 L64.9506 844.877 L64.9506 851.306 L17.4306 851.306 Z" fill="#000000" fill-rule="nonzero" fill-opacity="1"></path><path clip-path="url(#clip770)" d="M43.4345 802.704 L64.9506 802.704 L64.9506 808.56 L43.6255 808.56 Q38.5647 808.56 36.0503 810.534 Q33.5358 812.507 33.5358 816.454 Q33.5358 821.196 36.5595 823.933 Q39.5832 826.671 44.8031 826.671 L64.9506 826.671 L64.9506 832.559 L29.3026 832.559 L29.3026 826.671 L34.8408 826.671 Q31.6261 824.57 30.0347 821.737 Q28.4433 818.873 28.4433 815.149 Q28.4433 809.006 32.2627 805.855 Q36.0503 802.704 43.4345 802.704 Z" fill="#000000" fill-rule="nonzero" fill-opacity="1"></path><path clip-path="url(#clip770)" d="M29.3026 791.023 L29.3026 785.166 L65.5872 785.166 Q72.3985 785.166 75.454 787.776 Q78.5095 790.354 78.5095 796.115 L78.5095 798.343 L73.5443 798.343 L73.5443 796.784 Q73.5443 793.442 71.9847 792.232 Q70.4569 791.023 65.5872 791.023 L29.3026 791.023 M15.4254 791.023 L15.4254 785.166 L22.8414 785.166 L22.8414 791.023 L15.4254 791.023 Z" fill="#000000" fill-rule="nonzero" fill-opacity="1"></path><path clip-path="url(#clip770)" d="M45.6625 742.42 L48.5271 742.42 L48.5271 769.347 Q54.5745 768.965 57.7573 765.719 Q60.9084 762.441 60.9084 756.616 Q60.9084 753.242 60.0808 750.091 Q59.2533 746.908 57.5982 743.789 L63.1364 743.789 Q64.4732 746.94 65.1734 750.25 Q65.8736 753.56 65.8736 756.966 Q65.8736 765.496 60.9084 770.493 Q55.9431 775.458 47.4767 775.458 Q38.7239 775.458 33.5995 770.748 Q28.4433 766.005 28.4433 757.985 Q28.4433 750.791 33.0902 746.622 Q37.7054 742.42 45.6625 742.42 M43.9437 748.277 Q39.1376 748.341 36.2731 750.982 Q33.4085 753.592 33.4085 757.921 Q33.4085 762.823 36.1776 765.783 Q38.9467 768.711 43.9756 769.156 L43.9437 748.277 Z" fill="#000000" fill-rule="nonzero" fill-opacity="1"></path><path clip-path="url(#clip770)" d="M30.6712 707.154 L36.1458 707.154 Q34.7771 709.637 34.1087 712.152 Q33.4085 714.634 33.4085 717.18 Q33.4085 722.878 37.037 726.029 Q40.6336 729.18 47.1584 729.18 Q53.6833 729.18 57.3117 726.029 Q60.9084 722.878 60.9084 717.18 Q60.9084 714.634 60.24 712.152 Q59.5397 709.637 58.1711 707.154 L63.582 707.154 Q64.7278 709.605 65.3007 712.247 Q65.8736 714.857 65.8736 717.817 Q65.8736 725.87 60.8129 730.612 Q55.7521 735.355 47.1584 735.355 Q38.4374 735.355 33.4403 730.58 Q28.4433 725.774 28.4433 717.435 Q28.4433 714.73 29.0162 712.152 Q29.5573 709.573 30.6712 707.154 Z" fill="#000000" fill-rule="nonzero" fill-opacity="1"></path><path clip-path="url(#clip770)" d="M19.1811 691.177 L29.3026 691.177 L29.3026 679.114 L33.8541 679.114 L33.8541 691.177 L53.2059 691.177 Q57.5664 691.177 58.8077 689.999 Q60.049 688.789 60.049 685.129 L60.049 679.114 L64.9506 679.114 L64.9506 685.129 Q64.9506 691.909 62.4361 694.487 Q59.8898 697.065 53.2059 697.065 L33.8541 697.065 L33.8541 701.362 L29.3026 701.362 L29.3026 697.065 L19.1811 697.065 L19.1811 691.177 Z" fill="#000000" fill-rule="nonzero" fill-opacity="1"></path><path clip-path="url(#clip770)" d="M29.3026 671.411 L29.3026 665.555 L64.9506 665.555 L64.9506 671.411 L29.3026 671.411 M15.4254 671.411 L15.4254 665.555 L22.8414 665.555 L22.8414 671.411 L15.4254 671.411 Z" fill="#000000" fill-rule="nonzero" fill-opacity="1"></path><path clip-path="url(#clip770)" d="M29.3026 657.502 L29.3026 651.295 L59.2214 640.155 L29.3026 629.015 L29.3026 622.809 L64.9506 636.177 L64.9506 644.134 L29.3026 657.502 Z" fill="#000000" fill-rule="nonzero" fill-opacity="1"></path><path clip-path="url(#clip770)" d="M29.3026 614.724 L29.3026 608.868 L64.9506 608.868 L64.9506 614.724 L29.3026 614.724 M15.4254 614.724 L15.4254 608.868 L22.8414 608.868 L22.8414 614.724 L15.4254 614.724 Z" fill="#000000" fill-rule="nonzero" fill-opacity="1"></path><path clip-path="url(#clip770)" d="M19.1811 590.821 L29.3026 590.821 L29.3026 578.758 L33.8541 578.758 L33.8541 590.821 L53.2059 590.821 Q57.5664 590.821 58.8077 589.644 Q60.049 588.434 60.049 584.774 L60.049 578.758 L64.9506 578.758 L64.9506 584.774 Q64.9506 591.553 62.4361 594.131 Q59.8898 596.709 53.2059 596.709 L33.8541 596.709 L33.8541 601.006 L29.3026 601.006 L29.3026 596.709 L19.1811 596.709 L19.1811 590.821 Z" fill="#000000" fill-rule="nonzero" fill-opacity="1"></path><path clip-path="url(#clip770)" d="M68.2607 556.224 Q74.6265 558.706 76.568 561.061 Q78.5095 563.417 78.5095 567.364 L78.5095 572.042 L73.6079 572.042 L73.6079 568.605 Q73.6079 566.186 72.4621 564.849 Q71.3163 563.512 67.0513 561.889 L64.3777 560.839 L29.3026 575.257 L29.3026 569.05 L57.1844 557.91 L29.3026 546.77 L29.3026 540.564 L68.2607 556.224 Z" fill="#000000" fill-rule="nonzero" fill-opacity="1"></path><path clip-path="url(#clip770)" d="M38.0909 462.303 Q40.3453 462.303 40.3453 465.523 L40.3453 472.77 Q43.2438 470.741 47.5272 470.741 Q51.1987 470.741 54.6447 472.254 Q58.0585 473.736 60.4418 476.119 Q62.825 478.47 64.2743 481.433 Q65.6913 484.396 65.6913 487.294 Q65.6913 491.707 62.6962 494.444 Q59.701 497.182 55.2566 497.182 Q52.9056 497.182 50.2969 496.376 Q47.6882 495.539 45.2728 493.961 Q42.8252 492.383 40.8606 490.322 Q38.896 488.228 37.7044 485.523 Q36.5128 482.786 36.5128 479.919 L36.5128 464.879 Q36.5128 464.074 36.5772 463.655 Q36.6094 463.204 36.9959 462.754 Q37.3502 462.303 38.0909 462.303 M46.7543 474.96 Q45.9813 474.96 45.305 475.056 Q44.5965 475.153 43.6625 475.507 Q42.6963 475.861 42.02 476.473 Q41.3115 477.085 40.8284 478.277 Q40.3453 479.436 40.3453 481.014 Q40.3453 483.236 41.5691 485.684 Q42.7929 488.132 45.8203 490 Q48.3968 491.546 51.7462 492.319 Q55.0956 493.091 57.0923 493.091 Q60.5062 493.091 62.3741 491.449 Q64.2098 489.774 64.2098 487.23 Q64.2098 485.137 62.7928 482.753 Q61.3435 480.37 58.606 478.534 Q56.2228 476.924 52.7446 475.958 Q49.2663 474.96 46.7543 474.96 Z" fill="#000000" fill-rule="nonzero" fill-opacity="1"></path><path clip-path="url(#clip770)" d="M45.917 455.61 Q45.0829 455.61 44.8349 455.543 Q44.5869 455.453 44.2036 455.092 L34.3293 446.232 Q28.8736 441.385 24.1168 441.385 Q21.0283 441.385 18.819 443.008 Q16.6097 444.609 16.6097 447.562 Q16.6097 449.591 17.8496 451.304 Q19.0895 453.018 21.2988 453.807 Q21.2537 453.672 21.2537 453.198 Q21.2537 452.048 21.9751 451.417 Q22.6966 450.763 23.666 450.763 Q24.9059 450.763 25.5146 451.575 Q26.1007 452.364 26.1007 453.153 Q26.1007 453.469 26.0331 453.897 Q25.9655 454.303 25.3342 454.957 Q24.6804 455.61 23.5307 455.61 Q20.3069 455.61 17.7369 453.176 Q15.1668 450.718 15.1668 446.976 Q15.1668 442.738 17.6918 439.965 Q20.1942 437.169 24.1168 437.169 Q25.492 437.169 26.7545 437.598 Q27.9944 438.003 28.9638 438.567 Q29.9332 439.108 31.4888 440.596 Q33.0443 442.084 34.149 443.279 Q35.2536 444.474 37.5982 447.156 L42.355 452.048 L42.355 443.73 Q42.355 439.672 41.9943 439.356 Q41.3405 438.905 37.8913 438.342 L37.8913 437.169 L45.917 438.477 L45.917 455.61 Z" fill="#000000" fill-rule="nonzero" fill-opacity="1"></path><path clip-path="url(#clip770)" d="M84.0403 450.12 L82.62 450.12 Q82.62 447.662 82.3269 447.099 Q82.0113 446.535 80.5234 446.535 L68.1467 446.535 Q66.4333 446.535 66.005 447.144 Q65.5766 447.73 65.5766 450.12 L64.1338 450.12 L63.6379 443.627 L68.4848 443.627 Q63.6379 441.463 63.6379 436.796 Q63.6379 431.385 68.1467 430.641 Q66.3882 429.852 65.013 428.207 Q63.6379 426.538 63.6379 423.946 Q63.6379 420.474 65.3512 419.099 Q66.501 418.084 67.786 417.882 Q69.071 417.679 72.4075 417.679 L81.2223 417.679 Q82.1917 417.634 82.4171 416.89 Q82.62 416.146 82.62 414.072 L84.0403 414.072 Q83.905 418.783 83.905 419.234 Q83.905 419.595 84.0403 424.464 L82.62 424.464 Q82.62 422.007 82.3269 421.443 Q82.0113 420.857 80.5234 420.857 L69.7698 420.857 Q67.4253 420.857 66.0501 421.579 Q64.6523 422.3 64.6523 424.284 Q64.6523 426.674 66.6588 428.59 Q68.6652 430.506 72.0468 430.506 L80.5234 430.506 Q82.0113 430.506 82.3269 429.943 Q82.62 429.356 82.62 426.899 L84.0403 426.899 Q83.905 431.611 83.905 432.084 Q83.905 432.445 84.0403 437.292 L82.62 437.292 Q82.62 434.835 82.3269 434.271 Q82.0113 433.685 80.5234 433.685 L69.7698 433.685 Q67.4253 433.685 66.0501 434.406 Q64.6523 435.128 64.6523 437.112 Q64.6523 439.501 66.6588 441.418 Q68.6652 443.334 72.0468 443.334 L80.5234 443.334 Q82.0113 443.334 82.3269 442.77 Q82.62 442.184 82.62 439.749 L84.0403 439.749 Q83.905 444.461 83.905 444.912 Q83.905 445.273 84.0403 450.12 Z" fill="#000000" fill-rule="nonzero" fill-opacity="1"></path><path clip-path="url(#clip770)" d="M84.0403 412.234 L82.62 412.234 Q82.62 409.776 82.3269 409.213 Q82.0113 408.649 80.5234 408.649 L68.1016 408.649 Q66.3882 408.649 65.9824 409.235 Q65.5766 409.799 65.5766 412.053 L64.1338 412.053 L63.6379 405.606 L80.5685 405.606 Q81.9437 405.606 82.2818 405.11 Q82.62 404.614 82.62 402.359 L84.0403 402.359 Q83.905 407.071 83.905 407.161 Q83.905 407.792 84.0403 412.234 M55.5896 410.295 Q54.6653 410.295 53.9213 409.596 Q53.1548 408.874 53.1548 407.86 Q53.1548 406.845 53.8537 406.124 Q54.53 405.403 55.6122 405.403 Q56.6717 405.403 57.3706 406.124 Q58.0469 406.845 58.0469 407.86 Q58.0469 408.92 57.303 409.618 Q56.559 410.295 55.5896 410.295 Z" fill="#000000" fill-rule="nonzero" fill-opacity="1"></path><path clip-path="url(#clip770)" d="M84.0403 399.203 L82.62 399.203 Q82.62 396.746 82.3269 396.183 Q82.0113 395.619 80.5234 395.619 L68.1467 395.619 Q66.4333 395.619 66.005 396.228 Q65.5766 396.814 65.5766 399.203 L64.1338 399.203 L63.6379 392.711 L68.4848 392.711 Q63.6379 390.546 63.6379 385.88 Q63.6379 382.408 65.3512 381.033 Q66.501 380.018 67.786 379.815 Q69.071 379.59 72.4075 379.59 L81.2223 379.59 Q82.1917 379.545 82.4171 378.801 Q82.62 378.057 82.62 375.983 L84.0403 375.983 Q83.905 380.695 83.905 381.168 Q83.905 381.529 84.0403 386.376 L82.62 386.376 Q82.62 383.919 82.3269 383.355 Q82.0113 382.769 80.5234 382.769 L69.7698 382.769 Q67.4253 382.769 66.0501 383.49 Q64.6523 384.212 64.6523 386.195 Q64.6523 388.585 66.6588 390.501 Q68.6652 392.418 72.0468 392.418 L80.5234 392.418 Q82.0113 392.418 82.3269 391.854 Q82.62 391.268 82.62 388.833 L84.0403 388.833 Q83.905 393.545 83.905 393.996 Q83.905 394.356 84.0403 399.203 Z" fill="#000000" fill-rule="nonzero" fill-opacity="1"></path><polyline clip-path="url(#clip772)" style="stroke:#000000; stroke-linecap:round; stroke-linejoin:round; stroke-width:4; stroke-opacity:1; fill:none" stroke-dasharray="2, 4" points="347.652,359.537 367.316,1384.24 386.979,1006.45 406.643,1220.05 426.307,1367.36 445.97,1280.5 465.634,1281.61 485.298,1205.15 504.961,1302.23 524.625,1252.59 544.289,1134.74 563.952,1336.58 583.616,1266.72 603.28,1289.1 622.943,1370.4 642.607,1271.47 662.271,1223.36 681.934,1181.72 701.598,1203.29 721.262,1279.25 740.925,1279.45 760.589,1127.8 780.253,1288.05 799.916,1272.05 819.58,1340.98 839.244,1276.75 858.907,1185.91 878.571,1262.5 898.235,1276.88 917.898,1256.21 937.562,1228.64 957.226,1248.39 976.889,1228.18 996.553,1325.35 1016.22,1266.11 1035.88,1263.83 1055.54,1223.88 1075.21,1297.76 1094.87,1281.7 1114.53,1291.9 1134.2,1256.02 1153.86,1246.06 1173.53,1264.93 1193.19,1251.37 1212.85,1292.39 1232.52,1208.33 1252.18,1251.98 1271.84,1224 1291.51,1253.66 1311.17,1279.57 1330.84,1286.54 1350.5,1272.39 1370.16,1259.94 1389.83,1303.04 1409.49,1240.77 1429.15,1261.04 1448.82,1261.55 1468.48,1272.24 1488.14,1275.3 1507.81,1277.71 1527.47,1266.66 1547.14,1281.84 1566.8,1236.06 1586.46,1223.13 1606.13,1247.01 1625.79,1258.64 1645.45,1251.53 1665.12,1298.46 1684.78,1267.75 1704.44,1252.24 1724.11,1276.31 1743.77,1272.58 1763.44,1227.58 1783.1,1270.15 1802.76,1230.1 1822.43,1230.63 1842.09,1269.6 1861.75,1287.58 1881.42,1259.4 1901.08,1277.72 1920.75,1274.95 1940.41,1281.44 1960.07,1265.26 1979.74,1259.37 1999.4,1295.68 2019.06,1251.38 2038.73,1247.67 2058.39,1282.84 2078.05,1264.97 2097.72,1277.15 2117.38,1257.89 2137.05,1229.31 2156.71,1263.35 2176.37,1257.48 2196.04,1274.27 2215.7,1288.22 2235.36,1277.78 2255.03,1236.71 2274.69,1241.86 2294.35,1255.76 "></polyline>
<polyline clip-path="url(#clip772)" style="stroke:#ff0000; stroke-linecap:round; stroke-linejoin:round; stroke-width:4; stroke-opacity:1; fill:none" stroke-dasharray="2, 4" points="347.652,466.137 367.316,745.505 386.979,710.25 406.643,926.072 426.307,894.565 445.97,903.76 465.634,835.31 485.298,883.901 504.961,958.964 524.625,861.136 544.289,930.129 563.952,957.464 583.616,938.628 603.28,946.496 622.943,935.161 642.607,968.49 662.271,906.493 681.934,970.108 701.598,889.223 721.262,993.347 740.925,939.326 760.589,1000.73 780.253,980.229 799.916,966.191 819.58,946.69 839.244,929.327 858.907,978.306 878.571,957.944 898.235,986.918 917.898,958.821 937.562,987.165 957.226,992.323 976.889,1007.72 996.553,972.875 1016.22,988.253 1035.88,961.356 1055.54,1012.58 1075.21,995.433 1094.87,979.531 1114.53,983.36 1134.2,983.581 1153.86,979.052 1173.53,969.637 1193.19,976.876 1212.85,966.129 1232.52,966.565 1252.18,987.172 1271.84,977.189 1291.51,965.786 1311.17,970.024 1330.84,954.51 1350.5,984.946 1370.16,1005.03 1389.83,1011.95 1409.49,989.875 1429.15,1002.69 1448.82,1013.95 1468.48,986.956 1488.14,1007.73 1507.81,983.761 1527.47,975.133 1547.14,1008.5 1566.8,975.009 1586.46,998.279 1606.13,1006.05 1625.79,1007.78 1645.45,1034.69 1665.12,998.355 1684.78,1010.89 1704.44,1005.86 1724.11,988.134 1743.77,995.238 1763.44,1002.85 1783.1,998.816 1802.76,1002.82 1822.43,1016.33 1842.09,994.38 1861.75,996.37 1881.42,1012.1 1901.08,986.83 1920.75,1000.65 1940.41,1011.49 1960.07,993.805 1979.74,1006.03 1999.4,994.25 2019.06,997.122 2038.73,992.612 2058.39,1014.46 2078.05,998.855 2097.72,981.108 2117.38,994.303 2137.05,1000.8 2156.71,995.106 2176.37,1013.92 2196.04,1003.87 2215.7,1001.63 2235.36,984.982 2255.03,999.446 2274.69,999.441 2294.35,998.877 "></polyline>
<polyline clip-path="url(#clip772)" style="stroke:#3da44d; stroke-linecap:round; stroke-linejoin:round; stroke-width:4; stroke-opacity:1; fill:none" stroke-dasharray="16, 10" points="347.652,424.276 367.316,674.922 386.979,818.059 406.643,896.758 426.307,797.882 445.97,821.507 465.634,859.793 485.298,830.413 504.961,886.369 524.625,897.994 544.289,911.349 563.952,965.662 583.616,963.197 603.28,962.852 622.943,938.807 642.607,947.546 662.271,941.753 681.934,976.87 701.598,993.182 721.262,992.868 740.925,980.992 760.589,960.14 780.253,958.224 799.916,978.01 819.58,1001.44 839.244,1001.41 858.907,973.406 878.571,974.075 898.235,996.064 917.898,992.856 937.562,980.574 957.226,979.536 976.889,988.986 996.553,999.578 1016.22,1004.57 1035.88,1011.19 1055.54,1015.45 1075.21,1015.44 1094.87,1001.32 1114.53,999.541 1134.2,987.288 1153.86,993.074 1173.53,989.581 1193.19,994.133 1212.85,997.615 1232.52,994.325 1252.18,1005.23 1271.84,998.968 1291.51,1002.86 1311.17,993.54 1330.84,986.619 1350.5,988.592 1370.16,995.322 1389.83,983.722 1409.49,994.682 1429.15,988.519 1448.82,988.494 1468.48,989.362 1488.14,991.091 1507.81,991.581 1527.47,984.3 1547.14,985.41 1566.8,987.17 1586.46,998.396 1606.13,1000.85 1625.79,1006.25 1645.45,1000.27 1665.12,994.489 1684.78,992.355 1704.44,997.855 1724.11,1000.04 1743.77,1006.84 1763.44,1004.93 1783.1,1000.71 1802.76,991.078 1822.43,995.781 1842.09,994.184 1861.75,1000.56 1881.42,995.188 1901.08,997.586 1920.75,992.847 1940.41,987.85 1960.07,988.796 1979.74,995.37 1999.4,994.359 2019.06,1002.31 2038.73,1005.94 2058.39,1006.52 2078.05,1007.93 2097.72,1003.39 2117.38,1007.51 2137.05,1002.88 2156.71,1009.49 2176.37,1011.32 2196.04,1002.59 2215.7,999.379 2235.36,1000.9 2255.03,1000.65 2274.69,1006.17 2294.35,1004.07 "></polyline>
<polyline clip-path="url(#clip772)" style="stroke:#c271d2; stroke-linecap:round; stroke-linejoin:round; stroke-width:4; stroke-opacity:1; fill:none" stroke-dasharray="16, 10" points="347.652,581.707 367.316,720.602 386.979,796.373 406.643,809.179 426.307,793.965 445.97,886.223 465.634,851.938 485.298,898.157 504.961,941.113 524.625,936.099 544.289,943.333 563.952,950.138 583.616,952.714 603.28,968.31 622.943,960.394 642.607,945.4 662.271,965.888 681.934,975.35 701.598,982.573 721.262,997.438 740.925,981.429 760.589,994.281 780.253,1007.2 799.916,1001.87 819.58,994.389 839.244,1001.95 858.907,1009.78 878.571,1004.24 898.235,1007.37 917.898,1006.89 937.562,1012.29 957.226,993.164 976.889,1006.8 996.553,992.935 1016.22,1008.84 1035.88,996.004 1055.54,1011.79 1075.21,1034.09 1094.87,1035.82 1114.53,1028.88 1134.2,1027.4 1153.86,1039.01 1173.53,1017.65 1193.19,1008.22 1212.85,1003.24 1232.52,1002.45 1252.18,1008.01 1271.84,1016.25 1291.51,1015.59 1311.17,1002.15 1330.84,1012.91 1350.5,1015.3 1370.16,1009.75 1389.83,1012.24 1409.49,1010.15 1429.15,997.628 1448.82,1008.28 1468.48,1020.05 1488.14,1011.92 1507.81,1012.73 1527.47,1019.24 1547.14,1019.4 1566.8,1021.1 1586.46,1016.97 1606.13,1012.46 1625.79,1011.22 1645.45,1013.9 1665.12,1007.44 1684.78,1009.42 1704.44,1007.14 1724.11,1011.1 1743.77,1018.31 1763.44,1011.77 1783.1,1011.15 1802.76,1013.65 1822.43,1004.23 1842.09,1008.67 1861.75,1008.79 1881.42,1001.46 1901.08,1003.57 1920.75,1009.05 1940.41,1007.69 1960.07,1003.9 1979.74,999.148 1999.4,1001.31 2019.06,1006.24 2038.73,1000.45 2058.39,1004.09 2078.05,1007.86 2097.72,1008.41 2117.38,1004.83 2137.05,1010.43 2156.71,1010.58 2176.37,1011.93 2196.04,1013.34 2215.7,1016.02 2235.36,1015.44 2255.03,1014.54 2274.69,1016.19 2294.35,1013.59 "></polyline>
<polyline clip-path="url(#clip772)" style="stroke:#ac8d18; stroke-linecap:round; stroke-linejoin:round; stroke-width:4; stroke-opacity:1; fill:none" points="367.316,86.1857 386.979,179.888 406.643,187.124 426.307,180.392 445.97,162.793 465.634,471.323 485.298,354.916 504.961,361.457 524.625,351.864 544.289,398.368 563.952,577.311 583.616,583.521 603.28,578.46 622.943,553.088 642.607,640.4 662.271,584.835 681.934,528.207 701.598,529.956 721.262,543.048 740.925,616.672 760.589,575.94 780.253,574.149 799.916,569.14 819.58,574.73 839.244,649.058 858.907,621.754 878.571,626.886 898.235,615.005 917.898,660.245 937.562,631.153 957.226,650.544 976.889,626.041 996.553,612.695 1016.22,652.387 1035.88,650.015 1055.54,648.173 1075.21,644.532 1094.87,627.892 1114.53,659.847 1134.2,656.715 1153.86,641.91 1173.53,641.257 1193.19,692.072 1212.85,687.551 1232.52,678.223 1252.18,656.044 1271.84,655.522 1291.51,674.412 1311.17,671.712 1330.84,671.191 1350.5,662.504 1370.16,661.052 1389.83,688.343 1409.49,670.401 1429.15,668.757 1448.82,656.006 1468.48,690.893 1488.14,670.897 1507.81,670.583 1527.47,656.776 1547.14,655.392 1566.8,688.385 1586.46,689.343 1606.13,682.03 1625.79,658.529 1645.45,638.312 1665.12,664.737 1684.78,663.266 1704.44,644.688 1724.11,651.022 1743.77,670.013 1763.44,676.589 1783.1,670.287 1802.76,674.891 1822.43,671.248 1842.09,689.341 1861.75,683.132 1881.42,694.34 1901.08,684.721 1920.75,678.755 1940.41,690.485 1960.07,688.778 1979.74,687.053 1999.4,686.156 2019.06,702.31 2038.73,697.917 2058.39,688.419 2078.05,685.068 2097.72,688.205 2117.38,705.302 2137.05,701.274 2156.71,693.735 2176.37,694.154 2196.04,689.085 2215.7,700.43 2235.36,698.226 2255.03,695.865 2274.69,694.978 2294.35,705.476 "></polyline>
<polyline clip-path="url(#clip772)" style="stroke:#00a9ad; stroke-linecap:round; stroke-linejoin:round; stroke-width:4; stroke-opacity:1; fill:none" points="367.316,276.253 386.979,216.899 406.643,146.2 426.307,115.406 445.97,89.0899 465.634,337.63 485.298,318.488 504.961,300.705 524.625,265.812 544.289,243.828 563.952,358.118 583.616,345.472 603.28,322.665 622.943,295.711 642.607,393.673 662.271,354.419 681.934,347.445 701.598,318.417 721.262,323.177 740.925,421.894 760.589,424.18 780.253,400.419 799.916,370.533 819.58,364.18 839.244,416.8 858.907,414.904 878.571,401.358 898.235,412.169 917.898,464.896 937.562,439.129 957.226,435.055 976.889,417.591 996.553,396.718 1016.22,440.34 1035.88,435.659 1055.54,431.461 1075.21,423.681 1094.87,410.629 1114.53,456.135 1134.2,449.529 1153.86,431.846 1173.53,442.724 1193.19,474.857 1212.85,461.805 1232.52,436.663 1252.18,428.688 1271.84,422.573 1291.51,455.525 1311.17,442.08 1330.84,433.971 1350.5,423.416 1370.16,424.242 1389.83,445.495 1409.49,437.912 1429.15,440.118 1448.82,424.204 1468.48,454.307 1488.14,453.875 1507.81,442.917 1527.47,440.799 1547.14,422.568 1566.8,452.578 1586.46,452.365 1606.13,442.068 1625.79,440.818 1645.45,448.239 1665.12,465.379 1684.78,461.432 1704.44,464.516 1724.11,458.842 1743.77,479.1 1763.44,458.253 1783.1,462.764 1802.76,454.89 1822.43,454.702 1842.09,471.639 1861.75,466.469 1881.42,462.258 1901.08,455.901 1920.75,464.527 1940.41,485.487 1960.07,471.455 1979.74,470.896 1999.4,461.692 2019.06,480.745 2038.73,474.15 2058.39,473.354 2078.05,467.876 2097.72,469.504 2117.38,485.191 2137.05,482.496 2156.71,479.94 2176.37,475.756 2196.04,469.209 2215.7,482.487 2235.36,477.706 2255.03,473.327 2274.69,470.546 2294.35,482.501 "></polyline>
<path clip-path="url(#clip770)" d="M358.035 455.989 L948.295 455.989 L948.295 93.1086 L358.035 93.1086  Z" fill="#ffffff" fill-rule="evenodd" fill-opacity="1"></path>
<polyline clip-path="url(#clip770)" style="stroke:#000000; stroke-linecap:round; stroke-linejoin:round; stroke-width:4; stroke-opacity:1; fill:none" points="358.035,455.989 948.295,455.989 948.295,93.1086 358.035,93.1086 358.035,455.989 "></polyline>
<polyline clip-path="url(#clip770)" style="stroke:#000000; stroke-linecap:round; stroke-linejoin:round; stroke-width:4; stroke-opacity:1; fill:none" stroke-dasharray="2, 4" points="380.962,144.949 518.529,144.949 "></polyline>
<path clip-path="url(#clip770)" d="M567.013 157.298 L567.013 148.016 L559.374 148.016 L559.374 144.173 L571.642 144.173 L571.642 159.011 Q568.934 160.932 565.67 161.928 Q562.406 162.9 558.702 162.9 Q550.601 162.9 546.017 158.178 Q541.457 153.432 541.457 144.983 Q541.457 136.511 546.017 131.789 Q550.601 127.044 558.702 127.044 Q562.082 127.044 565.114 127.877 Q568.17 128.71 570.739 130.331 L570.739 135.307 Q568.147 133.108 565.23 131.997 Q562.314 130.886 559.096 130.886 Q552.753 130.886 549.559 134.428 Q546.388 137.969 546.388 144.983 Q546.388 151.974 549.559 155.516 Q552.753 159.057 559.096 159.057 Q561.573 159.057 563.517 158.641 Q565.462 158.201 567.013 157.298 Z" fill="#000000" fill-rule="nonzero" fill-opacity="1"></path><path clip-path="url(#clip770)" d="M573.702 127.669 L602.938 127.669 L602.938 131.604 L590.67 131.604 L590.67 162.229 L585.971 162.229 L585.971 131.604 L573.702 131.604 L573.702 127.669 Z" fill="#000000" fill-rule="nonzero" fill-opacity="1"></path><path clip-path="url(#clip770)" d="M601.827 127.669 L631.063 127.669 L631.063 131.604 L618.795 131.604 L618.795 162.229 L614.096 162.229 L614.096 131.604 L601.827 131.604 L601.827 127.669 Z" fill="#000000" fill-rule="nonzero" fill-opacity="1"></path><polyline clip-path="url(#clip770)" style="stroke:#ff0000; stroke-linecap:round; stroke-linejoin:round; stroke-width:4; stroke-opacity:1; fill:none" stroke-dasharray="2, 4" points="380.962,196.789 518.529,196.789 "></polyline>
<path clip-path="url(#clip770)" d="M557.476 182.68 Q552.383 182.68 549.374 186.476 Q546.388 190.272 546.388 196.823 Q546.388 203.351 549.374 207.147 Q552.383 210.944 557.476 210.944 Q562.568 210.944 565.531 207.147 Q568.517 203.351 568.517 196.823 Q568.517 190.272 565.531 186.476 Q562.568 182.68 557.476 182.68 M557.476 178.884 Q564.744 178.884 569.096 183.768 Q573.448 188.629 573.448 196.823 Q573.448 204.995 569.096 209.879 Q564.744 214.74 557.476 214.74 Q550.184 214.74 545.809 209.879 Q541.457 205.018 541.457 196.823 Q541.457 188.629 545.809 183.768 Q550.184 178.884 557.476 178.884 Z" fill="#000000" fill-rule="nonzero" fill-opacity="1"></path><path clip-path="url(#clip770)" d="M604.327 209.138 L604.327 199.856 L596.688 199.856 L596.688 196.013 L608.957 196.013 L608.957 210.851 Q606.248 212.772 602.985 213.768 Q599.721 214.74 596.017 214.74 Q587.915 214.74 583.332 210.018 Q578.772 205.272 578.772 196.823 Q578.772 188.351 583.332 183.629 Q587.915 178.884 596.017 178.884 Q599.397 178.884 602.429 179.717 Q605.485 180.55 608.054 182.171 L608.054 187.147 Q605.461 184.948 602.545 183.837 Q599.628 182.726 596.411 182.726 Q590.068 182.726 586.874 186.268 Q583.702 189.809 583.702 196.823 Q583.702 203.814 586.874 207.356 Q590.068 210.897 596.411 210.897 Q598.887 210.897 600.832 210.481 Q602.776 210.041 604.327 209.138 Z" fill="#000000" fill-rule="nonzero" fill-opacity="1"></path><path clip-path="url(#clip770)" d="M611.017 179.509 L640.253 179.509 L640.253 183.444 L627.984 183.444 L627.984 214.069 L623.285 214.069 L623.285 183.444 L611.017 183.444 L611.017 179.509 Z" fill="#000000" fill-rule="nonzero" fill-opacity="1"></path><path clip-path="url(#clip770)" d="M639.142 179.509 L668.378 179.509 L668.378 183.444 L656.109 183.444 L656.109 214.069 L651.41 214.069 L651.41 183.444 L639.142 183.444 L639.142 179.509 Z" fill="#000000" fill-rule="nonzero" fill-opacity="1"></path><polyline clip-path="url(#clip770)" style="stroke:#3da44d; stroke-linecap:round; stroke-linejoin:round; stroke-width:4; stroke-opacity:1; fill:none" stroke-dasharray="16, 10" points="380.962,248.629 518.529,248.629 "></polyline>
<path clip-path="url(#clip770)" d="M541.457 231.349 L570.693 231.349 L570.693 235.284 L558.425 235.284 L558.425 265.909 L553.726 265.909 L553.726 235.284 L541.457 235.284 L541.457 231.349 Z" fill="#000000" fill-rule="nonzero" fill-opacity="1"></path><path clip-path="url(#clip770)" d="M569.582 231.349 L598.818 231.349 L598.818 235.284 L586.55 235.284 L586.55 265.909 L581.85 265.909 L581.85 235.284 L569.582 235.284 L569.582 231.349 Z" fill="#000000" fill-rule="nonzero" fill-opacity="1"></path><path clip-path="url(#clip770)" d="M613.378 229.937 Q610.276 235.261 608.772 240.469 Q607.267 245.677 607.267 251.024 Q607.267 256.372 608.772 261.626 Q610.299 266.858 613.378 272.159 L609.674 272.159 Q606.202 266.719 604.466 261.464 Q602.753 256.21 602.753 251.024 Q602.753 245.862 604.466 240.631 Q606.179 235.4 609.674 229.937 L613.378 229.937 Z" fill="#000000" fill-rule="nonzero" fill-opacity="1"></path><path clip-path="url(#clip770)" d="M623.054 261.973 L630.693 261.973 L630.693 235.608 L622.383 237.275 L622.383 233.015 L630.647 231.349 L635.322 231.349 L635.322 261.973 L642.961 261.973 L642.961 265.909 L623.054 265.909 L623.054 261.973 Z" fill="#000000" fill-rule="nonzero" fill-opacity="1"></path><path clip-path="url(#clip770)" d="M651.133 229.937 L654.836 229.937 Q658.308 235.4 660.021 240.631 Q661.757 245.862 661.757 251.024 Q661.757 256.21 660.021 261.464 Q658.308 266.719 654.836 272.159 L651.133 272.159 Q654.211 266.858 655.716 261.626 Q657.244 256.372 657.244 251.024 Q657.244 245.677 655.716 240.469 Q654.211 235.261 651.133 229.937 Z" fill="#000000" fill-rule="nonzero" fill-opacity="1"></path><polyline clip-path="url(#clip770)" style="stroke:#c271d2; stroke-linecap:round; stroke-linejoin:round; stroke-width:4; stroke-opacity:1; fill:none" stroke-dasharray="16, 10" points="380.962,300.469 518.529,300.469 "></polyline>
<path clip-path="url(#clip770)" d="M557.476 286.36 Q552.383 286.36 549.374 290.156 Q546.388 293.952 546.388 300.503 Q546.388 307.031 549.374 310.827 Q552.383 314.624 557.476 314.624 Q562.568 314.624 565.531 310.827 Q568.517 307.031 568.517 300.503 Q568.517 293.952 565.531 290.156 Q562.568 286.36 557.476 286.36 M557.476 282.564 Q564.744 282.564 569.096 287.448 Q573.448 292.309 573.448 300.503 Q573.448 308.675 569.096 313.559 Q564.744 318.42 557.476 318.42 Q550.184 318.42 545.809 313.559 Q541.457 308.698 541.457 300.503 Q541.457 292.309 545.809 287.448 Q550.184 282.564 557.476 282.564 Z" fill="#000000" fill-rule="nonzero" fill-opacity="1"></path><path clip-path="url(#clip770)" d="M575.971 283.189 L605.207 283.189 L605.207 287.124 L592.938 287.124 L592.938 317.749 L588.239 317.749 L588.239 287.124 L575.971 287.124 L575.971 283.189 Z" fill="#000000" fill-rule="nonzero" fill-opacity="1"></path><path clip-path="url(#clip770)" d="M604.096 283.189 L633.332 283.189 L633.332 287.124 L621.063 287.124 L621.063 317.749 L616.364 317.749 L616.364 287.124 L604.096 287.124 L604.096 283.189 Z" fill="#000000" fill-rule="nonzero" fill-opacity="1"></path><path clip-path="url(#clip770)" d="M647.892 281.777 Q644.79 287.101 643.285 292.309 Q641.781 297.517 641.781 302.864 Q641.781 308.212 643.285 313.466 Q644.813 318.698 647.892 323.999 L644.188 323.999 Q640.716 318.559 638.98 313.304 Q637.267 308.05 637.267 302.864 Q637.267 297.702 638.98 292.471 Q640.693 287.24 644.188 281.777 L647.892 281.777 Z" fill="#000000" fill-rule="nonzero" fill-opacity="1"></path><path clip-path="url(#clip770)" d="M657.568 313.813 L665.207 313.813 L665.207 287.448 L656.896 289.115 L656.896 284.855 L665.16 283.189 L669.836 283.189 L669.836 313.813 L677.475 313.813 L677.475 317.749 L657.568 317.749 L657.568 313.813 Z" fill="#000000" fill-rule="nonzero" fill-opacity="1"></path><path clip-path="url(#clip770)" d="M685.646 281.777 L689.35 281.777 Q692.822 287.24 694.535 292.471 Q696.271 297.702 696.271 302.864 Q696.271 308.05 694.535 313.304 Q692.822 318.559 689.35 323.999 L685.646 323.999 Q688.725 318.698 690.23 313.466 Q691.757 308.212 691.757 302.864 Q691.757 297.517 690.23 292.309 Q688.725 287.101 685.646 281.777 Z" fill="#000000" fill-rule="nonzero" fill-opacity="1"></path><polyline clip-path="url(#clip770)" style="stroke:#ac8d18; stroke-linecap:round; stroke-linejoin:round; stroke-width:4; stroke-opacity:1; fill:none" points="380.962,352.309 518.529,352.309 "></polyline>
<path clip-path="url(#clip770)" d="M541.457 335.029 L570.693 335.029 L570.693 338.964 L558.425 338.964 L558.425 369.589 L553.726 369.589 L553.726 338.964 L541.457 338.964 L541.457 335.029 Z" fill="#000000" fill-rule="nonzero" fill-opacity="1"></path><path clip-path="url(#clip770)" d="M569.582 335.029 L598.818 335.029 L598.818 338.964 L586.55 338.964 L586.55 369.589 L581.85 369.589 L581.85 338.964 L569.582 338.964 L569.582 335.029 Z" fill="#000000" fill-rule="nonzero" fill-opacity="1"></path><path clip-path="url(#clip770)" d="M613.378 333.617 Q610.276 338.941 608.772 344.149 Q607.267 349.357 607.267 354.704 Q607.267 360.052 608.772 365.306 Q610.299 370.538 613.378 375.839 L609.674 375.839 Q606.202 370.399 604.466 365.144 Q602.753 359.89 602.753 354.704 Q602.753 349.542 604.466 344.311 Q606.179 339.08 609.674 333.617 L613.378 333.617 Z" fill="#000000" fill-rule="nonzero" fill-opacity="1"></path><path clip-path="url(#clip770)" d="M621.48 333.57 L625.762 333.57 L625.762 354.843 L638.471 343.663 L643.91 343.663 L630.16 355.792 L644.489 369.589 L638.934 369.589 L625.762 356.927 L625.762 369.589 L621.48 369.589 L621.48 333.57 Z" fill="#000000" fill-rule="nonzero" fill-opacity="1"></path><path clip-path="url(#clip770)" d="M659.327 333.617 Q656.225 338.941 654.72 344.149 Q653.216 349.357 653.216 354.704 Q653.216 360.052 654.72 365.306 Q656.248 370.538 659.327 375.839 L655.623 375.839 Q652.151 370.399 650.415 365.144 Q648.702 359.89 648.702 354.704 Q648.702 349.542 650.415 344.311 Q652.128 339.08 655.623 333.617 L659.327 333.617 Z" fill="#000000" fill-rule="nonzero" fill-opacity="1"></path><path clip-path="url(#clip770)" d="M677.799 337.621 L689.767 369.589 L685.253 369.589 L677.984 350.422 L669.049 369.589 L664.535 369.589 L675.901 344.728 L674.188 340.144 Q673.1 337.228 670.623 337.228 L668.401 337.228 L668.401 333.57 L671.109 333.617 Q676.341 333.686 677.799 337.621 Z" fill="#000000" fill-rule="nonzero" fill-opacity="1"></path><path clip-path="url(#clip770)" d="M694.975 333.617 L698.679 333.617 Q702.151 339.08 703.864 344.311 Q705.6 349.542 705.6 354.704 Q705.6 359.89 703.864 365.144 Q702.151 370.399 698.679 375.839 L694.975 375.839 Q698.054 370.538 699.558 365.306 Q701.086 360.052 701.086 354.704 Q701.086 349.357 699.558 344.149 Q698.054 338.941 694.975 333.617 Z" fill="#000000" fill-rule="nonzero" fill-opacity="1"></path><path clip-path="url(#clip770)" d="M721.711 335.029 L725.646 335.029 L713.609 373.987 L709.674 373.987 L721.711 335.029 Z" fill="#000000" fill-rule="nonzero" fill-opacity="1"></path><path clip-path="url(#clip770)" d="M731.526 365.653 L739.164 365.653 L739.164 339.288 L730.854 340.955 L730.854 336.695 L739.118 335.029 L743.794 335.029 L743.794 365.653 L751.433 365.653 L751.433 369.589 L731.526 369.589 L731.526 365.653 Z" fill="#000000" fill-rule="nonzero" fill-opacity="1"></path><path clip-path="url(#clip770)" d="M773.724 339.103 L761.919 357.552 L773.724 357.552 L773.724 339.103 M772.498 335.029 L778.377 335.029 L778.377 357.552 L783.308 357.552 L783.308 361.441 L778.377 361.441 L778.377 369.589 L773.724 369.589 L773.724 361.441 L758.123 361.441 L758.123 356.927 L772.498 335.029 Z" fill="#000000" fill-rule="nonzero" fill-opacity="1"></path><path clip-path="url(#clip770)" d="M791.525 363.709 L796.41 363.709 L796.41 367.69 L792.613 375.098 L789.627 375.098 L791.525 367.69 L791.525 363.709 Z" fill="#000000" fill-rule="nonzero" fill-opacity="1"></path><path clip-path="url(#clip770)" d="M821.988 365.653 L829.627 365.653 L829.627 339.288 L821.317 340.955 L821.317 336.695 L829.581 335.029 L834.257 335.029 L834.257 365.653 L841.895 365.653 L841.895 369.589 L821.988 369.589 L821.988 365.653 Z" fill="#000000" fill-rule="nonzero" fill-opacity="1"></path><path clip-path="url(#clip770)" d="M864.187 339.103 L852.381 357.552 L864.187 357.552 L864.187 339.103 M862.96 335.029 L868.84 335.029 L868.84 357.552 L873.77 357.552 L873.77 361.441 L868.84 361.441 L868.84 369.589 L864.187 369.589 L864.187 361.441 L848.585 361.441 L848.585 356.927 L862.96 335.029 Z" fill="#000000" fill-rule="nonzero" fill-opacity="1"></path><path clip-path="url(#clip770)" d="M880.229 333.617 L883.932 333.617 Q887.404 339.08 889.117 344.311 Q890.853 349.542 890.853 354.704 Q890.853 359.89 889.117 365.144 Q887.404 370.399 883.932 375.839 L880.229 375.839 Q883.307 370.538 884.812 365.306 Q886.34 360.052 886.34 354.704 Q886.34 349.357 884.812 344.149 Q883.307 338.941 880.229 333.617 Z" fill="#000000" fill-rule="nonzero" fill-opacity="1"></path><polyline clip-path="url(#clip770)" style="stroke:#00a9ad; stroke-linecap:round; stroke-linejoin:round; stroke-width:4; stroke-opacity:1; fill:none" points="380.962,404.149 518.529,404.149 "></polyline>
<path clip-path="url(#clip770)" d="M557.476 390.04 Q552.383 390.04 549.374 393.836 Q546.388 397.632 546.388 404.183 Q546.388 410.711 549.374 414.507 Q552.383 418.304 557.476 418.304 Q562.568 418.304 565.531 414.507 Q568.517 410.711 568.517 404.183 Q568.517 397.632 565.531 393.836 Q562.568 390.04 557.476 390.04 M557.476 386.244 Q564.744 386.244 569.096 391.128 Q573.448 395.989 573.448 404.183 Q573.448 412.355 569.096 417.239 Q564.744 422.1 557.476 422.1 Q550.184 422.1 545.809 417.239 Q541.457 412.378 541.457 404.183 Q541.457 395.989 545.809 391.128 Q550.184 386.244 557.476 386.244 Z" fill="#000000" fill-rule="nonzero" fill-opacity="1"></path><path clip-path="url(#clip770)" d="M575.971 386.869 L605.207 386.869 L605.207 390.804 L592.938 390.804 L592.938 421.429 L588.239 421.429 L588.239 390.804 L575.971 390.804 L575.971 386.869 Z" fill="#000000" fill-rule="nonzero" fill-opacity="1"></path><path clip-path="url(#clip770)" d="M604.096 386.869 L633.332 386.869 L633.332 390.804 L621.063 390.804 L621.063 421.429 L616.364 421.429 L616.364 390.804 L604.096 390.804 L604.096 386.869 Z" fill="#000000" fill-rule="nonzero" fill-opacity="1"></path><path clip-path="url(#clip770)" d="M647.892 385.457 Q644.79 390.781 643.285 395.989 Q641.781 401.197 641.781 406.544 Q641.781 411.892 643.285 417.146 Q644.813 422.378 647.892 427.679 L644.188 427.679 Q640.716 422.239 638.98 416.984 Q637.267 411.73 637.267 406.544 Q637.267 401.382 638.98 396.151 Q640.693 390.92 644.188 385.457 L647.892 385.457 Z" fill="#000000" fill-rule="nonzero" fill-opacity="1"></path><path clip-path="url(#clip770)" d="M655.994 385.41 L660.276 385.41 L660.276 406.683 L672.984 395.503 L678.424 395.503 L664.674 407.632 L679.003 421.429 L673.447 421.429 L660.276 408.767 L660.276 421.429 L655.994 421.429 L655.994 385.41 Z" fill="#000000" fill-rule="nonzero" fill-opacity="1"></path><path clip-path="url(#clip770)" d="M693.841 385.457 Q690.739 390.781 689.234 395.989 Q687.73 401.197 687.73 406.544 Q687.73 411.892 689.234 417.146 Q690.762 422.378 693.841 427.679 L690.137 427.679 Q686.665 422.239 684.929 416.984 Q683.216 411.73 683.216 406.544 Q683.216 401.382 684.929 396.151 Q686.642 390.92 690.137 385.457 L693.841 385.457 Z" fill="#000000" fill-rule="nonzero" fill-opacity="1"></path><path clip-path="url(#clip770)" d="M712.313 389.461 L724.28 421.429 L719.766 421.429 L712.498 402.262 L703.563 421.429 L699.049 421.429 L710.415 396.568 L708.702 391.984 Q707.614 389.068 705.137 389.068 L702.915 389.068 L702.915 385.41 L705.623 385.457 Q710.854 385.526 712.313 389.461 Z" fill="#000000" fill-rule="nonzero" fill-opacity="1"></path><path clip-path="url(#clip770)" d="M729.489 385.457 L733.192 385.457 Q736.664 390.92 738.377 396.151 Q740.114 401.382 740.114 406.544 Q740.114 411.73 738.377 416.984 Q736.664 422.239 733.192 427.679 L729.489 427.679 Q732.567 422.378 734.072 417.146 Q735.6 411.892 735.6 406.544 Q735.6 401.197 734.072 395.989 Q732.567 390.781 729.489 385.457 Z" fill="#000000" fill-rule="nonzero" fill-opacity="1"></path><path clip-path="url(#clip770)" d="M756.225 386.869 L760.16 386.869 L748.123 425.827 L744.188 425.827 L756.225 386.869 Z" fill="#000000" fill-rule="nonzero" fill-opacity="1"></path><path clip-path="url(#clip770)" d="M766.039 417.493 L773.678 417.493 L773.678 391.128 L765.368 392.795 L765.368 388.535 L773.632 386.869 L778.308 386.869 L778.308 417.493 L785.947 417.493 L785.947 421.429 L766.039 421.429 L766.039 417.493 Z" fill="#000000" fill-rule="nonzero" fill-opacity="1"></path><path clip-path="url(#clip770)" d="M808.238 390.943 L796.433 409.392 L808.238 409.392 L808.238 390.943 M807.011 386.869 L812.891 386.869 L812.891 409.392 L817.821 409.392 L817.821 413.281 L812.891 413.281 L812.891 421.429 L808.238 421.429 L808.238 413.281 L792.636 413.281 L792.636 408.767 L807.011 386.869 Z" fill="#000000" fill-rule="nonzero" fill-opacity="1"></path><path clip-path="url(#clip770)" d="M826.039 415.549 L830.923 415.549 L830.923 419.53 L827.127 426.938 L824.141 426.938 L826.039 419.53 L826.039 415.549 Z" fill="#000000" fill-rule="nonzero" fill-opacity="1"></path><path clip-path="url(#clip770)" d="M856.502 417.493 L864.141 417.493 L864.141 391.128 L855.83 392.795 L855.83 388.535 L864.094 386.869 L868.77 386.869 L868.77 417.493 L876.409 417.493 L876.409 421.429 L856.502 421.429 L856.502 417.493 Z" fill="#000000" fill-rule="nonzero" fill-opacity="1"></path><path clip-path="url(#clip770)" d="M898.701 390.943 L886.895 409.392 L898.701 409.392 L898.701 390.943 M897.474 386.869 L903.353 386.869 L903.353 409.392 L908.284 409.392 L908.284 413.281 L903.353 413.281 L903.353 421.429 L898.701 421.429 L898.701 413.281 L883.099 413.281 L883.099 408.767 L897.474 386.869 Z" fill="#000000" fill-rule="nonzero" fill-opacity="1"></path><path clip-path="url(#clip770)" d="M914.742 385.457 L918.446 385.457 Q921.918 390.92 923.631 396.151 Q925.367 401.382 925.367 406.544 Q925.367 411.73 923.631 416.984 Q921.918 422.239 918.446 427.679 L914.742 427.679 Q917.821 422.378 919.326 417.146 Q920.853 411.892 920.853 406.544 Q920.853 401.197 919.326 395.989 Q917.821 390.781 914.742 385.457 Z" fill="#000000" fill-rule="nonzero" fill-opacity="1"></path></svg>