<svg xmlns="http://www.w3.org/2000/svg" xmlns:xlink="http://www.w3.org/1999/xlink" width="600" height="400" viewBox="0 0 2400 1600">
<defs>
  <clipPath id="clip810">
    <rect x="0" y="0" width="2400" height="1600"></rect>
  </clipPath>
</defs>
<path clip-path="url(#clip810)" d="M0 1600 L2400 1600 L2400 0 L0 0  Z" fill="#ffffff" fill-rule="evenodd" fill-opacity="1"></path>
<defs>
  <clipPath id="clip811">
    <rect x="480" y="0" width="1681" height="1600"></rect>
  </clipPath>
</defs>
<path clip-path="url(#clip810)" d="M221.637 1423.18 L2352.76 1423.18 L2352.76 47.2441 L221.637 47.2441  Z" fill="#ffffff" fill-rule="evenodd" fill-opacity="1"></path>
<defs>
  <clipPath id="clip812">
    <rect x="221" y="47" width="2132" height="1377"></rect>
  </clipPath>
</defs>
<polyline clip-path="url(#clip812)" style="stroke:#000000; stroke-linecap:round; stroke-linejoin:round; stroke-width:2; stroke-opacity:0.1; fill:none" points="261.644,1423.18 261.644,47.2441 "></polyline>
<polyline clip-path="url(#clip812)" style="stroke:#000000; stroke-linecap:round; stroke-linejoin:round; stroke-width:2; stroke-opacity:0.1; fill:none" points="769.343,1423.18 769.343,47.2441 "></polyline>
<polyline clip-path="url(#clip812)" style="stroke:#000000; stroke-linecap:round; stroke-linejoin:round; stroke-width:2; stroke-opacity:0.1; fill:none" points="1277.04,1423.18 1277.04,47.2441 "></polyline>
<polyline clip-path="url(#clip812)" style="stroke:#000000; stroke-linecap:round; stroke-linejoin:round; stroke-width:2; stroke-opacity:0.1; fill:none" points="1784.74,1423.18 1784.74,47.2441 "></polyline>
<polyline clip-path="url(#clip812)" style="stroke:#000000; stroke-linecap:round; stroke-linejoin:round; stroke-width:2; stroke-opacity:0.1; fill:none" points="2292.44,1423.18 2292.44,47.2441 "></polyline>
<polyline clip-path="url(#clip812)" style="stroke:#000000; stroke-linecap:round; stroke-linejoin:round; stroke-width:2; stroke-opacity:0.1; fill:none" points="221.637,913.598 2352.76,913.598 "></polyline>
<polyline clip-path="url(#clip812)" style="stroke:#000000; stroke-linecap:round; stroke-linejoin:round; stroke-width:2; stroke-opacity:0.1; fill:none" points="221.637,240.25 2352.76,240.25 "></polyline>
<polyline clip-path="url(#clip810)" style="stroke:#000000; stroke-linecap:round; stroke-linejoin:round; stroke-width:4; stroke-opacity:1; fill:none" points="221.637,1423.18 2352.76,1423.18 "></polyline>
<polyline clip-path="url(#clip810)" style="stroke:#000000; stroke-linecap:round; stroke-linejoin:round; stroke-width:4; stroke-opacity:1; fill:none" points="261.644,1423.18 261.644,1404.28 "></polyline>
<polyline clip-path="url(#clip810)" style="stroke:#000000; stroke-linecap:round; stroke-linejoin:round; stroke-width:4; stroke-opacity:1; fill:none" points="769.343,1423.18 769.343,1404.28 "></polyline>
<polyline clip-path="url(#clip810)" style="stroke:#000000; stroke-linecap:round; stroke-linejoin:round; stroke-width:4; stroke-opacity:1; fill:none" points="1277.04,1423.18 1277.04,1404.28 "></polyline>
<polyline clip-path="url(#clip810)" style="stroke:#000000; stroke-linecap:round; stroke-linejoin:round; stroke-width:4; stroke-opacity:1; fill:none" points="1784.74,1423.18 1784.74,1404.28 "></polyline>
<polyline clip-path="url(#clip810)" style="stroke:#000000; stroke-linecap:round; stroke-linejoin:round; stroke-width:4; stroke-opacity:1; fill:none" points="2292.44,1423.18 2292.44,1404.28 "></polyline>
<path clip-path="url(#clip810)" d="M261.644 1454.1 Q258.033 1454.1 256.204 1457.66 Q254.398 1461.2 254.398 1468.33 Q254.398 1475.44 256.204 1479.01 Q258.033 1482.55 261.644 1482.55 Q265.278 1482.55 267.084 1479.01 Q268.912 1475.44 268.912 1468.33 Q268.912 1461.2 267.084 1457.66 Q265.278 1454.1 261.644 1454.1 M261.644 1450.39 Q267.454 1450.39 270.509 1455 Q273.588 1459.58 273.588 1468.33 Q273.588 1477.06 270.509 1481.67 Q267.454 1486.25 261.644 1486.25 Q255.834 1486.25 252.755 1481.67 Q249.699 1477.06 249.699 1468.33 Q249.699 1459.58 252.755 1455 Q255.834 1450.39 261.644 1450.39 Z" fill="#000000" fill-rule="nonzero" fill-opacity="1"></path><path clip-path="url(#clip810)" d="M748.614 1481.64 L764.933 1481.64 L764.933 1485.58 L742.989 1485.58 L742.989 1481.64 Q745.651 1478.89 750.234 1474.26 Q754.841 1469.61 756.021 1468.27 Q758.267 1465.74 759.146 1464.01 Q760.049 1462.25 760.049 1460.56 Q760.049 1457.8 758.105 1456.07 Q756.184 1454.33 753.082 1454.33 Q750.883 1454.33 748.429 1455.09 Q745.998 1455.86 743.221 1457.41 L743.221 1452.69 Q746.045 1451.55 748.498 1450.97 Q750.952 1450.39 752.989 1450.39 Q758.359 1450.39 761.554 1453.08 Q764.748 1455.77 764.748 1460.26 Q764.748 1462.39 763.938 1464.31 Q763.151 1466.2 761.045 1468.8 Q760.466 1469.47 757.364 1472.69 Q754.262 1475.88 748.614 1481.64 Z" fill="#000000" fill-rule="nonzero" fill-opacity="1"></path><path clip-path="url(#clip810)" d="M774.795 1451.02 L793.151 1451.02 L793.151 1454.96 L779.077 1454.96 L779.077 1463.43 Q780.095 1463.08 781.114 1462.92 Q782.132 1462.73 783.151 1462.73 Q788.938 1462.73 792.318 1465.9 Q795.697 1469.08 795.697 1474.49 Q795.697 1480.07 792.225 1483.17 Q788.753 1486.25 782.433 1486.25 Q780.257 1486.25 777.989 1485.88 Q775.744 1485.51 773.336 1484.77 L773.336 1480.07 Q775.42 1481.2 777.642 1481.76 Q779.864 1482.32 782.341 1482.32 Q786.345 1482.32 788.683 1480.21 Q791.021 1478.1 791.021 1474.49 Q791.021 1470.88 788.683 1468.77 Q786.345 1466.67 782.341 1466.67 Q780.466 1466.67 778.591 1467.08 Q776.739 1467.5 774.795 1468.38 L774.795 1451.02 Z" fill="#000000" fill-rule="nonzero" fill-opacity="1"></path><path clip-path="url(#clip810)" d="M1251.74 1451.02 L1270.1 1451.02 L1270.1 1454.96 L1256.02 1454.96 L1256.02 1463.43 Q1257.04 1463.08 1258.06 1462.92 Q1259.08 1462.73 1260.1 1462.73 Q1265.89 1462.73 1269.26 1465.9 Q1272.64 1469.08 1272.64 1474.49 Q1272.64 1480.07 1269.17 1483.17 Q1265.7 1486.25 1259.38 1486.25 Q1257.2 1486.25 1254.94 1485.88 Q1252.69 1485.51 1250.28 1484.77 L1250.28 1480.07 Q1252.37 1481.2 1254.59 1481.76 Q1256.81 1482.32 1259.29 1482.32 Q1263.29 1482.32 1265.63 1480.21 Q1267.97 1478.1 1267.97 1474.49 Q1267.97 1470.88 1265.63 1468.77 Q1263.29 1466.67 1259.29 1466.67 Q1257.41 1466.67 1255.54 1467.08 Q1253.69 1467.5 1251.74 1468.38 L1251.74 1451.02 Z" fill="#000000" fill-rule="nonzero" fill-opacity="1"></path><path clip-path="url(#clip810)" d="M1291.86 1454.1 Q1288.25 1454.1 1286.42 1457.66 Q1284.61 1461.2 1284.61 1468.33 Q1284.61 1475.44 1286.42 1479.01 Q1288.25 1482.55 1291.86 1482.55 Q1295.49 1482.55 1297.3 1479.01 Q1299.13 1475.44 1299.13 1468.33 Q1299.13 1461.2 1297.3 1457.66 Q1295.49 1454.1 1291.86 1454.1 M1291.86 1450.39 Q1297.67 1450.39 1300.72 1455 Q1303.8 1459.58 1303.8 1468.33 Q1303.8 1477.06 1300.72 1481.67 Q1297.67 1486.25 1291.86 1486.25 Q1286.05 1486.25 1282.97 1481.67 Q1279.91 1477.06 1279.91 1468.33 Q1279.91 1459.58 1282.97 1455 Q1286.05 1450.39 1291.86 1450.39 Z" fill="#000000" fill-rule="nonzero" fill-opacity="1"></path><path clip-path="url(#clip810)" d="M1758.6 1451.02 L1780.82 1451.02 L1780.82 1453.01 L1768.27 1485.58 L1763.39 1485.58 L1775.19 1454.96 L1758.6 1454.96 L1758.6 1451.02 Z" fill="#000000" fill-rule="nonzero" fill-opacity="1"></path><path clip-path="url(#clip810)" d="M1789.98 1451.02 L1808.34 1451.02 L1808.34 1454.96 L1794.27 1454.96 L1794.27 1463.43 Q1795.29 1463.08 1796.3 1462.92 Q1797.32 1462.73 1798.34 1462.73 Q1804.13 1462.73 1807.51 1465.9 Q1810.89 1469.08 1810.89 1474.49 Q1810.89 1480.07 1807.42 1483.17 Q1803.94 1486.25 1797.62 1486.25 Q1795.45 1486.25 1793.18 1485.88 Q1790.93 1485.51 1788.53 1484.77 L1788.53 1480.07 Q1790.61 1481.2 1792.83 1481.76 Q1795.05 1482.32 1797.53 1482.32 Q1801.54 1482.32 1803.87 1480.21 Q1806.21 1478.1 1806.21 1474.49 Q1806.21 1470.88 1803.87 1468.77 Q1801.54 1466.67 1797.53 1466.67 Q1795.66 1466.67 1793.78 1467.08 Q1791.93 1467.5 1789.98 1468.38 L1789.98 1451.02 Z" fill="#000000" fill-rule="nonzero" fill-opacity="1"></path><path clip-path="url(#clip810)" d="M2252.05 1481.64 L2259.69 1481.64 L2259.69 1455.28 L2251.38 1456.95 L2251.38 1452.69 L2259.64 1451.02 L2264.32 1451.02 L2264.32 1481.64 L2271.96 1481.64 L2271.96 1485.58 L2252.05 1485.58 L2252.05 1481.64 Z" fill="#000000" fill-rule="nonzero" fill-opacity="1"></path><path clip-path="url(#clip810)" d="M2291.4 1454.1 Q2287.79 1454.1 2285.96 1457.66 Q2284.15 1461.2 2284.15 1468.33 Q2284.15 1475.44 2285.96 1479.01 Q2287.79 1482.55 2291.4 1482.55 Q2295.03 1482.55 2296.84 1479.01 Q2298.67 1475.44 2298.67 1468.33 Q2298.67 1461.2 2296.84 1457.66 Q2295.03 1454.1 2291.4 1454.1 M2291.4 1450.39 Q2297.21 1450.39 2300.27 1455 Q2303.34 1459.58 2303.34 1468.33 Q2303.34 1477.06 2300.27 1481.67 Q2297.21 1486.25 2291.4 1486.25 Q2285.59 1486.25 2282.51 1481.67 Q2279.46 1477.06 2279.46 1468.33 Q2279.46 1459.58 2282.51 1455 Q2285.59 1450.39 2291.4 1450.39 Z" fill="#000000" fill-rule="nonzero" fill-opacity="1"></path><path clip-path="url(#clip810)" d="M2321.56 1454.1 Q2317.95 1454.1 2316.12 1457.66 Q2314.32 1461.2 2314.32 1468.33 Q2314.32 1475.44 2316.12 1479.01 Q2317.95 1482.55 2321.56 1482.55 Q2325.2 1482.55 2327 1479.01 Q2328.83 1475.44 2328.83 1468.33 Q2328.83 1461.2 2327 1457.66 Q2325.2 1454.1 2321.56 1454.1 M2321.56 1450.39 Q2327.37 1450.39 2330.43 1455 Q2333.51 1459.58 2333.51 1468.33 Q2333.51 1477.06 2330.43 1481.67 Q2327.37 1486.25 2321.56 1486.25 Q2315.75 1486.25 2312.67 1481.67 Q2309.62 1477.06 2309.62 1468.33 Q2309.62 1459.58 2312.67 1455 Q2315.75 1450.39 2321.56 1450.39 Z" fill="#000000" fill-rule="nonzero" fill-opacity="1"></path><path clip-path="url(#clip810)" d="M954.413 1522.08 L954.413 1528.35 Q950.753 1526.6 947.506 1525.74 Q944.26 1524.88 941.236 1524.88 Q935.985 1524.88 933.12 1526.92 Q930.287 1528.96 930.287 1532.71 Q930.287 1535.87 932.165 1537.49 Q934.075 1539.08 939.358 1540.07 L943.241 1540.86 Q950.435 1542.23 953.84 1545.7 Q957.278 1549.14 957.278 1554.93 Q957.278 1561.84 952.631 1565.4 Q948.016 1568.97 939.072 1568.97 Q935.698 1568.97 931.879 1568.2 Q928.091 1567.44 924.017 1565.94 L924.017 1559.32 Q927.932 1561.52 931.688 1562.63 Q935.443 1563.75 939.072 1563.75 Q944.578 1563.75 947.57 1561.58 Q950.562 1559.42 950.562 1555.41 Q950.562 1551.91 948.398 1549.93 Q946.265 1547.96 941.364 1546.97 L937.449 1546.21 Q930.255 1544.78 927.041 1541.72 Q923.826 1538.67 923.826 1533.22 Q923.826 1526.92 928.25 1523.29 Q932.706 1519.66 940.504 1519.66 Q943.846 1519.66 947.316 1520.27 Q950.785 1520.87 954.413 1522.08 Z" fill="#000000" fill-rule="nonzero" fill-opacity="1"></path><path clip-path="url(#clip810)" d="M966.444 1553.98 L966.444 1532.4 L972.301 1532.4 L972.301 1553.75 Q972.301 1558.81 974.274 1561.36 Q976.248 1563.87 980.194 1563.87 Q984.937 1563.87 987.674 1560.85 Q990.443 1557.83 990.443 1552.61 L990.443 1532.4 L996.3 1532.4 L996.3 1568.04 L990.443 1568.04 L990.443 1562.57 Q988.311 1565.82 985.478 1567.41 Q982.677 1568.97 978.953 1568.97 Q972.81 1568.97 969.627 1565.15 Q966.444 1561.33 966.444 1553.98 M981.181 1531.54 L981.181 1531.54 Z" fill="#000000" fill-rule="nonzero" fill-opacity="1"></path><path clip-path="url(#clip810)" d="M1033.95 1550.25 Q1033.95 1543.79 1031.28 1540.13 Q1028.64 1536.44 1023.99 1536.44 Q1019.34 1536.44 1016.67 1540.13 Q1014.03 1543.79 1014.03 1550.25 Q1014.03 1556.71 1016.67 1560.4 Q1019.34 1564.07 1023.99 1564.07 Q1028.64 1564.07 1031.28 1560.4 Q1033.95 1556.71 1033.95 1550.25 M1014.03 1537.81 Q1015.87 1534.62 1018.68 1533.1 Q1021.51 1531.54 1025.42 1531.54 Q1031.92 1531.54 1035.96 1536.69 Q1040.03 1541.85 1040.03 1550.25 Q1040.03 1558.65 1035.96 1563.81 Q1031.92 1568.97 1025.42 1568.97 Q1021.51 1568.97 1018.68 1567.44 Q1015.87 1565.88 1014.03 1562.7 L1014.03 1568.04 L1008.14 1568.04 L1008.14 1518.52 L1014.03 1518.52 L1014.03 1537.81 Z" fill="#000000" fill-rule="nonzero" fill-opacity="1"></path><path clip-path="url(#clip810)" d="M1072.47 1533.45 L1072.47 1538.98 Q1069.98 1537.71 1067.31 1537.07 Q1064.64 1536.44 1061.77 1536.44 Q1057.41 1536.44 1055.21 1537.77 Q1053.05 1539.11 1053.05 1541.79 Q1053.05 1543.82 1054.61 1545 Q1056.17 1546.15 1060.88 1547.2 L1062.88 1547.64 Q1069.12 1548.98 1071.73 1551.43 Q1074.38 1553.85 1074.38 1558.21 Q1074.38 1563.17 1070.43 1566.07 Q1066.51 1568.97 1059.64 1568.97 Q1056.77 1568.97 1053.65 1568.39 Q1050.57 1567.85 1047.13 1566.74 L1047.13 1560.69 Q1050.38 1562.38 1053.53 1563.24 Q1056.68 1564.07 1059.77 1564.07 Q1063.9 1564.07 1066.13 1562.66 Q1068.36 1561.23 1068.36 1558.65 Q1068.36 1556.27 1066.74 1554.99 Q1065.14 1553.72 1059.7 1552.54 L1057.67 1552.07 Q1052.22 1550.92 1049.8 1548.56 Q1047.38 1546.18 1047.38 1542.04 Q1047.38 1537.01 1050.95 1534.27 Q1054.51 1531.54 1061.07 1531.54 Q1064.32 1531.54 1067.18 1532.01 Q1070.05 1532.49 1072.47 1533.45 Z" fill="#000000" fill-rule="nonzero" fill-opacity="1"></path><path clip-path="url(#clip810)" d="M1089.37 1562.7 L1089.37 1581.6 L1083.48 1581.6 L1083.48 1532.4 L1089.37 1532.4 L1089.37 1537.81 Q1091.21 1534.62 1094.01 1533.1 Q1096.85 1531.54 1100.76 1531.54 Q1107.25 1531.54 1111.3 1536.69 Q1115.37 1541.85 1115.37 1550.25 Q1115.37 1558.65 1111.3 1563.81 Q1107.25 1568.97 1100.76 1568.97 Q1096.85 1568.97 1094.01 1567.44 Q1091.21 1565.88 1089.37 1562.7 M1109.29 1550.25 Q1109.29 1543.79 1106.62 1540.13 Q1103.98 1536.44 1099.33 1536.44 Q1094.68 1536.44 1092.01 1540.13 Q1089.37 1543.79 1089.37 1550.25 Q1089.37 1556.71 1092.01 1560.4 Q1094.68 1564.07 1099.33 1564.07 Q1103.98 1564.07 1106.62 1560.4 Q1109.29 1556.71 1109.29 1550.25 Z" fill="#000000" fill-rule="nonzero" fill-opacity="1"></path><path clip-path="url(#clip810)" d="M1141.28 1550.12 Q1134.18 1550.12 1131.44 1551.75 Q1128.71 1553.37 1128.71 1557.29 Q1128.71 1560.4 1130.74 1562.25 Q1132.81 1564.07 1136.35 1564.07 Q1141.21 1564.07 1144.14 1560.63 Q1147.1 1557.16 1147.1 1551.43 L1147.1 1550.12 L1141.28 1550.12 M1152.96 1547.71 L1152.96 1568.04 L1147.1 1568.04 L1147.1 1562.63 Q1145.1 1565.88 1142.11 1567.44 Q1139.11 1568.97 1134.79 1568.97 Q1129.31 1568.97 1126.06 1565.91 Q1122.85 1562.82 1122.85 1557.67 Q1122.85 1551.65 1126.86 1548.6 Q1130.9 1545.54 1138.89 1545.54 L1147.1 1545.54 L1147.1 1544.97 Q1147.1 1540.93 1144.43 1538.73 Q1141.79 1536.5 1136.98 1536.5 Q1133.93 1536.5 1131.03 1537.23 Q1128.13 1537.97 1125.46 1539.43 L1125.46 1534.02 Q1128.67 1532.78 1131.7 1532.17 Q1134.72 1531.54 1137.59 1531.54 Q1145.32 1531.54 1149.14 1535.55 Q1152.96 1539.56 1152.96 1547.71 Z" fill="#000000" fill-rule="nonzero" fill-opacity="1"></path><path clip-path="url(#clip810)" d="M1190.68 1533.76 L1190.68 1539.24 Q1188.19 1537.87 1185.68 1537.2 Q1183.2 1536.5 1180.65 1536.5 Q1174.95 1536.5 1171.8 1540.13 Q1168.65 1543.73 1168.65 1550.25 Q1168.65 1556.78 1171.8 1560.4 Q1174.95 1564 1180.65 1564 Q1183.2 1564 1185.68 1563.33 Q1188.19 1562.63 1190.68 1561.26 L1190.68 1566.68 Q1188.23 1567.82 1185.58 1568.39 Q1182.97 1568.97 1180.01 1568.97 Q1171.96 1568.97 1167.22 1563.91 Q1162.48 1558.85 1162.48 1550.25 Q1162.48 1541.53 1167.25 1536.53 Q1172.06 1531.54 1180.4 1531.54 Q1183.1 1531.54 1185.68 1532.11 Q1188.26 1532.65 1190.68 1533.76 Z" fill="#000000" fill-rule="nonzero" fill-opacity="1"></path><path clip-path="url(#clip810)" d="M1231.35 1548.76 L1231.35 1551.62 L1204.43 1551.62 Q1204.81 1557.67 1208.05 1560.85 Q1211.33 1564 1217.16 1564 Q1220.53 1564 1223.68 1563.17 Q1226.87 1562.35 1229.98 1560.69 L1229.98 1566.23 Q1226.83 1567.57 1223.52 1568.27 Q1220.21 1568.97 1216.81 1568.97 Q1208.28 1568.97 1203.28 1564 Q1198.32 1559.04 1198.32 1550.57 Q1198.32 1541.82 1203.03 1536.69 Q1207.77 1531.54 1215.79 1531.54 Q1222.98 1531.54 1227.15 1536.18 Q1231.35 1540.8 1231.35 1548.76 M1225.5 1547.04 Q1225.43 1542.23 1222.79 1539.37 Q1220.18 1536.5 1215.85 1536.5 Q1210.95 1536.5 1207.99 1539.27 Q1205.06 1542.04 1204.62 1547.07 L1225.5 1547.04 Z" fill="#000000" fill-rule="nonzero" fill-opacity="1"></path><path clip-path="url(#clip810)" d="M1285.14 1537.81 L1285.14 1518.52 L1291 1518.52 L1291 1568.04 L1285.14 1568.04 L1285.14 1562.7 Q1283.3 1565.88 1280.46 1567.44 Q1277.66 1568.97 1273.72 1568.97 Q1267.26 1568.97 1263.18 1563.81 Q1259.14 1558.65 1259.14 1550.25 Q1259.14 1541.85 1263.18 1536.69 Q1267.26 1531.54 1273.72 1531.54 Q1277.66 1531.54 1280.46 1533.1 Q1283.3 1534.62 1285.14 1537.81 M1265.19 1550.25 Q1265.19 1556.71 1267.83 1560.4 Q1270.5 1564.07 1275.15 1564.07 Q1279.8 1564.07 1282.47 1560.4 Q1285.14 1556.71 1285.14 1550.25 Q1285.14 1543.79 1282.47 1540.13 Q1279.8 1536.44 1275.15 1536.44 Q1270.5 1536.44 1267.83 1540.13 Q1265.19 1543.79 1265.19 1550.25 Z" fill="#000000" fill-rule="nonzero" fill-opacity="1"></path><path clip-path="url(#clip810)" d="M1303.06 1532.4 L1308.92 1532.4 L1308.92 1568.04 L1303.06 1568.04 L1303.06 1532.4 M1303.06 1518.52 L1308.92 1518.52 L1308.92 1525.93 L1303.06 1525.93 L1303.06 1518.52 Z" fill="#000000" fill-rule="nonzero" fill-opacity="1"></path><path clip-path="url(#clip810)" d="M1348.93 1539.24 Q1351.12 1535.29 1354.18 1533.41 Q1357.24 1531.54 1361.37 1531.54 Q1366.94 1531.54 1369.97 1535.45 Q1372.99 1539.33 1372.99 1546.53 L1372.99 1568.04 L1367.1 1568.04 L1367.1 1546.72 Q1367.1 1541.59 1365.29 1539.11 Q1363.47 1536.63 1359.75 1536.63 Q1355.2 1536.63 1352.56 1539.65 Q1349.91 1542.68 1349.91 1547.9 L1349.91 1568.04 L1344.03 1568.04 L1344.03 1546.72 Q1344.03 1541.56 1342.21 1539.11 Q1340.4 1536.63 1336.61 1536.63 Q1332.12 1536.63 1329.48 1539.68 Q1326.84 1542.71 1326.84 1547.9 L1326.84 1568.04 L1320.95 1568.04 L1320.95 1532.4 L1326.84 1532.4 L1326.84 1537.93 Q1328.84 1534.66 1331.65 1533.1 Q1334.45 1531.54 1338.3 1531.54 Q1342.18 1531.54 1344.89 1533.51 Q1347.62 1535.48 1348.93 1539.24 Z" fill="#000000" fill-rule="nonzero" fill-opacity="1"></path><path clip-path="url(#clip810)" d="M1415.16 1548.76 L1415.16 1551.62 L1388.24 1551.62 Q1388.62 1557.67 1391.86 1560.85 Q1395.14 1564 1400.97 1564 Q1404.34 1564 1407.49 1563.17 Q1410.68 1562.35 1413.79 1560.69 L1413.79 1566.23 Q1410.64 1567.57 1407.33 1568.27 Q1404.02 1568.97 1400.62 1568.97 Q1392.09 1568.97 1387.09 1564 Q1382.13 1559.04 1382.13 1550.57 Q1382.13 1541.82 1386.84 1536.69 Q1391.58 1531.54 1399.6 1531.54 Q1406.79 1531.54 1410.96 1536.18 Q1415.16 1540.8 1415.16 1548.76 M1409.31 1547.04 Q1409.24 1542.23 1406.6 1539.37 Q1403.99 1536.5 1399.66 1536.5 Q1394.76 1536.5 1391.8 1539.27 Q1388.87 1542.04 1388.43 1547.07 L1409.31 1547.04 Z" fill="#000000" fill-rule="nonzero" fill-opacity="1"></path><path clip-path="url(#clip810)" d="M1454.41 1546.53 L1454.41 1568.04 L1448.55 1568.04 L1448.55 1546.72 Q1448.55 1541.66 1446.58 1539.14 Q1444.6 1536.63 1440.66 1536.63 Q1435.92 1536.63 1433.18 1539.65 Q1430.44 1542.68 1430.44 1547.9 L1430.44 1568.04 L1424.55 1568.04 L1424.55 1532.4 L1430.44 1532.4 L1430.44 1537.93 Q1432.54 1534.72 1435.37 1533.13 Q1438.24 1531.54 1441.96 1531.54 Q1448.11 1531.54 1451.26 1535.36 Q1454.41 1539.14 1454.41 1546.53 Z" fill="#000000" fill-rule="nonzero" fill-opacity="1"></path><path clip-path="url(#clip810)" d="M1488.81 1533.45 L1488.81 1538.98 Q1486.33 1537.71 1483.66 1537.07 Q1480.98 1536.44 1478.12 1536.44 Q1473.76 1536.44 1471.56 1537.77 Q1469.4 1539.11 1469.4 1541.79 Q1469.4 1543.82 1470.96 1545 Q1472.52 1546.15 1477.23 1547.2 L1479.23 1547.64 Q1485.47 1548.98 1488.08 1551.43 Q1490.72 1553.85 1490.72 1558.21 Q1490.72 1563.17 1486.78 1566.07 Q1482.86 1568.97 1475.99 1568.97 Q1473.12 1568.97 1470 1568.39 Q1466.92 1567.85 1463.48 1566.74 L1463.48 1560.69 Q1466.73 1562.38 1469.88 1563.24 Q1473.03 1564.07 1476.11 1564.07 Q1480.25 1564.07 1482.48 1562.66 Q1484.71 1561.23 1484.71 1558.65 Q1484.71 1556.27 1483.09 1554.99 Q1481.49 1553.72 1476.05 1552.54 L1474.01 1552.07 Q1468.57 1550.92 1466.15 1548.56 Q1463.73 1546.18 1463.73 1542.04 Q1463.73 1537.01 1467.3 1534.27 Q1470.86 1531.54 1477.42 1531.54 Q1480.67 1531.54 1483.53 1532.01 Q1486.4 1532.49 1488.81 1533.45 Z" fill="#000000" fill-rule="nonzero" fill-opacity="1"></path><path clip-path="url(#clip810)" d="M1500.05 1532.4 L1505.91 1532.4 L1505.91 1568.04 L1500.05 1568.04 L1500.05 1532.4 M1500.05 1518.52 L1505.91 1518.52 L1505.91 1525.93 L1500.05 1525.93 L1500.05 1518.52 Z" fill="#000000" fill-rule="nonzero" fill-opacity="1"></path><path clip-path="url(#clip810)" d="M1531.97 1536.5 Q1527.26 1536.5 1524.53 1540.19 Q1521.79 1543.85 1521.79 1550.25 Q1521.79 1556.65 1524.49 1560.34 Q1527.23 1564 1531.97 1564 Q1536.65 1564 1539.39 1560.31 Q1542.13 1556.62 1542.13 1550.25 Q1542.13 1543.92 1539.39 1540.23 Q1536.65 1536.5 1531.97 1536.5 M1531.97 1531.54 Q1539.61 1531.54 1543.97 1536.5 Q1548.33 1541.47 1548.33 1550.25 Q1548.33 1559 1543.97 1564 Q1539.61 1568.97 1531.97 1568.97 Q1524.3 1568.97 1519.94 1564 Q1515.61 1559 1515.61 1550.25 Q1515.61 1541.47 1519.94 1536.5 Q1524.3 1531.54 1531.97 1531.54 Z" fill="#000000" fill-rule="nonzero" fill-opacity="1"></path><path clip-path="url(#clip810)" d="M1587.67 1546.53 L1587.67 1568.04 L1581.82 1568.04 L1581.82 1546.72 Q1581.82 1541.66 1579.84 1539.14 Q1577.87 1536.63 1573.92 1536.63 Q1569.18 1536.63 1566.44 1539.65 Q1563.71 1542.68 1563.71 1547.9 L1563.71 1568.04 L1557.82 1568.04 L1557.82 1532.4 L1563.71 1532.4 L1563.71 1537.93 Q1565.81 1534.72 1568.64 1533.13 Q1571.5 1531.54 1575.23 1531.54 Q1581.37 1531.54 1584.52 1535.36 Q1587.67 1539.14 1587.67 1546.53 Z" fill="#000000" fill-rule="nonzero" fill-opacity="1"></path><path clip-path="url(#clip810)" d="M1634.11 1524.09 L1650.57 1568.04 L1644.36 1568.04 L1634.37 1541.69 L1622.08 1568.04 L1615.87 1568.04 L1631.5 1533.86 L1629.15 1527.56 Q1627.65 1523.55 1624.24 1523.55 L1621.19 1523.55 L1621.19 1518.52 L1624.91 1518.58 Q1632.11 1518.68 1634.11 1524.09 Z" fill="#000000" fill-rule="nonzero" fill-opacity="1"></path><polyline clip-path="url(#clip810)" style="stroke:#000000; stroke-linecap:round; stroke-linejoin:round; stroke-width:4; stroke-opacity:1; fill:none" points="221.637,1423.18 221.637,47.2441 "></polyline>
<polyline clip-path="url(#clip810)" style="stroke:#000000; stroke-linecap:round; stroke-linejoin:round; stroke-width:4; stroke-opacity:1; fill:none" points="221.637,913.598 240.535,913.598 "></polyline>
<polyline clip-path="url(#clip810)" style="stroke:#000000; stroke-linecap:round; stroke-linejoin:round; stroke-width:4; stroke-opacity:1; fill:none" points="221.637,240.25 240.535,240.25 "></polyline>
<path clip-path="url(#clip810)" d="M114.931 933.39 L122.57 933.39 L122.57 907.025 L114.26 908.691 L114.26 904.432 L122.524 902.765 L127.2 902.765 L127.2 933.39 L134.839 933.39 L134.839 937.325 L114.931 937.325 L114.931 933.39 Z" fill="#000000" fill-rule="nonzero" fill-opacity="1"></path><path clip-path="url(#clip810)" d="M154.283 905.844 Q150.672 905.844 148.843 909.409 Q147.038 912.951 147.038 920.08 Q147.038 927.187 148.843 930.751 Q150.672 934.293 154.283 934.293 Q157.917 934.293 159.723 930.751 Q161.552 927.187 161.552 920.08 Q161.552 912.951 159.723 909.409 Q157.917 905.844 154.283 905.844 M154.283 902.14 Q160.093 902.14 163.149 906.747 Q166.227 911.33 166.227 920.08 Q166.227 928.807 163.149 933.413 Q160.093 937.997 154.283 937.997 Q148.473 937.997 145.394 933.413 Q142.339 928.807 142.339 920.08 Q142.339 911.33 145.394 906.747 Q148.473 902.14 154.283 902.14 Z" fill="#000000" fill-rule="nonzero" fill-opacity="1"></path><path clip-path="url(#clip810)" d="M175.932 884.336 Q172.998 884.336 171.512 887.233 Q170.045 890.11 170.045 895.903 Q170.045 901.677 171.512 904.574 Q172.998 907.451 175.932 907.451 Q178.885 907.451 180.352 904.574 Q181.838 901.677 181.838 895.903 Q181.838 890.11 180.352 887.233 Q178.885 884.336 175.932 884.336 M175.932 881.327 Q180.653 881.327 183.136 885.07 Q185.637 888.794 185.637 895.903 Q185.637 902.994 183.136 906.736 Q180.653 910.46 175.932 910.46 Q171.212 910.46 168.71 906.736 Q166.227 902.994 166.227 895.903 Q166.227 888.794 168.71 885.07 Q171.212 881.327 175.932 881.327 Z" fill="#000000" fill-rule="nonzero" fill-opacity="1"></path><path clip-path="url(#clip810)" d="M117.621 260.043 L125.26 260.043 L125.26 233.677 L116.95 235.344 L116.95 231.085 L125.214 229.418 L129.889 229.418 L129.889 260.043 L137.528 260.043 L137.528 263.978 L117.621 263.978 L117.621 260.043 Z" fill="#000000" fill-rule="nonzero" fill-opacity="1"></path><path clip-path="url(#clip810)" d="M156.973 232.497 Q153.362 232.497 151.533 236.061 Q149.727 239.603 149.727 246.733 Q149.727 253.839 151.533 257.404 Q153.362 260.946 156.973 260.946 Q160.607 260.946 162.412 257.404 Q164.241 253.839 164.241 246.733 Q164.241 239.603 162.412 236.061 Q160.607 232.497 156.973 232.497 M156.973 228.793 Q162.783 228.793 165.838 233.399 Q168.917 237.983 168.917 246.733 Q168.917 255.459 165.838 260.066 Q162.783 264.649 156.973 264.649 Q151.162 264.649 148.084 260.066 Q145.028 255.459 145.028 246.733 Q145.028 237.983 148.084 233.399 Q151.162 228.793 156.973 228.793 Z" fill="#000000" fill-rule="nonzero" fill-opacity="1"></path><path clip-path="url(#clip810)" d="M169.462 233.37 L175.669 233.37 L175.669 211.948 L168.917 213.302 L168.917 209.842 L175.631 208.488 L179.431 208.488 L179.431 233.37 L185.637 233.37 L185.637 236.568 L169.462 236.568 L169.462 233.37 Z" fill="#000000" fill-rule="nonzero" fill-opacity="1"></path><path clip-path="url(#clip810)" d="M20.2021 1079.28 L20.2021 1069.7 L52.5399 1057.58 L20.2021 1045.39 L20.2021 1035.81 L67.7221 1035.81 L67.7221 1042.08 L25.9949 1042.08 L58.5874 1054.33 L58.5874 1060.79 L25.9949 1073.05 L67.7221 1073.05 L67.7221 1079.28 L20.2021 1079.28 Z" fill="#000000" fill-rule="nonzero" fill-opacity="1"></path><path clip-path="url(#clip810)" d="M48.4341 992.806 L51.2986 992.806 L51.2986 1019.73 Q57.346 1019.35 60.5289 1016.1 Q63.6799 1012.83 63.6799 1007 Q63.6799 1003.63 62.8524 1000.48 Q62.0248 997.294 60.3698 994.174 L65.9079 994.174 Q67.2447 997.325 67.9449 1000.64 Q68.6452 1003.95 68.6452 1007.35 Q68.6452 1015.88 63.6799 1020.88 Q58.7147 1025.84 50.2483 1025.84 Q41.4954 1025.84 36.371 1021.13 Q31.2148 1016.39 31.2148 1008.37 Q31.2148 1001.18 35.8618 997.007 Q40.4769 992.806 48.4341 992.806 M46.7153 998.662 Q41.9092 998.726 39.0446 1001.37 Q36.1801 1003.98 36.1801 1008.31 Q36.1801 1013.21 38.9491 1016.17 Q41.7182 1019.1 46.7471 1019.54 L46.7153 998.662 Z" fill="#000000" fill-rule="nonzero" fill-opacity="1"></path><path clip-path="url(#clip810)" d="M37.485 959.736 L18.1969 959.736 L18.1969 953.88 L67.7221 953.88 L67.7221 959.736 L62.3749 959.736 Q65.5578 961.582 67.1174 964.415 Q68.6452 967.216 68.6452 971.162 Q68.6452 977.624 63.4889 981.698 Q58.3327 985.74 49.93 985.74 Q41.5273 985.74 36.371 981.698 Q31.2148 977.624 31.2148 971.162 Q31.2148 967.216 32.7744 964.415 Q34.3022 961.582 37.485 959.736 M49.93 979.692 Q56.3912 979.692 60.0833 977.051 Q63.7436 974.377 63.7436 969.73 Q63.7436 965.083 60.0833 962.41 Q56.3912 959.736 49.93 959.736 Q43.4688 959.736 39.8085 962.41 Q36.1164 965.083 36.1164 969.73 Q36.1164 974.377 39.8085 977.051 Q43.4688 979.692 49.93 979.692 Z" fill="#000000" fill-rule="nonzero" fill-opacity="1"></path><path clip-path="url(#clip810)" d="M32.0742 941.817 L32.0742 935.96 L67.7221 935.96 L67.7221 941.817 L32.0742 941.817 M18.1969 941.817 L18.1969 935.96 L25.613 935.96 L25.613 941.817 L18.1969 941.817 Z" fill="#000000" fill-rule="nonzero" fill-opacity="1"></path><path clip-path="url(#clip810)" d="M49.8027 907.505 Q49.8027 914.603 51.4259 917.34 Q53.0492 920.078 56.9641 920.078 Q60.0833 920.078 61.9293 918.041 Q63.7436 915.972 63.7436 912.439 Q63.7436 907.569 60.3061 904.641 Q56.8368 901.681 51.1076 901.681 L49.8027 901.681 L49.8027 907.505 M47.3837 895.824 L67.7221 895.824 L67.7221 901.681 L62.3113 901.681 Q65.5578 903.686 67.1174 906.678 Q68.6452 909.67 68.6452 913.998 Q68.6452 919.473 65.5896 922.719 Q62.5023 925.934 57.346 925.934 Q51.3304 925.934 48.2749 921.924 Q45.2194 917.881 45.2194 909.893 L45.2194 901.681 L44.6465 901.681 Q40.6042 901.681 38.4081 904.354 Q36.1801 906.996 36.1801 911.802 Q36.1801 914.858 36.9121 917.754 Q37.6442 920.651 39.1083 923.324 L33.6974 923.324 Q32.4561 920.109 31.8514 917.086 Q31.2148 914.062 31.2148 911.197 Q31.2148 903.463 35.2252 899.644 Q39.2356 895.824 47.3837 895.824 Z" fill="#000000" fill-rule="nonzero" fill-opacity="1"></path><path clip-path="url(#clip810)" d="M46.2061 854.129 L67.7221 854.129 L67.7221 859.985 L46.397 859.985 Q41.3363 859.985 38.8218 861.959 Q36.3074 863.932 36.3074 867.879 Q36.3074 872.621 39.3311 875.359 Q42.3548 878.096 47.5747 878.096 L67.7221 878.096 L67.7221 883.984 L32.0742 883.984 L32.0742 878.096 L37.6123 878.096 Q34.3977 875.995 32.8062 873.162 Q31.2148 870.298 31.2148 866.574 Q31.2148 860.431 35.0342 857.28 Q38.8218 854.129 46.2061 854.129 Z" fill="#000000" fill-rule="nonzero" fill-opacity="1"></path><path clip-path="url(#clip810)" d="M25.4857 815.043 L62.4386 815.043 L62.4386 807.277 Q62.4386 797.442 57.9826 792.891 Q53.5266 788.308 43.9144 788.308 Q34.3658 788.308 29.9417 792.891 Q25.4857 797.442 25.4857 807.277 L25.4857 815.043 M20.2021 821.473 L20.2021 808.264 Q20.2021 794.45 25.9631 787.989 Q31.6922 781.528 43.9144 781.528 Q56.2002 781.528 61.9612 788.021 Q67.7221 794.514 67.7221 808.264 L67.7221 821.473 L20.2021 821.473 Z" fill="#000000" fill-rule="nonzero" fill-opacity="1"></path><path clip-path="url(#clip810)" d="M32.0742 771.534 L32.0742 765.677 L67.7221 765.677 L67.7221 771.534 L32.0742 771.534 M18.1969 771.534 L18.1969 765.677 L25.613 765.677 L25.613 771.534 L18.1969 771.534 Z" fill="#000000" fill-rule="nonzero" fill-opacity="1"></path><path clip-path="url(#clip810)" d="M18.1969 753.423 L18.1969 747.567 L67.7221 747.567 L67.7221 753.423 L18.1969 753.423 Z" fill="#000000" fill-rule="nonzero" fill-opacity="1"></path><path clip-path="url(#clip810)" d="M49.8027 719.112 Q49.8027 726.21 51.4259 728.947 Q53.0492 731.685 56.9641 731.685 Q60.0833 731.685 61.9293 729.648 Q63.7436 727.579 63.7436 724.046 Q63.7436 719.176 60.3061 716.248 Q56.8368 713.288 51.1076 713.288 L49.8027 713.288 L49.8027 719.112 M47.3837 707.431 L67.7221 707.431 L67.7221 713.288 L62.3113 713.288 Q65.5578 715.293 67.1174 718.285 Q68.6452 721.277 68.6452 725.605 Q68.6452 731.08 65.5896 734.326 Q62.5023 737.541 57.346 737.541 Q51.3304 737.541 48.2749 733.531 Q45.2194 729.488 45.2194 721.499 L45.2194 713.288 L44.6465 713.288 Q40.6042 713.288 38.4081 715.961 Q36.1801 718.603 36.1801 723.409 Q36.1801 726.465 36.9121 729.361 Q37.6442 732.257 39.1083 734.931 L33.6974 734.931 Q32.4561 731.716 31.8514 728.693 Q31.2148 725.669 31.2148 722.804 Q31.2148 715.07 35.2252 711.251 Q39.2356 707.431 47.3837 707.431 Z" fill="#000000" fill-rule="nonzero" fill-opacity="1"></path><path clip-path="url(#clip810)" d="M21.9527 689.575 L32.0742 689.575 L32.0742 677.512 L36.6257 677.512 L36.6257 689.575 L55.9774 689.575 Q60.3379 689.575 61.5792 688.398 Q62.8205 687.188 62.8205 683.528 L62.8205 677.512 L67.7221 677.512 L67.7221 683.528 Q67.7221 690.307 65.2077 692.886 Q62.6614 695.464 55.9774 695.464 L36.6257 695.464 L36.6257 699.761 L32.0742 699.761 L32.0742 695.464 L21.9527 695.464 L21.9527 689.575 Z" fill="#000000" fill-rule="nonzero" fill-opacity="1"></path><path clip-path="url(#clip810)" d="M32.0742 669.81 L32.0742 663.953 L67.7221 663.953 L67.7221 669.81 L32.0742 669.81 M18.1969 669.81 L18.1969 663.953 L25.613 663.953 L25.613 669.81 L18.1969 669.81 Z" fill="#000000" fill-rule="nonzero" fill-opacity="1"></path><path clip-path="url(#clip810)" d="M36.1801 637.886 Q36.1801 642.596 39.8722 645.334 Q43.5325 648.071 49.93 648.071 Q56.3275 648.071 60.0196 645.366 Q63.6799 642.628 63.6799 637.886 Q63.6799 633.207 59.9878 630.47 Q56.2957 627.733 49.93 627.733 Q43.5961 627.733 39.904 630.47 Q36.1801 633.207 36.1801 637.886 M31.2148 637.886 Q31.2148 630.247 36.1801 625.887 Q41.1453 621.526 49.93 621.526 Q58.6828 621.526 63.6799 625.887 Q68.6452 630.247 68.6452 637.886 Q68.6452 645.557 63.6799 649.917 Q58.6828 654.246 49.93 654.246 Q41.1453 654.246 36.1801 649.917 Q31.2148 645.557 31.2148 637.886 Z" fill="#000000" fill-rule="nonzero" fill-opacity="1"></path><path clip-path="url(#clip810)" d="M46.2061 582.186 L67.7221 582.186 L67.7221 588.042 L46.397 588.042 Q41.3363 588.042 38.8218 590.016 Q36.3074 591.989 36.3074 595.936 Q36.3074 600.678 39.3311 603.416 Q42.3548 606.153 47.5747 606.153 L67.7221 606.153 L67.7221 612.041 L32.0742 612.041 L32.0742 606.153 L37.6123 606.153 Q34.3977 604.052 32.8062 601.219 Q31.2148 598.355 31.2148 594.631 Q31.2148 588.488 35.0342 585.337 Q38.8218 582.186 46.2061 582.186 Z" fill="#000000" fill-rule="nonzero" fill-opacity="1"></path><path clip-path="url(#clip810)" d="M40.8625 500.328 Q43.1169 500.328 43.1169 503.549 L43.1169 510.795 Q46.0154 508.766 50.2988 508.766 Q53.9702 508.766 57.4163 510.28 Q60.8301 511.761 63.2133 514.144 Q65.5966 516.495 67.0458 519.458 Q68.4629 522.421 68.4629 525.32 Q68.4629 529.732 65.4677 532.47 Q62.4726 535.207 58.0282 535.207 Q55.6771 535.207 53.0685 534.402 Q50.4598 533.565 48.0444 531.986 Q45.5967 530.408 43.6322 528.347 Q41.6676 526.254 40.476 523.548 Q39.2844 520.811 39.2844 517.945 L39.2844 502.905 Q39.2844 502.099 39.3488 501.681 Q39.381 501.23 39.7675 500.779 Q40.1217 500.328 40.8625 500.328 M49.5258 512.985 Q48.7529 512.985 48.0766 513.082 Q47.368 513.178 46.4341 513.532 Q45.4679 513.887 44.7916 514.499 Q44.083 515.111 43.6 516.302 Q43.1169 517.462 43.1169 519.04 Q43.1169 521.262 44.3407 523.71 Q45.5645 526.157 48.5919 528.025 Q51.1683 529.571 54.5177 530.344 Q57.8671 531.117 59.8639 531.117 Q63.2777 531.117 65.1457 529.474 Q66.9814 527.8 66.9814 525.255 Q66.9814 523.162 65.5643 520.779 Q64.1151 518.396 61.3776 516.56 Q58.9944 514.95 55.5161 513.983 Q52.0379 512.985 49.5258 512.985 Z" fill="#000000" fill-rule="nonzero" fill-opacity="1"></path><path clip-path="url(#clip810)" d="M48.6885 493.636 Q47.8544 493.636 47.6064 493.568 Q47.3584 493.478 46.9752 493.117 L37.1009 484.257 Q31.6452 479.41 26.8884 479.41 Q23.7999 479.41 21.5905 481.034 Q19.3812 482.634 19.3812 485.588 Q19.3812 487.616 20.6211 489.33 Q21.8611 491.043 24.0704 491.832 Q24.0253 491.697 24.0253 491.224 Q24.0253 490.074 24.7467 489.443 Q25.4681 488.789 26.4375 488.789 Q27.6774 488.789 28.2861 489.6 Q28.8723 490.389 28.8723 491.178 Q28.8723 491.494 28.8046 491.922 Q28.737 492.328 28.1058 492.982 Q27.452 493.636 26.3023 493.636 Q23.0784 493.636 20.5084 491.201 Q17.9384 488.744 17.9384 485.001 Q17.9384 480.763 20.4633 477.99 Q22.9657 475.195 26.8884 475.195 Q28.2636 475.195 29.5261 475.623 Q30.766 476.029 31.7354 476.592 Q32.7048 477.133 34.2603 478.621 Q35.8159 480.109 36.9205 481.304 Q38.0252 482.499 40.3698 485.182 L45.1266 490.074 L45.1266 481.755 Q45.1266 477.697 44.7659 477.381 Q44.1121 476.931 40.6628 476.367 L40.6628 475.195 L48.6885 476.502 L48.6885 493.636 Z" fill="#000000" fill-rule="nonzero" fill-opacity="1"></path><path clip-path="url(#clip810)" d="M80.7546 488.145 L79.3344 488.145 Q79.3344 485.688 79.0413 485.124 Q78.7257 484.56 77.2378 484.56 L64.861 484.56 Q63.1477 484.56 62.7194 485.169 Q62.291 485.755 62.291 488.145 L60.8482 488.145 L60.3522 481.652 L65.1992 481.652 Q60.3522 479.488 60.3522 474.821 Q60.3522 469.411 64.861 468.667 Q63.1026 467.878 61.7274 466.232 Q60.3522 464.564 60.3522 461.971 Q60.3522 458.499 62.0656 457.124 Q63.2153 456.11 64.5003 455.907 Q65.7854 455.704 69.1219 455.704 L77.9366 455.704 Q78.906 455.659 79.1315 454.915 Q79.3344 454.171 79.3344 452.097 L80.7546 452.097 Q80.6194 456.809 80.6194 457.26 Q80.6194 457.62 80.7546 462.49 L79.3344 462.49 Q79.3344 460.032 79.0413 459.469 Q78.7257 458.883 77.2378 458.883 L66.4842 458.883 Q64.1396 458.883 62.7644 459.604 Q61.3667 460.326 61.3667 462.309 Q61.3667 464.699 63.3731 466.615 Q65.3796 468.532 68.7612 468.532 L77.2378 468.532 Q78.7257 468.532 79.0413 467.968 Q79.3344 467.382 79.3344 464.925 L80.7546 464.925 Q80.6194 469.636 80.6194 470.11 Q80.6194 470.47 80.7546 475.317 L79.3344 475.317 Q79.3344 472.86 79.0413 472.296 Q78.7257 471.71 77.2378 471.71 L66.4842 471.71 Q64.1396 471.71 62.7644 472.432 Q61.3667 473.153 61.3667 475.137 Q61.3667 477.527 63.3731 479.443 Q65.3796 481.359 68.7612 481.359 L77.2378 481.359 Q78.7257 481.359 79.0413 480.796 Q79.3344 480.209 79.3344 477.775 L80.7546 477.775 Q80.6194 482.486 80.6194 482.937 Q80.6194 483.298 80.7546 488.145 Z" fill="#000000" fill-rule="nonzero" fill-opacity="1"></path><path clip-path="url(#clip810)" d="M76.3585 449.52 Q72.4359 449.52 70.3618 444.898 Q69.0317 442.125 68.6935 436.399 L67.0027 436.399 Q64.1396 436.399 62.6292 437.91 Q61.0962 439.397 61.0962 441.291 Q61.0962 444.673 63.2153 446.296 Q63.2604 444.921 63.9593 444.425 Q64.6356 443.929 65.3345 443.929 Q66.2588 443.929 66.8675 444.515 Q67.4536 445.079 67.4536 446.048 Q67.4536 446.972 66.89 447.581 Q66.3039 448.19 65.2894 448.19 Q63.035 448.19 61.5471 446.161 Q60.0592 444.109 60.0592 441.201 Q60.0592 437.414 62.6066 434.889 Q63.3957 434.1 64.4102 433.716 Q65.4247 433.311 66.101 433.265 Q66.7548 433.22 68.0623 433.22 L77.2829 433.22 Q77.5534 433.22 78.0043 433.13 Q78.4551 433.04 79.0413 432.634 Q79.6049 432.206 79.6049 431.507 Q79.6049 429.839 76.6516 429.861 L74.059 429.861 L74.059 428.689 L76.6516 428.689 Q79.1089 428.689 80.0783 429.997 Q81.0252 431.282 81.0252 432.476 Q81.0252 434.009 79.898 434.979 Q78.7708 435.948 77.2378 436.083 Q78.9962 436.782 80.146 438.383 Q81.2732 439.961 81.2732 442.125 Q81.2732 443.794 80.8448 445.372 Q80.439 446.927 79.2893 448.235 Q78.117 449.52 76.3585 449.52 M76.3135 445.958 Q78.0268 445.958 79.1315 444.74 Q80.2361 443.523 80.2361 441.81 Q80.2361 439.871 78.7482 438.135 Q77.2378 436.399 74.2845 436.399 L69.6629 436.399 Q69.8433 441.517 71.8948 443.748 Q73.9238 445.958 76.3135 445.958 Z" fill="#000000" fill-rule="nonzero" fill-opacity="1"></path><path clip-path="url(#clip810)" d="M80.7546 427.764 L79.3344 427.764 Q79.3344 424.157 76.5614 421.857 Q76.5614 421.857 71.0607 417.529 L65.109 422.105 Q63.035 423.728 62.6743 424.45 Q62.291 425.149 62.291 427.538 L60.8482 427.538 Q60.9835 425.645 60.9835 423.165 Q60.9835 421.79 60.8482 418.16 L62.291 418.16 Q62.3812 419.783 63.4408 419.783 Q63.8015 419.783 64.2749 419.377 L68.9415 415.77 L65.3345 412.907 Q64.5003 412.208 63.7113 412.208 Q62.4263 412.208 62.291 413.561 L60.8482 413.561 Q60.9835 411.757 60.9835 409.12 Q60.9835 407.136 60.8482 405.332 L62.291 405.332 Q62.3812 408.849 64.6807 410.833 Q65.6501 411.712 69.9109 415.071 L77.8915 408.894 Q78.8609 408.15 79.1089 407.316 Q79.3344 406.482 79.3344 404.498 L80.7546 404.498 Q80.6194 406.572 80.6194 408.939 Q80.6194 409.773 80.7546 413.922 L79.3344 413.922 Q79.2893 413.087 78.9286 412.682 Q78.5453 412.253 78.1621 412.253 Q77.9817 412.253 76.6516 413.223 L72.0301 416.74 Q76.1782 420.257 77.1476 420.707 Q77.5534 420.888 77.8915 420.888 Q79.1315 420.888 79.3344 419.558 L80.7546 419.558 Q80.6194 422.872 80.6194 423.931 Q80.6194 425.96 80.7546 427.764 Z" fill="#000000" fill-rule="nonzero" fill-opacity="1"></path><polyline clip-path="url(#clip812)" style="stroke:#000000; stroke-linecap:round; stroke-linejoin:round; stroke-width:4; stroke-opacity:1; fill:none" stroke-dasharray="2, 4" points="281.952,953.21 302.26,1384.24 322.568,734.418 342.876,815.158 363.184,724.039 383.492,919.525 403.8,769.805 424.108,596.391 444.416,572.622 464.724,580.434 485.032,509.262 505.339,610.088 525.647,575.752 545.955,583.822 566.263,560.174 586.571,588.898 606.879,572.079 627.187,545.388 647.495,630.184 667.803,564.638 688.111,586.172 708.419,574.599 728.727,536.637 749.035,521.02 769.343,590.018 789.651,552.855 809.959,523.384 830.267,565.251 850.575,552.376 870.883,607.885 891.191,507.651 911.499,532.549 931.807,519.824 952.115,547.231 972.423,515.981 992.731,550.697 1013.04,537.306 1033.35,537.315 1053.65,540.708 1073.96,528.126 1094.27,553.999 1114.58,541.337 1134.89,552.751 1155.19,509.646 1175.5,558.025 1195.81,511.064 1216.12,559.052 1236.43,540.062 1256.73,539.963 1277.04,535.736 1297.35,543.33 1317.66,533.59 1337.97,525.322 1358.27,568.268 1378.58,536.801 1398.89,543.635 1419.2,545.809 1439.51,551.937 1459.81,552.73 1480.12,524.519 1500.43,547.171 1520.74,550.302 1541.05,520.413 1561.35,536.157 1581.66,530.004 1601.97,537.354 1622.28,559.934 1642.59,548.566 1662.89,525.044 1683.2,524.769 1703.51,540.762 1723.82,550.211 1744.13,547.691 1764.43,558.603 1784.74,531.63 1805.05,528.278 1825.36,533.658 1845.67,561.128 1865.97,551.87 1886.28,547.75 1906.59,546.613 1926.9,540.564 1947.21,538.408 1967.51,537.378 1987.82,560.2 2008.13,535.312 2028.44,539.657 2048.75,547.864 2069.05,527.467 2089.36,542.845 2109.67,519.727 2129.98,526.058 2150.29,536.958 2170.59,532.613 2190.9,547.17 2211.21,540.27 2231.52,559.284 2251.83,528.907 2272.13,536.374 2292.44,541.474 "></polyline>
<polyline clip-path="url(#clip812)" style="stroke:#ff0000; stroke-linecap:round; stroke-linejoin:round; stroke-width:4; stroke-opacity:1; fill:none" stroke-dasharray="2, 4" points="281.952,1027.13 302.26,796.968 322.568,810.247 342.876,739.089 363.184,734.396 383.492,705.289 403.8,637.402 424.108,715.952 444.416,721.558 464.724,658.845 485.032,597.114 505.339,633.612 525.647,646.811 545.955,637.671 566.263,637.68 586.571,656.105 606.879,649.311 627.187,659.244 647.495,661.57 667.803,645.068 688.111,639.191 708.419,657.015 728.727,646.325 749.035,679.163 769.343,631.407 789.651,669.282 809.959,663.941 830.267,640.958 850.575,661.262 870.883,650.173 891.191,642.008 911.499,635.234 931.807,646.555 952.115,651.534 972.423,646.459 992.731,655.187 1013.04,650.71 1033.35,650.33 1053.65,639.551 1073.96,651.653 1094.27,645.029 1114.58,651.958 1134.89,656.107 1155.19,644.029 1175.5,653.061 1195.81,648.427 1216.12,642.993 1236.43,643.414 1256.73,643.023 1277.04,641.969 1297.35,644.288 1317.66,643.455 1337.97,658.901 1358.27,649.339 1378.58,651.993 1398.89,647.755 1419.2,650.464 1439.51,644.055 1459.81,651.351 1480.12,639.083 1500.43,648.048 1520.74,641.555 1541.05,640.35 1561.35,643.858 1581.66,653.536 1601.97,650.48 1622.28,646.62 1642.59,644.978 1662.89,647.027 1683.2,650.341 1703.51,651.677 1723.82,645.879 1744.13,642.782 1764.43,647.412 1784.74,656.533 1805.05,651.438 1825.36,645.901 1845.67,643.503 1865.97,646.64 1886.28,644.058 1906.59,646.652 1926.9,649.866 1947.21,647.728 1967.51,652.144 1987.82,646.285 2008.13,652.515 2028.44,650.837 2048.75,645.183 2069.05,653.08 2089.36,649.056 2109.67,651.577 2129.98,648.581 2150.29,650.375 2170.59,646.246 2190.9,649.079 2211.21,655.207 2231.52,645.006 2251.83,651.572 2272.13,645.704 2292.44,646.42 "></polyline>
<polyline clip-path="url(#clip812)" style="stroke:#3da44d; stroke-linecap:round; stroke-linejoin:round; stroke-width:4; stroke-opacity:1; fill:none" stroke-dasharray="16, 10" points="281.952,998.105 302.26,842.731 322.568,829.273 342.876,779.194 363.184,739.009 383.492,711.496 403.8,705.917 424.108,663.945 444.416,670.947 464.724,673.599 485.032,653.682 505.339,655.744 525.647,659.236 545.955,650.373 566.263,646.991 586.571,640.415 606.879,644.531 627.187,611.605 647.495,603.139 667.803,608.473 688.111,615.008 708.419,619.842 728.727,618.568 749.035,623.502 769.343,620.249 789.651,611.725 809.959,607.864 830.267,614.237 850.575,619.453 870.883,622.15 891.191,624.993 911.499,628.361 931.807,628.079 952.115,629.315 972.423,582.602 992.731,585.158 1013.04,583.934 1033.35,588.528 1053.65,588.66 1073.96,592.405 1094.27,595.44 1114.58,595.166 1134.89,597.348 1155.19,595.709 1175.5,584.006 1195.81,583.715 1216.12,580.74 1236.43,585.252 1256.73,583.256 1277.04,584.912 1297.35,586.361 1317.66,584.275 1337.97,582.637 1358.27,564.52 1378.58,567.344 1398.89,569.933 1419.2,571.694 1439.51,575.694 1459.81,579.056 1480.12,581.714 1500.43,584.961 1520.74,588.323 1541.05,583.455 1561.35,585.808 1581.66,587.989 1601.97,590.868 1622.28,589.91 1642.59,591.776 1662.89,594.569 1683.2,597.084 1703.51,594.808 1723.82,595.35 1744.13,597.66 1764.43,598.362 1784.74,598.406 1805.05,599.326 1825.36,601.261 1845.67,603.903 1865.97,603.97 1886.28,605.672 1906.59,608.346 1926.9,608.931 1947.21,607.336 1967.51,607.816 1987.82,608.078 2008.13,610.558 2028.44,612.55 2048.75,613.518 2069.05,610.498 2089.36,612.366 2109.67,613.112 2129.98,612.266 2150.29,613.692 2170.59,615.607 2190.9,613.889 2211.21,614.554 2231.52,615.811 2251.83,616.69 2272.13,618.37 2292.44,618.4 "></polyline>
<polyline clip-path="url(#clip812)" style="stroke:#c271d2; stroke-linecap:round; stroke-linejoin:round; stroke-width:4; stroke-opacity:1; fill:none" stroke-dasharray="16, 10" points="281.952,1107.28 302.26,909.984 322.568,779.733 342.876,768.772 363.184,753.852 383.492,735.498 403.8,626.957 424.108,641.696 444.416,649.763 464.724,644.726 485.032,642.821 505.339,642.678 525.647,643.93 545.955,635.084 566.263,610.398 586.571,621.645 606.879,632.317 627.187,630.486 647.495,631.979 667.803,636.57 688.111,639.817 708.419,643.102 728.727,644.581 749.035,647.391 769.343,648.333 789.651,645.959 809.959,649.824 830.267,649.517 850.575,653.49 870.883,645.756 891.191,629.92 911.499,627.972 931.807,631.226 952.115,634.052 972.423,631.196 992.731,628.274 1013.04,631.77 1033.35,636.108 1053.65,634.419 1073.96,636.396 1094.27,632.99 1114.58,636.249 1134.89,633.47 1155.19,637.524 1175.5,634.918 1195.81,635.461 1216.12,637.521 1236.43,637.198 1256.73,635.084 1277.04,636.945 1297.35,640.269 1317.66,643.679 1337.97,639.151 1358.27,640.16 1378.58,641.329 1398.89,642.607 1419.2,641.633 1439.51,642.964 1459.81,643.84 1480.12,642.807 1500.43,642.452 1520.74,641.91 1541.05,642.05 1561.35,640.376 1581.66,642.259 1601.97,641.621 1622.28,643.26 1642.59,642.243 1662.89,644.704 1683.2,643.192 1703.51,643.051 1723.82,644.896 1744.13,633.623 1764.43,634.028 1784.74,632.265 1805.05,632.025 1825.36,630.449 1845.67,632.311 1865.97,632.874 1886.28,635.705 1906.59,637.827 1926.9,635.444 1947.21,637.514 1967.51,636.995 1987.82,639.247 2008.13,640.861 2028.44,641.573 2048.75,642.484 2069.05,640.451 2089.36,639.693 2109.67,636.088 2129.98,635.919 2150.29,638.025 2170.59,629.964 2190.9,625.446 2211.21,626.94 2231.52,628.872 2251.83,629.065 2272.13,630.457 2292.44,632.646 "></polyline>
<polyline clip-path="url(#clip812)" style="stroke:#ac8d18; stroke-linecap:round; stroke-linejoin:round; stroke-width:4; stroke-opacity:1; fill:none" points="302.26,442.927 322.568,372.507 342.876,284.973 363.184,227.073 383.492,150.208 403.8,321.693 424.108,262.41 444.416,241.251 464.724,204.466 485.032,175.069 505.339,262.083 525.647,237.08 545.955,229.49 566.263,200.901 586.571,266.495 606.879,231.526 627.187,205.403 647.495,194.293 667.803,167.165 688.111,212.029 708.419,192.594 728.727,180.764 749.035,164.84 769.343,144.281 789.651,184.339 809.959,168.083 830.267,162.067 850.575,150.37 870.883,191.038 891.191,175.634 911.499,165.309 931.807,151.2 952.115,122.835 972.423,152.69 992.731,148.458 1013.04,145.403 1033.35,139.742 1053.65,122.414 1073.96,148.154 1094.27,144.41 1114.58,127.074 1134.89,124.905 1155.19,150.584 1175.5,146.503 1195.81,138.868 1216.12,129.739 1236.43,117.896 1256.73,141.867 1277.04,136.077 1297.35,131.431 1317.66,128.177 1337.97,120.32 1358.27,142.717 1378.58,129.445 1398.89,126.339 1419.2,108.637 1439.51,119.268 1459.81,108.238 1480.12,93.51 1500.43,89.3996 1520.74,86.1857 1541.05,104.666 1561.35,98.3471 1581.66,95.5612 1601.97,93.0972 1622.28,91.4217 1642.59,109.345 1662.89,106.434 1683.2,101.149 1703.51,99.9555 1723.82,114.595 1744.13,113.254 1764.43,107.135 1784.74,103.32 1805.05,99.7687 1825.36,109.451 1845.67,107.923 1865.97,103.902 1886.28,94.7226 1906.59,91.4541 1926.9,107.293 1947.21,107.09 1967.51,106.529 1987.82,105.724 2008.13,119.404 2028.44,112.646 2048.75,110.471 2069.05,104.937 2089.36,102.7 2109.67,115.917 2129.98,115.162 2150.29,113.022 2170.59,107.447 2190.9,103.233 2211.21,112.849 2231.52,110.99 2251.83,107.925 2272.13,104.696 2292.44,114.043 "></polyline>
<polyline clip-path="url(#clip812)" style="stroke:#00a9ad; stroke-linecap:round; stroke-linejoin:round; stroke-width:4; stroke-opacity:1; fill:none" points="302.26,531.708 322.568,419.495 342.876,346.716 363.184,204.169 383.492,145.014 403.8,324.775 424.108,288.971 444.416,262.903 464.724,206.608 485.032,171.631 505.339,249.946 525.647,229.225 545.955,213.874 566.263,197.868 586.571,257.001 606.879,244.637 627.187,230.565 647.495,216.729 667.803,207.761 688.111,257.486 708.419,250.081 728.727,246.309 749.035,232.236 769.343,224.373 789.651,264.275 809.959,249.743 830.267,240.855 850.575,230.091 870.883,263.19 891.191,256.684 911.499,238.709 931.807,230.51 952.115,221.374 972.423,253.688 992.731,245.431 1013.04,237.961 1033.35,232.818 1053.65,228.734 1073.96,256.396 1094.27,246.415 1114.58,235.451 1134.89,224.316 1155.19,240.901 1175.5,237.411 1195.81,230.165 1216.12,225.777 1236.43,223.083 1256.73,240.169 1277.04,234.022 1297.35,228.871 1317.66,224.38 1337.97,218.476 1358.27,238.919 1378.58,234.585 1398.89,232.551 1419.2,225.35 1439.51,243.647 1459.81,239.26 1480.12,236.112 1500.43,227.337 1520.74,223.01 1541.05,240.656 1561.35,235.032 1581.66,232.547 1601.97,226.407 1622.28,220.465 1642.59,237.1 1662.89,233.888 1683.2,230.018 1703.51,224.966 1723.82,239.856 1744.13,237.172 1764.43,233.345 1784.74,229.045 1805.05,222.241 1825.36,236.825 1845.67,234.665 1865.97,230.944 1886.28,225.454 1906.59,222.871 1926.9,236.851 1947.21,235.689 1967.51,232.931 1987.82,231.332 2008.13,241.497 2028.44,238.807 2048.75,236.185 2069.05,234.618 2089.36,231.635 2109.67,242.876 2129.98,238.186 2150.29,236.009 2170.59,233.388 2190.9,231.03 2211.21,240.902 2231.52,238.068 2251.83,236.885 2272.13,233.869 2292.44,244.512 "></polyline>
<path clip-path="url(#clip810)" d="M1747.94 1377.32 L2281.72 1377.32 L2281.72 1014.44 L1747.94 1014.44  Z" fill="#ffffff" fill-rule="evenodd" fill-opacity="1"></path>
<polyline clip-path="url(#clip810)" style="stroke:#000000; stroke-linecap:round; stroke-linejoin:round; stroke-width:4; stroke-opacity:1; fill:none" points="1747.94,1377.32 2281.72,1377.32 2281.72,1014.44 1747.94,1014.44 1747.94,1377.32 "></polyline>
<polyline clip-path="url(#clip810)" style="stroke:#000000; stroke-linecap:round; stroke-linejoin:round; stroke-width:4; stroke-opacity:1; fill:none" stroke-dasharray="2, 4" points="1771.62,1066.28 1913.69,1066.28 "></polyline>
<path clip-path="url(#clip810)" d="M1962.93 1078.62 L1962.93 1069.34 L1955.29 1069.34 L1955.29 1065.5 L1967.55 1065.5 L1967.55 1080.34 Q1964.85 1082.26 1961.58 1083.25 Q1958.32 1084.23 1954.62 1084.23 Q1946.51 1084.23 1941.93 1079.5 Q1937.37 1074.76 1937.37 1066.31 Q1937.37 1057.84 1941.93 1053.12 Q1946.51 1048.37 1954.62 1048.37 Q1957.99 1048.37 1961.03 1049.2 Q1964.08 1050.04 1966.65 1051.66 L1966.65 1056.63 Q1964.06 1054.44 1961.14 1053.32 Q1958.23 1052.21 1955.01 1052.21 Q1948.67 1052.21 1945.47 1055.75 Q1942.3 1059.3 1942.3 1066.31 Q1942.3 1073.3 1945.47 1076.84 Q1948.67 1080.38 1955.01 1080.38 Q1957.49 1080.38 1959.43 1079.97 Q1961.37 1079.53 1962.93 1078.62 Z" fill="#000000" fill-rule="nonzero" fill-opacity="1"></path><path clip-path="url(#clip810)" d="M1969.62 1049 L1998.85 1049 L1998.85 1052.93 L1986.58 1052.93 L1986.58 1083.56 L1981.88 1083.56 L1981.88 1052.93 L1969.62 1052.93 L1969.62 1049 Z" fill="#000000" fill-rule="nonzero" fill-opacity="1"></path><path clip-path="url(#clip810)" d="M1997.74 1049 L2026.98 1049 L2026.98 1052.93 L2014.71 1052.93 L2014.71 1083.56 L2010.01 1083.56 L2010.01 1052.93 L1997.74 1052.93 L1997.74 1049 Z" fill="#000000" fill-rule="nonzero" fill-opacity="1"></path><polyline clip-path="url(#clip810)" style="stroke:#ff0000; stroke-linecap:round; stroke-linejoin:round; stroke-width:4; stroke-opacity:1; fill:none" stroke-dasharray="2, 4" points="1771.62,1118.12 1913.69,1118.12 "></polyline>
<path clip-path="url(#clip810)" d="M1953.39 1104.01 Q1948.3 1104.01 1945.29 1107.8 Q1942.3 1111.6 1942.3 1118.15 Q1942.3 1124.68 1945.29 1128.47 Q1948.3 1132.27 1953.39 1132.27 Q1958.48 1132.27 1961.44 1128.47 Q1964.43 1124.68 1964.43 1118.15 Q1964.43 1111.6 1961.44 1107.8 Q1958.48 1104.01 1953.39 1104.01 M1953.39 1100.21 Q1960.66 1100.21 1965.01 1105.09 Q1969.36 1109.96 1969.36 1118.15 Q1969.36 1126.32 1965.01 1131.21 Q1960.66 1136.07 1953.39 1136.07 Q1946.1 1136.07 1941.72 1131.21 Q1937.37 1126.34 1937.37 1118.15 Q1937.37 1109.96 1941.72 1105.09 Q1946.1 1100.21 1953.39 1100.21 Z" fill="#000000" fill-rule="nonzero" fill-opacity="1"></path><path clip-path="url(#clip810)" d="M2000.24 1130.46 L2000.24 1121.18 L1992.6 1121.18 L1992.6 1117.34 L2004.87 1117.34 L2004.87 1132.18 Q2002.16 1134.1 1998.9 1135.09 Q1995.63 1136.07 1991.93 1136.07 Q1983.83 1136.07 1979.24 1131.34 Q1974.68 1126.6 1974.68 1118.15 Q1974.68 1109.68 1979.24 1104.96 Q1983.83 1100.21 1991.93 1100.21 Q1995.31 1100.21 1998.34 1101.04 Q2001.4 1101.88 2003.97 1103.5 L2003.97 1108.47 Q2001.37 1106.28 1998.46 1105.16 Q1995.54 1104.05 1992.32 1104.05 Q1985.98 1104.05 1982.79 1107.59 Q1979.62 1111.14 1979.62 1118.15 Q1979.62 1125.14 1982.79 1128.68 Q1985.98 1132.22 1992.32 1132.22 Q1994.8 1132.22 1996.74 1131.81 Q1998.69 1131.37 2000.24 1130.46 Z" fill="#000000" fill-rule="nonzero" fill-opacity="1"></path><path clip-path="url(#clip810)" d="M2006.93 1100.84 L2036.17 1100.84 L2036.17 1104.77 L2023.9 1104.77 L2023.9 1135.4 L2019.2 1135.4 L2019.2 1104.77 L2006.93 1104.77 L2006.93 1100.84 Z" fill="#000000" fill-rule="nonzero" fill-opacity="1"></path><path clip-path="url(#clip810)" d="M2035.05 1100.84 L2064.29 1100.84 L2064.29 1104.77 L2052.02 1104.77 L2052.02 1135.4 L2047.32 1135.4 L2047.32 1104.77 L2035.05 1104.77 L2035.05 1100.84 Z" fill="#000000" fill-rule="nonzero" fill-opacity="1"></path><polyline clip-path="url(#clip810)" style="stroke:#3da44d; stroke-linecap:round; stroke-linejoin:round; stroke-width:4; stroke-opacity:1; fill:none" stroke-dasharray="16, 10" points="1771.62,1169.96 1913.69,1169.96 "></polyline>
<path clip-path="url(#clip810)" d="M1937.37 1152.68 L1966.61 1152.68 L1966.61 1156.61 L1954.34 1156.61 L1954.34 1187.24 L1949.64 1187.24 L1949.64 1156.61 L1937.37 1156.61 L1937.37 1152.68 Z" fill="#000000" fill-rule="nonzero" fill-opacity="1"></path><path clip-path="url(#clip810)" d="M1965.49 1152.68 L1994.73 1152.68 L1994.73 1156.61 L1982.46 1156.61 L1982.46 1187.24 L1977.76 1187.24 L1977.76 1156.61 L1965.49 1156.61 L1965.49 1152.68 Z" fill="#000000" fill-rule="nonzero" fill-opacity="1"></path><path clip-path="url(#clip810)" d="M2009.29 1151.26 Q2006.19 1156.59 2004.68 1161.8 Q2003.18 1167 2003.18 1172.35 Q2003.18 1177.7 2004.68 1182.95 Q2006.21 1188.18 2009.29 1193.49 L2005.59 1193.49 Q2002.11 1188.05 2000.38 1182.79 Q1998.67 1177.54 1998.67 1172.35 Q1998.67 1167.19 2000.38 1161.96 Q2002.09 1156.73 2005.59 1151.26 L2009.29 1151.26 Z" fill="#000000" fill-rule="nonzero" fill-opacity="1"></path><path clip-path="url(#clip810)" d="M2018.97 1183.3 L2026.61 1183.3 L2026.61 1156.93 L2018.3 1158.6 L2018.3 1154.34 L2026.56 1152.68 L2031.24 1152.68 L2031.24 1183.3 L2038.87 1183.3 L2038.87 1187.24 L2018.97 1187.24 L2018.97 1183.3 Z" fill="#000000" fill-rule="nonzero" fill-opacity="1"></path><path clip-path="url(#clip810)" d="M2047.05 1151.26 L2050.75 1151.26 Q2054.22 1156.73 2055.93 1161.96 Q2057.67 1167.19 2057.67 1172.35 Q2057.67 1177.54 2055.93 1182.79 Q2054.22 1188.05 2050.75 1193.49 L2047.05 1193.49 Q2050.12 1188.18 2051.63 1182.95 Q2053.16 1177.7 2053.16 1172.35 Q2053.16 1167 2051.63 1161.8 Q2050.12 1156.59 2047.05 1151.26 Z" fill="#000000" fill-rule="nonzero" fill-opacity="1"></path><polyline clip-path="url(#clip810)" style="stroke:#c271d2; stroke-linecap:round; stroke-linejoin:round; stroke-width:4; stroke-opacity:1; fill:none" stroke-dasharray="16, 10" points="1771.62,1221.8 1913.69,1221.8 "></polyline>
<path clip-path="url(#clip810)" d="M1953.39 1207.69 Q1948.3 1207.69 1945.29 1211.48 Q1942.3 1215.28 1942.3 1221.83 Q1942.3 1228.36 1945.29 1232.15 Q1948.3 1235.95 1953.39 1235.95 Q1958.48 1235.95 1961.44 1232.15 Q1964.43 1228.36 1964.43 1221.83 Q1964.43 1215.28 1961.44 1211.48 Q1958.48 1207.69 1953.39 1207.69 M1953.39 1203.89 Q1960.66 1203.89 1965.01 1208.77 Q1969.36 1213.64 1969.36 1221.83 Q1969.36 1230 1965.01 1234.89 Q1960.66 1239.75 1953.39 1239.75 Q1946.1 1239.75 1941.72 1234.89 Q1937.37 1230.02 1937.37 1221.83 Q1937.37 1213.64 1941.72 1208.77 Q1946.1 1203.89 1953.39 1203.89 Z" fill="#000000" fill-rule="nonzero" fill-opacity="1"></path><path clip-path="url(#clip810)" d="M1971.88 1204.52 L2001.12 1204.52 L2001.12 1208.45 L1988.85 1208.45 L1988.85 1239.08 L1984.15 1239.08 L1984.15 1208.45 L1971.88 1208.45 L1971.88 1204.52 Z" fill="#000000" fill-rule="nonzero" fill-opacity="1"></path><path clip-path="url(#clip810)" d="M2000.01 1204.52 L2029.24 1204.52 L2029.24 1208.45 L2016.98 1208.45 L2016.98 1239.08 L2012.28 1239.08 L2012.28 1208.45 L2000.01 1208.45 L2000.01 1204.52 Z" fill="#000000" fill-rule="nonzero" fill-opacity="1"></path><path clip-path="url(#clip810)" d="M2043.8 1203.1 Q2040.7 1208.43 2039.2 1213.64 Q2037.69 1218.84 2037.69 1224.19 Q2037.69 1229.54 2039.2 1234.79 Q2040.73 1240.02 2043.8 1245.33 L2040.1 1245.33 Q2036.63 1239.89 2034.89 1234.63 Q2033.18 1229.38 2033.18 1224.19 Q2033.18 1219.03 2034.89 1213.8 Q2036.61 1208.57 2040.1 1203.1 L2043.8 1203.1 Z" fill="#000000" fill-rule="nonzero" fill-opacity="1"></path><path clip-path="url(#clip810)" d="M2053.48 1235.14 L2061.12 1235.14 L2061.12 1208.77 L2052.81 1210.44 L2052.81 1206.18 L2061.07 1204.52 L2065.75 1204.52 L2065.75 1235.14 L2073.39 1235.14 L2073.39 1239.08 L2053.48 1239.08 L2053.48 1235.14 Z" fill="#000000" fill-rule="nonzero" fill-opacity="1"></path><path clip-path="url(#clip810)" d="M2081.56 1203.1 L2085.26 1203.1 Q2088.73 1208.57 2090.45 1213.8 Q2092.18 1219.03 2092.18 1224.19 Q2092.18 1229.38 2090.45 1234.63 Q2088.73 1239.89 2085.26 1245.33 L2081.56 1245.33 Q2084.64 1240.02 2086.14 1234.79 Q2087.67 1229.54 2087.67 1224.19 Q2087.67 1218.84 2086.14 1213.64 Q2084.64 1208.43 2081.56 1203.1 Z" fill="#000000" fill-rule="nonzero" fill-opacity="1"></path><polyline clip-path="url(#clip810)" style="stroke:#ac8d18; stroke-linecap:round; stroke-linejoin:round; stroke-width:4; stroke-opacity:1; fill:none" points="1771.62,1273.64 1913.69,1273.64 "></polyline>
<path clip-path="url(#clip810)" d="M1937.37 1256.36 L1966.61 1256.36 L1966.61 1260.29 L1954.34 1260.29 L1954.34 1290.92 L1949.64 1290.92 L1949.64 1260.29 L1937.37 1260.29 L1937.37 1256.36 Z" fill="#000000" fill-rule="nonzero" fill-opacity="1"></path><path clip-path="url(#clip810)" d="M1965.49 1256.36 L1994.73 1256.36 L1994.73 1260.29 L1982.46 1260.29 L1982.46 1290.92 L1977.76 1290.92 L1977.76 1260.29 L1965.49 1260.29 L1965.49 1256.36 Z" fill="#000000" fill-rule="nonzero" fill-opacity="1"></path><path clip-path="url(#clip810)" d="M2009.29 1254.94 Q2006.19 1260.27 2004.68 1265.48 Q2003.18 1270.68 2003.18 1276.03 Q2003.18 1281.38 2004.68 1286.63 Q2006.21 1291.86 2009.29 1297.17 L2005.59 1297.17 Q2002.11 1291.73 2000.38 1286.47 Q1998.67 1281.22 1998.67 1276.03 Q1998.67 1270.87 2000.38 1265.64 Q2002.09 1260.41 2005.59 1254.94 L2009.29 1254.94 Z" fill="#000000" fill-rule="nonzero" fill-opacity="1"></path><path clip-path="url(#clip810)" d="M2022.18 1286.98 L2038.5 1286.98 L2038.5 1290.92 L2016.56 1290.92 L2016.56 1286.98 Q2019.22 1284.23 2023.8 1279.6 Q2028.41 1274.94 2029.59 1273.6 Q2031.84 1271.08 2032.72 1269.34 Q2033.62 1267.58 2033.62 1265.89 Q2033.62 1263.14 2031.67 1261.4 Q2029.75 1259.67 2026.65 1259.67 Q2024.45 1259.67 2022 1260.43 Q2019.57 1261.19 2016.79 1262.74 L2016.79 1258.02 Q2019.61 1256.89 2022.07 1256.31 Q2024.52 1255.73 2026.56 1255.73 Q2031.93 1255.73 2035.12 1258.42 Q2038.32 1261.1 2038.32 1265.59 Q2038.32 1267.72 2037.51 1269.64 Q2036.72 1271.54 2034.61 1274.13 Q2034.04 1274.8 2030.93 1278.02 Q2027.83 1281.22 2022.18 1286.98 Z" fill="#000000" fill-rule="nonzero" fill-opacity="1"></path><path clip-path="url(#clip810)" d="M2052.35 1286.98 L2068.67 1286.98 L2068.67 1290.92 L2046.72 1290.92 L2046.72 1286.98 Q2049.38 1284.23 2053.97 1279.6 Q2058.57 1274.94 2059.75 1273.6 Q2062 1271.08 2062.88 1269.34 Q2063.78 1267.58 2063.78 1265.89 Q2063.78 1263.14 2061.84 1261.4 Q2059.92 1259.67 2056.81 1259.67 Q2054.61 1259.67 2052.16 1260.43 Q2049.73 1261.19 2046.95 1262.74 L2046.95 1258.02 Q2049.78 1256.89 2052.23 1256.31 Q2054.68 1255.73 2056.72 1255.73 Q2062.09 1255.73 2065.29 1258.42 Q2068.48 1261.1 2068.48 1265.59 Q2068.48 1267.72 2067.67 1269.64 Q2066.88 1271.54 2064.78 1274.13 Q2064.2 1274.8 2061.1 1278.02 Q2057.99 1281.22 2052.35 1286.98 Z" fill="#000000" fill-rule="nonzero" fill-opacity="1"></path><path clip-path="url(#clip810)" d="M2078.48 1285.04 L2083.36 1285.04 L2083.36 1290.92 L2078.48 1290.92 L2078.48 1285.04 Z" fill="#000000" fill-rule="nonzero" fill-opacity="1"></path><path clip-path="url(#clip810)" d="M2103.55 1259.43 Q2099.94 1259.43 2098.11 1263 Q2096.3 1266.54 2096.3 1273.67 Q2096.3 1280.78 2098.11 1284.34 Q2099.94 1287.88 2103.55 1287.88 Q2107.18 1287.88 2108.99 1284.34 Q2110.82 1280.78 2110.82 1273.67 Q2110.82 1266.54 2108.99 1263 Q2107.18 1259.43 2103.55 1259.43 M2103.55 1255.73 Q2109.36 1255.73 2112.42 1260.34 Q2115.49 1264.92 2115.49 1273.67 Q2115.49 1282.4 2112.42 1287 Q2109.36 1291.59 2103.55 1291.59 Q2097.74 1291.59 2094.66 1287 Q2091.61 1282.4 2091.61 1273.67 Q2091.61 1264.92 2094.66 1260.34 Q2097.74 1255.73 2103.55 1255.73 Z" fill="#000000" fill-rule="nonzero" fill-opacity="1"></path><path clip-path="url(#clip810)" d="M2124.2 1285.04 L2129.08 1285.04 L2129.08 1289.02 L2125.29 1296.42 L2122.3 1296.42 L2124.2 1289.02 L2124.2 1285.04 Z" fill="#000000" fill-rule="nonzero" fill-opacity="1"></path><path clip-path="url(#clip810)" d="M2154.66 1286.98 L2162.3 1286.98 L2162.3 1260.61 L2153.99 1262.28 L2153.99 1258.02 L2162.25 1256.36 L2166.93 1256.36 L2166.93 1286.98 L2174.57 1286.98 L2174.57 1290.92 L2154.66 1290.92 L2154.66 1286.98 Z" fill="#000000" fill-rule="nonzero" fill-opacity="1"></path><path clip-path="url(#clip810)" d="M2196.86 1260.43 L2185.05 1278.88 L2196.86 1278.88 L2196.86 1260.43 M2195.63 1256.36 L2201.51 1256.36 L2201.51 1278.88 L2206.44 1278.88 L2206.44 1282.77 L2201.51 1282.77 L2201.51 1290.92 L2196.86 1290.92 L2196.86 1282.77 L2181.26 1282.77 L2181.26 1278.25 L2195.63 1256.36 Z" fill="#000000" fill-rule="nonzero" fill-opacity="1"></path><path clip-path="url(#clip810)" d="M2212.9 1254.94 L2216.6 1254.94 Q2220.08 1260.41 2221.79 1265.64 Q2223.53 1270.87 2223.53 1276.03 Q2223.53 1281.22 2221.79 1286.47 Q2220.08 1291.73 2216.6 1297.17 L2212.9 1297.17 Q2215.98 1291.86 2217.48 1286.63 Q2219.01 1281.38 2219.01 1276.03 Q2219.01 1270.68 2217.48 1265.48 Q2215.98 1260.27 2212.9 1254.94 Z" fill="#000000" fill-rule="nonzero" fill-opacity="1"></path><polyline clip-path="url(#clip810)" style="stroke:#00a9ad; stroke-linecap:round; stroke-linejoin:round; stroke-width:4; stroke-opacity:1; fill:none" points="1771.62,1325.48 1913.69,1325.48 "></polyline>
<path clip-path="url(#clip810)" d="M1953.39 1311.37 Q1948.3 1311.37 1945.29 1315.16 Q1942.3 1318.96 1942.3 1325.51 Q1942.3 1332.04 1945.29 1335.83 Q1948.3 1339.63 1953.39 1339.63 Q1958.48 1339.63 1961.44 1335.83 Q1964.43 1332.04 1964.43 1325.51 Q1964.43 1318.96 1961.44 1315.16 Q1958.48 1311.37 1953.39 1311.37 M1953.39 1307.57 Q1960.66 1307.57 1965.01 1312.45 Q1969.36 1317.32 1969.36 1325.51 Q1969.36 1333.68 1965.01 1338.57 Q1960.66 1343.43 1953.39 1343.43 Q1946.1 1343.43 1941.72 1338.57 Q1937.37 1333.7 1937.37 1325.51 Q1937.37 1317.32 1941.72 1312.45 Q1946.1 1307.57 1953.39 1307.57 Z" fill="#000000" fill-rule="nonzero" fill-opacity="1"></path><path clip-path="url(#clip810)" d="M1971.88 1308.2 L2001.12 1308.2 L2001.12 1312.13 L1988.85 1312.13 L1988.85 1342.76 L1984.15 1342.76 L1984.15 1312.13 L1971.88 1312.13 L1971.88 1308.2 Z" fill="#000000" fill-rule="nonzero" fill-opacity="1"></path><path clip-path="url(#clip810)" d="M2000.01 1308.2 L2029.24 1308.2 L2029.24 1312.13 L2016.98 1312.13 L2016.98 1342.76 L2012.28 1342.76 L2012.28 1312.13 L2000.01 1312.13 L2000.01 1308.2 Z" fill="#000000" fill-rule="nonzero" fill-opacity="1"></path><path clip-path="url(#clip810)" d="M2043.8 1306.78 Q2040.7 1312.11 2039.2 1317.32 Q2037.69 1322.52 2037.69 1327.87 Q2037.69 1333.22 2039.2 1338.47 Q2040.73 1343.7 2043.8 1349.01 L2040.1 1349.01 Q2036.63 1343.57 2034.89 1338.31 Q2033.18 1333.06 2033.18 1327.87 Q2033.18 1322.71 2034.89 1317.48 Q2036.61 1312.25 2040.1 1306.78 L2043.8 1306.78 Z" fill="#000000" fill-rule="nonzero" fill-opacity="1"></path><path clip-path="url(#clip810)" d="M2056.7 1338.82 L2073.02 1338.82 L2073.02 1342.76 L2051.07 1342.76 L2051.07 1338.82 Q2053.74 1336.07 2058.32 1331.44 Q2062.92 1326.78 2064.11 1325.44 Q2066.35 1322.92 2067.23 1321.18 Q2068.13 1319.42 2068.13 1317.73 Q2068.13 1314.98 2066.19 1313.24 Q2064.27 1311.51 2061.17 1311.51 Q2058.97 1311.51 2056.51 1312.27 Q2054.08 1313.03 2051.3 1314.58 L2051.3 1309.86 Q2054.13 1308.73 2056.58 1308.15 Q2059.04 1307.57 2061.07 1307.57 Q2066.44 1307.57 2069.64 1310.26 Q2072.83 1312.94 2072.83 1317.43 Q2072.83 1319.56 2072.02 1321.48 Q2071.23 1323.38 2069.13 1325.97 Q2068.55 1326.64 2065.45 1329.86 Q2062.35 1333.06 2056.7 1338.82 Z" fill="#000000" fill-rule="nonzero" fill-opacity="1"></path><path clip-path="url(#clip810)" d="M2086.86 1338.82 L2103.18 1338.82 L2103.18 1342.76 L2081.23 1342.76 L2081.23 1338.82 Q2083.9 1336.07 2088.48 1331.44 Q2093.09 1326.78 2094.27 1325.44 Q2096.51 1322.92 2097.39 1321.18 Q2098.29 1319.42 2098.29 1317.73 Q2098.29 1314.98 2096.35 1313.24 Q2094.43 1311.51 2091.33 1311.51 Q2089.13 1311.51 2086.67 1312.27 Q2084.24 1313.03 2081.47 1314.58 L2081.47 1309.86 Q2084.29 1308.73 2086.74 1308.15 Q2089.2 1307.57 2091.23 1307.57 Q2096.61 1307.57 2099.8 1310.26 Q2102.99 1312.94 2102.99 1317.43 Q2102.99 1319.56 2102.18 1321.48 Q2101.4 1323.38 2099.29 1325.97 Q2098.71 1326.64 2095.61 1329.86 Q2092.51 1333.06 2086.86 1338.82 Z" fill="#000000" fill-rule="nonzero" fill-opacity="1"></path><path clip-path="url(#clip810)" d="M2112.99 1336.88 L2117.88 1336.88 L2117.88 1342.76 L2112.99 1342.76 L2112.99 1336.88 Z" fill="#000000" fill-rule="nonzero" fill-opacity="1"></path><path clip-path="url(#clip810)" d="M2138.06 1311.27 Q2134.45 1311.27 2132.62 1314.84 Q2130.82 1318.38 2130.82 1325.51 Q2130.82 1332.62 2132.62 1336.18 Q2134.45 1339.72 2138.06 1339.72 Q2141.7 1339.72 2143.5 1336.18 Q2145.33 1332.62 2145.33 1325.51 Q2145.33 1318.38 2143.5 1314.84 Q2141.7 1311.27 2138.06 1311.27 M2138.06 1307.57 Q2143.87 1307.57 2146.93 1312.18 Q2150.01 1316.76 2150.01 1325.51 Q2150.01 1334.24 2146.93 1338.84 Q2143.87 1343.43 2138.06 1343.43 Q2132.25 1343.43 2129.17 1338.84 Q2126.12 1334.24 2126.12 1325.51 Q2126.12 1316.76 2129.17 1312.18 Q2132.25 1307.57 2138.06 1307.57 Z" fill="#000000" fill-rule="nonzero" fill-opacity="1"></path><path clip-path="url(#clip810)" d="M2158.71 1336.88 L2163.6 1336.88 L2163.6 1340.86 L2159.8 1348.26 L2156.81 1348.26 L2158.71 1340.86 L2158.71 1336.88 Z" fill="#000000" fill-rule="nonzero" fill-opacity="1"></path><path clip-path="url(#clip810)" d="M2189.17 1338.82 L2196.81 1338.82 L2196.81 1312.45 L2188.5 1314.12 L2188.5 1309.86 L2196.77 1308.2 L2201.44 1308.2 L2201.44 1338.82 L2209.08 1338.82 L2209.08 1342.76 L2189.17 1342.76 L2189.17 1338.82 Z" fill="#000000" fill-rule="nonzero" fill-opacity="1"></path><path clip-path="url(#clip810)" d="M2231.37 1312.27 L2219.57 1330.72 L2231.37 1330.72 L2231.37 1312.27 M2230.15 1308.2 L2236.03 1308.2 L2236.03 1330.72 L2240.96 1330.72 L2240.96 1334.61 L2236.03 1334.61 L2236.03 1342.76 L2231.37 1342.76 L2231.37 1334.61 L2215.77 1334.61 L2215.77 1330.09 L2230.15 1308.2 Z" fill="#000000" fill-rule="nonzero" fill-opacity="1"></path><path clip-path="url(#clip810)" d="M2247.41 1306.78 L2251.12 1306.78 Q2254.59 1312.25 2256.3 1317.48 Q2258.04 1322.71 2258.04 1327.87 Q2258.04 1333.06 2256.3 1338.31 Q2254.59 1343.57 2251.12 1349.01 L2247.41 1349.01 Q2250.49 1343.7 2252 1338.47 Q2253.53 1333.22 2253.53 1327.87 Q2253.53 1322.52 2252 1317.32 Q2250.49 1312.11 2247.41 1306.78 Z" fill="#000000" fill-rule="nonzero" fill-opacity="1"></path></svg>