<svg xmlns="http://www.w3.org/2000/svg" xmlns:xlink="http://www.w3.org/1999/xlink" width="600" height="400" viewBox="0 0 2400 1600">
<defs>
  <clipPath id="clip210">
    <rect x="0" y="0" width="2400" height="1600"></rect>
  </clipPath>
</defs>
<path clip-path="url(#clip210)" d="M0 1600 L2400 1600 L2400 0 L0 0  Z" fill="#ffffff" fill-rule="evenodd" fill-opacity="1"></path>
<defs>
  <clipPath id="clip211">
    <rect x="480" y="0" width="1681" height="1600"></rect>
  </clipPath>
</defs>
<path clip-path="url(#clip210)" d="M251.071 1423.18 L2352.76 1423.18 L2352.76 47.2441 L251.071 47.2441  Z" fill="#ffffff" fill-rule="evenodd" fill-opacity="1"></path>
<defs>
  <clipPath id="clip212">
    <rect x="251" y="47" width="2103" height="1377"></rect>
  </clipPath>
</defs>
<polyline clip-path="url(#clip212)" style="stroke:#000000; stroke-linecap:round; stroke-linejoin:round; stroke-width:2; stroke-opacity:0.1; fill:none" points="290.525,1423.18 290.525,47.2441 "></polyline>
<polyline clip-path="url(#clip212)" style="stroke:#000000; stroke-linecap:round; stroke-linejoin:round; stroke-width:2; stroke-opacity:0.1; fill:none" points="791.213,1423.18 791.213,47.2441 "></polyline>
<polyline clip-path="url(#clip212)" style="stroke:#000000; stroke-linecap:round; stroke-linejoin:round; stroke-width:2; stroke-opacity:0.1; fill:none" points="1291.9,1423.18 1291.9,47.2441 "></polyline>
<polyline clip-path="url(#clip212)" style="stroke:#000000; stroke-linecap:round; stroke-linejoin:round; stroke-width:2; stroke-opacity:0.1; fill:none" points="1792.59,1423.18 1792.59,47.2441 "></polyline>
<polyline clip-path="url(#clip212)" style="stroke:#000000; stroke-linecap:round; stroke-linejoin:round; stroke-width:2; stroke-opacity:0.1; fill:none" points="2293.27,1423.18 2293.27,47.2441 "></polyline>
<polyline clip-path="url(#clip212)" style="stroke:#000000; stroke-linecap:round; stroke-linejoin:round; stroke-width:2; stroke-opacity:0.1; fill:none" points="251.071,1227.96 2352.76,1227.96 "></polyline>
<polyline clip-path="url(#clip212)" style="stroke:#000000; stroke-linecap:round; stroke-linejoin:round; stroke-width:2; stroke-opacity:0.1; fill:none" points="251.071,625.906 2352.76,625.906 "></polyline>
<polyline clip-path="url(#clip210)" style="stroke:#000000; stroke-linecap:round; stroke-linejoin:round; stroke-width:4; stroke-opacity:1; fill:none" points="251.071,1423.18 2352.76,1423.18 "></polyline>
<polyline clip-path="url(#clip210)" style="stroke:#000000; stroke-linecap:round; stroke-linejoin:round; stroke-width:4; stroke-opacity:1; fill:none" points="290.525,1423.18 290.525,1404.28 "></polyline>
<polyline clip-path="url(#clip210)" style="stroke:#000000; stroke-linecap:round; stroke-linejoin:round; stroke-width:4; stroke-opacity:1; fill:none" points="791.213,1423.18 791.213,1404.28 "></polyline>
<polyline clip-path="url(#clip210)" style="stroke:#000000; stroke-linecap:round; stroke-linejoin:round; stroke-width:4; stroke-opacity:1; fill:none" points="1291.9,1423.18 1291.9,1404.28 "></polyline>
<polyline clip-path="url(#clip210)" style="stroke:#000000; stroke-linecap:round; stroke-linejoin:round; stroke-width:4; stroke-opacity:1; fill:none" points="1792.59,1423.18 1792.59,1404.28 "></polyline>
<polyline clip-path="url(#clip210)" style="stroke:#000000; stroke-linecap:round; stroke-linejoin:round; stroke-width:4; stroke-opacity:1; fill:none" points="2293.27,1423.18 2293.27,1404.28 "></polyline>
<path clip-path="url(#clip210)" d="M290.525 1454.1 Q286.914 1454.1 285.086 1457.66 Q283.28 1461.2 283.28 1468.33 Q283.28 1475.44 285.086 1479.01 Q286.914 1482.55 290.525 1482.55 Q294.16 1482.55 295.965 1479.01 Q297.794 1475.44 297.794 1468.33 Q297.794 1461.2 295.965 1457.66 Q294.16 1454.1 290.525 1454.1 M290.525 1450.39 Q296.336 1450.39 299.391 1455 Q302.47 1459.58 302.47 1468.33 Q302.47 1477.06 299.391 1481.67 Q296.336 1486.25 290.525 1486.25 Q284.715 1486.25 281.637 1481.67 Q278.581 1477.06 278.581 1468.33 Q278.581 1459.58 281.637 1455 Q284.715 1450.39 290.525 1450.39 Z" fill="#000000" fill-rule="nonzero" fill-opacity="1"></path><path clip-path="url(#clip210)" d="M770.484 1481.64 L786.803 1481.64 L786.803 1485.58 L764.859 1485.58 L764.859 1481.64 Q767.521 1478.89 772.104 1474.26 Q776.71 1469.61 777.891 1468.27 Q780.136 1465.74 781.016 1464.01 Q781.919 1462.25 781.919 1460.56 Q781.919 1457.8 779.974 1456.07 Q778.053 1454.33 774.951 1454.33 Q772.752 1454.33 770.298 1455.09 Q767.868 1455.86 765.09 1457.41 L765.09 1452.69 Q767.914 1451.55 770.368 1450.97 Q772.822 1450.39 774.859 1450.39 Q780.229 1450.39 783.423 1453.08 Q786.618 1455.77 786.618 1460.26 Q786.618 1462.39 785.808 1464.31 Q785.021 1466.2 782.914 1468.8 Q782.335 1469.47 779.234 1472.69 Q776.132 1475.88 770.484 1481.64 Z" fill="#000000" fill-rule="nonzero" fill-opacity="1"></path><path clip-path="url(#clip210)" d="M796.664 1451.02 L815.02 1451.02 L815.02 1454.96 L800.946 1454.96 L800.946 1463.43 Q801.965 1463.08 802.983 1462.92 Q804.002 1462.73 805.02 1462.73 Q810.807 1462.73 814.187 1465.9 Q817.567 1469.08 817.567 1474.49 Q817.567 1480.07 814.094 1483.17 Q810.622 1486.25 804.303 1486.25 Q802.127 1486.25 799.858 1485.88 Q797.613 1485.51 795.206 1484.77 L795.206 1480.07 Q797.289 1481.2 799.511 1481.76 Q801.733 1482.32 804.21 1482.32 Q808.215 1482.32 810.553 1480.21 Q812.891 1478.1 812.891 1474.49 Q812.891 1470.88 810.553 1468.77 Q808.215 1466.67 804.21 1466.67 Q802.335 1466.67 800.46 1467.08 Q798.608 1467.5 796.664 1468.38 L796.664 1451.02 Z" fill="#000000" fill-rule="nonzero" fill-opacity="1"></path><path clip-path="url(#clip210)" d="M1266.6 1451.02 L1284.96 1451.02 L1284.96 1454.96 L1270.88 1454.96 L1270.88 1463.43 Q1271.9 1463.08 1272.92 1462.92 Q1273.94 1462.73 1274.96 1462.73 Q1280.74 1462.73 1284.12 1465.9 Q1287.5 1469.08 1287.5 1474.49 Q1287.5 1480.07 1284.03 1483.17 Q1280.56 1486.25 1274.24 1486.25 Q1272.06 1486.25 1269.79 1485.88 Q1267.55 1485.51 1265.14 1484.77 L1265.14 1480.07 Q1267.22 1481.2 1269.45 1481.76 Q1271.67 1482.32 1274.15 1482.32 Q1278.15 1482.32 1280.49 1480.21 Q1282.83 1478.1 1282.83 1474.49 Q1282.83 1470.88 1280.49 1468.77 Q1278.15 1466.67 1274.15 1466.67 Q1272.27 1466.67 1270.4 1467.08 Q1268.54 1467.5 1266.6 1468.38 L1266.6 1451.02 Z" fill="#000000" fill-rule="nonzero" fill-opacity="1"></path><path clip-path="url(#clip210)" d="M1306.71 1454.1 Q1303.1 1454.1 1301.27 1457.66 Q1299.47 1461.2 1299.47 1468.33 Q1299.47 1475.44 1301.27 1479.01 Q1303.1 1482.55 1306.71 1482.55 Q1310.35 1482.55 1312.15 1479.01 Q1313.98 1475.44 1313.98 1468.33 Q1313.98 1461.2 1312.15 1457.66 Q1310.35 1454.1 1306.71 1454.1 M1306.71 1450.39 Q1312.52 1450.39 1315.58 1455 Q1318.66 1459.58 1318.66 1468.33 Q1318.66 1477.06 1315.58 1481.67 Q1312.52 1486.25 1306.71 1486.25 Q1300.9 1486.25 1297.83 1481.67 Q1294.77 1477.06 1294.77 1468.33 Q1294.77 1459.58 1297.83 1455 Q1300.9 1450.39 1306.71 1450.39 Z" fill="#000000" fill-rule="nonzero" fill-opacity="1"></path><path clip-path="url(#clip210)" d="M1766.44 1451.02 L1788.66 1451.02 L1788.66 1453.01 L1776.12 1485.58 L1771.23 1485.58 L1783.04 1454.96 L1766.44 1454.96 L1766.44 1451.02 Z" fill="#000000" fill-rule="nonzero" fill-opacity="1"></path><path clip-path="url(#clip210)" d="M1797.83 1451.02 L1816.19 1451.02 L1816.19 1454.96 L1802.11 1454.96 L1802.11 1463.43 Q1803.13 1463.08 1804.15 1462.92 Q1805.17 1462.73 1806.19 1462.73 Q1811.97 1462.73 1815.35 1465.9 Q1818.73 1469.08 1818.73 1474.49 Q1818.73 1480.07 1815.26 1483.17 Q1811.79 1486.25 1805.47 1486.25 Q1803.29 1486.25 1801.02 1485.88 Q1798.78 1485.51 1796.37 1484.77 L1796.37 1480.07 Q1798.46 1481.2 1800.68 1481.76 Q1802.9 1482.32 1805.38 1482.32 Q1809.38 1482.32 1811.72 1480.21 Q1814.06 1478.1 1814.06 1474.49 Q1814.06 1470.88 1811.72 1468.77 Q1809.38 1466.67 1805.38 1466.67 Q1803.5 1466.67 1801.63 1467.08 Q1799.77 1467.5 1797.83 1468.38 L1797.83 1451.02 Z" fill="#000000" fill-rule="nonzero" fill-opacity="1"></path><path clip-path="url(#clip210)" d="M2252.88 1481.64 L2260.52 1481.64 L2260.52 1455.28 L2252.21 1456.95 L2252.21 1452.69 L2260.47 1451.02 L2265.15 1451.02 L2265.15 1481.64 L2272.79 1481.64 L2272.79 1485.58 L2252.88 1485.58 L2252.88 1481.64 Z" fill="#000000" fill-rule="nonzero" fill-opacity="1"></path><path clip-path="url(#clip210)" d="M2292.23 1454.1 Q2288.62 1454.1 2286.79 1457.66 Q2284.99 1461.2 2284.99 1468.33 Q2284.99 1475.44 2286.79 1479.01 Q2288.62 1482.55 2292.23 1482.55 Q2295.87 1482.55 2297.67 1479.01 Q2299.5 1475.44 2299.5 1468.33 Q2299.5 1461.2 2297.67 1457.66 Q2295.87 1454.1 2292.23 1454.1 M2292.23 1450.39 Q2298.04 1450.39 2301.1 1455 Q2304.18 1459.58 2304.18 1468.33 Q2304.18 1477.06 2301.1 1481.67 Q2298.04 1486.25 2292.23 1486.25 Q2286.42 1486.25 2283.34 1481.67 Q2280.29 1477.06 2280.29 1468.33 Q2280.29 1459.58 2283.34 1455 Q2286.42 1450.39 2292.23 1450.39 Z" fill="#000000" fill-rule="nonzero" fill-opacity="1"></path><path clip-path="url(#clip210)" d="M2322.39 1454.1 Q2318.78 1454.1 2316.95 1457.66 Q2315.15 1461.2 2315.15 1468.33 Q2315.15 1475.44 2316.95 1479.01 Q2318.78 1482.55 2322.39 1482.55 Q2326.03 1482.55 2327.83 1479.01 Q2329.66 1475.44 2329.66 1468.33 Q2329.66 1461.2 2327.83 1457.66 Q2326.03 1454.1 2322.39 1454.1 M2322.39 1450.39 Q2328.2 1450.39 2331.26 1455 Q2334.34 1459.58 2334.34 1468.33 Q2334.34 1477.06 2331.26 1481.67 Q2328.2 1486.25 2322.39 1486.25 Q2316.58 1486.25 2313.51 1481.67 Q2310.45 1477.06 2310.45 1468.33 Q2310.45 1459.58 2313.51 1455 Q2316.58 1450.39 2322.39 1450.39 Z" fill="#000000" fill-rule="nonzero" fill-opacity="1"></path><path clip-path="url(#clip210)" d="M969.13 1522.08 L969.13 1528.35 Q965.47 1526.6 962.224 1525.74 Q958.977 1524.88 955.953 1524.88 Q950.702 1524.88 947.837 1526.92 Q945.004 1528.96 945.004 1532.71 Q945.004 1535.87 946.882 1537.49 Q948.792 1539.08 954.075 1540.07 L957.959 1540.86 Q965.152 1542.23 968.557 1545.7 Q971.995 1549.14 971.995 1554.93 Q971.995 1561.84 967.348 1565.4 Q962.733 1568.97 953.789 1568.97 Q950.415 1568.97 946.596 1568.2 Q942.808 1567.44 938.734 1565.94 L938.734 1559.32 Q942.649 1561.52 946.405 1562.63 Q950.161 1563.75 953.789 1563.75 Q959.295 1563.75 962.287 1561.58 Q965.279 1559.42 965.279 1555.41 Q965.279 1551.91 963.115 1549.93 Q960.982 1547.96 956.081 1546.97 L952.166 1546.21 Q944.972 1544.78 941.758 1541.72 Q938.543 1538.67 938.543 1533.22 Q938.543 1526.92 942.967 1523.29 Q947.423 1519.66 955.221 1519.66 Q958.563 1519.66 962.033 1520.27 Q965.502 1520.87 969.13 1522.08 Z" fill="#000000" fill-rule="nonzero" fill-opacity="1"></path><path clip-path="url(#clip210)" d="M981.162 1553.98 L981.162 1532.4 L987.018 1532.4 L987.018 1553.75 Q987.018 1558.81 988.991 1561.36 Q990.965 1563.87 994.911 1563.87 Q999.654 1563.87 1002.39 1560.85 Q1005.16 1557.83 1005.16 1552.61 L1005.16 1532.4 L1011.02 1532.4 L1011.02 1568.04 L1005.16 1568.04 L1005.16 1562.57 Q1003.03 1565.82 1000.19 1567.41 Q997.394 1568.97 993.67 1568.97 Q987.527 1568.97 984.344 1565.15 Q981.162 1561.33 981.162 1553.98 M995.898 1531.54 L995.898 1531.54 Z" fill="#000000" fill-rule="nonzero" fill-opacity="1"></path><path clip-path="url(#clip210)" d="M1048.67 1550.25 Q1048.67 1543.79 1046 1540.13 Q1043.35 1536.44 1038.71 1536.44 Q1034.06 1536.44 1031.39 1540.13 Q1028.75 1543.79 1028.75 1550.25 Q1028.75 1556.71 1031.39 1560.4 Q1034.06 1564.07 1038.71 1564.07 Q1043.35 1564.07 1046 1560.4 Q1048.67 1556.71 1048.67 1550.25 M1028.75 1537.81 Q1030.59 1534.62 1033.39 1533.1 Q1036.22 1531.54 1040.14 1531.54 Q1046.63 1531.54 1050.68 1536.69 Q1054.75 1541.85 1054.75 1550.25 Q1054.75 1558.65 1050.68 1563.81 Q1046.63 1568.97 1040.14 1568.97 Q1036.22 1568.97 1033.39 1567.44 Q1030.59 1565.88 1028.75 1562.7 L1028.75 1568.04 L1022.86 1568.04 L1022.86 1518.52 L1028.75 1518.52 L1028.75 1537.81 Z" fill="#000000" fill-rule="nonzero" fill-opacity="1"></path><path clip-path="url(#clip210)" d="M1087.18 1533.45 L1087.18 1538.98 Q1084.7 1537.71 1082.03 1537.07 Q1079.35 1536.44 1076.49 1536.44 Q1072.13 1536.44 1069.93 1537.77 Q1067.77 1539.11 1067.77 1541.79 Q1067.77 1543.82 1069.33 1545 Q1070.89 1546.15 1075.6 1547.2 L1077.6 1547.64 Q1083.84 1548.98 1086.45 1551.43 Q1089.09 1553.85 1089.09 1558.21 Q1089.09 1563.17 1085.15 1566.07 Q1081.23 1568.97 1074.36 1568.97 Q1071.49 1568.97 1068.37 1568.39 Q1065.28 1567.85 1061.85 1566.74 L1061.85 1560.69 Q1065.09 1562.38 1068.24 1563.24 Q1071.4 1564.07 1074.48 1564.07 Q1078.62 1564.07 1080.85 1562.66 Q1083.08 1561.23 1083.08 1558.65 Q1083.08 1556.27 1081.45 1554.99 Q1079.86 1553.72 1074.42 1552.54 L1072.38 1552.07 Q1066.94 1550.92 1064.52 1548.56 Q1062.1 1546.18 1062.1 1542.04 Q1062.1 1537.01 1065.67 1534.27 Q1069.23 1531.54 1075.79 1531.54 Q1079.03 1531.54 1081.9 1532.01 Q1084.76 1532.49 1087.18 1533.45 Z" fill="#000000" fill-rule="nonzero" fill-opacity="1"></path><path clip-path="url(#clip210)" d="M1104.08 1562.7 L1104.08 1581.6 L1098.2 1581.6 L1098.2 1532.4 L1104.08 1532.4 L1104.08 1537.81 Q1105.93 1534.62 1108.73 1533.1 Q1111.56 1531.54 1115.48 1531.54 Q1121.97 1531.54 1126.01 1536.69 Q1130.09 1541.85 1130.09 1550.25 Q1130.09 1558.65 1126.01 1563.81 Q1121.97 1568.97 1115.48 1568.97 Q1111.56 1568.97 1108.73 1567.44 Q1105.93 1565.88 1104.08 1562.7 M1124.01 1550.25 Q1124.01 1543.79 1121.33 1540.13 Q1118.69 1536.44 1114.05 1536.44 Q1109.4 1536.44 1106.73 1540.13 Q1104.08 1543.79 1104.08 1550.25 Q1104.08 1556.71 1106.73 1560.4 Q1109.4 1564.07 1114.05 1564.07 Q1118.69 1564.07 1121.33 1560.4 Q1124.01 1556.71 1124.01 1550.25 Z" fill="#000000" fill-rule="nonzero" fill-opacity="1"></path><path clip-path="url(#clip210)" d="M1156 1550.12 Q1148.9 1550.12 1146.16 1551.75 Q1143.42 1553.37 1143.42 1557.29 Q1143.42 1560.4 1145.46 1562.25 Q1147.53 1564.07 1151.06 1564.07 Q1155.93 1564.07 1158.86 1560.63 Q1161.82 1557.16 1161.82 1551.43 L1161.82 1550.12 L1156 1550.12 M1167.68 1547.71 L1167.68 1568.04 L1161.82 1568.04 L1161.82 1562.63 Q1159.82 1565.88 1156.82 1567.44 Q1153.83 1568.97 1149.5 1568.97 Q1144.03 1568.97 1140.78 1565.91 Q1137.57 1562.82 1137.57 1557.67 Q1137.57 1551.65 1141.58 1548.6 Q1145.62 1545.54 1153.61 1545.54 L1161.82 1545.54 L1161.82 1544.97 Q1161.82 1540.93 1159.15 1538.73 Q1156.5 1536.5 1151.7 1536.5 Q1148.64 1536.5 1145.75 1537.23 Q1142.85 1537.97 1140.18 1539.43 L1140.18 1534.02 Q1143.39 1532.78 1146.42 1532.17 Q1149.44 1531.54 1152.3 1531.54 Q1160.04 1531.54 1163.86 1535.55 Q1167.68 1539.56 1167.68 1547.71 Z" fill="#000000" fill-rule="nonzero" fill-opacity="1"></path><path clip-path="url(#clip210)" d="M1205.39 1533.76 L1205.39 1539.24 Q1202.91 1537.87 1200.4 1537.2 Q1197.91 1536.5 1195.37 1536.5 Q1189.67 1536.5 1186.52 1540.13 Q1183.37 1543.73 1183.37 1550.25 Q1183.37 1556.78 1186.52 1560.4 Q1189.67 1564 1195.37 1564 Q1197.91 1564 1200.4 1563.33 Q1202.91 1562.63 1205.39 1561.26 L1205.39 1566.68 Q1202.94 1567.82 1200.3 1568.39 Q1197.69 1568.97 1194.73 1568.97 Q1186.68 1568.97 1181.94 1563.91 Q1177.19 1558.85 1177.19 1550.25 Q1177.19 1541.53 1181.97 1536.53 Q1186.77 1531.54 1195.11 1531.54 Q1197.82 1531.54 1200.4 1532.11 Q1202.97 1532.65 1205.39 1533.76 Z" fill="#000000" fill-rule="nonzero" fill-opacity="1"></path><path clip-path="url(#clip210)" d="M1246.07 1548.76 L1246.07 1551.62 L1219.14 1551.62 Q1219.53 1557.67 1222.77 1560.85 Q1226.05 1564 1231.87 1564 Q1235.25 1564 1238.4 1563.17 Q1241.58 1562.35 1244.7 1560.69 L1244.7 1566.23 Q1241.55 1567.57 1238.24 1568.27 Q1234.93 1568.97 1231.52 1568.97 Q1222.99 1568.97 1218 1564 Q1213.03 1559.04 1213.03 1550.57 Q1213.03 1541.82 1217.74 1536.69 Q1222.49 1531.54 1230.51 1531.54 Q1237.7 1531.54 1241.87 1536.18 Q1246.07 1540.8 1246.07 1548.76 M1240.21 1547.04 Q1240.15 1542.23 1237.51 1539.37 Q1234.9 1536.5 1230.57 1536.5 Q1225.67 1536.5 1222.71 1539.27 Q1219.78 1542.04 1219.33 1547.07 L1240.21 1547.04 Z" fill="#000000" fill-rule="nonzero" fill-opacity="1"></path><path clip-path="url(#clip210)" d="M1299.86 1537.81 L1299.86 1518.52 L1305.72 1518.52 L1305.72 1568.04 L1299.86 1568.04 L1299.86 1562.7 Q1298.01 1565.88 1295.18 1567.44 Q1292.38 1568.97 1288.43 1568.97 Q1281.97 1568.97 1277.9 1563.81 Q1273.86 1558.65 1273.86 1550.25 Q1273.86 1541.85 1277.9 1536.69 Q1281.97 1531.54 1288.43 1531.54 Q1292.38 1531.54 1295.18 1533.1 Q1298.01 1534.62 1299.86 1537.81 M1279.9 1550.25 Q1279.9 1556.71 1282.55 1560.4 Q1285.22 1564.07 1289.87 1564.07 Q1294.51 1564.07 1297.19 1560.4 Q1299.86 1556.71 1299.86 1550.25 Q1299.86 1543.79 1297.19 1540.13 Q1294.51 1536.44 1289.87 1536.44 Q1285.22 1536.44 1282.55 1540.13 Q1279.9 1543.79 1279.9 1550.25 Z" fill="#000000" fill-rule="nonzero" fill-opacity="1"></path><path clip-path="url(#clip210)" d="M1317.78 1532.4 L1323.64 1532.4 L1323.64 1568.04 L1317.78 1568.04 L1317.78 1532.4 M1317.78 1518.52 L1323.64 1518.52 L1323.64 1525.93 L1317.78 1525.93 L1317.78 1518.52 Z" fill="#000000" fill-rule="nonzero" fill-opacity="1"></path><path clip-path="url(#clip210)" d="M1363.65 1539.24 Q1365.84 1535.29 1368.9 1533.41 Q1371.95 1531.54 1376.09 1531.54 Q1381.66 1531.54 1384.68 1535.45 Q1387.71 1539.33 1387.71 1546.53 L1387.71 1568.04 L1381.82 1568.04 L1381.82 1546.72 Q1381.82 1541.59 1380 1539.11 Q1378.19 1536.63 1374.47 1536.63 Q1369.92 1536.63 1367.27 1539.65 Q1364.63 1542.68 1364.63 1547.9 L1364.63 1568.04 L1358.74 1568.04 L1358.74 1546.72 Q1358.74 1541.56 1356.93 1539.11 Q1355.11 1536.63 1351.33 1536.63 Q1346.84 1536.63 1344.2 1539.68 Q1341.56 1542.71 1341.56 1547.9 L1341.56 1568.04 L1335.67 1568.04 L1335.67 1532.4 L1341.56 1532.4 L1341.56 1537.93 Q1343.56 1534.66 1346.36 1533.1 Q1349.16 1531.54 1353.01 1531.54 Q1356.9 1531.54 1359.6 1533.51 Q1362.34 1535.48 1363.65 1539.24 Z" fill="#000000" fill-rule="nonzero" fill-opacity="1"></path><path clip-path="url(#clip210)" d="M1429.88 1548.76 L1429.88 1551.62 L1402.95 1551.62 Q1403.34 1557.67 1406.58 1560.85 Q1409.86 1564 1415.68 1564 Q1419.06 1564 1422.21 1563.17 Q1425.39 1562.35 1428.51 1560.69 L1428.51 1566.23 Q1425.36 1567.57 1422.05 1568.27 Q1418.74 1568.97 1415.33 1568.97 Q1406.8 1568.97 1401.81 1564 Q1396.84 1559.04 1396.84 1550.57 Q1396.84 1541.82 1401.55 1536.69 Q1406.3 1531.54 1414.32 1531.54 Q1421.51 1531.54 1425.68 1536.18 Q1429.88 1540.8 1429.88 1548.76 M1424.02 1547.04 Q1423.96 1542.23 1421.32 1539.37 Q1418.71 1536.5 1414.38 1536.5 Q1409.48 1536.5 1406.52 1539.27 Q1403.59 1542.04 1403.14 1547.07 L1424.02 1547.04 Z" fill="#000000" fill-rule="nonzero" fill-opacity="1"></path><path clip-path="url(#clip210)" d="M1469.12 1546.53 L1469.12 1568.04 L1463.27 1568.04 L1463.27 1546.72 Q1463.27 1541.66 1461.29 1539.14 Q1459.32 1536.63 1455.37 1536.63 Q1450.63 1536.63 1447.9 1539.65 Q1445.16 1542.68 1445.16 1547.9 L1445.16 1568.04 L1439.27 1568.04 L1439.27 1532.4 L1445.16 1532.4 L1445.16 1537.93 Q1447.26 1534.72 1450.09 1533.13 Q1452.96 1531.54 1456.68 1531.54 Q1462.82 1531.54 1465.97 1535.36 Q1469.12 1539.14 1469.12 1546.53 Z" fill="#000000" fill-rule="nonzero" fill-opacity="1"></path><path clip-path="url(#clip210)" d="M1503.53 1533.45 L1503.53 1538.98 Q1501.05 1537.71 1498.38 1537.07 Q1495.7 1536.44 1492.84 1536.44 Q1488.48 1536.44 1486.28 1537.77 Q1484.12 1539.11 1484.12 1541.79 Q1484.12 1543.82 1485.68 1545 Q1487.24 1546.15 1491.95 1547.2 L1493.95 1547.64 Q1500.19 1548.98 1502.8 1551.43 Q1505.44 1553.85 1505.44 1558.21 Q1505.44 1563.17 1501.49 1566.07 Q1497.58 1568.97 1490.7 1568.97 Q1487.84 1568.97 1484.72 1568.39 Q1481.63 1567.85 1478.2 1566.74 L1478.2 1560.69 Q1481.44 1562.38 1484.59 1563.24 Q1487.74 1564.07 1490.83 1564.07 Q1494.97 1564.07 1497.2 1562.66 Q1499.43 1561.23 1499.43 1558.65 Q1499.43 1556.27 1497.8 1554.99 Q1496.21 1553.72 1490.77 1552.54 L1488.73 1552.07 Q1483.29 1550.92 1480.87 1548.56 Q1478.45 1546.18 1478.45 1542.04 Q1478.45 1537.01 1482.02 1534.27 Q1485.58 1531.54 1492.14 1531.54 Q1495.38 1531.54 1498.25 1532.01 Q1501.11 1532.49 1503.53 1533.45 Z" fill="#000000" fill-rule="nonzero" fill-opacity="1"></path><path clip-path="url(#clip210)" d="M1514.77 1532.4 L1520.62 1532.4 L1520.62 1568.04 L1514.77 1568.04 L1514.77 1532.4 M1514.77 1518.52 L1520.62 1518.52 L1520.62 1525.93 L1514.77 1525.93 L1514.77 1518.52 Z" fill="#000000" fill-rule="nonzero" fill-opacity="1"></path><path clip-path="url(#clip210)" d="M1546.69 1536.5 Q1541.98 1536.5 1539.24 1540.19 Q1536.51 1543.85 1536.51 1550.25 Q1536.51 1556.65 1539.21 1560.34 Q1541.95 1564 1546.69 1564 Q1551.37 1564 1554.11 1560.31 Q1556.84 1556.62 1556.84 1550.25 Q1556.84 1543.92 1554.11 1540.23 Q1551.37 1536.5 1546.69 1536.5 M1546.69 1531.54 Q1554.33 1531.54 1558.69 1536.5 Q1563.05 1541.47 1563.05 1550.25 Q1563.05 1559 1558.69 1564 Q1554.33 1568.97 1546.69 1568.97 Q1539.02 1568.97 1534.66 1564 Q1530.33 1559 1530.33 1550.25 Q1530.33 1541.47 1534.66 1536.5 Q1539.02 1531.54 1546.69 1531.54 Z" fill="#000000" fill-rule="nonzero" fill-opacity="1"></path><path clip-path="url(#clip210)" d="M1602.39 1546.53 L1602.39 1568.04 L1596.53 1568.04 L1596.53 1546.72 Q1596.53 1541.66 1594.56 1539.14 Q1592.59 1536.63 1588.64 1536.63 Q1583.9 1536.63 1581.16 1539.65 Q1578.42 1542.68 1578.42 1547.9 L1578.42 1568.04 L1572.54 1568.04 L1572.54 1532.4 L1578.42 1532.4 L1578.42 1537.93 Q1580.52 1534.72 1583.36 1533.13 Q1586.22 1531.54 1589.95 1531.54 Q1596.09 1531.54 1599.24 1535.36 Q1602.39 1539.14 1602.39 1546.53 Z" fill="#000000" fill-rule="nonzero" fill-opacity="1"></path><path clip-path="url(#clip210)" d="M1648.83 1524.09 L1665.28 1568.04 L1659.08 1568.04 L1649.08 1541.69 L1636.8 1568.04 L1630.59 1568.04 L1646.22 1533.86 L1643.86 1527.56 Q1642.37 1523.55 1638.96 1523.55 L1635.91 1523.55 L1635.91 1518.52 L1639.63 1518.58 Q1646.82 1518.68 1648.83 1524.09 Z" fill="#000000" fill-rule="nonzero" fill-opacity="1"></path><polyline clip-path="url(#clip210)" style="stroke:#000000; stroke-linecap:round; stroke-linejoin:round; stroke-width:4; stroke-opacity:1; fill:none" points="251.071,1423.18 251.071,47.2441 "></polyline>
<polyline clip-path="url(#clip210)" style="stroke:#000000; stroke-linecap:round; stroke-linejoin:round; stroke-width:4; stroke-opacity:1; fill:none" points="251.071,1227.96 269.969,1227.96 "></polyline>
<polyline clip-path="url(#clip210)" style="stroke:#000000; stroke-linecap:round; stroke-linejoin:round; stroke-width:4; stroke-opacity:1; fill:none" points="251.071,625.906 269.969,625.906 "></polyline>
<path clip-path="url(#clip210)" d="M114.931 1247.75 L122.57 1247.75 L122.57 1221.38 L114.26 1223.05 L114.26 1218.79 L122.524 1217.12 L127.2 1217.12 L127.2 1247.75 L134.839 1247.75 L134.839 1251.68 L114.931 1251.68 L114.931 1247.75 Z" fill="#000000" fill-rule="nonzero" fill-opacity="1"></path><path clip-path="url(#clip210)" d="M154.283 1220.2 Q150.672 1220.2 148.843 1223.77 Q147.038 1227.31 147.038 1234.44 Q147.038 1241.55 148.843 1245.11 Q150.672 1248.65 154.283 1248.65 Q157.917 1248.65 159.723 1245.11 Q161.552 1241.55 161.552 1234.44 Q161.552 1227.31 159.723 1223.77 Q157.917 1220.2 154.283 1220.2 M154.283 1216.5 Q160.093 1216.5 163.149 1221.11 Q166.227 1225.69 166.227 1234.44 Q166.227 1243.17 163.149 1247.77 Q160.093 1252.36 154.283 1252.36 Q148.473 1252.36 145.394 1247.77 Q142.339 1243.17 142.339 1234.44 Q142.339 1225.69 145.394 1221.11 Q148.473 1216.5 154.283 1216.5 Z" fill="#000000" fill-rule="nonzero" fill-opacity="1"></path><path clip-path="url(#clip210)" d="M166.227 1210.6 L190.339 1210.6 L190.339 1213.8 L166.227 1213.8 L166.227 1210.6 Z" fill="#000000" fill-rule="nonzero" fill-opacity="1"></path><path clip-path="url(#clip210)" d="M201.812 1221.08 L215.071 1221.08 L215.071 1224.27 L197.241 1224.27 L197.241 1221.08 Q199.404 1218.84 203.128 1215.08 Q206.871 1211.3 207.83 1210.21 Q209.655 1208.16 210.369 1206.74 Q211.103 1205.32 211.103 1203.94 Q211.103 1201.7 209.523 1200.29 Q207.962 1198.88 205.442 1198.88 Q203.655 1198.88 201.661 1199.5 Q199.686 1200.12 197.43 1201.38 L197.43 1197.55 Q199.724 1196.63 201.718 1196.16 Q203.711 1195.69 205.366 1195.69 Q209.73 1195.69 212.325 1197.87 Q214.921 1200.05 214.921 1203.7 Q214.921 1205.43 214.263 1206.99 Q213.623 1208.53 211.912 1210.64 Q211.441 1211.18 208.921 1213.8 Q206.401 1216.39 201.812 1221.08 Z" fill="#000000" fill-rule="nonzero" fill-opacity="1"></path><path clip-path="url(#clip210)" d="M144.366 645.698 L152.004 645.698 L152.004 619.333 L143.694 621 L143.694 616.74 L151.958 615.074 L156.634 615.074 L156.634 645.698 L164.273 645.698 L164.273 649.634 L144.366 649.634 L144.366 645.698 Z" fill="#000000" fill-rule="nonzero" fill-opacity="1"></path><path clip-path="url(#clip210)" d="M183.717 618.152 Q180.106 618.152 178.277 621.717 Q176.472 625.259 176.472 632.388 Q176.472 639.495 178.277 643.06 Q180.106 646.601 183.717 646.601 Q187.351 646.601 189.157 643.06 Q190.986 639.495 190.986 632.388 Q190.986 625.259 189.157 621.717 Q187.351 618.152 183.717 618.152 M183.717 614.449 Q189.527 614.449 192.583 619.055 Q195.662 623.638 195.662 632.388 Q195.662 641.115 192.583 645.722 Q189.527 650.305 183.717 650.305 Q177.907 650.305 174.828 645.722 Q171.773 641.115 171.773 632.388 Q171.773 623.638 174.828 619.055 Q177.907 614.449 183.717 614.449 Z" fill="#000000" fill-rule="nonzero" fill-opacity="1"></path><path clip-path="url(#clip210)" d="M205.366 596.645 Q202.432 596.645 200.947 599.541 Q199.48 602.419 199.48 608.211 Q199.48 613.985 200.947 616.882 Q202.432 619.759 205.366 619.759 Q208.319 619.759 209.786 616.882 Q211.272 613.985 211.272 608.211 Q211.272 602.419 209.786 599.541 Q208.319 596.645 205.366 596.645 M205.366 593.635 Q210.087 593.635 212.57 597.378 Q215.071 601.102 215.071 608.211 Q215.071 615.302 212.57 619.045 Q210.087 622.769 205.366 622.769 Q200.646 622.769 198.144 619.045 Q195.662 615.302 195.662 608.211 Q195.662 601.102 198.144 597.378 Q200.646 593.635 205.366 593.635 Z" fill="#000000" fill-rule="nonzero" fill-opacity="1"></path><path clip-path="url(#clip210)" d="M20.2875 1076.52 L20.2875 1066.94 L52.6252 1054.81 L20.2875 1042.62 L20.2875 1033.04 L67.8075 1033.04 L67.8075 1039.31 L26.0802 1039.31 L58.6727 1051.56 L58.6727 1058.02 L26.0802 1070.28 L67.8075 1070.28 L67.8075 1076.52 L20.2875 1076.52 Z" fill="#000000" fill-rule="nonzero" fill-opacity="1"></path><path clip-path="url(#clip210)" d="M48.5194 990.039 L51.3839 990.039 L51.3839 1016.97 Q57.4314 1016.58 60.6142 1013.34 Q63.7652 1010.06 63.7652 1004.23 Q63.7652 1000.86 62.9377 997.71 Q62.1101 994.527 60.4551 991.408 L65.9932 991.408 Q67.33 994.559 68.0303 997.869 Q68.7305 1001.18 68.7305 1004.58 Q68.7305 1013.11 63.7652 1018.11 Q58.8 1023.08 50.3336 1023.08 Q41.5807 1023.08 36.4563 1018.37 Q31.3001 1013.62 31.3001 1005.6 Q31.3001 998.41 35.9471 994.241 Q40.5622 990.039 48.5194 990.039 M46.8006 995.896 Q41.9945 995.959 39.1299 998.601 Q36.2654 1001.21 36.2654 1005.54 Q36.2654 1010.44 39.0345 1013.4 Q41.8035 1016.33 46.8325 1016.78 L46.8006 995.896 Z" fill="#000000" fill-rule="nonzero" fill-opacity="1"></path><path clip-path="url(#clip210)" d="M37.5703 956.969 L18.2823 956.969 L18.2823 951.113 L67.8075 951.113 L67.8075 956.969 L62.4603 956.969 Q65.6431 958.815 67.2027 961.648 Q68.7305 964.449 68.7305 968.396 Q68.7305 974.857 63.5743 978.931 Q58.418 982.973 50.0153 982.973 Q41.6126 982.973 36.4563 978.931 Q31.3001 974.857 31.3001 968.396 Q31.3001 964.449 32.8597 961.648 Q34.3875 958.815 37.5703 956.969 M50.0153 976.926 Q56.4765 976.926 60.1686 974.284 Q63.8289 971.61 63.8289 966.964 Q63.8289 962.317 60.1686 959.643 Q56.4765 956.969 50.0153 956.969 Q43.5541 956.969 39.8938 959.643 Q36.2017 962.317 36.2017 966.964 Q36.2017 971.61 39.8938 974.284 Q43.5541 976.926 50.0153 976.926 Z" fill="#000000" fill-rule="nonzero" fill-opacity="1"></path><path clip-path="url(#clip210)" d="M32.1595 939.05 L32.1595 933.193 L67.8075 933.193 L67.8075 939.05 L32.1595 939.05 M18.2823 939.05 L18.2823 933.193 L25.6983 933.193 L25.6983 939.05 L18.2823 939.05 Z" fill="#000000" fill-rule="nonzero" fill-opacity="1"></path><path clip-path="url(#clip210)" d="M49.888 904.739 Q49.888 911.836 51.5112 914.574 Q53.1345 917.311 57.0494 917.311 Q60.1686 917.311 62.0147 915.274 Q63.8289 913.205 63.8289 909.672 Q63.8289 904.802 60.3914 901.874 Q56.9221 898.914 51.193 898.914 L49.888 898.914 L49.888 904.739 M47.469 893.058 L67.8075 893.058 L67.8075 898.914 L62.3966 898.914 Q65.6431 900.919 67.2027 903.911 Q68.7305 906.903 68.7305 911.232 Q68.7305 916.706 65.6749 919.953 Q62.5876 923.167 57.4314 923.167 Q51.4158 923.167 48.3602 919.157 Q45.3047 915.115 45.3047 907.126 L45.3047 898.914 L44.7318 898.914 Q40.6895 898.914 38.4934 901.588 Q36.2654 904.229 36.2654 909.036 Q36.2654 912.091 36.9974 914.988 Q37.7295 917.884 39.1936 920.557 L33.7828 920.557 Q32.5414 917.343 31.9367 914.319 Q31.3001 911.295 31.3001 908.431 Q31.3001 900.696 35.3105 896.877 Q39.3209 893.058 47.469 893.058 Z" fill="#000000" fill-rule="nonzero" fill-opacity="1"></path><path clip-path="url(#clip210)" d="M46.2914 851.362 L67.8075 851.362 L67.8075 857.219 L46.4823 857.219 Q41.4216 857.219 38.9071 859.192 Q36.3927 861.165 36.3927 865.112 Q36.3927 869.855 39.4164 872.592 Q42.4401 875.329 47.66 875.329 L67.8075 875.329 L67.8075 881.217 L32.1595 881.217 L32.1595 875.329 L37.6977 875.329 Q34.483 873.228 32.8916 870.396 Q31.3001 867.531 31.3001 863.807 Q31.3001 857.664 35.1196 854.513 Q38.9071 851.362 46.2914 851.362 Z" fill="#000000" fill-rule="nonzero" fill-opacity="1"></path><path clip-path="url(#clip210)" d="M25.571 812.277 L62.5239 812.277 L62.5239 804.511 Q62.5239 794.676 58.0679 790.124 Q53.6119 785.541 43.9997 785.541 Q34.4512 785.541 30.027 790.124 Q25.571 794.676 25.571 804.511 L25.571 812.277 M20.2875 818.706 L20.2875 805.497 Q20.2875 791.684 26.0484 785.223 Q31.7776 778.761 43.9997 778.761 Q56.2855 778.761 62.0465 785.254 Q67.8075 791.747 67.8075 805.497 L67.8075 818.706 L20.2875 818.706 Z" fill="#000000" fill-rule="nonzero" fill-opacity="1"></path><path clip-path="url(#clip210)" d="M32.1595 768.767 L32.1595 762.911 L67.8075 762.911 L67.8075 768.767 L32.1595 768.767 M18.2823 768.767 L18.2823 762.911 L25.6983 762.911 L25.6983 768.767 L18.2823 768.767 Z" fill="#000000" fill-rule="nonzero" fill-opacity="1"></path><path clip-path="url(#clip210)" d="M18.2823 750.657 L18.2823 744.8 L67.8075 744.8 L67.8075 750.657 L18.2823 750.657 Z" fill="#000000" fill-rule="nonzero" fill-opacity="1"></path><path clip-path="url(#clip210)" d="M49.888 716.346 Q49.888 723.443 51.5112 726.181 Q53.1345 728.918 57.0494 728.918 Q60.1686 728.918 62.0147 726.881 Q63.8289 724.812 63.8289 721.279 Q63.8289 716.409 60.3914 713.481 Q56.9221 710.521 51.193 710.521 L49.888 710.521 L49.888 716.346 M47.469 704.665 L67.8075 704.665 L67.8075 710.521 L62.3966 710.521 Q65.6431 712.526 67.2027 715.518 Q68.7305 718.51 68.7305 722.839 Q68.7305 728.313 65.6749 731.56 Q62.5876 734.774 57.4314 734.774 Q51.4158 734.774 48.3602 730.764 Q45.3047 726.722 45.3047 718.733 L45.3047 710.521 L44.7318 710.521 Q40.6895 710.521 38.4934 713.195 Q36.2654 715.836 36.2654 720.642 Q36.2654 723.698 36.9974 726.594 Q37.7295 729.491 39.1936 732.164 L33.7828 732.164 Q32.5414 728.95 31.9367 725.926 Q31.3001 722.902 31.3001 720.038 Q31.3001 712.303 35.3105 708.484 Q39.3209 704.665 47.469 704.665 Z" fill="#000000" fill-rule="nonzero" fill-opacity="1"></path><path clip-path="url(#clip210)" d="M22.038 686.809 L32.1595 686.809 L32.1595 674.746 L36.711 674.746 L36.711 686.809 L56.0627 686.809 Q60.4232 686.809 61.6645 685.631 Q62.9059 684.422 62.9059 680.761 L62.9059 674.746 L67.8075 674.746 L67.8075 680.761 Q67.8075 687.541 65.293 690.119 Q62.7467 692.697 56.0627 692.697 L36.711 692.697 L36.711 696.994 L32.1595 696.994 L32.1595 692.697 L22.038 692.697 L22.038 686.809 Z" fill="#000000" fill-rule="nonzero" fill-opacity="1"></path><path clip-path="url(#clip210)" d="M32.1595 667.043 L32.1595 661.187 L67.8075 661.187 L67.8075 667.043 L32.1595 667.043 M18.2823 667.043 L18.2823 661.187 L25.6983 661.187 L25.6983 667.043 L18.2823 667.043 Z" fill="#000000" fill-rule="nonzero" fill-opacity="1"></path><path clip-path="url(#clip210)" d="M36.2654 635.119 Q36.2654 639.83 39.9575 642.567 Q43.6178 645.304 50.0153 645.304 Q56.4128 645.304 60.1049 642.599 Q63.7652 639.862 63.7652 635.119 Q63.7652 630.44 60.0731 627.703 Q56.381 624.966 50.0153 624.966 Q43.6814 624.966 39.9893 627.703 Q36.2654 630.44 36.2654 635.119 M31.3001 635.119 Q31.3001 627.48 36.2654 623.12 Q41.2306 618.759 50.0153 618.759 Q58.7682 618.759 63.7652 623.12 Q68.7305 627.48 68.7305 635.119 Q68.7305 642.79 63.7652 647.15 Q58.7682 651.479 50.0153 651.479 Q41.2306 651.479 36.2654 647.15 Q31.3001 642.79 31.3001 635.119 Z" fill="#000000" fill-rule="nonzero" fill-opacity="1"></path><path clip-path="url(#clip210)" d="M46.2914 579.419 L67.8075 579.419 L67.8075 585.276 L46.4823 585.276 Q41.4216 585.276 38.9071 587.249 Q36.3927 589.222 36.3927 593.169 Q36.3927 597.912 39.4164 600.649 Q42.4401 603.386 47.66 603.386 L67.8075 603.386 L67.8075 609.274 L32.1595 609.274 L32.1595 603.386 L37.6977 603.386 Q34.483 601.285 32.8916 598.453 Q31.3001 595.588 31.3001 591.864 Q31.3001 585.721 35.1196 582.57 Q38.9071 579.419 46.2914 579.419 Z" fill="#000000" fill-rule="nonzero" fill-opacity="1"></path><path clip-path="url(#clip210)" d="M40.9478 497.561 Q43.2022 497.561 43.2022 500.782 L43.2022 508.028 Q46.1007 505.999 50.3841 505.999 Q54.0556 505.999 57.5016 507.513 Q60.9154 508.994 63.2986 511.378 Q65.6819 513.729 67.1311 516.692 Q68.5482 519.655 68.5482 522.553 Q68.5482 526.965 65.553 529.703 Q62.5579 532.44 58.1135 532.44 Q55.7625 532.44 53.1538 531.635 Q50.5451 530.798 48.1297 529.22 Q45.682 527.642 43.7175 525.581 Q41.7529 523.487 40.5613 520.782 Q39.3697 518.044 39.3697 515.178 L39.3697 500.138 Q39.3697 499.333 39.4341 498.914 Q39.4663 498.463 39.8528 498.012 Q40.207 497.561 40.9478 497.561 M49.6111 510.218 Q48.8382 510.218 48.1619 510.315 Q47.4533 510.412 46.5194 510.766 Q45.5532 511.12 44.8769 511.732 Q44.1684 512.344 43.6853 513.536 Q43.2022 514.695 43.2022 516.273 Q43.2022 518.495 44.426 520.943 Q45.6498 523.391 48.6772 525.258 Q51.2536 526.804 54.6031 527.577 Q57.9525 528.35 59.9492 528.35 Q63.363 528.35 65.231 526.708 Q67.0667 525.033 67.0667 522.489 Q67.0667 520.395 65.6497 518.012 Q64.2004 515.629 61.4629 513.793 Q59.0797 512.183 55.6014 511.217 Q52.1232 510.218 49.6111 510.218 Z" fill="#000000" fill-rule="nonzero" fill-opacity="1"></path><path clip-path="url(#clip210)" d="M48.7739 490.869 Q47.9397 490.869 47.6917 490.801 Q47.4438 490.711 47.0605 490.351 L37.1862 481.491 Q31.7305 476.644 26.9737 476.644 Q23.8852 476.644 21.6758 478.267 Q19.4665 479.868 19.4665 482.821 Q19.4665 484.85 20.7065 486.563 Q21.9464 488.277 24.1557 489.066 Q24.1106 488.93 24.1106 488.457 Q24.1106 487.307 24.832 486.676 Q25.5534 486.022 26.5228 486.022 Q27.7628 486.022 28.3714 486.834 Q28.9576 487.623 28.9576 488.412 Q28.9576 488.727 28.89 489.156 Q28.8223 489.562 28.1911 490.215 Q27.5373 490.869 26.3876 490.869 Q23.1638 490.869 20.5937 488.434 Q18.0237 485.977 18.0237 482.235 Q18.0237 477.996 20.5486 475.224 Q23.051 472.428 26.9737 472.428 Q28.3489 472.428 29.6114 472.856 Q30.8513 473.262 31.8207 473.826 Q32.7901 474.367 34.3456 475.855 Q35.9012 477.343 37.0058 478.537 Q38.1105 479.732 40.4551 482.415 L45.2119 487.307 L45.2119 478.988 Q45.2119 474.93 44.8512 474.615 Q44.1974 474.164 40.7482 473.6 L40.7482 472.428 L48.7739 473.736 L48.7739 490.869 Z" fill="#000000" fill-rule="nonzero" fill-opacity="1"></path><path clip-path="url(#clip210)" d="M74.0639 453.04 Q74.2443 453.04 74.9431 453.243 Q75.642 453.446 76.7241 453.942 Q77.8062 454.415 78.7982 455.092 Q79.7676 455.745 80.489 456.828 Q81.1878 457.887 81.1878 459.104 Q81.1878 460.728 80.1057 461.81 Q79.0236 462.892 77.4004 462.892 Q76.5212 462.892 74.853 462.283 Q67.233 459.42 64.5052 459.42 Q61.2814 459.42 61.2814 461.922 Q61.2814 463.343 61.8675 464.628 Q62.4537 465.913 63.2653 466.747 Q64.0769 467.581 65.0012 468.235 Q65.9255 468.889 66.5342 469.182 Q67.1429 469.452 67.4134 469.52 L78.5502 472.293 Q79.497 472.518 79.9479 472.676 Q80.3988 472.834 80.782 473.262 Q81.1878 473.691 81.1878 474.367 Q81.1878 474.93 80.8497 475.336 Q80.5115 475.719 79.9254 475.719 Q79.8352 475.719 79.3618 475.607 Q78.8883 475.494 78.2346 475.336 Q77.5808 475.178 77.1975 475.111 Q74.1315 474.299 73.7032 474.186 L68.3377 472.901 Q65.6775 472.203 64.5052 472.203 Q61.2814 472.203 61.2814 474.705 Q61.2814 475.945 61.7548 477.117 Q62.2057 478.267 62.8369 479.056 Q63.4682 479.845 64.3474 480.566 Q65.2041 481.265 65.7902 481.626 Q66.3538 481.964 66.9174 482.235 L69.2169 482.821 Q69.8482 482.956 72.3055 483.61 L76.4761 484.624 Q79.5872 485.346 79.8803 485.504 Q80.5115 485.729 80.8497 486.225 Q81.1878 486.721 81.1878 487.217 Q81.1878 487.781 80.8497 488.164 Q80.5115 488.547 79.9254 488.547 Q79.8352 488.547 79.497 488.479 Q79.1589 488.412 78.6854 488.299 Q78.212 488.186 77.9415 488.141 L67.2781 485.459 Q65.3393 484.963 64.7306 484.85 Q64.0994 484.715 63.4005 484.715 Q61.2814 484.715 61.2814 486.157 Q61.2814 487.33 62.6791 488.096 Q64.0769 488.863 66.7822 489.516 Q67.5261 489.719 67.6839 489.855 Q67.8417 489.967 67.8417 490.306 Q67.8192 490.869 67.3683 490.869 Q67.2556 490.869 66.5342 490.689 Q65.8128 490.508 64.7306 490.17 Q63.626 489.81 62.9046 489.426 Q62.4312 489.201 62.1155 488.998 Q61.7999 488.795 61.3039 488.389 Q60.808 487.983 60.5374 487.375 Q60.2669 486.766 60.2669 486.022 Q60.2669 484.376 61.3265 483.159 Q62.3861 481.919 64.2798 481.761 Q60.2669 478.763 60.2669 474.57 Q60.2669 472.203 61.4618 470.782 Q62.6115 469.452 64.7306 469.294 Q60.2669 466.183 60.2669 461.765 Q60.2669 459.217 61.597 457.842 Q62.9046 456.467 65.2041 456.467 Q66.3989 456.467 68.6759 457.076 Q70.9303 457.684 72.0575 458.09 Q73.1847 458.496 75.3489 459.285 Q77.423 460.119 78.6404 460.119 Q79.4294 460.119 79.7901 459.848 Q80.1508 459.578 80.1508 458.992 Q80.1508 458.09 79.6323 457.301 Q79.0912 456.512 78.212 455.948 Q77.3103 455.362 76.4085 454.979 Q75.4842 454.596 74.4472 454.303 Q73.8836 454.122 73.7483 454.032 Q73.613 453.919 73.613 453.604 Q73.613 453.04 74.0639 453.04 Z" fill="#000000" fill-rule="nonzero" fill-opacity="1"></path><path clip-path="url(#clip210)" d="M74.0639 429.021 Q76.9721 429.63 78.6404 430.419 Q81.1878 431.681 81.1878 433.823 Q81.1878 435.446 80.1959 436.596 Q79.204 437.745 77.7161 438.016 Q81.1878 440.969 81.1878 444.035 Q81.1878 446.741 79.1363 448.454 Q77.0623 450.167 73.7934 450.167 Q70.5019 450.167 67.3458 448.544 Q64.1896 446.898 62.2283 444.306 Q60.2669 441.713 60.2669 439.053 Q60.2669 436.235 63.2202 434.792 Q62.4086 434.679 61.7999 434.161 Q61.1912 433.642 61.1912 432.853 Q61.1912 432.245 61.5294 431.884 Q61.845 431.523 62.4312 431.523 Q62.7242 431.523 64.0092 431.839 L70.4569 433.507 L74.6275 434.522 Q76.1605 434.905 76.7241 435.018 Q77.2877 435.108 78.0317 435.108 Q80.1508 435.108 80.1508 433.733 Q80.1508 433.056 79.7225 432.515 Q79.2941 431.974 78.3924 431.546 Q77.4906 431.117 76.6565 430.847 Q75.7998 430.576 74.4472 430.216 Q73.9061 430.103 73.7708 430.013 Q73.613 429.9 73.613 429.584 Q73.613 429.021 74.0639 429.021 M65.3393 435.356 Q65.1364 435.356 64.5728 435.514 Q64.0092 435.671 63.2202 436.032 Q62.4312 436.393 61.8675 437.182 Q61.2814 437.948 61.2814 438.985 Q61.2814 440.383 62.4762 441.848 Q63.6711 443.291 65.7 444.351 Q67.3232 445.162 70.7274 446.042 Q74.1315 446.898 75.8223 446.898 Q76.8594 446.898 77.7837 446.673 Q78.6854 446.425 79.4294 445.726 Q80.1508 445.027 80.1508 443.945 Q80.1508 441.307 76.8819 438.715 Q76.3183 438.219 76.0929 438.106 Q75.8449 437.971 75.1686 437.791 L66.1284 435.491 Q65.4521 435.356 65.3393 435.356 Z" fill="#000000" fill-rule="nonzero" fill-opacity="1"></path><path clip-path="url(#clip210)" d="M63.3104 404.099 Q64.5728 404.099 65.2943 404.888 Q65.9931 405.677 65.9931 406.579 Q65.9931 407.435 65.4971 407.886 Q65.0012 408.337 64.3699 408.337 Q63.5133 408.337 62.7693 407.706 Q62.0254 407.075 61.8675 406.128 Q61.2814 407.052 61.2814 408.427 Q61.2814 409.329 61.7548 410.118 Q62.2283 410.885 62.8369 411.358 Q63.4456 411.809 64.3249 412.215 Q65.1815 412.598 65.7 412.756 Q66.196 412.891 66.7371 413.004 L73.0494 414.582 Q76.0478 415.348 77.1074 415.348 Q78.4149 415.348 79.2941 414.717 Q80.1508 414.086 80.1508 412.823 Q80.1508 412.327 80.0156 411.764 Q79.8577 411.2 79.4519 410.479 Q79.0236 409.735 78.3924 409.081 Q77.7386 408.405 76.6339 407.751 Q75.5293 407.097 74.109 406.669 Q73.613 406.534 73.613 406.083 Q73.613 405.519 74.0639 405.519 Q74.4472 405.519 75.2587 405.835 Q76.0478 406.128 77.0848 406.782 Q78.0993 407.413 79.0236 408.247 Q79.9254 409.081 80.5566 410.321 Q81.1878 411.561 81.1878 412.914 Q81.1878 414.852 80.1508 416.137 Q79.1138 417.422 77.671 417.896 Q77.8739 418.009 78.1444 418.166 Q78.4149 418.324 79.0236 418.798 Q79.6098 419.248 80.0606 419.767 Q80.489 420.286 80.8271 421.097 Q81.1878 421.886 81.1878 422.743 Q81.1878 423.825 80.8722 424.794 Q80.5566 425.741 79.8352 426.417 Q79.1138 427.094 78.1218 427.094 Q77.0172 427.094 76.2507 426.35 Q75.4616 425.583 75.4616 424.546 Q75.4616 423.893 75.8449 423.374 Q76.2281 422.833 77.0623 422.833 Q77.9866 422.833 78.6854 423.464 Q79.3843 424.095 79.5647 424.997 Q80.1508 424.073 80.1508 422.698 Q80.1508 421.21 78.8433 420.038 Q77.5357 418.865 75.3489 418.302 Q70.0961 416.904 67.7516 416.363 Q65.3844 415.822 64.3699 415.822 Q63.4231 415.822 62.7693 416.07 Q62.1155 416.318 61.8225 416.746 Q61.5068 417.152 61.3941 417.535 Q61.2814 417.896 61.2814 418.302 Q61.2814 418.978 61.5519 419.744 Q61.8225 420.488 62.4537 421.39 Q63.0624 422.269 64.3249 423.104 Q65.5873 423.938 67.3232 424.501 Q67.8417 424.614 67.8417 425.11 Q67.8192 425.651 67.3683 425.651 Q66.9851 425.651 66.196 425.358 Q65.3844 425.042 64.3699 424.411 Q63.3555 423.757 62.4537 422.923 Q61.5294 422.066 60.8982 420.827 Q60.2669 419.564 60.2669 418.211 Q60.2669 417.603 60.4022 417.017 Q60.5149 416.408 60.8531 415.687 Q61.1912 414.943 61.9352 414.289 Q62.6791 413.635 63.7613 413.229 Q63.2427 412.959 62.7468 412.598 Q62.2508 412.215 61.6421 411.629 Q61.0109 411.02 60.6502 410.186 Q60.2669 409.329 60.2669 408.382 Q60.2669 407.458 60.5149 406.556 Q60.7403 405.654 61.4843 404.888 Q62.2057 404.099 63.3104 404.099 Z" fill="#000000" fill-rule="nonzero" fill-opacity="1"></path><polyline clip-path="url(#clip212)" style="stroke:#000000; stroke-linecap:round; stroke-linejoin:round; stroke-width:4; stroke-opacity:1; fill:none" stroke-dasharray="2, 4" points="310.553,1300.99 330.58,1303.77 350.608,629.003 370.635,451.487 390.663,435.167 410.69,613.561 430.718,497.979 450.745,524.312 470.773,525.937 490.8,477.462 510.828,453.853 530.855,402.177 550.883,422.452 570.91,428.343 590.938,373.404 610.965,427.487 630.993,396.847 651.02,427.746 671.048,384.936 691.075,404.994 711.103,396.958 731.13,438.543 751.158,363.435 771.185,462.042 791.213,387.351 811.24,398.224 831.268,425.664 851.295,384.915 871.323,371.823 891.35,401.481 911.378,422.051 931.405,409.761 951.433,422.689 971.46,392.335 991.488,426.248 1011.51,415.077 1031.54,406.442 1051.57,391.584 1071.6,426.002 1091.62,405.681 1111.65,394.41 1131.68,416.733 1151.71,424.298 1171.73,410.202 1191.76,419.158 1211.79,400.128 1231.82,404.19 1251.84,411.743 1271.87,394.088 1291.9,439.839 1311.93,387.046 1331.95,413.652 1351.98,403.002 1372.01,414.034 1392.04,393.659 1412.06,410.035 1432.09,404.229 1452.12,414.301 1472.15,418.402 1492.17,410.857 1512.2,417.781 1532.23,412.725 1552.26,409.135 1572.28,416.863 1592.31,424.953 1612.34,431.457 1632.37,413.524 1652.39,412.622 1672.42,419.913 1692.45,426.233 1712.48,417.297 1732.5,418.528 1752.53,406.415 1772.56,408.383 1792.59,409.46 1812.61,406.448 1832.64,402.773 1852.67,425.002 1872.7,421.487 1892.72,425.704 1912.75,421.29 1932.78,397.662 1952.81,409.164 1972.83,405.573 1992.86,419.46 2012.89,413.785 2032.92,419.264 2052.94,420.205 2072.97,435.323 2093,433.063 2113.03,436.273 2133.05,417.24 2153.08,411.278 2173.11,433.891 2193.14,419.556 2213.16,432.477 2233.19,427.865 2253.22,426.124 2273.25,434.82 2293.27,417.024 "></polyline>
<polyline clip-path="url(#clip212)" style="stroke:#e26f46; stroke-linecap:round; stroke-linejoin:round; stroke-width:4; stroke-opacity:1; fill:none" stroke-dasharray="16, 10" points="310.553,1384.24 330.58,888.405 350.608,846.841 370.635,868.072 390.663,823.894 410.69,839.897 430.718,830.573 450.745,843.103 470.773,800.863 490.8,672.961 510.828,682.848 530.855,639.745 550.883,645.835 570.91,653.826 590.938,661.436 610.965,668.631 630.993,675.454 651.02,616.021 671.048,622.198 691.075,477.095 711.103,482.717 731.13,488.127 751.158,373.951 771.185,351.902 791.213,356.42 811.24,361.062 831.268,365.544 851.295,333.409 871.323,337.592 891.35,296.375 911.378,300.315 931.405,206.774 951.433,210.492 971.46,214.107 991.488,217.624 1011.51,203.39 1031.54,206.728 1051.57,209.983 1071.6,213.157 1091.62,216.224 1111.65,219.251 1131.68,222.211 1151.71,225.106 1171.73,227.937 1191.76,230.709 1211.79,233.423 1231.82,236.082 1251.84,238.688 1271.87,241.243 1291.9,243.733 1311.93,246.192 1331.95,248.605 1351.98,250.972 1372.01,253.299 1392.04,255.586 1412.06,176.36 1432.09,178.57 1452.12,180.742 1472.15,182.88 1492.17,184.983 1512.2,187.053 1532.23,189.09 1552.26,191.096 1572.28,193.072 1592.31,195.018 1612.34,196.936 1632.37,198.825 1652.39,200.687 1672.42,202.524 1692.45,204.335 1712.48,206.12 1732.5,207.883 1752.53,209.622 1772.56,211.338 1792.59,213.032 1812.61,214.705 1832.64,216.355 1852.67,217.653 1872.7,219.264 1892.72,220.855 1912.75,222.427 1932.78,177.929 1952.81,179.374 1972.83,180.891 1992.86,182.391 2012.89,183.874 2032.92,185.304 2052.94,186.754 2072.97,188.187 2093,189.606 2113.03,190.948 2133.05,192.336 2153.08,187.742 2173.11,189.099 2193.14,190.444 2213.16,144.637 2233.19,145.955 2253.22,147.26 2273.25,148.551 2293.27,149.831 "></polyline>
<polyline clip-path="url(#clip212)" style="stroke:#3da44d; stroke-linecap:round; stroke-linejoin:round; stroke-width:4; stroke-opacity:1; fill:none" stroke-dasharray="16, 10" points="310.553,901.364 330.58,914.68 350.608,762.223 370.635,738.421 390.663,667.623 410.69,683.177 430.718,597.145 450.745,577.464 470.773,583.633 490.8,592.065 510.828,563.657 530.855,572.371 550.883,580.959 570.91,588.097 590.938,553.69 610.965,529.314 630.993,471.931 651.02,475.989 671.048,481.01 691.075,486.811 711.103,490.279 731.13,466.521 751.158,471.698 771.185,476.58 791.213,481.34 811.24,276.741 831.268,243.973 851.295,248.304 871.323,252.497 891.35,229.723 911.378,233.638 931.405,237.454 951.433,241.083 971.46,244.695 991.488,248.025 1011.51,248.332 1031.54,251.66 1051.57,254.852 1071.6,258.009 1091.62,249.509 1111.65,252.147 1131.68,255.096 1151.71,212.186 1171.73,215.012 1191.76,217.762 1211.79,220.364 1231.82,223.022 1251.84,225.627 1271.87,228.179 1291.9,230.682 1311.93,233.137 1331.95,235.549 1351.98,237.918 1372.01,240.245 1392.04,242.532 1412.06,244.778 1432.09,246.985 1452.12,249.13 1472.15,249.278 1492.17,148.055 1512.2,150.118 1532.23,86.1857 1552.26,88.1903 1572.28,90.1643 1592.31,92.1059 1612.34,94.0225 1632.37,95.9056 1652.39,97.7632 1672.42,99.6001 1692.45,101.412 1712.48,103.198 1732.5,104.958 1752.53,106.679 1772.56,108.36 1792.59,110.053 1812.61,111.709 1832.64,113.36 1852.67,114.991 1872.7,116.598 1892.72,118.189 1912.75,119.761 1932.78,121.313 1952.81,122.843 1972.83,124.36 1992.86,125.859 2012.89,127.338 2032.92,128.803 2052.94,130.25 2072.97,131.684 2093,133.102 2113.03,134.503 2133.05,135.892 2153.08,137.264 2173.11,138.598 2193.14,139.943 2213.16,141.269 2233.19,142.586 2253.22,143.891 2273.25,123.468 2293.27,124.747 "></polyline>
<polyline clip-path="url(#clip212)" style="stroke:#c271d2; stroke-linecap:round; stroke-linejoin:round; stroke-width:4; stroke-opacity:1; fill:none" stroke-dasharray="16, 10" points="310.553,750.58 330.58,666.956 350.608,618.67 370.635,533.605 390.663,547.267 410.69,524.507 430.718,518.401 450.745,508.497 470.773,493.581 490.8,473.538 510.828,481.953 530.855,476.143 550.883,484.006 570.91,490.201 590.938,495.049 610.965,485.977 630.993,492.084 651.02,484.31 671.048,475.522 691.075,478.108 711.103,482.008 731.13,481.857 751.158,479.244 771.185,477.949 791.213,480.692 811.24,484.103 831.268,485.332 851.295,487.988 871.323,482.967 891.35,485.868 911.378,485.026 931.405,477.588 951.433,477.953 971.46,472.75 991.488,475.322 1011.51,477.171 1031.54,479.999 1051.57,482.262 1071.6,468.496 1091.62,470.366 1111.65,470.44 1131.68,469.468 1151.71,469.13 1171.73,470.909 1191.76,472.281 1211.79,473.645 1231.82,475.52 1251.84,477.36 1271.87,476.914 1291.9,478.008 1311.93,479.231 1331.95,474.714 1351.98,473.284 1372.01,475.069 1392.04,472.325 1412.06,473.955 1432.09,475.632 1452.12,476.688 1472.15,477.981 1492.17,476.47 1512.2,477.113 1532.23,478.409 1552.26,479.818 1572.28,473.493 1592.31,474.58 1612.34,470.104 1632.37,467.71 1652.39,468.708 1672.42,469.833 1692.45,470.966 1712.48,472.397 1732.5,472.874 1752.53,473.659 1772.56,471.367 1792.59,472.635 1812.61,473.572 1832.64,467.995 1852.67,469.016 1872.7,468.934 1892.72,469.405 1912.75,470.693 1932.78,469.901 1952.81,470.011 1972.83,470.763 1992.86,471.8 2012.89,471.981 2032.92,473.086 2052.94,473.107 2072.97,471.08 2093,469.57 2113.03,470.026 2133.05,469.099 2153.08,469.06 2173.11,469.732 2193.14,470.176 2213.16,470.296 2233.19,470.885 2253.22,470.505 2273.25,471.077 2293.27,471.92 "></polyline>
<polyline clip-path="url(#clip212)" style="stroke:#ac8d18; stroke-linecap:round; stroke-linejoin:round; stroke-width:4; stroke-opacity:1; fill:none" points="310.553,1145.58 330.58,1110.44 350.608,935.648 370.635,935.573 390.663,918.573 410.69,934.575 430.718,854.148 450.745,775.936 470.773,705.506 490.8,716.167 510.828,722.51 530.855,669.701 550.883,621.682 570.91,615.013 590.938,622.63 610.965,629.828 630.993,607.766 651.02,614.249 671.048,620.307 691.075,626.203 711.103,583.387 731.13,588.796 751.158,541.661 771.185,524.246 791.213,529.053 811.24,533.59 831.268,517.809 851.295,522.12 871.323,526.14 891.35,530.192 911.378,534.134 931.405,537.957 951.433,523.62 971.46,527.234 991.488,520.21 1011.51,523.633 1031.54,526.971 1051.57,457.543 1071.6,460.718 1091.62,425.285 1111.65,428.314 1131.68,431.274 1151.71,434.169 1171.73,437 1191.76,439.772 1211.79,402.807 1231.82,405.367 1251.84,407.973 1271.87,403.878 1291.9,396.698 1311.93,399.156 1331.95,401.57 1351.98,403.937 1372.01,367.155 1392.04,369.441 1412.06,371.689 1432.09,373.894 1452.12,376.066 1472.15,378.194 1492.17,380.297 1512.2,382.318 1532.23,384.355 1552.26,353.429 1572.28,355.405 1592.31,357.305 1612.34,359.222 1632.37,361.097 1652.39,362.942 1672.42,364.778 1692.45,343.272 1712.48,345.059 1732.5,346.822 1752.53,348.561 1772.56,350.268 1792.59,351.963 1812.61,328.484 1832.64,330.13 1852.67,331.761 1872.7,299.248 1892.72,300.839 1912.75,302.411 1932.78,303.961 1952.81,305.496 1972.83,307.013 1992.86,308.513 2012.89,287.708 2032.92,289.174 2052.94,290.624 2072.97,292.058 2093,293.477 2113.03,294.88 2133.05,243.233 2153.08,172.279 2173.11,173.639 2193.14,174.984 2213.16,176.316 2233.19,177.634 2253.22,178.939 2273.25,180.231 2293.27,181.511 "></polyline>
<polyline clip-path="url(#clip212)" style="stroke:#00a9ad; stroke-linecap:round; stroke-linejoin:round; stroke-width:4; stroke-opacity:1; fill:none" points="310.553,1305.04 330.58,1024.73 350.608,855.08 370.635,777.207 390.663,610.133 410.69,573.314 430.718,582.896 450.745,591.422 470.773,539.376 490.8,553.874 510.828,434.485 530.855,398.042 550.883,403.749 570.91,414.632 590.938,419.592 610.965,429.26 630.993,425.128 651.02,433.806 671.048,427.692 691.075,435.522 711.103,439.214 731.13,446.373 751.158,449.858 771.185,456.558 791.213,459.784 811.24,466.004 831.268,469.007 851.295,434.392 871.323,434.785 891.35,440.043 911.378,442.68 931.405,447.802 951.433,450.137 971.46,441.641 991.488,425.779 1011.51,422.229 1031.54,356.732 1051.57,361.047 1071.6,363.096 1091.62,367.241 1111.65,369.258 1131.68,373.195 1151.71,374.276 1171.73,336.517 1191.76,335.429 1211.79,336.232 1231.82,338.007 1251.84,341.484 1271.87,343.106 1291.9,346.412 1311.93,348.04 1331.95,351.224 1351.98,335.826 1372.01,338.938 1392.04,318.751 1412.06,321.754 1432.09,323.219 1452.12,325.906 1472.15,327.324 1492.17,330.135 1512.2,331.518 1532.23,334.189 1552.26,303.751 1572.28,306.381 1592.31,273.507 1612.34,276.07 1632.37,277.329 1652.39,279.815 1672.42,281.038 1692.45,283.418 1712.48,284.548 1732.5,286.855 1752.53,273.514 1772.56,268.958 1792.59,270.077 1812.61,272.166 1832.64,273.269 1852.67,275.448 1872.7,276.52 1892.72,278.644 1912.75,279.576 1932.78,281.596 1952.81,282.573 1972.83,284.592 1992.86,285.502 2012.89,281.596 2032.92,274.216 2052.94,276.149 2072.97,277.092 2093,278.984 2113.03,279.915 2133.05,281.76 2153.08,282.675 2173.11,284.456 2193.14,285.352 2213.16,286.143 2233.19,287.017 2253.22,288.76 2273.25,289.441 2293.27,291.122 "></polyline>
<polyline clip-path="url(#clip212)" style="stroke:#ed5d92; stroke-linecap:round; stroke-linejoin:round; stroke-width:4; stroke-opacity:1; fill:none" points="330.58,615.099 350.608,403.865 370.635,323.858 390.663,277.802 410.69,277.022 430.718,327.85 450.745,310.686 470.773,244.203 490.8,235.969 510.828,225.398 530.855,270.141 550.883,267.414 570.91,248.795 590.938,242.952 610.965,261.043 630.993,259.901 651.02,243.685 671.048,225.22 691.075,205.736 711.103,219.726 731.13,219.237 751.158,217.458 771.185,208.401 791.213,197.648 811.24,216.623 831.268,214.887 851.295,191.963 871.323,189.25 891.35,208.599 911.378,208.215 931.405,207.962 951.433,207.523 971.46,201.933 991.488,202.984 1011.51,202.343 1031.54,201.115 1051.57,200.669 1071.6,191.131 1091.62,203.313 1111.65,202.966 1131.68,202.729 1151.71,202.415 1171.73,215.838 1191.76,215.461 1211.79,215.249 1231.82,214.452 1251.84,213.743 1271.87,220.408 1291.9,220.254 1311.93,219.985 1331.95,219.82 1351.98,219.453 1372.01,230.478 1392.04,214.218 1412.06,213.401 1432.09,213.111 1452.12,223.441 1472.15,223.07 1492.17,208.81 1512.2,181.499 1532.23,181.435 1552.26,190.805 1572.28,190.402 1592.31,190.259 1612.34,190.093 1632.37,189.96 1652.39,198.713 1672.42,198.501 1692.45,197.646 1712.48,197.531 1732.5,205.704 1752.53,205.501 1772.56,205.277 1792.59,204.996 1812.61,204.743 1832.64,212.403 1852.67,212.043 1872.7,211.932 1892.72,211.595 1912.75,211.353 1932.78,218.683 1952.81,203.689 1972.83,203.188 1992.86,202.799 2012.89,208.813 2032.92,208.448 2052.94,207.624 2072.97,206.862 2093,206.243 2113.03,211.604 2133.05,211.456 2153.08,211.199 2173.11,210.97 2193.14,210.788 2213.16,216.392 2233.19,215.917 2253.22,209.158 2273.25,206.394 2293.27,209.479 "></polyline>
<path clip-path="url(#clip210)" d="M1786.38 1377.32 L2282.7 1377.32 L2282.7 962.595 L1786.38 962.595  Z" fill="#ffffff" fill-rule="evenodd" fill-opacity="1"></path>
<polyline clip-path="url(#clip210)" style="stroke:#000000; stroke-linecap:round; stroke-linejoin:round; stroke-width:4; stroke-opacity:1; fill:none" points="1786.38,1377.32 2282.7,1377.32 2282.7,962.595 1786.38,962.595 1786.38,1377.32 "></polyline>
<polyline clip-path="url(#clip210)" style="stroke:#000000; stroke-linecap:round; stroke-linejoin:round; stroke-width:4; stroke-opacity:1; fill:none" stroke-dasharray="2, 4" points="1809.73,1014.44 1949.84,1014.44 "></polyline>
<path clip-path="url(#clip210)" d="M1998.75 1026.78 L1998.75 1017.5 L1991.11 1017.5 L1991.11 1013.66 L2003.38 1013.66 L2003.38 1028.5 Q2000.67 1030.42 1997.4 1031.41 Q1994.14 1032.39 1990.44 1032.39 Q1982.34 1032.39 1977.75 1027.66 Q1973.19 1022.92 1973.19 1014.47 Q1973.19 1006 1977.75 1001.28 Q1982.34 996.53 1990.44 996.53 Q1993.82 996.53 1996.85 997.364 Q1999.9 998.197 2002.47 999.817 L2002.47 1004.79 Q1999.88 1002.6 1996.96 1001.48 Q1994.05 1000.37 1990.83 1000.37 Q1984.49 1000.37 1981.29 1003.91 Q1978.12 1007.46 1978.12 1014.47 Q1978.12 1021.46 1981.29 1025 Q1984.49 1028.54 1990.83 1028.54 Q1993.31 1028.54 1995.25 1028.13 Q1997.2 1027.69 1998.75 1026.78 Z" fill="#000000" fill-rule="nonzero" fill-opacity="1"></path><path clip-path="url(#clip210)" d="M2005.44 997.155 L2034.67 997.155 L2034.67 1001.09 L2022.4 1001.09 L2022.4 1031.72 L2017.71 1031.72 L2017.71 1001.09 L2005.44 1001.09 L2005.44 997.155 Z" fill="#000000" fill-rule="nonzero" fill-opacity="1"></path><path clip-path="url(#clip210)" d="M2033.56 997.155 L2062.8 997.155 L2062.8 1001.09 L2050.53 1001.09 L2050.53 1031.72 L2045.83 1031.72 L2045.83 1001.09 L2033.56 1001.09 L2033.56 997.155 Z" fill="#000000" fill-rule="nonzero" fill-opacity="1"></path><polyline clip-path="url(#clip210)" style="stroke:#e26f46; stroke-linecap:round; stroke-linejoin:round; stroke-width:4; stroke-opacity:1; fill:none" stroke-dasharray="16, 10" points="1809.73,1066.28 1949.84,1066.28 "></polyline>
<path clip-path="url(#clip210)" d="M1973.19 1049 L2002.43 1049 L2002.43 1052.93 L1990.16 1052.93 L1990.16 1083.56 L1985.46 1083.56 L1985.46 1052.93 L1973.19 1052.93 L1973.19 1049 Z" fill="#000000" fill-rule="nonzero" fill-opacity="1"></path><path clip-path="url(#clip210)" d="M2001.32 1049 L2030.55 1049 L2030.55 1052.93 L2018.28 1052.93 L2018.28 1083.56 L2013.59 1083.56 L2013.59 1052.93 L2001.32 1052.93 L2001.32 1049 Z" fill="#000000" fill-rule="nonzero" fill-opacity="1"></path><path clip-path="url(#clip210)" d="M2045.11 1047.58 Q2042.01 1052.91 2040.51 1058.12 Q2039 1063.32 2039 1068.67 Q2039 1074.02 2040.51 1079.27 Q2042.03 1084.5 2045.11 1089.81 L2041.41 1089.81 Q2037.94 1084.37 2036.2 1079.11 Q2034.49 1073.86 2034.49 1068.67 Q2034.49 1063.51 2036.2 1058.28 Q2037.91 1053.05 2041.41 1047.58 L2045.11 1047.58 Z" fill="#000000" fill-rule="nonzero" fill-opacity="1"></path><path clip-path="url(#clip210)" d="M2054.79 1079.62 L2062.43 1079.62 L2062.43 1053.25 L2054.12 1054.92 L2054.12 1050.66 L2062.38 1049 L2067.06 1049 L2067.06 1079.62 L2074.7 1079.62 L2074.7 1083.56 L2054.79 1083.56 L2054.79 1079.62 Z" fill="#000000" fill-rule="nonzero" fill-opacity="1"></path><path clip-path="url(#clip210)" d="M2082.87 1047.58 L2086.57 1047.58 Q2090.04 1053.05 2091.76 1058.28 Q2093.49 1063.51 2093.49 1068.67 Q2093.49 1073.86 2091.76 1079.11 Q2090.04 1084.37 2086.57 1089.81 L2082.87 1089.81 Q2085.95 1084.5 2087.45 1079.27 Q2088.98 1074.02 2088.98 1068.67 Q2088.98 1063.32 2087.45 1058.12 Q2085.95 1052.91 2082.87 1047.58 Z" fill="#000000" fill-rule="nonzero" fill-opacity="1"></path><polyline clip-path="url(#clip210)" style="stroke:#3da44d; stroke-linecap:round; stroke-linejoin:round; stroke-width:4; stroke-opacity:1; fill:none" stroke-dasharray="16, 10" points="1809.73,1118.12 1949.84,1118.12 "></polyline>
<path clip-path="url(#clip210)" d="M1973.19 1100.84 L2002.43 1100.84 L2002.43 1104.77 L1990.16 1104.77 L1990.16 1135.4 L1985.46 1135.4 L1985.46 1104.77 L1973.19 1104.77 L1973.19 1100.84 Z" fill="#000000" fill-rule="nonzero" fill-opacity="1"></path><path clip-path="url(#clip210)" d="M2001.32 1100.84 L2030.55 1100.84 L2030.55 1104.77 L2018.28 1104.77 L2018.28 1135.4 L2013.59 1135.4 L2013.59 1104.77 L2001.32 1104.77 L2001.32 1100.84 Z" fill="#000000" fill-rule="nonzero" fill-opacity="1"></path><path clip-path="url(#clip210)" d="M2045.11 1099.42 Q2042.01 1104.75 2040.51 1109.96 Q2039 1115.16 2039 1120.51 Q2039 1125.86 2040.51 1131.11 Q2042.03 1136.34 2045.11 1141.65 L2041.41 1141.65 Q2037.94 1136.21 2036.2 1130.95 Q2034.49 1125.7 2034.49 1120.51 Q2034.49 1115.35 2036.2 1110.12 Q2037.91 1104.89 2041.41 1099.42 L2045.11 1099.42 Z" fill="#000000" fill-rule="nonzero" fill-opacity="1"></path><path clip-path="url(#clip210)" d="M2058.01 1131.46 L2074.33 1131.46 L2074.33 1135.4 L2052.38 1135.4 L2052.38 1131.46 Q2055.04 1128.71 2059.63 1124.08 Q2064.23 1119.42 2065.41 1118.08 Q2067.66 1115.56 2068.54 1113.82 Q2069.44 1112.06 2069.44 1110.37 Q2069.44 1107.62 2067.5 1105.88 Q2065.58 1104.15 2062.47 1104.15 Q2060.27 1104.15 2057.82 1104.91 Q2055.39 1105.67 2052.61 1107.22 L2052.61 1102.5 Q2055.44 1101.37 2057.89 1100.79 Q2060.34 1100.21 2062.38 1100.21 Q2067.75 1100.21 2070.95 1102.9 Q2074.14 1105.58 2074.14 1110.07 Q2074.14 1112.2 2073.33 1114.12 Q2072.54 1116.02 2070.44 1118.61 Q2069.86 1119.28 2066.76 1122.5 Q2063.65 1125.7 2058.01 1131.46 Z" fill="#000000" fill-rule="nonzero" fill-opacity="1"></path><path clip-path="url(#clip210)" d="M2082.87 1099.42 L2086.57 1099.42 Q2090.04 1104.89 2091.76 1110.12 Q2093.49 1115.35 2093.49 1120.51 Q2093.49 1125.7 2091.76 1130.95 Q2090.04 1136.21 2086.57 1141.65 L2082.87 1141.65 Q2085.95 1136.34 2087.45 1131.11 Q2088.98 1125.86 2088.98 1120.51 Q2088.98 1115.16 2087.45 1109.96 Q2085.95 1104.75 2082.87 1099.42 Z" fill="#000000" fill-rule="nonzero" fill-opacity="1"></path><polyline clip-path="url(#clip210)" style="stroke:#c271d2; stroke-linecap:round; stroke-linejoin:round; stroke-width:4; stroke-opacity:1; fill:none" stroke-dasharray="16, 10" points="1809.73,1169.96 1949.84,1169.96 "></polyline>
<path clip-path="url(#clip210)" d="M1973.19 1152.68 L2002.43 1152.68 L2002.43 1156.61 L1990.16 1156.61 L1990.16 1187.24 L1985.46 1187.24 L1985.46 1156.61 L1973.19 1156.61 L1973.19 1152.68 Z" fill="#000000" fill-rule="nonzero" fill-opacity="1"></path><path clip-path="url(#clip210)" d="M2001.32 1152.68 L2030.55 1152.68 L2030.55 1156.61 L2018.28 1156.61 L2018.28 1187.24 L2013.59 1187.24 L2013.59 1156.61 L2001.32 1156.61 L2001.32 1152.68 Z" fill="#000000" fill-rule="nonzero" fill-opacity="1"></path><path clip-path="url(#clip210)" d="M2045.11 1151.26 Q2042.01 1156.59 2040.51 1161.8 Q2039 1167 2039 1172.35 Q2039 1177.7 2040.51 1182.95 Q2042.03 1188.18 2045.11 1193.49 L2041.41 1193.49 Q2037.94 1188.05 2036.2 1182.79 Q2034.49 1177.54 2034.49 1172.35 Q2034.49 1167.19 2036.2 1161.96 Q2037.91 1156.73 2041.41 1151.26 L2045.11 1151.26 Z" fill="#000000" fill-rule="nonzero" fill-opacity="1"></path><path clip-path="url(#clip210)" d="M2054.79 1183.3 L2062.43 1183.3 L2062.43 1156.93 L2054.12 1158.6 L2054.12 1154.34 L2062.38 1152.68 L2067.06 1152.68 L2067.06 1183.3 L2074.7 1183.3 L2074.7 1187.24 L2054.79 1187.24 L2054.79 1183.3 Z" fill="#000000" fill-rule="nonzero" fill-opacity="1"></path><path clip-path="url(#clip210)" d="M2096.99 1156.75 L2085.18 1175.2 L2096.99 1175.2 L2096.99 1156.75 M2095.76 1152.68 L2101.64 1152.68 L2101.64 1175.2 L2106.57 1175.2 L2106.57 1179.09 L2101.64 1179.09 L2101.64 1187.24 L2096.99 1187.24 L2096.99 1179.09 L2081.39 1179.09 L2081.39 1174.57 L2095.76 1152.68 Z" fill="#000000" fill-rule="nonzero" fill-opacity="1"></path><path clip-path="url(#clip210)" d="M2113.03 1151.26 L2116.73 1151.26 Q2120.2 1156.73 2121.92 1161.96 Q2123.65 1167.19 2123.65 1172.35 Q2123.65 1177.54 2121.92 1182.79 Q2120.2 1188.05 2116.73 1193.49 L2113.03 1193.49 Q2116.11 1188.18 2117.61 1182.95 Q2119.14 1177.7 2119.14 1172.35 Q2119.14 1167 2117.61 1161.8 Q2116.11 1156.59 2113.03 1151.26 Z" fill="#000000" fill-rule="nonzero" fill-opacity="1"></path><polyline clip-path="url(#clip210)" style="stroke:#ac8d18; stroke-linecap:round; stroke-linejoin:round; stroke-width:4; stroke-opacity:1; fill:none" points="1809.73,1221.8 1949.84,1221.8 "></polyline>
<path clip-path="url(#clip210)" d="M1973.19 1204.52 L2002.43 1204.52 L2002.43 1208.45 L1990.16 1208.45 L1990.16 1239.08 L1985.46 1239.08 L1985.46 1208.45 L1973.19 1208.45 L1973.19 1204.52 Z" fill="#000000" fill-rule="nonzero" fill-opacity="1"></path><path clip-path="url(#clip210)" d="M2001.32 1204.52 L2030.55 1204.52 L2030.55 1208.45 L2018.28 1208.45 L2018.28 1239.08 L2013.59 1239.08 L2013.59 1208.45 L2001.32 1208.45 L2001.32 1204.52 Z" fill="#000000" fill-rule="nonzero" fill-opacity="1"></path><path clip-path="url(#clip210)" d="M2045.11 1203.1 Q2042.01 1208.43 2040.51 1213.64 Q2039 1218.84 2039 1224.19 Q2039 1229.54 2040.51 1234.79 Q2042.03 1240.02 2045.11 1245.33 L2041.41 1245.33 Q2037.94 1239.89 2036.2 1234.63 Q2034.49 1229.38 2034.49 1224.19 Q2034.49 1219.03 2036.2 1213.8 Q2037.91 1208.57 2041.41 1203.1 L2045.11 1203.1 Z" fill="#000000" fill-rule="nonzero" fill-opacity="1"></path><path clip-path="url(#clip210)" d="M2068.15 1220.44 Q2071.5 1221.16 2073.38 1223.43 Q2075.27 1225.7 2075.27 1229.03 Q2075.27 1234.14 2071.76 1236.95 Q2068.24 1239.75 2061.76 1239.75 Q2059.58 1239.75 2057.27 1239.31 Q2054.97 1238.89 2052.52 1238.03 L2052.52 1233.52 Q2054.46 1234.65 2056.78 1235.23 Q2059.09 1235.81 2061.62 1235.81 Q2066.02 1235.81 2068.31 1234.08 Q2070.62 1232.34 2070.62 1229.03 Q2070.62 1225.97 2068.47 1224.26 Q2066.34 1222.52 2062.52 1222.52 L2058.49 1222.52 L2058.49 1218.68 L2062.71 1218.68 Q2066.15 1218.68 2067.98 1217.32 Q2069.81 1215.93 2069.81 1213.33 Q2069.81 1210.67 2067.91 1209.26 Q2066.04 1207.83 2062.52 1207.83 Q2060.6 1207.83 2058.4 1208.24 Q2056.2 1208.66 2053.56 1209.54 L2053.56 1205.37 Q2056.22 1204.63 2058.54 1204.26 Q2060.88 1203.89 2062.94 1203.89 Q2068.26 1203.89 2071.36 1206.32 Q2074.46 1208.73 2074.46 1212.85 Q2074.46 1215.72 2072.82 1217.71 Q2071.18 1219.68 2068.15 1220.44 Z" fill="#000000" fill-rule="nonzero" fill-opacity="1"></path><path clip-path="url(#clip210)" d="M2094.14 1207.59 Q2090.53 1207.59 2088.7 1211.16 Q2086.89 1214.7 2086.89 1221.83 Q2086.89 1228.94 2088.7 1232.5 Q2090.53 1236.04 2094.14 1236.04 Q2097.77 1236.04 2099.58 1232.5 Q2101.41 1228.94 2101.41 1221.83 Q2101.41 1214.7 2099.58 1211.16 Q2097.77 1207.59 2094.14 1207.59 M2094.14 1203.89 Q2099.95 1203.89 2103.01 1208.5 Q2106.08 1213.08 2106.08 1221.83 Q2106.08 1230.56 2103.01 1235.16 Q2099.95 1239.75 2094.14 1239.75 Q2088.33 1239.75 2085.25 1235.16 Q2082.2 1230.56 2082.2 1221.83 Q2082.2 1213.08 2085.25 1208.5 Q2088.33 1203.89 2094.14 1203.89 Z" fill="#000000" fill-rule="nonzero" fill-opacity="1"></path><path clip-path="url(#clip210)" d="M2124.3 1222.66 Q2120.97 1222.66 2119.05 1224.45 Q2117.15 1226.23 2117.15 1229.35 Q2117.15 1232.48 2119.05 1234.26 Q2120.97 1236.04 2124.3 1236.04 Q2127.64 1236.04 2129.56 1234.26 Q2131.48 1232.45 2131.48 1229.35 Q2131.48 1226.23 2129.56 1224.45 Q2127.66 1222.66 2124.3 1222.66 M2119.63 1220.67 Q2116.62 1219.93 2114.93 1217.87 Q2113.26 1215.81 2113.26 1212.85 Q2113.26 1208.71 2116.2 1206.3 Q2119.16 1203.89 2124.3 1203.89 Q2129.46 1203.89 2132.4 1206.3 Q2135.34 1208.71 2135.34 1212.85 Q2135.34 1215.81 2133.65 1217.87 Q2131.99 1219.93 2129 1220.67 Q2132.38 1221.46 2134.26 1223.75 Q2136.15 1226.04 2136.15 1229.35 Q2136.15 1234.38 2133.08 1237.06 Q2130.02 1239.75 2124.3 1239.75 Q2118.58 1239.75 2115.51 1237.06 Q2112.45 1234.38 2112.45 1229.35 Q2112.45 1226.04 2114.35 1223.75 Q2116.25 1221.46 2119.63 1220.67 M2117.91 1213.29 Q2117.91 1215.97 2119.58 1217.48 Q2121.27 1218.98 2124.3 1218.98 Q2127.31 1218.98 2129 1217.48 Q2130.71 1215.97 2130.71 1213.29 Q2130.71 1210.6 2129 1209.1 Q2127.31 1207.59 2124.3 1207.59 Q2121.27 1207.59 2119.58 1209.1 Q2117.91 1210.6 2117.91 1213.29 Z" fill="#000000" fill-rule="nonzero" fill-opacity="1"></path><path clip-path="url(#clip210)" d="M2144.46 1233.2 L2149.35 1233.2 L2149.35 1239.08 L2144.46 1239.08 L2144.46 1233.2 Z" fill="#000000" fill-rule="nonzero" fill-opacity="1"></path><path clip-path="url(#clip210)" d="M2169.53 1207.59 Q2165.92 1207.59 2164.09 1211.16 Q2162.29 1214.7 2162.29 1221.83 Q2162.29 1228.94 2164.09 1232.5 Q2165.92 1236.04 2169.53 1236.04 Q2173.17 1236.04 2174.97 1232.5 Q2176.8 1228.94 2176.8 1221.83 Q2176.8 1214.7 2174.97 1211.16 Q2173.17 1207.59 2169.53 1207.59 M2169.53 1203.89 Q2175.34 1203.89 2178.4 1208.5 Q2181.48 1213.08 2181.48 1221.83 Q2181.48 1230.56 2178.4 1235.16 Q2175.34 1239.75 2169.53 1239.75 Q2163.72 1239.75 2160.64 1235.16 Q2157.59 1230.56 2157.59 1221.83 Q2157.59 1213.08 2160.64 1208.5 Q2163.72 1203.89 2169.53 1203.89 Z" fill="#000000" fill-rule="nonzero" fill-opacity="1"></path><path clip-path="url(#clip210)" d="M2190.18 1233.2 L2195.07 1233.2 L2195.07 1237.18 L2191.27 1244.58 L2188.28 1244.58 L2190.18 1237.18 L2190.18 1233.2 Z" fill="#000000" fill-rule="nonzero" fill-opacity="1"></path><path clip-path="url(#clip210)" d="M2220.64 1235.14 L2228.28 1235.14 L2228.28 1208.77 L2219.97 1210.44 L2219.97 1206.18 L2228.24 1204.52 L2232.91 1204.52 L2232.91 1235.14 L2240.55 1235.14 L2240.55 1239.08 L2220.64 1239.08 L2220.64 1235.14 Z" fill="#000000" fill-rule="nonzero" fill-opacity="1"></path><path clip-path="url(#clip210)" d="M2248.72 1203.1 L2252.43 1203.1 Q2255.9 1208.57 2257.61 1213.8 Q2259.35 1219.03 2259.35 1224.19 Q2259.35 1229.38 2257.61 1234.63 Q2255.9 1239.89 2252.43 1245.33 L2248.72 1245.33 Q2251.8 1240.02 2253.31 1234.79 Q2254.83 1229.54 2254.83 1224.19 Q2254.83 1218.84 2253.31 1213.64 Q2251.8 1208.43 2248.72 1203.1 Z" fill="#000000" fill-rule="nonzero" fill-opacity="1"></path><polyline clip-path="url(#clip210)" style="stroke:#00a9ad; stroke-linecap:round; stroke-linejoin:round; stroke-width:4; stroke-opacity:1; fill:none" points="1809.73,1273.64 1949.84,1273.64 "></polyline>
<path clip-path="url(#clip210)" d="M1973.19 1256.36 L2002.43 1256.36 L2002.43 1260.29 L1990.16 1260.29 L1990.16 1290.92 L1985.46 1290.92 L1985.46 1260.29 L1973.19 1260.29 L1973.19 1256.36 Z" fill="#000000" fill-rule="nonzero" fill-opacity="1"></path><path clip-path="url(#clip210)" d="M2001.32 1256.36 L2030.55 1256.36 L2030.55 1260.29 L2018.28 1260.29 L2018.28 1290.92 L2013.59 1290.92 L2013.59 1260.29 L2001.32 1260.29 L2001.32 1256.36 Z" fill="#000000" fill-rule="nonzero" fill-opacity="1"></path><path clip-path="url(#clip210)" d="M2045.11 1254.94 Q2042.01 1260.27 2040.51 1265.48 Q2039 1270.68 2039 1276.03 Q2039 1281.38 2040.51 1286.63 Q2042.03 1291.86 2045.11 1297.17 L2041.41 1297.17 Q2037.94 1291.73 2036.2 1286.47 Q2034.49 1281.22 2034.49 1276.03 Q2034.49 1270.87 2036.2 1265.64 Q2037.91 1260.41 2041.41 1254.94 L2045.11 1254.94 Z" fill="#000000" fill-rule="nonzero" fill-opacity="1"></path><path clip-path="url(#clip210)" d="M2054.79 1286.98 L2062.43 1286.98 L2062.43 1260.61 L2054.12 1262.28 L2054.12 1258.02 L2062.38 1256.36 L2067.06 1256.36 L2067.06 1286.98 L2074.7 1286.98 L2074.7 1290.92 L2054.79 1290.92 L2054.79 1286.98 Z" fill="#000000" fill-rule="nonzero" fill-opacity="1"></path><path clip-path="url(#clip210)" d="M2084.19 1256.36 L2102.54 1256.36 L2102.54 1260.29 L2088.47 1260.29 L2088.47 1268.76 Q2089.49 1268.42 2090.51 1268.25 Q2091.52 1268.07 2092.54 1268.07 Q2098.33 1268.07 2101.71 1271.24 Q2105.09 1274.41 2105.09 1279.83 Q2105.09 1285.41 2101.62 1288.51 Q2098.14 1291.59 2091.83 1291.59 Q2089.65 1291.59 2087.38 1291.22 Q2085.14 1290.85 2082.73 1290.11 L2082.73 1285.41 Q2084.81 1286.54 2087.03 1287.1 Q2089.26 1287.65 2091.73 1287.65 Q2095.74 1287.65 2098.08 1285.54 Q2100.41 1283.44 2100.41 1279.83 Q2100.41 1276.22 2098.08 1274.11 Q2095.74 1272 2091.73 1272 Q2089.86 1272 2087.98 1272.42 Q2086.13 1272.84 2084.19 1273.72 L2084.19 1256.36 Z" fill="#000000" fill-rule="nonzero" fill-opacity="1"></path><path clip-path="url(#clip210)" d="M2127.15 1260.43 L2115.34 1278.88 L2127.15 1278.88 L2127.15 1260.43 M2125.92 1256.36 L2131.8 1256.36 L2131.8 1278.88 L2136.73 1278.88 L2136.73 1282.77 L2131.8 1282.77 L2131.8 1290.92 L2127.15 1290.92 L2127.15 1282.77 L2111.55 1282.77 L2111.55 1278.25 L2125.92 1256.36 Z" fill="#000000" fill-rule="nonzero" fill-opacity="1"></path><path clip-path="url(#clip210)" d="M2144.46 1285.04 L2149.35 1285.04 L2149.35 1290.92 L2144.46 1290.92 L2144.46 1285.04 Z" fill="#000000" fill-rule="nonzero" fill-opacity="1"></path><path clip-path="url(#clip210)" d="M2169.53 1259.43 Q2165.92 1259.43 2164.09 1263 Q2162.29 1266.54 2162.29 1273.67 Q2162.29 1280.78 2164.09 1284.34 Q2165.92 1287.88 2169.53 1287.88 Q2173.17 1287.88 2174.97 1284.34 Q2176.8 1280.78 2176.8 1273.67 Q2176.8 1266.54 2174.97 1263 Q2173.17 1259.43 2169.53 1259.43 M2169.53 1255.73 Q2175.34 1255.73 2178.4 1260.34 Q2181.48 1264.92 2181.48 1273.67 Q2181.48 1282.4 2178.4 1287 Q2175.34 1291.59 2169.53 1291.59 Q2163.72 1291.59 2160.64 1287 Q2157.59 1282.4 2157.59 1273.67 Q2157.59 1264.92 2160.64 1260.34 Q2163.72 1255.73 2169.53 1255.73 Z" fill="#000000" fill-rule="nonzero" fill-opacity="1"></path><path clip-path="url(#clip210)" d="M2190.18 1285.04 L2195.07 1285.04 L2195.07 1289.02 L2191.27 1296.42 L2188.28 1296.42 L2190.18 1289.02 L2190.18 1285.04 Z" fill="#000000" fill-rule="nonzero" fill-opacity="1"></path><path clip-path="url(#clip210)" d="M2223.86 1286.98 L2240.18 1286.98 L2240.18 1290.92 L2218.24 1290.92 L2218.24 1286.98 Q2220.9 1284.23 2225.48 1279.6 Q2230.09 1274.94 2231.27 1273.6 Q2233.51 1271.08 2234.39 1269.34 Q2235.3 1267.58 2235.3 1265.89 Q2235.3 1263.14 2233.35 1261.4 Q2231.43 1259.67 2228.33 1259.67 Q2226.13 1259.67 2223.68 1260.43 Q2221.25 1261.19 2218.47 1262.74 L2218.47 1258.02 Q2221.29 1256.89 2223.75 1256.31 Q2226.2 1255.73 2228.24 1255.73 Q2233.61 1255.73 2236.8 1258.42 Q2240 1261.1 2240 1265.59 Q2240 1267.72 2239.19 1269.64 Q2238.4 1271.54 2236.29 1274.13 Q2235.71 1274.8 2232.61 1278.02 Q2229.51 1281.22 2223.86 1286.98 Z" fill="#000000" fill-rule="nonzero" fill-opacity="1"></path><path clip-path="url(#clip210)" d="M2248.72 1254.94 L2252.43 1254.94 Q2255.9 1260.41 2257.61 1265.64 Q2259.35 1270.87 2259.35 1276.03 Q2259.35 1281.22 2257.61 1286.47 Q2255.9 1291.73 2252.43 1297.17 L2248.72 1297.17 Q2251.8 1291.86 2253.31 1286.63 Q2254.83 1281.38 2254.83 1276.03 Q2254.83 1270.68 2253.31 1265.48 Q2251.8 1260.27 2248.72 1254.94 Z" fill="#000000" fill-rule="nonzero" fill-opacity="1"></path><polyline clip-path="url(#clip210)" style="stroke:#ed5d92; stroke-linecap:round; stroke-linejoin:round; stroke-width:4; stroke-opacity:1; fill:none" points="1809.73,1325.48 1949.84,1325.48 "></polyline>
<path clip-path="url(#clip210)" d="M1973.19 1308.2 L2002.43 1308.2 L2002.43 1312.13 L1990.16 1312.13 L1990.16 1342.76 L1985.46 1342.76 L1985.46 1312.13 L1973.19 1312.13 L1973.19 1308.2 Z" fill="#000000" fill-rule="nonzero" fill-opacity="1"></path><path clip-path="url(#clip210)" d="M2001.32 1308.2 L2030.55 1308.2 L2030.55 1312.13 L2018.28 1312.13 L2018.28 1342.76 L2013.59 1342.76 L2013.59 1312.13 L2001.32 1312.13 L2001.32 1308.2 Z" fill="#000000" fill-rule="nonzero" fill-opacity="1"></path><path clip-path="url(#clip210)" d="M2045.11 1306.78 Q2042.01 1312.11 2040.51 1317.32 Q2039 1322.52 2039 1327.87 Q2039 1333.22 2040.51 1338.47 Q2042.03 1343.7 2045.11 1349.01 L2041.41 1349.01 Q2037.94 1343.57 2036.2 1338.31 Q2034.49 1333.06 2034.49 1327.87 Q2034.49 1322.71 2036.2 1317.48 Q2037.91 1312.25 2041.41 1306.78 L2045.11 1306.78 Z" fill="#000000" fill-rule="nonzero" fill-opacity="1"></path><path clip-path="url(#clip210)" d="M2058.01 1338.82 L2074.33 1338.82 L2074.33 1342.76 L2052.38 1342.76 L2052.38 1338.82 Q2055.04 1336.07 2059.63 1331.44 Q2064.23 1326.78 2065.41 1325.44 Q2067.66 1322.92 2068.54 1321.18 Q2069.44 1319.42 2069.44 1317.73 Q2069.44 1314.98 2067.5 1313.24 Q2065.58 1311.51 2062.47 1311.51 Q2060.27 1311.51 2057.82 1312.27 Q2055.39 1313.03 2052.61 1314.58 L2052.61 1309.86 Q2055.44 1308.73 2057.89 1308.15 Q2060.34 1307.57 2062.38 1307.57 Q2067.75 1307.57 2070.95 1310.26 Q2074.14 1312.94 2074.14 1317.43 Q2074.14 1319.56 2073.33 1321.48 Q2072.54 1323.38 2070.44 1325.97 Q2069.86 1326.64 2066.76 1329.86 Q2063.65 1333.06 2058.01 1338.82 Z" fill="#000000" fill-rule="nonzero" fill-opacity="1"></path><path clip-path="url(#clip210)" d="M2088.17 1338.82 L2104.49 1338.82 L2104.49 1342.76 L2082.54 1342.76 L2082.54 1338.82 Q2085.21 1336.07 2089.79 1331.44 Q2094.39 1326.78 2095.58 1325.44 Q2097.82 1322.92 2098.7 1321.18 Q2099.6 1319.42 2099.6 1317.73 Q2099.6 1314.98 2097.66 1313.24 Q2095.74 1311.51 2092.64 1311.51 Q2090.44 1311.51 2087.98 1312.27 Q2085.55 1313.03 2082.77 1314.58 L2082.77 1309.86 Q2085.6 1308.73 2088.05 1308.15 Q2090.51 1307.57 2092.54 1307.57 Q2097.91 1307.57 2101.11 1310.26 Q2104.3 1312.94 2104.3 1317.43 Q2104.3 1319.56 2103.49 1321.48 Q2102.71 1323.38 2100.6 1325.97 Q2100.02 1326.64 2096.92 1329.86 Q2093.82 1333.06 2088.17 1338.82 Z" fill="#000000" fill-rule="nonzero" fill-opacity="1"></path><path clip-path="url(#clip210)" d="M2114.3 1336.88 L2119.19 1336.88 L2119.19 1342.76 L2114.3 1342.76 L2114.3 1336.88 Z" fill="#000000" fill-rule="nonzero" fill-opacity="1"></path><path clip-path="url(#clip210)" d="M2139.37 1311.27 Q2135.76 1311.27 2133.93 1314.84 Q2132.13 1318.38 2132.13 1325.51 Q2132.13 1332.62 2133.93 1336.18 Q2135.76 1339.72 2139.37 1339.72 Q2143.01 1339.72 2144.81 1336.18 Q2146.64 1332.62 2146.64 1325.51 Q2146.64 1318.38 2144.81 1314.84 Q2143.01 1311.27 2139.37 1311.27 M2139.37 1307.57 Q2145.18 1307.57 2148.24 1312.18 Q2151.32 1316.76 2151.32 1325.51 Q2151.32 1334.24 2148.24 1338.84 Q2145.18 1343.43 2139.37 1343.43 Q2133.56 1343.43 2130.48 1338.84 Q2127.43 1334.24 2127.43 1325.51 Q2127.43 1316.76 2130.48 1312.18 Q2133.56 1307.57 2139.37 1307.57 Z" fill="#000000" fill-rule="nonzero" fill-opacity="1"></path><path clip-path="url(#clip210)" d="M2160.02 1336.88 L2164.9 1336.88 L2164.9 1340.86 L2161.11 1348.26 L2158.12 1348.26 L2160.02 1340.86 L2160.02 1336.88 Z" fill="#000000" fill-rule="nonzero" fill-opacity="1"></path><path clip-path="url(#clip210)" d="M2190.48 1338.82 L2198.12 1338.82 L2198.12 1312.45 L2189.81 1314.12 L2189.81 1309.86 L2198.07 1308.2 L2202.75 1308.2 L2202.75 1338.82 L2210.39 1338.82 L2210.39 1342.76 L2190.48 1342.76 L2190.48 1338.82 Z" fill="#000000" fill-rule="nonzero" fill-opacity="1"></path><path clip-path="url(#clip210)" d="M2232.68 1312.27 L2220.88 1330.72 L2232.68 1330.72 L2232.68 1312.27 M2231.45 1308.2 L2237.33 1308.2 L2237.33 1330.72 L2242.26 1330.72 L2242.26 1334.61 L2237.33 1334.61 L2237.33 1342.76 L2232.68 1342.76 L2232.68 1334.61 L2217.08 1334.61 L2217.08 1330.09 L2231.45 1308.2 Z" fill="#000000" fill-rule="nonzero" fill-opacity="1"></path><path clip-path="url(#clip210)" d="M2248.72 1306.78 L2252.43 1306.78 Q2255.9 1312.25 2257.61 1317.48 Q2259.35 1322.71 2259.35 1327.87 Q2259.35 1333.06 2257.61 1338.31 Q2255.9 1343.57 2252.43 1349.01 L2248.72 1349.01 Q2251.8 1343.7 2253.31 1338.47 Q2254.83 1333.22 2254.83 1327.87 Q2254.83 1322.52 2253.31 1317.32 Q2251.8 1312.11 2248.72 1306.78 Z" fill="#000000" fill-rule="nonzero" fill-opacity="1"></path></svg>