<svg xmlns="http://www.w3.org/2000/svg" xmlns:xlink="http://www.w3.org/1999/xlink" width="600" height="400" viewBox="0 0 2400 1600">
<defs>
  <clipPath id="clip370">
    <rect x="0" y="0" width="2400" height="1600"></rect>
  </clipPath>
</defs>
<path clip-path="url(#clip370)" d="M0 1600 L2400 1600 L2400 0 L0 0  Z" fill="#ffffff" fill-rule="evenodd" fill-opacity="1"></path>
<defs>
  <clipPath id="clip371">
    <rect x="480" y="0" width="1681" height="1600"></rect>
  </clipPath>
</defs>
<path clip-path="url(#clip370)" d="M221.637 1423.18 L2352.76 1423.18 L2352.76 47.2441 L221.637 47.2441  Z" fill="#ffffff" fill-rule="evenodd" fill-opacity="1"></path>
<defs>
  <clipPath id="clip372">
    <rect x="221" y="47" width="2132" height="1377"></rect>
  </clipPath>
</defs>
<polyline clip-path="url(#clip372)" style="stroke:#000000; stroke-linecap:round; stroke-linejoin:round; stroke-width:2; stroke-opacity:0.1; fill:none" points="261.644,1423.18 261.644,47.2441 "></polyline>
<polyline clip-path="url(#clip372)" style="stroke:#000000; stroke-linecap:round; stroke-linejoin:round; stroke-width:2; stroke-opacity:0.1; fill:none" points="769.343,1423.18 769.343,47.2441 "></polyline>
<polyline clip-path="url(#clip372)" style="stroke:#000000; stroke-linecap:round; stroke-linejoin:round; stroke-width:2; stroke-opacity:0.1; fill:none" points="1277.04,1423.18 1277.04,47.2441 "></polyline>
<polyline clip-path="url(#clip372)" style="stroke:#000000; stroke-linecap:round; stroke-linejoin:round; stroke-width:2; stroke-opacity:0.1; fill:none" points="1784.74,1423.18 1784.74,47.2441 "></polyline>
<polyline clip-path="url(#clip372)" style="stroke:#000000; stroke-linecap:round; stroke-linejoin:round; stroke-width:2; stroke-opacity:0.1; fill:none" points="2292.44,1423.18 2292.44,47.2441 "></polyline>
<polyline clip-path="url(#clip372)" style="stroke:#000000; stroke-linecap:round; stroke-linejoin:round; stroke-width:2; stroke-opacity:0.1; fill:none" points="221.637,1044.45 2352.76,1044.45 "></polyline>
<polyline clip-path="url(#clip372)" style="stroke:#000000; stroke-linecap:round; stroke-linejoin:round; stroke-width:2; stroke-opacity:0.1; fill:none" points="221.637,286.729 2352.76,286.729 "></polyline>
<polyline clip-path="url(#clip370)" style="stroke:#000000; stroke-linecap:round; stroke-linejoin:round; stroke-width:4; stroke-opacity:1; fill:none" points="221.637,1423.18 2352.76,1423.18 "></polyline>
<polyline clip-path="url(#clip370)" style="stroke:#000000; stroke-linecap:round; stroke-linejoin:round; stroke-width:4; stroke-opacity:1; fill:none" points="261.644,1423.18 261.644,1404.28 "></polyline>
<polyline clip-path="url(#clip370)" style="stroke:#000000; stroke-linecap:round; stroke-linejoin:round; stroke-width:4; stroke-opacity:1; fill:none" points="769.343,1423.18 769.343,1404.28 "></polyline>
<polyline clip-path="url(#clip370)" style="stroke:#000000; stroke-linecap:round; stroke-linejoin:round; stroke-width:4; stroke-opacity:1; fill:none" points="1277.04,1423.18 1277.04,1404.28 "></polyline>
<polyline clip-path="url(#clip370)" style="stroke:#000000; stroke-linecap:round; stroke-linejoin:round; stroke-width:4; stroke-opacity:1; fill:none" points="1784.74,1423.18 1784.74,1404.28 "></polyline>
<polyline clip-path="url(#clip370)" style="stroke:#000000; stroke-linecap:round; stroke-linejoin:round; stroke-width:4; stroke-opacity:1; fill:none" points="2292.44,1423.18 2292.44,1404.28 "></polyline>
<path clip-path="url(#clip370)" d="M261.644 1454.1 Q258.033 1454.1 256.204 1457.66 Q254.398 1461.2 254.398 1468.33 Q254.398 1475.44 256.204 1479.01 Q258.033 1482.55 261.644 1482.55 Q265.278 1482.55 267.084 1479.01 Q268.912 1475.44 268.912 1468.33 Q268.912 1461.2 267.084 1457.66 Q265.278 1454.1 261.644 1454.1 M261.644 1450.39 Q267.454 1450.39 270.509 1455 Q273.588 1459.58 273.588 1468.33 Q273.588 1477.06 270.509 1481.67 Q267.454 1486.25 261.644 1486.25 Q255.834 1486.25 252.755 1481.67 Q249.699 1477.06 249.699 1468.33 Q249.699 1459.58 252.755 1455 Q255.834 1450.39 261.644 1450.39 Z" fill="#000000" fill-rule="nonzero" fill-opacity="1"></path><path clip-path="url(#clip370)" d="M748.614 1481.64 L764.933 1481.64 L764.933 1485.58 L742.989 1485.58 L742.989 1481.64 Q745.651 1478.89 750.234 1474.26 Q754.841 1469.61 756.021 1468.27 Q758.267 1465.74 759.146 1464.01 Q760.049 1462.25 760.049 1460.56 Q760.049 1457.8 758.105 1456.07 Q756.184 1454.33 753.082 1454.33 Q750.883 1454.33 748.429 1455.09 Q745.998 1455.86 743.221 1457.41 L743.221 1452.69 Q746.045 1451.55 748.498 1450.97 Q750.952 1450.39 752.989 1450.39 Q758.359 1450.39 761.554 1453.08 Q764.748 1455.77 764.748 1460.26 Q764.748 1462.39 763.938 1464.31 Q763.151 1466.2 761.045 1468.8 Q760.466 1469.47 757.364 1472.69 Q754.262 1475.88 748.614 1481.64 Z" fill="#000000" fill-rule="nonzero" fill-opacity="1"></path><path clip-path="url(#clip370)" d="M774.795 1451.02 L793.151 1451.02 L793.151 1454.96 L779.077 1454.96 L779.077 1463.43 Q780.095 1463.08 781.114 1462.92 Q782.132 1462.73 783.151 1462.73 Q788.938 1462.73 792.318 1465.9 Q795.697 1469.08 795.697 1474.49 Q795.697 1480.07 792.225 1483.17 Q788.753 1486.25 782.433 1486.25 Q780.257 1486.25 777.989 1485.88 Q775.744 1485.51 773.336 1484.77 L773.336 1480.07 Q775.42 1481.2 777.642 1481.76 Q779.864 1482.32 782.341 1482.32 Q786.345 1482.32 788.683 1480.21 Q791.021 1478.1 791.021 1474.49 Q791.021 1470.88 788.683 1468.77 Q786.345 1466.67 782.341 1466.67 Q780.466 1466.67 778.591 1467.08 Q776.739 1467.5 774.795 1468.38 L774.795 1451.02 Z" fill="#000000" fill-rule="nonzero" fill-opacity="1"></path><path clip-path="url(#clip370)" d="M1251.74 1451.02 L1270.1 1451.02 L1270.1 1454.96 L1256.02 1454.96 L1256.02 1463.43 Q1257.04 1463.08 1258.06 1462.92 Q1259.08 1462.73 1260.1 1462.73 Q1265.89 1462.73 1269.26 1465.9 Q1272.64 1469.08 1272.64 1474.49 Q1272.64 1480.07 1269.17 1483.17 Q1265.7 1486.25 1259.38 1486.25 Q1257.2 1486.25 1254.94 1485.88 Q1252.69 1485.51 1250.28 1484.77 L1250.28 1480.07 Q1252.37 1481.2 1254.59 1481.76 Q1256.81 1482.32 1259.29 1482.32 Q1263.29 1482.32 1265.63 1480.21 Q1267.97 1478.1 1267.97 1474.49 Q1267.97 1470.88 1265.63 1468.77 Q1263.29 1466.67 1259.29 1466.67 Q1257.41 1466.67 1255.54 1467.08 Q1253.69 1467.5 1251.74 1468.38 L1251.74 1451.02 Z" fill="#000000" fill-rule="nonzero" fill-opacity="1"></path><path clip-path="url(#clip370)" d="M1291.86 1454.1 Q1288.25 1454.1 1286.42 1457.66 Q1284.61 1461.2 1284.61 1468.33 Q1284.61 1475.44 1286.42 1479.01 Q1288.25 1482.55 1291.86 1482.55 Q1295.49 1482.55 1297.3 1479.01 Q1299.13 1475.44 1299.13 1468.33 Q1299.13 1461.2 1297.3 1457.66 Q1295.49 1454.1 1291.86 1454.1 M1291.86 1450.39 Q1297.67 1450.39 1300.72 1455 Q1303.8 1459.58 1303.8 1468.33 Q1303.8 1477.06 1300.72 1481.67 Q1297.67 1486.25 1291.86 1486.25 Q1286.05 1486.25 1282.97 1481.67 Q1279.91 1477.06 1279.91 1468.33 Q1279.91 1459.58 1282.97 1455 Q1286.05 1450.39 1291.86 1450.39 Z" fill="#000000" fill-rule="nonzero" fill-opacity="1"></path><path clip-path="url(#clip370)" d="M1758.6 1451.02 L1780.82 1451.02 L1780.82 1453.01 L1768.27 1485.58 L1763.39 1485.58 L1775.19 1454.96 L1758.6 1454.96 L1758.6 1451.02 Z" fill="#000000" fill-rule="nonzero" fill-opacity="1"></path><path clip-path="url(#clip370)" d="M1789.98 1451.02 L1808.34 1451.02 L1808.34 1454.96 L1794.27 1454.96 L1794.27 1463.43 Q1795.29 1463.08 1796.3 1462.92 Q1797.32 1462.73 1798.34 1462.73 Q1804.13 1462.73 1807.51 1465.9 Q1810.89 1469.08 1810.89 1474.49 Q1810.89 1480.07 1807.42 1483.17 Q1803.94 1486.25 1797.62 1486.25 Q1795.45 1486.25 1793.18 1485.88 Q1790.93 1485.51 1788.53 1484.77 L1788.53 1480.07 Q1790.61 1481.2 1792.83 1481.76 Q1795.05 1482.32 1797.53 1482.32 Q1801.54 1482.32 1803.87 1480.21 Q1806.21 1478.1 1806.21 1474.49 Q1806.21 1470.88 1803.87 1468.77 Q1801.54 1466.67 1797.53 1466.67 Q1795.66 1466.67 1793.78 1467.08 Q1791.93 1467.5 1789.98 1468.38 L1789.98 1451.02 Z" fill="#000000" fill-rule="nonzero" fill-opacity="1"></path><path clip-path="url(#clip370)" d="M2252.05 1481.64 L2259.69 1481.64 L2259.69 1455.28 L2251.38 1456.95 L2251.38 1452.69 L2259.64 1451.02 L2264.32 1451.02 L2264.32 1481.64 L2271.96 1481.64 L2271.96 1485.58 L2252.05 1485.58 L2252.05 1481.64 Z" fill="#000000" fill-rule="nonzero" fill-opacity="1"></path><path clip-path="url(#clip370)" d="M2291.4 1454.1 Q2287.79 1454.1 2285.96 1457.66 Q2284.15 1461.2 2284.15 1468.33 Q2284.15 1475.44 2285.96 1479.01 Q2287.79 1482.55 2291.4 1482.55 Q2295.03 1482.55 2296.84 1479.01 Q2298.67 1475.44 2298.67 1468.33 Q2298.67 1461.2 2296.84 1457.66 Q2295.03 1454.1 2291.4 1454.1 M2291.4 1450.39 Q2297.21 1450.39 2300.27 1455 Q2303.34 1459.58 2303.34 1468.33 Q2303.34 1477.06 2300.27 1481.67 Q2297.21 1486.25 2291.4 1486.25 Q2285.59 1486.25 2282.51 1481.67 Q2279.46 1477.06 2279.46 1468.33 Q2279.46 1459.58 2282.51 1455 Q2285.59 1450.39 2291.4 1450.39 Z" fill="#000000" fill-rule="nonzero" fill-opacity="1"></path><path clip-path="url(#clip370)" d="M2321.56 1454.1 Q2317.95 1454.1 2316.12 1457.66 Q2314.32 1461.2 2314.32 1468.33 Q2314.32 1475.44 2316.12 1479.01 Q2317.95 1482.55 2321.56 1482.55 Q2325.2 1482.55 2327 1479.01 Q2328.83 1475.44 2328.83 1468.33 Q2328.83 1461.2 2327 1457.66 Q2325.2 1454.1 2321.56 1454.1 M2321.56 1450.39 Q2327.37 1450.39 2330.43 1455 Q2333.51 1459.58 2333.51 1468.33 Q2333.51 1477.06 2330.43 1481.67 Q2327.37 1486.25 2321.56 1486.25 Q2315.75 1486.25 2312.67 1481.67 Q2309.62 1477.06 2309.62 1468.33 Q2309.62 1459.58 2312.67 1455 Q2315.75 1450.39 2321.56 1450.39 Z" fill="#000000" fill-rule="nonzero" fill-opacity="1"></path><path clip-path="url(#clip370)" d="M954.413 1522.08 L954.413 1528.35 Q950.753 1526.6 947.506 1525.74 Q944.26 1524.88 941.236 1524.88 Q935.985 1524.88 933.12 1526.92 Q930.287 1528.96 930.287 1532.71 Q930.287 1535.87 932.165 1537.49 Q934.075 1539.08 939.358 1540.07 L943.241 1540.86 Q950.435 1542.23 953.84 1545.7 Q957.278 1549.14 957.278 1554.93 Q957.278 1561.84 952.631 1565.4 Q948.016 1568.97 939.072 1568.97 Q935.698 1568.97 931.879 1568.2 Q928.091 1567.44 924.017 1565.94 L924.017 1559.32 Q927.932 1561.52 931.688 1562.63 Q935.443 1563.75 939.072 1563.75 Q944.578 1563.75 947.57 1561.58 Q950.562 1559.42 950.562 1555.41 Q950.562 1551.91 948.398 1549.93 Q946.265 1547.96 941.364 1546.97 L937.449 1546.21 Q930.255 1544.78 927.041 1541.72 Q923.826 1538.67 923.826 1533.22 Q923.826 1526.92 928.25 1523.29 Q932.706 1519.66 940.504 1519.66 Q943.846 1519.66 947.316 1520.27 Q950.785 1520.87 954.413 1522.08 Z" fill="#000000" fill-rule="nonzero" fill-opacity="1"></path><path clip-path="url(#clip370)" d="M966.444 1553.98 L966.444 1532.4 L972.301 1532.4 L972.301 1553.75 Q972.301 1558.81 974.274 1561.36 Q976.248 1563.87 980.194 1563.87 Q984.937 1563.87 987.674 1560.85 Q990.443 1557.83 990.443 1552.61 L990.443 1532.4 L996.3 1532.4 L996.3 1568.04 L990.443 1568.04 L990.443 1562.57 Q988.311 1565.82 985.478 1567.41 Q982.677 1568.97 978.953 1568.97 Q972.81 1568.97 969.627 1565.15 Q966.444 1561.33 966.444 1553.98 M981.181 1531.54 L981.181 1531.54 Z" fill="#000000" fill-rule="nonzero" fill-opacity="1"></path><path clip-path="url(#clip370)" d="M1033.95 1550.25 Q1033.95 1543.79 1031.28 1540.13 Q1028.64 1536.44 1023.99 1536.44 Q1019.34 1536.44 1016.67 1540.13 Q1014.03 1543.79 1014.03 1550.25 Q1014.03 1556.71 1016.67 1560.4 Q1019.34 1564.07 1023.99 1564.07 Q1028.64 1564.07 1031.28 1560.4 Q1033.95 1556.71 1033.95 1550.25 M1014.03 1537.81 Q1015.87 1534.62 1018.68 1533.1 Q1021.51 1531.54 1025.42 1531.54 Q1031.92 1531.54 1035.96 1536.69 Q1040.03 1541.85 1040.03 1550.25 Q1040.03 1558.65 1035.96 1563.81 Q1031.92 1568.97 1025.42 1568.97 Q1021.51 1568.97 1018.68 1567.44 Q1015.87 1565.88 1014.03 1562.7 L1014.03 1568.04 L1008.14 1568.04 L1008.14 1518.52 L1014.03 1518.52 L1014.03 1537.81 Z" fill="#000000" fill-rule="nonzero" fill-opacity="1"></path><path clip-path="url(#clip370)" d="M1072.47 1533.45 L1072.47 1538.98 Q1069.98 1537.71 1067.31 1537.07 Q1064.64 1536.44 1061.77 1536.44 Q1057.41 1536.44 1055.21 1537.77 Q1053.05 1539.11 1053.05 1541.79 Q1053.05 1543.82 1054.61 1545 Q1056.17 1546.15 1060.88 1547.2 L1062.88 1547.64 Q1069.12 1548.98 1071.73 1551.43 Q1074.38 1553.85 1074.38 1558.21 Q1074.38 1563.17 1070.43 1566.07 Q1066.51 1568.97 1059.64 1568.97 Q1056.77 1568.97 1053.65 1568.39 Q1050.57 1567.85 1047.13 1566.74 L1047.13 1560.69 Q1050.38 1562.38 1053.53 1563.24 Q1056.68 1564.07 1059.77 1564.07 Q1063.9 1564.07 1066.13 1562.66 Q1068.36 1561.23 1068.36 1558.65 Q1068.36 1556.27 1066.74 1554.99 Q1065.14 1553.72 1059.7 1552.54 L1057.67 1552.07 Q1052.22 1550.92 1049.8 1548.56 Q1047.38 1546.18 1047.38 1542.04 Q1047.38 1537.01 1050.95 1534.27 Q1054.51 1531.54 1061.07 1531.54 Q1064.32 1531.54 1067.18 1532.01 Q1070.05 1532.49 1072.47 1533.45 Z" fill="#000000" fill-rule="nonzero" fill-opacity="1"></path><path clip-path="url(#clip370)" d="M1089.37 1562.7 L1089.37 1581.6 L1083.48 1581.6 L1083.48 1532.4 L1089.37 1532.4 L1089.37 1537.81 Q1091.21 1534.62 1094.01 1533.1 Q1096.85 1531.54 1100.76 1531.54 Q1107.25 1531.54 1111.3 1536.69 Q1115.37 1541.85 1115.37 1550.25 Q1115.37 1558.65 1111.3 1563.81 Q1107.25 1568.97 1100.76 1568.97 Q1096.85 1568.97 1094.01 1567.44 Q1091.21 1565.88 1089.37 1562.7 M1109.29 1550.25 Q1109.29 1543.79 1106.62 1540.13 Q1103.98 1536.44 1099.33 1536.44 Q1094.68 1536.44 1092.01 1540.13 Q1089.37 1543.79 1089.37 1550.25 Q1089.37 1556.71 1092.01 1560.4 Q1094.68 1564.07 1099.33 1564.07 Q1103.98 1564.07 1106.62 1560.4 Q1109.29 1556.71 1109.29 1550.25 Z" fill="#000000" fill-rule="nonzero" fill-opacity="1"></path><path clip-path="url(#clip370)" d="M1141.28 1550.12 Q1134.18 1550.12 1131.44 1551.75 Q1128.71 1553.37 1128.71 1557.29 Q1128.71 1560.4 1130.74 1562.25 Q1132.81 1564.07 1136.35 1564.07 Q1141.21 1564.07 1144.14 1560.63 Q1147.1 1557.16 1147.1 1551.43 L1147.1 1550.12 L1141.28 1550.12 M1152.96 1547.71 L1152.96 1568.04 L1147.1 1568.04 L1147.1 1562.63 Q1145.1 1565.88 1142.11 1567.44 Q1139.11 1568.97 1134.79 1568.97 Q1129.31 1568.97 1126.06 1565.91 Q1122.85 1562.82 1122.85 1557.67 Q1122.85 1551.65 1126.86 1548.6 Q1130.9 1545.54 1138.89 1545.54 L1147.1 1545.54 L1147.1 1544.97 Q1147.1 1540.93 1144.43 1538.73 Q1141.79 1536.5 1136.98 1536.5 Q1133.93 1536.5 1131.03 1537.23 Q1128.13 1537.97 1125.46 1539.43 L1125.46 1534.02 Q1128.67 1532.78 1131.7 1532.17 Q1134.72 1531.54 1137.59 1531.54 Q1145.32 1531.54 1149.14 1535.55 Q1152.96 1539.56 1152.96 1547.71 Z" fill="#000000" fill-rule="nonzero" fill-opacity="1"></path><path clip-path="url(#clip370)" d="M1190.68 1533.76 L1190.68 1539.24 Q1188.19 1537.87 1185.68 1537.2 Q1183.2 1536.5 1180.65 1536.5 Q1174.95 1536.5 1171.8 1540.13 Q1168.65 1543.73 1168.65 1550.25 Q1168.65 1556.78 1171.8 1560.4 Q1174.95 1564 1180.65 1564 Q1183.2 1564 1185.68 1563.33 Q1188.19 1562.63 1190.68 1561.26 L1190.68 1566.68 Q1188.23 1567.82 1185.58 1568.39 Q1182.97 1568.97 1180.01 1568.97 Q1171.96 1568.97 1167.22 1563.91 Q1162.48 1558.85 1162.48 1550.25 Q1162.48 1541.53 1167.25 1536.53 Q1172.06 1531.54 1180.4 1531.54 Q1183.1 1531.54 1185.68 1532.11 Q1188.26 1532.65 1190.68 1533.76 Z" fill="#000000" fill-rule="nonzero" fill-opacity="1"></path><path clip-path="url(#clip370)" d="M1231.35 1548.76 L1231.35 1551.62 L1204.43 1551.62 Q1204.81 1557.67 1208.05 1560.85 Q1211.33 1564 1217.16 1564 Q1220.53 1564 1223.68 1563.17 Q1226.87 1562.35 1229.98 1560.69 L1229.98 1566.23 Q1226.83 1567.57 1223.52 1568.27 Q1220.21 1568.97 1216.81 1568.97 Q1208.28 1568.97 1203.28 1564 Q1198.32 1559.04 1198.32 1550.57 Q1198.32 1541.82 1203.03 1536.69 Q1207.77 1531.54 1215.79 1531.54 Q1222.98 1531.54 1227.15 1536.18 Q1231.35 1540.8 1231.35 1548.76 M1225.5 1547.04 Q1225.43 1542.23 1222.79 1539.37 Q1220.18 1536.5 1215.85 1536.5 Q1210.95 1536.5 1207.99 1539.27 Q1205.06 1542.04 1204.62 1547.07 L1225.5 1547.04 Z" fill="#000000" fill-rule="nonzero" fill-opacity="1"></path><path clip-path="url(#clip370)" d="M1285.14 1537.81 L1285.14 1518.52 L1291 1518.52 L1291 1568.04 L1285.14 1568.04 L1285.14 1562.7 Q1283.3 1565.88 1280.46 1567.44 Q1277.66 1568.97 1273.72 1568.97 Q1267.26 1568.97 1263.18 1563.81 Q1259.14 1558.65 1259.14 1550.25 Q1259.14 1541.85 1263.18 1536.69 Q1267.26 1531.54 1273.72 1531.54 Q1277.66 1531.54 1280.46 1533.1 Q1283.3 1534.62 1285.14 1537.81 M1265.19 1550.25 Q1265.19 1556.71 1267.83 1560.4 Q1270.5 1564.07 1275.15 1564.07 Q1279.8 1564.07 1282.47 1560.4 Q1285.14 1556.71 1285.14 1550.25 Q1285.14 1543.79 1282.47 1540.13 Q1279.8 1536.44 1275.15 1536.44 Q1270.5 1536.44 1267.83 1540.13 Q1265.19 1543.79 1265.19 1550.25 Z" fill="#000000" fill-rule="nonzero" fill-opacity="1"></path><path clip-path="url(#clip370)" d="M1303.06 1532.4 L1308.92 1532.4 L1308.92 1568.04 L1303.06 1568.04 L1303.06 1532.4 M1303.06 1518.52 L1308.92 1518.52 L1308.92 1525.93 L1303.06 1525.93 L1303.06 1518.52 Z" fill="#000000" fill-rule="nonzero" fill-opacity="1"></path><path clip-path="url(#clip370)" d="M1348.93 1539.24 Q1351.12 1535.29 1354.18 1533.41 Q1357.24 1531.54 1361.37 1531.54 Q1366.94 1531.54 1369.97 1535.45 Q1372.99 1539.33 1372.99 1546.53 L1372.99 1568.04 L1367.1 1568.04 L1367.1 1546.72 Q1367.1 1541.59 1365.29 1539.11 Q1363.47 1536.63 1359.75 1536.63 Q1355.2 1536.63 1352.56 1539.65 Q1349.91 1542.68 1349.91 1547.9 L1349.91 1568.04 L1344.03 1568.04 L1344.03 1546.72 Q1344.03 1541.56 1342.21 1539.11 Q1340.4 1536.63 1336.61 1536.63 Q1332.12 1536.63 1329.48 1539.68 Q1326.84 1542.71 1326.84 1547.9 L1326.84 1568.04 L1320.95 1568.04 L1320.95 1532.4 L1326.84 1532.4 L1326.84 1537.93 Q1328.84 1534.66 1331.65 1533.1 Q1334.45 1531.54 1338.3 1531.54 Q1342.18 1531.54 1344.89 1533.51 Q1347.62 1535.48 1348.93 1539.24 Z" fill="#000000" fill-rule="nonzero" fill-opacity="1"></path><path clip-path="url(#clip370)" d="M1415.16 1548.76 L1415.16 1551.62 L1388.24 1551.62 Q1388.62 1557.67 1391.86 1560.85 Q1395.14 1564 1400.97 1564 Q1404.34 1564 1407.49 1563.17 Q1410.68 1562.35 1413.79 1560.69 L1413.79 1566.23 Q1410.64 1567.57 1407.33 1568.27 Q1404.02 1568.97 1400.62 1568.97 Q1392.09 1568.97 1387.09 1564 Q1382.13 1559.04 1382.13 1550.57 Q1382.13 1541.82 1386.84 1536.69 Q1391.58 1531.54 1399.6 1531.54 Q1406.79 1531.54 1410.96 1536.18 Q1415.16 1540.8 1415.16 1548.76 M1409.31 1547.04 Q1409.24 1542.23 1406.6 1539.37 Q1403.99 1536.5 1399.66 1536.5 Q1394.76 1536.5 1391.8 1539.27 Q1388.87 1542.04 1388.43 1547.07 L1409.31 1547.04 Z" fill="#000000" fill-rule="nonzero" fill-opacity="1"></path><path clip-path="url(#clip370)" d="M1454.41 1546.53 L1454.41 1568.04 L1448.55 1568.04 L1448.55 1546.72 Q1448.55 1541.66 1446.58 1539.14 Q1444.6 1536.63 1440.66 1536.63 Q1435.92 1536.63 1433.18 1539.65 Q1430.44 1542.68 1430.44 1547.9 L1430.44 1568.04 L1424.55 1568.04 L1424.55 1532.4 L1430.44 1532.4 L1430.44 1537.93 Q1432.54 1534.72 1435.37 1533.13 Q1438.24 1531.54 1441.96 1531.54 Q1448.11 1531.54 1451.26 1535.36 Q1454.41 1539.14 1454.41 1546.53 Z" fill="#000000" fill-rule="nonzero" fill-opacity="1"></path><path clip-path="url(#clip370)" d="M1488.81 1533.45 L1488.81 1538.98 Q1486.33 1537.71 1483.66 1537.07 Q1480.98 1536.44 1478.12 1536.44 Q1473.76 1536.44 1471.56 1537.77 Q1469.4 1539.11 1469.4 1541.79 Q1469.4 1543.82 1470.96 1545 Q1472.52 1546.15 1477.23 1547.2 L1479.23 1547.64 Q1485.47 1548.98 1488.08 1551.43 Q1490.72 1553.85 1490.72 1558.21 Q1490.72 1563.17 1486.78 1566.07 Q1482.86 1568.97 1475.99 1568.97 Q1473.12 1568.97 1470 1568.39 Q1466.92 1567.85 1463.48 1566.74 L1463.48 1560.69 Q1466.73 1562.38 1469.88 1563.24 Q1473.03 1564.07 1476.11 1564.07 Q1480.25 1564.07 1482.48 1562.66 Q1484.71 1561.23 1484.71 1558.65 Q1484.71 1556.27 1483.09 1554.99 Q1481.49 1553.72 1476.05 1552.54 L1474.01 1552.07 Q1468.57 1550.92 1466.15 1548.56 Q1463.73 1546.18 1463.73 1542.04 Q1463.73 1537.01 1467.3 1534.27 Q1470.86 1531.54 1477.42 1531.54 Q1480.67 1531.54 1483.53 1532.01 Q1486.4 1532.49 1488.81 1533.45 Z" fill="#000000" fill-rule="nonzero" fill-opacity="1"></path><path clip-path="url(#clip370)" d="M1500.05 1532.4 L1505.91 1532.4 L1505.91 1568.04 L1500.05 1568.04 L1500.05 1532.4 M1500.05 1518.52 L1505.91 1518.52 L1505.91 1525.93 L1500.05 1525.93 L1500.05 1518.52 Z" fill="#000000" fill-rule="nonzero" fill-opacity="1"></path><path clip-path="url(#clip370)" d="M1531.97 1536.5 Q1527.26 1536.5 1524.53 1540.19 Q1521.79 1543.85 1521.79 1550.25 Q1521.79 1556.65 1524.49 1560.34 Q1527.23 1564 1531.97 1564 Q1536.65 1564 1539.39 1560.31 Q1542.13 1556.62 1542.13 1550.25 Q1542.13 1543.92 1539.39 1540.23 Q1536.65 1536.5 1531.97 1536.5 M1531.97 1531.54 Q1539.61 1531.54 1543.97 1536.5 Q1548.33 1541.47 1548.33 1550.25 Q1548.33 1559 1543.97 1564 Q1539.61 1568.97 1531.97 1568.97 Q1524.3 1568.97 1519.94 1564 Q1515.61 1559 1515.61 1550.25 Q1515.61 1541.47 1519.94 1536.5 Q1524.3 1531.54 1531.97 1531.54 Z" fill="#000000" fill-rule="nonzero" fill-opacity="1"></path><path clip-path="url(#clip370)" d="M1587.67 1546.53 L1587.67 1568.04 L1581.82 1568.04 L1581.82 1546.72 Q1581.82 1541.66 1579.84 1539.14 Q1577.87 1536.63 1573.92 1536.63 Q1569.18 1536.63 1566.44 1539.65 Q1563.71 1542.68 1563.71 1547.9 L1563.71 1568.04 L1557.82 1568.04 L1557.82 1532.4 L1563.71 1532.4 L1563.71 1537.93 Q1565.81 1534.72 1568.64 1533.13 Q1571.5 1531.54 1575.23 1531.54 Q1581.37 1531.54 1584.52 1535.36 Q1587.67 1539.14 1587.67 1546.53 Z" fill="#000000" fill-rule="nonzero" fill-opacity="1"></path><path clip-path="url(#clip370)" d="M1634.11 1524.09 L1650.57 1568.04 L1644.36 1568.04 L1634.37 1541.69 L1622.08 1568.04 L1615.87 1568.04 L1631.5 1533.86 L1629.15 1527.56 Q1627.65 1523.55 1624.24 1523.55 L1621.19 1523.55 L1621.19 1518.52 L1624.91 1518.58 Q1632.11 1518.68 1634.11 1524.09 Z" fill="#000000" fill-rule="nonzero" fill-opacity="1"></path><polyline clip-path="url(#clip370)" style="stroke:#000000; stroke-linecap:round; stroke-linejoin:round; stroke-width:4; stroke-opacity:1; fill:none" points="221.637,1423.18 221.637,47.2441 "></polyline>
<polyline clip-path="url(#clip370)" style="stroke:#000000; stroke-linecap:round; stroke-linejoin:round; stroke-width:4; stroke-opacity:1; fill:none" points="221.637,1044.45 240.535,1044.45 "></polyline>
<polyline clip-path="url(#clip370)" style="stroke:#000000; stroke-linecap:round; stroke-linejoin:round; stroke-width:4; stroke-opacity:1; fill:none" points="221.637,286.729 240.535,286.729 "></polyline>
<path clip-path="url(#clip370)" d="M114.931 1064.24 L122.57 1064.24 L122.57 1037.87 L114.26 1039.54 L114.26 1035.28 L122.524 1033.61 L127.2 1033.61 L127.2 1064.24 L134.839 1064.24 L134.839 1068.17 L114.931 1068.17 L114.931 1064.24 Z" fill="#000000" fill-rule="nonzero" fill-opacity="1"></path><path clip-path="url(#clip370)" d="M154.283 1036.69 Q150.672 1036.69 148.843 1040.26 Q147.038 1043.8 147.038 1050.93 Q147.038 1058.03 148.843 1061.6 Q150.672 1065.14 154.283 1065.14 Q157.917 1065.14 159.723 1061.6 Q161.552 1058.03 161.552 1050.93 Q161.552 1043.8 159.723 1040.26 Q157.917 1036.69 154.283 1036.69 M154.283 1032.99 Q160.093 1032.99 163.149 1037.59 Q166.227 1042.18 166.227 1050.93 Q166.227 1059.65 163.149 1064.26 Q160.093 1068.84 154.283 1068.84 Q148.473 1068.84 145.394 1064.26 Q142.339 1059.65 142.339 1050.93 Q142.339 1042.18 145.394 1037.59 Q148.473 1032.99 154.283 1032.99 Z" fill="#000000" fill-rule="nonzero" fill-opacity="1"></path><path clip-path="url(#clip370)" d="M175.932 1015.18 Q172.998 1015.18 171.512 1018.08 Q170.045 1020.96 170.045 1026.75 Q170.045 1032.53 171.512 1035.42 Q172.998 1038.3 175.932 1038.3 Q178.885 1038.3 180.352 1035.42 Q181.838 1032.53 181.838 1026.75 Q181.838 1020.96 180.352 1018.08 Q178.885 1015.18 175.932 1015.18 M175.932 1012.18 Q180.653 1012.18 183.136 1015.92 Q185.637 1019.64 185.637 1026.75 Q185.637 1033.84 183.136 1037.58 Q180.653 1041.31 175.932 1041.31 Q171.212 1041.31 168.71 1037.58 Q166.227 1033.84 166.227 1026.75 Q166.227 1019.64 168.71 1015.92 Q171.212 1012.18 175.932 1012.18 Z" fill="#000000" fill-rule="nonzero" fill-opacity="1"></path><path clip-path="url(#clip370)" d="M117.621 306.522 L125.26 306.522 L125.26 280.156 L116.95 281.823 L116.95 277.564 L125.214 275.897 L129.889 275.897 L129.889 306.522 L137.528 306.522 L137.528 310.457 L117.621 310.457 L117.621 306.522 Z" fill="#000000" fill-rule="nonzero" fill-opacity="1"></path><path clip-path="url(#clip370)" d="M156.973 278.976 Q153.362 278.976 151.533 282.541 Q149.727 286.082 149.727 293.212 Q149.727 300.318 151.533 303.883 Q153.362 307.425 156.973 307.425 Q160.607 307.425 162.412 303.883 Q164.241 300.318 164.241 293.212 Q164.241 286.082 162.412 282.541 Q160.607 278.976 156.973 278.976 M156.973 275.272 Q162.783 275.272 165.838 279.879 Q168.917 284.462 168.917 293.212 Q168.917 301.939 165.838 306.545 Q162.783 311.128 156.973 311.128 Q151.162 311.128 148.084 306.545 Q145.028 301.939 145.028 293.212 Q145.028 284.462 148.084 279.879 Q151.162 275.272 156.973 275.272 Z" fill="#000000" fill-rule="nonzero" fill-opacity="1"></path><path clip-path="url(#clip370)" d="M169.462 279.849 L175.669 279.849 L175.669 258.427 L168.917 259.781 L168.917 256.321 L175.631 254.967 L179.431 254.967 L179.431 279.849 L185.637 279.849 L185.637 283.047 L169.462 283.047 L169.462 279.849 Z" fill="#000000" fill-rule="nonzero" fill-opacity="1"></path><path clip-path="url(#clip370)" d="M20.2875 1076.52 L20.2875 1066.94 L52.6252 1054.81 L20.2875 1042.62 L20.2875 1033.04 L67.8075 1033.04 L67.8075 1039.31 L26.0802 1039.31 L58.6727 1051.56 L58.6727 1058.02 L26.0802 1070.28 L67.8075 1070.28 L67.8075 1076.52 L20.2875 1076.52 Z" fill="#000000" fill-rule="nonzero" fill-opacity="1"></path><path clip-path="url(#clip370)" d="M48.5194 990.039 L51.3839 990.039 L51.3839 1016.97 Q57.4314 1016.58 60.6142 1013.34 Q63.7652 1010.06 63.7652 1004.23 Q63.7652 1000.86 62.9377 997.71 Q62.1101 994.527 60.4551 991.408 L65.9932 991.408 Q67.33 994.559 68.0303 997.869 Q68.7305 1001.18 68.7305 1004.58 Q68.7305 1013.11 63.7652 1018.11 Q58.8 1023.08 50.3336 1023.08 Q41.5807 1023.08 36.4563 1018.37 Q31.3001 1013.62 31.3001 1005.6 Q31.3001 998.41 35.9471 994.241 Q40.5622 990.039 48.5194 990.039 M46.8006 995.896 Q41.9945 995.959 39.1299 998.601 Q36.2654 1001.21 36.2654 1005.54 Q36.2654 1010.44 39.0345 1013.4 Q41.8035 1016.33 46.8325 1016.78 L46.8006 995.896 Z" fill="#000000" fill-rule="nonzero" fill-opacity="1"></path><path clip-path="url(#clip370)" d="M37.5703 956.969 L18.2823 956.969 L18.2823 951.113 L67.8075 951.113 L67.8075 956.969 L62.4603 956.969 Q65.6431 958.815 67.2027 961.648 Q68.7305 964.449 68.7305 968.396 Q68.7305 974.857 63.5743 978.931 Q58.418 982.973 50.0153 982.973 Q41.6126 982.973 36.4563 978.931 Q31.3001 974.857 31.3001 968.396 Q31.3001 964.449 32.8597 961.648 Q34.3875 958.815 37.5703 956.969 M50.0153 976.926 Q56.4765 976.926 60.1686 974.284 Q63.8289 971.61 63.8289 966.964 Q63.8289 962.317 60.1686 959.643 Q56.4765 956.969 50.0153 956.969 Q43.5541 956.969 39.8938 959.643 Q36.2017 962.317 36.2017 966.964 Q36.2017 971.61 39.8938 974.284 Q43.5541 976.926 50.0153 976.926 Z" fill="#000000" fill-rule="nonzero" fill-opacity="1"></path><path clip-path="url(#clip370)" d="M32.1595 939.05 L32.1595 933.193 L67.8075 933.193 L67.8075 939.05 L32.1595 939.05 M18.2823 939.05 L18.2823 933.193 L25.6983 933.193 L25.6983 939.05 L18.2823 939.05 Z" fill="#000000" fill-rule="nonzero" fill-opacity="1"></path><path clip-path="url(#clip370)" d="M49.888 904.739 Q49.888 911.836 51.5112 914.574 Q53.1345 917.311 57.0494 917.311 Q60.1686 917.311 62.0147 915.274 Q63.8289 913.205 63.8289 909.672 Q63.8289 904.802 60.3914 901.874 Q56.9221 898.914 51.193 898.914 L49.888 898.914 L49.888 904.739 M47.469 893.058 L67.8075 893.058 L67.8075 898.914 L62.3966 898.914 Q65.6431 900.919 67.2027 903.911 Q68.7305 906.903 68.7305 911.232 Q68.7305 916.706 65.6749 919.953 Q62.5876 923.167 57.4314 923.167 Q51.4158 923.167 48.3602 919.157 Q45.3047 915.115 45.3047 907.126 L45.3047 898.914 L44.7318 898.914 Q40.6895 898.914 38.4934 901.588 Q36.2654 904.229 36.2654 909.036 Q36.2654 912.091 36.9974 914.988 Q37.7295 917.884 39.1936 920.557 L33.7828 920.557 Q32.5414 917.343 31.9367 914.319 Q31.3001 911.295 31.3001 908.431 Q31.3001 900.696 35.3105 896.877 Q39.3209 893.058 47.469 893.058 Z" fill="#000000" fill-rule="nonzero" fill-opacity="1"></path><path clip-path="url(#clip370)" d="M46.2914 851.362 L67.8075 851.362 L67.8075 857.219 L46.4823 857.219 Q41.4216 857.219 38.9071 859.192 Q36.3927 861.165 36.3927 865.112 Q36.3927 869.855 39.4164 872.592 Q42.4401 875.329 47.66 875.329 L67.8075 875.329 L67.8075 881.217 L32.1595 881.217 L32.1595 875.329 L37.6977 875.329 Q34.483 873.228 32.8916 870.396 Q31.3001 867.531 31.3001 863.807 Q31.3001 857.664 35.1196 854.513 Q38.9071 851.362 46.2914 851.362 Z" fill="#000000" fill-rule="nonzero" fill-opacity="1"></path><path clip-path="url(#clip370)" d="M25.571 812.277 L62.5239 812.277 L62.5239 804.511 Q62.5239 794.676 58.0679 790.124 Q53.6119 785.541 43.9997 785.541 Q34.4512 785.541 30.027 790.124 Q25.571 794.676 25.571 804.511 L25.571 812.277 M20.2875 818.706 L20.2875 805.497 Q20.2875 791.684 26.0484 785.223 Q31.7776 778.761 43.9997 778.761 Q56.2855 778.761 62.0465 785.254 Q67.8075 791.747 67.8075 805.497 L67.8075 818.706 L20.2875 818.706 Z" fill="#000000" fill-rule="nonzero" fill-opacity="1"></path><path clip-path="url(#clip370)" d="M32.1595 768.767 L32.1595 762.911 L67.8075 762.911 L67.8075 768.767 L32.1595 768.767 M18.2823 768.767 L18.2823 762.911 L25.6983 762.911 L25.6983 768.767 L18.2823 768.767 Z" fill="#000000" fill-rule="nonzero" fill-opacity="1"></path><path clip-path="url(#clip370)" d="M18.2823 750.657 L18.2823 744.8 L67.8075 744.8 L67.8075 750.657 L18.2823 750.657 Z" fill="#000000" fill-rule="nonzero" fill-opacity="1"></path><path clip-path="url(#clip370)" d="M49.888 716.346 Q49.888 723.443 51.5112 726.181 Q53.1345 728.918 57.0494 728.918 Q60.1686 728.918 62.0147 726.881 Q63.8289 724.812 63.8289 721.279 Q63.8289 716.409 60.3914 713.481 Q56.9221 710.521 51.193 710.521 L49.888 710.521 L49.888 716.346 M47.469 704.665 L67.8075 704.665 L67.8075 710.521 L62.3966 710.521 Q65.6431 712.526 67.2027 715.518 Q68.7305 718.51 68.7305 722.839 Q68.7305 728.313 65.6749 731.56 Q62.5876 734.774 57.4314 734.774 Q51.4158 734.774 48.3602 730.764 Q45.3047 726.722 45.3047 718.733 L45.3047 710.521 L44.7318 710.521 Q40.6895 710.521 38.4934 713.195 Q36.2654 715.836 36.2654 720.642 Q36.2654 723.698 36.9974 726.594 Q37.7295 729.491 39.1936 732.164 L33.7828 732.164 Q32.5414 728.95 31.9367 725.926 Q31.3001 722.902 31.3001 720.038 Q31.3001 712.303 35.3105 708.484 Q39.3209 704.665 47.469 704.665 Z" fill="#000000" fill-rule="nonzero" fill-opacity="1"></path><path clip-path="url(#clip370)" d="M22.038 686.809 L32.1595 686.809 L32.1595 674.746 L36.711 674.746 L36.711 686.809 L56.0627 686.809 Q60.4232 686.809 61.6645 685.631 Q62.9059 684.422 62.9059 680.761 L62.9059 674.746 L67.8075 674.746 L67.8075 680.761 Q67.8075 687.541 65.293 690.119 Q62.7467 692.697 56.0627 692.697 L36.711 692.697 L36.711 696.994 L32.1595 696.994 L32.1595 692.697 L22.038 692.697 L22.038 686.809 Z" fill="#000000" fill-rule="nonzero" fill-opacity="1"></path><path clip-path="url(#clip370)" d="M32.1595 667.043 L32.1595 661.187 L67.8075 661.187 L67.8075 667.043 L32.1595 667.043 M18.2823 667.043 L18.2823 661.187 L25.6983 661.187 L25.6983 667.043 L18.2823 667.043 Z" fill="#000000" fill-rule="nonzero" fill-opacity="1"></path><path clip-path="url(#clip370)" d="M36.2654 635.119 Q36.2654 639.83 39.9575 642.567 Q43.6178 645.304 50.0153 645.304 Q56.4128 645.304 60.1049 642.599 Q63.7652 639.862 63.7652 635.119 Q63.7652 630.44 60.0731 627.703 Q56.381 624.966 50.0153 624.966 Q43.6814 624.966 39.9893 627.703 Q36.2654 630.44 36.2654 635.119 M31.3001 635.119 Q31.3001 627.48 36.2654 623.12 Q41.2306 618.759 50.0153 618.759 Q58.7682 618.759 63.7652 623.12 Q68.7305 627.48 68.7305 635.119 Q68.7305 642.79 63.7652 647.15 Q58.7682 651.479 50.0153 651.479 Q41.2306 651.479 36.2654 647.15 Q31.3001 642.79 31.3001 635.119 Z" fill="#000000" fill-rule="nonzero" fill-opacity="1"></path><path clip-path="url(#clip370)" d="M46.2914 579.419 L67.8075 579.419 L67.8075 585.276 L46.4823 585.276 Q41.4216 585.276 38.9071 587.249 Q36.3927 589.222 36.3927 593.169 Q36.3927 597.912 39.4164 600.649 Q42.4401 603.386 47.66 603.386 L67.8075 603.386 L67.8075 609.274 L32.1595 609.274 L32.1595 603.386 L37.6977 603.386 Q34.483 601.285 32.8916 598.453 Q31.3001 595.588 31.3001 591.864 Q31.3001 585.721 35.1196 582.57 Q38.9071 579.419 46.2914 579.419 Z" fill="#000000" fill-rule="nonzero" fill-opacity="1"></path><path clip-path="url(#clip370)" d="M40.9478 497.561 Q43.2022 497.561 43.2022 500.782 L43.2022 508.028 Q46.1007 505.999 50.3841 505.999 Q54.0556 505.999 57.5016 507.513 Q60.9154 508.994 63.2986 511.378 Q65.6819 513.729 67.1311 516.692 Q68.5482 519.655 68.5482 522.553 Q68.5482 526.965 65.553 529.703 Q62.5579 532.44 58.1135 532.44 Q55.7625 532.44 53.1538 531.635 Q50.5451 530.798 48.1297 529.22 Q45.682 527.642 43.7175 525.581 Q41.7529 523.487 40.5613 520.782 Q39.3697 518.044 39.3697 515.178 L39.3697 500.138 Q39.3697 499.333 39.4341 498.914 Q39.4663 498.463 39.8528 498.012 Q40.207 497.561 40.9478 497.561 M49.6111 510.218 Q48.8382 510.218 48.1619 510.315 Q47.4533 510.412 46.5194 510.766 Q45.5532 511.12 44.8769 511.732 Q44.1684 512.344 43.6853 513.536 Q43.2022 514.695 43.2022 516.273 Q43.2022 518.495 44.426 520.943 Q45.6498 523.391 48.6772 525.258 Q51.2536 526.804 54.6031 527.577 Q57.9525 528.35 59.9492 528.35 Q63.363 528.35 65.231 526.708 Q67.0667 525.033 67.0667 522.489 Q67.0667 520.395 65.6497 518.012 Q64.2004 515.629 61.4629 513.793 Q59.0797 512.183 55.6014 511.217 Q52.1232 510.218 49.6111 510.218 Z" fill="#000000" fill-rule="nonzero" fill-opacity="1"></path><path clip-path="url(#clip370)" d="M48.7739 490.869 Q47.9397 490.869 47.6917 490.801 Q47.4438 490.711 47.0605 490.351 L37.1862 481.491 Q31.7305 476.644 26.9737 476.644 Q23.8852 476.644 21.6758 478.267 Q19.4665 479.868 19.4665 482.821 Q19.4665 484.85 20.7065 486.563 Q21.9464 488.277 24.1557 489.066 Q24.1106 488.93 24.1106 488.457 Q24.1106 487.307 24.832 486.676 Q25.5534 486.022 26.5228 486.022 Q27.7628 486.022 28.3714 486.834 Q28.9576 487.623 28.9576 488.412 Q28.9576 488.727 28.89 489.156 Q28.8223 489.562 28.1911 490.215 Q27.5373 490.869 26.3876 490.869 Q23.1638 490.869 20.5937 488.434 Q18.0237 485.977 18.0237 482.235 Q18.0237 477.996 20.5486 475.224 Q23.051 472.428 26.9737 472.428 Q28.3489 472.428 29.6114 472.856 Q30.8513 473.262 31.8207 473.826 Q32.7901 474.367 34.3456 475.855 Q35.9012 477.343 37.0058 478.537 Q38.1105 479.732 40.4551 482.415 L45.2119 487.307 L45.2119 478.988 Q45.2119 474.93 44.8512 474.615 Q44.1974 474.164 40.7482 473.6 L40.7482 472.428 L48.7739 473.736 L48.7739 490.869 Z" fill="#000000" fill-rule="nonzero" fill-opacity="1"></path><path clip-path="url(#clip370)" d="M74.0639 453.04 Q74.2443 453.04 74.9431 453.243 Q75.642 453.446 76.7241 453.942 Q77.8062 454.415 78.7982 455.092 Q79.7676 455.745 80.489 456.828 Q81.1878 457.887 81.1878 459.104 Q81.1878 460.728 80.1057 461.81 Q79.0236 462.892 77.4004 462.892 Q76.5212 462.892 74.853 462.283 Q67.233 459.42 64.5052 459.42 Q61.2814 459.42 61.2814 461.922 Q61.2814 463.343 61.8675 464.628 Q62.4537 465.913 63.2653 466.747 Q64.0769 467.581 65.0012 468.235 Q65.9255 468.889 66.5342 469.182 Q67.1429 469.452 67.4134 469.52 L78.5502 472.293 Q79.497 472.518 79.9479 472.676 Q80.3988 472.834 80.782 473.262 Q81.1878 473.691 81.1878 474.367 Q81.1878 474.93 80.8497 475.336 Q80.5115 475.719 79.9254 475.719 Q79.8352 475.719 79.3618 475.607 Q78.8883 475.494 78.2346 475.336 Q77.5808 475.178 77.1975 475.111 Q74.1315 474.299 73.7032 474.186 L68.3377 472.901 Q65.6775 472.203 64.5052 472.203 Q61.2814 472.203 61.2814 474.705 Q61.2814 475.945 61.7548 477.117 Q62.2057 478.267 62.8369 479.056 Q63.4682 479.845 64.3474 480.566 Q65.2041 481.265 65.7902 481.626 Q66.3538 481.964 66.9174 482.235 L69.2169 482.821 Q69.8482 482.956 72.3055 483.61 L76.4761 484.624 Q79.5872 485.346 79.8803 485.504 Q80.5115 485.729 80.8497 486.225 Q81.1878 486.721 81.1878 487.217 Q81.1878 487.781 80.8497 488.164 Q80.5115 488.547 79.9254 488.547 Q79.8352 488.547 79.497 488.479 Q79.1589 488.412 78.6854 488.299 Q78.212 488.186 77.9415 488.141 L67.2781 485.459 Q65.3393 484.963 64.7306 484.85 Q64.0994 484.715 63.4005 484.715 Q61.2814 484.715 61.2814 486.157 Q61.2814 487.33 62.6791 488.096 Q64.0769 488.863 66.7822 489.516 Q67.5261 489.719 67.6839 489.855 Q67.8417 489.967 67.8417 490.306 Q67.8192 490.869 67.3683 490.869 Q67.2556 490.869 66.5342 490.689 Q65.8128 490.508 64.7306 490.17 Q63.626 489.81 62.9046 489.426 Q62.4312 489.201 62.1155 488.998 Q61.7999 488.795 61.3039 488.389 Q60.808 487.983 60.5374 487.375 Q60.2669 486.766 60.2669 486.022 Q60.2669 484.376 61.3265 483.159 Q62.3861 481.919 64.2798 481.761 Q60.2669 478.763 60.2669 474.57 Q60.2669 472.203 61.4618 470.782 Q62.6115 469.452 64.7306 469.294 Q60.2669 466.183 60.2669 461.765 Q60.2669 459.217 61.597 457.842 Q62.9046 456.467 65.2041 456.467 Q66.3989 456.467 68.6759 457.076 Q70.9303 457.684 72.0575 458.09 Q73.1847 458.496 75.3489 459.285 Q77.423 460.119 78.6404 460.119 Q79.4294 460.119 79.7901 459.848 Q80.1508 459.578 80.1508 458.992 Q80.1508 458.09 79.6323 457.301 Q79.0912 456.512 78.212 455.948 Q77.3103 455.362 76.4085 454.979 Q75.4842 454.596 74.4472 454.303 Q73.8836 454.122 73.7483 454.032 Q73.613 453.919 73.613 453.604 Q73.613 453.04 74.0639 453.04 Z" fill="#000000" fill-rule="nonzero" fill-opacity="1"></path><path clip-path="url(#clip370)" d="M74.0639 429.021 Q76.9721 429.63 78.6404 430.419 Q81.1878 431.681 81.1878 433.823 Q81.1878 435.446 80.1959 436.596 Q79.204 437.745 77.7161 438.016 Q81.1878 440.969 81.1878 444.035 Q81.1878 446.741 79.1363 448.454 Q77.0623 450.167 73.7934 450.167 Q70.5019 450.167 67.3458 448.544 Q64.1896 446.898 62.2283 444.306 Q60.2669 441.713 60.2669 439.053 Q60.2669 436.235 63.2202 434.792 Q62.4086 434.679 61.7999 434.161 Q61.1912 433.642 61.1912 432.853 Q61.1912 432.245 61.5294 431.884 Q61.845 431.523 62.4312 431.523 Q62.7242 431.523 64.0092 431.839 L70.4569 433.507 L74.6275 434.522 Q76.1605 434.905 76.7241 435.018 Q77.2877 435.108 78.0317 435.108 Q80.1508 435.108 80.1508 433.733 Q80.1508 433.056 79.7225 432.515 Q79.2941 431.974 78.3924 431.546 Q77.4906 431.117 76.6565 430.847 Q75.7998 430.576 74.4472 430.216 Q73.9061 430.103 73.7708 430.013 Q73.613 429.9 73.613 429.584 Q73.613 429.021 74.0639 429.021 M65.3393 435.356 Q65.1364 435.356 64.5728 435.514 Q64.0092 435.671 63.2202 436.032 Q62.4312 436.393 61.8675 437.182 Q61.2814 437.948 61.2814 438.985 Q61.2814 440.383 62.4762 441.848 Q63.6711 443.291 65.7 444.351 Q67.3232 445.162 70.7274 446.042 Q74.1315 446.898 75.8223 446.898 Q76.8594 446.898 77.7837 446.673 Q78.6854 446.425 79.4294 445.726 Q80.1508 445.027 80.1508 443.945 Q80.1508 441.307 76.8819 438.715 Q76.3183 438.219 76.0929 438.106 Q75.8449 437.971 75.1686 437.791 L66.1284 435.491 Q65.4521 435.356 65.3393 435.356 Z" fill="#000000" fill-rule="nonzero" fill-opacity="1"></path><path clip-path="url(#clip370)" d="M63.3104 404.099 Q64.5728 404.099 65.2943 404.888 Q65.9931 405.677 65.9931 406.579 Q65.9931 407.435 65.4971 407.886 Q65.0012 408.337 64.3699 408.337 Q63.5133 408.337 62.7693 407.706 Q62.0254 407.075 61.8675 406.128 Q61.2814 407.052 61.2814 408.427 Q61.2814 409.329 61.7548 410.118 Q62.2283 410.885 62.8369 411.358 Q63.4456 411.809 64.3249 412.215 Q65.1815 412.598 65.7 412.756 Q66.196 412.891 66.7371 413.004 L73.0494 414.582 Q76.0478 415.348 77.1074 415.348 Q78.4149 415.348 79.2941 414.717 Q80.1508 414.086 80.1508 412.823 Q80.1508 412.327 80.0156 411.764 Q79.8577 411.2 79.4519 410.479 Q79.0236 409.735 78.3924 409.081 Q77.7386 408.405 76.6339 407.751 Q75.5293 407.097 74.109 406.669 Q73.613 406.534 73.613 406.083 Q73.613 405.519 74.0639 405.519 Q74.4472 405.519 75.2587 405.835 Q76.0478 406.128 77.0848 406.782 Q78.0993 407.413 79.0236 408.247 Q79.9254 409.081 80.5566 410.321 Q81.1878 411.561 81.1878 412.914 Q81.1878 414.852 80.1508 416.137 Q79.1138 417.422 77.671 417.896 Q77.8739 418.009 78.1444 418.166 Q78.4149 418.324 79.0236 418.798 Q79.6098 419.248 80.0606 419.767 Q80.489 420.286 80.8271 421.097 Q81.1878 421.886 81.1878 422.743 Q81.1878 423.825 80.8722 424.794 Q80.5566 425.741 79.8352 426.417 Q79.1138 427.094 78.1218 427.094 Q77.0172 427.094 76.2507 426.35 Q75.4616 425.583 75.4616 424.546 Q75.4616 423.893 75.8449 423.374 Q76.2281 422.833 77.0623 422.833 Q77.9866 422.833 78.6854 423.464 Q79.3843 424.095 79.5647 424.997 Q80.1508 424.073 80.1508 422.698 Q80.1508 421.21 78.8433 420.038 Q77.5357 418.865 75.3489 418.302 Q70.0961 416.904 67.7516 416.363 Q65.3844 415.822 64.3699 415.822 Q63.4231 415.822 62.7693 416.07 Q62.1155 416.318 61.8225 416.746 Q61.5068 417.152 61.3941 417.535 Q61.2814 417.896 61.2814 418.302 Q61.2814 418.978 61.5519 419.744 Q61.8225 420.488 62.4537 421.39 Q63.0624 422.269 64.3249 423.104 Q65.5873 423.938 67.3232 424.501 Q67.8417 424.614 67.8417 425.11 Q67.8192 425.651 67.3683 425.651 Q66.9851 425.651 66.196 425.358 Q65.3844 425.042 64.3699 424.411 Q63.3555 423.757 62.4537 422.923 Q61.5294 422.066 60.8982 420.827 Q60.2669 419.564 60.2669 418.211 Q60.2669 417.603 60.4022 417.017 Q60.5149 416.408 60.8531 415.687 Q61.1912 414.943 61.9352 414.289 Q62.6791 413.635 63.7613 413.229 Q63.2427 412.959 62.7468 412.598 Q62.2508 412.215 61.6421 411.629 Q61.0109 411.02 60.6502 410.186 Q60.2669 409.329 60.2669 408.382 Q60.2669 407.458 60.5149 406.556 Q60.7403 405.654 61.4843 404.888 Q62.2057 404.099 63.3104 404.099 Z" fill="#000000" fill-rule="nonzero" fill-opacity="1"></path><polyline clip-path="url(#clip372)" style="stroke:#000000; stroke-linecap:round; stroke-linejoin:round; stroke-width:4; stroke-opacity:1; fill:none" stroke-dasharray="2, 4" points="281.952,1159.49 302.26,1215.64 322.568,1210.91 342.876,1053.01 363.184,816.598 383.492,872.574 403.8,763.663 424.108,686.009 444.416,728.475 464.724,705.595 485.032,719.522 505.339,751.054 525.647,617.305 545.955,750.81 566.263,764.061 586.571,758.697 606.879,737.857 627.187,671.141 647.495,635.541 667.803,585.341 688.111,645.041 708.419,591.553 728.727,631.102 749.035,632.25 769.343,665.785 789.651,631.948 809.959,609.268 830.267,657.348 850.575,619.663 870.883,598.664 891.191,658.089 911.499,649.69 931.807,649.041 952.115,613.049 972.423,641.936 992.731,641.479 1013.04,664.84 1033.35,666.45 1053.65,630.444 1073.96,648.874 1094.27,601.806 1114.58,674.84 1134.89,593.464 1155.19,583.036 1175.5,601.893 1195.81,629.298 1216.12,638.049 1236.43,621.949 1256.73,626.134 1277.04,666.702 1297.35,604.574 1317.66,621.307 1337.97,637.159 1358.27,655.727 1378.58,609.31 1398.89,607.876 1419.2,647.001 1439.51,617.307 1459.81,632.373 1480.12,612.091 1500.43,621.179 1520.74,608.041 1541.05,642.014 1561.35,656.003 1581.66,626.08 1601.97,615.353 1622.28,589.163 1642.59,640.181 1662.89,670.291 1683.2,623.631 1703.51,630.053 1723.82,633.707 1744.13,622.416 1764.43,619.672 1784.74,628.846 1805.05,634.802 1825.36,615.47 1845.67,641.06 1865.97,635.07 1886.28,595.056 1906.59,643.979 1926.9,618.922 1947.21,644.382 1967.51,595.905 1987.82,630.717 2008.13,639.509 2028.44,616.101 2048.75,631.757 2069.05,612.664 2089.36,617.021 2109.67,619.877 2129.98,629.145 2150.29,613.311 2170.59,619.309 2190.9,617.092 2211.21,651.799 2231.52,647.205 2251.83,613.801 2272.13,627.424 2292.44,605.142 "></polyline>
<polyline clip-path="url(#clip372)" style="stroke:#e26f46; stroke-linecap:round; stroke-linejoin:round; stroke-width:4; stroke-opacity:1; fill:none" stroke-dasharray="16, 10" points="281.952,1140.1 302.26,1004.21 322.568,948.8 342.876,931.603 363.184,778.408 383.492,782.472 403.8,773.295 424.108,728.166 444.416,692.575 464.724,704.957 485.032,700.507 505.339,704.66 525.647,714.405 545.955,710.945 566.263,717.953 586.571,727.846 606.879,722.623 627.187,709.523 647.495,718.631 667.803,721.318 688.111,725.023 708.419,708.544 728.727,712.42 749.035,723.163 769.343,706.621 789.651,675.315 809.959,657.93 830.267,664.868 850.575,668.95 870.883,665.532 891.191,670.255 911.499,672.013 931.807,674.849 952.115,680.106 972.423,681.145 992.731,670.779 1013.04,669.141 1033.35,675.986 1053.65,679.935 1073.96,676.465 1094.27,681.697 1114.58,687.023 1134.89,689.906 1155.19,693.81 1175.5,693.514 1195.81,675.081 1216.12,674.423 1236.43,673.163 1256.73,675.35 1277.04,679.844 1297.35,684.086 1317.66,685.113 1337.97,688.709 1358.27,690.241 1378.58,691.777 1398.89,695.148 1419.2,699.991 1439.51,701.558 1459.81,695.985 1480.12,697.569 1500.43,695.843 1520.74,695.872 1541.05,689.581 1561.35,692.256 1581.66,695.092 1601.97,697.327 1622.28,700.472 1642.59,702.612 1662.89,705.882 1683.2,700.003 1703.51,702.254 1723.82,704.632 1744.13,703.182 1764.43,706.045 1784.74,706.383 1805.05,709.598 1825.36,701.461 1845.67,703.714 1865.97,702.691 1886.28,703.938 1906.59,705.514 1926.9,707.012 1947.21,709.429 1967.51,703.461 1987.82,705.787 2008.13,706.328 2028.44,707.859 2048.75,709.183 2069.05,711.43 2089.36,707.989 2109.67,709.868 2129.98,710.901 2150.29,711.851 2170.59,712.042 2190.9,713.089 2211.21,714.395 2231.52,716.168 2251.83,717.593 2272.13,717.812 2292.44,719.469 "></polyline>
<polyline clip-path="url(#clip372)" style="stroke:#3da44d; stroke-linecap:round; stroke-linejoin:round; stroke-width:4; stroke-opacity:1; fill:none" stroke-dasharray="16, 10" points="281.952,1384.24 302.26,1013.9 322.568,935.095 342.876,902.706 363.184,900.455 383.492,870.781 403.8,783.337 424.108,786.965 444.416,745.709 464.724,729.226 485.032,715.148 505.339,730.81 525.647,731.294 545.955,631.443 566.263,495.365 586.571,464.934 606.879,473.8 627.187,482.028 647.495,495.908 667.803,508.76 688.111,518.723 708.419,525.014 728.727,521.758 749.035,511.675 769.343,520.899 789.651,508.443 809.959,496.882 830.267,494.834 850.575,502.349 870.883,483.461 891.191,481.185 911.499,436.035 931.807,435.056 952.115,422.962 972.423,409.43 992.731,416.647 1013.04,420.366 1033.35,417.93 1053.65,424.046 1073.96,428.494 1094.27,432.208 1114.58,433.892 1134.89,436.204 1155.19,439.17 1175.5,422.352 1195.81,427.053 1216.12,432.315 1236.43,434.627 1256.73,439.649 1277.04,444.339 1297.35,432.161 1317.66,434.203 1337.97,438.326 1358.27,430.304 1378.58,434.01 1398.89,438.632 1419.2,443.152 1439.51,447.512 1459.81,452.146 1480.12,456.132 1500.43,456.378 1520.74,458.002 1541.05,459.741 1561.35,462.445 1581.66,437.549 1601.97,432.64 1622.28,429.024 1642.59,431.551 1662.89,413.192 1683.2,416.325 1703.51,420.257 1723.82,424.222 1744.13,426.927 1764.43,430.59 1784.74,432.046 1805.05,432.888 1825.36,435.05 1845.67,436.963 1865.97,440.292 1886.28,442.227 1906.59,446.008 1926.9,448.565 1947.21,445.662 1967.51,437.789 1987.82,437.745 2008.13,428.144 2028.44,414.634 2048.75,416.05 2069.05,414.091 2089.36,416.337 2109.67,407.622 2129.98,407.631 2150.29,409.493 2170.59,405.433 2190.9,407.709 2211.21,408.289 2231.52,408.535 2251.83,402.661 2272.13,404.471 2292.44,405.405 "></polyline>
<polyline clip-path="url(#clip372)" style="stroke:#c271d2; stroke-linecap:round; stroke-linejoin:round; stroke-width:4; stroke-opacity:1; fill:none" stroke-dasharray="16, 10" points="281.952,1073.4 302.26,963.283 322.568,929.92 342.876,890.752 363.184,877.399 383.492,828.465 403.8,827.042 424.108,830.08 444.416,808.955 464.724,807.003 485.032,807.209 505.339,810.64 525.647,769.349 545.955,762.76 566.263,760.962 586.571,755.281 606.879,751.205 627.187,742.579 647.495,738.686 667.803,744.63 688.111,751.56 708.419,751.253 728.727,745.951 749.035,748.77 769.343,745.902 789.651,748.345 809.959,742.131 830.267,742.565 850.575,742.033 870.883,743.381 891.191,746.71 911.499,743.97 931.807,737.876 952.115,737.519 972.423,735.94 992.731,729.623 1013.04,728.788 1033.35,731.929 1053.65,729.725 1073.96,730.695 1094.27,733.716 1114.58,732.187 1134.89,733.331 1155.19,732.329 1175.5,734.286 1195.81,733.031 1216.12,733.838 1236.43,735.568 1256.73,734.793 1277.04,736.582 1297.35,736.371 1317.66,733.36 1337.97,734.314 1358.27,727.57 1378.58,728.148 1398.89,728.266 1419.2,731.323 1439.51,730.602 1459.81,726.828 1480.12,727.39 1500.43,730.114 1520.74,728.959 1541.05,730.385 1561.35,731.131 1581.66,730.14 1601.97,729.956 1622.28,727.335 1642.59,725.067 1662.89,724.675 1683.2,725.116 1703.51,723.708 1723.82,724.807 1744.13,725.442 1764.43,726.603 1784.74,726.222 1805.05,728.257 1825.36,729.054 1845.67,728.651 1865.97,726.681 1886.28,727.169 1906.59,725.102 1926.9,725.08 1947.21,724.887 1967.51,724.873 1987.82,726.155 2008.13,726.175 2028.44,725.302 2048.75,723.544 2069.05,724.933 2089.36,725.775 2109.67,724.467 2129.98,725.533 2150.29,724.643 2170.59,726.464 2190.9,728.13 2211.21,723.449 2231.52,724.45 2251.83,722.922 2272.13,723.324 2292.44,723.12 "></polyline>
<polyline clip-path="url(#clip372)" style="stroke:#ac8d18; stroke-linecap:round; stroke-linejoin:round; stroke-width:4; stroke-opacity:1; fill:none" points="281.952,1135.95 302.26,1059.83 322.568,861.133 342.876,866.211 363.184,751.085 383.492,764.368 403.8,761.939 424.108,774.196 444.416,737.942 464.724,759.468 485.032,767.228 505.339,763.372 525.647,767.516 545.955,765.259 566.263,777.226 586.571,770.95 606.879,743.434 627.187,740.505 647.495,752.126 667.803,761.973 688.111,740.1 708.419,731.013 728.727,718.163 749.035,690.045 769.343,697.337 789.651,697.363 809.959,688.02 830.267,688.436 850.575,694.179 870.883,698.042 891.191,697.125 911.499,698.721 931.807,705.943 952.115,709.464 972.423,711.91 992.731,713.338 1013.04,714.213 1033.35,718.783 1053.65,706.652 1073.96,700.971 1094.27,701.265 1114.58,706.314 1134.89,708.007 1155.19,711.762 1175.5,709.691 1195.81,711.053 1216.12,710.316 1236.43,705.687 1256.73,707.96 1277.04,712.264 1297.35,716.114 1317.66,720.482 1337.97,713.024 1358.27,715.825 1378.58,720.282 1398.89,721.819 1419.2,722.82 1439.51,725.543 1459.81,726.586 1480.12,726.25 1500.43,727.33 1520.74,728.109 1541.05,728.138 1561.35,728.726 1581.66,725.602 1601.97,726.694 1622.28,723.87 1642.59,725.414 1662.89,727.026 1683.2,724.129 1703.51,726.665 1723.82,722.05 1744.13,723.579 1764.43,725.47 1784.74,727.525 1805.05,728.73 1825.36,729.225 1845.67,730.224 1865.97,729.476 1886.28,728.234 1906.59,727.542 1926.9,724.036 1947.21,725.659 1967.51,727.678 1987.82,728.293 2008.13,724.399 2028.44,725.725 2048.75,725.78 2069.05,727.638 2089.36,727.502 2109.67,726.997 2129.98,728.422 2150.29,730.067 2170.59,731.713 2190.9,731.443 2211.21,733.194 2231.52,734.148 2251.83,734.556 2272.13,734.987 2292.44,734.087 "></polyline>
<polyline clip-path="url(#clip372)" style="stroke:#00a9ad; stroke-linecap:round; stroke-linejoin:round; stroke-width:4; stroke-opacity:1; fill:none" points="281.952,1369.22 302.26,975.961 322.568,827.248 342.876,707.248 363.184,636.196 383.492,662.514 403.8,628.647 424.108,651.133 444.416,608.156 464.724,525.274 485.032,490.899 505.339,510.603 525.647,499.161 545.955,434.469 566.263,417.089 586.571,428.044 606.879,433.302 627.187,424.04 647.495,368.97 667.803,378.291 688.111,336.398 708.419,224.712 728.727,229.15 749.035,242.966 769.343,246.13 789.651,260.865 809.959,215.942 830.267,228.521 850.575,228.622 870.883,240.581 891.191,230.107 911.499,241.929 931.807,240.135 952.115,246.822 972.423,244.265 992.731,251.792 1013.04,246.38 1033.35,256.722 1053.65,259.747 1073.96,269.248 1094.27,270.262 1114.58,278.3 1134.89,275.995 1155.19,165.867 1175.5,167.073 1195.81,173.484 1216.12,177.33 1236.43,175.371 1256.73,158.65 1277.04,163.635 1297.35,164.871 1317.66,165.854 1337.97,166.044 1358.27,168.758 1378.58,169.077 1398.89,165.829 1419.2,168.37 1439.51,172.59 1459.81,175.148 1480.12,179.757 1500.43,182.109 1520.74,186.823 1541.05,180.955 1561.35,174.037 1581.66,176.853 1601.97,181.618 1622.28,184.466 1642.59,188.257 1662.89,189.43 1683.2,190.363 1703.51,191.486 1723.82,195.452 1744.13,187.391 1764.43,187.076 1784.74,183.379 1805.05,187.37 1825.36,151.487 1845.67,156.609 1865.97,158.9 1886.28,124.253 1906.59,124.34 1926.9,127.776 1947.21,128.025 1967.51,132.648 1987.82,134.052 2008.13,132.214 2028.44,133.094 2048.75,134.18 2069.05,135.952 2089.36,136.834 2109.67,136.598 2129.98,133.1 2150.29,125.998 2170.59,128.743 2190.9,128.872 2211.21,132.977 2231.52,134.784 2251.83,138.683 2272.13,138.588 2292.44,141.662 "></polyline>
<polyline clip-path="url(#clip372)" style="stroke:#ed5d92; stroke-linecap:round; stroke-linejoin:round; stroke-width:4; stroke-opacity:1; fill:none" points="302.26,549.162 322.568,405.687 342.876,303.769 363.184,219.367 383.492,86.1857 403.8,253.045 424.108,229.347 444.416,214.163 464.724,194.145 485.032,144.271 505.339,263.866 525.647,244.374 545.955,215.728 566.263,194.846 586.571,276.963 606.879,244.998 627.187,195.596 647.495,162.737 667.803,156.195 688.111,182.198 708.419,175.009 728.727,160.901 749.035,156.243 769.343,140.368 789.651,193.897 809.959,185.003 830.267,167.666 850.575,158.193 870.883,198.722 891.191,193.379 911.499,189.405 931.807,172.806 952.115,153.277 972.423,179.607 992.731,173.66 1013.04,168.349 1033.35,159.35 1053.65,153.853 1073.96,183.883 1094.27,178.139 1114.58,171.563 1134.89,157.885 1155.19,184.776 1175.5,181.031 1195.81,179.746 1216.12,167.823 1236.43,151.141 1256.73,180.435 1277.04,176.037 1297.35,173.487 1317.66,161.302 1337.97,155.647 1358.27,181.021 1378.58,177.052 1398.89,166.698 1419.2,163.907 1439.51,187.104 1459.81,182.723 1480.12,177.413 1500.43,173.579 1520.74,167.214 1541.05,187.662 1561.35,184.095 1581.66,180.147 1601.97,178.479 1622.28,173.633 1642.59,184.915 1662.89,183.754 1683.2,182.016 1703.51,175.852 1723.82,193.993 1744.13,189.135 1764.43,185.677 1784.74,182.536 1805.05,173.608 1825.36,188.206 1845.67,184.4 1865.97,178.306 1886.28,173.942 1906.59,166.433 1926.9,176.887 1947.21,172.786 1967.51,162.354 1987.82,153.879 2008.13,167.721 2028.44,166.739 2048.75,161.807 2069.05,156.151 2089.36,153.829 2109.67,166.71 2129.98,163.233 2150.29,156.081 2170.59,155.017 2190.9,153.452 2211.21,167.609 2231.52,163.335 2251.83,158.969 2272.13,154.997 2292.44,163.674 "></polyline>
<path clip-path="url(#clip370)" d="M1782.45 1377.32 L2281.72 1377.32 L2281.72 962.595 L1782.45 962.595  Z" fill="#ffffff" fill-rule="evenodd" fill-opacity="1"></path>
<polyline clip-path="url(#clip370)" style="stroke:#000000; stroke-linecap:round; stroke-linejoin:round; stroke-width:4; stroke-opacity:1; fill:none" points="1782.45,1377.32 2281.72,1377.32 2281.72,962.595 1782.45,962.595 1782.45,1377.32 "></polyline>
<polyline clip-path="url(#clip370)" style="stroke:#000000; stroke-linecap:round; stroke-linejoin:round; stroke-width:4; stroke-opacity:1; fill:none" stroke-dasharray="2, 4" points="1806.13,1014.44 1948.2,1014.44 "></polyline>
<path clip-path="url(#clip370)" d="M1997.44 1026.78 L1997.44 1017.5 L1989.8 1017.5 L1989.8 1013.66 L2002.07 1013.66 L2002.07 1028.5 Q1999.36 1030.42 1996.1 1031.41 Q1992.83 1032.39 1989.13 1032.39 Q1981.03 1032.39 1976.44 1027.66 Q1971.88 1022.92 1971.88 1014.47 Q1971.88 1006 1976.44 1001.28 Q1981.03 996.53 1989.13 996.53 Q1992.51 996.53 1995.54 997.364 Q1998.6 998.197 2001.17 999.817 L2001.17 1004.79 Q1998.57 1002.6 1995.66 1001.48 Q1992.74 1000.37 1989.52 1000.37 Q1983.18 1000.37 1979.99 1003.91 Q1976.81 1007.46 1976.81 1014.47 Q1976.81 1021.46 1979.99 1025 Q1983.18 1028.54 1989.52 1028.54 Q1992 1028.54 1993.94 1028.13 Q1995.89 1027.69 1997.44 1026.78 Z" fill="#000000" fill-rule="nonzero" fill-opacity="1"></path><path clip-path="url(#clip370)" d="M2004.13 997.155 L2033.36 997.155 L2033.36 1001.09 L2021.1 1001.09 L2021.1 1031.72 L2016.4 1031.72 L2016.4 1001.09 L2004.13 1001.09 L2004.13 997.155 Z" fill="#000000" fill-rule="nonzero" fill-opacity="1"></path><path clip-path="url(#clip370)" d="M2032.25 997.155 L2061.49 997.155 L2061.49 1001.09 L2049.22 1001.09 L2049.22 1031.72 L2044.52 1031.72 L2044.52 1001.09 L2032.25 1001.09 L2032.25 997.155 Z" fill="#000000" fill-rule="nonzero" fill-opacity="1"></path><polyline clip-path="url(#clip370)" style="stroke:#e26f46; stroke-linecap:round; stroke-linejoin:round; stroke-width:4; stroke-opacity:1; fill:none" stroke-dasharray="16, 10" points="1806.13,1066.28 1948.2,1066.28 "></polyline>
<path clip-path="url(#clip370)" d="M1971.88 1049 L2001.12 1049 L2001.12 1052.93 L1988.85 1052.93 L1988.85 1083.56 L1984.15 1083.56 L1984.15 1052.93 L1971.88 1052.93 L1971.88 1049 Z" fill="#000000" fill-rule="nonzero" fill-opacity="1"></path><path clip-path="url(#clip370)" d="M2000.01 1049 L2029.24 1049 L2029.24 1052.93 L2016.98 1052.93 L2016.98 1083.56 L2012.28 1083.56 L2012.28 1052.93 L2000.01 1052.93 L2000.01 1049 Z" fill="#000000" fill-rule="nonzero" fill-opacity="1"></path><path clip-path="url(#clip370)" d="M2043.8 1047.58 Q2040.7 1052.91 2039.2 1058.12 Q2037.69 1063.32 2037.69 1068.67 Q2037.69 1074.02 2039.2 1079.27 Q2040.73 1084.5 2043.8 1089.81 L2040.1 1089.81 Q2036.63 1084.37 2034.89 1079.11 Q2033.18 1073.86 2033.18 1068.67 Q2033.18 1063.51 2034.89 1058.28 Q2036.61 1053.05 2040.1 1047.58 L2043.8 1047.58 Z" fill="#000000" fill-rule="nonzero" fill-opacity="1"></path><path clip-path="url(#clip370)" d="M2053.48 1079.62 L2061.12 1079.62 L2061.12 1053.25 L2052.81 1054.92 L2052.81 1050.66 L2061.07 1049 L2065.75 1049 L2065.75 1079.62 L2073.39 1079.62 L2073.39 1083.56 L2053.48 1083.56 L2053.48 1079.62 Z" fill="#000000" fill-rule="nonzero" fill-opacity="1"></path><path clip-path="url(#clip370)" d="M2081.56 1047.58 L2085.26 1047.58 Q2088.73 1053.05 2090.45 1058.28 Q2092.18 1063.51 2092.18 1068.67 Q2092.18 1073.86 2090.45 1079.11 Q2088.73 1084.37 2085.26 1089.81 L2081.56 1089.81 Q2084.64 1084.5 2086.14 1079.27 Q2087.67 1074.02 2087.67 1068.67 Q2087.67 1063.32 2086.14 1058.12 Q2084.64 1052.91 2081.56 1047.58 Z" fill="#000000" fill-rule="nonzero" fill-opacity="1"></path><polyline clip-path="url(#clip370)" style="stroke:#3da44d; stroke-linecap:round; stroke-linejoin:round; stroke-width:4; stroke-opacity:1; fill:none" stroke-dasharray="16, 10" points="1806.13,1118.12 1948.2,1118.12 "></polyline>
<path clip-path="url(#clip370)" d="M1971.88 1100.84 L2001.12 1100.84 L2001.12 1104.77 L1988.85 1104.77 L1988.85 1135.4 L1984.15 1135.4 L1984.15 1104.77 L1971.88 1104.77 L1971.88 1100.84 Z" fill="#000000" fill-rule="nonzero" fill-opacity="1"></path><path clip-path="url(#clip370)" d="M2000.01 1100.84 L2029.24 1100.84 L2029.24 1104.77 L2016.98 1104.77 L2016.98 1135.4 L2012.28 1135.4 L2012.28 1104.77 L2000.01 1104.77 L2000.01 1100.84 Z" fill="#000000" fill-rule="nonzero" fill-opacity="1"></path><path clip-path="url(#clip370)" d="M2043.8 1099.42 Q2040.7 1104.75 2039.2 1109.96 Q2037.69 1115.16 2037.69 1120.51 Q2037.69 1125.86 2039.2 1131.11 Q2040.73 1136.34 2043.8 1141.65 L2040.1 1141.65 Q2036.63 1136.21 2034.89 1130.95 Q2033.18 1125.7 2033.18 1120.51 Q2033.18 1115.35 2034.89 1110.12 Q2036.61 1104.89 2040.1 1099.42 L2043.8 1099.42 Z" fill="#000000" fill-rule="nonzero" fill-opacity="1"></path><path clip-path="url(#clip370)" d="M2056.7 1131.46 L2073.02 1131.46 L2073.02 1135.4 L2051.07 1135.4 L2051.07 1131.46 Q2053.74 1128.71 2058.32 1124.08 Q2062.92 1119.42 2064.11 1118.08 Q2066.35 1115.56 2067.23 1113.82 Q2068.13 1112.06 2068.13 1110.37 Q2068.13 1107.62 2066.19 1105.88 Q2064.27 1104.15 2061.17 1104.15 Q2058.97 1104.15 2056.51 1104.91 Q2054.08 1105.67 2051.3 1107.22 L2051.3 1102.5 Q2054.13 1101.37 2056.58 1100.79 Q2059.04 1100.21 2061.07 1100.21 Q2066.44 1100.21 2069.64 1102.9 Q2072.83 1105.58 2072.83 1110.07 Q2072.83 1112.2 2072.02 1114.12 Q2071.23 1116.02 2069.13 1118.61 Q2068.55 1119.28 2065.45 1122.5 Q2062.35 1125.7 2056.7 1131.46 Z" fill="#000000" fill-rule="nonzero" fill-opacity="1"></path><path clip-path="url(#clip370)" d="M2081.56 1099.42 L2085.26 1099.42 Q2088.73 1104.89 2090.45 1110.12 Q2092.18 1115.35 2092.18 1120.51 Q2092.18 1125.7 2090.45 1130.95 Q2088.73 1136.21 2085.26 1141.65 L2081.56 1141.65 Q2084.64 1136.34 2086.14 1131.11 Q2087.67 1125.86 2087.67 1120.51 Q2087.67 1115.16 2086.14 1109.96 Q2084.64 1104.75 2081.56 1099.42 Z" fill="#000000" fill-rule="nonzero" fill-opacity="1"></path><polyline clip-path="url(#clip370)" style="stroke:#c271d2; stroke-linecap:round; stroke-linejoin:round; stroke-width:4; stroke-opacity:1; fill:none" stroke-dasharray="16, 10" points="1806.13,1169.96 1948.2,1169.96 "></polyline>
<path clip-path="url(#clip370)" d="M1971.88 1152.68 L2001.12 1152.68 L2001.12 1156.61 L1988.85 1156.61 L1988.85 1187.24 L1984.15 1187.24 L1984.15 1156.61 L1971.88 1156.61 L1971.88 1152.68 Z" fill="#000000" fill-rule="nonzero" fill-opacity="1"></path><path clip-path="url(#clip370)" d="M2000.01 1152.68 L2029.24 1152.68 L2029.24 1156.61 L2016.98 1156.61 L2016.98 1187.24 L2012.28 1187.24 L2012.28 1156.61 L2000.01 1156.61 L2000.01 1152.68 Z" fill="#000000" fill-rule="nonzero" fill-opacity="1"></path><path clip-path="url(#clip370)" d="M2043.8 1151.26 Q2040.7 1156.59 2039.2 1161.8 Q2037.69 1167 2037.69 1172.35 Q2037.69 1177.7 2039.2 1182.95 Q2040.73 1188.18 2043.8 1193.49 L2040.1 1193.49 Q2036.63 1188.05 2034.89 1182.79 Q2033.18 1177.54 2033.18 1172.35 Q2033.18 1167.19 2034.89 1161.96 Q2036.61 1156.73 2040.1 1151.26 L2043.8 1151.26 Z" fill="#000000" fill-rule="nonzero" fill-opacity="1"></path><path clip-path="url(#clip370)" d="M2053.48 1183.3 L2061.12 1183.3 L2061.12 1156.93 L2052.81 1158.6 L2052.81 1154.34 L2061.07 1152.68 L2065.75 1152.68 L2065.75 1183.3 L2073.39 1183.3 L2073.39 1187.24 L2053.48 1187.24 L2053.48 1183.3 Z" fill="#000000" fill-rule="nonzero" fill-opacity="1"></path><path clip-path="url(#clip370)" d="M2095.68 1156.75 L2083.87 1175.2 L2095.68 1175.2 L2095.68 1156.75 M2094.45 1152.68 L2100.33 1152.68 L2100.33 1175.2 L2105.26 1175.2 L2105.26 1179.09 L2100.33 1179.09 L2100.33 1187.24 L2095.68 1187.24 L2095.68 1179.09 L2080.08 1179.09 L2080.08 1174.57 L2094.45 1152.68 Z" fill="#000000" fill-rule="nonzero" fill-opacity="1"></path><path clip-path="url(#clip370)" d="M2111.72 1151.26 L2115.42 1151.26 Q2118.9 1156.73 2120.61 1161.96 Q2122.35 1167.19 2122.35 1172.35 Q2122.35 1177.54 2120.61 1182.79 Q2118.9 1188.05 2115.42 1193.49 L2111.72 1193.49 Q2114.8 1188.18 2116.3 1182.95 Q2117.83 1177.7 2117.83 1172.35 Q2117.83 1167 2116.3 1161.8 Q2114.8 1156.59 2111.72 1151.26 Z" fill="#000000" fill-rule="nonzero" fill-opacity="1"></path><polyline clip-path="url(#clip370)" style="stroke:#ac8d18; stroke-linecap:round; stroke-linejoin:round; stroke-width:4; stroke-opacity:1; fill:none" points="1806.13,1221.8 1948.2,1221.8 "></polyline>
<path clip-path="url(#clip370)" d="M1971.88 1204.52 L2001.12 1204.52 L2001.12 1208.45 L1988.85 1208.45 L1988.85 1239.08 L1984.15 1239.08 L1984.15 1208.45 L1971.88 1208.45 L1971.88 1204.52 Z" fill="#000000" fill-rule="nonzero" fill-opacity="1"></path><path clip-path="url(#clip370)" d="M2000.01 1204.52 L2029.24 1204.52 L2029.24 1208.45 L2016.98 1208.45 L2016.98 1239.08 L2012.28 1239.08 L2012.28 1208.45 L2000.01 1208.45 L2000.01 1204.52 Z" fill="#000000" fill-rule="nonzero" fill-opacity="1"></path><path clip-path="url(#clip370)" d="M2043.8 1203.1 Q2040.7 1208.43 2039.2 1213.64 Q2037.69 1218.84 2037.69 1224.19 Q2037.69 1229.54 2039.2 1234.79 Q2040.73 1240.02 2043.8 1245.33 L2040.1 1245.33 Q2036.63 1239.89 2034.89 1234.63 Q2033.18 1229.38 2033.18 1224.19 Q2033.18 1219.03 2034.89 1213.8 Q2036.61 1208.57 2040.1 1203.1 L2043.8 1203.1 Z" fill="#000000" fill-rule="nonzero" fill-opacity="1"></path><path clip-path="url(#clip370)" d="M2066.84 1220.44 Q2070.19 1221.16 2072.07 1223.43 Q2073.97 1225.7 2073.97 1229.03 Q2073.97 1234.14 2070.45 1236.95 Q2066.93 1239.75 2060.45 1239.75 Q2058.27 1239.75 2055.96 1239.31 Q2053.67 1238.89 2051.21 1238.03 L2051.21 1233.52 Q2053.16 1234.65 2055.47 1235.23 Q2057.79 1235.81 2060.31 1235.81 Q2064.71 1235.81 2067 1234.08 Q2069.31 1232.34 2069.31 1229.03 Q2069.31 1225.97 2067.16 1224.26 Q2065.03 1222.52 2061.21 1222.52 L2057.18 1222.52 L2057.18 1218.68 L2061.4 1218.68 Q2064.85 1218.68 2066.67 1217.32 Q2068.5 1215.93 2068.5 1213.33 Q2068.5 1210.67 2066.61 1209.26 Q2064.73 1207.83 2061.21 1207.83 Q2059.29 1207.83 2057.09 1208.24 Q2054.89 1208.66 2052.25 1209.54 L2052.25 1205.37 Q2054.92 1204.63 2057.23 1204.26 Q2059.57 1203.89 2061.63 1203.89 Q2066.95 1203.89 2070.05 1206.32 Q2073.16 1208.73 2073.16 1212.85 Q2073.16 1215.72 2071.51 1217.71 Q2069.87 1219.68 2066.84 1220.44 Z" fill="#000000" fill-rule="nonzero" fill-opacity="1"></path><path clip-path="url(#clip370)" d="M2092.83 1207.59 Q2089.22 1207.59 2087.39 1211.16 Q2085.59 1214.7 2085.59 1221.83 Q2085.59 1228.94 2087.39 1232.5 Q2089.22 1236.04 2092.83 1236.04 Q2096.47 1236.04 2098.27 1232.5 Q2100.1 1228.94 2100.1 1221.83 Q2100.1 1214.7 2098.27 1211.16 Q2096.47 1207.59 2092.83 1207.59 M2092.83 1203.89 Q2098.64 1203.89 2101.7 1208.5 Q2104.78 1213.08 2104.78 1221.83 Q2104.78 1230.56 2101.7 1235.16 Q2098.64 1239.75 2092.83 1239.75 Q2087.02 1239.75 2083.94 1235.16 Q2080.89 1230.56 2080.89 1221.83 Q2080.89 1213.08 2083.94 1208.5 Q2087.02 1203.89 2092.83 1203.89 Z" fill="#000000" fill-rule="nonzero" fill-opacity="1"></path><path clip-path="url(#clip370)" d="M2122.99 1222.66 Q2119.66 1222.66 2117.74 1224.45 Q2115.84 1226.23 2115.84 1229.35 Q2115.84 1232.48 2117.74 1234.26 Q2119.66 1236.04 2122.99 1236.04 Q2126.33 1236.04 2128.25 1234.26 Q2130.17 1232.45 2130.17 1229.35 Q2130.17 1226.23 2128.25 1224.45 Q2126.35 1222.66 2122.99 1222.66 M2118.32 1220.67 Q2115.31 1219.93 2113.62 1217.87 Q2111.95 1215.81 2111.95 1212.85 Q2111.95 1208.71 2114.89 1206.3 Q2117.86 1203.89 2122.99 1203.89 Q2128.16 1203.89 2131.1 1206.3 Q2134.04 1208.71 2134.04 1212.85 Q2134.04 1215.81 2132.35 1217.87 Q2130.68 1219.93 2127.69 1220.67 Q2131.07 1221.46 2132.95 1223.75 Q2134.85 1226.04 2134.85 1229.35 Q2134.85 1234.38 2131.77 1237.06 Q2128.71 1239.75 2122.99 1239.75 Q2117.28 1239.75 2114.2 1237.06 Q2111.14 1234.38 2111.14 1229.35 Q2111.14 1226.04 2113.04 1223.75 Q2114.94 1221.46 2118.32 1220.67 M2116.61 1213.29 Q2116.61 1215.97 2118.27 1217.48 Q2119.96 1218.98 2122.99 1218.98 Q2126 1218.98 2127.69 1217.48 Q2129.41 1215.97 2129.41 1213.29 Q2129.41 1210.6 2127.69 1209.1 Q2126 1207.59 2122.99 1207.59 Q2119.96 1207.59 2118.27 1209.1 Q2116.61 1210.6 2116.61 1213.29 Z" fill="#000000" fill-rule="nonzero" fill-opacity="1"></path><path clip-path="url(#clip370)" d="M2143.16 1233.2 L2148.04 1233.2 L2148.04 1239.08 L2143.16 1239.08 L2143.16 1233.2 Z" fill="#000000" fill-rule="nonzero" fill-opacity="1"></path><path clip-path="url(#clip370)" d="M2168.23 1207.59 Q2164.61 1207.59 2162.79 1211.16 Q2160.98 1214.7 2160.98 1221.83 Q2160.98 1228.94 2162.79 1232.5 Q2164.61 1236.04 2168.23 1236.04 Q2171.86 1236.04 2173.66 1232.5 Q2175.49 1228.94 2175.49 1221.83 Q2175.49 1214.7 2173.66 1211.16 Q2171.86 1207.59 2168.23 1207.59 M2168.23 1203.89 Q2174.04 1203.89 2177.09 1208.5 Q2180.17 1213.08 2180.17 1221.83 Q2180.17 1230.56 2177.09 1235.16 Q2174.04 1239.75 2168.23 1239.75 Q2162.42 1239.75 2159.34 1235.16 Q2156.28 1230.56 2156.28 1221.83 Q2156.28 1213.08 2159.34 1208.5 Q2162.42 1203.89 2168.23 1203.89 Z" fill="#000000" fill-rule="nonzero" fill-opacity="1"></path><path clip-path="url(#clip370)" d="M2188.87 1233.2 L2193.76 1233.2 L2193.76 1237.18 L2189.96 1244.58 L2186.98 1244.58 L2188.87 1237.18 L2188.87 1233.2 Z" fill="#000000" fill-rule="nonzero" fill-opacity="1"></path><path clip-path="url(#clip370)" d="M2219.34 1235.14 L2226.97 1235.14 L2226.97 1208.77 L2218.66 1210.44 L2218.66 1206.18 L2226.93 1204.52 L2231.6 1204.52 L2231.6 1235.14 L2239.24 1235.14 L2239.24 1239.08 L2219.34 1239.08 L2219.34 1235.14 Z" fill="#000000" fill-rule="nonzero" fill-opacity="1"></path><path clip-path="url(#clip370)" d="M2247.41 1203.1 L2251.12 1203.1 Q2254.59 1208.57 2256.3 1213.8 Q2258.04 1219.03 2258.04 1224.19 Q2258.04 1229.38 2256.3 1234.63 Q2254.59 1239.89 2251.12 1245.33 L2247.41 1245.33 Q2250.49 1240.02 2252 1234.79 Q2253.53 1229.54 2253.53 1224.19 Q2253.53 1218.84 2252 1213.64 Q2250.49 1208.43 2247.41 1203.1 Z" fill="#000000" fill-rule="nonzero" fill-opacity="1"></path><polyline clip-path="url(#clip370)" style="stroke:#00a9ad; stroke-linecap:round; stroke-linejoin:round; stroke-width:4; stroke-opacity:1; fill:none" points="1806.13,1273.64 1948.2,1273.64 "></polyline>
<path clip-path="url(#clip370)" d="M1971.88 1256.36 L2001.12 1256.36 L2001.12 1260.29 L1988.85 1260.29 L1988.85 1290.92 L1984.15 1290.92 L1984.15 1260.29 L1971.88 1260.29 L1971.88 1256.36 Z" fill="#000000" fill-rule="nonzero" fill-opacity="1"></path><path clip-path="url(#clip370)" d="M2000.01 1256.36 L2029.24 1256.36 L2029.24 1260.29 L2016.98 1260.29 L2016.98 1290.92 L2012.28 1290.92 L2012.28 1260.29 L2000.01 1260.29 L2000.01 1256.36 Z" fill="#000000" fill-rule="nonzero" fill-opacity="1"></path><path clip-path="url(#clip370)" d="M2043.8 1254.94 Q2040.7 1260.27 2039.2 1265.48 Q2037.69 1270.68 2037.69 1276.03 Q2037.69 1281.38 2039.2 1286.63 Q2040.73 1291.86 2043.8 1297.17 L2040.1 1297.17 Q2036.63 1291.73 2034.89 1286.47 Q2033.18 1281.22 2033.18 1276.03 Q2033.18 1270.87 2034.89 1265.64 Q2036.61 1260.41 2040.1 1254.94 L2043.8 1254.94 Z" fill="#000000" fill-rule="nonzero" fill-opacity="1"></path><path clip-path="url(#clip370)" d="M2053.48 1286.98 L2061.12 1286.98 L2061.12 1260.61 L2052.81 1262.28 L2052.81 1258.02 L2061.07 1256.36 L2065.75 1256.36 L2065.75 1286.98 L2073.39 1286.98 L2073.39 1290.92 L2053.48 1290.92 L2053.48 1286.98 Z" fill="#000000" fill-rule="nonzero" fill-opacity="1"></path><path clip-path="url(#clip370)" d="M2082.88 1256.36 L2101.23 1256.36 L2101.23 1260.29 L2087.16 1260.29 L2087.16 1268.76 Q2088.18 1268.42 2089.2 1268.25 Q2090.22 1268.07 2091.23 1268.07 Q2097.02 1268.07 2100.4 1271.24 Q2103.78 1274.41 2103.78 1279.83 Q2103.78 1285.41 2100.31 1288.51 Q2096.84 1291.59 2090.52 1291.59 Q2088.34 1291.59 2086.07 1291.22 Q2083.83 1290.85 2081.42 1290.11 L2081.42 1285.41 Q2083.5 1286.54 2085.73 1287.1 Q2087.95 1287.65 2090.42 1287.65 Q2094.43 1287.65 2096.77 1285.54 Q2099.11 1283.44 2099.11 1279.83 Q2099.11 1276.22 2096.77 1274.11 Q2094.43 1272 2090.42 1272 Q2088.55 1272 2086.67 1272.42 Q2084.82 1272.84 2082.88 1273.72 L2082.88 1256.36 Z" fill="#000000" fill-rule="nonzero" fill-opacity="1"></path><path clip-path="url(#clip370)" d="M2125.84 1260.43 L2114.04 1278.88 L2125.84 1278.88 L2125.84 1260.43 M2124.61 1256.36 L2130.49 1256.36 L2130.49 1278.88 L2135.42 1278.88 L2135.42 1282.77 L2130.49 1282.77 L2130.49 1290.92 L2125.84 1290.92 L2125.84 1282.77 L2110.24 1282.77 L2110.24 1278.25 L2124.61 1256.36 Z" fill="#000000" fill-rule="nonzero" fill-opacity="1"></path><path clip-path="url(#clip370)" d="M2143.16 1285.04 L2148.04 1285.04 L2148.04 1290.92 L2143.16 1290.92 L2143.16 1285.04 Z" fill="#000000" fill-rule="nonzero" fill-opacity="1"></path><path clip-path="url(#clip370)" d="M2168.23 1259.43 Q2164.61 1259.43 2162.79 1263 Q2160.98 1266.54 2160.98 1273.67 Q2160.98 1280.78 2162.79 1284.34 Q2164.61 1287.88 2168.23 1287.88 Q2171.86 1287.88 2173.66 1284.34 Q2175.49 1280.78 2175.49 1273.67 Q2175.49 1266.54 2173.66 1263 Q2171.86 1259.43 2168.23 1259.43 M2168.23 1255.73 Q2174.04 1255.73 2177.09 1260.34 Q2180.17 1264.92 2180.17 1273.67 Q2180.17 1282.4 2177.09 1287 Q2174.04 1291.59 2168.23 1291.59 Q2162.42 1291.59 2159.34 1287 Q2156.28 1282.4 2156.28 1273.67 Q2156.28 1264.92 2159.34 1260.34 Q2162.42 1255.73 2168.23 1255.73 Z" fill="#000000" fill-rule="nonzero" fill-opacity="1"></path><path clip-path="url(#clip370)" d="M2188.87 1285.04 L2193.76 1285.04 L2193.76 1289.02 L2189.96 1296.42 L2186.98 1296.42 L2188.87 1289.02 L2188.87 1285.04 Z" fill="#000000" fill-rule="nonzero" fill-opacity="1"></path><path clip-path="url(#clip370)" d="M2222.55 1286.98 L2238.87 1286.98 L2238.87 1290.92 L2216.93 1290.92 L2216.93 1286.98 Q2219.59 1284.23 2224.17 1279.6 Q2228.78 1274.94 2229.96 1273.6 Q2232.21 1271.08 2233.09 1269.34 Q2233.99 1267.58 2233.99 1265.89 Q2233.99 1263.14 2232.04 1261.4 Q2230.12 1259.67 2227.02 1259.67 Q2224.82 1259.67 2222.37 1260.43 Q2219.94 1261.19 2217.16 1262.74 L2217.16 1258.02 Q2219.98 1256.89 2222.44 1256.31 Q2224.89 1255.73 2226.93 1255.73 Q2232.3 1255.73 2235.49 1258.42 Q2238.69 1261.1 2238.69 1265.59 Q2238.69 1267.72 2237.88 1269.64 Q2237.09 1271.54 2234.98 1274.13 Q2234.41 1274.8 2231.3 1278.02 Q2228.2 1281.22 2222.55 1286.98 Z" fill="#000000" fill-rule="nonzero" fill-opacity="1"></path><path clip-path="url(#clip370)" d="M2247.41 1254.94 L2251.12 1254.94 Q2254.59 1260.41 2256.3 1265.64 Q2258.04 1270.87 2258.04 1276.03 Q2258.04 1281.22 2256.3 1286.47 Q2254.59 1291.73 2251.12 1297.17 L2247.41 1297.17 Q2250.49 1291.86 2252 1286.63 Q2253.53 1281.38 2253.53 1276.03 Q2253.53 1270.68 2252 1265.48 Q2250.49 1260.27 2247.41 1254.94 Z" fill="#000000" fill-rule="nonzero" fill-opacity="1"></path><polyline clip-path="url(#clip370)" style="stroke:#ed5d92; stroke-linecap:round; stroke-linejoin:round; stroke-width:4; stroke-opacity:1; fill:none" points="1806.13,1325.48 1948.2,1325.48 "></polyline>
<path clip-path="url(#clip370)" d="M1971.88 1308.2 L2001.12 1308.2 L2001.12 1312.13 L1988.85 1312.13 L1988.85 1342.76 L1984.15 1342.76 L1984.15 1312.13 L1971.88 1312.13 L1971.88 1308.2 Z" fill="#000000" fill-rule="nonzero" fill-opacity="1"></path><path clip-path="url(#clip370)" d="M2000.01 1308.2 L2029.24 1308.2 L2029.24 1312.13 L2016.98 1312.13 L2016.98 1342.76 L2012.28 1342.76 L2012.28 1312.13 L2000.01 1312.13 L2000.01 1308.2 Z" fill="#000000" fill-rule="nonzero" fill-opacity="1"></path><path clip-path="url(#clip370)" d="M2043.8 1306.78 Q2040.7 1312.11 2039.2 1317.32 Q2037.69 1322.52 2037.69 1327.87 Q2037.69 1333.22 2039.2 1338.47 Q2040.73 1343.7 2043.8 1349.01 L2040.1 1349.01 Q2036.63 1343.57 2034.89 1338.31 Q2033.18 1333.06 2033.18 1327.87 Q2033.18 1322.71 2034.89 1317.48 Q2036.61 1312.25 2040.1 1306.78 L2043.8 1306.78 Z" fill="#000000" fill-rule="nonzero" fill-opacity="1"></path><path clip-path="url(#clip370)" d="M2056.7 1338.82 L2073.02 1338.82 L2073.02 1342.76 L2051.07 1342.76 L2051.07 1338.82 Q2053.74 1336.07 2058.32 1331.44 Q2062.92 1326.78 2064.11 1325.44 Q2066.35 1322.92 2067.23 1321.18 Q2068.13 1319.42 2068.13 1317.73 Q2068.13 1314.98 2066.19 1313.24 Q2064.27 1311.51 2061.17 1311.51 Q2058.97 1311.51 2056.51 1312.27 Q2054.08 1313.03 2051.3 1314.58 L2051.3 1309.86 Q2054.13 1308.73 2056.58 1308.15 Q2059.04 1307.57 2061.07 1307.57 Q2066.44 1307.57 2069.64 1310.26 Q2072.83 1312.94 2072.83 1317.43 Q2072.83 1319.56 2072.02 1321.48 Q2071.23 1323.38 2069.13 1325.97 Q2068.55 1326.64 2065.45 1329.86 Q2062.35 1333.06 2056.7 1338.82 Z" fill="#000000" fill-rule="nonzero" fill-opacity="1"></path><path clip-path="url(#clip370)" d="M2086.86 1338.82 L2103.18 1338.82 L2103.18 1342.76 L2081.23 1342.76 L2081.23 1338.82 Q2083.9 1336.07 2088.48 1331.44 Q2093.09 1326.78 2094.27 1325.44 Q2096.51 1322.92 2097.39 1321.18 Q2098.29 1319.42 2098.29 1317.73 Q2098.29 1314.98 2096.35 1313.24 Q2094.43 1311.51 2091.33 1311.51 Q2089.13 1311.51 2086.67 1312.27 Q2084.24 1313.03 2081.47 1314.58 L2081.47 1309.86 Q2084.29 1308.73 2086.74 1308.15 Q2089.2 1307.57 2091.23 1307.57 Q2096.61 1307.57 2099.8 1310.26 Q2102.99 1312.94 2102.99 1317.43 Q2102.99 1319.56 2102.18 1321.48 Q2101.4 1323.38 2099.29 1325.97 Q2098.71 1326.64 2095.61 1329.86 Q2092.51 1333.06 2086.86 1338.82 Z" fill="#000000" fill-rule="nonzero" fill-opacity="1"></path><path clip-path="url(#clip370)" d="M2112.99 1336.88 L2117.88 1336.88 L2117.88 1342.76 L2112.99 1342.76 L2112.99 1336.88 Z" fill="#000000" fill-rule="nonzero" fill-opacity="1"></path><path clip-path="url(#clip370)" d="M2138.06 1311.27 Q2134.45 1311.27 2132.62 1314.84 Q2130.82 1318.38 2130.82 1325.51 Q2130.82 1332.62 2132.62 1336.18 Q2134.45 1339.72 2138.06 1339.72 Q2141.7 1339.72 2143.5 1336.18 Q2145.33 1332.62 2145.33 1325.51 Q2145.33 1318.38 2143.5 1314.84 Q2141.7 1311.27 2138.06 1311.27 M2138.06 1307.57 Q2143.87 1307.57 2146.93 1312.18 Q2150.01 1316.76 2150.01 1325.51 Q2150.01 1334.24 2146.93 1338.84 Q2143.87 1343.43 2138.06 1343.43 Q2132.25 1343.43 2129.17 1338.84 Q2126.12 1334.24 2126.12 1325.51 Q2126.12 1316.76 2129.17 1312.18 Q2132.25 1307.57 2138.06 1307.57 Z" fill="#000000" fill-rule="nonzero" fill-opacity="1"></path><path clip-path="url(#clip370)" d="M2158.71 1336.88 L2163.6 1336.88 L2163.6 1340.86 L2159.8 1348.26 L2156.81 1348.26 L2158.71 1340.86 L2158.71 1336.88 Z" fill="#000000" fill-rule="nonzero" fill-opacity="1"></path><path clip-path="url(#clip370)" d="M2189.17 1338.82 L2196.81 1338.82 L2196.81 1312.45 L2188.5 1314.12 L2188.5 1309.86 L2196.77 1308.2 L2201.44 1308.2 L2201.44 1338.82 L2209.08 1338.82 L2209.08 1342.76 L2189.17 1342.76 L2189.17 1338.82 Z" fill="#000000" fill-rule="nonzero" fill-opacity="1"></path><path clip-path="url(#clip370)" d="M2231.37 1312.27 L2219.57 1330.72 L2231.37 1330.72 L2231.37 1312.27 M2230.15 1308.2 L2236.03 1308.2 L2236.03 1330.72 L2240.96 1330.72 L2240.96 1334.61 L2236.03 1334.61 L2236.03 1342.76 L2231.37 1342.76 L2231.37 1334.61 L2215.77 1334.61 L2215.77 1330.09 L2230.15 1308.2 Z" fill="#000000" fill-rule="nonzero" fill-opacity="1"></path><path clip-path="url(#clip370)" d="M2247.41 1306.78 L2251.12 1306.78 Q2254.59 1312.25 2256.3 1317.48 Q2258.04 1322.71 2258.04 1327.87 Q2258.04 1333.06 2256.3 1338.31 Q2254.59 1343.57 2251.12 1349.01 L2247.41 1349.01 Q2250.49 1343.7 2252 1338.47 Q2253.53 1333.22 2253.53 1327.87 Q2253.53 1322.52 2252 1317.32 Q2250.49 1312.11 2247.41 1306.78 Z" fill="#000000" fill-rule="nonzero" fill-opacity="1"></path></svg>