<svg xmlns="http://www.w3.org/2000/svg" xmlns:xlink="http://www.w3.org/1999/xlink" width="600" height="400" viewBox="0 0 2400 1600">
<defs>
  <clipPath id="clip290">
    <rect x="0" y="0" width="2400" height="1600"></rect>
  </clipPath>
</defs>
<path clip-path="url(#clip290)" d="M0 1600 L2400 1600 L2400 0 L0 0  Z" fill="#ffffff" fill-rule="evenodd" fill-opacity="1"></path>
<defs>
  <clipPath id="clip291">
    <rect x="480" y="0" width="1681" height="1600"></rect>
  </clipPath>
</defs>
<path clip-path="url(#clip290)" d="M251.842 1423.18 L2352.76 1423.18 L2352.76 47.2441 L251.842 47.2441  Z" fill="#ffffff" fill-rule="evenodd" fill-opacity="1"></path>
<defs>
  <clipPath id="clip292">
    <rect x="251" y="47" width="2102" height="1377"></rect>
  </clipPath>
</defs>
<polyline clip-path="url(#clip292)" style="stroke:#000000; stroke-linecap:round; stroke-linejoin:round; stroke-width:2; stroke-opacity:0.1; fill:none" points="291.282,1423.18 291.282,47.2441 "></polyline>
<polyline clip-path="url(#clip292)" style="stroke:#000000; stroke-linecap:round; stroke-linejoin:round; stroke-width:2; stroke-opacity:0.1; fill:none" points="791.786,1423.18 791.786,47.2441 "></polyline>
<polyline clip-path="url(#clip292)" style="stroke:#000000; stroke-linecap:round; stroke-linejoin:round; stroke-width:2; stroke-opacity:0.1; fill:none" points="1292.29,1423.18 1292.29,47.2441 "></polyline>
<polyline clip-path="url(#clip292)" style="stroke:#000000; stroke-linecap:round; stroke-linejoin:round; stroke-width:2; stroke-opacity:0.1; fill:none" points="1792.79,1423.18 1792.79,47.2441 "></polyline>
<polyline clip-path="url(#clip292)" style="stroke:#000000; stroke-linecap:round; stroke-linejoin:round; stroke-width:2; stroke-opacity:0.1; fill:none" points="2293.3,1423.18 2293.3,47.2441 "></polyline>
<polyline clip-path="url(#clip292)" style="stroke:#000000; stroke-linecap:round; stroke-linejoin:round; stroke-width:2; stroke-opacity:0.1; fill:none" points="251.842,1117.32 2352.76,1117.32 "></polyline>
<polyline clip-path="url(#clip292)" style="stroke:#000000; stroke-linecap:round; stroke-linejoin:round; stroke-width:2; stroke-opacity:0.1; fill:none" points="251.842,429.128 2352.76,429.128 "></polyline>
<polyline clip-path="url(#clip290)" style="stroke:#000000; stroke-linecap:round; stroke-linejoin:round; stroke-width:4; stroke-opacity:1; fill:none" points="251.842,1423.18 2352.76,1423.18 "></polyline>
<polyline clip-path="url(#clip290)" style="stroke:#000000; stroke-linecap:round; stroke-linejoin:round; stroke-width:4; stroke-opacity:1; fill:none" points="291.282,1423.18 291.282,1404.28 "></polyline>
<polyline clip-path="url(#clip290)" style="stroke:#000000; stroke-linecap:round; stroke-linejoin:round; stroke-width:4; stroke-opacity:1; fill:none" points="791.786,1423.18 791.786,1404.28 "></polyline>
<polyline clip-path="url(#clip290)" style="stroke:#000000; stroke-linecap:round; stroke-linejoin:round; stroke-width:4; stroke-opacity:1; fill:none" points="1292.29,1423.18 1292.29,1404.28 "></polyline>
<polyline clip-path="url(#clip290)" style="stroke:#000000; stroke-linecap:round; stroke-linejoin:round; stroke-width:4; stroke-opacity:1; fill:none" points="1792.79,1423.18 1792.79,1404.28 "></polyline>
<polyline clip-path="url(#clip290)" style="stroke:#000000; stroke-linecap:round; stroke-linejoin:round; stroke-width:4; stroke-opacity:1; fill:none" points="2293.3,1423.18 2293.3,1404.28 "></polyline>
<path clip-path="url(#clip290)" d="M291.282 1454.1 Q287.671 1454.1 285.842 1457.66 Q284.037 1461.2 284.037 1468.33 Q284.037 1475.44 285.842 1479.01 Q287.671 1482.55 291.282 1482.55 Q294.916 1482.55 296.722 1479.01 Q298.551 1475.44 298.551 1468.33 Q298.551 1461.2 296.722 1457.66 Q294.916 1454.1 291.282 1454.1 M291.282 1450.39 Q297.092 1450.39 300.148 1455 Q303.226 1459.58 303.226 1468.33 Q303.226 1477.06 300.148 1481.67 Q297.092 1486.25 291.282 1486.25 Q285.472 1486.25 282.393 1481.67 Q279.338 1477.06 279.338 1468.33 Q279.338 1459.58 282.393 1455 Q285.472 1450.39 291.282 1450.39 Z" fill="#000000" fill-rule="nonzero" fill-opacity="1"></path><path clip-path="url(#clip290)" d="M771.056 1481.64 L787.376 1481.64 L787.376 1485.58 L765.432 1485.58 L765.432 1481.64 Q768.094 1478.89 772.677 1474.26 Q777.283 1469.61 778.464 1468.27 Q780.709 1465.74 781.589 1464.01 Q782.492 1462.25 782.492 1460.56 Q782.492 1457.8 780.547 1456.07 Q778.626 1454.33 775.524 1454.33 Q773.325 1454.33 770.871 1455.09 Q768.441 1455.86 765.663 1457.41 L765.663 1452.69 Q768.487 1451.55 770.941 1450.97 Q773.394 1450.39 775.431 1450.39 Q780.802 1450.39 783.996 1453.08 Q787.191 1455.77 787.191 1460.26 Q787.191 1462.39 786.38 1464.31 Q785.593 1466.2 783.487 1468.8 Q782.908 1469.47 779.806 1472.69 Q776.705 1475.88 771.056 1481.64 Z" fill="#000000" fill-rule="nonzero" fill-opacity="1"></path><path clip-path="url(#clip290)" d="M797.237 1451.02 L815.593 1451.02 L815.593 1454.96 L801.519 1454.96 L801.519 1463.43 Q802.538 1463.08 803.556 1462.92 Q804.575 1462.73 805.593 1462.73 Q811.38 1462.73 814.76 1465.9 Q818.14 1469.08 818.14 1474.49 Q818.14 1480.07 814.667 1483.17 Q811.195 1486.25 804.876 1486.25 Q802.7 1486.25 800.431 1485.88 Q798.186 1485.51 795.779 1484.77 L795.779 1480.07 Q797.862 1481.2 800.084 1481.76 Q802.306 1482.32 804.783 1482.32 Q808.788 1482.32 811.126 1480.21 Q813.464 1478.1 813.464 1474.49 Q813.464 1470.88 811.126 1468.77 Q808.788 1466.67 804.783 1466.67 Q802.908 1466.67 801.033 1467.08 Q799.181 1467.5 797.237 1468.38 L797.237 1451.02 Z" fill="#000000" fill-rule="nonzero" fill-opacity="1"></path><path clip-path="url(#clip290)" d="M1266.99 1451.02 L1285.34 1451.02 L1285.34 1454.96 L1271.27 1454.96 L1271.27 1463.43 Q1272.29 1463.08 1273.31 1462.92 Q1274.33 1462.73 1275.34 1462.73 Q1281.13 1462.73 1284.51 1465.9 Q1287.89 1469.08 1287.89 1474.49 Q1287.89 1480.07 1284.42 1483.17 Q1280.95 1486.25 1274.63 1486.25 Q1272.45 1486.25 1270.18 1485.88 Q1267.94 1485.51 1265.53 1484.77 L1265.53 1480.07 Q1267.61 1481.2 1269.84 1481.76 Q1272.06 1482.32 1274.53 1482.32 Q1278.54 1482.32 1280.88 1480.21 Q1283.22 1478.1 1283.22 1474.49 Q1283.22 1470.88 1280.88 1468.77 Q1278.54 1466.67 1274.53 1466.67 Q1272.66 1466.67 1270.78 1467.08 Q1268.93 1467.5 1266.99 1468.38 L1266.99 1451.02 Z" fill="#000000" fill-rule="nonzero" fill-opacity="1"></path><path clip-path="url(#clip290)" d="M1307.1 1454.1 Q1303.49 1454.1 1301.66 1457.66 Q1299.86 1461.2 1299.86 1468.33 Q1299.86 1475.44 1301.66 1479.01 Q1303.49 1482.55 1307.1 1482.55 Q1310.74 1482.55 1312.54 1479.01 Q1314.37 1475.44 1314.37 1468.33 Q1314.37 1461.2 1312.54 1457.66 Q1310.74 1454.1 1307.1 1454.1 M1307.1 1450.39 Q1312.91 1450.39 1315.97 1455 Q1319.05 1459.58 1319.05 1468.33 Q1319.05 1477.06 1315.97 1481.67 Q1312.91 1486.25 1307.1 1486.25 Q1301.29 1486.25 1298.21 1481.67 Q1295.16 1477.06 1295.16 1468.33 Q1295.16 1459.58 1298.21 1455 Q1301.29 1450.39 1307.1 1450.39 Z" fill="#000000" fill-rule="nonzero" fill-opacity="1"></path><path clip-path="url(#clip290)" d="M1766.65 1451.02 L1788.87 1451.02 L1788.87 1453.01 L1776.32 1485.58 L1771.44 1485.58 L1783.24 1454.96 L1766.65 1454.96 L1766.65 1451.02 Z" fill="#000000" fill-rule="nonzero" fill-opacity="1"></path><path clip-path="url(#clip290)" d="M1798.04 1451.02 L1816.39 1451.02 L1816.39 1454.96 L1802.32 1454.96 L1802.32 1463.43 Q1803.34 1463.08 1804.36 1462.92 Q1805.37 1462.73 1806.39 1462.73 Q1812.18 1462.73 1815.56 1465.9 Q1818.94 1469.08 1818.94 1474.49 Q1818.94 1480.07 1815.47 1483.17 Q1811.99 1486.25 1805.67 1486.25 Q1803.5 1486.25 1801.23 1485.88 Q1798.98 1485.51 1796.58 1484.77 L1796.58 1480.07 Q1798.66 1481.2 1800.88 1481.76 Q1803.11 1482.32 1805.58 1482.32 Q1809.59 1482.32 1811.92 1480.21 Q1814.26 1478.1 1814.26 1474.49 Q1814.26 1470.88 1811.92 1468.77 Q1809.59 1466.67 1805.58 1466.67 Q1803.71 1466.67 1801.83 1467.08 Q1799.98 1467.5 1798.04 1468.38 L1798.04 1451.02 Z" fill="#000000" fill-rule="nonzero" fill-opacity="1"></path><path clip-path="url(#clip290)" d="M2252.9 1481.64 L2260.54 1481.64 L2260.54 1455.28 L2252.23 1456.95 L2252.23 1452.69 L2260.5 1451.02 L2265.17 1451.02 L2265.17 1481.64 L2272.81 1481.64 L2272.81 1485.58 L2252.9 1485.58 L2252.9 1481.64 Z" fill="#000000" fill-rule="nonzero" fill-opacity="1"></path><path clip-path="url(#clip290)" d="M2292.25 1454.1 Q2288.64 1454.1 2286.81 1457.66 Q2285.01 1461.2 2285.01 1468.33 Q2285.01 1475.44 2286.81 1479.01 Q2288.64 1482.55 2292.25 1482.55 Q2295.89 1482.55 2297.69 1479.01 Q2299.52 1475.44 2299.52 1468.33 Q2299.52 1461.2 2297.69 1457.66 Q2295.89 1454.1 2292.25 1454.1 M2292.25 1450.39 Q2298.06 1450.39 2301.12 1455 Q2304.2 1459.58 2304.2 1468.33 Q2304.2 1477.06 2301.12 1481.67 Q2298.06 1486.25 2292.25 1486.25 Q2286.44 1486.25 2283.37 1481.67 Q2280.31 1477.06 2280.31 1468.33 Q2280.31 1459.58 2283.37 1455 Q2286.44 1450.39 2292.25 1450.39 Z" fill="#000000" fill-rule="nonzero" fill-opacity="1"></path><path clip-path="url(#clip290)" d="M2322.42 1454.1 Q2318.81 1454.1 2316.98 1457.66 Q2315.17 1461.2 2315.17 1468.33 Q2315.17 1475.44 2316.98 1479.01 Q2318.81 1482.55 2322.42 1482.55 Q2326.05 1482.55 2327.86 1479.01 Q2329.68 1475.44 2329.68 1468.33 Q2329.68 1461.2 2327.86 1457.66 Q2326.05 1454.1 2322.42 1454.1 M2322.42 1450.39 Q2328.23 1450.39 2331.28 1455 Q2334.36 1459.58 2334.36 1468.33 Q2334.36 1477.06 2331.28 1481.67 Q2328.23 1486.25 2322.42 1486.25 Q2316.61 1486.25 2313.53 1481.67 Q2310.47 1477.06 2310.47 1468.33 Q2310.47 1459.58 2313.53 1455 Q2316.61 1450.39 2322.42 1450.39 Z" fill="#000000" fill-rule="nonzero" fill-opacity="1"></path><path clip-path="url(#clip290)" d="M969.516 1522.08 L969.516 1528.35 Q965.856 1526.6 962.609 1525.74 Q959.363 1524.88 956.339 1524.88 Q951.087 1524.88 948.223 1526.92 Q945.39 1528.96 945.39 1532.71 Q945.39 1535.87 947.268 1537.49 Q949.177 1539.08 954.461 1540.07 L958.344 1540.86 Q965.537 1542.23 968.943 1545.7 Q972.38 1549.14 972.38 1554.93 Q972.38 1561.84 967.734 1565.4 Q963.118 1568.97 954.175 1568.97 Q950.801 1568.97 946.981 1568.2 Q943.194 1567.44 939.12 1565.94 L939.12 1559.32 Q943.035 1561.52 946.79 1562.63 Q950.546 1563.75 954.175 1563.75 Q959.681 1563.75 962.673 1561.58 Q965.665 1559.42 965.665 1555.41 Q965.665 1551.91 963.5 1549.93 Q961.368 1547.96 956.466 1546.97 L952.551 1546.21 Q945.358 1544.78 942.143 1541.72 Q938.929 1538.67 938.929 1533.22 Q938.929 1526.92 943.353 1523.29 Q947.809 1519.66 955.607 1519.66 Q958.949 1519.66 962.418 1520.27 Q965.887 1520.87 969.516 1522.08 Z" fill="#000000" fill-rule="nonzero" fill-opacity="1"></path><path clip-path="url(#clip290)" d="M981.547 1553.98 L981.547 1532.4 L987.404 1532.4 L987.404 1553.75 Q987.404 1558.81 989.377 1561.36 Q991.35 1563.87 995.297 1563.87 Q1000.04 1563.87 1002.78 1560.85 Q1005.55 1557.83 1005.55 1552.61 L1005.55 1532.4 L1011.4 1532.4 L1011.4 1568.04 L1005.55 1568.04 L1005.55 1562.57 Q1003.41 1565.82 1000.58 1567.41 Q997.78 1568.97 994.056 1568.97 Q987.913 1568.97 984.73 1565.15 Q981.547 1561.33 981.547 1553.98 M996.284 1531.54 L996.284 1531.54 Z" fill="#000000" fill-rule="nonzero" fill-opacity="1"></path><path clip-path="url(#clip290)" d="M1049.06 1550.25 Q1049.06 1543.79 1046.38 1540.13 Q1043.74 1536.44 1039.09 1536.44 Q1034.45 1536.44 1031.77 1540.13 Q1029.13 1543.79 1029.13 1550.25 Q1029.13 1556.71 1031.77 1560.4 Q1034.45 1564.07 1039.09 1564.07 Q1043.74 1564.07 1046.38 1560.4 Q1049.06 1556.71 1049.06 1550.25 M1029.13 1537.81 Q1030.98 1534.62 1033.78 1533.1 Q1036.61 1531.54 1040.53 1531.54 Q1047.02 1531.54 1051.06 1536.69 Q1055.13 1541.85 1055.13 1550.25 Q1055.13 1558.65 1051.06 1563.81 Q1047.02 1568.97 1040.53 1568.97 Q1036.61 1568.97 1033.78 1567.44 Q1030.98 1565.88 1029.13 1562.7 L1029.13 1568.04 L1023.24 1568.04 L1023.24 1518.52 L1029.13 1518.52 L1029.13 1537.81 Z" fill="#000000" fill-rule="nonzero" fill-opacity="1"></path><path clip-path="url(#clip290)" d="M1087.57 1533.45 L1087.57 1538.98 Q1085.09 1537.71 1082.41 1537.07 Q1079.74 1536.44 1076.87 1536.44 Q1072.51 1536.44 1070.32 1537.77 Q1068.15 1539.11 1068.15 1541.79 Q1068.15 1543.82 1069.71 1545 Q1071.27 1546.15 1075.98 1547.2 L1077.99 1547.64 Q1084.23 1548.98 1086.84 1551.43 Q1089.48 1553.85 1089.48 1558.21 Q1089.48 1563.17 1085.53 1566.07 Q1081.62 1568.97 1074.74 1568.97 Q1071.88 1568.97 1068.76 1568.39 Q1065.67 1567.85 1062.23 1566.74 L1062.23 1560.69 Q1065.48 1562.38 1068.63 1563.24 Q1071.78 1564.07 1074.87 1564.07 Q1079.01 1564.07 1081.23 1562.66 Q1083.46 1561.23 1083.46 1558.65 Q1083.46 1556.27 1081.84 1554.99 Q1080.25 1553.72 1074.8 1552.54 L1072.77 1552.07 Q1067.32 1550.92 1064.91 1548.56 Q1062.49 1546.18 1062.49 1542.04 Q1062.49 1537.01 1066.05 1534.27 Q1069.62 1531.54 1076.17 1531.54 Q1079.42 1531.54 1082.28 1532.01 Q1085.15 1532.49 1087.57 1533.45 Z" fill="#000000" fill-rule="nonzero" fill-opacity="1"></path><path clip-path="url(#clip290)" d="M1104.47 1562.7 L1104.47 1581.6 L1098.58 1581.6 L1098.58 1532.4 L1104.47 1532.4 L1104.47 1537.81 Q1106.31 1534.62 1109.12 1533.1 Q1111.95 1531.54 1115.86 1531.54 Q1122.36 1531.54 1126.4 1536.69 Q1130.47 1541.85 1130.47 1550.25 Q1130.47 1558.65 1126.4 1563.81 Q1122.36 1568.97 1115.86 1568.97 Q1111.95 1568.97 1109.12 1567.44 Q1106.31 1565.88 1104.47 1562.7 M1124.39 1550.25 Q1124.39 1543.79 1121.72 1540.13 Q1119.08 1536.44 1114.43 1536.44 Q1109.78 1536.44 1107.11 1540.13 Q1104.47 1543.79 1104.47 1550.25 Q1104.47 1556.71 1107.11 1560.4 Q1109.78 1564.07 1114.43 1564.07 Q1119.08 1564.07 1121.72 1560.4 Q1124.39 1556.71 1124.39 1550.25 Z" fill="#000000" fill-rule="nonzero" fill-opacity="1"></path><path clip-path="url(#clip290)" d="M1156.38 1550.12 Q1149.28 1550.12 1146.55 1551.75 Q1143.81 1553.37 1143.81 1557.29 Q1143.81 1560.4 1145.85 1562.25 Q1147.91 1564.07 1151.45 1564.07 Q1156.32 1564.07 1159.25 1560.63 Q1162.21 1557.16 1162.21 1551.43 L1162.21 1550.12 L1156.38 1550.12 M1168.06 1547.71 L1168.06 1568.04 L1162.21 1568.04 L1162.21 1562.63 Q1160.2 1565.88 1157.21 1567.44 Q1154.22 1568.97 1149.89 1568.97 Q1144.41 1568.97 1141.17 1565.91 Q1137.95 1562.82 1137.95 1557.67 Q1137.95 1551.65 1141.96 1548.6 Q1146.01 1545.54 1153.99 1545.54 L1162.21 1545.54 L1162.21 1544.97 Q1162.21 1540.93 1159.53 1538.73 Q1156.89 1536.5 1152.08 1536.5 Q1149.03 1536.5 1146.13 1537.23 Q1143.24 1537.97 1140.56 1539.43 L1140.56 1534.02 Q1143.78 1532.78 1146.8 1532.17 Q1149.82 1531.54 1152.69 1531.54 Q1160.42 1531.54 1164.24 1535.55 Q1168.06 1539.56 1168.06 1547.71 Z" fill="#000000" fill-rule="nonzero" fill-opacity="1"></path><path clip-path="url(#clip290)" d="M1205.78 1533.76 L1205.78 1539.24 Q1203.3 1537.87 1200.78 1537.2 Q1198.3 1536.5 1195.75 1536.5 Q1190.06 1536.5 1186.9 1540.13 Q1183.75 1543.73 1183.75 1550.25 Q1183.75 1556.78 1186.9 1560.4 Q1190.06 1564 1195.75 1564 Q1198.3 1564 1200.78 1563.33 Q1203.3 1562.63 1205.78 1561.26 L1205.78 1566.68 Q1203.33 1567.82 1200.69 1568.39 Q1198.08 1568.97 1195.12 1568.97 Q1187.06 1568.97 1182.32 1563.91 Q1177.58 1558.85 1177.58 1550.25 Q1177.58 1541.53 1182.35 1536.53 Q1187.16 1531.54 1195.5 1531.54 Q1198.2 1531.54 1200.78 1532.11 Q1203.36 1532.65 1205.78 1533.76 Z" fill="#000000" fill-rule="nonzero" fill-opacity="1"></path><path clip-path="url(#clip290)" d="M1246.46 1548.76 L1246.46 1551.62 L1219.53 1551.62 Q1219.91 1557.67 1223.16 1560.85 Q1226.44 1564 1232.26 1564 Q1235.63 1564 1238.79 1563.17 Q1241.97 1562.35 1245.09 1560.69 L1245.09 1566.23 Q1241.94 1567.57 1238.63 1568.27 Q1235.32 1568.97 1231.91 1568.97 Q1223.38 1568.97 1218.38 1564 Q1213.42 1559.04 1213.42 1550.57 Q1213.42 1541.82 1218.13 1536.69 Q1222.87 1531.54 1230.89 1531.54 Q1238.09 1531.54 1242.25 1536.18 Q1246.46 1540.8 1246.46 1548.76 M1240.6 1547.04 Q1240.54 1542.23 1237.89 1539.37 Q1235.28 1536.5 1230.96 1536.5 Q1226.05 1536.5 1223.09 1539.27 Q1220.17 1542.04 1219.72 1547.07 L1240.6 1547.04 Z" fill="#000000" fill-rule="nonzero" fill-opacity="1"></path><path clip-path="url(#clip290)" d="M1300.25 1537.81 L1300.25 1518.52 L1306.1 1518.52 L1306.1 1568.04 L1300.25 1568.04 L1300.25 1562.7 Q1298.4 1565.88 1295.57 1567.44 Q1292.77 1568.97 1288.82 1568.97 Q1282.36 1568.97 1278.28 1563.81 Q1274.24 1558.65 1274.24 1550.25 Q1274.24 1541.85 1278.28 1536.69 Q1282.36 1531.54 1288.82 1531.54 Q1292.77 1531.54 1295.57 1533.1 Q1298.4 1534.62 1300.25 1537.81 M1280.29 1550.25 Q1280.29 1556.71 1282.93 1560.4 Q1285.61 1564.07 1290.25 1564.07 Q1294.9 1564.07 1297.57 1560.4 Q1300.25 1556.71 1300.25 1550.25 Q1300.25 1543.79 1297.57 1540.13 Q1294.9 1536.44 1290.25 1536.44 Q1285.61 1536.44 1282.93 1540.13 Q1280.29 1543.79 1280.29 1550.25 Z" fill="#000000" fill-rule="nonzero" fill-opacity="1"></path><path clip-path="url(#clip290)" d="M1318.17 1532.4 L1324.02 1532.4 L1324.02 1568.04 L1318.17 1568.04 L1318.17 1532.4 M1318.17 1518.52 L1324.02 1518.52 L1324.02 1525.93 L1318.17 1525.93 L1318.17 1518.52 Z" fill="#000000" fill-rule="nonzero" fill-opacity="1"></path><path clip-path="url(#clip290)" d="M1364.03 1539.24 Q1366.23 1535.29 1369.28 1533.41 Q1372.34 1531.54 1376.48 1531.54 Q1382.05 1531.54 1385.07 1535.45 Q1388.09 1539.33 1388.09 1546.53 L1388.09 1568.04 L1382.2 1568.04 L1382.2 1546.72 Q1382.2 1541.59 1380.39 1539.11 Q1378.58 1536.63 1374.85 1536.63 Q1370.3 1536.63 1367.66 1539.65 Q1365.02 1542.68 1365.02 1547.9 L1365.02 1568.04 L1359.13 1568.04 L1359.13 1546.72 Q1359.13 1541.56 1357.31 1539.11 Q1355.5 1536.63 1351.71 1536.63 Q1347.23 1536.63 1344.58 1539.68 Q1341.94 1542.71 1341.94 1547.9 L1341.94 1568.04 L1336.05 1568.04 L1336.05 1532.4 L1341.94 1532.4 L1341.94 1537.93 Q1343.95 1534.66 1346.75 1533.1 Q1349.55 1531.54 1353.4 1531.54 Q1357.28 1531.54 1359.99 1533.51 Q1362.73 1535.48 1364.03 1539.24 Z" fill="#000000" fill-rule="nonzero" fill-opacity="1"></path><path clip-path="url(#clip290)" d="M1430.27 1548.76 L1430.27 1551.62 L1403.34 1551.62 Q1403.72 1557.67 1406.97 1560.85 Q1410.25 1564 1416.07 1564 Q1419.44 1564 1422.6 1563.17 Q1425.78 1562.35 1428.9 1560.69 L1428.9 1566.23 Q1425.75 1567.57 1422.44 1568.27 Q1419.13 1568.97 1415.72 1568.97 Q1407.19 1568.97 1402.19 1564 Q1397.23 1559.04 1397.23 1550.57 Q1397.23 1541.82 1401.94 1536.69 Q1406.68 1531.54 1414.7 1531.54 Q1421.89 1531.54 1426.06 1536.18 Q1430.27 1540.8 1430.27 1548.76 M1424.41 1547.04 Q1424.35 1542.23 1421.7 1539.37 Q1419.09 1536.5 1414.77 1536.5 Q1409.86 1536.5 1406.9 1539.27 Q1403.98 1542.04 1403.53 1547.07 L1424.41 1547.04 Z" fill="#000000" fill-rule="nonzero" fill-opacity="1"></path><path clip-path="url(#clip290)" d="M1469.51 1546.53 L1469.51 1568.04 L1463.65 1568.04 L1463.65 1546.72 Q1463.65 1541.66 1461.68 1539.14 Q1459.71 1536.63 1455.76 1536.63 Q1451.02 1536.63 1448.28 1539.65 Q1445.54 1542.68 1445.54 1547.9 L1445.54 1568.04 L1439.66 1568.04 L1439.66 1532.4 L1445.54 1532.4 L1445.54 1537.93 Q1447.64 1534.72 1450.48 1533.13 Q1453.34 1531.54 1457.07 1531.54 Q1463.21 1531.54 1466.36 1535.36 Q1469.51 1539.14 1469.51 1546.53 Z" fill="#000000" fill-rule="nonzero" fill-opacity="1"></path><path clip-path="url(#clip290)" d="M1503.92 1533.45 L1503.92 1538.98 Q1501.43 1537.71 1498.76 1537.07 Q1496.09 1536.44 1493.22 1536.44 Q1488.86 1536.44 1486.67 1537.77 Q1484.5 1539.11 1484.5 1541.79 Q1484.5 1543.82 1486.06 1545 Q1487.62 1546.15 1492.33 1547.2 L1494.34 1547.64 Q1500.57 1548.98 1503.18 1551.43 Q1505.83 1553.85 1505.83 1558.21 Q1505.83 1563.17 1501.88 1566.07 Q1497.97 1568.97 1491.09 1568.97 Q1488.23 1568.97 1485.11 1568.39 Q1482.02 1567.85 1478.58 1566.74 L1478.58 1560.69 Q1481.83 1562.38 1484.98 1563.24 Q1488.13 1564.07 1491.22 1564.07 Q1495.36 1564.07 1497.58 1562.66 Q1499.81 1561.23 1499.81 1558.65 Q1499.81 1556.27 1498.19 1554.99 Q1496.6 1553.72 1491.15 1552.54 L1489.12 1552.07 Q1483.67 1550.92 1481.26 1548.56 Q1478.84 1546.18 1478.84 1542.04 Q1478.84 1537.01 1482.4 1534.27 Q1485.97 1531.54 1492.52 1531.54 Q1495.77 1531.54 1498.63 1532.01 Q1501.5 1532.49 1503.92 1533.45 Z" fill="#000000" fill-rule="nonzero" fill-opacity="1"></path><path clip-path="url(#clip290)" d="M1515.15 1532.4 L1521.01 1532.4 L1521.01 1568.04 L1515.15 1568.04 L1515.15 1532.4 M1515.15 1518.52 L1521.01 1518.52 L1521.01 1525.93 L1515.15 1525.93 L1515.15 1518.52 Z" fill="#000000" fill-rule="nonzero" fill-opacity="1"></path><path clip-path="url(#clip290)" d="M1547.08 1536.5 Q1542.37 1536.5 1539.63 1540.19 Q1536.89 1543.85 1536.89 1550.25 Q1536.89 1556.65 1539.6 1560.34 Q1542.33 1564 1547.08 1564 Q1551.76 1564 1554.49 1560.31 Q1557.23 1556.62 1557.23 1550.25 Q1557.23 1543.92 1554.49 1540.23 Q1551.76 1536.5 1547.08 1536.5 M1547.08 1531.54 Q1554.72 1531.54 1559.08 1536.5 Q1563.44 1541.47 1563.44 1550.25 Q1563.44 1559 1559.08 1564 Q1554.72 1568.97 1547.08 1568.97 Q1539.41 1568.97 1535.05 1564 Q1530.72 1559 1530.72 1550.25 Q1530.72 1541.47 1535.05 1536.5 Q1539.41 1531.54 1547.08 1531.54 Z" fill="#000000" fill-rule="nonzero" fill-opacity="1"></path><path clip-path="url(#clip290)" d="M1602.78 1546.53 L1602.78 1568.04 L1596.92 1568.04 L1596.92 1546.72 Q1596.92 1541.66 1594.95 1539.14 Q1592.97 1536.63 1589.03 1536.63 Q1584.28 1536.63 1581.55 1539.65 Q1578.81 1542.68 1578.81 1547.9 L1578.81 1568.04 L1572.92 1568.04 L1572.92 1532.4 L1578.81 1532.4 L1578.81 1537.93 Q1580.91 1534.72 1583.74 1533.13 Q1586.61 1531.54 1590.33 1531.54 Q1596.47 1531.54 1599.63 1535.36 Q1602.78 1539.14 1602.78 1546.53 Z" fill="#000000" fill-rule="nonzero" fill-opacity="1"></path><path clip-path="url(#clip290)" d="M1649.21 1524.09 L1665.67 1568.04 L1659.46 1568.04 L1649.47 1541.69 L1637.18 1568.04 L1630.98 1568.04 L1646.6 1533.86 L1644.25 1527.56 Q1642.75 1523.55 1639.35 1523.55 L1636.29 1523.55 L1636.29 1518.52 L1640.02 1518.58 Q1647.21 1518.68 1649.21 1524.09 Z" fill="#000000" fill-rule="nonzero" fill-opacity="1"></path><polyline clip-path="url(#clip290)" style="stroke:#000000; stroke-linecap:round; stroke-linejoin:round; stroke-width:4; stroke-opacity:1; fill:none" points="251.842,1423.18 251.842,47.2441 "></polyline>
<polyline clip-path="url(#clip290)" style="stroke:#000000; stroke-linecap:round; stroke-linejoin:round; stroke-width:4; stroke-opacity:1; fill:none" points="251.842,1117.32 270.74,1117.32 "></polyline>
<polyline clip-path="url(#clip290)" style="stroke:#000000; stroke-linecap:round; stroke-linejoin:round; stroke-width:4; stroke-opacity:1; fill:none" points="251.842,429.128 270.74,429.128 "></polyline>
<path clip-path="url(#clip290)" d="M114.931 1137.11 L122.57 1137.11 L122.57 1110.75 L114.26 1112.41 L114.26 1108.15 L122.524 1106.49 L127.2 1106.49 L127.2 1137.11 L134.839 1137.11 L134.839 1141.05 L114.931 1141.05 L114.931 1137.11 Z" fill="#000000" fill-rule="nonzero" fill-opacity="1"></path><path clip-path="url(#clip290)" d="M154.283 1109.57 Q150.672 1109.57 148.843 1113.13 Q147.038 1116.67 147.038 1123.8 Q147.038 1130.91 148.843 1134.47 Q150.672 1138.02 154.283 1138.02 Q157.917 1138.02 159.723 1134.47 Q161.552 1130.91 161.552 1123.8 Q161.552 1116.67 159.723 1113.13 Q157.917 1109.57 154.283 1109.57 M154.283 1105.86 Q160.093 1105.86 163.149 1110.47 Q166.227 1115.05 166.227 1123.8 Q166.227 1132.53 163.149 1137.14 Q160.093 1141.72 154.283 1141.72 Q148.473 1141.72 145.394 1137.14 Q142.339 1132.53 142.339 1123.8 Q142.339 1115.05 145.394 1110.47 Q148.473 1105.86 154.283 1105.86 Z" fill="#000000" fill-rule="nonzero" fill-opacity="1"></path><path clip-path="url(#clip290)" d="M166.227 1099.96 L190.339 1099.96 L190.339 1103.16 L166.227 1103.16 L166.227 1099.96 Z" fill="#000000" fill-rule="nonzero" fill-opacity="1"></path><path clip-path="url(#clip290)" d="M210.05 1098.5 Q212.777 1099.08 214.3 1100.92 Q215.842 1102.77 215.842 1105.48 Q215.842 1109.63 212.984 1111.91 Q210.125 1114.18 204.859 1114.18 Q203.091 1114.18 201.21 1113.83 Q199.348 1113.49 197.354 1112.79 L197.354 1109.12 Q198.934 1110.05 200.815 1110.52 Q202.696 1110.99 204.746 1110.99 Q208.319 1110.99 210.181 1109.58 Q212.062 1108.16 212.062 1105.48 Q212.062 1102.99 210.313 1101.6 Q208.583 1100.19 205.479 1100.19 L202.207 1100.19 L202.207 1097.07 L205.63 1097.07 Q208.432 1097.07 209.918 1095.96 Q211.404 1094.83 211.404 1092.72 Q211.404 1090.56 209.861 1089.41 Q208.338 1088.25 205.479 1088.25 Q203.918 1088.25 202.132 1088.59 Q200.345 1088.92 198.201 1089.64 L198.201 1086.25 Q200.364 1085.65 202.244 1085.35 Q204.144 1085.05 205.818 1085.05 Q210.144 1085.05 212.664 1087.02 Q215.184 1088.98 215.184 1092.33 Q215.184 1094.66 213.849 1096.28 Q212.513 1097.88 210.05 1098.5 Z" fill="#000000" fill-rule="nonzero" fill-opacity="1"></path><path clip-path="url(#clip290)" d="M145.137 448.92 L152.776 448.92 L152.776 422.555 L144.465 424.221 L144.465 419.962 L152.729 418.296 L157.405 418.296 L157.405 448.92 L165.044 448.92 L165.044 452.856 L145.137 452.856 L145.137 448.92 Z" fill="#000000" fill-rule="nonzero" fill-opacity="1"></path><path clip-path="url(#clip290)" d="M184.488 421.374 Q180.877 421.374 179.049 424.939 Q177.243 428.481 177.243 435.61 Q177.243 442.717 179.049 446.282 Q180.877 449.823 184.488 449.823 Q188.123 449.823 189.928 446.282 Q191.757 442.717 191.757 435.61 Q191.757 428.481 189.928 424.939 Q188.123 421.374 184.488 421.374 M184.488 417.671 Q190.299 417.671 193.354 422.277 Q196.433 426.86 196.433 435.61 Q196.433 444.337 193.354 448.944 Q190.299 453.527 184.488 453.527 Q178.678 453.527 175.6 448.944 Q172.544 444.337 172.544 435.61 Q172.544 426.86 175.6 422.277 Q178.678 417.671 184.488 417.671 Z" fill="#000000" fill-rule="nonzero" fill-opacity="1"></path><path clip-path="url(#clip290)" d="M206.138 399.867 Q203.204 399.867 201.718 402.763 Q200.251 405.641 200.251 411.433 Q200.251 417.207 201.718 420.104 Q203.204 422.981 206.138 422.981 Q209.09 422.981 210.557 420.104 Q212.043 417.207 212.043 411.433 Q212.043 405.641 210.557 402.763 Q209.09 399.867 206.138 399.867 M206.138 396.857 Q210.858 396.857 213.341 400.6 Q215.842 404.324 215.842 411.433 Q215.842 418.524 213.341 422.267 Q210.858 425.991 206.138 425.991 Q201.417 425.991 198.915 422.267 Q196.433 418.524 196.433 411.433 Q196.433 404.324 198.915 400.6 Q201.417 396.857 206.138 396.857 Z" fill="#000000" fill-rule="nonzero" fill-opacity="1"></path><path clip-path="url(#clip290)" d="M20.2875 1076.52 L20.2875 1066.94 L52.6252 1054.81 L20.2875 1042.62 L20.2875 1033.04 L67.8075 1033.04 L67.8075 1039.31 L26.0802 1039.31 L58.6727 1051.56 L58.6727 1058.02 L26.0802 1070.28 L67.8075 1070.28 L67.8075 1076.52 L20.2875 1076.52 Z" fill="#000000" fill-rule="nonzero" fill-opacity="1"></path><path clip-path="url(#clip290)" d="M48.5194 990.039 L51.3839 990.039 L51.3839 1016.97 Q57.4314 1016.58 60.6142 1013.34 Q63.7652 1010.06 63.7652 1004.23 Q63.7652 1000.86 62.9377 997.71 Q62.1101 994.527 60.4551 991.408 L65.9932 991.408 Q67.33 994.559 68.0303 997.869 Q68.7305 1001.18 68.7305 1004.58 Q68.7305 1013.11 63.7652 1018.11 Q58.8 1023.08 50.3336 1023.08 Q41.5807 1023.08 36.4563 1018.37 Q31.3001 1013.62 31.3001 1005.6 Q31.3001 998.41 35.9471 994.241 Q40.5622 990.039 48.5194 990.039 M46.8006 995.896 Q41.9945 995.959 39.1299 998.601 Q36.2654 1001.21 36.2654 1005.54 Q36.2654 1010.44 39.0345 1013.4 Q41.8035 1016.33 46.8325 1016.78 L46.8006 995.896 Z" fill="#000000" fill-rule="nonzero" fill-opacity="1"></path><path clip-path="url(#clip290)" d="M37.5703 956.969 L18.2823 956.969 L18.2823 951.113 L67.8075 951.113 L67.8075 956.969 L62.4603 956.969 Q65.6431 958.815 67.2027 961.648 Q68.7305 964.449 68.7305 968.396 Q68.7305 974.857 63.5743 978.931 Q58.418 982.973 50.0153 982.973 Q41.6126 982.973 36.4563 978.931 Q31.3001 974.857 31.3001 968.396 Q31.3001 964.449 32.8597 961.648 Q34.3875 958.815 37.5703 956.969 M50.0153 976.926 Q56.4765 976.926 60.1686 974.284 Q63.8289 971.61 63.8289 966.964 Q63.8289 962.317 60.1686 959.643 Q56.4765 956.969 50.0153 956.969 Q43.5541 956.969 39.8938 959.643 Q36.2017 962.317 36.2017 966.964 Q36.2017 971.61 39.8938 974.284 Q43.5541 976.926 50.0153 976.926 Z" fill="#000000" fill-rule="nonzero" fill-opacity="1"></path><path clip-path="url(#clip290)" d="M32.1595 939.05 L32.1595 933.193 L67.8075 933.193 L67.8075 939.05 L32.1595 939.05 M18.2823 939.05 L18.2823 933.193 L25.6983 933.193 L25.6983 939.05 L18.2823 939.05 Z" fill="#000000" fill-rule="nonzero" fill-opacity="1"></path><path clip-path="url(#clip290)" d="M49.888 904.739 Q49.888 911.836 51.5112 914.574 Q53.1345 917.311 57.0494 917.311 Q60.1686 917.311 62.0147 915.274 Q63.8289 913.205 63.8289 909.672 Q63.8289 904.802 60.3914 901.874 Q56.9221 898.914 51.193 898.914 L49.888 898.914 L49.888 904.739 M47.469 893.058 L67.8075 893.058 L67.8075 898.914 L62.3966 898.914 Q65.6431 900.919 67.2027 903.911 Q68.7305 906.903 68.7305 911.232 Q68.7305 916.706 65.6749 919.953 Q62.5876 923.167 57.4314 923.167 Q51.4158 923.167 48.3602 919.157 Q45.3047 915.115 45.3047 907.126 L45.3047 898.914 L44.7318 898.914 Q40.6895 898.914 38.4934 901.588 Q36.2654 904.229 36.2654 909.036 Q36.2654 912.091 36.9974 914.988 Q37.7295 917.884 39.1936 920.557 L33.7828 920.557 Q32.5414 917.343 31.9367 914.319 Q31.3001 911.295 31.3001 908.431 Q31.3001 900.696 35.3105 896.877 Q39.3209 893.058 47.469 893.058 Z" fill="#000000" fill-rule="nonzero" fill-opacity="1"></path><path clip-path="url(#clip290)" d="M46.2914 851.362 L67.8075 851.362 L67.8075 857.219 L46.4823 857.219 Q41.4216 857.219 38.9071 859.192 Q36.3927 861.165 36.3927 865.112 Q36.3927 869.855 39.4164 872.592 Q42.4401 875.329 47.66 875.329 L67.8075 875.329 L67.8075 881.217 L32.1595 881.217 L32.1595 875.329 L37.6977 875.329 Q34.483 873.228 32.8916 870.396 Q31.3001 867.531 31.3001 863.807 Q31.3001 857.664 35.1196 854.513 Q38.9071 851.362 46.2914 851.362 Z" fill="#000000" fill-rule="nonzero" fill-opacity="1"></path><path clip-path="url(#clip290)" d="M25.571 812.277 L62.5239 812.277 L62.5239 804.511 Q62.5239 794.676 58.0679 790.124 Q53.6119 785.541 43.9997 785.541 Q34.4512 785.541 30.027 790.124 Q25.571 794.676 25.571 804.511 L25.571 812.277 M20.2875 818.706 L20.2875 805.497 Q20.2875 791.684 26.0484 785.223 Q31.7776 778.761 43.9997 778.761 Q56.2855 778.761 62.0465 785.254 Q67.8075 791.747 67.8075 805.497 L67.8075 818.706 L20.2875 818.706 Z" fill="#000000" fill-rule="nonzero" fill-opacity="1"></path><path clip-path="url(#clip290)" d="M32.1595 768.767 L32.1595 762.911 L67.8075 762.911 L67.8075 768.767 L32.1595 768.767 M18.2823 768.767 L18.2823 762.911 L25.6983 762.911 L25.6983 768.767 L18.2823 768.767 Z" fill="#000000" fill-rule="nonzero" fill-opacity="1"></path><path clip-path="url(#clip290)" d="M18.2823 750.657 L18.2823 744.8 L67.8075 744.8 L67.8075 750.657 L18.2823 750.657 Z" fill="#000000" fill-rule="nonzero" fill-opacity="1"></path><path clip-path="url(#clip290)" d="M49.888 716.346 Q49.888 723.443 51.5112 726.181 Q53.1345 728.918 57.0494 728.918 Q60.1686 728.918 62.0147 726.881 Q63.8289 724.812 63.8289 721.279 Q63.8289 716.409 60.3914 713.481 Q56.9221 710.521 51.193 710.521 L49.888 710.521 L49.888 716.346 M47.469 704.665 L67.8075 704.665 L67.8075 710.521 L62.3966 710.521 Q65.6431 712.526 67.2027 715.518 Q68.7305 718.51 68.7305 722.839 Q68.7305 728.313 65.6749 731.56 Q62.5876 734.774 57.4314 734.774 Q51.4158 734.774 48.3602 730.764 Q45.3047 726.722 45.3047 718.733 L45.3047 710.521 L44.7318 710.521 Q40.6895 710.521 38.4934 713.195 Q36.2654 715.836 36.2654 720.642 Q36.2654 723.698 36.9974 726.594 Q37.7295 729.491 39.1936 732.164 L33.7828 732.164 Q32.5414 728.95 31.9367 725.926 Q31.3001 722.902 31.3001 720.038 Q31.3001 712.303 35.3105 708.484 Q39.3209 704.665 47.469 704.665 Z" fill="#000000" fill-rule="nonzero" fill-opacity="1"></path><path clip-path="url(#clip290)" d="M22.038 686.809 L32.1595 686.809 L32.1595 674.746 L36.711 674.746 L36.711 686.809 L56.0627 686.809 Q60.4232 686.809 61.6645 685.631 Q62.9059 684.422 62.9059 680.761 L62.9059 674.746 L67.8075 674.746 L67.8075 680.761 Q67.8075 687.541 65.293 690.119 Q62.7467 692.697 56.0627 692.697 L36.711 692.697 L36.711 696.994 L32.1595 696.994 L32.1595 692.697 L22.038 692.697 L22.038 686.809 Z" fill="#000000" fill-rule="nonzero" fill-opacity="1"></path><path clip-path="url(#clip290)" d="M32.1595 667.043 L32.1595 661.187 L67.8075 661.187 L67.8075 667.043 L32.1595 667.043 M18.2823 667.043 L18.2823 661.187 L25.6983 661.187 L25.6983 667.043 L18.2823 667.043 Z" fill="#000000" fill-rule="nonzero" fill-opacity="1"></path><path clip-path="url(#clip290)" d="M36.2654 635.119 Q36.2654 639.83 39.9575 642.567 Q43.6178 645.304 50.0153 645.304 Q56.4128 645.304 60.1049 642.599 Q63.7652 639.862 63.7652 635.119 Q63.7652 630.44 60.0731 627.703 Q56.381 624.966 50.0153 624.966 Q43.6814 624.966 39.9893 627.703 Q36.2654 630.44 36.2654 635.119 M31.3001 635.119 Q31.3001 627.48 36.2654 623.12 Q41.2306 618.759 50.0153 618.759 Q58.7682 618.759 63.7652 623.12 Q68.7305 627.48 68.7305 635.119 Q68.7305 642.79 63.7652 647.15 Q58.7682 651.479 50.0153 651.479 Q41.2306 651.479 36.2654 647.15 Q31.3001 642.79 31.3001 635.119 Z" fill="#000000" fill-rule="nonzero" fill-opacity="1"></path><path clip-path="url(#clip290)" d="M46.2914 579.419 L67.8075 579.419 L67.8075 585.276 L46.4823 585.276 Q41.4216 585.276 38.9071 587.249 Q36.3927 589.222 36.3927 593.169 Q36.3927 597.912 39.4164 600.649 Q42.4401 603.386 47.66 603.386 L67.8075 603.386 L67.8075 609.274 L32.1595 609.274 L32.1595 603.386 L37.6977 603.386 Q34.483 601.285 32.8916 598.453 Q31.3001 595.588 31.3001 591.864 Q31.3001 585.721 35.1196 582.57 Q38.9071 579.419 46.2914 579.419 Z" fill="#000000" fill-rule="nonzero" fill-opacity="1"></path><path clip-path="url(#clip290)" d="M40.9478 497.561 Q43.2022 497.561 43.2022 500.782 L43.2022 508.028 Q46.1007 505.999 50.3841 505.999 Q54.0556 505.999 57.5016 507.513 Q60.9154 508.994 63.2986 511.378 Q65.6819 513.729 67.1311 516.692 Q68.5482 519.655 68.5482 522.553 Q68.5482 526.965 65.553 529.703 Q62.5579 532.44 58.1135 532.44 Q55.7625 532.44 53.1538 531.635 Q50.5451 530.798 48.1297 529.22 Q45.682 527.642 43.7175 525.581 Q41.7529 523.487 40.5613 520.782 Q39.3697 518.044 39.3697 515.178 L39.3697 500.138 Q39.3697 499.333 39.4341 498.914 Q39.4663 498.463 39.8528 498.012 Q40.207 497.561 40.9478 497.561 M49.6111 510.218 Q48.8382 510.218 48.1619 510.315 Q47.4533 510.412 46.5194 510.766 Q45.5532 511.12 44.8769 511.732 Q44.1684 512.344 43.6853 513.536 Q43.2022 514.695 43.2022 516.273 Q43.2022 518.495 44.426 520.943 Q45.6498 523.391 48.6772 525.258 Q51.2536 526.804 54.6031 527.577 Q57.9525 528.35 59.9492 528.35 Q63.363 528.35 65.231 526.708 Q67.0667 525.033 67.0667 522.489 Q67.0667 520.395 65.6497 518.012 Q64.2004 515.629 61.4629 513.793 Q59.0797 512.183 55.6014 511.217 Q52.1232 510.218 49.6111 510.218 Z" fill="#000000" fill-rule="nonzero" fill-opacity="1"></path><path clip-path="url(#clip290)" d="M48.7739 490.869 Q47.9397 490.869 47.6917 490.801 Q47.4438 490.711 47.0605 490.351 L37.1862 481.491 Q31.7305 476.644 26.9737 476.644 Q23.8852 476.644 21.6758 478.267 Q19.4665 479.868 19.4665 482.821 Q19.4665 484.85 20.7065 486.563 Q21.9464 488.277 24.1557 489.066 Q24.1106 488.93 24.1106 488.457 Q24.1106 487.307 24.832 486.676 Q25.5534 486.022 26.5228 486.022 Q27.7628 486.022 28.3714 486.834 Q28.9576 487.623 28.9576 488.412 Q28.9576 488.727 28.89 489.156 Q28.8223 489.562 28.1911 490.215 Q27.5373 490.869 26.3876 490.869 Q23.1638 490.869 20.5937 488.434 Q18.0237 485.977 18.0237 482.235 Q18.0237 477.996 20.5486 475.224 Q23.051 472.428 26.9737 472.428 Q28.3489 472.428 29.6114 472.856 Q30.8513 473.262 31.8207 473.826 Q32.7901 474.367 34.3456 475.855 Q35.9012 477.343 37.0058 478.537 Q38.1105 479.732 40.4551 482.415 L45.2119 487.307 L45.2119 478.988 Q45.2119 474.93 44.8512 474.615 Q44.1974 474.164 40.7482 473.6 L40.7482 472.428 L48.7739 473.736 L48.7739 490.869 Z" fill="#000000" fill-rule="nonzero" fill-opacity="1"></path><path clip-path="url(#clip290)" d="M74.0639 453.04 Q74.2443 453.04 74.9431 453.243 Q75.642 453.446 76.7241 453.942 Q77.8062 454.415 78.7982 455.092 Q79.7676 455.745 80.489 456.828 Q81.1878 457.887 81.1878 459.104 Q81.1878 460.728 80.1057 461.81 Q79.0236 462.892 77.4004 462.892 Q76.5212 462.892 74.853 462.283 Q67.233 459.42 64.5052 459.42 Q61.2814 459.42 61.2814 461.922 Q61.2814 463.343 61.8675 464.628 Q62.4537 465.913 63.2653 466.747 Q64.0769 467.581 65.0012 468.235 Q65.9255 468.889 66.5342 469.182 Q67.1429 469.452 67.4134 469.52 L78.5502 472.293 Q79.497 472.518 79.9479 472.676 Q80.3988 472.834 80.782 473.262 Q81.1878 473.691 81.1878 474.367 Q81.1878 474.93 80.8497 475.336 Q80.5115 475.719 79.9254 475.719 Q79.8352 475.719 79.3618 475.607 Q78.8883 475.494 78.2346 475.336 Q77.5808 475.178 77.1975 475.111 Q74.1315 474.299 73.7032 474.186 L68.3377 472.901 Q65.6775 472.203 64.5052 472.203 Q61.2814 472.203 61.2814 474.705 Q61.2814 475.945 61.7548 477.117 Q62.2057 478.267 62.8369 479.056 Q63.4682 479.845 64.3474 480.566 Q65.2041 481.265 65.7902 481.626 Q66.3538 481.964 66.9174 482.235 L69.2169 482.821 Q69.8482 482.956 72.3055 483.61 L76.4761 484.624 Q79.5872 485.346 79.8803 485.504 Q80.5115 485.729 80.8497 486.225 Q81.1878 486.721 81.1878 487.217 Q81.1878 487.781 80.8497 488.164 Q80.5115 488.547 79.9254 488.547 Q79.8352 488.547 79.497 488.479 Q79.1589 488.412 78.6854 488.299 Q78.212 488.186 77.9415 488.141 L67.2781 485.459 Q65.3393 484.963 64.7306 484.85 Q64.0994 484.715 63.4005 484.715 Q61.2814 484.715 61.2814 486.157 Q61.2814 487.33 62.6791 488.096 Q64.0769 488.863 66.7822 489.516 Q67.5261 489.719 67.6839 489.855 Q67.8417 489.967 67.8417 490.306 Q67.8192 490.869 67.3683 490.869 Q67.2556 490.869 66.5342 490.689 Q65.8128 490.508 64.7306 490.17 Q63.626 489.81 62.9046 489.426 Q62.4312 489.201 62.1155 488.998 Q61.7999 488.795 61.3039 488.389 Q60.808 487.983 60.5374 487.375 Q60.2669 486.766 60.2669 486.022 Q60.2669 484.376 61.3265 483.159 Q62.3861 481.919 64.2798 481.761 Q60.2669 478.763 60.2669 474.57 Q60.2669 472.203 61.4618 470.782 Q62.6115 469.452 64.7306 469.294 Q60.2669 466.183 60.2669 461.765 Q60.2669 459.217 61.597 457.842 Q62.9046 456.467 65.2041 456.467 Q66.3989 456.467 68.6759 457.076 Q70.9303 457.684 72.0575 458.09 Q73.1847 458.496 75.3489 459.285 Q77.423 460.119 78.6404 460.119 Q79.4294 460.119 79.7901 459.848 Q80.1508 459.578 80.1508 458.992 Q80.1508 458.09 79.6323 457.301 Q79.0912 456.512 78.212 455.948 Q77.3103 455.362 76.4085 454.979 Q75.4842 454.596 74.4472 454.303 Q73.8836 454.122 73.7483 454.032 Q73.613 453.919 73.613 453.604 Q73.613 453.04 74.0639 453.04 Z" fill="#000000" fill-rule="nonzero" fill-opacity="1"></path><path clip-path="url(#clip290)" d="M74.0639 429.021 Q76.9721 429.63 78.6404 430.419 Q81.1878 431.681 81.1878 433.823 Q81.1878 435.446 80.1959 436.596 Q79.204 437.745 77.7161 438.016 Q81.1878 440.969 81.1878 444.035 Q81.1878 446.741 79.1363 448.454 Q77.0623 450.167 73.7934 450.167 Q70.5019 450.167 67.3458 448.544 Q64.1896 446.898 62.2283 444.306 Q60.2669 441.713 60.2669 439.053 Q60.2669 436.235 63.2202 434.792 Q62.4086 434.679 61.7999 434.161 Q61.1912 433.642 61.1912 432.853 Q61.1912 432.245 61.5294 431.884 Q61.845 431.523 62.4312 431.523 Q62.7242 431.523 64.0092 431.839 L70.4569 433.507 L74.6275 434.522 Q76.1605 434.905 76.7241 435.018 Q77.2877 435.108 78.0317 435.108 Q80.1508 435.108 80.1508 433.733 Q80.1508 433.056 79.7225 432.515 Q79.2941 431.974 78.3924 431.546 Q77.4906 431.117 76.6565 430.847 Q75.7998 430.576 74.4472 430.216 Q73.9061 430.103 73.7708 430.013 Q73.613 429.9 73.613 429.584 Q73.613 429.021 74.0639 429.021 M65.3393 435.356 Q65.1364 435.356 64.5728 435.514 Q64.0092 435.671 63.2202 436.032 Q62.4312 436.393 61.8675 437.182 Q61.2814 437.948 61.2814 438.985 Q61.2814 440.383 62.4762 441.848 Q63.6711 443.291 65.7 444.351 Q67.3232 445.162 70.7274 446.042 Q74.1315 446.898 75.8223 446.898 Q76.8594 446.898 77.7837 446.673 Q78.6854 446.425 79.4294 445.726 Q80.1508 445.027 80.1508 443.945 Q80.1508 441.307 76.8819 438.715 Q76.3183 438.219 76.0929 438.106 Q75.8449 437.971 75.1686 437.791 L66.1284 435.491 Q65.4521 435.356 65.3393 435.356 Z" fill="#000000" fill-rule="nonzero" fill-opacity="1"></path><path clip-path="url(#clip290)" d="M63.3104 404.099 Q64.5728 404.099 65.2943 404.888 Q65.9931 405.677 65.9931 406.579 Q65.9931 407.435 65.4971 407.886 Q65.0012 408.337 64.3699 408.337 Q63.5133 408.337 62.7693 407.706 Q62.0254 407.075 61.8675 406.128 Q61.2814 407.052 61.2814 408.427 Q61.2814 409.329 61.7548 410.118 Q62.2283 410.885 62.8369 411.358 Q63.4456 411.809 64.3249 412.215 Q65.1815 412.598 65.7 412.756 Q66.196 412.891 66.7371 413.004 L73.0494 414.582 Q76.0478 415.348 77.1074 415.348 Q78.4149 415.348 79.2941 414.717 Q80.1508 414.086 80.1508 412.823 Q80.1508 412.327 80.0156 411.764 Q79.8577 411.2 79.4519 410.479 Q79.0236 409.735 78.3924 409.081 Q77.7386 408.405 76.6339 407.751 Q75.5293 407.097 74.109 406.669 Q73.613 406.534 73.613 406.083 Q73.613 405.519 74.0639 405.519 Q74.4472 405.519 75.2587 405.835 Q76.0478 406.128 77.0848 406.782 Q78.0993 407.413 79.0236 408.247 Q79.9254 409.081 80.5566 410.321 Q81.1878 411.561 81.1878 412.914 Q81.1878 414.852 80.1508 416.137 Q79.1138 417.422 77.671 417.896 Q77.8739 418.009 78.1444 418.166 Q78.4149 418.324 79.0236 418.798 Q79.6098 419.248 80.0606 419.767 Q80.489 420.286 80.8271 421.097 Q81.1878 421.886 81.1878 422.743 Q81.1878 423.825 80.8722 424.794 Q80.5566 425.741 79.8352 426.417 Q79.1138 427.094 78.1218 427.094 Q77.0172 427.094 76.2507 426.35 Q75.4616 425.583 75.4616 424.546 Q75.4616 423.893 75.8449 423.374 Q76.2281 422.833 77.0623 422.833 Q77.9866 422.833 78.6854 423.464 Q79.3843 424.095 79.5647 424.997 Q80.1508 424.073 80.1508 422.698 Q80.1508 421.21 78.8433 420.038 Q77.5357 418.865 75.3489 418.302 Q70.0961 416.904 67.7516 416.363 Q65.3844 415.822 64.3699 415.822 Q63.4231 415.822 62.7693 416.07 Q62.1155 416.318 61.8225 416.746 Q61.5068 417.152 61.3941 417.535 Q61.2814 417.896 61.2814 418.302 Q61.2814 418.978 61.5519 419.744 Q61.8225 420.488 62.4537 421.39 Q63.0624 422.269 64.3249 423.104 Q65.5873 423.938 67.3232 424.501 Q67.8417 424.614 67.8417 425.11 Q67.8192 425.651 67.3683 425.651 Q66.9851 425.651 66.196 425.358 Q65.3844 425.042 64.3699 424.411 Q63.3555 423.757 62.4537 422.923 Q61.5294 422.066 60.8982 420.827 Q60.2669 419.564 60.2669 418.211 Q60.2669 417.603 60.4022 417.017 Q60.5149 416.408 60.8531 415.687 Q61.1912 414.943 61.9352 414.289 Q62.6791 413.635 63.7613 413.229 Q63.2427 412.959 62.7468 412.598 Q62.2508 412.215 61.6421 411.629 Q61.0109 411.02 60.6502 410.186 Q60.2669 409.329 60.2669 408.382 Q60.2669 407.458 60.5149 406.556 Q60.7403 405.654 61.4843 404.888 Q62.2057 404.099 63.3104 404.099 Z" fill="#000000" fill-rule="nonzero" fill-opacity="1"></path><polyline clip-path="url(#clip292)" style="stroke:#000000; stroke-linecap:round; stroke-linejoin:round; stroke-width:4; stroke-opacity:1; fill:none" stroke-dasharray="2, 4" points="311.302,856.49 331.322,704.366 351.342,554.773 371.363,372.104 391.383,477.514 411.403,302.68 431.423,396.61 451.443,364.172 471.463,335.407 491.483,318.352 511.504,286.57 531.524,268.366 551.544,320.789 571.564,308.818 591.584,291.907 611.604,252.442 631.624,283.028 651.645,276.891 671.665,297.869 691.685,282.779 711.705,258.661 731.725,266.73 751.745,235.686 771.765,254.281 791.786,264.57 811.806,261.417 831.826,219.16 851.846,273.136 871.866,275.977 891.886,263.348 911.906,276.877 931.927,233.897 951.947,260.258 971.967,264.941 991.987,223.982 1012.01,265.503 1032.03,250.574 1052.05,271.787 1072.07,261.724 1092.09,245.652 1112.11,263.369 1132.13,286.577 1152.15,278.335 1172.17,272.102 1192.19,270.726 1212.21,264.575 1232.23,261.297 1252.25,269.397 1272.27,276.315 1292.29,259.758 1312.31,273.257 1332.33,264.854 1352.35,273.309 1372.37,260.18 1392.39,274.467 1412.41,273.123 1432.43,264.681 1452.45,262.358 1472.47,264.843 1492.49,260.485 1512.51,259.613 1532.53,288.072 1552.55,279.391 1572.57,260.016 1592.59,267.466 1612.61,260.071 1632.63,265.907 1652.65,260.502 1672.67,270.871 1692.69,261.361 1712.71,287.618 1732.73,281.486 1752.75,270.601 1772.77,277.771 1792.79,271.696 1812.81,270.061 1832.83,273.639 1852.85,261.906 1872.87,268.342 1892.89,262.757 1912.91,281.119 1932.93,256.297 1952.95,272.59 1972.97,261.524 1992.99,276.569 2013.01,275.913 2033.03,277.406 2053.05,257.23 2073.07,262.815 2093.09,266.393 2113.11,277.042 2133.13,274.354 2153.16,260.084 2173.18,280.281 2193.2,266.648 2213.22,283.666 2233.24,273.81 2253.26,256.054 2273.28,276.57 2293.3,271.644 "></polyline>
<polyline clip-path="url(#clip292)" style="stroke:#e26f46; stroke-linecap:round; stroke-linejoin:round; stroke-width:4; stroke-opacity:1; fill:none" stroke-dasharray="16, 10" points="311.302,1100 331.322,759.717 351.342,680.777 371.363,630.504 391.383,618.376 411.403,624.855 431.423,581.98 451.443,586.5 471.463,593.804 491.483,545.398 511.504,519.748 531.524,525.245 551.544,457.833 571.564,463.993 591.584,420.629 611.604,425.182 631.624,430.378 651.645,428.733 671.665,380.491 691.685,329.191 711.705,295.075 731.725,299.198 751.745,303.157 771.765,291.402 791.786,295.07 811.806,298.607 831.826,274.952 851.846,278.145 871.866,281.342 891.886,283.559 911.906,286.4 931.927,289.311 951.947,237.041 971.967,226.562 991.987,229.242 1012.01,231.852 1032.03,211.571 1052.05,214.051 1072.07,216.471 1092.09,218.833 1112.11,221.11 1132.13,223.358 1152.15,223.892 1172.17,166.676 1192.19,105.733 1212.21,107.802 1232.23,109.828 1252.25,111.814 1272.27,113.761 1292.29,115.671 1312.31,117.543 1332.33,119.382 1352.35,121.188 1372.37,122.962 1392.39,124.704 1412.41,98.6317 1432.43,100.316 1452.45,101.971 1472.47,103.6 1492.49,105.203 1512.51,106.773 1532.53,108.326 1552.55,109.855 1572.57,111.355 1592.59,112.838 1612.61,114.3 1632.63,115.74 1652.65,117.16 1672.67,118.56 1692.69,119.94 1712.71,121.296 1732.73,122.639 1752.75,123.943 1772.77,125.251 1792.79,126.54 1812.81,127.815 1832.83,129.073 1852.85,130.316 1872.87,131.543 1892.89,132.741 1912.91,133.939 1932.93,135.123 1952.95,136.293 1972.97,137.44 1992.99,138.582 2013.01,139.712 2033.03,140.825 2053.05,141.93 2073.07,143.021 2093.09,144.102 2113.11,145.17 2133.13,146.228 2153.16,147.275 2173.18,148.31 2193.2,149.335 2213.22,150.349 2233.24,151.264 2253.26,152.252 2273.28,122.335 2293.3,123.31 "></polyline>
<polyline clip-path="url(#clip292)" style="stroke:#3da44d; stroke-linecap:round; stroke-linejoin:round; stroke-width:4; stroke-opacity:1; fill:none" stroke-dasharray="16, 10" points="311.302,890.842 331.322,619.664 351.342,637.091 371.363,523.389 391.383,485.039 411.403,432.61 431.423,443.472 451.443,453.246 471.463,450.471 491.483,448.938 511.504,428.273 531.524,435.197 551.544,407.386 571.564,413.33 591.584,419.029 611.604,311.454 631.624,286.465 651.645,291.403 671.665,280.501 691.685,262.54 711.705,241.546 731.725,245.662 751.745,249.127 771.765,247.903 791.786,251.564 811.806,255.1 831.826,258.457 851.846,261.747 871.866,264.683 891.886,267.698 911.906,255.112 931.927,258.019 951.947,190.308 971.967,192.213 991.987,194.888 1012.01,187.508 1032.03,190.049 1052.05,192.528 1072.07,194.697 1092.09,197.019 1112.11,199.325 1132.13,200.511 1152.15,202.715 1172.17,128.678 1192.19,130.79 1212.21,132.836 1232.23,134.859 1252.25,136.838 1272.27,138.765 1292.29,140.674 1312.31,142.548 1332.33,144.374 1352.35,146.155 1372.37,147.929 1392.39,149.54 1412.41,151.189 1432.43,152.852 1452.45,154.507 1472.47,155.845 1492.49,157.421 1512.51,158.988 1532.53,160.541 1552.55,162.069 1572.57,163.572 1592.59,165.04 1612.61,166.458 1632.63,167.887 1652.65,169.305 1672.67,170.699 1692.69,171.969 1712.71,173.298 1732.73,174.639 1752.75,175.963 1772.77,177.179 1792.79,178.467 1812.81,179.74 1832.83,180.997 1852.85,182.24 1872.87,183.464 1892.89,184.676 1912.91,185.866 1932.93,187.047 1952.95,188.216 1972.97,188.863 1992.99,190.005 2013.01,191.121 2033.03,192.236 2053.05,176.521 2073.07,177.529 2093.09,178.603 2113.11,179.603 2133.13,180.618 2153.16,173.545 2173.18,174.58 2193.2,175.604 2213.22,176.618 2233.24,177.619 2253.26,178.342 2273.28,170.728 2293.3,171.703 "></polyline>
<polyline clip-path="url(#clip292)" style="stroke:#c271d2; stroke-linecap:round; stroke-linejoin:round; stroke-width:4; stroke-opacity:1; fill:none" stroke-dasharray="16, 10" points="311.302,535.784 331.322,437.746 351.342,393.117 371.363,378.256 391.383,352.975 411.403,346.475 431.423,322.005 451.443,325.575 471.463,326.386 491.483,305.577 511.504,300.962 531.524,305.297 551.544,311.07 571.564,316.004 591.584,319.071 611.604,312.669 631.624,317.088 651.645,316.747 671.665,312.881 691.685,315.774 711.705,318.817 731.725,322.226 751.745,321.954 771.765,322.233 791.786,322.263 811.806,324.551 831.826,323.983 851.846,319.869 871.866,322.31 891.886,324.091 911.906,321.278 931.927,317.765 951.947,317.794 971.967,318.708 991.987,321.054 1012.01,321.996 1032.03,324.002 1052.05,325.078 1072.07,324.619 1092.09,323.309 1112.11,324.244 1132.13,322.88 1152.15,322.69 1172.17,324.051 1192.19,325.783 1212.21,322.94 1232.23,323.91 1252.25,324.714 1272.27,323.095 1292.29,324.682 1312.31,323.677 1332.33,320.229 1352.35,318.088 1372.37,319.408 1392.39,318.988 1412.41,318.452 1432.43,319.027 1452.45,320.375 1472.47,317.876 1492.49,318.316 1512.51,319.151 1532.53,317.404 1552.55,317.611 1572.57,316.632 1592.59,317.144 1612.61,315.237 1632.63,315.428 1652.65,315.504 1672.67,314.872 1692.69,315.685 1712.71,316.611 1732.73,317.292 1752.75,317.587 1772.77,318.487 1792.79,319.157 1812.81,319.395 1832.83,320.041 1852.85,320.302 1872.87,319.142 1892.89,319.723 1912.91,320.284 1932.93,319.921 1952.95,320.718 1972.97,320.907 1992.99,315.131 2013.01,315.559 2033.03,315.41 2053.05,315.833 2073.07,316.438 2093.09,317.035 2113.11,316.306 2133.13,307.233 2153.16,307.575 2173.18,308.309 2193.2,308.164 2213.22,307.669 2233.24,307.569 2253.26,308.385 2273.28,309.075 2293.3,309.422 "></polyline>
<polyline clip-path="url(#clip292)" style="stroke:#ac8d18; stroke-linecap:round; stroke-linejoin:round; stroke-width:4; stroke-opacity:1; fill:none" points="311.302,1384.24 331.322,1086.49 351.342,844.259 371.363,718.495 391.383,732.247 411.403,666.649 431.423,650.295 451.443,620.117 471.463,459.735 491.483,434.073 511.504,441.635 531.524,441.654 551.544,433.525 571.564,439.659 591.584,445.434 611.604,450.919 631.624,454.042 651.645,398.424 671.665,403.129 691.685,407.622 711.705,356.143 731.725,360.264 751.745,334.086 771.765,337.893 791.786,341.56 811.806,306.232 831.826,309.544 851.846,286.72 871.866,289.303 891.886,292.4 911.906,295.404 931.927,298.32 951.947,301.147 971.967,303.888 991.987,306.56 1012.01,309.171 1032.03,276.321 1052.05,278.801 1072.07,251.64 1092.09,253.996 1112.11,256.304 1132.13,258.555 1152.15,260.721 1172.17,262.878 1192.19,264.787 1212.21,266.855 1232.23,224.738 1252.25,226.724 1272.27,228.672 1292.29,230.581 1312.31,220.032 1332.33,221.871 1352.35,223.677 1372.37,218.601 1392.39,220.339 1412.41,222.051 1432.43,223.722 1452.45,203.629 1472.47,205.253 1492.49,206.856 1512.51,208.433 1532.53,209.985 1552.55,211.412 1572.57,212.735 1592.59,210.54 1612.61,212.002 1632.63,213.442 1652.65,214.538 1672.67,215.937 1692.69,217.312 1712.71,218.674 1732.73,220.017 1752.75,221.342 1772.77,222.65 1792.79,223.937 1812.81,225.211 1832.83,226.468 1852.85,212.101 1872.87,174.361 1892.89,175.572 1912.91,176.77 1932.93,177.953 1952.95,179.123 1972.97,180.277 1992.99,181.42 2013.01,182.55 2033.03,183.667 2053.05,184.771 2073.07,185.863 2093.09,186.944 2113.11,188.014 2133.13,189.071 2153.16,190.118 2173.18,191.154 2193.2,192.18 2213.22,193.194 2233.24,180.07 2253.26,181.059 2273.28,182.044 2293.3,183.018 "></polyline>
<polyline clip-path="url(#clip292)" style="stroke:#00a9ad; stroke-linecap:round; stroke-linejoin:round; stroke-width:4; stroke-opacity:1; fill:none" points="311.302,934.12 331.322,672.927 351.342,617.034 371.363,627.341 391.383,394.534 411.403,395.282 431.423,402.656 451.443,370.126 471.463,357.748 491.483,351.329 511.504,356.364 531.524,365.083 551.544,274.25 571.564,282.524 591.584,286.431 611.604,242.061 631.624,245.327 651.645,251.952 671.665,254.54 691.685,260.049 711.705,170.524 731.725,176.044 751.745,178.696 771.765,183.805 791.786,186.235 811.806,189.886 831.826,191.774 851.846,196.202 871.866,198.328 891.886,202.475 911.906,204.484 931.927,208.39 951.947,207.307 971.967,210.961 991.987,212.751 1012.01,180.279 1032.03,181.865 1052.05,184.977 1072.07,185.707 1092.09,188.75 1112.11,190.294 1132.13,183.195 1152.15,184.553 1172.17,187.432 1192.19,188.839 1212.21,191.591 1232.23,192.915 1252.25,195.512 1272.27,196.812 1292.29,199.317 1312.31,200.318 1332.33,188.81 1352.35,190.012 1372.37,192.382 1392.39,193.536 1412.41,195.816 1432.43,196.933 1452.45,198.572 1472.47,199.66 1492.49,201.396 1512.51,202.443 1532.53,204.518 1552.55,205.513 1572.57,207.512 1592.59,208.462 1612.61,175.881 1632.63,176.843 1652.65,159.84 1672.67,160.733 1692.69,162.577 1712.71,156.648 1732.73,158.433 1752.75,159.318 1772.77,161.066 1792.79,161.928 1812.81,163.631 1832.83,164.457 1852.85,166.082 1872.87,157.82 1892.89,159.432 1912.91,160.229 1932.93,161.728 1952.95,162.509 1972.97,115.678 1992.99,116.441 2013.01,117.949 2033.03,118.692 2053.05,120.168 2073.07,120.896 2093.09,122.34 2113.11,123.054 2133.13,124.467 2153.16,108.611 2173.18,109.325 2193.2,110.008 2213.22,111.349 2233.24,111.01 2253.26,112.335 2273.28,112.991 2293.3,114.292 "></polyline>
<polyline clip-path="url(#clip292)" style="stroke:#ed5d92; stroke-linecap:round; stroke-linejoin:round; stroke-width:4; stroke-opacity:1; fill:none" points="331.322,335.831 351.342,295.75 371.363,203.496 391.383,186.868 411.403,133.418 431.423,184.479 451.443,183.173 471.463,171.583 491.483,157.214 511.504,155.119 531.524,161.505 551.544,136.252 571.564,123.615 591.584,100.3 611.604,124.453 631.624,123.746 651.645,120.211 671.665,103.499 691.685,91.7267 711.705,112.884 731.725,112.255 751.745,111.646 771.765,107.395 791.786,105.405 811.806,123.296 831.826,113.168 851.846,111.454 871.866,107.852 891.886,116.833 911.906,115.242 931.927,107.344 951.947,106.707 971.967,106.57 991.987,119.711 1012.01,108.394 1032.03,107.22 1052.05,103.772 1072.07,103.351 1092.09,114.553 1112.11,114.233 1132.13,102.481 1152.15,93.9852 1172.17,104.144 1192.19,103.94 1212.21,103.791 1232.23,103.316 1252.25,103.277 1272.27,112.366 1292.29,112.16 1312.31,112.093 1332.33,111.548 1352.35,99.804 1372.37,100.728 1392.39,93.3383 1412.41,86.391 1432.43,86.1857 1452.45,93.527 1472.47,90.9048 1492.49,89.4435 1512.51,88.877 1532.53,88.294 1552.55,95.0827 1572.57,94.9436 1592.59,94.3434 1612.61,94.1891 1632.63,94.0865 1652.65,100.885 1672.67,100.604 1692.69,100.14 1712.71,98.6579 1732.73,99.843 1752.75,99.6984 1772.77,99.4749 1792.79,99.2618 1812.81,99.0806 1832.83,100.839 1852.85,100.664 1872.87,100.51 1892.89,99.6947 1912.91,99.3036 1932.93,104.846 1952.95,104.685 1972.97,104.574 1992.99,102.824 2013.01,108.094 2033.03,106.785 2053.05,106.147 2073.07,105.812 2093.09,105.256 2113.11,109.645 2133.13,109.476 2153.16,109.22 2173.18,109.115 2193.2,108.563 2213.22,113.291 2233.24,113.059 2253.26,112.554 2273.28,112.485 2293.3,116.309 "></polyline>
<path clip-path="url(#clip290)" d="M1786.48 1377.32 L2282.73 1377.32 L2282.73 962.595 L1786.48 962.595  Z" fill="#ffffff" fill-rule="evenodd" fill-opacity="1"></path>
<polyline clip-path="url(#clip290)" style="stroke:#000000; stroke-linecap:round; stroke-linejoin:round; stroke-width:4; stroke-opacity:1; fill:none" points="1786.48,1377.32 2282.73,1377.32 2282.73,962.595 1786.48,962.595 1786.48,1377.32 "></polyline>
<polyline clip-path="url(#clip290)" style="stroke:#000000; stroke-linecap:round; stroke-linejoin:round; stroke-width:4; stroke-opacity:1; fill:none" stroke-dasharray="2, 4" points="1809.82,1014.44 1949.88,1014.44 "></polyline>
<path clip-path="url(#clip290)" d="M1998.78 1026.78 L1998.78 1017.5 L1991.14 1017.5 L1991.14 1013.66 L2003.41 1013.66 L2003.41 1028.5 Q2000.7 1030.42 1997.44 1031.41 Q1994.18 1032.39 1990.47 1032.39 Q1982.37 1032.39 1977.79 1027.66 Q1973.23 1022.92 1973.23 1014.47 Q1973.23 1006 1977.79 1001.28 Q1982.37 996.53 1990.47 996.53 Q1993.85 996.53 1996.88 997.364 Q1999.94 998.197 2002.51 999.817 L2002.51 1004.79 Q1999.92 1002.6 1997 1001.48 Q1994.08 1000.37 1990.86 1000.37 Q1984.52 1000.37 1981.33 1003.91 Q1978.16 1007.46 1978.16 1014.47 Q1978.16 1021.46 1981.33 1025 Q1984.52 1028.54 1990.86 1028.54 Q1993.34 1028.54 1995.29 1028.13 Q1997.23 1027.69 1998.78 1026.78 Z" fill="#000000" fill-rule="nonzero" fill-opacity="1"></path><path clip-path="url(#clip290)" d="M2005.47 997.155 L2034.71 997.155 L2034.71 1001.09 L2022.44 1001.09 L2022.44 1031.72 L2017.74 1031.72 L2017.74 1001.09 L2005.47 1001.09 L2005.47 997.155 Z" fill="#000000" fill-rule="nonzero" fill-opacity="1"></path><path clip-path="url(#clip290)" d="M2033.6 997.155 L2062.83 997.155 L2062.83 1001.09 L2050.56 1001.09 L2050.56 1031.72 L2045.86 1031.72 L2045.86 1001.09 L2033.6 1001.09 L2033.6 997.155 Z" fill="#000000" fill-rule="nonzero" fill-opacity="1"></path><polyline clip-path="url(#clip290)" style="stroke:#e26f46; stroke-linecap:round; stroke-linejoin:round; stroke-width:4; stroke-opacity:1; fill:none" stroke-dasharray="16, 10" points="1809.82,1066.28 1949.88,1066.28 "></polyline>
<path clip-path="url(#clip290)" d="M1973.23 1049 L2002.46 1049 L2002.46 1052.93 L1990.19 1052.93 L1990.19 1083.56 L1985.49 1083.56 L1985.49 1052.93 L1973.23 1052.93 L1973.23 1049 Z" fill="#000000" fill-rule="nonzero" fill-opacity="1"></path><path clip-path="url(#clip290)" d="M2001.35 1049 L2030.59 1049 L2030.59 1052.93 L2018.32 1052.93 L2018.32 1083.56 L2013.62 1083.56 L2013.62 1052.93 L2001.35 1052.93 L2001.35 1049 Z" fill="#000000" fill-rule="nonzero" fill-opacity="1"></path><path clip-path="url(#clip290)" d="M2045.15 1047.58 Q2042.05 1052.91 2040.54 1058.12 Q2039.04 1063.32 2039.04 1068.67 Q2039.04 1074.02 2040.54 1079.27 Q2042.07 1084.5 2045.15 1089.81 L2041.44 1089.81 Q2037.97 1084.37 2036.24 1079.11 Q2034.52 1073.86 2034.52 1068.67 Q2034.52 1063.51 2036.24 1058.28 Q2037.95 1053.05 2041.44 1047.58 L2045.15 1047.58 Z" fill="#000000" fill-rule="nonzero" fill-opacity="1"></path><path clip-path="url(#clip290)" d="M2054.82 1079.62 L2062.46 1079.62 L2062.46 1053.25 L2054.15 1054.92 L2054.15 1050.66 L2062.42 1049 L2067.09 1049 L2067.09 1079.62 L2074.73 1079.62 L2074.73 1083.56 L2054.82 1083.56 L2054.82 1079.62 Z" fill="#000000" fill-rule="nonzero" fill-opacity="1"></path><path clip-path="url(#clip290)" d="M2082.9 1047.58 L2086.61 1047.58 Q2090.08 1053.05 2091.79 1058.28 Q2093.53 1063.51 2093.53 1068.67 Q2093.53 1073.86 2091.79 1079.11 Q2090.08 1084.37 2086.61 1089.81 L2082.9 1089.81 Q2085.98 1084.5 2087.48 1079.27 Q2089.01 1074.02 2089.01 1068.67 Q2089.01 1063.32 2087.48 1058.12 Q2085.98 1052.91 2082.9 1047.58 Z" fill="#000000" fill-rule="nonzero" fill-opacity="1"></path><polyline clip-path="url(#clip290)" style="stroke:#3da44d; stroke-linecap:round; stroke-linejoin:round; stroke-width:4; stroke-opacity:1; fill:none" stroke-dasharray="16, 10" points="1809.82,1118.12 1949.88,1118.12 "></polyline>
<path clip-path="url(#clip290)" d="M1973.23 1100.84 L2002.46 1100.84 L2002.46 1104.77 L1990.19 1104.77 L1990.19 1135.4 L1985.49 1135.4 L1985.49 1104.77 L1973.23 1104.77 L1973.23 1100.84 Z" fill="#000000" fill-rule="nonzero" fill-opacity="1"></path><path clip-path="url(#clip290)" d="M2001.35 1100.84 L2030.59 1100.84 L2030.59 1104.77 L2018.32 1104.77 L2018.32 1135.4 L2013.62 1135.4 L2013.62 1104.77 L2001.35 1104.77 L2001.35 1100.84 Z" fill="#000000" fill-rule="nonzero" fill-opacity="1"></path><path clip-path="url(#clip290)" d="M2045.15 1099.42 Q2042.05 1104.75 2040.54 1109.96 Q2039.04 1115.16 2039.04 1120.51 Q2039.04 1125.86 2040.54 1131.11 Q2042.07 1136.34 2045.15 1141.65 L2041.44 1141.65 Q2037.97 1136.21 2036.24 1130.95 Q2034.52 1125.7 2034.52 1120.51 Q2034.52 1115.35 2036.24 1110.12 Q2037.95 1104.89 2041.44 1099.42 L2045.15 1099.42 Z" fill="#000000" fill-rule="nonzero" fill-opacity="1"></path><path clip-path="url(#clip290)" d="M2058.04 1131.46 L2074.36 1131.46 L2074.36 1135.4 L2052.42 1135.4 L2052.42 1131.46 Q2055.08 1128.71 2059.66 1124.08 Q2064.27 1119.42 2065.45 1118.08 Q2067.69 1115.56 2068.57 1113.82 Q2069.48 1112.06 2069.48 1110.37 Q2069.48 1107.62 2067.53 1105.88 Q2065.61 1104.15 2062.51 1104.15 Q2060.31 1104.15 2057.86 1104.91 Q2055.42 1105.67 2052.65 1107.22 L2052.65 1102.5 Q2055.47 1101.37 2057.92 1100.79 Q2060.38 1100.21 2062.42 1100.21 Q2067.79 1100.21 2070.98 1102.9 Q2074.17 1105.58 2074.17 1110.07 Q2074.17 1112.2 2073.36 1114.12 Q2072.58 1116.02 2070.47 1118.61 Q2069.89 1119.28 2066.79 1122.5 Q2063.69 1125.7 2058.04 1131.46 Z" fill="#000000" fill-rule="nonzero" fill-opacity="1"></path><path clip-path="url(#clip290)" d="M2082.9 1099.42 L2086.61 1099.42 Q2090.08 1104.89 2091.79 1110.12 Q2093.53 1115.35 2093.53 1120.51 Q2093.53 1125.7 2091.79 1130.95 Q2090.08 1136.21 2086.61 1141.65 L2082.9 1141.65 Q2085.98 1136.34 2087.48 1131.11 Q2089.01 1125.86 2089.01 1120.51 Q2089.01 1115.16 2087.48 1109.96 Q2085.98 1104.75 2082.9 1099.42 Z" fill="#000000" fill-rule="nonzero" fill-opacity="1"></path><polyline clip-path="url(#clip290)" style="stroke:#c271d2; stroke-linecap:round; stroke-linejoin:round; stroke-width:4; stroke-opacity:1; fill:none" stroke-dasharray="16, 10" points="1809.82,1169.96 1949.88,1169.96 "></polyline>
<path clip-path="url(#clip290)" d="M1973.23 1152.68 L2002.46 1152.68 L2002.46 1156.61 L1990.19 1156.61 L1990.19 1187.24 L1985.49 1187.24 L1985.49 1156.61 L1973.23 1156.61 L1973.23 1152.68 Z" fill="#000000" fill-rule="nonzero" fill-opacity="1"></path><path clip-path="url(#clip290)" d="M2001.35 1152.68 L2030.59 1152.68 L2030.59 1156.61 L2018.32 1156.61 L2018.32 1187.24 L2013.62 1187.24 L2013.62 1156.61 L2001.35 1156.61 L2001.35 1152.68 Z" fill="#000000" fill-rule="nonzero" fill-opacity="1"></path><path clip-path="url(#clip290)" d="M2045.15 1151.26 Q2042.05 1156.59 2040.54 1161.8 Q2039.04 1167 2039.04 1172.35 Q2039.04 1177.7 2040.54 1182.95 Q2042.07 1188.18 2045.15 1193.49 L2041.44 1193.49 Q2037.97 1188.05 2036.24 1182.79 Q2034.52 1177.54 2034.52 1172.35 Q2034.52 1167.19 2036.24 1161.96 Q2037.95 1156.73 2041.44 1151.26 L2045.15 1151.26 Z" fill="#000000" fill-rule="nonzero" fill-opacity="1"></path><path clip-path="url(#clip290)" d="M2054.82 1183.3 L2062.46 1183.3 L2062.46 1156.93 L2054.15 1158.6 L2054.15 1154.34 L2062.42 1152.68 L2067.09 1152.68 L2067.09 1183.3 L2074.73 1183.3 L2074.73 1187.24 L2054.82 1187.24 L2054.82 1183.3 Z" fill="#000000" fill-rule="nonzero" fill-opacity="1"></path><path clip-path="url(#clip290)" d="M2097.02 1156.75 L2085.22 1175.2 L2097.02 1175.2 L2097.02 1156.75 M2095.79 1152.68 L2101.67 1152.68 L2101.67 1175.2 L2106.61 1175.2 L2106.61 1179.09 L2101.67 1179.09 L2101.67 1187.24 L2097.02 1187.24 L2097.02 1179.09 L2081.42 1179.09 L2081.42 1174.57 L2095.79 1152.68 Z" fill="#000000" fill-rule="nonzero" fill-opacity="1"></path><path clip-path="url(#clip290)" d="M2113.06 1151.26 L2116.77 1151.26 Q2120.24 1156.73 2121.95 1161.96 Q2123.69 1167.19 2123.69 1172.35 Q2123.69 1177.54 2121.95 1182.79 Q2120.24 1188.05 2116.77 1193.49 L2113.06 1193.49 Q2116.14 1188.18 2117.65 1182.95 Q2119.17 1177.7 2119.17 1172.35 Q2119.17 1167 2117.65 1161.8 Q2116.14 1156.59 2113.06 1151.26 Z" fill="#000000" fill-rule="nonzero" fill-opacity="1"></path><polyline clip-path="url(#clip290)" style="stroke:#ac8d18; stroke-linecap:round; stroke-linejoin:round; stroke-width:4; stroke-opacity:1; fill:none" points="1809.82,1221.8 1949.88,1221.8 "></polyline>
<path clip-path="url(#clip290)" d="M1973.23 1204.52 L2002.46 1204.52 L2002.46 1208.45 L1990.19 1208.45 L1990.19 1239.08 L1985.49 1239.08 L1985.49 1208.45 L1973.23 1208.45 L1973.23 1204.52 Z" fill="#000000" fill-rule="nonzero" fill-opacity="1"></path><path clip-path="url(#clip290)" d="M2001.35 1204.52 L2030.59 1204.52 L2030.59 1208.45 L2018.32 1208.45 L2018.32 1239.08 L2013.62 1239.08 L2013.62 1208.45 L2001.35 1208.45 L2001.35 1204.52 Z" fill="#000000" fill-rule="nonzero" fill-opacity="1"></path><path clip-path="url(#clip290)" d="M2045.15 1203.1 Q2042.05 1208.43 2040.54 1213.64 Q2039.04 1218.84 2039.04 1224.19 Q2039.04 1229.54 2040.54 1234.79 Q2042.07 1240.02 2045.15 1245.33 L2041.44 1245.33 Q2037.97 1239.89 2036.24 1234.63 Q2034.52 1229.38 2034.52 1224.19 Q2034.52 1219.03 2036.24 1213.8 Q2037.95 1208.57 2041.44 1203.1 L2045.15 1203.1 Z" fill="#000000" fill-rule="nonzero" fill-opacity="1"></path><path clip-path="url(#clip290)" d="M2068.18 1220.44 Q2071.54 1221.16 2073.41 1223.43 Q2075.31 1225.7 2075.31 1229.03 Q2075.31 1234.14 2071.79 1236.95 Q2068.27 1239.75 2061.79 1239.75 Q2059.61 1239.75 2057.3 1239.31 Q2055.01 1238.89 2052.55 1238.03 L2052.55 1233.52 Q2054.5 1234.65 2056.81 1235.23 Q2059.13 1235.81 2061.65 1235.81 Q2066.05 1235.81 2068.34 1234.08 Q2070.66 1232.34 2070.66 1229.03 Q2070.66 1225.97 2068.5 1224.26 Q2066.37 1222.52 2062.55 1222.52 L2058.53 1222.52 L2058.53 1218.68 L2062.74 1218.68 Q2066.19 1218.68 2068.02 1217.32 Q2069.85 1215.93 2069.85 1213.33 Q2069.85 1210.67 2067.95 1209.26 Q2066.07 1207.83 2062.55 1207.83 Q2060.63 1207.83 2058.43 1208.24 Q2056.23 1208.66 2053.6 1209.54 L2053.6 1205.37 Q2056.26 1204.63 2058.57 1204.26 Q2060.91 1203.89 2062.97 1203.89 Q2068.3 1203.89 2071.4 1206.32 Q2074.5 1208.73 2074.5 1212.85 Q2074.5 1215.72 2072.86 1217.71 Q2071.21 1219.68 2068.18 1220.44 Z" fill="#000000" fill-rule="nonzero" fill-opacity="1"></path><path clip-path="url(#clip290)" d="M2094.17 1207.59 Q2090.56 1207.59 2088.73 1211.16 Q2086.93 1214.7 2086.93 1221.83 Q2086.93 1228.94 2088.73 1232.5 Q2090.56 1236.04 2094.17 1236.04 Q2097.81 1236.04 2099.61 1232.5 Q2101.44 1228.94 2101.44 1221.83 Q2101.44 1214.7 2099.61 1211.16 Q2097.81 1207.59 2094.17 1207.59 M2094.17 1203.89 Q2099.98 1203.89 2103.04 1208.5 Q2106.12 1213.08 2106.12 1221.83 Q2106.12 1230.56 2103.04 1235.16 Q2099.98 1239.75 2094.17 1239.75 Q2088.36 1239.75 2085.29 1235.16 Q2082.23 1230.56 2082.23 1221.83 Q2082.23 1213.08 2085.29 1208.5 Q2088.36 1203.89 2094.17 1203.89 Z" fill="#000000" fill-rule="nonzero" fill-opacity="1"></path><path clip-path="url(#clip290)" d="M2124.34 1222.66 Q2121 1222.66 2119.08 1224.45 Q2117.18 1226.23 2117.18 1229.35 Q2117.18 1232.48 2119.08 1234.26 Q2121 1236.04 2124.34 1236.04 Q2127.67 1236.04 2129.59 1234.26 Q2131.51 1232.45 2131.51 1229.35 Q2131.51 1226.23 2129.59 1224.45 Q2127.69 1222.66 2124.34 1222.66 M2119.66 1220.67 Q2116.65 1219.93 2114.96 1217.87 Q2113.29 1215.81 2113.29 1212.85 Q2113.29 1208.71 2116.23 1206.3 Q2119.2 1203.89 2124.34 1203.89 Q2129.5 1203.89 2132.44 1206.3 Q2135.38 1208.71 2135.38 1212.85 Q2135.38 1215.81 2133.69 1217.87 Q2132.02 1219.93 2129.04 1220.67 Q2132.42 1221.46 2134.29 1223.75 Q2136.19 1226.04 2136.19 1229.35 Q2136.19 1234.38 2133.11 1237.06 Q2130.05 1239.75 2124.34 1239.75 Q2118.62 1239.75 2115.54 1237.06 Q2112.48 1234.38 2112.48 1229.35 Q2112.48 1226.04 2114.38 1223.75 Q2116.28 1221.46 2119.66 1220.67 M2117.95 1213.29 Q2117.95 1215.97 2119.61 1217.48 Q2121.3 1218.98 2124.34 1218.98 Q2127.35 1218.98 2129.04 1217.48 Q2130.75 1215.97 2130.75 1213.29 Q2130.75 1210.6 2129.04 1209.1 Q2127.35 1207.59 2124.34 1207.59 Q2121.3 1207.59 2119.61 1209.1 Q2117.95 1210.6 2117.95 1213.29 Z" fill="#000000" fill-rule="nonzero" fill-opacity="1"></path><path clip-path="url(#clip290)" d="M2144.5 1233.2 L2149.38 1233.2 L2149.38 1239.08 L2144.5 1239.08 L2144.5 1233.2 Z" fill="#000000" fill-rule="nonzero" fill-opacity="1"></path><path clip-path="url(#clip290)" d="M2169.57 1207.59 Q2165.96 1207.59 2164.13 1211.16 Q2162.32 1214.7 2162.32 1221.83 Q2162.32 1228.94 2164.13 1232.5 Q2165.96 1236.04 2169.57 1236.04 Q2173.2 1236.04 2175.01 1232.5 Q2176.84 1228.94 2176.84 1221.83 Q2176.84 1214.7 2175.01 1211.16 Q2173.2 1207.59 2169.57 1207.59 M2169.57 1203.89 Q2175.38 1203.89 2178.43 1208.5 Q2181.51 1213.08 2181.51 1221.83 Q2181.51 1230.56 2178.43 1235.16 Q2175.38 1239.75 2169.57 1239.75 Q2163.76 1239.75 2160.68 1235.16 Q2157.62 1230.56 2157.62 1221.83 Q2157.62 1213.08 2160.68 1208.5 Q2163.76 1203.89 2169.57 1203.89 Z" fill="#000000" fill-rule="nonzero" fill-opacity="1"></path><path clip-path="url(#clip290)" d="M2190.22 1233.2 L2195.1 1233.2 L2195.1 1237.18 L2191.3 1244.58 L2188.32 1244.58 L2190.22 1237.18 L2190.22 1233.2 Z" fill="#000000" fill-rule="nonzero" fill-opacity="1"></path><path clip-path="url(#clip290)" d="M2220.68 1235.14 L2228.32 1235.14 L2228.32 1208.77 L2220.01 1210.44 L2220.01 1206.18 L2228.27 1204.52 L2232.95 1204.52 L2232.95 1235.14 L2240.59 1235.14 L2240.59 1239.08 L2220.68 1239.08 L2220.68 1235.14 Z" fill="#000000" fill-rule="nonzero" fill-opacity="1"></path><path clip-path="url(#clip290)" d="M2248.76 1203.1 L2252.46 1203.1 Q2255.93 1208.57 2257.65 1213.8 Q2259.38 1219.03 2259.38 1224.19 Q2259.38 1229.38 2257.65 1234.63 Q2255.93 1239.89 2252.46 1245.33 L2248.76 1245.33 Q2251.84 1240.02 2253.34 1234.79 Q2254.87 1229.54 2254.87 1224.19 Q2254.87 1218.84 2253.34 1213.64 Q2251.84 1208.43 2248.76 1203.1 Z" fill="#000000" fill-rule="nonzero" fill-opacity="1"></path><polyline clip-path="url(#clip290)" style="stroke:#00a9ad; stroke-linecap:round; stroke-linejoin:round; stroke-width:4; stroke-opacity:1; fill:none" points="1809.82,1273.64 1949.88,1273.64 "></polyline>
<path clip-path="url(#clip290)" d="M1973.23 1256.36 L2002.46 1256.36 L2002.46 1260.29 L1990.19 1260.29 L1990.19 1290.92 L1985.49 1290.92 L1985.49 1260.29 L1973.23 1260.29 L1973.23 1256.36 Z" fill="#000000" fill-rule="nonzero" fill-opacity="1"></path><path clip-path="url(#clip290)" d="M2001.35 1256.36 L2030.59 1256.36 L2030.59 1260.29 L2018.32 1260.29 L2018.32 1290.92 L2013.62 1290.92 L2013.62 1260.29 L2001.35 1260.29 L2001.35 1256.36 Z" fill="#000000" fill-rule="nonzero" fill-opacity="1"></path><path clip-path="url(#clip290)" d="M2045.15 1254.94 Q2042.05 1260.27 2040.54 1265.48 Q2039.04 1270.68 2039.04 1276.03 Q2039.04 1281.38 2040.54 1286.63 Q2042.07 1291.86 2045.15 1297.17 L2041.44 1297.17 Q2037.97 1291.73 2036.24 1286.47 Q2034.52 1281.22 2034.52 1276.03 Q2034.52 1270.87 2036.24 1265.64 Q2037.95 1260.41 2041.44 1254.94 L2045.15 1254.94 Z" fill="#000000" fill-rule="nonzero" fill-opacity="1"></path><path clip-path="url(#clip290)" d="M2054.82 1286.98 L2062.46 1286.98 L2062.46 1260.61 L2054.15 1262.28 L2054.15 1258.02 L2062.42 1256.36 L2067.09 1256.36 L2067.09 1286.98 L2074.73 1286.98 L2074.73 1290.92 L2054.82 1290.92 L2054.82 1286.98 Z" fill="#000000" fill-rule="nonzero" fill-opacity="1"></path><path clip-path="url(#clip290)" d="M2084.22 1256.36 L2102.58 1256.36 L2102.58 1260.29 L2088.5 1260.29 L2088.5 1268.76 Q2089.52 1268.42 2090.54 1268.25 Q2091.56 1268.07 2092.58 1268.07 Q2098.36 1268.07 2101.74 1271.24 Q2105.12 1274.41 2105.12 1279.83 Q2105.12 1285.41 2101.65 1288.51 Q2098.18 1291.59 2091.86 1291.59 Q2089.68 1291.59 2087.42 1291.22 Q2085.17 1290.85 2082.76 1290.11 L2082.76 1285.41 Q2084.85 1286.54 2087.07 1287.1 Q2089.29 1287.65 2091.77 1287.65 Q2095.77 1287.65 2098.11 1285.54 Q2100.45 1283.44 2100.45 1279.83 Q2100.45 1276.22 2098.11 1274.11 Q2095.77 1272 2091.77 1272 Q2089.89 1272 2088.02 1272.42 Q2086.17 1272.84 2084.22 1273.72 L2084.22 1256.36 Z" fill="#000000" fill-rule="nonzero" fill-opacity="1"></path><path clip-path="url(#clip290)" d="M2127.18 1260.43 L2115.38 1278.88 L2127.18 1278.88 L2127.18 1260.43 M2125.96 1256.36 L2131.84 1256.36 L2131.84 1278.88 L2136.77 1278.88 L2136.77 1282.77 L2131.84 1282.77 L2131.84 1290.92 L2127.18 1290.92 L2127.18 1282.77 L2111.58 1282.77 L2111.58 1278.25 L2125.96 1256.36 Z" fill="#000000" fill-rule="nonzero" fill-opacity="1"></path><path clip-path="url(#clip290)" d="M2144.5 1285.04 L2149.38 1285.04 L2149.38 1290.92 L2144.5 1290.92 L2144.5 1285.04 Z" fill="#000000" fill-rule="nonzero" fill-opacity="1"></path><path clip-path="url(#clip290)" d="M2169.57 1259.43 Q2165.96 1259.43 2164.13 1263 Q2162.32 1266.54 2162.32 1273.67 Q2162.32 1280.78 2164.13 1284.34 Q2165.96 1287.88 2169.57 1287.88 Q2173.2 1287.88 2175.01 1284.34 Q2176.84 1280.78 2176.84 1273.67 Q2176.84 1266.54 2175.01 1263 Q2173.2 1259.43 2169.57 1259.43 M2169.57 1255.73 Q2175.38 1255.73 2178.43 1260.34 Q2181.51 1264.92 2181.51 1273.67 Q2181.51 1282.4 2178.43 1287 Q2175.38 1291.59 2169.57 1291.59 Q2163.76 1291.59 2160.68 1287 Q2157.62 1282.4 2157.62 1273.67 Q2157.62 1264.92 2160.68 1260.34 Q2163.76 1255.73 2169.57 1255.73 Z" fill="#000000" fill-rule="nonzero" fill-opacity="1"></path><path clip-path="url(#clip290)" d="M2190.22 1285.04 L2195.1 1285.04 L2195.1 1289.02 L2191.3 1296.42 L2188.32 1296.42 L2190.22 1289.02 L2190.22 1285.04 Z" fill="#000000" fill-rule="nonzero" fill-opacity="1"></path><path clip-path="url(#clip290)" d="M2223.9 1286.98 L2240.22 1286.98 L2240.22 1290.92 L2218.27 1290.92 L2218.27 1286.98 Q2220.93 1284.23 2225.52 1279.6 Q2230.12 1274.94 2231.3 1273.6 Q2233.55 1271.08 2234.43 1269.34 Q2235.33 1267.58 2235.33 1265.89 Q2235.33 1263.14 2233.39 1261.4 Q2231.47 1259.67 2228.36 1259.67 Q2226.16 1259.67 2223.71 1260.43 Q2221.28 1261.19 2218.5 1262.74 L2218.5 1258.02 Q2221.33 1256.89 2223.78 1256.31 Q2226.23 1255.73 2228.27 1255.73 Q2233.64 1255.73 2236.84 1258.42 Q2240.03 1261.1 2240.03 1265.59 Q2240.03 1267.72 2239.22 1269.64 Q2238.43 1271.54 2236.33 1274.13 Q2235.75 1274.8 2232.65 1278.02 Q2229.54 1281.22 2223.9 1286.98 Z" fill="#000000" fill-rule="nonzero" fill-opacity="1"></path><path clip-path="url(#clip290)" d="M2248.76 1254.94 L2252.46 1254.94 Q2255.93 1260.41 2257.65 1265.64 Q2259.38 1270.87 2259.38 1276.03 Q2259.38 1281.22 2257.65 1286.47 Q2255.93 1291.73 2252.46 1297.17 L2248.76 1297.17 Q2251.84 1291.86 2253.34 1286.63 Q2254.87 1281.38 2254.87 1276.03 Q2254.87 1270.68 2253.34 1265.48 Q2251.84 1260.27 2248.76 1254.94 Z" fill="#000000" fill-rule="nonzero" fill-opacity="1"></path><polyline clip-path="url(#clip290)" style="stroke:#ed5d92; stroke-linecap:round; stroke-linejoin:round; stroke-width:4; stroke-opacity:1; fill:none" points="1809.82,1325.48 1949.88,1325.48 "></polyline>
<path clip-path="url(#clip290)" d="M1973.23 1308.2 L2002.46 1308.2 L2002.46 1312.13 L1990.19 1312.13 L1990.19 1342.76 L1985.49 1342.76 L1985.49 1312.13 L1973.23 1312.13 L1973.23 1308.2 Z" fill="#000000" fill-rule="nonzero" fill-opacity="1"></path><path clip-path="url(#clip290)" d="M2001.35 1308.2 L2030.59 1308.2 L2030.59 1312.13 L2018.32 1312.13 L2018.32 1342.76 L2013.62 1342.76 L2013.62 1312.13 L2001.35 1312.13 L2001.35 1308.2 Z" fill="#000000" fill-rule="nonzero" fill-opacity="1"></path><path clip-path="url(#clip290)" d="M2045.15 1306.78 Q2042.05 1312.11 2040.54 1317.32 Q2039.04 1322.52 2039.04 1327.87 Q2039.04 1333.22 2040.54 1338.47 Q2042.07 1343.7 2045.15 1349.01 L2041.44 1349.01 Q2037.97 1343.57 2036.24 1338.31 Q2034.52 1333.06 2034.52 1327.87 Q2034.52 1322.71 2036.24 1317.48 Q2037.95 1312.25 2041.44 1306.78 L2045.15 1306.78 Z" fill="#000000" fill-rule="nonzero" fill-opacity="1"></path><path clip-path="url(#clip290)" d="M2058.04 1338.82 L2074.36 1338.82 L2074.36 1342.76 L2052.42 1342.76 L2052.42 1338.82 Q2055.08 1336.07 2059.66 1331.44 Q2064.27 1326.78 2065.45 1325.44 Q2067.69 1322.92 2068.57 1321.18 Q2069.48 1319.42 2069.48 1317.73 Q2069.48 1314.98 2067.53 1313.24 Q2065.61 1311.51 2062.51 1311.51 Q2060.31 1311.51 2057.86 1312.27 Q2055.42 1313.03 2052.65 1314.58 L2052.65 1309.86 Q2055.47 1308.73 2057.92 1308.15 Q2060.38 1307.57 2062.42 1307.57 Q2067.79 1307.57 2070.98 1310.26 Q2074.17 1312.94 2074.17 1317.43 Q2074.17 1319.56 2073.36 1321.48 Q2072.58 1323.38 2070.47 1325.97 Q2069.89 1326.64 2066.79 1329.86 Q2063.69 1333.06 2058.04 1338.82 Z" fill="#000000" fill-rule="nonzero" fill-opacity="1"></path><path clip-path="url(#clip290)" d="M2088.2 1338.82 L2104.52 1338.82 L2104.52 1342.76 L2082.58 1342.76 L2082.58 1338.82 Q2085.24 1336.07 2089.82 1331.44 Q2094.43 1326.78 2095.61 1325.44 Q2097.86 1322.92 2098.73 1321.18 Q2099.64 1319.42 2099.64 1317.73 Q2099.64 1314.98 2097.69 1313.24 Q2095.77 1311.51 2092.67 1311.51 Q2090.47 1311.51 2088.02 1312.27 Q2085.59 1313.03 2082.81 1314.58 L2082.81 1309.86 Q2085.63 1308.73 2088.09 1308.15 Q2090.54 1307.57 2092.58 1307.57 Q2097.95 1307.57 2101.14 1310.26 Q2104.34 1312.94 2104.34 1317.43 Q2104.34 1319.56 2103.53 1321.48 Q2102.74 1323.38 2100.63 1325.97 Q2100.05 1326.64 2096.95 1329.86 Q2093.85 1333.06 2088.2 1338.82 Z" fill="#000000" fill-rule="nonzero" fill-opacity="1"></path><path clip-path="url(#clip290)" d="M2114.34 1336.88 L2119.22 1336.88 L2119.22 1342.76 L2114.34 1342.76 L2114.34 1336.88 Z" fill="#000000" fill-rule="nonzero" fill-opacity="1"></path><path clip-path="url(#clip290)" d="M2139.41 1311.27 Q2135.79 1311.27 2133.97 1314.84 Q2132.16 1318.38 2132.16 1325.51 Q2132.16 1332.62 2133.97 1336.18 Q2135.79 1339.72 2139.41 1339.72 Q2143.04 1339.72 2144.85 1336.18 Q2146.67 1332.62 2146.67 1325.51 Q2146.67 1318.38 2144.85 1314.84 Q2143.04 1311.27 2139.41 1311.27 M2139.41 1307.57 Q2145.22 1307.57 2148.27 1312.18 Q2151.35 1316.76 2151.35 1325.51 Q2151.35 1334.24 2148.27 1338.84 Q2145.22 1343.43 2139.41 1343.43 Q2133.6 1343.43 2130.52 1338.84 Q2127.46 1334.24 2127.46 1325.51 Q2127.46 1316.76 2130.52 1312.18 Q2133.6 1307.57 2139.41 1307.57 Z" fill="#000000" fill-rule="nonzero" fill-opacity="1"></path><path clip-path="url(#clip290)" d="M2160.05 1336.88 L2164.94 1336.88 L2164.94 1340.86 L2161.14 1348.26 L2158.16 1348.26 L2160.05 1340.86 L2160.05 1336.88 Z" fill="#000000" fill-rule="nonzero" fill-opacity="1"></path><path clip-path="url(#clip290)" d="M2190.52 1338.82 L2198.16 1338.82 L2198.16 1312.45 L2189.85 1314.12 L2189.85 1309.86 L2198.11 1308.2 L2202.79 1308.2 L2202.79 1338.82 L2210.42 1338.82 L2210.42 1342.76 L2190.52 1342.76 L2190.52 1338.82 Z" fill="#000000" fill-rule="nonzero" fill-opacity="1"></path><path clip-path="url(#clip290)" d="M2232.72 1312.27 L2220.91 1330.72 L2232.72 1330.72 L2232.72 1312.27 M2231.49 1308.2 L2237.37 1308.2 L2237.37 1330.72 L2242.3 1330.72 L2242.3 1334.61 L2237.37 1334.61 L2237.37 1342.76 L2232.72 1342.76 L2232.72 1334.61 L2217.11 1334.61 L2217.11 1330.09 L2231.49 1308.2 Z" fill="#000000" fill-rule="nonzero" fill-opacity="1"></path><path clip-path="url(#clip290)" d="M2248.76 1306.78 L2252.46 1306.78 Q2255.93 1312.25 2257.65 1317.48 Q2259.38 1322.71 2259.38 1327.87 Q2259.38 1333.06 2257.65 1338.31 Q2255.93 1343.57 2252.46 1349.01 L2248.76 1349.01 Q2251.84 1343.7 2253.34 1338.47 Q2254.87 1333.22 2254.87 1327.87 Q2254.87 1322.52 2253.34 1317.32 Q2251.84 1312.11 2248.76 1306.78 Z" fill="#000000" fill-rule="nonzero" fill-opacity="1"></path></svg>