<svg xmlns="http://www.w3.org/2000/svg" xmlns:xlink="http://www.w3.org/1999/xlink" width="600" height="400" viewBox="0 0 2400 1600">
<defs>
  <clipPath id="clip010">
    <rect x="0" y="0" width="2400" height="1600"></rect>
  </clipPath>
</defs>
<path clip-path="url(#clip010)" d="M0 1600 L2400 1600 L2400 0 L0 0  Z" fill="#ffffff" fill-rule="evenodd" fill-opacity="1"></path>
<defs>
  <clipPath id="clip011">
    <rect x="480" y="0" width="1681" height="1600"></rect>
  </clipPath>
</defs>
<path clip-path="url(#clip010)" d="M289.251 1423.18 L2352.76 1423.18 L2352.76 123.472 L289.251 123.472  Z" fill="#ffffff" fill-rule="evenodd" fill-opacity="1"></path>
<defs>
  <clipPath id="clip012">
    <rect x="289" y="123" width="2065" height="1301"></rect>
  </clipPath>
</defs>
<polyline clip-path="url(#clip012)" style="stroke:#000000; stroke-linecap:round; stroke-linejoin:round; stroke-width:2; stroke-opacity:0.1; fill:none" points="327.988,1423.18 327.988,123.472 "></polyline>
<polyline clip-path="url(#clip012)" style="stroke:#000000; stroke-linecap:round; stroke-linejoin:round; stroke-width:2; stroke-opacity:0.1; fill:none" points="819.58,1423.18 819.58,123.472 "></polyline>
<polyline clip-path="url(#clip012)" style="stroke:#000000; stroke-linecap:round; stroke-linejoin:round; stroke-width:2; stroke-opacity:0.1; fill:none" points="1311.17,1423.18 1311.17,123.472 "></polyline>
<polyline clip-path="url(#clip012)" style="stroke:#000000; stroke-linecap:round; stroke-linejoin:round; stroke-width:2; stroke-opacity:0.1; fill:none" points="1802.76,1423.18 1802.76,123.472 "></polyline>
<polyline clip-path="url(#clip012)" style="stroke:#000000; stroke-linecap:round; stroke-linejoin:round; stroke-width:2; stroke-opacity:0.1; fill:none" points="2294.35,1423.18 2294.35,123.472 "></polyline>
<polyline clip-path="url(#clip012)" style="stroke:#000000; stroke-linecap:round; stroke-linejoin:round; stroke-width:2; stroke-opacity:0.1; fill:none" points="289.251,1116.99 2352.76,1116.99 "></polyline>
<polyline clip-path="url(#clip012)" style="stroke:#000000; stroke-linecap:round; stroke-linejoin:round; stroke-width:2; stroke-opacity:0.1; fill:none" points="289.251,797.969 2352.76,797.969 "></polyline>
<polyline clip-path="url(#clip012)" style="stroke:#000000; stroke-linecap:round; stroke-linejoin:round; stroke-width:2; stroke-opacity:0.1; fill:none" points="289.251,478.95 2352.76,478.95 "></polyline>
<polyline clip-path="url(#clip012)" style="stroke:#000000; stroke-linecap:round; stroke-linejoin:round; stroke-width:2; stroke-opacity:0.1; fill:none" points="289.251,159.932 2352.76,159.932 "></polyline>
<polyline clip-path="url(#clip010)" style="stroke:#000000; stroke-linecap:round; stroke-linejoin:round; stroke-width:4; stroke-opacity:1; fill:none" points="289.251,1423.18 2352.76,1423.18 "></polyline>
<polyline clip-path="url(#clip010)" style="stroke:#000000; stroke-linecap:round; stroke-linejoin:round; stroke-width:4; stroke-opacity:1; fill:none" points="327.988,1423.18 327.988,1404.28 "></polyline>
<polyline clip-path="url(#clip010)" style="stroke:#000000; stroke-linecap:round; stroke-linejoin:round; stroke-width:4; stroke-opacity:1; fill:none" points="819.58,1423.18 819.58,1404.28 "></polyline>
<polyline clip-path="url(#clip010)" style="stroke:#000000; stroke-linecap:round; stroke-linejoin:round; stroke-width:4; stroke-opacity:1; fill:none" points="1311.17,1423.18 1311.17,1404.28 "></polyline>
<polyline clip-path="url(#clip010)" style="stroke:#000000; stroke-linecap:round; stroke-linejoin:round; stroke-width:4; stroke-opacity:1; fill:none" points="1802.76,1423.18 1802.76,1404.28 "></polyline>
<polyline clip-path="url(#clip010)" style="stroke:#000000; stroke-linecap:round; stroke-linejoin:round; stroke-width:4; stroke-opacity:1; fill:none" points="2294.35,1423.18 2294.35,1404.28 "></polyline>
<path clip-path="url(#clip010)" d="M327.988 1454.1 Q324.377 1454.1 322.549 1457.66 Q320.743 1461.2 320.743 1468.33 Q320.743 1475.44 322.549 1479.01 Q324.377 1482.55 327.988 1482.55 Q331.623 1482.55 333.428 1479.01 Q335.257 1475.44 335.257 1468.33 Q335.257 1461.2 333.428 1457.66 Q331.623 1454.1 327.988 1454.1 M327.988 1450.39 Q333.799 1450.39 336.854 1455 Q339.933 1459.58 339.933 1468.33 Q339.933 1477.06 336.854 1481.67 Q333.799 1486.25 327.988 1486.25 Q322.178 1486.25 319.1 1481.67 Q316.044 1477.06 316.044 1468.33 Q316.044 1459.58 319.1 1455 Q322.178 1450.39 327.988 1450.39 Z" fill="#000000" fill-rule="nonzero" fill-opacity="1"></path><path clip-path="url(#clip010)" d="M798.851 1481.64 L815.17 1481.64 L815.17 1485.58 L793.226 1485.58 L793.226 1481.64 Q795.888 1478.89 800.471 1474.26 Q805.078 1469.61 806.258 1468.27 Q808.504 1465.74 809.383 1464.01 Q810.286 1462.25 810.286 1460.56 Q810.286 1457.8 808.342 1456.07 Q806.42 1454.33 803.319 1454.33 Q801.119 1454.33 798.666 1455.09 Q796.235 1455.86 793.457 1457.41 L793.457 1452.69 Q796.282 1451.55 798.735 1450.97 Q801.189 1450.39 803.226 1450.39 Q808.596 1450.39 811.791 1453.08 Q814.985 1455.77 814.985 1460.26 Q814.985 1462.39 814.175 1464.31 Q813.388 1466.2 811.281 1468.8 Q810.703 1469.47 807.601 1472.69 Q804.499 1475.88 798.851 1481.64 Z" fill="#000000" fill-rule="nonzero" fill-opacity="1"></path><path clip-path="url(#clip010)" d="M825.031 1451.02 L843.388 1451.02 L843.388 1454.96 L829.314 1454.96 L829.314 1463.43 Q830.332 1463.08 831.351 1462.92 Q832.369 1462.73 833.388 1462.73 Q839.175 1462.73 842.554 1465.9 Q845.934 1469.08 845.934 1474.49 Q845.934 1480.07 842.462 1483.17 Q838.99 1486.25 832.67 1486.25 Q830.494 1486.25 828.226 1485.88 Q825.98 1485.51 823.573 1484.77 L823.573 1480.07 Q825.656 1481.2 827.879 1481.76 Q830.101 1482.32 832.578 1482.32 Q836.582 1482.32 838.92 1480.21 Q841.258 1478.1 841.258 1474.49 Q841.258 1470.88 838.92 1468.77 Q836.582 1466.67 832.578 1466.67 Q830.703 1466.67 828.828 1467.08 Q826.976 1467.5 825.031 1468.38 L825.031 1451.02 Z" fill="#000000" fill-rule="nonzero" fill-opacity="1"></path><path clip-path="url(#clip010)" d="M1285.87 1451.02 L1304.23 1451.02 L1304.23 1454.96 L1290.15 1454.96 L1290.15 1463.43 Q1291.17 1463.08 1292.19 1462.92 Q1293.21 1462.73 1294.23 1462.73 Q1300.01 1462.73 1303.39 1465.9 Q1306.77 1469.08 1306.77 1474.49 Q1306.77 1480.07 1303.3 1483.17 Q1299.83 1486.25 1293.51 1486.25 Q1291.33 1486.25 1289.07 1485.88 Q1286.82 1485.51 1284.41 1484.77 L1284.41 1480.07 Q1286.5 1481.2 1288.72 1481.76 Q1290.94 1482.32 1293.42 1482.32 Q1297.42 1482.32 1299.76 1480.21 Q1302.1 1478.1 1302.1 1474.49 Q1302.1 1470.88 1299.76 1468.77 Q1297.42 1466.67 1293.42 1466.67 Q1291.54 1466.67 1289.67 1467.08 Q1287.82 1467.5 1285.87 1468.38 L1285.87 1451.02 Z" fill="#000000" fill-rule="nonzero" fill-opacity="1"></path><path clip-path="url(#clip010)" d="M1325.99 1454.1 Q1322.38 1454.1 1320.55 1457.66 Q1318.74 1461.2 1318.74 1468.33 Q1318.74 1475.44 1320.55 1479.01 Q1322.38 1482.55 1325.99 1482.55 Q1329.62 1482.55 1331.43 1479.01 Q1333.25 1475.44 1333.25 1468.33 Q1333.25 1461.2 1331.43 1457.66 Q1329.62 1454.1 1325.99 1454.1 M1325.99 1450.39 Q1331.8 1450.39 1334.85 1455 Q1337.93 1459.58 1337.93 1468.33 Q1337.93 1477.06 1334.85 1481.67 Q1331.8 1486.25 1325.99 1486.25 Q1320.18 1486.25 1317.1 1481.67 Q1314.04 1477.06 1314.04 1468.33 Q1314.04 1459.58 1317.1 1455 Q1320.18 1450.39 1325.99 1450.39 Z" fill="#000000" fill-rule="nonzero" fill-opacity="1"></path><path clip-path="url(#clip010)" d="M1776.62 1451.02 L1798.84 1451.02 L1798.84 1453.01 L1786.29 1485.58 L1781.41 1485.58 L1793.21 1454.96 L1776.62 1454.96 L1776.62 1451.02 Z" fill="#000000" fill-rule="nonzero" fill-opacity="1"></path><path clip-path="url(#clip010)" d="M1808.01 1451.02 L1826.36 1451.02 L1826.36 1454.96 L1812.29 1454.96 L1812.29 1463.43 Q1813.31 1463.08 1814.33 1462.92 Q1815.34 1462.73 1816.36 1462.73 Q1822.15 1462.73 1825.53 1465.9 Q1828.91 1469.08 1828.91 1474.49 Q1828.91 1480.07 1825.44 1483.17 Q1821.96 1486.25 1815.65 1486.25 Q1813.47 1486.25 1811.2 1485.88 Q1808.96 1485.51 1806.55 1484.77 L1806.55 1480.07 Q1808.63 1481.2 1810.85 1481.76 Q1813.08 1482.32 1815.55 1482.32 Q1819.56 1482.32 1821.9 1480.21 Q1824.23 1478.1 1824.23 1474.49 Q1824.23 1470.88 1821.9 1468.77 Q1819.56 1466.67 1815.55 1466.67 Q1813.68 1466.67 1811.8 1467.08 Q1809.95 1467.5 1808.01 1468.38 L1808.01 1451.02 Z" fill="#000000" fill-rule="nonzero" fill-opacity="1"></path><path clip-path="url(#clip010)" d="M2253.96 1481.64 L2261.6 1481.64 L2261.6 1455.28 L2253.29 1456.95 L2253.29 1452.69 L2261.55 1451.02 L2266.23 1451.02 L2266.23 1481.64 L2273.87 1481.64 L2273.87 1485.58 L2253.96 1485.58 L2253.96 1481.64 Z" fill="#000000" fill-rule="nonzero" fill-opacity="1"></path><path clip-path="url(#clip010)" d="M2293.31 1454.1 Q2289.7 1454.1 2287.87 1457.66 Q2286.07 1461.2 2286.07 1468.33 Q2286.07 1475.44 2287.87 1479.01 Q2289.7 1482.55 2293.31 1482.55 Q2296.95 1482.55 2298.75 1479.01 Q2300.58 1475.44 2300.58 1468.33 Q2300.58 1461.2 2298.75 1457.66 Q2296.95 1454.1 2293.31 1454.1 M2293.31 1450.39 Q2299.12 1450.39 2302.18 1455 Q2305.26 1459.58 2305.26 1468.33 Q2305.26 1477.06 2302.18 1481.67 Q2299.12 1486.25 2293.31 1486.25 Q2287.5 1486.25 2284.42 1481.67 Q2281.37 1477.06 2281.37 1468.33 Q2281.37 1459.58 2284.42 1455 Q2287.5 1450.39 2293.31 1450.39 Z" fill="#000000" fill-rule="nonzero" fill-opacity="1"></path><path clip-path="url(#clip010)" d="M2323.48 1454.1 Q2319.86 1454.1 2318.04 1457.66 Q2316.23 1461.2 2316.23 1468.33 Q2316.23 1475.44 2318.04 1479.01 Q2319.86 1482.55 2323.48 1482.55 Q2327.11 1482.55 2328.91 1479.01 Q2330.74 1475.44 2330.74 1468.33 Q2330.74 1461.2 2328.91 1457.66 Q2327.11 1454.1 2323.48 1454.1 M2323.48 1450.39 Q2329.29 1450.39 2332.34 1455 Q2335.42 1459.58 2335.42 1468.33 Q2335.42 1477.06 2332.34 1481.67 Q2329.29 1486.25 2323.48 1486.25 Q2317.66 1486.25 2314.59 1481.67 Q2311.53 1477.06 2311.53 1468.33 Q2311.53 1459.58 2314.59 1455 Q2317.66 1450.39 2323.48 1450.39 Z" fill="#000000" fill-rule="nonzero" fill-opacity="1"></path><path clip-path="url(#clip010)" d="M958.508 1520.52 L988.554 1520.52 L988.554 1525.93 L964.938 1525.93 L964.938 1540 L987.568 1540 L987.568 1545.41 L964.938 1545.41 L964.938 1562.63 L989.127 1562.63 L989.127 1568.04 L958.508 1568.04 L958.508 1520.52 Z" fill="#000000" fill-rule="nonzero" fill-opacity="1"></path><path clip-path="url(#clip010)" d="M1027.19 1539.24 Q1029.39 1535.29 1032.45 1533.41 Q1035.5 1531.54 1039.64 1531.54 Q1045.21 1531.54 1048.23 1535.45 Q1051.26 1539.33 1051.26 1546.53 L1051.26 1568.04 L1045.37 1568.04 L1045.37 1546.72 Q1045.37 1541.59 1043.55 1539.11 Q1041.74 1536.63 1038.02 1536.63 Q1033.46 1536.63 1030.82 1539.65 Q1028.18 1542.68 1028.18 1547.9 L1028.18 1568.04 L1022.29 1568.04 L1022.29 1546.72 Q1022.29 1541.56 1020.48 1539.11 Q1018.66 1536.63 1014.88 1536.63 Q1010.39 1536.63 1007.75 1539.68 Q1005.11 1542.71 1005.11 1547.9 L1005.11 1568.04 L999.217 1568.04 L999.217 1532.4 L1005.11 1532.4 L1005.11 1537.93 Q1007.11 1534.66 1009.91 1533.1 Q1012.71 1531.54 1016.56 1531.54 Q1020.45 1531.54 1023.15 1533.51 Q1025.89 1535.48 1027.19 1539.24 Z" fill="#000000" fill-rule="nonzero" fill-opacity="1"></path><path clip-path="url(#clip010)" d="M1088.53 1550.25 Q1088.53 1543.79 1085.85 1540.13 Q1083.21 1536.44 1078.57 1536.44 Q1073.92 1536.44 1071.24 1540.13 Q1068.6 1543.79 1068.6 1550.25 Q1068.6 1556.71 1071.24 1560.4 Q1073.92 1564.07 1078.57 1564.07 Q1083.21 1564.07 1085.85 1560.4 Q1088.53 1556.71 1088.53 1550.25 M1068.6 1537.81 Q1070.45 1534.62 1073.25 1533.1 Q1076.08 1531.54 1080 1531.54 Q1086.49 1531.54 1090.53 1536.69 Q1094.61 1541.85 1094.61 1550.25 Q1094.61 1558.65 1090.53 1563.81 Q1086.49 1568.97 1080 1568.97 Q1076.08 1568.97 1073.25 1567.44 Q1070.45 1565.88 1068.6 1562.7 L1068.6 1568.04 L1062.71 1568.04 L1062.71 1518.52 L1068.6 1518.52 L1068.6 1537.81 Z" fill="#000000" fill-rule="nonzero" fill-opacity="1"></path><path clip-path="url(#clip010)" d="M1134.81 1548.76 L1134.81 1551.62 L1107.88 1551.62 Q1108.26 1557.67 1111.51 1560.85 Q1114.79 1564 1120.61 1564 Q1123.98 1564 1127.14 1563.17 Q1130.32 1562.35 1133.44 1560.69 L1133.44 1566.23 Q1130.29 1567.57 1126.98 1568.27 Q1123.67 1568.97 1120.26 1568.97 Q1111.73 1568.97 1106.73 1564 Q1101.77 1559.04 1101.77 1550.57 Q1101.77 1541.82 1106.48 1536.69 Q1111.22 1531.54 1119.24 1531.54 Q1126.44 1531.54 1130.61 1536.18 Q1134.81 1540.8 1134.81 1548.76 M1128.95 1547.04 Q1128.89 1542.23 1126.24 1539.37 Q1123.63 1536.5 1119.31 1536.5 Q1114.4 1536.5 1111.44 1539.27 Q1108.52 1542.04 1108.07 1547.07 L1128.95 1547.04 Z" fill="#000000" fill-rule="nonzero" fill-opacity="1"></path><path clip-path="url(#clip010)" d="M1167.88 1537.81 L1167.88 1518.52 L1173.73 1518.52 L1173.73 1568.04 L1167.88 1568.04 L1167.88 1562.7 Q1166.03 1565.88 1163.2 1567.44 Q1160.4 1568.97 1156.45 1568.97 Q1149.99 1568.97 1145.91 1563.81 Q1141.87 1558.65 1141.87 1550.25 Q1141.87 1541.85 1145.91 1536.69 Q1149.99 1531.54 1156.45 1531.54 Q1160.4 1531.54 1163.2 1533.1 Q1166.03 1534.62 1167.88 1537.81 M1147.92 1550.25 Q1147.92 1556.71 1150.56 1560.4 Q1153.24 1564.07 1157.88 1564.07 Q1162.53 1564.07 1165.2 1560.4 Q1167.88 1556.71 1167.88 1550.25 Q1167.88 1543.79 1165.2 1540.13 Q1162.53 1536.44 1157.88 1536.44 Q1153.24 1536.44 1150.56 1540.13 Q1147.92 1543.79 1147.92 1550.25 Z" fill="#000000" fill-rule="nonzero" fill-opacity="1"></path><path clip-path="url(#clip010)" d="M1209.25 1537.81 L1209.25 1518.52 L1215.11 1518.52 L1215.11 1568.04 L1209.25 1568.04 L1209.25 1562.7 Q1207.41 1565.88 1204.57 1567.44 Q1201.77 1568.97 1197.83 1568.97 Q1191.37 1568.97 1187.29 1563.81 Q1183.25 1558.65 1183.25 1550.25 Q1183.25 1541.85 1187.29 1536.69 Q1191.37 1531.54 1197.83 1531.54 Q1201.77 1531.54 1204.57 1533.1 Q1207.41 1534.62 1209.25 1537.81 M1189.3 1550.25 Q1189.3 1556.71 1191.94 1560.4 Q1194.61 1564.07 1199.26 1564.07 Q1203.91 1564.07 1206.58 1560.4 Q1209.25 1556.71 1209.25 1550.25 Q1209.25 1543.79 1206.58 1540.13 Q1203.91 1536.44 1199.26 1536.44 Q1194.61 1536.44 1191.94 1540.13 Q1189.3 1543.79 1189.3 1550.25 Z" fill="#000000" fill-rule="nonzero" fill-opacity="1"></path><path clip-path="url(#clip010)" d="M1227.17 1532.4 L1233.03 1532.4 L1233.03 1568.04 L1227.17 1568.04 L1227.17 1532.4 M1227.17 1518.52 L1233.03 1518.52 L1233.03 1525.93 L1227.17 1525.93 L1227.17 1518.52 Z" fill="#000000" fill-rule="nonzero" fill-opacity="1"></path><path clip-path="url(#clip010)" d="M1274.92 1546.53 L1274.92 1568.04 L1269.06 1568.04 L1269.06 1546.72 Q1269.06 1541.66 1267.09 1539.14 Q1265.11 1536.63 1261.17 1536.63 Q1256.42 1536.63 1253.69 1539.65 Q1250.95 1542.68 1250.95 1547.9 L1250.95 1568.04 L1245.06 1568.04 L1245.06 1532.4 L1250.95 1532.4 L1250.95 1537.93 Q1253.05 1534.72 1255.88 1533.13 Q1258.75 1531.54 1262.47 1531.54 Q1268.61 1531.54 1271.76 1535.36 Q1274.92 1539.14 1274.92 1546.53 Z" fill="#000000" fill-rule="nonzero" fill-opacity="1"></path><path clip-path="url(#clip010)" d="M1310.05 1549.81 Q1310.05 1543.44 1307.41 1539.94 Q1304.8 1536.44 1300.06 1536.44 Q1295.35 1536.44 1292.71 1539.94 Q1290.1 1543.44 1290.1 1549.81 Q1290.1 1556.14 1292.71 1559.64 Q1295.35 1563.14 1300.06 1563.14 Q1304.8 1563.14 1307.41 1559.64 Q1310.05 1556.14 1310.05 1549.81 M1315.91 1563.62 Q1315.91 1572.72 1311.87 1577.15 Q1307.83 1581.6 1299.49 1581.6 Q1296.4 1581.6 1293.66 1581.13 Q1290.93 1580.68 1288.35 1579.72 L1288.35 1574.03 Q1290.93 1575.43 1293.44 1576.1 Q1295.95 1576.76 1298.56 1576.76 Q1304.33 1576.76 1307.19 1573.74 Q1310.05 1570.75 1310.05 1564.67 L1310.05 1561.77 Q1308.24 1564.92 1305.41 1566.48 Q1302.57 1568.04 1298.63 1568.04 Q1292.07 1568.04 1288.06 1563.05 Q1284.05 1558.05 1284.05 1549.81 Q1284.05 1541.53 1288.06 1536.53 Q1292.07 1531.54 1298.63 1531.54 Q1302.57 1531.54 1305.41 1533.1 Q1308.24 1534.66 1310.05 1537.81 L1310.05 1532.4 L1315.91 1532.4 L1315.91 1563.62 Z" fill="#000000" fill-rule="nonzero" fill-opacity="1"></path><path clip-path="url(#clip010)" d="M1355.38 1525.81 L1355.38 1562.76 L1363.14 1562.76 Q1372.98 1562.76 1377.53 1558.3 Q1382.11 1553.85 1382.11 1544.24 Q1382.11 1534.69 1377.53 1530.26 Q1372.98 1525.81 1363.14 1525.81 L1355.38 1525.81 M1348.95 1520.52 L1362.16 1520.52 Q1375.97 1520.52 1382.43 1526.28 Q1388.89 1532.01 1388.89 1544.24 Q1388.89 1556.52 1382.4 1562.28 Q1375.91 1568.04 1362.16 1568.04 L1348.95 1568.04 L1348.95 1520.52 Z" fill="#000000" fill-rule="nonzero" fill-opacity="1"></path><path clip-path="url(#clip010)" d="M1398.89 1532.4 L1404.74 1532.4 L1404.74 1568.04 L1398.89 1568.04 L1398.89 1532.4 M1398.89 1518.52 L1404.74 1518.52 L1404.74 1525.93 L1398.89 1525.93 L1398.89 1518.52 Z" fill="#000000" fill-rule="nonzero" fill-opacity="1"></path><path clip-path="url(#clip010)" d="M1444.75 1539.24 Q1446.95 1535.29 1450 1533.41 Q1453.06 1531.54 1457.2 1531.54 Q1462.77 1531.54 1465.79 1535.45 Q1468.82 1539.33 1468.82 1546.53 L1468.82 1568.04 L1462.93 1568.04 L1462.93 1546.72 Q1462.93 1541.59 1461.11 1539.11 Q1459.3 1536.63 1455.57 1536.63 Q1451.02 1536.63 1448.38 1539.65 Q1445.74 1542.68 1445.74 1547.9 L1445.74 1568.04 L1439.85 1568.04 L1439.85 1546.72 Q1439.85 1541.56 1438.04 1539.11 Q1436.22 1536.63 1432.44 1536.63 Q1427.95 1536.63 1425.31 1539.68 Q1422.66 1542.71 1422.66 1547.9 L1422.66 1568.04 L1416.78 1568.04 L1416.78 1532.4 L1422.66 1532.4 L1422.66 1537.93 Q1424.67 1534.66 1427.47 1533.1 Q1430.27 1531.54 1434.12 1531.54 Q1438.01 1531.54 1440.71 1533.51 Q1443.45 1535.48 1444.75 1539.24 Z" fill="#000000" fill-rule="nonzero" fill-opacity="1"></path><path clip-path="url(#clip010)" d="M1510.99 1548.76 L1510.99 1551.62 L1484.06 1551.62 Q1484.44 1557.67 1487.69 1560.85 Q1490.97 1564 1496.79 1564 Q1500.17 1564 1503.32 1563.17 Q1506.5 1562.35 1509.62 1560.69 L1509.62 1566.23 Q1506.47 1567.57 1503.16 1568.27 Q1499.85 1568.97 1496.44 1568.97 Q1487.91 1568.97 1482.92 1564 Q1477.95 1559.04 1477.95 1550.57 Q1477.95 1541.82 1482.66 1536.69 Q1487.4 1531.54 1495.42 1531.54 Q1502.62 1531.54 1506.79 1536.18 Q1510.99 1540.8 1510.99 1548.76 M1505.13 1547.04 Q1505.07 1542.23 1502.43 1539.37 Q1499.82 1536.5 1495.49 1536.5 Q1490.59 1536.5 1487.63 1539.27 Q1484.7 1542.04 1484.25 1547.07 L1505.13 1547.04 Z" fill="#000000" fill-rule="nonzero" fill-opacity="1"></path><path clip-path="url(#clip010)" d="M1550.23 1546.53 L1550.23 1568.04 L1544.38 1568.04 L1544.38 1546.72 Q1544.38 1541.66 1542.4 1539.14 Q1540.43 1536.63 1536.48 1536.63 Q1531.74 1536.63 1529 1539.65 Q1526.27 1542.68 1526.27 1547.9 L1526.27 1568.04 L1520.38 1568.04 L1520.38 1532.4 L1526.27 1532.4 L1526.27 1537.93 Q1528.37 1534.72 1531.2 1533.13 Q1534.06 1531.54 1537.79 1531.54 Q1543.93 1531.54 1547.08 1535.36 Q1550.23 1539.14 1550.23 1546.53 Z" fill="#000000" fill-rule="nonzero" fill-opacity="1"></path><path clip-path="url(#clip010)" d="M1584.64 1533.45 L1584.64 1538.98 Q1582.16 1537.71 1579.48 1537.07 Q1576.81 1536.44 1573.94 1536.44 Q1569.58 1536.44 1567.39 1537.77 Q1565.22 1539.11 1565.22 1541.79 Q1565.22 1543.82 1566.78 1545 Q1568.34 1546.15 1573.05 1547.2 L1575.06 1547.64 Q1581.3 1548.98 1583.91 1551.43 Q1586.55 1553.85 1586.55 1558.21 Q1586.55 1563.17 1582.6 1566.07 Q1578.69 1568.97 1571.81 1568.97 Q1568.95 1568.97 1565.83 1568.39 Q1562.74 1567.85 1559.3 1566.74 L1559.3 1560.69 Q1562.55 1562.38 1565.7 1563.24 Q1568.85 1564.07 1571.94 1564.07 Q1576.08 1564.07 1578.31 1562.66 Q1580.53 1561.23 1580.53 1558.65 Q1580.53 1556.27 1578.91 1554.99 Q1577.32 1553.72 1571.88 1552.54 L1569.84 1552.07 Q1564.4 1550.92 1561.98 1548.56 Q1559.56 1546.18 1559.56 1542.04 Q1559.56 1537.01 1563.12 1534.27 Q1566.69 1531.54 1573.24 1531.54 Q1576.49 1531.54 1579.36 1532.01 Q1582.22 1532.49 1584.64 1533.45 Z" fill="#000000" fill-rule="nonzero" fill-opacity="1"></path><path clip-path="url(#clip010)" d="M1595.87 1532.4 L1601.73 1532.4 L1601.73 1568.04 L1595.87 1568.04 L1595.87 1532.4 M1595.87 1518.52 L1601.73 1518.52 L1601.73 1525.93 L1595.87 1525.93 L1595.87 1518.52 Z" fill="#000000" fill-rule="nonzero" fill-opacity="1"></path><path clip-path="url(#clip010)" d="M1627.8 1536.5 Q1623.09 1536.5 1620.35 1540.19 Q1617.61 1543.85 1617.61 1550.25 Q1617.61 1556.65 1620.32 1560.34 Q1623.06 1564 1627.8 1564 Q1632.48 1564 1635.21 1560.31 Q1637.95 1556.62 1637.95 1550.25 Q1637.95 1543.92 1635.21 1540.23 Q1632.48 1536.5 1627.8 1536.5 M1627.8 1531.54 Q1635.44 1531.54 1639.8 1536.5 Q1644.16 1541.47 1644.16 1550.25 Q1644.16 1559 1639.8 1564 Q1635.44 1568.97 1627.8 1568.97 Q1620.13 1568.97 1615.77 1564 Q1611.44 1559 1611.44 1550.25 Q1611.44 1541.47 1615.77 1536.5 Q1620.13 1531.54 1627.8 1531.54 Z" fill="#000000" fill-rule="nonzero" fill-opacity="1"></path><path clip-path="url(#clip010)" d="M1683.5 1546.53 L1683.5 1568.04 L1677.64 1568.04 L1677.64 1546.72 Q1677.64 1541.66 1675.67 1539.14 Q1673.7 1536.63 1669.75 1536.63 Q1665.01 1536.63 1662.27 1539.65 Q1659.53 1542.68 1659.53 1547.9 L1659.53 1568.04 L1653.64 1568.04 L1653.64 1532.4 L1659.53 1532.4 L1659.53 1537.93 Q1661.63 1534.72 1664.47 1533.13 Q1667.33 1531.54 1671.05 1531.54 Q1677.2 1531.54 1680.35 1535.36 Q1683.5 1539.14 1683.5 1546.53 Z" fill="#000000" fill-rule="nonzero" fill-opacity="1"></path><polyline clip-path="url(#clip010)" style="stroke:#000000; stroke-linecap:round; stroke-linejoin:round; stroke-width:4; stroke-opacity:1; fill:none" points="289.251,1423.18 289.251,123.472 "></polyline>
<polyline clip-path="url(#clip010)" style="stroke:#000000; stroke-linecap:round; stroke-linejoin:round; stroke-width:4; stroke-opacity:1; fill:none" points="289.251,1116.99 308.149,1116.99 "></polyline>
<polyline clip-path="url(#clip010)" style="stroke:#000000; stroke-linecap:round; stroke-linejoin:round; stroke-width:4; stroke-opacity:1; fill:none" points="289.251,797.969 308.149,797.969 "></polyline>
<polyline clip-path="url(#clip010)" style="stroke:#000000; stroke-linecap:round; stroke-linejoin:round; stroke-width:4; stroke-opacity:1; fill:none" points="289.251,478.95 308.149,478.95 "></polyline>
<polyline clip-path="url(#clip010)" style="stroke:#000000; stroke-linecap:round; stroke-linejoin:round; stroke-width:4; stroke-opacity:1; fill:none" points="289.251,159.932 308.149,159.932 "></polyline>
<path clip-path="url(#clip010)" d="M115.214 1136.78 L122.852 1136.78 L122.852 1110.41 L114.542 1112.08 L114.542 1107.82 L122.806 1106.15 L127.482 1106.15 L127.482 1136.78 L135.121 1136.78 L135.121 1140.71 L115.214 1140.71 L115.214 1136.78 Z" fill="#000000" fill-rule="nonzero" fill-opacity="1"></path><path clip-path="url(#clip010)" d="M154.565 1109.23 Q150.954 1109.23 149.125 1112.8 Q147.32 1116.34 147.32 1123.47 Q147.32 1130.58 149.125 1134.14 Q150.954 1137.68 154.565 1137.68 Q158.199 1137.68 160.005 1134.14 Q161.834 1130.58 161.834 1123.47 Q161.834 1116.34 160.005 1112.8 Q158.199 1109.23 154.565 1109.23 M154.565 1105.53 Q160.375 1105.53 163.431 1110.14 Q166.51 1114.72 166.51 1123.47 Q166.51 1132.2 163.431 1136.8 Q160.375 1141.39 154.565 1141.39 Q148.755 1141.39 145.676 1136.8 Q142.621 1132.2 142.621 1123.47 Q142.621 1114.72 145.676 1110.14 Q148.755 1105.53 154.565 1105.53 Z" fill="#000000" fill-rule="nonzero" fill-opacity="1"></path><path clip-path="url(#clip010)" d="M166.51 1099.63 L190.621 1099.63 L190.621 1102.83 L166.51 1102.83 L166.51 1099.63 Z" fill="#000000" fill-rule="nonzero" fill-opacity="1"></path><path clip-path="url(#clip010)" d="M206.946 1087.73 Q204.012 1087.73 202.526 1090.62 Q201.059 1093.5 201.059 1099.29 Q201.059 1105.07 202.526 1107.96 Q204.012 1110.84 206.946 1110.84 Q209.899 1110.84 211.366 1107.96 Q212.852 1105.07 212.852 1099.29 Q212.852 1093.5 211.366 1090.62 Q209.899 1087.73 206.946 1087.73 M206.946 1084.72 Q211.667 1084.72 214.15 1088.46 Q216.651 1092.18 216.651 1099.29 Q216.651 1106.38 214.15 1110.13 Q211.667 1113.85 206.946 1113.85 Q202.226 1113.85 199.724 1110.13 Q197.241 1106.38 197.241 1099.29 Q197.241 1092.18 199.724 1088.46 Q202.226 1084.72 206.946 1084.72 Z" fill="#000000" fill-rule="nonzero" fill-opacity="1"></path><path clip-path="url(#clip010)" d="M223.328 1108.53 L227.296 1108.53 L227.296 1113.3 L223.328 1113.3 L223.328 1108.53 Z" fill="#000000" fill-rule="nonzero" fill-opacity="1"></path><path clip-path="url(#clip010)" d="M235.685 1112.72 L235.685 1109.26 Q237.114 1109.94 238.581 1110.3 Q240.048 1110.65 241.459 1110.65 Q245.22 1110.65 247.195 1108.13 Q249.189 1105.59 249.471 1100.44 Q248.38 1102.06 246.706 1102.92 Q245.032 1103.79 243.001 1103.79 Q238.788 1103.79 236.324 1101.25 Q233.879 1098.69 233.879 1094.27 Q233.879 1089.95 236.437 1087.33 Q238.995 1084.72 243.245 1084.72 Q248.117 1084.72 250.674 1088.46 Q253.251 1092.18 253.251 1099.29 Q253.251 1105.93 250.091 1109.9 Q246.95 1113.85 241.628 1113.85 Q240.198 1113.85 238.731 1113.57 Q237.264 1113.29 235.685 1112.72 M243.245 1100.82 Q245.803 1100.82 247.289 1099.07 Q248.794 1097.32 248.794 1094.27 Q248.794 1091.24 247.289 1089.49 Q245.803 1087.73 243.245 1087.73 Q240.687 1087.73 239.183 1089.49 Q237.697 1091.24 237.697 1094.27 Q237.697 1097.32 239.183 1099.07 Q240.687 1100.82 243.245 1100.82 Z" fill="#000000" fill-rule="nonzero" fill-opacity="1"></path><path clip-path="url(#clip010)" d="M114.931 817.761 L122.57 817.761 L122.57 791.396 L114.26 793.062 L114.26 788.803 L122.524 787.136 L127.2 787.136 L127.2 817.761 L134.839 817.761 L134.839 821.696 L114.931 821.696 L114.931 817.761 Z" fill="#000000" fill-rule="nonzero" fill-opacity="1"></path><path clip-path="url(#clip010)" d="M154.283 790.215 Q150.672 790.215 148.843 793.78 Q147.038 797.322 147.038 804.451 Q147.038 811.558 148.843 815.122 Q150.672 818.664 154.283 818.664 Q157.917 818.664 159.723 815.122 Q161.552 811.558 161.552 804.451 Q161.552 797.322 159.723 793.78 Q157.917 790.215 154.283 790.215 M154.283 786.511 Q160.093 786.511 163.149 791.118 Q166.227 795.701 166.227 804.451 Q166.227 813.178 163.149 817.784 Q160.093 822.368 154.283 822.368 Q148.473 822.368 145.394 817.784 Q142.339 813.178 142.339 804.451 Q142.339 795.701 145.394 791.118 Q148.473 786.511 154.283 786.511 Z" fill="#000000" fill-rule="nonzero" fill-opacity="1"></path><path clip-path="url(#clip010)" d="M166.227 780.613 L190.339 780.613 L190.339 783.81 L166.227 783.81 L166.227 780.613 Z" fill="#000000" fill-rule="nonzero" fill-opacity="1"></path><path clip-path="url(#clip010)" d="M206.664 768.707 Q203.73 768.707 202.244 771.604 Q200.777 774.481 200.777 780.274 Q200.777 786.048 202.244 788.945 Q203.73 791.822 206.664 791.822 Q209.617 791.822 211.084 788.945 Q212.57 786.048 212.57 780.274 Q212.57 774.481 211.084 771.604 Q209.617 768.707 206.664 768.707 M206.664 765.698 Q211.385 765.698 213.868 769.441 Q216.369 773.165 216.369 780.274 Q216.369 787.365 213.868 791.107 Q211.385 794.831 206.664 794.831 Q201.943 794.831 199.442 791.107 Q196.959 787.365 196.959 780.274 Q196.959 773.165 199.442 769.441 Q201.943 765.698 206.664 765.698 Z" fill="#000000" fill-rule="nonzero" fill-opacity="1"></path><path clip-path="url(#clip010)" d="M223.046 789.509 L227.014 789.509 L227.014 794.286 L223.046 794.286 L223.046 789.509 Z" fill="#000000" fill-rule="nonzero" fill-opacity="1"></path><path clip-path="url(#clip010)" d="M243.885 778.732 Q241.327 778.732 239.822 780.481 Q238.336 782.23 238.336 785.277 Q238.336 788.305 239.822 790.073 Q241.327 791.822 243.885 791.822 Q246.443 791.822 247.928 790.073 Q249.433 788.305 249.433 785.277 Q249.433 782.23 247.928 780.481 Q246.443 778.732 243.885 778.732 M251.427 766.827 L251.427 770.287 Q249.997 769.61 248.53 769.253 Q247.082 768.896 245.653 768.896 Q241.891 768.896 239.898 771.435 Q237.923 773.974 237.641 779.108 Q238.75 777.472 240.424 776.607 Q242.098 775.723 244.11 775.723 Q248.342 775.723 250.787 778.299 Q253.251 780.857 253.251 785.277 Q253.251 789.603 250.693 792.217 Q248.135 794.831 243.885 794.831 Q239.014 794.831 236.437 791.107 Q233.86 787.365 233.86 780.274 Q233.86 773.616 237.02 769.667 Q240.18 765.698 245.502 765.698 Q246.932 765.698 248.38 765.98 Q249.847 766.262 251.427 766.827 Z" fill="#000000" fill-rule="nonzero" fill-opacity="1"></path><path clip-path="url(#clip010)" d="M115.59 498.743 L123.229 498.743 L123.229 472.377 L114.918 474.044 L114.918 469.784 L123.182 468.118 L127.858 468.118 L127.858 498.743 L135.497 498.743 L135.497 502.678 L115.59 502.678 L115.59 498.743 Z" fill="#000000" fill-rule="nonzero" fill-opacity="1"></path><path clip-path="url(#clip010)" d="M154.941 471.197 Q151.33 471.197 149.502 474.761 Q147.696 478.303 147.696 485.433 Q147.696 492.539 149.502 496.104 Q151.33 499.645 154.941 499.645 Q158.576 499.645 160.381 496.104 Q162.21 492.539 162.21 485.433 Q162.21 478.303 160.381 474.761 Q158.576 471.197 154.941 471.197 M154.941 467.493 Q160.752 467.493 163.807 472.099 Q166.886 476.683 166.886 485.433 Q166.886 494.159 163.807 498.766 Q160.752 503.349 154.941 503.349 Q149.131 503.349 146.053 498.766 Q142.997 494.159 142.997 485.433 Q142.997 476.683 146.053 472.099 Q149.131 467.493 154.941 467.493 Z" fill="#000000" fill-rule="nonzero" fill-opacity="1"></path><path clip-path="url(#clip010)" d="M166.886 461.594 L190.997 461.594 L190.997 464.791 L166.886 464.791 L166.886 461.594 Z" fill="#000000" fill-rule="nonzero" fill-opacity="1"></path><path clip-path="url(#clip010)" d="M207.322 449.689 Q204.388 449.689 202.903 452.585 Q201.436 455.463 201.436 461.256 Q201.436 467.03 202.903 469.926 Q204.388 472.804 207.322 472.804 Q210.275 472.804 211.742 469.926 Q213.228 467.03 213.228 461.256 Q213.228 455.463 211.742 452.585 Q210.275 449.689 207.322 449.689 M207.322 446.68 Q212.043 446.68 214.526 450.422 Q217.027 454.146 217.027 461.256 Q217.027 468.346 214.526 472.089 Q212.043 475.813 207.322 475.813 Q202.602 475.813 200.1 472.089 Q197.618 468.346 197.618 461.256 Q197.618 454.146 200.1 450.422 Q202.602 446.68 207.322 446.68 Z" fill="#000000" fill-rule="nonzero" fill-opacity="1"></path><path clip-path="url(#clip010)" d="M223.704 470.49 L227.672 470.49 L227.672 475.267 L223.704 475.267 L223.704 470.49 Z" fill="#000000" fill-rule="nonzero" fill-opacity="1"></path><path clip-path="url(#clip010)" d="M247.458 460.127 Q250.185 460.71 251.709 462.553 Q253.251 464.397 253.251 467.105 Q253.251 471.261 250.392 473.537 Q247.533 475.813 242.267 475.813 Q240.499 475.813 238.619 475.455 Q236.757 475.117 234.763 474.421 L234.763 470.754 Q236.343 471.675 238.224 472.145 Q240.104 472.616 242.154 472.616 Q245.728 472.616 247.59 471.205 Q249.471 469.794 249.471 467.105 Q249.471 464.622 247.722 463.23 Q245.991 461.82 242.888 461.82 L239.615 461.82 L239.615 458.698 L243.038 458.698 Q245.841 458.698 247.327 457.588 Q248.812 456.46 248.812 454.353 Q248.812 452.19 247.27 451.043 Q245.747 449.877 242.888 449.877 Q241.327 449.877 239.54 450.215 Q237.753 450.554 235.609 451.269 L235.609 447.883 Q237.772 447.281 239.653 446.981 Q241.553 446.68 243.226 446.68 Q247.552 446.68 250.073 448.654 Q252.593 450.61 252.593 453.958 Q252.593 456.29 251.257 457.908 Q249.922 459.507 247.458 460.127 Z" fill="#000000" fill-rule="nonzero" fill-opacity="1"></path><path clip-path="url(#clip010)" d="M145.795 179.724 L153.434 179.724 L153.434 153.358 L145.124 155.025 L145.124 150.766 L153.388 149.099 L158.063 149.099 L158.063 179.724 L165.702 179.724 L165.702 183.659 L145.795 183.659 L145.795 179.724 Z" fill="#000000" fill-rule="nonzero" fill-opacity="1"></path><path clip-path="url(#clip010)" d="M185.147 152.178 Q181.536 152.178 179.707 155.743 Q177.901 159.284 177.901 166.414 Q177.901 173.52 179.707 177.085 Q181.536 180.627 185.147 180.627 Q188.781 180.627 190.586 177.085 Q192.415 173.52 192.415 166.414 Q192.415 159.284 190.586 155.743 Q188.781 152.178 185.147 152.178 M185.147 148.474 Q190.957 148.474 194.012 153.081 Q197.091 157.664 197.091 166.414 Q197.091 175.141 194.012 179.747 Q190.957 184.331 185.147 184.331 Q179.336 184.331 176.258 179.747 Q173.202 175.141 173.202 166.414 Q173.202 157.664 176.258 153.081 Q179.336 148.474 185.147 148.474 Z" fill="#000000" fill-rule="nonzero" fill-opacity="1"></path><path clip-path="url(#clip010)" d="M206.796 130.67 Q203.862 130.67 202.376 133.567 Q200.909 136.444 200.909 142.237 Q200.909 148.011 202.376 150.907 Q203.862 153.785 206.796 153.785 Q209.749 153.785 211.216 150.907 Q212.701 148.011 212.701 142.237 Q212.701 136.444 211.216 133.567 Q209.749 130.67 206.796 130.67 M206.796 127.661 Q211.517 127.661 213.999 131.404 Q216.501 135.128 216.501 142.237 Q216.501 149.328 213.999 153.07 Q211.517 156.794 206.796 156.794 Q202.075 156.794 199.574 153.07 Q197.091 149.328 197.091 142.237 Q197.091 135.128 199.574 131.404 Q202.075 127.661 206.796 127.661 Z" fill="#000000" fill-rule="nonzero" fill-opacity="1"></path><path clip-path="url(#clip010)" d="M223.177 151.472 L227.146 151.472 L227.146 156.249 L223.177 156.249 L223.177 151.472 Z" fill="#000000" fill-rule="nonzero" fill-opacity="1"></path><path clip-path="url(#clip010)" d="M243.546 130.67 Q240.612 130.67 239.126 133.567 Q237.659 136.444 237.659 142.237 Q237.659 148.011 239.126 150.907 Q240.612 153.785 243.546 153.785 Q246.499 153.785 247.966 150.907 Q249.452 148.011 249.452 142.237 Q249.452 136.444 247.966 133.567 Q246.499 130.67 243.546 130.67 M243.546 127.661 Q248.267 127.661 250.75 131.404 Q253.251 135.128 253.251 142.237 Q253.251 149.328 250.75 153.07 Q248.267 156.794 243.546 156.794 Q238.825 156.794 236.324 153.07 Q233.841 149.328 233.841 142.237 Q233.841 135.128 236.324 131.404 Q238.825 127.661 243.546 127.661 Z" fill="#000000" fill-rule="nonzero" fill-opacity="1"></path><path clip-path="url(#clip010)" d="M21.7677 1015.64 L58.7206 1015.64 L58.7206 1007.87 Q58.7206 998.035 54.2646 993.484 Q49.8086 988.901 40.1964 988.901 Q30.6479 988.901 26.2237 993.484 Q21.7677 998.035 21.7677 1007.87 L21.7677 1015.64 M16.4842 1022.07 L16.4842 1008.86 Q16.4842 995.044 22.2451 988.582 Q27.9743 982.121 40.1964 982.121 Q52.4822 982.121 58.2432 988.614 Q64.0042 995.107 64.0042 1008.86 L64.0042 1022.07 L16.4842 1022.07 Z" fill="#000000" fill-rule="nonzero" fill-opacity="1"></path><path clip-path="url(#clip010)" d="M28.3562 972.127 L28.3562 966.271 L64.0042 966.271 L64.0042 972.127 L28.3562 972.127 M14.479 972.127 L14.479 966.271 L21.895 966.271 L21.895 972.127 L14.479 972.127 Z" fill="#000000" fill-rule="nonzero" fill-opacity="1"></path><path clip-path="url(#clip010)" d="M29.4065 931.291 L34.9447 931.291 Q33.6716 933.774 33.035 936.447 Q32.3984 939.121 32.3984 941.985 Q32.3984 946.346 33.7352 948.542 Q35.072 950.706 37.7456 950.706 Q39.7826 950.706 40.9603 949.147 Q42.1061 947.587 43.1565 942.877 L43.6021 940.871 Q44.9389 934.633 47.3897 932.023 Q49.8086 929.381 54.1691 929.381 Q59.1344 929.381 62.0308 933.328 Q64.9272 937.243 64.9272 944.118 Q64.9272 946.982 64.3543 950.102 Q63.8132 953.189 62.6992 956.627 L56.6518 956.627 Q58.3387 953.38 59.198 950.229 Q60.0256 947.078 60.0256 943.991 Q60.0256 939.853 58.6251 937.625 Q57.1929 935.397 54.6147 935.397 Q52.2276 935.397 50.9545 937.02 Q49.6813 938.612 48.5037 944.054 L48.0262 946.091 Q46.8804 951.534 44.5251 953.953 Q42.138 956.372 38.0002 956.372 Q32.9713 956.372 30.2341 952.807 Q27.4968 949.242 27.4968 942.686 Q27.4968 939.439 27.9743 936.575 Q28.4517 933.71 29.4065 931.291 Z" fill="#000000" fill-rule="nonzero" fill-opacity="1"></path><path clip-path="url(#clip010)" d="M18.2347 914.263 L28.3562 914.263 L28.3562 902.2 L32.9077 902.2 L32.9077 914.263 L52.2594 914.263 Q56.6199 914.263 57.8613 913.085 Q59.1026 911.876 59.1026 908.215 L59.1026 902.2 L64.0042 902.2 L64.0042 908.215 Q64.0042 914.995 61.4897 917.573 Q58.9434 920.151 52.2594 920.151 L32.9077 920.151 L32.9077 924.448 L28.3562 924.448 L28.3562 920.151 L18.2347 920.151 L18.2347 914.263 Z" fill="#000000" fill-rule="nonzero" fill-opacity="1"></path><path clip-path="url(#clip010)" d="M32.4621 880.684 Q32.4621 885.394 36.1542 888.132 Q39.8145 890.869 46.212 890.869 Q52.6095 890.869 56.3017 888.163 Q59.9619 885.426 59.9619 880.684 Q59.9619 876.005 56.2698 873.268 Q52.5777 870.53 46.212 870.53 Q39.8781 870.53 36.186 873.268 Q32.4621 876.005 32.4621 880.684 M27.4968 880.684 Q27.4968 873.045 32.4621 868.684 Q37.4273 864.324 46.212 864.324 Q54.9649 864.324 59.9619 868.684 Q64.9272 873.045 64.9272 880.684 Q64.9272 888.354 59.9619 892.715 Q54.9649 897.043 46.212 897.043 Q37.4273 897.043 32.4621 892.715 Q27.4968 888.354 27.4968 880.684 Z" fill="#000000" fill-rule="nonzero" fill-opacity="1"></path><path clip-path="url(#clip010)" d="M33.8307 833.959 Q33.2578 834.946 33.0032 836.124 Q32.7167 837.27 32.7167 838.67 Q32.7167 843.635 35.9632 846.309 Q39.1779 848.951 45.2253 848.951 L64.0042 848.951 L64.0042 854.839 L28.3562 854.839 L28.3562 848.951 L33.8944 848.951 Q30.6479 847.105 29.0883 844.144 Q27.4968 841.184 27.4968 836.951 Q27.4968 836.346 27.5923 835.614 Q27.656 834.882 27.8151 833.991 L33.8307 833.959 Z" fill="#000000" fill-rule="nonzero" fill-opacity="1"></path><path clip-path="url(#clip010)" d="M18.2347 822.024 L28.3562 822.024 L28.3562 809.961 L32.9077 809.961 L32.9077 822.024 L52.2594 822.024 Q56.6199 822.024 57.8613 820.846 Q59.1026 819.636 59.1026 815.976 L59.1026 809.961 L64.0042 809.961 L64.0042 815.976 Q64.0042 822.756 61.4897 825.334 Q58.9434 827.912 52.2594 827.912 L32.9077 827.912 L32.9077 832.209 L28.3562 832.209 L28.3562 827.912 L18.2347 827.912 L18.2347 822.024 Z" fill="#000000" fill-rule="nonzero" fill-opacity="1"></path><path clip-path="url(#clip010)" d="M28.3562 802.258 L28.3562 796.402 L64.0042 796.402 L64.0042 802.258 L28.3562 802.258 M14.479 802.258 L14.479 796.402 L21.895 796.402 L21.895 802.258 L14.479 802.258 Z" fill="#000000" fill-rule="nonzero" fill-opacity="1"></path><path clip-path="url(#clip010)" d="M32.4621 770.334 Q32.4621 775.045 36.1542 777.782 Q39.8145 780.519 46.212 780.519 Q52.6095 780.519 56.3017 777.814 Q59.9619 775.077 59.9619 770.334 Q59.9619 765.655 56.2698 762.918 Q52.5777 760.181 46.212 760.181 Q39.8781 760.181 36.186 762.918 Q32.4621 765.655 32.4621 770.334 M27.4968 770.334 Q27.4968 762.695 32.4621 758.335 Q37.4273 753.974 46.212 753.974 Q54.9649 753.974 59.9619 758.335 Q64.9272 762.695 64.9272 770.334 Q64.9272 778.005 59.9619 782.365 Q54.9649 786.694 46.212 786.694 Q37.4273 786.694 32.4621 782.365 Q27.4968 778.005 27.4968 770.334 Z" fill="#000000" fill-rule="nonzero" fill-opacity="1"></path><path clip-path="url(#clip010)" d="M42.4881 714.634 L64.0042 714.634 L64.0042 720.491 L42.679 720.491 Q37.6183 720.491 35.1038 722.464 Q32.5894 724.437 32.5894 728.384 Q32.5894 733.127 35.6131 735.864 Q38.6368 738.601 43.8567 738.601 L64.0042 738.601 L64.0042 744.489 L28.3562 744.489 L28.3562 738.601 L33.8944 738.601 Q30.6797 736.5 29.0883 733.668 Q27.4968 730.803 27.4968 727.079 Q27.4968 720.936 31.3163 717.785 Q35.1038 714.634 42.4881 714.634 Z" fill="#000000" fill-rule="nonzero" fill-opacity="1"></path><path clip-path="url(#clip010)" d="M41.7242 659.443 Q42.4244 657.375 44.7161 655.433 Q47.0077 653.46 51.0181 651.486 L64.0042 644.962 L64.0042 651.868 L51.8138 657.948 Q47.0395 660.303 45.48 662.531 Q43.9204 664.727 43.9204 668.546 L43.9204 675.549 L64.0042 675.549 L64.0042 681.978 L16.4842 681.978 L16.4842 667.464 Q16.4842 659.316 19.8898 655.306 Q23.2955 651.295 30.1704 651.295 Q34.6582 651.295 37.6183 653.396 Q40.5784 655.465 41.7242 659.443 M21.7677 675.549 L38.6368 675.549 L38.6368 667.464 Q38.6368 662.817 36.5043 660.462 Q34.34 658.075 30.1704 658.075 Q26.0009 658.075 23.9002 660.462 Q21.7677 662.817 21.7677 667.464 L21.7677 675.549 Z" fill="#000000" fill-rule="nonzero" fill-opacity="1"></path><path clip-path="url(#clip010)" d="M46.0847 622.172 Q46.0847 629.27 47.7079 632.007 Q49.3312 634.745 53.2461 634.745 Q56.3653 634.745 58.2114 632.708 Q60.0256 630.639 60.0256 627.106 Q60.0256 622.236 56.5881 619.308 Q53.1188 616.348 47.3897 616.348 L46.0847 616.348 L46.0847 622.172 M43.6657 610.491 L64.0042 610.491 L64.0042 616.348 L58.5933 616.348 Q61.8398 618.353 63.3994 621.345 Q64.9272 624.337 64.9272 628.665 Q64.9272 634.14 61.8716 637.386 Q58.7843 640.601 53.6281 640.601 Q47.6125 640.601 44.5569 636.591 Q41.5014 632.548 41.5014 624.559 L41.5014 616.348 L40.9285 616.348 Q36.8862 616.348 34.6901 619.021 Q32.4621 621.663 32.4621 626.469 Q32.4621 629.525 33.1941 632.421 Q33.9262 635.317 35.3903 637.991 L29.9795 637.991 Q28.7381 634.776 28.1334 631.753 Q27.4968 628.729 27.4968 625.864 Q27.4968 618.13 31.5072 614.311 Q35.5176 610.491 43.6657 610.491 Z" fill="#000000" fill-rule="nonzero" fill-opacity="1"></path><path clip-path="url(#clip010)" d="M18.2347 592.635 L28.3562 592.635 L28.3562 580.572 L32.9077 580.572 L32.9077 592.635 L52.2594 592.635 Q56.6199 592.635 57.8613 591.458 Q59.1026 590.248 59.1026 586.588 L59.1026 580.572 L64.0042 580.572 L64.0042 586.588 Q64.0042 593.367 61.4897 595.946 Q58.9434 598.524 52.2594 598.524 L32.9077 598.524 L32.9077 602.821 L28.3562 602.821 L28.3562 598.524 L18.2347 598.524 L18.2347 592.635 Z" fill="#000000" fill-rule="nonzero" fill-opacity="1"></path><path clip-path="url(#clip010)" d="M28.3562 572.87 L28.3562 567.013 L64.0042 567.013 L64.0042 572.87 L28.3562 572.87 M14.479 572.87 L14.479 567.013 L21.895 567.013 L21.895 572.87 L14.479 572.87 Z" fill="#000000" fill-rule="nonzero" fill-opacity="1"></path><path clip-path="url(#clip010)" d="M32.4621 540.946 Q32.4621 545.656 36.1542 548.394 Q39.8145 551.131 46.212 551.131 Q52.6095 551.131 56.3017 548.426 Q59.9619 545.688 59.9619 540.946 Q59.9619 536.267 56.2698 533.53 Q52.5777 530.793 46.212 530.793 Q39.8781 530.793 36.186 533.53 Q32.4621 536.267 32.4621 540.946 M27.4968 540.946 Q27.4968 533.307 32.4621 528.947 Q37.4273 524.586 46.212 524.586 Q54.9649 524.586 59.9619 528.947 Q64.9272 533.307 64.9272 540.946 Q64.9272 548.617 59.9619 552.977 Q54.9649 557.306 46.212 557.306 Q37.4273 557.306 32.4621 552.977 Q27.4968 548.617 27.4968 540.946 Z" fill="#000000" fill-rule="nonzero" fill-opacity="1"></path><path clip-path="url(#clip010)" d="M781.261 18.8205 L781.261 65.8515 L791.145 65.8515 Q803.662 65.8515 809.455 60.1802 Q815.289 54.509 815.289 42.2752 Q815.289 30.1225 809.455 24.4918 Q803.662 18.8205 791.145 18.8205 L781.261 18.8205 M773.078 12.096 L789.889 12.096 Q807.47 12.096 815.694 19.4281 Q823.917 26.7198 823.917 42.2752 Q823.917 57.9117 815.653 65.2439 Q807.389 72.576 789.889 72.576 L773.078 72.576 L773.078 12.096 Z" fill="#000000" fill-rule="nonzero" fill-opacity="1"></path><path clip-path="url(#clip010)" d="M836.637 27.2059 L844.091 27.2059 L844.091 72.576 L836.637 72.576 L836.637 27.2059 M836.637 9.54393 L844.091 9.54393 L844.091 18.9825 L836.637 18.9825 L836.637 9.54393 Z" fill="#000000" fill-rule="nonzero" fill-opacity="1"></path><path clip-path="url(#clip010)" d="M888.61 28.5427 L888.61 35.5912 Q885.45 33.9709 882.047 33.1607 Q878.645 32.3505 874.999 32.3505 Q869.449 32.3505 866.654 34.0519 Q863.899 35.7533 863.899 39.156 Q863.899 41.7486 865.884 43.2475 Q867.869 44.7058 873.865 46.0426 L876.417 46.6097 Q884.356 48.3111 887.678 51.4303 Q891.04 54.509 891.04 60.0587 Q891.04 66.3781 886.017 70.0644 Q881.035 73.7508 872.285 73.7508 Q868.639 73.7508 864.669 73.0216 Q860.74 72.3329 856.365 70.9151 L856.365 63.2184 Q860.497 65.3654 864.507 66.4591 Q868.517 67.5124 872.447 67.5124 Q877.713 67.5124 880.549 65.73 Q883.384 63.9071 883.384 60.6258 Q883.384 57.5877 881.318 55.9673 Q879.293 54.3469 872.366 52.8481 L869.773 52.2405 Q862.846 50.7821 859.768 47.7845 Q856.689 44.7463 856.689 39.4801 Q856.689 33.0797 861.226 29.5959 Q865.763 26.1121 874.108 26.1121 Q878.24 26.1121 881.885 26.7198 Q885.531 27.3274 888.61 28.5427 Z" fill="#000000" fill-rule="nonzero" fill-opacity="1"></path><path clip-path="url(#clip010)" d="M910.282 14.324 L910.282 27.2059 L925.635 27.2059 L925.635 32.9987 L910.282 32.9987 L910.282 57.6282 Q910.282 63.1779 911.781 64.7578 Q913.32 66.3376 917.979 66.3376 L925.635 66.3376 L925.635 72.576 L917.979 72.576 Q909.351 72.576 906.069 69.3758 Q902.788 66.1351 902.788 57.6282 L902.788 32.9987 L897.319 32.9987 L897.319 27.2059 L902.788 27.2059 L902.788 14.324 L910.282 14.324 Z" fill="#000000" fill-rule="nonzero" fill-opacity="1"></path><path clip-path="url(#clip010)" d="M953.019 32.4315 Q947.024 32.4315 943.54 37.1306 Q940.056 41.7891 940.056 49.9314 Q940.056 58.0738 943.5 62.7728 Q946.983 67.4314 953.019 67.4314 Q958.974 67.4314 962.458 62.7323 Q965.942 58.0333 965.942 49.9314 Q965.942 41.8701 962.458 37.1711 Q958.974 32.4315 953.019 32.4315 M953.019 26.1121 Q962.741 26.1121 968.291 32.4315 Q973.841 38.7509 973.841 49.9314 Q973.841 61.0714 968.291 67.4314 Q962.741 73.7508 953.019 73.7508 Q943.257 73.7508 937.707 67.4314 Q932.198 61.0714 932.198 49.9314 Q932.198 38.7509 937.707 32.4315 Q943.257 26.1121 953.019 26.1121 Z" fill="#000000" fill-rule="nonzero" fill-opacity="1"></path><path clip-path="url(#clip010)" d="M1012.49 34.1734 Q1011.23 33.4443 1009.73 33.1202 Q1008.27 32.7556 1006.49 32.7556 Q1000.17 32.7556 996.769 36.8875 Q993.407 40.9789 993.407 48.6757 L993.407 72.576 L985.913 72.576 L985.913 27.2059 L993.407 27.2059 L993.407 34.2544 Q995.756 30.1225 999.524 28.1376 Q1003.29 26.1121 1008.68 26.1121 Q1009.45 26.1121 1010.38 26.2337 Q1011.31 26.3147 1012.45 26.5172 L1012.49 34.1734 Z" fill="#000000" fill-rule="nonzero" fill-opacity="1"></path><path clip-path="url(#clip010)" d="M1027.68 14.324 L1027.68 27.2059 L1043.03 27.2059 L1043.03 32.9987 L1027.68 32.9987 L1027.68 57.6282 Q1027.68 63.1779 1029.18 64.7578 Q1030.72 66.3376 1035.37 66.3376 L1043.03 66.3376 L1043.03 72.576 L1035.37 72.576 Q1026.75 72.576 1023.46 69.3758 Q1020.18 66.1351 1020.18 57.6282 L1020.18 32.9987 L1014.71 32.9987 L1014.71 27.2059 L1020.18 27.2059 L1020.18 14.324 L1027.68 14.324 Z" fill="#000000" fill-rule="nonzero" fill-opacity="1"></path><path clip-path="url(#clip010)" d="M1052.83 27.2059 L1060.29 27.2059 L1060.29 72.576 L1052.83 72.576 L1052.83 27.2059 M1052.83 9.54393 L1060.29 9.54393 L1060.29 18.9825 L1052.83 18.9825 L1052.83 9.54393 Z" fill="#000000" fill-rule="nonzero" fill-opacity="1"></path><path clip-path="url(#clip010)" d="M1093.46 32.4315 Q1087.47 32.4315 1083.99 37.1306 Q1080.5 41.7891 1080.5 49.9314 Q1080.5 58.0738 1083.94 62.7728 Q1087.43 67.4314 1093.46 67.4314 Q1099.42 67.4314 1102.9 62.7323 Q1106.39 58.0333 1106.39 49.9314 Q1106.39 41.8701 1102.9 37.1711 Q1099.42 32.4315 1093.46 32.4315 M1093.46 26.1121 Q1103.19 26.1121 1108.74 32.4315 Q1114.29 38.7509 1114.29 49.9314 Q1114.29 61.0714 1108.74 67.4314 Q1103.19 73.7508 1093.46 73.7508 Q1083.7 73.7508 1078.15 67.4314 Q1072.64 61.0714 1072.64 49.9314 Q1072.64 38.7509 1078.15 32.4315 Q1083.7 26.1121 1093.46 26.1121 Z" fill="#000000" fill-rule="nonzero" fill-opacity="1"></path><path clip-path="url(#clip010)" d="M1164.35 45.1919 L1164.35 72.576 L1156.9 72.576 L1156.9 45.4349 Q1156.9 38.994 1154.39 35.7938 Q1151.88 32.5936 1146.86 32.5936 Q1140.82 32.5936 1137.34 36.4419 Q1133.85 40.2903 1133.85 46.9338 L1133.85 72.576 L1126.36 72.576 L1126.36 27.2059 L1133.85 27.2059 L1133.85 34.2544 Q1136.53 30.163 1140.13 28.1376 Q1143.78 26.1121 1148.52 26.1121 Q1156.33 26.1121 1160.34 30.9732 Q1164.35 35.7938 1164.35 45.1919 Z" fill="#000000" fill-rule="nonzero" fill-opacity="1"></path><path clip-path="url(#clip010)" d="M1208.15 28.5427 L1208.15 35.5912 Q1204.99 33.9709 1201.58 33.1607 Q1198.18 32.3505 1194.53 32.3505 Q1188.98 32.3505 1186.19 34.0519 Q1183.43 35.7533 1183.43 39.156 Q1183.43 41.7486 1185.42 43.2475 Q1187.4 44.7058 1193.4 46.0426 L1195.95 46.6097 Q1203.89 48.3111 1207.21 51.4303 Q1210.58 54.509 1210.58 60.0587 Q1210.58 66.3781 1205.55 70.0644 Q1200.57 73.7508 1191.82 73.7508 Q1188.17 73.7508 1184.2 73.0216 Q1180.28 72.3329 1175.9 70.9151 L1175.9 63.2184 Q1180.03 65.3654 1184.04 66.4591 Q1188.05 67.5124 1191.98 67.5124 Q1197.25 67.5124 1200.08 65.73 Q1202.92 63.9071 1202.92 60.6258 Q1202.92 57.5877 1200.85 55.9673 Q1198.83 54.3469 1191.9 52.8481 L1189.31 52.2405 Q1182.38 50.7821 1179.3 47.7845 Q1176.22 44.7463 1176.22 39.4801 Q1176.22 33.0797 1180.76 29.5959 Q1185.3 26.1121 1193.64 26.1121 Q1197.77 26.1121 1201.42 26.7198 Q1205.07 27.3274 1208.15 28.5427 Z" fill="#000000" fill-rule="nonzero" fill-opacity="1"></path><path clip-path="url(#clip010)" d="M1266.72 9.62495 Q1261.29 18.942 1258.66 28.0566 Q1256.03 37.1711 1256.03 46.5287 Q1256.03 55.8863 1258.66 65.0818 Q1261.33 74.2369 1266.72 83.5134 L1260.24 83.5134 Q1254.16 73.9938 1251.13 64.7983 Q1248.13 55.6027 1248.13 46.5287 Q1248.13 37.4952 1251.13 28.3401 Q1254.12 19.1851 1260.24 9.62495 L1266.72 9.62495 Z" fill="#000000" fill-rule="nonzero" fill-opacity="1"></path><path clip-path="url(#clip010)" d="M1311.04 34.0924 L1311.04 9.54393 L1318.49 9.54393 L1318.49 72.576 L1311.04 72.576 L1311.04 65.7705 Q1308.69 69.8214 1305.08 71.8063 Q1301.52 73.7508 1296.5 73.7508 Q1288.27 73.7508 1283.09 67.1883 Q1277.94 60.6258 1277.94 49.9314 Q1277.94 39.2371 1283.09 32.6746 Q1288.27 26.1121 1296.5 26.1121 Q1301.52 26.1121 1305.08 28.0971 Q1308.69 30.0415 1311.04 34.0924 M1285.64 49.9314 Q1285.64 58.1548 1289 62.8538 Q1292.4 67.5124 1298.32 67.5124 Q1304.23 67.5124 1307.64 62.8538 Q1311.04 58.1548 1311.04 49.9314 Q1311.04 41.7081 1307.64 37.0496 Q1304.23 32.3505 1298.32 32.3505 Q1292.4 32.3505 1289 37.0496 Q1285.64 41.7081 1285.64 49.9314 Z" fill="#000000" fill-rule="nonzero" fill-opacity="1"></path><path clip-path="url(#clip010)" d="M1361.19 34.9026 L1413.12 34.9026 L1413.12 41.7081 L1361.19 41.7081 L1361.19 34.9026 M1361.19 51.4303 L1413.12 51.4303 L1413.12 58.3168 L1361.19 58.3168 L1361.19 51.4303 Z" fill="#000000" fill-rule="nonzero" fill-opacity="1"></path><path clip-path="url(#clip010)" d="M1464.2 65.6895 L1492.76 65.6895 L1492.76 72.576 L1454.36 72.576 L1454.36 65.6895 Q1459.02 60.8689 1467.04 52.7671 Q1475.1 44.6248 1477.17 42.2752 Q1481.1 37.8598 1482.63 34.8216 Q1484.21 31.7429 1484.21 28.7857 Q1484.21 23.9651 1480.81 20.927 Q1477.45 17.8888 1472.02 17.8888 Q1468.17 17.8888 1463.88 19.2256 Q1459.63 20.5624 1454.76 23.2765 L1454.76 15.0127 Q1459.71 13.0277 1464 12.015 Q1468.29 11.0023 1471.86 11.0023 Q1481.26 11.0023 1486.85 15.7013 Q1492.44 20.4004 1492.44 28.2591 Q1492.44 31.9859 1491.02 35.3482 Q1489.64 38.6699 1485.96 43.2069 Q1484.94 44.3817 1479.52 50.0125 Q1474.09 55.6027 1464.2 65.6895 Z" fill="#000000" fill-rule="nonzero" fill-opacity="1"></path><path clip-path="url(#clip010)" d="M1510.79 62.2867 L1519.34 62.2867 L1519.34 69.2543 L1512.69 82.2172 L1507.47 82.2172 L1510.79 69.2543 L1510.79 62.2867 Z" fill="#000000" fill-rule="nonzero" fill-opacity="1"></path><path clip-path="url(#clip010)" d="M1561.95 12.096 L1572.97 12.096 L1599.79 62.6918 L1599.79 12.096 L1607.73 12.096 L1607.73 72.576 L1596.71 72.576 L1569.89 21.9802 L1569.89 72.576 L1561.95 72.576 L1561.95 12.096 Z" fill="#000000" fill-rule="nonzero" fill-opacity="1"></path><path clip-path="url(#clip010)" d="M1651.03 34.9026 L1702.96 34.9026 L1702.96 41.7081 L1651.03 41.7081 L1651.03 34.9026 M1651.03 51.4303 L1702.96 51.4303 L1702.96 58.3168 L1651.03 58.3168 L1651.03 51.4303 Z" fill="#000000" fill-rule="nonzero" fill-opacity="1"></path><path clip-path="url(#clip010)" d="M1748.41 65.6895 L1761.78 65.6895 L1761.78 19.5497 L1747.24 22.4663 L1747.24 15.0127 L1761.7 12.096 L1769.88 12.096 L1769.88 65.6895 L1783.25 65.6895 L1783.25 72.576 L1748.41 72.576 L1748.41 65.6895 Z" fill="#000000" fill-rule="nonzero" fill-opacity="1"></path><path clip-path="url(#clip010)" d="M1817.28 17.4837 Q1810.96 17.4837 1807.76 23.7221 Q1804.6 29.92 1804.6 42.3968 Q1804.6 54.833 1807.76 61.0714 Q1810.96 67.2693 1817.28 67.2693 Q1823.64 67.2693 1826.8 61.0714 Q1830 54.833 1830 42.3968 Q1830 29.92 1826.8 23.7221 Q1823.64 17.4837 1817.28 17.4837 M1817.28 11.0023 Q1827.45 11.0023 1832.79 19.0636 Q1838.18 27.0843 1838.18 42.3968 Q1838.18 57.6687 1832.79 65.73 Q1827.45 73.7508 1817.28 73.7508 Q1807.11 73.7508 1801.72 65.73 Q1796.38 57.6687 1796.38 42.3968 Q1796.38 27.0843 1801.72 19.0636 Q1807.11 11.0023 1817.28 11.0023 Z" fill="#000000" fill-rule="nonzero" fill-opacity="1"></path><path clip-path="url(#clip010)" d="M1850.34 9.62495 L1856.82 9.62495 Q1862.89 19.1851 1865.89 28.3401 Q1868.93 37.4952 1868.93 46.5287 Q1868.93 55.6027 1865.89 64.7983 Q1862.89 73.9938 1856.82 83.5134 L1850.34 83.5134 Q1855.72 74.2369 1858.36 65.0818 Q1861.03 55.8863 1861.03 46.5287 Q1861.03 37.1711 1858.36 28.0566 Q1855.72 18.942 1850.34 9.62495 Z" fill="#000000" fill-rule="nonzero" fill-opacity="1"></path><polyline clip-path="url(#clip012)" style="stroke:#009af9; stroke-linecap:round; stroke-linejoin:round; stroke-width:4; stroke-opacity:1; fill:none" stroke-dasharray="2, 4" points="347.652,160.256 367.316,172.014 386.979,188.839 406.643,239.26 426.307,313.268 445.97,274.262 465.634,314.124 485.298,356.327 504.961,365.094 524.625,376.616 544.289,379.338 563.952,436.198 583.616,479.005 603.28,417.55 622.943,463.529 642.607,524.635 662.271,501.183 681.934,551.048 701.598,596.322 721.262,536.586 740.925,626.434 760.589,558.624 780.253,490.022 799.916,535.002 819.58,530.616 839.244,628.826 858.907,622.498 878.571,549.894 898.235,735.678 917.898,661.558 937.562,607.601 957.226,630.618 976.889,610.09 996.553,651.541 1016.22,713.162 1035.88,633.143 1055.54,687.81 1075.21,633.035 1094.87,644.192 1114.53,640.82 1134.2,686.655 1153.86,665.032 1173.53,651.017 1193.19,732.622 1212.85,649.421 1232.52,763.324 1252.18,894.156 1271.84,800.109 1291.51,745.282 1311.17,756.02 1330.84,769.051 1350.5,798.486 1370.16,678.209 1389.83,788.561 1409.49,716.574 1429.15,854.087 1448.82,747.336 1468.48,785.058 1488.14,774.85 1507.81,838.431 1527.47,751.688 1547.14,787.892 1566.8,801.674 1586.46,810.823 1606.13,831.468 1625.79,775.398 1645.45,832.458 1665.12,831.519 1684.78,796.05 1704.44,868.107 1724.11,792.18 1743.77,850.372 1763.44,781.55 1783.1,806.448 1802.76,819.048 1822.43,835.129 1842.09,845.113 1861.75,875.538 1881.42,930.946 1901.08,871.278 1920.75,922.615 1940.41,872.517 1960.07,844.682 1979.74,800.912 1999.4,879.858 2019.06,834.546 2038.73,863.221 2058.39,894.959 2078.05,809.493 2097.72,889.056 2117.38,843.991 2137.05,816.323 2156.71,941.177 2176.37,880.451 2196.04,946.165 2215.7,762.739 2235.36,889.918 2255.03,876.052 2274.69,993.576 2294.35,966.826 "></polyline>
<polyline clip-path="url(#clip012)" style="stroke:#e26f46; stroke-linecap:round; stroke-linejoin:round; stroke-width:4; stroke-opacity:1; fill:none" stroke-dasharray="16, 8, 2, 8" points="347.652,187.927 367.316,303.589 386.979,347.406 406.643,401.593 426.307,434.219 445.97,489.126 465.634,486.464 485.298,645.201 504.961,603.244 524.625,572.285 544.289,644.734 563.952,586.505 583.616,746.989 603.28,636.438 622.943,777.393 642.607,769.613 662.271,746.084 681.934,707.647 701.598,732.821 721.262,874.329 740.925,819.729 760.589,776.927 780.253,911.667 799.916,900.121 819.58,879.076 839.244,856.314 858.907,830.015 878.571,858.475 898.235,825.258 917.898,934.862 937.562,862.363 957.226,927.233 976.889,899.545 996.553,1090.62 1016.22,887.055 1035.88,903.598 1055.54,925.43 1075.21,993.369 1094.87,986.461 1114.53,1137.15 1134.2,934.735 1153.86,1007.16 1173.53,1004.13 1193.19,1038.24 1212.85,1058.33 1232.52,1120.6 1252.18,1082.91 1271.84,1040.49 1291.51,1012.78 1311.17,1178.06 1330.84,1026.15 1350.5,1008.37 1370.16,971.547 1389.83,1076.67 1409.49,1060.36 1429.15,1064.69 1448.82,1075.94 1468.48,1038.47 1488.14,1133.73 1507.81,1075.87 1527.47,1145.92 1547.14,1047.74 1566.8,1067.81 1586.46,1078.18 1606.13,1104.5 1625.79,1180.27 1645.45,1127.67 1665.12,1236.24 1684.78,1227.68 1704.44,1128.96 1724.11,1161.8 1743.77,1268.31 1763.44,1159.53 1783.1,1169.57 1802.76,1160.09 1822.43,1121.96 1842.09,1167.87 1861.75,1135.27 1881.42,1147.49 1901.08,1113.46 1920.75,1124.95 1940.41,1257.35 1960.07,1226.05 1979.74,1119.49 1999.4,1149.15 2019.06,1138.81 2038.73,1133.94 2058.39,1186.04 2078.05,1241.91 2097.72,1189.04 2117.38,1177.98 2137.05,1264.91 2156.71,1109.9 2176.37,1211.78 2196.04,1177.68 2215.7,1284.55 2235.36,1210.67 2255.03,1266 2274.69,1202.53 2294.35,1167.04 "></polyline>
<polyline clip-path="url(#clip012)" style="stroke:#3da44d; stroke-linecap:round; stroke-linejoin:round; stroke-width:4; stroke-opacity:1; fill:none" points="347.652,312.909 367.316,388.282 386.979,541.839 406.643,502.791 426.307,554.059 445.97,597.533 465.634,604.738 485.298,631.194 504.961,719.103 524.625,760.407 544.289,737.485 563.952,759.624 583.616,753.71 603.28,755.427 622.943,788.721 642.607,693.036 662.271,788.137 681.934,894.408 701.598,801.72 721.262,728.027 740.925,890.582 760.589,915.93 780.253,950.428 799.916,995.403 819.58,897.018 839.244,910.473 858.907,998.06 878.571,874.134 898.235,833.947 917.898,1005.35 937.562,975.541 957.226,926.161 976.889,849.086 996.553,905.127 1016.22,915.106 1035.88,1008.7 1055.54,879.837 1075.21,1011.32 1094.87,1047.95 1114.53,942.917 1134.2,1019.53 1153.86,1004 1173.53,994.221 1193.19,1018.34 1212.85,902.468 1232.52,1006.62 1252.18,984.264 1271.84,926.578 1291.51,964.639 1311.17,967.565 1330.84,1051.25 1350.5,1007.08 1370.16,1061.93 1389.83,997.675 1409.49,984.108 1429.15,1068.58 1448.82,1097.18 1468.48,1041.29 1488.14,1084.6 1507.81,1157.72 1527.47,1093.02 1547.14,1117.25 1566.8,1159.63 1586.46,1139.62 1606.13,1118.11 1625.79,1121.61 1645.45,1162.2 1665.12,1172.02 1684.78,1044.88 1704.44,1125.94 1724.11,1033.59 1743.77,1201.56 1763.44,1150.4 1783.1,1107.78 1802.76,1097.9 1822.43,1127.82 1842.09,1075.85 1861.75,1145.51 1881.42,1159.42 1901.08,1155.67 1920.75,1163.56 1940.41,1178.46 1960.07,1189.94 1979.74,1150.22 1999.4,1176.9 2019.06,1195.16 2038.73,1214.59 2058.39,1195.52 2078.05,1213.25 2097.72,1213.57 2117.38,1137.2 2137.05,1185.68 2156.71,1155.78 2176.37,1273.24 2196.04,1292.43 2215.7,1263.77 2235.36,1131.06 2255.03,1251.09 2274.69,1217.15 2294.35,1160.54 "></polyline>
<polyline clip-path="url(#clip012)" style="stroke:#c271d2; stroke-linecap:round; stroke-linejoin:round; stroke-width:4; stroke-opacity:1; fill:none" points="347.652,283.93 367.316,365.829 386.979,426.9 406.643,403.827 426.307,449.808 445.97,532.98 465.634,616.111 485.298,643.014 504.961,573.131 524.625,633.658 544.289,759.126 563.952,738.338 583.616,653.074 603.28,724.855 622.943,653.256 642.607,836.968 662.271,702.029 681.934,761.205 701.598,918.273 721.262,780.781 740.925,789.366 760.589,891.981 780.253,824.462 799.916,736.514 819.58,830.581 839.244,834.37 858.907,869.396 878.571,847.775 898.235,901.658 917.898,868.535 937.562,891.062 957.226,866.716 976.889,906.913 996.553,1018.67 1016.22,873.111 1035.88,875.423 1055.54,840.287 1075.21,874.155 1094.87,997.839 1114.53,886.296 1134.2,992.053 1153.86,1034.01 1173.53,900.932 1193.19,921.862 1212.85,979.644 1232.52,976.679 1252.18,879.37 1271.84,957.746 1291.51,944.857 1311.17,996.289 1330.84,936.518 1350.5,956.956 1370.16,983.434 1389.83,948.933 1409.49,1016.78 1429.15,1068.1 1448.82,914.377 1468.48,1050.16 1488.14,1052.39 1507.81,1018.06 1527.47,985.488 1547.14,970.559 1566.8,1053.21 1586.46,975.397 1606.13,1076.42 1625.79,990.671 1645.45,1000.8 1665.12,1090.78 1684.78,1093.64 1704.44,1027.41 1724.11,1147.03 1743.77,1028.73 1763.44,1009.58 1783.1,1060.28 1802.76,995.015 1822.43,1028.72 1842.09,1123.55 1861.75,1122.69 1881.42,1110.42 1901.08,1035.43 1920.75,1056.8 1940.41,1113.43 1960.07,1100.35 1979.74,1095.93 1999.4,1126.49 2019.06,1067.4 2038.73,1146.16 2058.39,1180.14 2078.05,1159.15 2097.72,1103.2 2117.38,1173.92 2137.05,1107.5 2156.71,1083.21 2176.37,1108.36 2196.04,1110.01 2215.7,1164.6 2235.36,1062.3 2255.03,1019.18 2274.69,1162.74 2294.35,1165.15 "></polyline>
<polyline clip-path="url(#clip012)" style="stroke:#ac8d18; stroke-linecap:round; stroke-linejoin:round; stroke-width:4; stroke-opacity:1; fill:none" points="347.652,310.321 367.316,388.151 386.979,513.813 406.643,554.184 426.307,606.06 445.97,659.493 465.634,637.117 485.298,664.417 504.961,676.845 524.625,796.526 544.289,739.284 563.952,727.68 583.616,815.538 603.28,738.333 622.943,780.64 642.607,795.557 662.271,753.509 681.934,844.374 701.598,885.054 721.262,900.418 740.925,913.144 760.589,900.106 780.253,835.835 799.916,848.167 819.58,959.091 839.244,926.877 858.907,973.543 878.571,1006.05 898.235,1019.03 917.898,1079.58 937.562,910.179 957.226,1016.31 976.889,1028.6 996.553,1055.53 1016.22,1031.78 1035.88,1017.75 1055.54,849.759 1075.21,958.273 1094.87,1037.55 1114.53,979.164 1134.2,1038.18 1153.86,1034.94 1173.53,1092.37 1193.19,1075.31 1212.85,1129.23 1232.52,1132.26 1252.18,1129.21 1271.84,1081.6 1291.51,1064.66 1311.17,1125.46 1330.84,1094.06 1350.5,1071.73 1370.16,1163.59 1389.83,1064.05 1409.49,999.825 1429.15,1117.33 1448.82,1086.36 1468.48,1218.52 1488.14,1027.12 1507.81,1183.79 1527.47,1116.2 1547.14,1222.66 1566.8,1137.32 1586.46,1177.7 1606.13,1254.13 1625.79,1079.15 1645.45,1155.56 1665.12,1110.94 1684.78,1260.81 1704.44,1123.71 1724.11,1190.08 1743.77,1120.67 1763.44,1129.13 1783.1,1163.27 1802.76,1133.34 1822.43,1080.25 1842.09,1159.78 1861.75,1211.67 1881.42,1134.67 1901.08,1172.04 1920.75,1193.2 1940.41,1245.43 1960.07,1213.95 1979.74,1208.42 1999.4,1194.23 2019.06,1297.23 2038.73,1251.08 2058.39,1230.56 2078.05,1238.58 2097.72,1193.78 2117.38,1168.67 2137.05,1198.98 2156.71,1241.08 2176.37,1345.55 2196.04,1277.12 2215.7,1219.34 2235.36,1183.17 2255.03,1202.33 2274.69,1283.68 2294.35,1252.24 "></polyline>
<polyline clip-path="url(#clip012)" style="stroke:#00a9ad; stroke-linecap:round; stroke-linejoin:round; stroke-width:4; stroke-opacity:1; fill:none" points="347.652,301.66 367.316,419.345 386.979,681.048 406.643,619.575 426.307,617.598 445.97,687.813 465.634,624.044 485.298,709.451 504.961,729.456 524.625,769.721 544.289,722.34 563.952,961.411 583.616,815.853 603.28,768.173 622.943,835.385 642.607,904.529 662.271,900.399 681.934,979.852 701.598,924.881 721.262,977.055 740.925,1022.58 760.589,932.073 780.253,1003.57 799.916,871.153 819.58,916.056 839.244,944.406 858.907,1028.51 878.571,1050.63 898.235,1117.39 917.898,1047.95 937.562,1192.86 957.226,1037.17 976.889,1151.88 996.553,1066.61 1016.22,1156.16 1035.88,1100.2 1055.54,1047.89 1075.21,1119.96 1094.87,1071.03 1114.53,1183.79 1134.2,1093.45 1153.86,1024.83 1173.53,1113.46 1193.19,1185.54 1212.85,1123.86 1232.52,1151.05 1252.18,1125.15 1271.84,1157.76 1291.51,1095.28 1311.17,1226.09 1330.84,1190.56 1350.5,1145.49 1370.16,1188.84 1389.83,1161.97 1409.49,1200.36 1429.15,1234.81 1448.82,1139.49 1468.48,1153.38 1488.14,1186.62 1507.81,1313.24 1527.47,1086.99 1547.14,1219.56 1566.8,1104.81 1586.46,1146.6 1606.13,1231.22 1625.79,1269.86 1645.45,1204.18 1665.12,1198.28 1684.78,1264.19 1704.44,1248.63 1724.11,1181.27 1743.77,1185.86 1763.44,1248.57 1783.1,1324.65 1802.76,1260.54 1822.43,1269.09 1842.09,1247.03 1861.75,1214.07 1881.42,1230.79 1901.08,1210.89 1920.75,1279.3 1940.41,1316.56 1960.07,1331.24 1979.74,1285.35 1999.4,1257.82 2019.06,1298.89 2038.73,1301.38 2058.39,1313.64 2078.05,1183.28 2097.72,1386.4 2117.38,1237.74 2137.05,1187.94 2156.71,1223.25 2176.37,1292.6 2196.04,1304.67 2215.7,1337.07 2235.36,1281.97 2255.03,1353.06 2274.69,1253.83 2294.35,1359.12 "></polyline>
<path clip-path="url(#clip010)" d="M1927.16 529.676 L2283.97 529.676 L2283.97 166.796 L1927.16 166.796  Z" fill="#ffffff" fill-rule="evenodd" fill-opacity="1"></path>
<polyline clip-path="url(#clip010)" style="stroke:#000000; stroke-linecap:round; stroke-linejoin:round; stroke-width:4; stroke-opacity:1; fill:none" points="1927.16,529.676 2283.97,529.676 2283.97,166.796 1927.16,166.796 1927.16,529.676 "></polyline>
<polyline clip-path="url(#clip010)" style="stroke:#009af9; stroke-linecap:round; stroke-linejoin:round; stroke-width:4; stroke-opacity:1; fill:none" stroke-dasharray="2, 4" points="1950.09,218.636 2087.65,218.636 "></polyline>
<path clip-path="url(#clip010)" d="M2136.14 230.985 L2136.14 221.703 L2128.5 221.703 L2128.5 217.86 L2140.77 217.86 L2140.77 232.698 Q2138.06 234.619 2134.8 235.615 Q2131.53 236.587 2127.83 236.587 Q2119.73 236.587 2115.14 231.865 Q2110.58 227.119 2110.58 218.67 Q2110.58 210.198 2115.14 205.476 Q2119.73 200.731 2127.83 200.731 Q2131.21 200.731 2134.24 201.564 Q2137.3 202.397 2139.86 204.018 L2139.86 208.995 Q2137.27 206.796 2134.36 205.684 Q2131.44 204.573 2128.22 204.573 Q2121.88 204.573 2118.68 208.115 Q2115.51 211.657 2115.51 218.67 Q2115.51 225.661 2118.68 229.203 Q2121.88 232.744 2128.22 232.744 Q2130.7 232.744 2132.64 232.328 Q2134.59 231.888 2136.14 230.985 Z" fill="#000000" fill-rule="nonzero" fill-opacity="1"></path><path clip-path="url(#clip010)" d="M2142.83 201.356 L2172.06 201.356 L2172.06 205.291 L2159.8 205.291 L2159.8 235.916 L2155.1 235.916 L2155.1 205.291 L2142.83 205.291 L2142.83 201.356 Z" fill="#000000" fill-rule="nonzero" fill-opacity="1"></path><path clip-path="url(#clip010)" d="M2170.95 201.356 L2200.19 201.356 L2200.19 205.291 L2187.92 205.291 L2187.92 235.916 L2183.22 235.916 L2183.22 205.291 L2170.95 205.291 L2170.95 201.356 Z" fill="#000000" fill-rule="nonzero" fill-opacity="1"></path><polyline clip-path="url(#clip010)" style="stroke:#e26f46; stroke-linecap:round; stroke-linejoin:round; stroke-width:4; stroke-opacity:1; fill:none" stroke-dasharray="16, 8, 2, 8" points="1950.09,270.476 2087.65,270.476 "></polyline>
<path clip-path="url(#clip010)" d="M2126.6 256.367 Q2121.51 256.367 2118.5 260.163 Q2115.51 263.96 2115.51 270.51 Q2115.51 277.038 2118.5 280.834 Q2121.51 284.631 2126.6 284.631 Q2131.69 284.631 2134.66 280.834 Q2137.64 277.038 2137.64 270.51 Q2137.64 263.96 2134.66 260.163 Q2131.69 256.367 2126.6 256.367 M2126.6 252.571 Q2133.87 252.571 2138.22 257.455 Q2142.57 262.316 2142.57 270.51 Q2142.57 278.682 2138.22 283.566 Q2133.87 288.427 2126.6 288.427 Q2119.31 288.427 2114.93 283.566 Q2110.58 278.705 2110.58 270.51 Q2110.58 262.316 2114.93 257.455 Q2119.31 252.571 2126.6 252.571 Z" fill="#000000" fill-rule="nonzero" fill-opacity="1"></path><path clip-path="url(#clip010)" d="M2173.45 282.825 L2173.45 273.543 L2165.81 273.543 L2165.81 269.7 L2178.08 269.7 L2178.08 284.538 Q2175.37 286.459 2172.11 287.455 Q2168.85 288.427 2165.14 288.427 Q2157.04 288.427 2152.46 283.705 Q2147.9 278.959 2147.9 270.51 Q2147.9 262.038 2152.46 257.316 Q2157.04 252.571 2165.14 252.571 Q2168.52 252.571 2171.55 253.404 Q2174.61 254.237 2177.18 255.858 L2177.18 260.835 Q2174.59 258.636 2171.67 257.524 Q2168.75 256.413 2165.54 256.413 Q2159.19 256.413 2156 259.955 Q2152.83 263.497 2152.83 270.51 Q2152.83 277.501 2156 281.043 Q2159.19 284.584 2165.54 284.584 Q2168.01 284.584 2169.96 284.168 Q2171.9 283.728 2173.45 282.825 Z" fill="#000000" fill-rule="nonzero" fill-opacity="1"></path><path clip-path="url(#clip010)" d="M2180.14 253.196 L2209.38 253.196 L2209.38 257.131 L2197.11 257.131 L2197.11 287.756 L2192.41 287.756 L2192.41 257.131 L2180.14 257.131 L2180.14 253.196 Z" fill="#000000" fill-rule="nonzero" fill-opacity="1"></path><path clip-path="url(#clip010)" d="M2208.27 253.196 L2237.5 253.196 L2237.5 257.131 L2225.23 257.131 L2225.23 287.756 L2220.54 287.756 L2220.54 257.131 L2208.27 257.131 L2208.27 253.196 Z" fill="#000000" fill-rule="nonzero" fill-opacity="1"></path><polyline clip-path="url(#clip010)" style="stroke:#3da44d; stroke-linecap:round; stroke-linejoin:round; stroke-width:4; stroke-opacity:1; fill:none" points="1950.09,322.316 2087.65,322.316 "></polyline>
<path clip-path="url(#clip010)" d="M2110.58 305.036 L2139.82 305.036 L2139.82 308.971 L2127.55 308.971 L2127.55 339.596 L2122.85 339.596 L2122.85 308.971 L2110.58 308.971 L2110.58 305.036 Z" fill="#000000" fill-rule="nonzero" fill-opacity="1"></path><path clip-path="url(#clip010)" d="M2138.71 305.036 L2167.94 305.036 L2167.94 308.971 L2155.67 308.971 L2155.67 339.596 L2150.98 339.596 L2150.98 308.971 L2138.71 308.971 L2138.71 305.036 Z" fill="#000000" fill-rule="nonzero" fill-opacity="1"></path><path clip-path="url(#clip010)" d="M2182.5 303.624 Q2179.4 308.948 2177.9 314.156 Q2176.39 319.364 2176.39 324.712 Q2176.39 330.059 2177.9 335.313 Q2179.42 340.545 2182.5 345.846 L2178.8 345.846 Q2175.33 340.406 2173.59 335.151 Q2171.88 329.897 2171.88 324.712 Q2171.88 319.55 2173.59 314.318 Q2175.3 309.087 2178.8 303.624 L2182.5 303.624 Z" fill="#000000" fill-rule="nonzero" fill-opacity="1"></path><path clip-path="url(#clip010)" d="M2192.18 335.661 L2199.82 335.661 L2199.82 309.295 L2191.51 310.962 L2191.51 306.702 L2199.77 305.036 L2204.45 305.036 L2204.45 335.661 L2212.09 335.661 L2212.09 339.596 L2192.18 339.596 L2192.18 335.661 Z" fill="#000000" fill-rule="nonzero" fill-opacity="1"></path><path clip-path="url(#clip010)" d="M2220.26 303.624 L2223.96 303.624 Q2227.43 309.087 2229.15 314.318 Q2230.88 319.55 2230.88 324.712 Q2230.88 329.897 2229.15 335.151 Q2227.43 340.406 2223.96 345.846 L2220.26 345.846 Q2223.34 340.545 2224.84 335.313 Q2226.37 330.059 2226.37 324.712 Q2226.37 319.364 2224.84 314.156 Q2223.34 308.948 2220.26 303.624 Z" fill="#000000" fill-rule="nonzero" fill-opacity="1"></path><polyline clip-path="url(#clip010)" style="stroke:#c271d2; stroke-linecap:round; stroke-linejoin:round; stroke-width:4; stroke-opacity:1; fill:none" points="1950.09,374.156 2087.65,374.156 "></polyline>
<path clip-path="url(#clip010)" d="M2110.58 356.876 L2139.82 356.876 L2139.82 360.811 L2127.55 360.811 L2127.55 391.436 L2122.85 391.436 L2122.85 360.811 L2110.58 360.811 L2110.58 356.876 Z" fill="#000000" fill-rule="nonzero" fill-opacity="1"></path><path clip-path="url(#clip010)" d="M2138.71 356.876 L2167.94 356.876 L2167.94 360.811 L2155.67 360.811 L2155.67 391.436 L2150.98 391.436 L2150.98 360.811 L2138.71 360.811 L2138.71 356.876 Z" fill="#000000" fill-rule="nonzero" fill-opacity="1"></path><path clip-path="url(#clip010)" d="M2182.5 355.464 Q2179.4 360.788 2177.9 365.996 Q2176.39 371.204 2176.39 376.552 Q2176.39 381.899 2177.9 387.153 Q2179.42 392.385 2182.5 397.686 L2178.8 397.686 Q2175.33 392.246 2173.59 386.991 Q2171.88 381.737 2171.88 376.552 Q2171.88 371.39 2173.59 366.158 Q2175.3 360.927 2178.8 355.464 L2182.5 355.464 Z" fill="#000000" fill-rule="nonzero" fill-opacity="1"></path><path clip-path="url(#clip010)" d="M2195.4 387.501 L2211.72 387.501 L2211.72 391.436 L2189.77 391.436 L2189.77 387.501 Q2192.43 384.746 2197.02 380.116 Q2201.62 375.464 2202.8 374.121 Q2205.05 371.598 2205.93 369.862 Q2206.83 368.103 2206.83 366.413 Q2206.83 363.658 2204.89 361.922 Q2202.97 360.186 2199.86 360.186 Q2197.67 360.186 2195.21 360.95 Q2192.78 361.714 2190 363.265 L2190 358.542 Q2192.83 357.408 2195.28 356.829 Q2197.73 356.251 2199.77 356.251 Q2205.14 356.251 2208.34 358.936 Q2211.53 361.621 2211.53 366.112 Q2211.53 368.241 2210.72 370.163 Q2209.93 372.061 2207.83 374.653 Q2207.25 375.325 2204.15 378.542 Q2201.04 381.737 2195.4 387.501 Z" fill="#000000" fill-rule="nonzero" fill-opacity="1"></path><path clip-path="url(#clip010)" d="M2220.26 355.464 L2223.96 355.464 Q2227.43 360.927 2229.15 366.158 Q2230.88 371.39 2230.88 376.552 Q2230.88 381.737 2229.15 386.991 Q2227.43 392.246 2223.96 397.686 L2220.26 397.686 Q2223.34 392.385 2224.84 387.153 Q2226.37 381.899 2226.37 376.552 Q2226.37 371.204 2224.84 365.996 Q2223.34 360.788 2220.26 355.464 Z" fill="#000000" fill-rule="nonzero" fill-opacity="1"></path><polyline clip-path="url(#clip010)" style="stroke:#ac8d18; stroke-linecap:round; stroke-linejoin:round; stroke-width:4; stroke-opacity:1; fill:none" points="1950.09,425.996 2087.65,425.996 "></polyline>
<path clip-path="url(#clip010)" d="M2110.58 408.716 L2139.82 408.716 L2139.82 412.651 L2127.55 412.651 L2127.55 443.276 L2122.85 443.276 L2122.85 412.651 L2110.58 412.651 L2110.58 408.716 Z" fill="#000000" fill-rule="nonzero" fill-opacity="1"></path><path clip-path="url(#clip010)" d="M2138.71 408.716 L2167.94 408.716 L2167.94 412.651 L2155.67 412.651 L2155.67 443.276 L2150.98 443.276 L2150.98 412.651 L2138.71 412.651 L2138.71 408.716 Z" fill="#000000" fill-rule="nonzero" fill-opacity="1"></path><path clip-path="url(#clip010)" d="M2182.5 407.304 Q2179.4 412.628 2177.9 417.836 Q2176.39 423.044 2176.39 428.392 Q2176.39 433.739 2177.9 438.993 Q2179.42 444.225 2182.5 449.526 L2178.8 449.526 Q2175.33 444.086 2173.59 438.831 Q2171.88 433.577 2171.88 428.392 Q2171.88 423.23 2173.59 417.998 Q2175.3 412.767 2178.8 407.304 L2182.5 407.304 Z" fill="#000000" fill-rule="nonzero" fill-opacity="1"></path><path clip-path="url(#clip010)" d="M2191.42 408.716 L2209.77 408.716 L2209.77 412.651 L2195.7 412.651 L2195.7 421.123 Q2196.72 420.776 2197.73 420.614 Q2198.75 420.429 2199.77 420.429 Q2205.56 420.429 2208.94 423.6 Q2212.32 426.771 2212.32 432.188 Q2212.32 437.766 2208.85 440.868 Q2205.37 443.947 2199.05 443.947 Q2196.88 443.947 2194.61 443.577 Q2192.36 443.206 2189.96 442.466 L2189.96 437.766 Q2192.04 438.901 2194.26 439.456 Q2196.48 440.012 2198.96 440.012 Q2202.97 440.012 2205.3 437.905 Q2207.64 435.799 2207.64 432.188 Q2207.64 428.577 2205.3 426.47 Q2202.97 424.364 2198.96 424.364 Q2197.09 424.364 2195.21 424.78 Q2193.36 425.197 2191.42 426.077 L2191.42 408.716 Z" fill="#000000" fill-rule="nonzero" fill-opacity="1"></path><path clip-path="url(#clip010)" d="M2220.26 407.304 L2223.96 407.304 Q2227.43 412.767 2229.15 417.998 Q2230.88 423.23 2230.88 428.392 Q2230.88 433.577 2229.15 438.831 Q2227.43 444.086 2223.96 449.526 L2220.26 449.526 Q2223.34 444.225 2224.84 438.993 Q2226.37 433.739 2226.37 428.392 Q2226.37 423.044 2224.84 417.836 Q2223.34 412.628 2220.26 407.304 Z" fill="#000000" fill-rule="nonzero" fill-opacity="1"></path><polyline clip-path="url(#clip010)" style="stroke:#00a9ad; stroke-linecap:round; stroke-linejoin:round; stroke-width:4; stroke-opacity:1; fill:none" points="1950.09,477.836 2087.65,477.836 "></polyline>
<path clip-path="url(#clip010)" d="M2110.58 460.556 L2139.82 460.556 L2139.82 464.491 L2127.55 464.491 L2127.55 495.116 L2122.85 495.116 L2122.85 464.491 L2110.58 464.491 L2110.58 460.556 Z" fill="#000000" fill-rule="nonzero" fill-opacity="1"></path><path clip-path="url(#clip010)" d="M2138.71 460.556 L2167.94 460.556 L2167.94 464.491 L2155.67 464.491 L2155.67 495.116 L2150.98 495.116 L2150.98 464.491 L2138.71 464.491 L2138.71 460.556 Z" fill="#000000" fill-rule="nonzero" fill-opacity="1"></path><path clip-path="url(#clip010)" d="M2182.5 459.144 Q2179.4 464.468 2177.9 469.676 Q2176.39 474.884 2176.39 480.232 Q2176.39 485.579 2177.9 490.833 Q2179.42 496.065 2182.5 501.366 L2178.8 501.366 Q2175.33 495.926 2173.59 490.671 Q2171.88 485.417 2171.88 480.232 Q2171.88 475.07 2173.59 469.838 Q2175.3 464.607 2178.8 459.144 L2182.5 459.144 Z" fill="#000000" fill-rule="nonzero" fill-opacity="1"></path><path clip-path="url(#clip010)" d="M2192.18 491.181 L2199.82 491.181 L2199.82 464.815 L2191.51 466.482 L2191.51 462.222 L2199.77 460.556 L2204.45 460.556 L2204.45 491.181 L2212.09 491.181 L2212.09 495.116 L2192.18 495.116 L2192.18 491.181 Z" fill="#000000" fill-rule="nonzero" fill-opacity="1"></path><path clip-path="url(#clip010)" d="M2231.53 463.634 Q2227.92 463.634 2226.09 467.199 Q2224.29 470.741 2224.29 477.87 Q2224.29 484.977 2226.09 488.542 Q2227.92 492.083 2231.53 492.083 Q2235.17 492.083 2236.97 488.542 Q2238.8 484.977 2238.8 477.87 Q2238.8 470.741 2236.97 467.199 Q2235.17 463.634 2231.53 463.634 M2231.53 459.931 Q2237.34 459.931 2240.4 464.537 Q2243.48 469.12 2243.48 477.87 Q2243.48 486.597 2240.4 491.204 Q2237.34 495.787 2231.53 495.787 Q2225.72 495.787 2222.64 491.204 Q2219.59 486.597 2219.59 477.87 Q2219.59 469.12 2222.64 464.537 Q2225.72 459.931 2231.53 459.931 Z" fill="#000000" fill-rule="nonzero" fill-opacity="1"></path><path clip-path="url(#clip010)" d="M2250.42 459.144 L2254.12 459.144 Q2257.6 464.607 2259.31 469.838 Q2261.04 475.07 2261.04 480.232 Q2261.04 485.417 2259.31 490.671 Q2257.6 495.926 2254.12 501.366 L2250.42 501.366 Q2253.5 496.065 2255 490.833 Q2256.53 485.579 2256.53 480.232 Q2256.53 474.884 2255 469.676 Q2253.5 464.468 2250.42 459.144 Z" fill="#000000" fill-rule="nonzero" fill-opacity="1"></path></svg>