<svg xmlns="http://www.w3.org/2000/svg" xmlns:xlink="http://www.w3.org/1999/xlink" width="600" height="400" viewBox="0 0 2400 1600">
<defs>
  <clipPath id="clip970">
    <rect x="0" y="0" width="2400" height="1600"></rect>
  </clipPath>
</defs>
<path clip-path="url(#clip970)" d="M0 1600 L2400 1600 L2400 0 L0 0  Z" fill="#ffffff" fill-rule="evenodd" fill-opacity="1"></path>
<defs>
  <clipPath id="clip971">
    <rect x="480" y="0" width="1681" height="1600"></rect>
  </clipPath>
</defs>
<path clip-path="url(#clip970)" d="M289.119 1423.18 L2352.76 1423.18 L2352.76 123.472 L289.119 123.472  Z" fill="#ffffff" fill-rule="evenodd" fill-opacity="1"></path>
<defs>
  <clipPath id="clip972">
    <rect x="289" y="123" width="2065" height="1301"></rect>
  </clipPath>
</defs>
<polyline clip-path="url(#clip972)" style="stroke:#000000; stroke-linecap:round; stroke-linejoin:round; stroke-width:2; stroke-opacity:0.1; fill:none" points="327.859,1423.18 327.859,123.472 "></polyline>
<polyline clip-path="url(#clip972)" style="stroke:#000000; stroke-linecap:round; stroke-linejoin:round; stroke-width:2; stroke-opacity:0.1; fill:none" points="819.482,1423.18 819.482,123.472 "></polyline>
<polyline clip-path="url(#clip972)" style="stroke:#000000; stroke-linecap:round; stroke-linejoin:round; stroke-width:2; stroke-opacity:0.1; fill:none" points="1311.11,1423.18 1311.11,123.472 "></polyline>
<polyline clip-path="url(#clip972)" style="stroke:#000000; stroke-linecap:round; stroke-linejoin:round; stroke-width:2; stroke-opacity:0.1; fill:none" points="1802.73,1423.18 1802.73,123.472 "></polyline>
<polyline clip-path="url(#clip972)" style="stroke:#000000; stroke-linecap:round; stroke-linejoin:round; stroke-width:2; stroke-opacity:0.1; fill:none" points="2294.35,1423.18 2294.35,123.472 "></polyline>
<polyline clip-path="url(#clip972)" style="stroke:#000000; stroke-linecap:round; stroke-linejoin:round; stroke-width:2; stroke-opacity:0.1; fill:none" points="289.119,1141.28 2352.76,1141.28 "></polyline>
<polyline clip-path="url(#clip972)" style="stroke:#000000; stroke-linecap:round; stroke-linejoin:round; stroke-width:2; stroke-opacity:0.1; fill:none" points="289.119,639.933 2352.76,639.933 "></polyline>
<polyline clip-path="url(#clip972)" style="stroke:#000000; stroke-linecap:round; stroke-linejoin:round; stroke-width:2; stroke-opacity:0.1; fill:none" points="289.119,138.588 2352.76,138.588 "></polyline>
<polyline clip-path="url(#clip970)" style="stroke:#000000; stroke-linecap:round; stroke-linejoin:round; stroke-width:4; stroke-opacity:1; fill:none" points="289.119,1423.18 2352.76,1423.18 "></polyline>
<polyline clip-path="url(#clip970)" style="stroke:#000000; stroke-linecap:round; stroke-linejoin:round; stroke-width:4; stroke-opacity:1; fill:none" points="327.859,1423.18 327.859,1404.28 "></polyline>
<polyline clip-path="url(#clip970)" style="stroke:#000000; stroke-linecap:round; stroke-linejoin:round; stroke-width:4; stroke-opacity:1; fill:none" points="819.482,1423.18 819.482,1404.28 "></polyline>
<polyline clip-path="url(#clip970)" style="stroke:#000000; stroke-linecap:round; stroke-linejoin:round; stroke-width:4; stroke-opacity:1; fill:none" points="1311.11,1423.18 1311.11,1404.28 "></polyline>
<polyline clip-path="url(#clip970)" style="stroke:#000000; stroke-linecap:round; stroke-linejoin:round; stroke-width:4; stroke-opacity:1; fill:none" points="1802.73,1423.18 1802.73,1404.28 "></polyline>
<polyline clip-path="url(#clip970)" style="stroke:#000000; stroke-linecap:round; stroke-linejoin:round; stroke-width:4; stroke-opacity:1; fill:none" points="2294.35,1423.18 2294.35,1404.28 "></polyline>
<path clip-path="url(#clip970)" d="M327.859 1454.1 Q324.248 1454.1 322.419 1457.66 Q320.614 1461.2 320.614 1468.33 Q320.614 1475.44 322.419 1479.01 Q324.248 1482.55 327.859 1482.55 Q331.493 1482.55 333.299 1479.01 Q335.128 1475.44 335.128 1468.33 Q335.128 1461.2 333.299 1457.66 Q331.493 1454.1 327.859 1454.1 M327.859 1450.39 Q333.669 1450.39 336.725 1455 Q339.804 1459.58 339.804 1468.33 Q339.804 1477.06 336.725 1481.67 Q333.669 1486.25 327.859 1486.25 Q322.049 1486.25 318.97 1481.67 Q315.915 1477.06 315.915 1468.33 Q315.915 1459.58 318.97 1455 Q322.049 1450.39 327.859 1450.39 Z" fill="#000000" fill-rule="nonzero" fill-opacity="1"></path><path clip-path="url(#clip970)" d="M798.753 1481.64 L815.073 1481.64 L815.073 1485.58 L793.128 1485.58 L793.128 1481.64 Q795.79 1478.89 800.374 1474.26 Q804.98 1469.61 806.161 1468.27 Q808.406 1465.74 809.286 1464.01 Q810.188 1462.25 810.188 1460.56 Q810.188 1457.8 808.244 1456.07 Q806.323 1454.33 803.221 1454.33 Q801.022 1454.33 798.568 1455.09 Q796.137 1455.86 793.36 1457.41 L793.36 1452.69 Q796.184 1451.55 798.637 1450.97 Q801.091 1450.39 803.128 1450.39 Q808.498 1450.39 811.693 1453.08 Q814.887 1455.77 814.887 1460.26 Q814.887 1462.39 814.077 1464.31 Q813.29 1466.2 811.184 1468.8 Q810.605 1469.47 807.503 1472.69 Q804.401 1475.88 798.753 1481.64 Z" fill="#000000" fill-rule="nonzero" fill-opacity="1"></path><path clip-path="url(#clip970)" d="M824.934 1451.02 L843.29 1451.02 L843.29 1454.96 L829.216 1454.96 L829.216 1463.43 Q830.234 1463.08 831.253 1462.92 Q832.272 1462.73 833.29 1462.73 Q839.077 1462.73 842.457 1465.9 Q845.836 1469.08 845.836 1474.49 Q845.836 1480.07 842.364 1483.17 Q838.892 1486.25 832.572 1486.25 Q830.397 1486.25 828.128 1485.88 Q825.883 1485.51 823.475 1484.77 L823.475 1480.07 Q825.559 1481.2 827.781 1481.76 Q830.003 1482.32 832.48 1482.32 Q836.484 1482.32 838.822 1480.21 Q841.16 1478.1 841.16 1474.49 Q841.16 1470.88 838.822 1468.77 Q836.484 1466.67 832.48 1466.67 Q830.605 1466.67 828.73 1467.08 Q826.878 1467.5 824.934 1468.38 L824.934 1451.02 Z" fill="#000000" fill-rule="nonzero" fill-opacity="1"></path><path clip-path="url(#clip970)" d="M1285.8 1451.02 L1304.16 1451.02 L1304.16 1454.96 L1290.09 1454.96 L1290.09 1463.43 Q1291.11 1463.08 1292.12 1462.92 Q1293.14 1462.73 1294.16 1462.73 Q1299.95 1462.73 1303.33 1465.9 Q1306.71 1469.08 1306.71 1474.49 Q1306.71 1480.07 1303.23 1483.17 Q1299.76 1486.25 1293.44 1486.25 Q1291.27 1486.25 1289 1485.88 Q1286.75 1485.51 1284.35 1484.77 L1284.35 1480.07 Q1286.43 1481.2 1288.65 1481.76 Q1290.87 1482.32 1293.35 1482.32 Q1297.36 1482.32 1299.69 1480.21 Q1302.03 1478.1 1302.03 1474.49 Q1302.03 1470.88 1299.69 1468.77 Q1297.36 1466.67 1293.35 1466.67 Q1291.48 1466.67 1289.6 1467.08 Q1287.75 1467.5 1285.8 1468.38 L1285.8 1451.02 Z" fill="#000000" fill-rule="nonzero" fill-opacity="1"></path><path clip-path="url(#clip970)" d="M1325.92 1454.1 Q1322.31 1454.1 1320.48 1457.66 Q1318.67 1461.2 1318.67 1468.33 Q1318.67 1475.44 1320.48 1479.01 Q1322.31 1482.55 1325.92 1482.55 Q1329.55 1482.55 1331.36 1479.01 Q1333.19 1475.44 1333.19 1468.33 Q1333.19 1461.2 1331.36 1457.66 Q1329.55 1454.1 1325.92 1454.1 M1325.92 1450.39 Q1331.73 1450.39 1334.79 1455 Q1337.86 1459.58 1337.86 1468.33 Q1337.86 1477.06 1334.79 1481.67 Q1331.73 1486.25 1325.92 1486.25 Q1320.11 1486.25 1317.03 1481.67 Q1313.98 1477.06 1313.98 1468.33 Q1313.98 1459.58 1317.03 1455 Q1320.11 1450.39 1325.92 1450.39 Z" fill="#000000" fill-rule="nonzero" fill-opacity="1"></path><path clip-path="url(#clip970)" d="M1776.58 1451.02 L1798.8 1451.02 L1798.8 1453.01 L1786.26 1485.58 L1781.37 1485.58 L1793.18 1454.96 L1776.58 1454.96 L1776.58 1451.02 Z" fill="#000000" fill-rule="nonzero" fill-opacity="1"></path><path clip-path="url(#clip970)" d="M1807.97 1451.02 L1826.33 1451.02 L1826.33 1454.96 L1812.25 1454.96 L1812.25 1463.43 Q1813.27 1463.08 1814.29 1462.92 Q1815.31 1462.73 1816.33 1462.73 Q1822.11 1462.73 1825.49 1465.9 Q1828.87 1469.08 1828.87 1474.49 Q1828.87 1480.07 1825.4 1483.17 Q1821.93 1486.25 1815.61 1486.25 Q1813.43 1486.25 1811.17 1485.88 Q1808.92 1485.51 1806.51 1484.77 L1806.51 1480.07 Q1808.6 1481.2 1810.82 1481.76 Q1813.04 1482.32 1815.52 1482.32 Q1819.52 1482.32 1821.86 1480.21 Q1824.2 1478.1 1824.2 1474.49 Q1824.2 1470.88 1821.86 1468.77 Q1819.52 1466.67 1815.52 1466.67 Q1813.64 1466.67 1811.77 1467.08 Q1809.92 1467.5 1807.97 1468.38 L1807.97 1451.02 Z" fill="#000000" fill-rule="nonzero" fill-opacity="1"></path><path clip-path="url(#clip970)" d="M2253.96 1481.64 L2261.6 1481.64 L2261.6 1455.28 L2253.29 1456.95 L2253.29 1452.69 L2261.55 1451.02 L2266.23 1451.02 L2266.23 1481.64 L2273.87 1481.64 L2273.87 1485.58 L2253.96 1485.58 L2253.96 1481.64 Z" fill="#000000" fill-rule="nonzero" fill-opacity="1"></path><path clip-path="url(#clip970)" d="M2293.31 1454.1 Q2289.7 1454.1 2287.87 1457.66 Q2286.06 1461.2 2286.06 1468.33 Q2286.06 1475.44 2287.87 1479.01 Q2289.7 1482.55 2293.31 1482.55 Q2296.94 1482.55 2298.75 1479.01 Q2300.58 1475.44 2300.58 1468.33 Q2300.58 1461.2 2298.75 1457.66 Q2296.94 1454.1 2293.31 1454.1 M2293.31 1450.39 Q2299.12 1450.39 2302.18 1455 Q2305.25 1459.58 2305.25 1468.33 Q2305.25 1477.06 2302.18 1481.67 Q2299.12 1486.25 2293.31 1486.25 Q2287.5 1486.25 2284.42 1481.67 Q2281.37 1477.06 2281.37 1468.33 Q2281.37 1459.58 2284.42 1455 Q2287.5 1450.39 2293.31 1450.39 Z" fill="#000000" fill-rule="nonzero" fill-opacity="1"></path><path clip-path="url(#clip970)" d="M2323.47 1454.1 Q2319.86 1454.1 2318.03 1457.66 Q2316.23 1461.2 2316.23 1468.33 Q2316.23 1475.44 2318.03 1479.01 Q2319.86 1482.55 2323.47 1482.55 Q2327.11 1482.55 2328.91 1479.01 Q2330.74 1475.44 2330.74 1468.33 Q2330.74 1461.2 2328.91 1457.66 Q2327.11 1454.1 2323.47 1454.1 M2323.47 1450.39 Q2329.28 1450.39 2332.34 1455 Q2335.42 1459.58 2335.42 1468.33 Q2335.42 1477.06 2332.34 1481.67 Q2329.28 1486.25 2323.47 1486.25 Q2317.66 1486.25 2314.58 1481.67 Q2311.53 1477.06 2311.53 1468.33 Q2311.53 1459.58 2314.58 1455 Q2317.66 1450.39 2323.47 1450.39 Z" fill="#000000" fill-rule="nonzero" fill-opacity="1"></path><path clip-path="url(#clip970)" d="M958.442 1520.52 L988.489 1520.52 L988.489 1525.93 L964.872 1525.93 L964.872 1540 L987.502 1540 L987.502 1545.41 L964.872 1545.41 L964.872 1562.63 L989.062 1562.63 L989.062 1568.04 L958.442 1568.04 L958.442 1520.52 Z" fill="#000000" fill-rule="nonzero" fill-opacity="1"></path><path clip-path="url(#clip970)" d="M1027.13 1539.24 Q1029.32 1535.29 1032.38 1533.41 Q1035.44 1531.54 1039.57 1531.54 Q1045.14 1531.54 1048.17 1535.45 Q1051.19 1539.33 1051.19 1546.53 L1051.19 1568.04 L1045.3 1568.04 L1045.3 1546.72 Q1045.3 1541.59 1043.49 1539.11 Q1041.67 1536.63 1037.95 1536.63 Q1033.4 1536.63 1030.76 1539.65 Q1028.12 1542.68 1028.12 1547.9 L1028.12 1568.04 L1022.23 1568.04 L1022.23 1546.72 Q1022.23 1541.56 1020.41 1539.11 Q1018.6 1536.63 1014.81 1536.63 Q1010.32 1536.63 1007.68 1539.68 Q1005.04 1542.71 1005.04 1547.9 L1005.04 1568.04 L999.151 1568.04 L999.151 1532.4 L1005.04 1532.4 L1005.04 1537.93 Q1007.04 1534.66 1009.85 1533.1 Q1012.65 1531.54 1016.5 1531.54 Q1020.38 1531.54 1023.09 1533.51 Q1025.82 1535.48 1027.13 1539.24 Z" fill="#000000" fill-rule="nonzero" fill-opacity="1"></path><path clip-path="url(#clip970)" d="M1088.46 1550.25 Q1088.46 1543.79 1085.79 1540.13 Q1083.15 1536.44 1078.5 1536.44 Q1073.85 1536.44 1071.18 1540.13 Q1068.54 1543.79 1068.54 1550.25 Q1068.54 1556.71 1071.18 1560.4 Q1073.85 1564.07 1078.5 1564.07 Q1083.15 1564.07 1085.79 1560.4 Q1088.46 1556.71 1088.46 1550.25 M1068.54 1537.81 Q1070.38 1534.62 1073.18 1533.1 Q1076.02 1531.54 1079.93 1531.54 Q1086.43 1531.54 1090.47 1536.69 Q1094.54 1541.85 1094.54 1550.25 Q1094.54 1558.65 1090.47 1563.81 Q1086.43 1568.97 1079.93 1568.97 Q1076.02 1568.97 1073.18 1567.44 Q1070.38 1565.88 1068.54 1562.7 L1068.54 1568.04 L1062.65 1568.04 L1062.65 1518.52 L1068.54 1518.52 L1068.54 1537.81 Z" fill="#000000" fill-rule="nonzero" fill-opacity="1"></path><path clip-path="url(#clip970)" d="M1134.74 1548.76 L1134.74 1551.62 L1107.81 1551.62 Q1108.2 1557.67 1111.44 1560.85 Q1114.72 1564 1120.55 1564 Q1123.92 1564 1127.07 1563.17 Q1130.25 1562.35 1133.37 1560.69 L1133.37 1566.23 Q1130.22 1567.57 1126.91 1568.27 Q1123.6 1568.97 1120.2 1568.97 Q1111.67 1568.97 1106.67 1564 Q1101.7 1559.04 1101.7 1550.57 Q1101.7 1541.82 1106.41 1536.69 Q1111.16 1531.54 1119.18 1531.54 Q1126.37 1531.54 1130.54 1536.18 Q1134.74 1540.8 1134.74 1548.76 M1128.88 1547.04 Q1128.82 1542.23 1126.18 1539.37 Q1123.57 1536.5 1119.24 1536.5 Q1114.34 1536.5 1111.38 1539.27 Q1108.45 1542.04 1108 1547.07 L1128.88 1547.04 Z" fill="#000000" fill-rule="nonzero" fill-opacity="1"></path><path clip-path="url(#clip970)" d="M1167.81 1537.81 L1167.81 1518.52 L1173.67 1518.52 L1173.67 1568.04 L1167.81 1568.04 L1167.81 1562.7 Q1165.96 1565.88 1163.13 1567.44 Q1160.33 1568.97 1156.38 1568.97 Q1149.92 1568.97 1145.85 1563.81 Q1141.81 1558.65 1141.81 1550.25 Q1141.81 1541.85 1145.85 1536.69 Q1149.92 1531.54 1156.38 1531.54 Q1160.33 1531.54 1163.13 1533.1 Q1165.96 1534.62 1167.81 1537.81 M1147.85 1550.25 Q1147.85 1556.71 1150.5 1560.4 Q1153.17 1564.07 1157.82 1564.07 Q1162.46 1564.07 1165.14 1560.4 Q1167.81 1556.71 1167.81 1550.25 Q1167.81 1543.79 1165.14 1540.13 Q1162.46 1536.44 1157.82 1536.44 Q1153.17 1536.44 1150.5 1540.13 Q1147.85 1543.79 1147.85 1550.25 Z" fill="#000000" fill-rule="nonzero" fill-opacity="1"></path><path clip-path="url(#clip970)" d="M1209.19 1537.81 L1209.19 1518.52 L1215.04 1518.52 L1215.04 1568.04 L1209.19 1568.04 L1209.19 1562.7 Q1207.34 1565.88 1204.51 1567.44 Q1201.71 1568.97 1197.76 1568.97 Q1191.3 1568.97 1187.23 1563.81 Q1183.18 1558.65 1183.18 1550.25 Q1183.18 1541.85 1187.23 1536.69 Q1191.3 1531.54 1197.76 1531.54 Q1201.71 1531.54 1204.51 1533.1 Q1207.34 1534.62 1209.19 1537.81 M1189.23 1550.25 Q1189.23 1556.71 1191.87 1560.4 Q1194.55 1564.07 1199.19 1564.07 Q1203.84 1564.07 1206.51 1560.4 Q1209.19 1556.71 1209.19 1550.25 Q1209.19 1543.79 1206.51 1540.13 Q1203.84 1536.44 1199.19 1536.44 Q1194.55 1536.44 1191.87 1540.13 Q1189.23 1543.79 1189.23 1550.25 Z" fill="#000000" fill-rule="nonzero" fill-opacity="1"></path><path clip-path="url(#clip970)" d="M1227.11 1532.4 L1232.96 1532.4 L1232.96 1568.04 L1227.11 1568.04 L1227.11 1532.4 M1227.11 1518.52 L1232.96 1518.52 L1232.96 1525.93 L1227.11 1525.93 L1227.11 1518.52 Z" fill="#000000" fill-rule="nonzero" fill-opacity="1"></path><path clip-path="url(#clip970)" d="M1274.85 1546.53 L1274.85 1568.04 L1268.99 1568.04 L1268.99 1546.72 Q1268.99 1541.66 1267.02 1539.14 Q1265.05 1536.63 1261.1 1536.63 Q1256.36 1536.63 1253.62 1539.65 Q1250.88 1542.68 1250.88 1547.9 L1250.88 1568.04 L1244.99 1568.04 L1244.99 1532.4 L1250.88 1532.4 L1250.88 1537.93 Q1252.98 1534.72 1255.82 1533.13 Q1258.68 1531.54 1262.4 1531.54 Q1268.55 1531.54 1271.7 1535.36 Q1274.85 1539.14 1274.85 1546.53 Z" fill="#000000" fill-rule="nonzero" fill-opacity="1"></path><path clip-path="url(#clip970)" d="M1309.99 1549.81 Q1309.99 1543.44 1307.35 1539.94 Q1304.74 1536.44 1299.99 1536.44 Q1295.28 1536.44 1292.64 1539.94 Q1290.03 1543.44 1290.03 1549.81 Q1290.03 1556.14 1292.64 1559.64 Q1295.28 1563.14 1299.99 1563.14 Q1304.74 1563.14 1307.35 1559.64 Q1309.99 1556.14 1309.99 1549.81 M1315.85 1563.62 Q1315.85 1572.72 1311.8 1577.15 Q1307.76 1581.6 1299.42 1581.6 Q1296.33 1581.6 1293.6 1581.13 Q1290.86 1580.68 1288.28 1579.72 L1288.28 1574.03 Q1290.86 1575.43 1293.37 1576.1 Q1295.89 1576.76 1298.5 1576.76 Q1304.26 1576.76 1307.12 1573.74 Q1309.99 1570.75 1309.99 1564.67 L1309.99 1561.77 Q1308.17 1564.92 1305.34 1566.48 Q1302.51 1568.04 1298.56 1568.04 Q1292.01 1568.04 1288 1563.05 Q1283.98 1558.05 1283.98 1549.81 Q1283.98 1541.53 1288 1536.53 Q1292.01 1531.54 1298.56 1531.54 Q1302.51 1531.54 1305.34 1533.1 Q1308.17 1534.66 1309.99 1537.81 L1309.99 1532.4 L1315.85 1532.4 L1315.85 1563.62 Z" fill="#000000" fill-rule="nonzero" fill-opacity="1"></path><path clip-path="url(#clip970)" d="M1355.31 1525.81 L1355.31 1562.76 L1363.08 1562.76 Q1372.91 1562.76 1377.47 1558.3 Q1382.05 1553.85 1382.05 1544.24 Q1382.05 1534.69 1377.47 1530.26 Q1372.91 1525.81 1363.08 1525.81 L1355.31 1525.81 M1348.88 1520.52 L1362.09 1520.52 Q1375.91 1520.52 1382.37 1526.28 Q1388.83 1532.01 1388.83 1544.24 Q1388.83 1556.52 1382.33 1562.28 Q1375.84 1568.04 1362.09 1568.04 L1348.88 1568.04 L1348.88 1520.52 Z" fill="#000000" fill-rule="nonzero" fill-opacity="1"></path><path clip-path="url(#clip970)" d="M1398.82 1532.4 L1404.68 1532.4 L1404.68 1568.04 L1398.82 1568.04 L1398.82 1532.4 M1398.82 1518.52 L1404.68 1518.52 L1404.68 1525.93 L1398.82 1525.93 L1398.82 1518.52 Z" fill="#000000" fill-rule="nonzero" fill-opacity="1"></path><path clip-path="url(#clip970)" d="M1444.69 1539.24 Q1446.88 1535.29 1449.94 1533.41 Q1452.99 1531.54 1457.13 1531.54 Q1462.7 1531.54 1465.73 1535.45 Q1468.75 1539.33 1468.75 1546.53 L1468.75 1568.04 L1462.86 1568.04 L1462.86 1546.72 Q1462.86 1541.59 1461.05 1539.11 Q1459.23 1536.63 1455.51 1536.63 Q1450.96 1536.63 1448.32 1539.65 Q1445.67 1542.68 1445.67 1547.9 L1445.67 1568.04 L1439.79 1568.04 L1439.79 1546.72 Q1439.79 1541.56 1437.97 1539.11 Q1436.16 1536.63 1432.37 1536.63 Q1427.88 1536.63 1425.24 1539.68 Q1422.6 1542.71 1422.6 1547.9 L1422.6 1568.04 L1416.71 1568.04 L1416.71 1532.4 L1422.6 1532.4 L1422.6 1537.93 Q1424.6 1534.66 1427.4 1533.1 Q1430.2 1531.54 1434.06 1531.54 Q1437.94 1531.54 1440.64 1533.51 Q1443.38 1535.48 1444.69 1539.24 Z" fill="#000000" fill-rule="nonzero" fill-opacity="1"></path><path clip-path="url(#clip970)" d="M1510.92 1548.76 L1510.92 1551.62 L1484 1551.62 Q1484.38 1557.67 1487.62 1560.85 Q1490.9 1564 1496.73 1564 Q1500.1 1564 1503.25 1563.17 Q1506.43 1562.35 1509.55 1560.69 L1509.55 1566.23 Q1506.4 1567.57 1503.09 1568.27 Q1499.78 1568.97 1496.38 1568.97 Q1487.85 1568.97 1482.85 1564 Q1477.88 1559.04 1477.88 1550.57 Q1477.88 1541.82 1482.59 1536.69 Q1487.34 1531.54 1495.36 1531.54 Q1502.55 1531.54 1506.72 1536.18 Q1510.92 1540.8 1510.92 1548.76 M1505.07 1547.04 Q1505 1542.23 1502.36 1539.37 Q1499.75 1536.5 1495.42 1536.5 Q1490.52 1536.5 1487.56 1539.27 Q1484.63 1542.04 1484.19 1547.07 L1505.07 1547.04 Z" fill="#000000" fill-rule="nonzero" fill-opacity="1"></path><path clip-path="url(#clip970)" d="M1550.17 1546.53 L1550.17 1568.04 L1544.31 1568.04 L1544.31 1546.72 Q1544.31 1541.66 1542.34 1539.14 Q1540.36 1536.63 1536.42 1536.63 Q1531.67 1536.63 1528.94 1539.65 Q1526.2 1542.68 1526.2 1547.9 L1526.2 1568.04 L1520.31 1568.04 L1520.31 1532.4 L1526.2 1532.4 L1526.2 1537.93 Q1528.3 1534.72 1531.13 1533.13 Q1534 1531.54 1537.72 1531.54 Q1543.86 1531.54 1547.02 1535.36 Q1550.17 1539.14 1550.17 1546.53 Z" fill="#000000" fill-rule="nonzero" fill-opacity="1"></path><path clip-path="url(#clip970)" d="M1584.57 1533.45 L1584.57 1538.98 Q1582.09 1537.71 1579.42 1537.07 Q1576.74 1536.44 1573.88 1536.44 Q1569.52 1536.44 1567.32 1537.77 Q1565.16 1539.11 1565.16 1541.79 Q1565.16 1543.82 1566.72 1545 Q1568.28 1546.15 1572.99 1547.2 L1574.99 1547.64 Q1581.23 1548.98 1583.84 1551.43 Q1586.48 1553.85 1586.48 1558.21 Q1586.48 1563.17 1582.54 1566.07 Q1578.62 1568.97 1571.75 1568.97 Q1568.88 1568.97 1565.76 1568.39 Q1562.68 1567.85 1559.24 1566.74 L1559.24 1560.69 Q1562.48 1562.38 1565.64 1563.24 Q1568.79 1564.07 1571.87 1564.07 Q1576.01 1564.07 1578.24 1562.66 Q1580.47 1561.23 1580.47 1558.65 Q1580.47 1556.27 1578.84 1554.99 Q1577.25 1553.72 1571.81 1552.54 L1569.77 1552.07 Q1564.33 1550.92 1561.91 1548.56 Q1559.49 1546.18 1559.49 1542.04 Q1559.49 1537.01 1563.06 1534.27 Q1566.62 1531.54 1573.18 1531.54 Q1576.43 1531.54 1579.29 1532.01 Q1582.15 1532.49 1584.57 1533.45 Z" fill="#000000" fill-rule="nonzero" fill-opacity="1"></path><path clip-path="url(#clip970)" d="M1595.81 1532.4 L1601.67 1532.4 L1601.67 1568.04 L1595.81 1568.04 L1595.81 1532.4 M1595.81 1518.52 L1601.67 1518.52 L1601.67 1525.93 L1595.81 1525.93 L1595.81 1518.52 Z" fill="#000000" fill-rule="nonzero" fill-opacity="1"></path><path clip-path="url(#clip970)" d="M1627.73 1536.5 Q1623.02 1536.5 1620.28 1540.19 Q1617.55 1543.85 1617.55 1550.25 Q1617.55 1556.65 1620.25 1560.34 Q1622.99 1564 1627.73 1564 Q1632.41 1564 1635.15 1560.31 Q1637.89 1556.62 1637.89 1550.25 Q1637.89 1543.92 1635.15 1540.23 Q1632.41 1536.5 1627.73 1536.5 M1627.73 1531.54 Q1635.37 1531.54 1639.73 1536.5 Q1644.09 1541.47 1644.09 1550.25 Q1644.09 1559 1639.73 1564 Q1635.37 1568.97 1627.73 1568.97 Q1620.06 1568.97 1615.7 1564 Q1611.37 1559 1611.37 1550.25 Q1611.37 1541.47 1615.7 1536.5 Q1620.06 1531.54 1627.73 1531.54 Z" fill="#000000" fill-rule="nonzero" fill-opacity="1"></path><path clip-path="url(#clip970)" d="M1683.43 1546.53 L1683.43 1568.04 L1677.58 1568.04 L1677.58 1546.72 Q1677.58 1541.66 1675.6 1539.14 Q1673.63 1536.63 1669.68 1536.63 Q1664.94 1536.63 1662.2 1539.65 Q1659.47 1542.68 1659.47 1547.9 L1659.47 1568.04 L1653.58 1568.04 L1653.58 1532.4 L1659.47 1532.4 L1659.47 1537.93 Q1661.57 1534.72 1664.4 1533.13 Q1667.26 1531.54 1670.99 1531.54 Q1677.13 1531.54 1680.28 1535.36 Q1683.43 1539.14 1683.43 1546.53 Z" fill="#000000" fill-rule="nonzero" fill-opacity="1"></path><polyline clip-path="url(#clip970)" style="stroke:#000000; stroke-linecap:round; stroke-linejoin:round; stroke-width:4; stroke-opacity:1; fill:none" points="289.119,1423.18 289.119,123.472 "></polyline>
<polyline clip-path="url(#clip970)" style="stroke:#000000; stroke-linecap:round; stroke-linejoin:round; stroke-width:4; stroke-opacity:1; fill:none" points="289.119,1141.28 308.017,1141.28 "></polyline>
<polyline clip-path="url(#clip970)" style="stroke:#000000; stroke-linecap:round; stroke-linejoin:round; stroke-width:4; stroke-opacity:1; fill:none" points="289.119,639.933 308.017,639.933 "></polyline>
<polyline clip-path="url(#clip970)" style="stroke:#000000; stroke-linecap:round; stroke-linejoin:round; stroke-width:4; stroke-opacity:1; fill:none" points="289.119,138.588 308.017,138.588 "></polyline>
<path clip-path="url(#clip970)" d="M114.931 1161.07 L122.57 1161.07 L122.57 1134.7 L114.26 1136.37 L114.26 1132.11 L122.524 1130.45 L127.2 1130.45 L127.2 1161.07 L134.839 1161.07 L134.839 1165.01 L114.931 1165.01 L114.931 1161.07 Z" fill="#000000" fill-rule="nonzero" fill-opacity="1"></path><path clip-path="url(#clip970)" d="M154.283 1133.52 Q150.672 1133.52 148.843 1137.09 Q147.038 1140.63 147.038 1147.76 Q147.038 1154.87 148.843 1158.43 Q150.672 1161.97 154.283 1161.97 Q157.917 1161.97 159.723 1158.43 Q161.552 1154.87 161.552 1147.76 Q161.552 1140.63 159.723 1137.09 Q157.917 1133.52 154.283 1133.52 M154.283 1129.82 Q160.093 1129.82 163.149 1134.43 Q166.227 1139.01 166.227 1147.76 Q166.227 1156.49 163.149 1161.09 Q160.093 1165.68 154.283 1165.68 Q148.473 1165.68 145.394 1161.09 Q142.339 1156.49 142.339 1147.76 Q142.339 1139.01 145.394 1134.43 Q148.473 1129.82 154.283 1129.82 Z" fill="#000000" fill-rule="nonzero" fill-opacity="1"></path><path clip-path="url(#clip970)" d="M166.227 1123.92 L190.339 1123.92 L190.339 1127.12 L166.227 1127.12 L166.227 1123.92 Z" fill="#000000" fill-rule="nonzero" fill-opacity="1"></path><path clip-path="url(#clip970)" d="M199.197 1134.4 L205.404 1134.4 L205.404 1112.98 L198.652 1114.33 L198.652 1110.87 L205.366 1109.52 L209.166 1109.52 L209.166 1134.4 L215.372 1134.4 L215.372 1137.6 L199.197 1137.6 L199.197 1134.4 Z" fill="#000000" fill-rule="nonzero" fill-opacity="1"></path><path clip-path="url(#clip970)" d="M223.046 1132.82 L227.014 1132.82 L227.014 1137.6 L223.046 1137.6 L223.046 1132.82 Z" fill="#000000" fill-rule="nonzero" fill-opacity="1"></path><path clip-path="url(#clip970)" d="M243.415 1112.02 Q240.481 1112.02 238.995 1114.91 Q237.528 1117.79 237.528 1123.58 Q237.528 1129.36 238.995 1132.25 Q240.481 1135.13 243.415 1135.13 Q246.367 1135.13 247.834 1132.25 Q249.32 1129.36 249.32 1123.58 Q249.32 1117.79 247.834 1114.91 Q246.367 1112.02 243.415 1112.02 M243.415 1109.01 Q248.135 1109.01 250.618 1112.75 Q253.119 1116.47 253.119 1123.58 Q253.119 1130.67 250.618 1134.42 Q248.135 1138.14 243.415 1138.14 Q238.694 1138.14 236.192 1134.42 Q233.71 1130.67 233.71 1123.58 Q233.71 1116.47 236.192 1112.75 Q238.694 1109.01 243.415 1109.01 Z" fill="#000000" fill-rule="nonzero" fill-opacity="1"></path><path clip-path="url(#clip970)" d="M115.74 659.726 L123.379 659.726 L123.379 633.36 L115.069 635.027 L115.069 630.767 L123.333 629.101 L128.009 629.101 L128.009 659.726 L135.647 659.726 L135.647 663.661 L115.74 663.661 L115.74 659.726 Z" fill="#000000" fill-rule="nonzero" fill-opacity="1"></path><path clip-path="url(#clip970)" d="M155.092 632.179 Q151.481 632.179 149.652 635.744 Q147.846 639.286 147.846 646.415 Q147.846 653.522 149.652 657.087 Q151.481 660.628 155.092 660.628 Q158.726 660.628 160.532 657.087 Q162.36 653.522 162.36 646.415 Q162.36 639.286 160.532 635.744 Q158.726 632.179 155.092 632.179 M155.092 628.476 Q160.902 628.476 163.958 633.082 Q167.036 637.665 167.036 646.415 Q167.036 655.142 163.958 659.749 Q160.902 664.332 155.092 664.332 Q149.282 664.332 146.203 659.749 Q143.147 655.142 143.147 646.415 Q143.147 637.665 146.203 633.082 Q149.282 628.476 155.092 628.476 Z" fill="#000000" fill-rule="nonzero" fill-opacity="1"></path><path clip-path="url(#clip970)" d="M167.036 622.577 L191.148 622.577 L191.148 625.774 L167.036 625.774 L167.036 622.577 Z" fill="#000000" fill-rule="nonzero" fill-opacity="1"></path><path clip-path="url(#clip970)" d="M207.473 610.672 Q204.539 610.672 203.053 613.568 Q201.586 616.446 201.586 622.239 Q201.586 628.012 203.053 630.909 Q204.539 633.786 207.473 633.786 Q210.426 633.786 211.893 630.909 Q213.379 628.012 213.379 622.239 Q213.379 616.446 211.893 613.568 Q210.426 610.672 207.473 610.672 M207.473 607.662 Q212.194 607.662 214.676 611.405 Q217.178 615.129 217.178 622.239 Q217.178 629.329 214.676 633.072 Q212.194 636.796 207.473 636.796 Q202.752 636.796 200.251 633.072 Q197.768 629.329 197.768 622.239 Q197.768 615.129 200.251 611.405 Q202.752 607.662 207.473 607.662 Z" fill="#000000" fill-rule="nonzero" fill-opacity="1"></path><path clip-path="url(#clip970)" d="M223.854 631.473 L227.823 631.473 L227.823 636.25 L223.854 636.25 L223.854 631.473 Z" fill="#000000" fill-rule="nonzero" fill-opacity="1"></path><path clip-path="url(#clip970)" d="M236.136 608.17 L251.051 608.17 L251.051 611.368 L239.615 611.368 L239.615 618.251 Q240.443 617.969 241.27 617.837 Q242.098 617.687 242.926 617.687 Q247.627 617.687 250.373 620.264 Q253.119 622.84 253.119 627.241 Q253.119 631.774 250.298 634.294 Q247.477 636.796 242.343 636.796 Q240.575 636.796 238.731 636.495 Q236.907 636.194 234.951 635.592 L234.951 631.774 Q236.644 632.696 238.449 633.147 Q240.255 633.598 242.267 633.598 Q245.521 633.598 247.421 631.887 Q249.32 630.175 249.32 627.241 Q249.32 624.307 247.421 622.596 Q245.521 620.884 242.267 620.884 Q240.744 620.884 239.22 621.223 Q237.716 621.561 236.136 622.276 L236.136 608.17 Z" fill="#000000" fill-rule="nonzero" fill-opacity="1"></path><path clip-path="url(#clip970)" d="M145.663 158.381 L153.302 158.381 L153.302 132.015 L144.992 133.682 L144.992 129.423 L153.256 127.756 L157.932 127.756 L157.932 158.381 L165.571 158.381 L165.571 162.316 L145.663 162.316 L145.663 158.381 Z" fill="#000000" fill-rule="nonzero" fill-opacity="1"></path><path clip-path="url(#clip970)" d="M185.015 130.835 Q181.404 130.835 179.575 134.399 Q177.77 137.941 177.77 145.071 Q177.77 152.177 179.575 155.742 Q181.404 159.284 185.015 159.284 Q188.649 159.284 190.455 155.742 Q192.283 152.177 192.283 145.071 Q192.283 137.941 190.455 134.399 Q188.649 130.835 185.015 130.835 M185.015 127.131 Q190.825 127.131 193.881 131.737 Q196.959 136.321 196.959 145.071 Q196.959 153.797 193.881 158.404 Q190.825 162.987 185.015 162.987 Q179.205 162.987 176.126 158.404 Q173.071 153.797 173.071 145.071 Q173.071 136.321 176.126 131.737 Q179.205 127.131 185.015 127.131 Z" fill="#000000" fill-rule="nonzero" fill-opacity="1"></path><path clip-path="url(#clip970)" d="M206.664 109.327 Q203.73 109.327 202.244 112.223 Q200.777 115.101 200.777 120.894 Q200.777 126.668 202.244 129.564 Q203.73 132.442 206.664 132.442 Q209.617 132.442 211.084 129.564 Q212.57 126.668 212.57 120.894 Q212.57 115.101 211.084 112.223 Q209.617 109.327 206.664 109.327 M206.664 106.318 Q211.385 106.318 213.868 110.06 Q216.369 113.784 216.369 120.894 Q216.369 127.984 213.868 131.727 Q211.385 135.451 206.664 135.451 Q201.943 135.451 199.442 131.727 Q196.959 127.984 196.959 120.894 Q196.959 113.784 199.442 110.06 Q201.943 106.318 206.664 106.318 Z" fill="#000000" fill-rule="nonzero" fill-opacity="1"></path><path clip-path="url(#clip970)" d="M223.046 130.128 L227.014 130.128 L227.014 134.906 L223.046 134.906 L223.046 130.128 Z" fill="#000000" fill-rule="nonzero" fill-opacity="1"></path><path clip-path="url(#clip970)" d="M243.415 109.327 Q240.481 109.327 238.995 112.223 Q237.528 115.101 237.528 120.894 Q237.528 126.668 238.995 129.564 Q240.481 132.442 243.415 132.442 Q246.367 132.442 247.834 129.564 Q249.32 126.668 249.32 120.894 Q249.32 115.101 247.834 112.223 Q246.367 109.327 243.415 109.327 M243.415 106.318 Q248.135 106.318 250.618 110.06 Q253.119 113.784 253.119 120.894 Q253.119 127.984 250.618 131.727 Q248.135 135.451 243.415 135.451 Q238.694 135.451 236.192 131.727 Q233.71 127.984 233.71 120.894 Q233.71 113.784 236.192 110.06 Q238.694 106.318 243.415 106.318 Z" fill="#000000" fill-rule="nonzero" fill-opacity="1"></path><path clip-path="url(#clip970)" d="M21.7677 1015.64 L58.7206 1015.64 L58.7206 1007.87 Q58.7206 998.035 54.2646 993.484 Q49.8086 988.901 40.1964 988.901 Q30.6479 988.901 26.2237 993.484 Q21.7677 998.035 21.7677 1007.87 L21.7677 1015.64 M16.4842 1022.07 L16.4842 1008.86 Q16.4842 995.044 22.2451 988.582 Q27.9743 982.121 40.1964 982.121 Q52.4822 982.121 58.2432 988.614 Q64.0042 995.107 64.0042 1008.86 L64.0042 1022.07 L16.4842 1022.07 Z" fill="#000000" fill-rule="nonzero" fill-opacity="1"></path><path clip-path="url(#clip970)" d="M28.3562 972.127 L28.3562 966.271 L64.0042 966.271 L64.0042 972.127 L28.3562 972.127 M14.479 972.127 L14.479 966.271 L21.895 966.271 L21.895 972.127 L14.479 972.127 Z" fill="#000000" fill-rule="nonzero" fill-opacity="1"></path><path clip-path="url(#clip970)" d="M29.4065 931.291 L34.9447 931.291 Q33.6716 933.774 33.035 936.447 Q32.3984 939.121 32.3984 941.985 Q32.3984 946.346 33.7352 948.542 Q35.072 950.706 37.7456 950.706 Q39.7826 950.706 40.9603 949.147 Q42.1061 947.587 43.1565 942.877 L43.6021 940.871 Q44.9389 934.633 47.3897 932.023 Q49.8086 929.381 54.1691 929.381 Q59.1344 929.381 62.0308 933.328 Q64.9272 937.243 64.9272 944.118 Q64.9272 946.982 64.3543 950.102 Q63.8132 953.189 62.6992 956.627 L56.6518 956.627 Q58.3387 953.38 59.198 950.229 Q60.0256 947.078 60.0256 943.991 Q60.0256 939.853 58.6251 937.625 Q57.1929 935.397 54.6147 935.397 Q52.2276 935.397 50.9545 937.02 Q49.6813 938.612 48.5037 944.054 L48.0262 946.091 Q46.8804 951.534 44.5251 953.953 Q42.138 956.372 38.0002 956.372 Q32.9713 956.372 30.2341 952.807 Q27.4968 949.242 27.4968 942.686 Q27.4968 939.439 27.9743 936.575 Q28.4517 933.71 29.4065 931.291 Z" fill="#000000" fill-rule="nonzero" fill-opacity="1"></path><path clip-path="url(#clip970)" d="M18.2347 914.263 L28.3562 914.263 L28.3562 902.2 L32.9077 902.2 L32.9077 914.263 L52.2594 914.263 Q56.6199 914.263 57.8613 913.085 Q59.1026 911.876 59.1026 908.215 L59.1026 902.2 L64.0042 902.2 L64.0042 908.215 Q64.0042 914.995 61.4897 917.573 Q58.9434 920.151 52.2594 920.151 L32.9077 920.151 L32.9077 924.448 L28.3562 924.448 L28.3562 920.151 L18.2347 920.151 L18.2347 914.263 Z" fill="#000000" fill-rule="nonzero" fill-opacity="1"></path><path clip-path="url(#clip970)" d="M32.4621 880.684 Q32.4621 885.394 36.1542 888.132 Q39.8145 890.869 46.212 890.869 Q52.6095 890.869 56.3017 888.163 Q59.9619 885.426 59.9619 880.684 Q59.9619 876.005 56.2698 873.268 Q52.5777 870.53 46.212 870.53 Q39.8781 870.53 36.186 873.268 Q32.4621 876.005 32.4621 880.684 M27.4968 880.684 Q27.4968 873.045 32.4621 868.684 Q37.4273 864.324 46.212 864.324 Q54.9649 864.324 59.9619 868.684 Q64.9272 873.045 64.9272 880.684 Q64.9272 888.354 59.9619 892.715 Q54.9649 897.043 46.212 897.043 Q37.4273 897.043 32.4621 892.715 Q27.4968 888.354 27.4968 880.684 Z" fill="#000000" fill-rule="nonzero" fill-opacity="1"></path><path clip-path="url(#clip970)" d="M33.8307 833.959 Q33.2578 834.946 33.0032 836.124 Q32.7167 837.27 32.7167 838.67 Q32.7167 843.635 35.9632 846.309 Q39.1779 848.951 45.2253 848.951 L64.0042 848.951 L64.0042 854.839 L28.3562 854.839 L28.3562 848.951 L33.8944 848.951 Q30.6479 847.105 29.0883 844.144 Q27.4968 841.184 27.4968 836.951 Q27.4968 836.346 27.5923 835.614 Q27.656 834.882 27.8151 833.991 L33.8307 833.959 Z" fill="#000000" fill-rule="nonzero" fill-opacity="1"></path><path clip-path="url(#clip970)" d="M18.2347 822.024 L28.3562 822.024 L28.3562 809.961 L32.9077 809.961 L32.9077 822.024 L52.2594 822.024 Q56.6199 822.024 57.8613 820.846 Q59.1026 819.636 59.1026 815.976 L59.1026 809.961 L64.0042 809.961 L64.0042 815.976 Q64.0042 822.756 61.4897 825.334 Q58.9434 827.912 52.2594 827.912 L32.9077 827.912 L32.9077 832.209 L28.3562 832.209 L28.3562 827.912 L18.2347 827.912 L18.2347 822.024 Z" fill="#000000" fill-rule="nonzero" fill-opacity="1"></path><path clip-path="url(#clip970)" d="M28.3562 802.258 L28.3562 796.402 L64.0042 796.402 L64.0042 802.258 L28.3562 802.258 M14.479 802.258 L14.479 796.402 L21.895 796.402 L21.895 802.258 L14.479 802.258 Z" fill="#000000" fill-rule="nonzero" fill-opacity="1"></path><path clip-path="url(#clip970)" d="M32.4621 770.334 Q32.4621 775.045 36.1542 777.782 Q39.8145 780.519 46.212 780.519 Q52.6095 780.519 56.3017 777.814 Q59.9619 775.077 59.9619 770.334 Q59.9619 765.655 56.2698 762.918 Q52.5777 760.181 46.212 760.181 Q39.8781 760.181 36.186 762.918 Q32.4621 765.655 32.4621 770.334 M27.4968 770.334 Q27.4968 762.695 32.4621 758.335 Q37.4273 753.974 46.212 753.974 Q54.9649 753.974 59.9619 758.335 Q64.9272 762.695 64.9272 770.334 Q64.9272 778.005 59.9619 782.365 Q54.9649 786.694 46.212 786.694 Q37.4273 786.694 32.4621 782.365 Q27.4968 778.005 27.4968 770.334 Z" fill="#000000" fill-rule="nonzero" fill-opacity="1"></path><path clip-path="url(#clip970)" d="M42.4881 714.634 L64.0042 714.634 L64.0042 720.491 L42.679 720.491 Q37.6183 720.491 35.1038 722.464 Q32.5894 724.437 32.5894 728.384 Q32.5894 733.127 35.6131 735.864 Q38.6368 738.601 43.8567 738.601 L64.0042 738.601 L64.0042 744.489 L28.3562 744.489 L28.3562 738.601 L33.8944 738.601 Q30.6797 736.5 29.0883 733.668 Q27.4968 730.803 27.4968 727.079 Q27.4968 720.936 31.3163 717.785 Q35.1038 714.634 42.4881 714.634 Z" fill="#000000" fill-rule="nonzero" fill-opacity="1"></path><path clip-path="url(#clip970)" d="M41.7242 659.443 Q42.4244 657.375 44.7161 655.433 Q47.0077 653.46 51.0181 651.486 L64.0042 644.962 L64.0042 651.868 L51.8138 657.948 Q47.0395 660.303 45.48 662.531 Q43.9204 664.727 43.9204 668.546 L43.9204 675.549 L64.0042 675.549 L64.0042 681.978 L16.4842 681.978 L16.4842 667.464 Q16.4842 659.316 19.8898 655.306 Q23.2955 651.295 30.1704 651.295 Q34.6582 651.295 37.6183 653.396 Q40.5784 655.465 41.7242 659.443 M21.7677 675.549 L38.6368 675.549 L38.6368 667.464 Q38.6368 662.817 36.5043 660.462 Q34.34 658.075 30.1704 658.075 Q26.0009 658.075 23.9002 660.462 Q21.7677 662.817 21.7677 667.464 L21.7677 675.549 Z" fill="#000000" fill-rule="nonzero" fill-opacity="1"></path><path clip-path="url(#clip970)" d="M46.0847 622.172 Q46.0847 629.27 47.7079 632.007 Q49.3312 634.745 53.2461 634.745 Q56.3653 634.745 58.2114 632.708 Q60.0256 630.639 60.0256 627.106 Q60.0256 622.236 56.5881 619.308 Q53.1188 616.348 47.3897 616.348 L46.0847 616.348 L46.0847 622.172 M43.6657 610.491 L64.0042 610.491 L64.0042 616.348 L58.5933 616.348 Q61.8398 618.353 63.3994 621.345 Q64.9272 624.337 64.9272 628.665 Q64.9272 634.14 61.8716 637.386 Q58.7843 640.601 53.6281 640.601 Q47.6125 640.601 44.5569 636.591 Q41.5014 632.548 41.5014 624.559 L41.5014 616.348 L40.9285 616.348 Q36.8862 616.348 34.6901 619.021 Q32.4621 621.663 32.4621 626.469 Q32.4621 629.525 33.1941 632.421 Q33.9262 635.317 35.3903 637.991 L29.9795 637.991 Q28.7381 634.776 28.1334 631.753 Q27.4968 628.729 27.4968 625.864 Q27.4968 618.13 31.5072 614.311 Q35.5176 610.491 43.6657 610.491 Z" fill="#000000" fill-rule="nonzero" fill-opacity="1"></path><path clip-path="url(#clip970)" d="M18.2347 592.635 L28.3562 592.635 L28.3562 580.572 L32.9077 580.572 L32.9077 592.635 L52.2594 592.635 Q56.6199 592.635 57.8613 591.458 Q59.1026 590.248 59.1026 586.588 L59.1026 580.572 L64.0042 580.572 L64.0042 586.588 Q64.0042 593.367 61.4897 595.946 Q58.9434 598.524 52.2594 598.524 L32.9077 598.524 L32.9077 602.821 L28.3562 602.821 L28.3562 598.524 L18.2347 598.524 L18.2347 592.635 Z" fill="#000000" fill-rule="nonzero" fill-opacity="1"></path><path clip-path="url(#clip970)" d="M28.3562 572.87 L28.3562 567.013 L64.0042 567.013 L64.0042 572.87 L28.3562 572.87 M14.479 572.87 L14.479 567.013 L21.895 567.013 L21.895 572.87 L14.479 572.87 Z" fill="#000000" fill-rule="nonzero" fill-opacity="1"></path><path clip-path="url(#clip970)" d="M32.4621 540.946 Q32.4621 545.656 36.1542 548.394 Q39.8145 551.131 46.212 551.131 Q52.6095 551.131 56.3017 548.426 Q59.9619 545.688 59.9619 540.946 Q59.9619 536.267 56.2698 533.53 Q52.5777 530.793 46.212 530.793 Q39.8781 530.793 36.186 533.53 Q32.4621 536.267 32.4621 540.946 M27.4968 540.946 Q27.4968 533.307 32.4621 528.947 Q37.4273 524.586 46.212 524.586 Q54.9649 524.586 59.9619 528.947 Q64.9272 533.307 64.9272 540.946 Q64.9272 548.617 59.9619 552.977 Q54.9649 557.306 46.212 557.306 Q37.4273 557.306 32.4621 552.977 Q27.4968 548.617 27.4968 540.946 Z" fill="#000000" fill-rule="nonzero" fill-opacity="1"></path><path clip-path="url(#clip970)" d="M807.587 18.8205 L807.587 65.8515 L817.471 65.8515 Q829.988 65.8515 835.781 60.1802 Q841.614 54.509 841.614 42.2752 Q841.614 30.1225 835.781 24.4918 Q829.988 18.8205 817.471 18.8205 L807.587 18.8205 M799.404 12.096 L816.215 12.096 Q833.796 12.096 842.019 19.4281 Q850.243 26.7198 850.243 42.2752 Q850.243 57.9117 841.979 65.2439 Q833.715 72.576 816.215 72.576 L799.404 72.576 L799.404 12.096 Z" fill="#000000" fill-rule="nonzero" fill-opacity="1"></path><path clip-path="url(#clip970)" d="M862.963 27.2059 L870.416 27.2059 L870.416 72.576 L862.963 72.576 L862.963 27.2059 M862.963 9.54393 L870.416 9.54393 L870.416 18.9825 L862.963 18.9825 L862.963 9.54393 Z" fill="#000000" fill-rule="nonzero" fill-opacity="1"></path><path clip-path="url(#clip970)" d="M914.936 28.5427 L914.936 35.5912 Q911.776 33.9709 908.373 33.1607 Q904.971 32.3505 901.325 32.3505 Q895.775 32.3505 892.98 34.0519 Q890.225 35.7533 890.225 39.156 Q890.225 41.7486 892.21 43.2475 Q894.195 44.7058 900.19 46.0426 L902.743 46.6097 Q910.682 48.3111 914.004 51.4303 Q917.366 54.509 917.366 60.0587 Q917.366 66.3781 912.343 70.0644 Q907.361 73.7508 898.611 73.7508 Q894.965 73.7508 890.995 73.0216 Q887.066 72.3329 882.691 70.9151 L882.691 63.2184 Q886.822 65.3654 890.833 66.4591 Q894.843 67.5124 898.773 67.5124 Q904.039 67.5124 906.874 65.73 Q909.71 63.9071 909.71 60.6258 Q909.71 57.5877 907.644 55.9673 Q905.619 54.3469 898.692 52.8481 L896.099 52.2405 Q889.172 50.7821 886.093 47.7845 Q883.015 44.7463 883.015 39.4801 Q883.015 33.0797 887.552 29.5959 Q892.089 26.1121 900.434 26.1121 Q904.565 26.1121 908.211 26.7198 Q911.857 27.3274 914.936 28.5427 Z" fill="#000000" fill-rule="nonzero" fill-opacity="1"></path><path clip-path="url(#clip970)" d="M936.608 14.324 L936.608 27.2059 L951.961 27.2059 L951.961 32.9987 L936.608 32.9987 L936.608 57.6282 Q936.608 63.1779 938.107 64.7578 Q939.646 66.3376 944.305 66.3376 L951.961 66.3376 L951.961 72.576 L944.305 72.576 Q935.676 72.576 932.395 69.3758 Q929.114 66.1351 929.114 57.6282 L929.114 32.9987 L923.645 32.9987 L923.645 27.2059 L929.114 27.2059 L929.114 14.324 L936.608 14.324 Z" fill="#000000" fill-rule="nonzero" fill-opacity="1"></path><path clip-path="url(#clip970)" d="M979.345 32.4315 Q973.35 32.4315 969.866 37.1306 Q966.382 41.7891 966.382 49.9314 Q966.382 58.0738 969.826 62.7728 Q973.309 67.4314 979.345 67.4314 Q985.3 67.4314 988.784 62.7323 Q992.268 58.0333 992.268 49.9314 Q992.268 41.8701 988.784 37.1711 Q985.3 32.4315 979.345 32.4315 M979.345 26.1121 Q989.067 26.1121 994.617 32.4315 Q1000.17 38.7509 1000.17 49.9314 Q1000.17 61.0714 994.617 67.4314 Q989.067 73.7508 979.345 73.7508 Q969.582 73.7508 964.033 67.4314 Q958.523 61.0714 958.523 49.9314 Q958.523 38.7509 964.033 32.4315 Q969.582 26.1121 979.345 26.1121 Z" fill="#000000" fill-rule="nonzero" fill-opacity="1"></path><path clip-path="url(#clip970)" d="M1038.81 34.1734 Q1037.56 33.4443 1036.06 33.1202 Q1034.6 32.7556 1032.82 32.7556 Q1026.5 32.7556 1023.09 36.8875 Q1019.73 40.9789 1019.73 48.6757 L1019.73 72.576 L1012.24 72.576 L1012.24 27.2059 L1019.73 27.2059 L1019.73 34.2544 Q1022.08 30.1225 1025.85 28.1376 Q1029.62 26.1121 1035 26.1121 Q1035.77 26.1121 1036.71 26.2337 Q1037.64 26.3147 1038.77 26.5172 L1038.81 34.1734 Z" fill="#000000" fill-rule="nonzero" fill-opacity="1"></path><path clip-path="url(#clip970)" d="M1054 14.324 L1054 27.2059 L1069.36 27.2059 L1069.36 32.9987 L1054 32.9987 L1054 57.6282 Q1054 63.1779 1055.5 64.7578 Q1057.04 66.3376 1061.7 66.3376 L1069.36 66.3376 L1069.36 72.576 L1061.7 72.576 Q1053.07 72.576 1049.79 69.3758 Q1046.51 66.1351 1046.51 57.6282 L1046.51 32.9987 L1041.04 32.9987 L1041.04 27.2059 L1046.51 27.2059 L1046.51 14.324 L1054 14.324 Z" fill="#000000" fill-rule="nonzero" fill-opacity="1"></path><path clip-path="url(#clip970)" d="M1079.16 27.2059 L1086.61 27.2059 L1086.61 72.576 L1079.16 72.576 L1079.16 27.2059 M1079.16 9.54393 L1086.61 9.54393 L1086.61 18.9825 L1079.16 18.9825 L1079.16 9.54393 Z" fill="#000000" fill-rule="nonzero" fill-opacity="1"></path><path clip-path="url(#clip970)" d="M1119.79 32.4315 Q1113.79 32.4315 1110.31 37.1306 Q1106.83 41.7891 1106.83 49.9314 Q1106.83 58.0738 1110.27 62.7728 Q1113.75 67.4314 1119.79 67.4314 Q1125.74 67.4314 1129.23 62.7323 Q1132.71 58.0333 1132.71 49.9314 Q1132.71 41.8701 1129.23 37.1711 Q1125.74 32.4315 1119.79 32.4315 M1119.79 26.1121 Q1129.51 26.1121 1135.06 32.4315 Q1140.61 38.7509 1140.61 49.9314 Q1140.61 61.0714 1135.06 67.4314 Q1129.51 73.7508 1119.79 73.7508 Q1110.03 73.7508 1104.48 67.4314 Q1098.97 61.0714 1098.97 49.9314 Q1098.97 38.7509 1104.48 32.4315 Q1110.03 26.1121 1119.79 26.1121 Z" fill="#000000" fill-rule="nonzero" fill-opacity="1"></path><path clip-path="url(#clip970)" d="M1190.68 45.1919 L1190.68 72.576 L1183.23 72.576 L1183.23 45.4349 Q1183.23 38.994 1180.72 35.7938 Q1178.2 32.5936 1173.18 32.5936 Q1167.15 32.5936 1163.66 36.4419 Q1160.18 40.2903 1160.18 46.9338 L1160.18 72.576 L1152.68 72.576 L1152.68 27.2059 L1160.18 27.2059 L1160.18 34.2544 Q1162.85 30.163 1166.46 28.1376 Q1170.1 26.1121 1174.84 26.1121 Q1182.66 26.1121 1186.67 30.9732 Q1190.68 35.7938 1190.68 45.1919 Z" fill="#000000" fill-rule="nonzero" fill-opacity="1"></path><path clip-path="url(#clip970)" d="M1234.47 28.5427 L1234.47 35.5912 Q1231.31 33.9709 1227.91 33.1607 Q1224.51 32.3505 1220.86 32.3505 Q1215.31 32.3505 1212.52 34.0519 Q1209.76 35.7533 1209.76 39.156 Q1209.76 41.7486 1211.75 43.2475 Q1213.73 44.7058 1219.73 46.0426 L1222.28 46.6097 Q1230.22 48.3111 1233.54 51.4303 Q1236.9 54.509 1236.9 60.0587 Q1236.9 66.3781 1231.88 70.0644 Q1226.9 73.7508 1218.15 73.7508 Q1214.5 73.7508 1210.53 73.0216 Q1206.6 72.3329 1202.23 70.9151 L1202.23 63.2184 Q1206.36 65.3654 1210.37 66.4591 Q1214.38 67.5124 1218.31 67.5124 Q1223.57 67.5124 1226.41 65.73 Q1229.25 63.9071 1229.25 60.6258 Q1229.25 57.5877 1227.18 55.9673 Q1225.15 54.3469 1218.23 52.8481 L1215.63 52.2405 Q1208.71 50.7821 1205.63 47.7845 Q1202.55 44.7463 1202.55 39.4801 Q1202.55 33.0797 1207.09 29.5959 Q1211.62 26.1121 1219.97 26.1121 Q1224.1 26.1121 1227.75 26.7198 Q1231.39 27.3274 1234.47 28.5427 Z" fill="#000000" fill-rule="nonzero" fill-opacity="1"></path><path clip-path="url(#clip970)" d="M1293.05 9.62495 Q1287.62 18.942 1284.99 28.0566 Q1282.35 37.1711 1282.35 46.5287 Q1282.35 55.8863 1284.99 65.0818 Q1287.66 74.2369 1293.05 83.5134 L1286.57 83.5134 Q1280.49 73.9938 1277.45 64.7983 Q1274.45 55.6027 1274.45 46.5287 Q1274.45 37.4952 1277.45 28.3401 Q1280.45 19.1851 1286.57 9.62495 L1293.05 9.62495 Z" fill="#000000" fill-rule="nonzero" fill-opacity="1"></path><path clip-path="url(#clip970)" d="M1337.36 34.0924 L1337.36 9.54393 L1344.82 9.54393 L1344.82 72.576 L1337.36 72.576 L1337.36 65.7705 Q1335.01 69.8214 1331.41 71.8063 Q1327.84 73.7508 1322.82 73.7508 Q1314.6 73.7508 1309.41 67.1883 Q1304.27 60.6258 1304.27 49.9314 Q1304.27 39.2371 1309.41 32.6746 Q1314.6 26.1121 1322.82 26.1121 Q1327.84 26.1121 1331.41 28.0971 Q1335.01 30.0415 1337.36 34.0924 M1311.96 49.9314 Q1311.96 58.1548 1315.33 62.8538 Q1318.73 67.5124 1324.64 67.5124 Q1330.56 67.5124 1333.96 62.8538 Q1337.36 58.1548 1337.36 49.9314 Q1337.36 41.7081 1333.96 37.0496 Q1330.56 32.3505 1324.64 32.3505 Q1318.73 32.3505 1315.33 37.0496 Q1311.96 41.7081 1311.96 49.9314 Z" fill="#000000" fill-rule="nonzero" fill-opacity="1"></path><path clip-path="url(#clip970)" d="M1387.51 34.9026 L1439.45 34.9026 L1439.45 41.7081 L1387.51 41.7081 L1387.51 34.9026 M1387.51 51.4303 L1439.45 51.4303 L1439.45 58.3168 L1387.51 58.3168 L1387.51 51.4303 Z" fill="#000000" fill-rule="nonzero" fill-opacity="1"></path><path clip-path="url(#clip970)" d="M1481.41 12.096 L1520.3 12.096 L1520.3 15.5798 L1498.35 72.576 L1489.8 72.576 L1510.46 18.9825 L1481.41 18.9825 L1481.41 12.096 Z" fill="#000000" fill-rule="nonzero" fill-opacity="1"></path><path clip-path="url(#clip970)" d="M1537.11 62.2867 L1545.66 62.2867 L1545.66 69.2543 L1539.02 82.2172 L1533.79 82.2172 L1537.11 69.2543 L1537.11 62.2867 Z" fill="#000000" fill-rule="nonzero" fill-opacity="1"></path><path clip-path="url(#clip970)" d="M1588.28 12.096 L1599.3 12.096 L1626.11 62.6918 L1626.11 12.096 L1634.05 12.096 L1634.05 72.576 L1623.03 72.576 L1596.22 21.9802 L1596.22 72.576 L1588.28 72.576 L1588.28 12.096 Z" fill="#000000" fill-rule="nonzero" fill-opacity="1"></path><path clip-path="url(#clip970)" d="M1677.36 34.9026 L1729.29 34.9026 L1729.29 41.7081 L1677.36 41.7081 L1677.36 34.9026 M1677.36 51.4303 L1729.29 51.4303 L1729.29 58.3168 L1677.36 58.3168 L1677.36 51.4303 Z" fill="#000000" fill-rule="nonzero" fill-opacity="1"></path><path clip-path="url(#clip970)" d="M1771.26 12.096 L1810.15 12.096 L1810.15 15.5798 L1788.19 72.576 L1779.64 72.576 L1800.3 18.9825 L1771.26 18.9825 L1771.26 12.096 Z" fill="#000000" fill-rule="nonzero" fill-opacity="1"></path><path clip-path="url(#clip970)" d="M1823.88 9.62495 L1830.36 9.62495 Q1836.44 19.1851 1839.43 28.3401 Q1842.47 37.4952 1842.47 46.5287 Q1842.47 55.6027 1839.43 64.7983 Q1836.44 73.9938 1830.36 83.5134 L1823.88 83.5134 Q1829.27 74.2369 1831.9 65.0818 Q1834.57 55.8863 1834.57 46.5287 Q1834.57 37.1711 1831.9 28.0566 Q1829.27 18.942 1823.88 9.62495 Z" fill="#000000" fill-rule="nonzero" fill-opacity="1"></path><polyline clip-path="url(#clip972)" style="stroke:#009af9; stroke-linecap:round; stroke-linejoin:round; stroke-width:4; stroke-opacity:1; fill:none" stroke-dasharray="2, 4" points="347.524,160.256 367.189,219.445 386.854,266.12 406.519,305.173 426.184,367.667 445.849,370.37 465.514,384.542 485.179,444.92 504.844,500.773 524.508,459.686 544.173,564.65 563.838,495.729 583.503,631.699 603.168,684.912 622.833,526.581 642.498,625.696 662.163,733.462 681.828,611.983 701.493,636.502 721.158,717.46 740.823,645.828 760.487,606.349 780.152,672.13 799.817,773.438 819.482,674.785 839.147,761.403 858.812,671.085 878.477,713.372 898.142,675.518 917.807,697.625 937.472,772.179 957.137,883.101 976.802,738.829 996.466,703.138 1016.13,764.176 1035.8,824.842 1055.46,872.022 1075.13,837.159 1094.79,805.789 1114.46,736.047 1134.12,883.271 1153.79,740.255 1173.45,826.308 1193.12,866.956 1212.78,819.639 1232.45,800.844 1252.11,794.241 1271.78,798.832 1291.44,901.25 1311.11,857.275 1330.77,870.529 1350.44,866.349 1370.1,883.38 1389.76,965.459 1409.43,816.665 1429.09,825.837 1448.76,897.492 1468.42,879.931 1488.09,942.048 1507.75,862.289 1527.42,964.776 1547.08,889.36 1566.75,920.962 1586.41,947.1 1606.08,1001.44 1625.74,960.908 1645.41,937.561 1665.07,897.48 1684.74,924.132 1704.4,1016.09 1724.07,957.705 1743.73,938.244 1763.4,1026.14 1783.06,861.692 1802.73,928.566 1822.39,1015.74 1842.06,897.081 1861.72,1035.2 1881.39,984.84 1901.05,1011.92 1920.72,923.342 1940.38,986.977 1960.05,1015.84 1979.71,981.692 1999.38,958.939 2019.04,965.809 2038.71,1009.9 2058.37,1031.31 2078.04,956.611 2097.7,973.996 2117.37,971.312 2137.03,967.214 2156.7,1065.89 2176.36,892.29 2196.03,1046.35 2215.69,1054.17 2235.36,1025.8 2255.02,1008.31 2274.69,990.185 2294.35,1023.33 "></polyline>
<polyline clip-path="url(#clip972)" style="stroke:#e26f46; stroke-linecap:round; stroke-linejoin:round; stroke-width:4; stroke-opacity:1; fill:none" stroke-dasharray="16, 8, 2, 8" points="347.524,193.895 367.189,225.232 386.854,425.656 406.519,400.449 426.184,377.823 445.849,490.988 465.514,493.86 485.179,558.365 504.844,631.593 524.508,548.335 544.173,598.121 563.838,621.755 583.503,628.671 603.168,684.343 622.833,701.854 642.498,697.495 662.163,769.312 681.828,673.41 701.493,826.237 721.158,809.411 740.823,661.673 760.487,745.345 780.152,764.185 799.817,799.674 819.482,819.049 839.147,752.098 858.812,800.717 878.477,771.41 898.142,754.67 917.807,744.874 937.472,776.505 957.137,801.594 976.802,872.205 996.466,921.73 1016.13,900.065 1035.8,918.619 1055.46,853.272 1075.13,890.212 1094.79,869.364 1114.46,939.152 1134.12,965.026 1153.79,858.257 1173.45,923.78 1193.12,786.364 1212.78,963.23 1232.45,897.181 1252.11,990.052 1271.78,971.871 1291.44,960.577 1311.11,969.629 1330.77,969.477 1350.44,1076 1370.1,985.716 1389.76,964.912 1409.43,1007.15 1429.09,820.092 1448.76,1065.86 1468.42,1017.6 1488.09,924.251 1507.75,987.073 1527.42,1050.07 1547.08,1006.09 1566.75,982.777 1586.41,1000.21 1606.08,983.295 1625.74,1091.42 1645.41,922.773 1665.07,978.88 1684.74,958.383 1704.4,1027.45 1724.07,1083.82 1743.73,1035.06 1763.4,1115.67 1783.06,1029.82 1802.73,1078.41 1822.39,1001.33 1842.06,1043.16 1861.72,1011 1881.39,1185.21 1901.05,1007.07 1920.72,1163.11 1940.38,1049.41 1960.05,1107.28 1979.71,1078.18 1999.38,992.311 2019.04,1027.59 2038.71,1061.82 2058.37,1057.9 2078.04,1040.53 2097.7,1036.83 2117.37,1041.05 2137.03,1143.94 2156.7,1048.22 2176.36,1066.66 2196.03,1057.08 2215.69,1141.5 2235.36,1101.11 2255.02,1108.75 2274.69,1176.98 2294.35,1085.6 "></polyline>
<polyline clip-path="url(#clip972)" style="stroke:#3da44d; stroke-linecap:round; stroke-linejoin:round; stroke-width:4; stroke-opacity:1; fill:none" points="347.524,267.651 367.189,375.623 386.854,509.378 406.519,462.1 426.184,539.088 445.849,592.238 465.514,563.654 485.179,625.718 504.844,628.76 524.508,639.691 544.173,743.951 563.838,659.715 583.503,722.902 603.168,720.465 622.833,699.016 642.498,816.811 662.163,822.915 681.828,717.985 701.493,867.534 721.158,845.22 740.823,734.834 760.487,863.05 780.152,824.31 799.817,732.706 819.482,881.314 839.147,841.705 858.812,919.087 878.477,879.449 898.142,916.035 917.807,846.452 937.472,903.849 957.137,838.931 976.802,890.007 996.466,898.688 1016.13,885.84 1035.8,872.983 1055.46,1080.79 1075.13,904.303 1094.79,890.868 1114.46,880.615 1134.12,951.542 1153.79,931.294 1173.45,977.207 1193.12,968.322 1212.78,974.091 1232.45,970.764 1252.11,983.374 1271.78,976.048 1291.44,993.125 1311.11,970.753 1330.77,985.105 1350.44,883.53 1370.1,984.548 1389.76,1076.07 1409.43,1062.6 1429.09,1055.29 1448.76,1077.71 1468.42,1040.81 1488.09,1150.79 1507.75,1105.56 1527.42,1060.68 1547.08,997.781 1566.75,960.93 1586.41,991.199 1606.08,1132.22 1625.74,977.621 1645.41,1072.26 1665.07,980.294 1684.74,1042.7 1704.4,1090.78 1724.07,1093.7 1743.73,1107.85 1763.4,1182.34 1783.06,1068.5 1802.73,1093.27 1822.39,1134.24 1842.06,1127.38 1861.72,1020.06 1881.39,1181.2 1901.05,1094.17 1920.72,1196.9 1940.38,1106.06 1960.05,939.346 1979.71,1067.88 1999.38,1093.77 2019.04,1128.65 2038.71,1149.35 2058.37,1048.57 2078.04,1080.14 2097.7,1121.94 2117.37,1033.1 2137.03,1091.1 2156.7,1130.01 2176.36,1099.88 2196.03,1128.99 2215.69,1125.13 2235.36,1160.14 2255.02,1110.49 2274.69,1131.08 2294.35,1133.92 "></polyline>
<polyline clip-path="url(#clip972)" style="stroke:#c271d2; stroke-linecap:round; stroke-linejoin:round; stroke-width:4; stroke-opacity:1; fill:none" points="347.524,290.84 367.189,423.036 386.854,507.748 406.519,545.124 426.184,624.49 445.849,608.543 465.514,706.563 485.179,611.882 504.844,715.852 524.508,678.132 544.173,756.91 563.838,668.182 583.503,721.266 603.168,803.606 622.833,745.417 642.498,848.495 662.163,777.117 681.828,954.994 701.493,857.737 721.158,777.8 740.823,870.499 760.487,929.542 780.152,864.413 799.817,899.042 819.482,818.732 839.147,876.705 858.812,908.444 878.477,863.585 898.142,947.408 917.807,853.934 937.472,951.82 957.137,850.199 976.802,895.878 996.466,1033.38 1016.13,1043.51 1035.8,1047.7 1055.46,1052.67 1075.13,1134.39 1094.79,1001.06 1114.46,1030.63 1134.12,1020.43 1153.79,1040.66 1173.45,981.944 1193.12,1089.83 1212.78,1081.33 1232.45,1028.1 1252.11,1034.01 1271.78,1039.64 1291.44,1036.07 1311.11,1016.87 1330.77,1022.58 1350.44,1024.17 1370.1,1049.57 1389.76,1130.96 1409.43,1044.36 1429.09,1117.85 1448.76,1071.23 1468.42,1081.45 1488.09,1063.08 1507.75,977.155 1527.42,1061.6 1547.08,1152.71 1566.75,1098.65 1586.41,1135.46 1606.08,1156 1625.74,1047.64 1645.41,1153.29 1665.07,1258.98 1684.74,1088.07 1704.4,1088.88 1724.07,1110.22 1743.73,1025.57 1763.4,1248.09 1783.06,1034.37 1802.73,1110.61 1822.39,1163.45 1842.06,1094.81 1861.72,1144.82 1881.39,1229.86 1901.05,1197.22 1920.72,1050.96 1940.38,1196.74 1960.05,1077 1979.71,1113.62 1999.38,1195.55 2019.04,1149.08 2038.71,1110.9 2058.37,1110.49 2078.04,1128.7 2097.7,1166.55 2117.37,1187.55 2137.03,1153.83 2156.7,1186.62 2176.36,1160.75 2196.03,1161.1 2215.69,1254.75 2235.36,1173.92 2255.02,1157.92 2274.69,1156.28 2294.35,1125.86 "></polyline>
<polyline clip-path="url(#clip972)" style="stroke:#ac8d18; stroke-linecap:round; stroke-linejoin:round; stroke-width:4; stroke-opacity:1; fill:none" points="347.524,253.174 367.189,445.339 386.854,520.093 406.519,545.896 426.184,617.686 445.849,652.235 465.514,719.599 485.179,707.611 504.844,863.266 524.508,807.475 544.173,708.846 563.838,822.855 583.503,738.617 603.168,823.039 622.833,804.894 642.498,899.157 662.163,897.658 681.828,847.836 701.493,819.971 721.158,854.534 740.823,846.865 760.487,935.584 780.152,959.126 799.817,966.23 819.482,908.133 839.147,863.693 858.812,991.894 878.477,1011.81 898.142,980.54 917.807,1062.01 937.472,982.418 957.137,875.477 976.802,1120.88 996.466,999.766 1016.13,1040.55 1035.8,1097.33 1055.46,1030.73 1075.13,1078.81 1094.79,1045.66 1114.46,1118.02 1134.12,1116.45 1153.79,1009.59 1173.45,1145.88 1193.12,1127.87 1212.78,1116.22 1232.45,1059.24 1252.11,1046.13 1271.78,1193.15 1291.44,1147.53 1311.11,1144.99 1330.77,1082.9 1350.44,1078.76 1370.1,1180.63 1389.76,1140.5 1409.43,1080.92 1429.09,1063.68 1448.76,1116.3 1468.42,1165.52 1488.09,1119.94 1507.75,1050.59 1527.42,1122.76 1547.08,1133.76 1566.75,1048.39 1586.41,1163.99 1606.08,1248.23 1625.74,1265.43 1645.41,1197.17 1665.07,1130.46 1684.74,1139.2 1704.4,1098.77 1724.07,1185.38 1743.73,1231.8 1763.4,1097.63 1783.06,1203.11 1802.73,1151.05 1822.39,1090.3 1842.06,1172.71 1861.72,1154.67 1881.39,1222.44 1901.05,1210.81 1920.72,1299.02 1940.38,1222.04 1960.05,1251.66 1979.71,1243.28 1999.38,1249.41 2019.04,1266.51 2038.71,1236.64 2058.37,1270.49 2078.04,1113.84 2097.7,1291.27 2117.37,1231.38 2137.03,1246.69 2156.7,1234.75 2176.36,1206.17 2196.03,1264.56 2215.69,1303.78 2235.36,1235.93 2255.02,1192.19 2274.69,1170.59 2294.35,1165.43 "></polyline>
<polyline clip-path="url(#clip972)" style="stroke:#00a9ad; stroke-linecap:round; stroke-linejoin:round; stroke-width:4; stroke-opacity:1; fill:none" points="347.524,273.567 367.189,523.867 386.854,550.288 406.519,556.907 426.184,570.051 445.849,622.74 465.514,720.271 485.179,782.63 504.844,787.64 524.508,708.257 544.173,702.859 563.838,850.358 583.503,879.785 603.168,855.972 622.833,849.211 642.498,821.128 662.163,921.803 681.828,976.955 701.493,960.266 721.158,983.808 740.823,1043.09 760.487,848.648 780.152,922.551 799.817,950.883 819.482,991.687 839.147,1030.48 858.812,959.91 878.477,1053.83 898.142,1012.23 917.807,986.944 937.472,1047.15 957.137,1049.93 976.802,1062.72 996.466,1063.47 1016.13,1134.33 1035.8,1046.28 1055.46,1175.86 1075.13,1032.95 1094.79,1103.9 1114.46,1063.89 1134.12,1086.15 1153.79,1122.78 1173.45,1098.99 1193.12,1133.7 1212.78,1113.84 1232.45,1191.82 1252.11,1141.15 1271.78,1116.46 1291.44,1172.2 1311.11,1171.54 1330.77,1100.51 1350.44,1186.38 1370.1,1182.07 1389.76,1113.63 1409.43,1120.47 1429.09,1178.4 1448.76,1246.06 1468.42,1212.2 1488.09,1143.53 1507.75,1193.69 1527.42,1142.48 1547.08,1253.12 1566.75,1152.8 1586.41,1187.95 1606.08,1177.95 1625.74,1202.97 1645.41,1194.5 1665.07,1190.98 1684.74,1211.46 1704.4,1314.62 1724.07,1220.15 1743.73,1147.61 1763.4,1324.45 1783.06,1169.26 1802.73,1225.87 1822.39,1249.52 1842.06,1196.67 1861.72,1154.8 1881.39,1198.29 1901.05,1286.34 1920.72,1249.34 1940.38,1246.26 1960.05,1266.76 1979.71,1302.22 1999.38,1205.35 2019.04,1284.67 2038.71,1222 2058.37,1281.34 2078.04,1170.08 2097.7,1195.77 2117.37,1343.92 2137.03,1214.87 2156.7,1322.27 2176.36,1325.45 2196.03,1191.2 2215.69,1274.2 2235.36,1333.7 2255.02,1257.23 2274.69,1255.38 2294.35,1386.4 "></polyline>
<path clip-path="url(#clip970)" d="M1927.14 529.676 L2283.97 529.676 L2283.97 166.796 L1927.14 166.796  Z" fill="#ffffff" fill-rule="evenodd" fill-opacity="1"></path>
<polyline clip-path="url(#clip970)" style="stroke:#000000; stroke-linecap:round; stroke-linejoin:round; stroke-width:4; stroke-opacity:1; fill:none" points="1927.14,529.676 2283.97,529.676 2283.97,166.796 1927.14,166.796 1927.14,529.676 "></polyline>
<polyline clip-path="url(#clip970)" style="stroke:#009af9; stroke-linecap:round; stroke-linejoin:round; stroke-width:4; stroke-opacity:1; fill:none" stroke-dasharray="2, 4" points="1950.07,218.636 2087.65,218.636 "></polyline>
<path clip-path="url(#clip970)" d="M2136.13 230.985 L2136.13 221.703 L2128.49 221.703 L2128.49 217.86 L2140.76 217.86 L2140.76 232.698 Q2138.05 234.619 2134.79 235.615 Q2131.53 236.587 2127.82 236.587 Q2119.72 236.587 2115.14 231.865 Q2110.58 227.119 2110.58 218.67 Q2110.58 210.198 2115.14 205.476 Q2119.72 200.731 2127.82 200.731 Q2131.2 200.731 2134.23 201.564 Q2137.29 202.397 2139.86 204.018 L2139.86 208.995 Q2137.27 206.796 2134.35 205.684 Q2131.43 204.573 2128.22 204.573 Q2121.87 204.573 2118.68 208.115 Q2115.51 211.657 2115.51 218.67 Q2115.51 225.661 2118.68 229.203 Q2121.87 232.744 2128.22 232.744 Q2130.69 232.744 2132.64 232.328 Q2134.58 231.888 2136.13 230.985 Z" fill="#000000" fill-rule="nonzero" fill-opacity="1"></path><path clip-path="url(#clip970)" d="M2142.82 201.356 L2172.06 201.356 L2172.06 205.291 L2159.79 205.291 L2159.79 235.916 L2155.09 235.916 L2155.09 205.291 L2142.82 205.291 L2142.82 201.356 Z" fill="#000000" fill-rule="nonzero" fill-opacity="1"></path><path clip-path="url(#clip970)" d="M2170.95 201.356 L2200.18 201.356 L2200.18 205.291 L2187.91 205.291 L2187.91 235.916 L2183.22 235.916 L2183.22 205.291 L2170.95 205.291 L2170.95 201.356 Z" fill="#000000" fill-rule="nonzero" fill-opacity="1"></path><polyline clip-path="url(#clip970)" style="stroke:#e26f46; stroke-linecap:round; stroke-linejoin:round; stroke-width:4; stroke-opacity:1; fill:none" stroke-dasharray="16, 8, 2, 8" points="1950.07,270.476 2087.65,270.476 "></polyline>
<path clip-path="url(#clip970)" d="M2126.6 256.367 Q2121.5 256.367 2118.49 260.163 Q2115.51 263.96 2115.51 270.51 Q2115.51 277.038 2118.49 280.834 Q2121.5 284.631 2126.6 284.631 Q2131.69 284.631 2134.65 280.834 Q2137.64 277.038 2137.64 270.51 Q2137.64 263.96 2134.65 260.163 Q2131.69 256.367 2126.6 256.367 M2126.6 252.571 Q2133.86 252.571 2138.22 257.455 Q2142.57 262.316 2142.57 270.51 Q2142.57 278.682 2138.22 283.566 Q2133.86 288.427 2126.6 288.427 Q2119.3 288.427 2114.93 283.566 Q2110.58 278.705 2110.58 270.51 Q2110.58 262.316 2114.93 257.455 Q2119.3 252.571 2126.6 252.571 Z" fill="#000000" fill-rule="nonzero" fill-opacity="1"></path><path clip-path="url(#clip970)" d="M2173.45 282.825 L2173.45 273.543 L2165.81 273.543 L2165.81 269.7 L2178.08 269.7 L2178.08 284.538 Q2175.37 286.459 2172.1 287.455 Q2168.84 288.427 2165.14 288.427 Q2157.03 288.427 2152.45 283.705 Q2147.89 278.959 2147.89 270.51 Q2147.89 262.038 2152.45 257.316 Q2157.03 252.571 2165.14 252.571 Q2168.52 252.571 2171.55 253.404 Q2174.6 254.237 2177.17 255.858 L2177.17 260.835 Q2174.58 258.636 2171.66 257.524 Q2168.75 256.413 2165.53 256.413 Q2159.19 256.413 2155.99 259.955 Q2152.82 263.497 2152.82 270.51 Q2152.82 277.501 2155.99 281.043 Q2159.19 284.584 2165.53 284.584 Q2168.01 284.584 2169.95 284.168 Q2171.9 283.728 2173.45 282.825 Z" fill="#000000" fill-rule="nonzero" fill-opacity="1"></path><path clip-path="url(#clip970)" d="M2180.14 253.196 L2209.37 253.196 L2209.37 257.131 L2197.1 257.131 L2197.1 287.756 L2192.4 287.756 L2192.4 257.131 L2180.14 257.131 L2180.14 253.196 Z" fill="#000000" fill-rule="nonzero" fill-opacity="1"></path><path clip-path="url(#clip970)" d="M2208.26 253.196 L2237.5 253.196 L2237.5 257.131 L2225.23 257.131 L2225.23 287.756 L2220.53 287.756 L2220.53 257.131 L2208.26 257.131 L2208.26 253.196 Z" fill="#000000" fill-rule="nonzero" fill-opacity="1"></path><polyline clip-path="url(#clip970)" style="stroke:#3da44d; stroke-linecap:round; stroke-linejoin:round; stroke-width:4; stroke-opacity:1; fill:none" points="1950.07,322.316 2087.65,322.316 "></polyline>
<path clip-path="url(#clip970)" d="M2110.58 305.036 L2139.81 305.036 L2139.81 308.971 L2127.54 308.971 L2127.54 339.596 L2122.85 339.596 L2122.85 308.971 L2110.58 308.971 L2110.58 305.036 Z" fill="#000000" fill-rule="nonzero" fill-opacity="1"></path><path clip-path="url(#clip970)" d="M2138.7 305.036 L2167.94 305.036 L2167.94 308.971 L2155.67 308.971 L2155.67 339.596 L2150.97 339.596 L2150.97 308.971 L2138.7 308.971 L2138.7 305.036 Z" fill="#000000" fill-rule="nonzero" fill-opacity="1"></path><path clip-path="url(#clip970)" d="M2182.5 303.624 Q2179.4 308.948 2177.89 314.156 Q2176.39 319.364 2176.39 324.712 Q2176.39 330.059 2177.89 335.313 Q2179.42 340.545 2182.5 345.846 L2178.79 345.846 Q2175.32 340.406 2173.59 335.151 Q2171.87 329.897 2171.87 324.712 Q2171.87 319.55 2173.59 314.318 Q2175.3 309.087 2178.79 303.624 L2182.5 303.624 Z" fill="#000000" fill-rule="nonzero" fill-opacity="1"></path><path clip-path="url(#clip970)" d="M2192.17 335.661 L2199.81 335.661 L2199.81 309.295 L2191.5 310.962 L2191.5 306.702 L2199.77 305.036 L2204.44 305.036 L2204.44 335.661 L2212.08 335.661 L2212.08 339.596 L2192.17 339.596 L2192.17 335.661 Z" fill="#000000" fill-rule="nonzero" fill-opacity="1"></path><path clip-path="url(#clip970)" d="M2220.25 303.624 L2223.96 303.624 Q2227.43 309.087 2229.14 314.318 Q2230.88 319.55 2230.88 324.712 Q2230.88 329.897 2229.14 335.151 Q2227.43 340.406 2223.96 345.846 L2220.25 345.846 Q2223.33 340.545 2224.84 335.313 Q2226.36 330.059 2226.36 324.712 Q2226.36 319.364 2224.84 314.156 Q2223.33 308.948 2220.25 303.624 Z" fill="#000000" fill-rule="nonzero" fill-opacity="1"></path><polyline clip-path="url(#clip970)" style="stroke:#c271d2; stroke-linecap:round; stroke-linejoin:round; stroke-width:4; stroke-opacity:1; fill:none" points="1950.07,374.156 2087.65,374.156 "></polyline>
<path clip-path="url(#clip970)" d="M2110.58 356.876 L2139.81 356.876 L2139.81 360.811 L2127.54 360.811 L2127.54 391.436 L2122.85 391.436 L2122.85 360.811 L2110.58 360.811 L2110.58 356.876 Z" fill="#000000" fill-rule="nonzero" fill-opacity="1"></path><path clip-path="url(#clip970)" d="M2138.7 356.876 L2167.94 356.876 L2167.94 360.811 L2155.67 360.811 L2155.67 391.436 L2150.97 391.436 L2150.97 360.811 L2138.7 360.811 L2138.7 356.876 Z" fill="#000000" fill-rule="nonzero" fill-opacity="1"></path><path clip-path="url(#clip970)" d="M2182.5 355.464 Q2179.4 360.788 2177.89 365.996 Q2176.39 371.204 2176.39 376.552 Q2176.39 381.899 2177.89 387.153 Q2179.42 392.385 2182.5 397.686 L2178.79 397.686 Q2175.32 392.246 2173.59 386.991 Q2171.87 381.737 2171.87 376.552 Q2171.87 371.39 2173.59 366.158 Q2175.3 360.927 2178.79 355.464 L2182.5 355.464 Z" fill="#000000" fill-rule="nonzero" fill-opacity="1"></path><path clip-path="url(#clip970)" d="M2195.39 387.501 L2211.71 387.501 L2211.71 391.436 L2189.77 391.436 L2189.77 387.501 Q2192.43 384.746 2197.01 380.116 Q2201.62 375.464 2202.8 374.121 Q2205.04 371.598 2205.92 369.862 Q2206.83 368.103 2206.83 366.413 Q2206.83 363.658 2204.88 361.922 Q2202.96 360.186 2199.86 360.186 Q2197.66 360.186 2195.21 360.95 Q2192.78 361.714 2190 363.265 L2190 358.542 Q2192.82 357.408 2195.28 356.829 Q2197.73 356.251 2199.77 356.251 Q2205.14 356.251 2208.33 358.936 Q2211.53 361.621 2211.53 366.112 Q2211.53 368.241 2210.71 370.163 Q2209.93 372.061 2207.82 374.653 Q2207.24 375.325 2204.14 378.542 Q2201.04 381.737 2195.39 387.501 Z" fill="#000000" fill-rule="nonzero" fill-opacity="1"></path><path clip-path="url(#clip970)" d="M2220.25 355.464 L2223.96 355.464 Q2227.43 360.927 2229.14 366.158 Q2230.88 371.39 2230.88 376.552 Q2230.88 381.737 2229.14 386.991 Q2227.43 392.246 2223.96 397.686 L2220.25 397.686 Q2223.33 392.385 2224.84 387.153 Q2226.36 381.899 2226.36 376.552 Q2226.36 371.204 2224.84 365.996 Q2223.33 360.788 2220.25 355.464 Z" fill="#000000" fill-rule="nonzero" fill-opacity="1"></path><polyline clip-path="url(#clip970)" style="stroke:#ac8d18; stroke-linecap:round; stroke-linejoin:round; stroke-width:4; stroke-opacity:1; fill:none" points="1950.07,425.996 2087.65,425.996 "></polyline>
<path clip-path="url(#clip970)" d="M2110.58 408.716 L2139.81 408.716 L2139.81 412.651 L2127.54 412.651 L2127.54 443.276 L2122.85 443.276 L2122.85 412.651 L2110.58 412.651 L2110.58 408.716 Z" fill="#000000" fill-rule="nonzero" fill-opacity="1"></path><path clip-path="url(#clip970)" d="M2138.7 408.716 L2167.94 408.716 L2167.94 412.651 L2155.67 412.651 L2155.67 443.276 L2150.97 443.276 L2150.97 412.651 L2138.7 412.651 L2138.7 408.716 Z" fill="#000000" fill-rule="nonzero" fill-opacity="1"></path><path clip-path="url(#clip970)" d="M2182.5 407.304 Q2179.4 412.628 2177.89 417.836 Q2176.39 423.044 2176.39 428.392 Q2176.39 433.739 2177.89 438.993 Q2179.42 444.225 2182.5 449.526 L2178.79 449.526 Q2175.32 444.086 2173.59 438.831 Q2171.87 433.577 2171.87 428.392 Q2171.87 423.23 2173.59 417.998 Q2175.3 412.767 2178.79 407.304 L2182.5 407.304 Z" fill="#000000" fill-rule="nonzero" fill-opacity="1"></path><path clip-path="url(#clip970)" d="M2191.41 408.716 L2209.77 408.716 L2209.77 412.651 L2195.69 412.651 L2195.69 421.123 Q2196.71 420.776 2197.73 420.614 Q2198.75 420.429 2199.77 420.429 Q2205.55 420.429 2208.93 423.6 Q2212.31 426.771 2212.31 432.188 Q2212.31 437.766 2208.84 440.868 Q2205.37 443.947 2199.05 443.947 Q2196.87 443.947 2194.6 443.577 Q2192.36 443.206 2189.95 442.466 L2189.95 437.766 Q2192.03 438.901 2194.26 439.456 Q2196.48 440.012 2198.96 440.012 Q2202.96 440.012 2205.3 437.905 Q2207.64 435.799 2207.64 432.188 Q2207.64 428.577 2205.3 426.47 Q2202.96 424.364 2198.96 424.364 Q2197.08 424.364 2195.21 424.78 Q2193.35 425.197 2191.41 426.077 L2191.41 408.716 Z" fill="#000000" fill-rule="nonzero" fill-opacity="1"></path><path clip-path="url(#clip970)" d="M2220.25 407.304 L2223.96 407.304 Q2227.43 412.767 2229.14 417.998 Q2230.88 423.23 2230.88 428.392 Q2230.88 433.577 2229.14 438.831 Q2227.43 444.086 2223.96 449.526 L2220.25 449.526 Q2223.33 444.225 2224.84 438.993 Q2226.36 433.739 2226.36 428.392 Q2226.36 423.044 2224.84 417.836 Q2223.33 412.628 2220.25 407.304 Z" fill="#000000" fill-rule="nonzero" fill-opacity="1"></path><polyline clip-path="url(#clip970)" style="stroke:#00a9ad; stroke-linecap:round; stroke-linejoin:round; stroke-width:4; stroke-opacity:1; fill:none" points="1950.07,477.836 2087.65,477.836 "></polyline>
<path clip-path="url(#clip970)" d="M2110.58 460.556 L2139.81 460.556 L2139.81 464.491 L2127.54 464.491 L2127.54 495.116 L2122.85 495.116 L2122.85 464.491 L2110.58 464.491 L2110.58 460.556 Z" fill="#000000" fill-rule="nonzero" fill-opacity="1"></path><path clip-path="url(#clip970)" d="M2138.7 460.556 L2167.94 460.556 L2167.94 464.491 L2155.67 464.491 L2155.67 495.116 L2150.97 495.116 L2150.97 464.491 L2138.7 464.491 L2138.7 460.556 Z" fill="#000000" fill-rule="nonzero" fill-opacity="1"></path><path clip-path="url(#clip970)" d="M2182.5 459.144 Q2179.4 464.468 2177.89 469.676 Q2176.39 474.884 2176.39 480.232 Q2176.39 485.579 2177.89 490.833 Q2179.42 496.065 2182.5 501.366 L2178.79 501.366 Q2175.32 495.926 2173.59 490.671 Q2171.87 485.417 2171.87 480.232 Q2171.87 475.07 2173.59 469.838 Q2175.3 464.607 2178.79 459.144 L2182.5 459.144 Z" fill="#000000" fill-rule="nonzero" fill-opacity="1"></path><path clip-path="url(#clip970)" d="M2192.17 491.181 L2199.81 491.181 L2199.81 464.815 L2191.5 466.482 L2191.5 462.222 L2199.77 460.556 L2204.44 460.556 L2204.44 491.181 L2212.08 491.181 L2212.08 495.116 L2192.17 495.116 L2192.17 491.181 Z" fill="#000000" fill-rule="nonzero" fill-opacity="1"></path><path clip-path="url(#clip970)" d="M2231.52 463.634 Q2227.91 463.634 2226.09 467.199 Q2224.28 470.741 2224.28 477.87 Q2224.28 484.977 2226.09 488.542 Q2227.91 492.083 2231.52 492.083 Q2235.16 492.083 2236.96 488.542 Q2238.79 484.977 2238.79 477.87 Q2238.79 470.741 2236.96 467.199 Q2235.16 463.634 2231.52 463.634 M2231.52 459.931 Q2237.34 459.931 2240.39 464.537 Q2243.47 469.12 2243.47 477.87 Q2243.47 486.597 2240.39 491.204 Q2237.34 495.787 2231.52 495.787 Q2225.71 495.787 2222.64 491.204 Q2219.58 486.597 2219.58 477.87 Q2219.58 469.12 2222.64 464.537 Q2225.71 459.931 2231.52 459.931 Z" fill="#000000" fill-rule="nonzero" fill-opacity="1"></path><path clip-path="url(#clip970)" d="M2250.41 459.144 L2254.12 459.144 Q2257.59 464.607 2259.3 469.838 Q2261.04 475.07 2261.04 480.232 Q2261.04 485.417 2259.3 490.671 Q2257.59 495.926 2254.12 501.366 L2250.41 501.366 Q2253.49 496.065 2255 490.833 Q2256.52 485.579 2256.52 480.232 Q2256.52 474.884 2255 469.676 Q2253.49 464.468 2250.41 459.144 Z" fill="#000000" fill-rule="nonzero" fill-opacity="1"></path></svg>