<svg xmlns="http://www.w3.org/2000/svg" xmlns:xlink="http://www.w3.org/1999/xlink" width="600" height="400" viewBox="0 0 2400 1600">
<defs>
  <clipPath id="clip930">
    <rect x="0" y="0" width="2400" height="1600"></rect>
  </clipPath>
</defs>
<path clip-path="url(#clip930)" d="M0 1600 L2400 1600 L2400 0 L0 0  Z" fill="#ffffff" fill-rule="evenodd" fill-opacity="1"></path>
<defs>
  <clipPath id="clip931">
    <rect x="480" y="0" width="1681" height="1600"></rect>
  </clipPath>
</defs>
<path clip-path="url(#clip930)" d="M289.119 1423.18 L2352.76 1423.18 L2352.76 123.472 L289.119 123.472  Z" fill="#ffffff" fill-rule="evenodd" fill-opacity="1"></path>
<defs>
  <clipPath id="clip932">
    <rect x="289" y="123" width="2065" height="1301"></rect>
  </clipPath>
</defs>
<polyline clip-path="url(#clip932)" style="stroke:#000000; stroke-linecap:round; stroke-linejoin:round; stroke-width:2; stroke-opacity:0.1; fill:none" points="327.859,1423.18 327.859,123.472 "></polyline>
<polyline clip-path="url(#clip932)" style="stroke:#000000; stroke-linecap:round; stroke-linejoin:round; stroke-width:2; stroke-opacity:0.1; fill:none" points="819.482,1423.18 819.482,123.472 "></polyline>
<polyline clip-path="url(#clip932)" style="stroke:#000000; stroke-linecap:round; stroke-linejoin:round; stroke-width:2; stroke-opacity:0.1; fill:none" points="1311.11,1423.18 1311.11,123.472 "></polyline>
<polyline clip-path="url(#clip932)" style="stroke:#000000; stroke-linecap:round; stroke-linejoin:round; stroke-width:2; stroke-opacity:0.1; fill:none" points="1802.73,1423.18 1802.73,123.472 "></polyline>
<polyline clip-path="url(#clip932)" style="stroke:#000000; stroke-linecap:round; stroke-linejoin:round; stroke-width:2; stroke-opacity:0.1; fill:none" points="2294.35,1423.18 2294.35,123.472 "></polyline>
<polyline clip-path="url(#clip932)" style="stroke:#000000; stroke-linecap:round; stroke-linejoin:round; stroke-width:2; stroke-opacity:0.1; fill:none" points="289.119,1126.88 2352.76,1126.88 "></polyline>
<polyline clip-path="url(#clip932)" style="stroke:#000000; stroke-linecap:round; stroke-linejoin:round; stroke-width:2; stroke-opacity:0.1; fill:none" points="289.119,620.872 2352.76,620.872 "></polyline>
<polyline clip-path="url(#clip930)" style="stroke:#000000; stroke-linecap:round; stroke-linejoin:round; stroke-width:4; stroke-opacity:1; fill:none" points="289.119,1423.18 2352.76,1423.18 "></polyline>
<polyline clip-path="url(#clip930)" style="stroke:#000000; stroke-linecap:round; stroke-linejoin:round; stroke-width:4; stroke-opacity:1; fill:none" points="327.859,1423.18 327.859,1404.28 "></polyline>
<polyline clip-path="url(#clip930)" style="stroke:#000000; stroke-linecap:round; stroke-linejoin:round; stroke-width:4; stroke-opacity:1; fill:none" points="819.482,1423.18 819.482,1404.28 "></polyline>
<polyline clip-path="url(#clip930)" style="stroke:#000000; stroke-linecap:round; stroke-linejoin:round; stroke-width:4; stroke-opacity:1; fill:none" points="1311.11,1423.18 1311.11,1404.28 "></polyline>
<polyline clip-path="url(#clip930)" style="stroke:#000000; stroke-linecap:round; stroke-linejoin:round; stroke-width:4; stroke-opacity:1; fill:none" points="1802.73,1423.18 1802.73,1404.28 "></polyline>
<polyline clip-path="url(#clip930)" style="stroke:#000000; stroke-linecap:round; stroke-linejoin:round; stroke-width:4; stroke-opacity:1; fill:none" points="2294.35,1423.18 2294.35,1404.28 "></polyline>
<path clip-path="url(#clip930)" d="M327.859 1454.1 Q324.248 1454.1 322.419 1457.66 Q320.614 1461.2 320.614 1468.33 Q320.614 1475.44 322.419 1479.01 Q324.248 1482.55 327.859 1482.55 Q331.493 1482.55 333.299 1479.01 Q335.128 1475.44 335.128 1468.33 Q335.128 1461.2 333.299 1457.66 Q331.493 1454.1 327.859 1454.1 M327.859 1450.39 Q333.669 1450.39 336.725 1455 Q339.804 1459.58 339.804 1468.33 Q339.804 1477.06 336.725 1481.67 Q333.669 1486.25 327.859 1486.25 Q322.049 1486.25 318.97 1481.67 Q315.915 1477.06 315.915 1468.33 Q315.915 1459.58 318.97 1455 Q322.049 1450.39 327.859 1450.39 Z" fill="#000000" fill-rule="nonzero" fill-opacity="1"></path><path clip-path="url(#clip930)" d="M798.753 1481.64 L815.073 1481.64 L815.073 1485.58 L793.128 1485.58 L793.128 1481.64 Q795.79 1478.89 800.374 1474.26 Q804.98 1469.61 806.161 1468.27 Q808.406 1465.74 809.286 1464.01 Q810.188 1462.25 810.188 1460.56 Q810.188 1457.8 808.244 1456.07 Q806.323 1454.33 803.221 1454.33 Q801.022 1454.33 798.568 1455.09 Q796.137 1455.86 793.36 1457.41 L793.36 1452.69 Q796.184 1451.55 798.637 1450.97 Q801.091 1450.39 803.128 1450.39 Q808.498 1450.39 811.693 1453.08 Q814.887 1455.77 814.887 1460.26 Q814.887 1462.39 814.077 1464.31 Q813.29 1466.2 811.184 1468.8 Q810.605 1469.47 807.503 1472.69 Q804.401 1475.88 798.753 1481.64 Z" fill="#000000" fill-rule="nonzero" fill-opacity="1"></path><path clip-path="url(#clip930)" d="M824.934 1451.02 L843.29 1451.02 L843.29 1454.96 L829.216 1454.96 L829.216 1463.43 Q830.234 1463.08 831.253 1462.92 Q832.272 1462.73 833.29 1462.73 Q839.077 1462.73 842.457 1465.9 Q845.836 1469.08 845.836 1474.49 Q845.836 1480.07 842.364 1483.17 Q838.892 1486.25 832.572 1486.25 Q830.397 1486.25 828.128 1485.88 Q825.883 1485.51 823.475 1484.77 L823.475 1480.07 Q825.559 1481.2 827.781 1481.76 Q830.003 1482.32 832.48 1482.32 Q836.484 1482.32 838.822 1480.21 Q841.16 1478.1 841.16 1474.49 Q841.16 1470.88 838.822 1468.77 Q836.484 1466.67 832.48 1466.67 Q830.605 1466.67 828.73 1467.08 Q826.878 1467.5 824.934 1468.38 L824.934 1451.02 Z" fill="#000000" fill-rule="nonzero" fill-opacity="1"></path><path clip-path="url(#clip930)" d="M1285.8 1451.02 L1304.16 1451.02 L1304.16 1454.96 L1290.09 1454.96 L1290.09 1463.43 Q1291.11 1463.08 1292.12 1462.92 Q1293.14 1462.73 1294.16 1462.73 Q1299.95 1462.73 1303.33 1465.9 Q1306.71 1469.08 1306.71 1474.49 Q1306.71 1480.07 1303.23 1483.17 Q1299.76 1486.25 1293.44 1486.25 Q1291.27 1486.25 1289 1485.88 Q1286.75 1485.51 1284.35 1484.77 L1284.35 1480.07 Q1286.43 1481.2 1288.65 1481.76 Q1290.87 1482.32 1293.35 1482.32 Q1297.36 1482.32 1299.69 1480.21 Q1302.03 1478.1 1302.03 1474.49 Q1302.03 1470.88 1299.69 1468.77 Q1297.36 1466.67 1293.35 1466.67 Q1291.48 1466.67 1289.6 1467.08 Q1287.75 1467.5 1285.8 1468.38 L1285.8 1451.02 Z" fill="#000000" fill-rule="nonzero" fill-opacity="1"></path><path clip-path="url(#clip930)" d="M1325.92 1454.1 Q1322.31 1454.1 1320.48 1457.66 Q1318.67 1461.2 1318.67 1468.33 Q1318.67 1475.44 1320.48 1479.01 Q1322.31 1482.55 1325.92 1482.55 Q1329.55 1482.55 1331.36 1479.01 Q1333.19 1475.44 1333.19 1468.33 Q1333.19 1461.2 1331.36 1457.66 Q1329.55 1454.1 1325.92 1454.1 M1325.92 1450.39 Q1331.73 1450.39 1334.79 1455 Q1337.86 1459.58 1337.86 1468.33 Q1337.86 1477.06 1334.79 1481.67 Q1331.73 1486.25 1325.92 1486.25 Q1320.11 1486.25 1317.03 1481.67 Q1313.98 1477.06 1313.98 1468.33 Q1313.98 1459.58 1317.03 1455 Q1320.11 1450.39 1325.92 1450.39 Z" fill="#000000" fill-rule="nonzero" fill-opacity="1"></path><path clip-path="url(#clip930)" d="M1776.58 1451.02 L1798.8 1451.02 L1798.8 1453.01 L1786.26 1485.58 L1781.37 1485.58 L1793.18 1454.96 L1776.58 1454.96 L1776.58 1451.02 Z" fill="#000000" fill-rule="nonzero" fill-opacity="1"></path><path clip-path="url(#clip930)" d="M1807.97 1451.02 L1826.33 1451.02 L1826.33 1454.96 L1812.25 1454.96 L1812.25 1463.43 Q1813.27 1463.08 1814.29 1462.92 Q1815.31 1462.73 1816.33 1462.73 Q1822.11 1462.73 1825.49 1465.9 Q1828.87 1469.08 1828.87 1474.49 Q1828.87 1480.07 1825.4 1483.17 Q1821.93 1486.25 1815.61 1486.25 Q1813.43 1486.25 1811.17 1485.88 Q1808.92 1485.51 1806.51 1484.77 L1806.51 1480.07 Q1808.6 1481.2 1810.82 1481.76 Q1813.04 1482.32 1815.52 1482.32 Q1819.52 1482.32 1821.86 1480.21 Q1824.2 1478.1 1824.2 1474.49 Q1824.2 1470.88 1821.86 1468.77 Q1819.52 1466.67 1815.52 1466.67 Q1813.64 1466.67 1811.77 1467.08 Q1809.92 1467.5 1807.97 1468.38 L1807.97 1451.02 Z" fill="#000000" fill-rule="nonzero" fill-opacity="1"></path><path clip-path="url(#clip930)" d="M2253.96 1481.64 L2261.6 1481.64 L2261.6 1455.28 L2253.29 1456.95 L2253.29 1452.69 L2261.55 1451.02 L2266.23 1451.02 L2266.23 1481.64 L2273.87 1481.64 L2273.87 1485.58 L2253.96 1485.58 L2253.96 1481.64 Z" fill="#000000" fill-rule="nonzero" fill-opacity="1"></path><path clip-path="url(#clip930)" d="M2293.31 1454.1 Q2289.7 1454.1 2287.87 1457.66 Q2286.06 1461.2 2286.06 1468.33 Q2286.06 1475.44 2287.87 1479.01 Q2289.7 1482.55 2293.31 1482.55 Q2296.94 1482.55 2298.75 1479.01 Q2300.58 1475.44 2300.58 1468.33 Q2300.58 1461.2 2298.75 1457.66 Q2296.94 1454.1 2293.31 1454.1 M2293.31 1450.39 Q2299.12 1450.39 2302.18 1455 Q2305.25 1459.58 2305.25 1468.33 Q2305.25 1477.06 2302.18 1481.67 Q2299.12 1486.25 2293.31 1486.25 Q2287.5 1486.25 2284.42 1481.67 Q2281.37 1477.06 2281.37 1468.33 Q2281.37 1459.58 2284.42 1455 Q2287.5 1450.39 2293.31 1450.39 Z" fill="#000000" fill-rule="nonzero" fill-opacity="1"></path><path clip-path="url(#clip930)" d="M2323.47 1454.1 Q2319.86 1454.1 2318.03 1457.66 Q2316.23 1461.2 2316.23 1468.33 Q2316.23 1475.44 2318.03 1479.01 Q2319.86 1482.55 2323.47 1482.55 Q2327.11 1482.55 2328.91 1479.01 Q2330.74 1475.44 2330.74 1468.33 Q2330.74 1461.2 2328.91 1457.66 Q2327.11 1454.1 2323.47 1454.1 M2323.47 1450.39 Q2329.28 1450.39 2332.34 1455 Q2335.42 1459.58 2335.42 1468.33 Q2335.42 1477.06 2332.34 1481.67 Q2329.28 1486.25 2323.47 1486.25 Q2317.66 1486.25 2314.58 1481.67 Q2311.53 1477.06 2311.53 1468.33 Q2311.53 1459.58 2314.58 1455 Q2317.66 1450.39 2323.47 1450.39 Z" fill="#000000" fill-rule="nonzero" fill-opacity="1"></path><path clip-path="url(#clip930)" d="M958.442 1520.52 L988.489 1520.52 L988.489 1525.93 L964.872 1525.93 L964.872 1540 L987.502 1540 L987.502 1545.41 L964.872 1545.41 L964.872 1562.63 L989.062 1562.63 L989.062 1568.04 L958.442 1568.04 L958.442 1520.52 Z" fill="#000000" fill-rule="nonzero" fill-opacity="1"></path><path clip-path="url(#clip930)" d="M1027.13 1539.24 Q1029.32 1535.29 1032.38 1533.41 Q1035.44 1531.54 1039.57 1531.54 Q1045.14 1531.54 1048.17 1535.45 Q1051.19 1539.33 1051.19 1546.53 L1051.19 1568.04 L1045.3 1568.04 L1045.3 1546.72 Q1045.3 1541.59 1043.49 1539.11 Q1041.67 1536.63 1037.95 1536.63 Q1033.4 1536.63 1030.76 1539.65 Q1028.12 1542.68 1028.12 1547.9 L1028.12 1568.04 L1022.23 1568.04 L1022.23 1546.72 Q1022.23 1541.56 1020.41 1539.11 Q1018.6 1536.63 1014.81 1536.63 Q1010.32 1536.63 1007.68 1539.68 Q1005.04 1542.71 1005.04 1547.9 L1005.04 1568.04 L999.151 1568.04 L999.151 1532.4 L1005.04 1532.4 L1005.04 1537.93 Q1007.04 1534.66 1009.85 1533.1 Q1012.65 1531.54 1016.5 1531.54 Q1020.38 1531.54 1023.09 1533.51 Q1025.82 1535.48 1027.13 1539.24 Z" fill="#000000" fill-rule="nonzero" fill-opacity="1"></path><path clip-path="url(#clip930)" d="M1088.46 1550.25 Q1088.46 1543.79 1085.79 1540.13 Q1083.15 1536.44 1078.5 1536.44 Q1073.85 1536.44 1071.18 1540.13 Q1068.54 1543.79 1068.54 1550.25 Q1068.54 1556.71 1071.18 1560.4 Q1073.85 1564.07 1078.5 1564.07 Q1083.15 1564.07 1085.79 1560.4 Q1088.46 1556.71 1088.46 1550.25 M1068.54 1537.81 Q1070.38 1534.62 1073.18 1533.1 Q1076.02 1531.54 1079.93 1531.54 Q1086.43 1531.54 1090.47 1536.69 Q1094.54 1541.85 1094.54 1550.25 Q1094.54 1558.65 1090.47 1563.81 Q1086.43 1568.97 1079.93 1568.97 Q1076.02 1568.97 1073.18 1567.44 Q1070.38 1565.88 1068.54 1562.7 L1068.54 1568.04 L1062.65 1568.04 L1062.65 1518.52 L1068.54 1518.52 L1068.54 1537.81 Z" fill="#000000" fill-rule="nonzero" fill-opacity="1"></path><path clip-path="url(#clip930)" d="M1134.74 1548.76 L1134.74 1551.62 L1107.81 1551.62 Q1108.2 1557.67 1111.44 1560.85 Q1114.72 1564 1120.55 1564 Q1123.92 1564 1127.07 1563.17 Q1130.25 1562.35 1133.37 1560.69 L1133.37 1566.23 Q1130.22 1567.57 1126.91 1568.27 Q1123.6 1568.97 1120.2 1568.97 Q1111.67 1568.97 1106.67 1564 Q1101.7 1559.04 1101.7 1550.57 Q1101.7 1541.82 1106.41 1536.69 Q1111.16 1531.54 1119.18 1531.54 Q1126.37 1531.54 1130.54 1536.18 Q1134.74 1540.8 1134.74 1548.76 M1128.88 1547.04 Q1128.82 1542.23 1126.18 1539.37 Q1123.57 1536.5 1119.24 1536.5 Q1114.34 1536.5 1111.38 1539.27 Q1108.45 1542.04 1108 1547.07 L1128.88 1547.04 Z" fill="#000000" fill-rule="nonzero" fill-opacity="1"></path><path clip-path="url(#clip930)" d="M1167.81 1537.81 L1167.81 1518.52 L1173.67 1518.52 L1173.67 1568.04 L1167.81 1568.04 L1167.81 1562.7 Q1165.96 1565.88 1163.13 1567.44 Q1160.33 1568.97 1156.38 1568.97 Q1149.92 1568.97 1145.85 1563.81 Q1141.81 1558.65 1141.81 1550.25 Q1141.81 1541.85 1145.85 1536.69 Q1149.92 1531.54 1156.38 1531.54 Q1160.33 1531.54 1163.13 1533.1 Q1165.96 1534.62 1167.81 1537.81 M1147.85 1550.25 Q1147.85 1556.71 1150.5 1560.4 Q1153.17 1564.07 1157.82 1564.07 Q1162.46 1564.07 1165.14 1560.4 Q1167.81 1556.71 1167.81 1550.25 Q1167.81 1543.79 1165.14 1540.13 Q1162.46 1536.44 1157.82 1536.44 Q1153.17 1536.44 1150.5 1540.13 Q1147.85 1543.79 1147.85 1550.25 Z" fill="#000000" fill-rule="nonzero" fill-opacity="1"></path><path clip-path="url(#clip930)" d="M1209.19 1537.81 L1209.19 1518.52 L1215.04 1518.52 L1215.04 1568.04 L1209.19 1568.04 L1209.19 1562.7 Q1207.34 1565.88 1204.51 1567.44 Q1201.71 1568.97 1197.76 1568.97 Q1191.3 1568.97 1187.23 1563.81 Q1183.18 1558.65 1183.18 1550.25 Q1183.18 1541.85 1187.23 1536.69 Q1191.3 1531.54 1197.76 1531.54 Q1201.71 1531.54 1204.51 1533.1 Q1207.34 1534.62 1209.19 1537.81 M1189.23 1550.25 Q1189.23 1556.71 1191.87 1560.4 Q1194.55 1564.07 1199.19 1564.07 Q1203.84 1564.07 1206.51 1560.4 Q1209.19 1556.71 1209.19 1550.25 Q1209.19 1543.79 1206.51 1540.13 Q1203.84 1536.44 1199.19 1536.44 Q1194.55 1536.44 1191.87 1540.13 Q1189.23 1543.79 1189.23 1550.25 Z" fill="#000000" fill-rule="nonzero" fill-opacity="1"></path><path clip-path="url(#clip930)" d="M1227.11 1532.4 L1232.96 1532.4 L1232.96 1568.04 L1227.11 1568.04 L1227.11 1532.4 M1227.11 1518.52 L1232.96 1518.52 L1232.96 1525.93 L1227.11 1525.93 L1227.11 1518.52 Z" fill="#000000" fill-rule="nonzero" fill-opacity="1"></path><path clip-path="url(#clip930)" d="M1274.85 1546.53 L1274.85 1568.04 L1268.99 1568.04 L1268.99 1546.72 Q1268.99 1541.66 1267.02 1539.14 Q1265.05 1536.63 1261.1 1536.63 Q1256.36 1536.63 1253.62 1539.65 Q1250.88 1542.68 1250.88 1547.9 L1250.88 1568.04 L1244.99 1568.04 L1244.99 1532.4 L1250.88 1532.4 L1250.88 1537.93 Q1252.98 1534.72 1255.82 1533.13 Q1258.68 1531.54 1262.4 1531.54 Q1268.55 1531.54 1271.7 1535.36 Q1274.85 1539.14 1274.85 1546.53 Z" fill="#000000" fill-rule="nonzero" fill-opacity="1"></path><path clip-path="url(#clip930)" d="M1309.99 1549.81 Q1309.99 1543.44 1307.35 1539.94 Q1304.74 1536.44 1299.99 1536.44 Q1295.28 1536.44 1292.64 1539.94 Q1290.03 1543.44 1290.03 1549.81 Q1290.03 1556.14 1292.64 1559.64 Q1295.28 1563.14 1299.99 1563.14 Q1304.74 1563.14 1307.35 1559.64 Q1309.99 1556.14 1309.99 1549.81 M1315.85 1563.62 Q1315.85 1572.72 1311.8 1577.15 Q1307.76 1581.6 1299.42 1581.6 Q1296.33 1581.6 1293.6 1581.13 Q1290.86 1580.68 1288.28 1579.72 L1288.28 1574.03 Q1290.86 1575.43 1293.37 1576.1 Q1295.89 1576.76 1298.5 1576.76 Q1304.26 1576.76 1307.12 1573.74 Q1309.99 1570.75 1309.99 1564.67 L1309.99 1561.77 Q1308.17 1564.92 1305.34 1566.48 Q1302.51 1568.04 1298.56 1568.04 Q1292.01 1568.04 1288 1563.05 Q1283.98 1558.05 1283.98 1549.81 Q1283.98 1541.53 1288 1536.53 Q1292.01 1531.54 1298.56 1531.54 Q1302.51 1531.54 1305.34 1533.1 Q1308.17 1534.66 1309.99 1537.81 L1309.99 1532.4 L1315.85 1532.4 L1315.85 1563.62 Z" fill="#000000" fill-rule="nonzero" fill-opacity="1"></path><path clip-path="url(#clip930)" d="M1355.31 1525.81 L1355.31 1562.76 L1363.08 1562.76 Q1372.91 1562.76 1377.47 1558.3 Q1382.05 1553.85 1382.05 1544.24 Q1382.05 1534.69 1377.47 1530.26 Q1372.91 1525.81 1363.08 1525.81 L1355.31 1525.81 M1348.88 1520.52 L1362.09 1520.52 Q1375.91 1520.52 1382.37 1526.28 Q1388.83 1532.01 1388.83 1544.24 Q1388.83 1556.52 1382.33 1562.28 Q1375.84 1568.04 1362.09 1568.04 L1348.88 1568.04 L1348.88 1520.52 Z" fill="#000000" fill-rule="nonzero" fill-opacity="1"></path><path clip-path="url(#clip930)" d="M1398.82 1532.4 L1404.68 1532.4 L1404.68 1568.04 L1398.82 1568.04 L1398.82 1532.4 M1398.82 1518.52 L1404.68 1518.52 L1404.68 1525.93 L1398.82 1525.93 L1398.82 1518.52 Z" fill="#000000" fill-rule="nonzero" fill-opacity="1"></path><path clip-path="url(#clip930)" d="M1444.69 1539.24 Q1446.88 1535.29 1449.94 1533.41 Q1452.99 1531.54 1457.13 1531.54 Q1462.7 1531.54 1465.73 1535.45 Q1468.75 1539.33 1468.75 1546.53 L1468.75 1568.04 L1462.86 1568.04 L1462.86 1546.72 Q1462.86 1541.59 1461.05 1539.11 Q1459.23 1536.63 1455.51 1536.63 Q1450.96 1536.63 1448.32 1539.65 Q1445.67 1542.68 1445.67 1547.9 L1445.67 1568.04 L1439.79 1568.04 L1439.79 1546.72 Q1439.79 1541.56 1437.97 1539.11 Q1436.16 1536.63 1432.37 1536.63 Q1427.88 1536.63 1425.24 1539.68 Q1422.6 1542.71 1422.6 1547.9 L1422.6 1568.04 L1416.71 1568.04 L1416.71 1532.4 L1422.6 1532.4 L1422.6 1537.93 Q1424.6 1534.66 1427.4 1533.1 Q1430.2 1531.54 1434.06 1531.54 Q1437.94 1531.54 1440.64 1533.51 Q1443.38 1535.48 1444.69 1539.24 Z" fill="#000000" fill-rule="nonzero" fill-opacity="1"></path><path clip-path="url(#clip930)" d="M1510.92 1548.76 L1510.92 1551.62 L1484 1551.62 Q1484.38 1557.67 1487.62 1560.85 Q1490.9 1564 1496.73 1564 Q1500.1 1564 1503.25 1563.17 Q1506.43 1562.35 1509.55 1560.69 L1509.55 1566.23 Q1506.4 1567.57 1503.09 1568.27 Q1499.78 1568.97 1496.38 1568.97 Q1487.85 1568.97 1482.85 1564 Q1477.88 1559.04 1477.88 1550.57 Q1477.88 1541.82 1482.59 1536.69 Q1487.34 1531.54 1495.36 1531.54 Q1502.55 1531.54 1506.72 1536.18 Q1510.92 1540.8 1510.92 1548.76 M1505.07 1547.04 Q1505 1542.23 1502.36 1539.37 Q1499.75 1536.5 1495.42 1536.5 Q1490.52 1536.5 1487.56 1539.27 Q1484.63 1542.04 1484.19 1547.07 L1505.07 1547.04 Z" fill="#000000" fill-rule="nonzero" fill-opacity="1"></path><path clip-path="url(#clip930)" d="M1550.17 1546.53 L1550.17 1568.04 L1544.31 1568.04 L1544.31 1546.72 Q1544.31 1541.66 1542.34 1539.14 Q1540.36 1536.63 1536.42 1536.63 Q1531.67 1536.63 1528.94 1539.65 Q1526.2 1542.68 1526.2 1547.9 L1526.2 1568.04 L1520.31 1568.04 L1520.31 1532.4 L1526.2 1532.4 L1526.2 1537.93 Q1528.3 1534.72 1531.13 1533.13 Q1534 1531.54 1537.72 1531.54 Q1543.86 1531.54 1547.02 1535.36 Q1550.17 1539.14 1550.17 1546.53 Z" fill="#000000" fill-rule="nonzero" fill-opacity="1"></path><path clip-path="url(#clip930)" d="M1584.57 1533.45 L1584.57 1538.98 Q1582.09 1537.71 1579.42 1537.07 Q1576.74 1536.44 1573.88 1536.44 Q1569.52 1536.44 1567.32 1537.77 Q1565.16 1539.11 1565.16 1541.79 Q1565.16 1543.82 1566.72 1545 Q1568.28 1546.15 1572.99 1547.2 L1574.99 1547.64 Q1581.23 1548.98 1583.84 1551.43 Q1586.48 1553.85 1586.48 1558.21 Q1586.48 1563.17 1582.54 1566.07 Q1578.62 1568.97 1571.75 1568.97 Q1568.88 1568.97 1565.76 1568.39 Q1562.68 1567.85 1559.24 1566.74 L1559.24 1560.69 Q1562.48 1562.38 1565.64 1563.24 Q1568.79 1564.07 1571.87 1564.07 Q1576.01 1564.07 1578.24 1562.66 Q1580.47 1561.23 1580.47 1558.65 Q1580.47 1556.27 1578.84 1554.99 Q1577.25 1553.72 1571.81 1552.54 L1569.77 1552.07 Q1564.33 1550.92 1561.91 1548.56 Q1559.49 1546.18 1559.49 1542.04 Q1559.49 1537.01 1563.06 1534.27 Q1566.62 1531.54 1573.18 1531.54 Q1576.43 1531.54 1579.29 1532.01 Q1582.15 1532.49 1584.57 1533.45 Z" fill="#000000" fill-rule="nonzero" fill-opacity="1"></path><path clip-path="url(#clip930)" d="M1595.81 1532.4 L1601.67 1532.4 L1601.67 1568.04 L1595.81 1568.04 L1595.81 1532.4 M1595.81 1518.52 L1601.67 1518.52 L1601.67 1525.93 L1595.81 1525.93 L1595.81 1518.52 Z" fill="#000000" fill-rule="nonzero" fill-opacity="1"></path><path clip-path="url(#clip930)" d="M1627.73 1536.5 Q1623.02 1536.5 1620.28 1540.19 Q1617.55 1543.85 1617.55 1550.25 Q1617.55 1556.65 1620.25 1560.34 Q1622.99 1564 1627.73 1564 Q1632.41 1564 1635.15 1560.31 Q1637.89 1556.62 1637.89 1550.25 Q1637.89 1543.92 1635.15 1540.23 Q1632.41 1536.5 1627.73 1536.5 M1627.73 1531.54 Q1635.37 1531.54 1639.73 1536.5 Q1644.09 1541.47 1644.09 1550.25 Q1644.09 1559 1639.73 1564 Q1635.37 1568.97 1627.73 1568.97 Q1620.06 1568.97 1615.7 1564 Q1611.37 1559 1611.37 1550.25 Q1611.37 1541.47 1615.7 1536.5 Q1620.06 1531.54 1627.73 1531.54 Z" fill="#000000" fill-rule="nonzero" fill-opacity="1"></path><path clip-path="url(#clip930)" d="M1683.43 1546.53 L1683.43 1568.04 L1677.58 1568.04 L1677.58 1546.72 Q1677.58 1541.66 1675.6 1539.14 Q1673.63 1536.63 1669.68 1536.63 Q1664.94 1536.63 1662.2 1539.65 Q1659.47 1542.68 1659.47 1547.9 L1659.47 1568.04 L1653.58 1568.04 L1653.58 1532.4 L1659.47 1532.4 L1659.47 1537.93 Q1661.57 1534.72 1664.4 1533.13 Q1667.26 1531.54 1670.99 1531.54 Q1677.13 1531.54 1680.28 1535.36 Q1683.43 1539.14 1683.43 1546.53 Z" fill="#000000" fill-rule="nonzero" fill-opacity="1"></path><polyline clip-path="url(#clip930)" style="stroke:#000000; stroke-linecap:round; stroke-linejoin:round; stroke-width:4; stroke-opacity:1; fill:none" points="289.119,1423.18 289.119,123.472 "></polyline>
<polyline clip-path="url(#clip930)" style="stroke:#000000; stroke-linecap:round; stroke-linejoin:round; stroke-width:4; stroke-opacity:1; fill:none" points="289.119,1126.88 308.017,1126.88 "></polyline>
<polyline clip-path="url(#clip930)" style="stroke:#000000; stroke-linecap:round; stroke-linejoin:round; stroke-width:4; stroke-opacity:1; fill:none" points="289.119,620.872 308.017,620.872 "></polyline>
<path clip-path="url(#clip930)" d="M114.931 1146.67 L122.57 1146.67 L122.57 1120.3 L114.26 1121.97 L114.26 1117.71 L122.524 1116.04 L127.2 1116.04 L127.2 1146.67 L134.839 1146.67 L134.839 1150.6 L114.931 1150.6 L114.931 1146.67 Z" fill="#000000" fill-rule="nonzero" fill-opacity="1"></path><path clip-path="url(#clip930)" d="M154.283 1119.12 Q150.672 1119.12 148.843 1122.69 Q147.038 1126.23 147.038 1133.36 Q147.038 1140.47 148.843 1144.03 Q150.672 1147.57 154.283 1147.57 Q157.917 1147.57 159.723 1144.03 Q161.552 1140.47 161.552 1133.36 Q161.552 1126.23 159.723 1122.69 Q157.917 1119.12 154.283 1119.12 M154.283 1115.42 Q160.093 1115.42 163.149 1120.03 Q166.227 1124.61 166.227 1133.36 Q166.227 1142.09 163.149 1146.69 Q160.093 1151.28 154.283 1151.28 Q148.473 1151.28 145.394 1146.69 Q142.339 1142.09 142.339 1133.36 Q142.339 1124.61 145.394 1120.03 Q148.473 1115.42 154.283 1115.42 Z" fill="#000000" fill-rule="nonzero" fill-opacity="1"></path><path clip-path="url(#clip930)" d="M166.227 1109.52 L190.339 1109.52 L190.339 1112.72 L166.227 1112.72 L166.227 1109.52 Z" fill="#000000" fill-rule="nonzero" fill-opacity="1"></path><path clip-path="url(#clip930)" d="M199.197 1120 L205.404 1120 L205.404 1098.57 L198.652 1099.93 L198.652 1096.47 L205.366 1095.11 L209.166 1095.11 L209.166 1120 L215.372 1120 L215.372 1123.19 L199.197 1123.19 L199.197 1120 Z" fill="#000000" fill-rule="nonzero" fill-opacity="1"></path><path clip-path="url(#clip930)" d="M223.046 1118.42 L227.014 1118.42 L227.014 1123.19 L223.046 1123.19 L223.046 1118.42 Z" fill="#000000" fill-rule="nonzero" fill-opacity="1"></path><path clip-path="url(#clip930)" d="M243.415 1097.62 Q240.481 1097.62 238.995 1100.51 Q237.528 1103.39 237.528 1109.18 Q237.528 1114.96 238.995 1117.85 Q240.481 1120.73 243.415 1120.73 Q246.367 1120.73 247.834 1117.85 Q249.32 1114.96 249.32 1109.18 Q249.32 1103.39 247.834 1100.51 Q246.367 1097.62 243.415 1097.62 M243.415 1094.61 Q248.135 1094.61 250.618 1098.35 Q253.119 1102.07 253.119 1109.18 Q253.119 1116.27 250.618 1120.02 Q248.135 1123.74 243.415 1123.74 Q238.694 1123.74 236.192 1120.02 Q233.71 1116.27 233.71 1109.18 Q233.71 1102.07 236.192 1098.35 Q238.694 1094.61 243.415 1094.61 Z" fill="#000000" fill-rule="nonzero" fill-opacity="1"></path><path clip-path="url(#clip930)" d="M115.74 640.664 L123.379 640.664 L123.379 614.298 L115.069 615.965 L115.069 611.706 L123.333 610.039 L128.009 610.039 L128.009 640.664 L135.647 640.664 L135.647 644.599 L115.74 644.599 L115.74 640.664 Z" fill="#000000" fill-rule="nonzero" fill-opacity="1"></path><path clip-path="url(#clip930)" d="M155.092 613.118 Q151.481 613.118 149.652 616.683 Q147.846 620.224 147.846 627.354 Q147.846 634.46 149.652 638.025 Q151.481 641.567 155.092 641.567 Q158.726 641.567 160.532 638.025 Q162.36 634.46 162.36 627.354 Q162.36 620.224 160.532 616.683 Q158.726 613.118 155.092 613.118 M155.092 609.414 Q160.902 609.414 163.958 614.021 Q167.036 618.604 167.036 627.354 Q167.036 636.081 163.958 640.687 Q160.902 645.27 155.092 645.27 Q149.282 645.27 146.203 640.687 Q143.147 636.081 143.147 627.354 Q143.147 618.604 146.203 614.021 Q149.282 609.414 155.092 609.414 Z" fill="#000000" fill-rule="nonzero" fill-opacity="1"></path><path clip-path="url(#clip930)" d="M167.036 603.516 L191.148 603.516 L191.148 606.713 L167.036 606.713 L167.036 603.516 Z" fill="#000000" fill-rule="nonzero" fill-opacity="1"></path><path clip-path="url(#clip930)" d="M207.473 591.61 Q204.539 591.61 203.053 594.507 Q201.586 597.384 201.586 603.177 Q201.586 608.951 203.053 611.847 Q204.539 614.725 207.473 614.725 Q210.426 614.725 211.893 611.847 Q213.379 608.951 213.379 603.177 Q213.379 597.384 211.893 594.507 Q210.426 591.61 207.473 591.61 M207.473 588.601 Q212.194 588.601 214.676 592.344 Q217.178 596.068 217.178 603.177 Q217.178 610.267 214.676 614.01 Q212.194 617.734 207.473 617.734 Q202.752 617.734 200.251 614.01 Q197.768 610.267 197.768 603.177 Q197.768 596.068 200.251 592.344 Q202.752 588.601 207.473 588.601 Z" fill="#000000" fill-rule="nonzero" fill-opacity="1"></path><path clip-path="url(#clip930)" d="M223.854 612.412 L227.823 612.412 L227.823 617.189 L223.854 617.189 L223.854 612.412 Z" fill="#000000" fill-rule="nonzero" fill-opacity="1"></path><path clip-path="url(#clip930)" d="M236.136 589.109 L251.051 589.109 L251.051 592.306 L239.615 592.306 L239.615 599.19 Q240.443 598.908 241.27 598.776 Q242.098 598.625 242.926 598.625 Q247.627 598.625 250.373 601.202 Q253.119 603.779 253.119 608.18 Q253.119 612.713 250.298 615.233 Q247.477 617.734 242.343 617.734 Q240.575 617.734 238.731 617.433 Q236.907 617.132 234.951 616.53 L234.951 612.713 Q236.644 613.634 238.449 614.085 Q240.255 614.537 242.267 614.537 Q245.521 614.537 247.421 612.825 Q249.32 611.114 249.32 608.18 Q249.32 605.246 247.421 603.534 Q245.521 601.823 242.267 601.823 Q240.744 601.823 239.22 602.161 Q237.716 602.5 236.136 603.215 L236.136 589.109 Z" fill="#000000" fill-rule="nonzero" fill-opacity="1"></path><path clip-path="url(#clip930)" d="M21.7677 1015.64 L58.7206 1015.64 L58.7206 1007.87 Q58.7206 998.035 54.2646 993.484 Q49.8086 988.901 40.1964 988.901 Q30.6479 988.901 26.2237 993.484 Q21.7677 998.035 21.7677 1007.87 L21.7677 1015.64 M16.4842 1022.07 L16.4842 1008.86 Q16.4842 995.044 22.2451 988.582 Q27.9743 982.121 40.1964 982.121 Q52.4822 982.121 58.2432 988.614 Q64.0042 995.107 64.0042 1008.86 L64.0042 1022.07 L16.4842 1022.07 Z" fill="#000000" fill-rule="nonzero" fill-opacity="1"></path><path clip-path="url(#clip930)" d="M28.3562 972.127 L28.3562 966.271 L64.0042 966.271 L64.0042 972.127 L28.3562 972.127 M14.479 972.127 L14.479 966.271 L21.895 966.271 L21.895 972.127 L14.479 972.127 Z" fill="#000000" fill-rule="nonzero" fill-opacity="1"></path><path clip-path="url(#clip930)" d="M29.4065 931.291 L34.9447 931.291 Q33.6716 933.774 33.035 936.447 Q32.3984 939.121 32.3984 941.985 Q32.3984 946.346 33.7352 948.542 Q35.072 950.706 37.7456 950.706 Q39.7826 950.706 40.9603 949.147 Q42.1061 947.587 43.1565 942.877 L43.6021 940.871 Q44.9389 934.633 47.3897 932.023 Q49.8086 929.381 54.1691 929.381 Q59.1344 929.381 62.0308 933.328 Q64.9272 937.243 64.9272 944.118 Q64.9272 946.982 64.3543 950.102 Q63.8132 953.189 62.6992 956.627 L56.6518 956.627 Q58.3387 953.38 59.198 950.229 Q60.0256 947.078 60.0256 943.991 Q60.0256 939.853 58.6251 937.625 Q57.1929 935.397 54.6147 935.397 Q52.2276 935.397 50.9545 937.02 Q49.6813 938.612 48.5037 944.054 L48.0262 946.091 Q46.8804 951.534 44.5251 953.953 Q42.138 956.372 38.0002 956.372 Q32.9713 956.372 30.2341 952.807 Q27.4968 949.242 27.4968 942.686 Q27.4968 939.439 27.9743 936.575 Q28.4517 933.71 29.4065 931.291 Z" fill="#000000" fill-rule="nonzero" fill-opacity="1"></path><path clip-path="url(#clip930)" d="M18.2347 914.263 L28.3562 914.263 L28.3562 902.2 L32.9077 902.2 L32.9077 914.263 L52.2594 914.263 Q56.6199 914.263 57.8613 913.085 Q59.1026 911.876 59.1026 908.215 L59.1026 902.2 L64.0042 902.2 L64.0042 908.215 Q64.0042 914.995 61.4897 917.573 Q58.9434 920.151 52.2594 920.151 L32.9077 920.151 L32.9077 924.448 L28.3562 924.448 L28.3562 920.151 L18.2347 920.151 L18.2347 914.263 Z" fill="#000000" fill-rule="nonzero" fill-opacity="1"></path><path clip-path="url(#clip930)" d="M32.4621 880.684 Q32.4621 885.394 36.1542 888.132 Q39.8145 890.869 46.212 890.869 Q52.6095 890.869 56.3017 888.163 Q59.9619 885.426 59.9619 880.684 Q59.9619 876.005 56.2698 873.268 Q52.5777 870.53 46.212 870.53 Q39.8781 870.53 36.186 873.268 Q32.4621 876.005 32.4621 880.684 M27.4968 880.684 Q27.4968 873.045 32.4621 868.684 Q37.4273 864.324 46.212 864.324 Q54.9649 864.324 59.9619 868.684 Q64.9272 873.045 64.9272 880.684 Q64.9272 888.354 59.9619 892.715 Q54.9649 897.043 46.212 897.043 Q37.4273 897.043 32.4621 892.715 Q27.4968 888.354 27.4968 880.684 Z" fill="#000000" fill-rule="nonzero" fill-opacity="1"></path><path clip-path="url(#clip930)" d="M33.8307 833.959 Q33.2578 834.946 33.0032 836.124 Q32.7167 837.27 32.7167 838.67 Q32.7167 843.635 35.9632 846.309 Q39.1779 848.951 45.2253 848.951 L64.0042 848.951 L64.0042 854.839 L28.3562 854.839 L28.3562 848.951 L33.8944 848.951 Q30.6479 847.105 29.0883 844.144 Q27.4968 841.184 27.4968 836.951 Q27.4968 836.346 27.5923 835.614 Q27.656 834.882 27.8151 833.991 L33.8307 833.959 Z" fill="#000000" fill-rule="nonzero" fill-opacity="1"></path><path clip-path="url(#clip930)" d="M18.2347 822.024 L28.3562 822.024 L28.3562 809.961 L32.9077 809.961 L32.9077 822.024 L52.2594 822.024 Q56.6199 822.024 57.8613 820.846 Q59.1026 819.636 59.1026 815.976 L59.1026 809.961 L64.0042 809.961 L64.0042 815.976 Q64.0042 822.756 61.4897 825.334 Q58.9434 827.912 52.2594 827.912 L32.9077 827.912 L32.9077 832.209 L28.3562 832.209 L28.3562 827.912 L18.2347 827.912 L18.2347 822.024 Z" fill="#000000" fill-rule="nonzero" fill-opacity="1"></path><path clip-path="url(#clip930)" d="M28.3562 802.258 L28.3562 796.402 L64.0042 796.402 L64.0042 802.258 L28.3562 802.258 M14.479 802.258 L14.479 796.402 L21.895 796.402 L21.895 802.258 L14.479 802.258 Z" fill="#000000" fill-rule="nonzero" fill-opacity="1"></path><path clip-path="url(#clip930)" d="M32.4621 770.334 Q32.4621 775.045 36.1542 777.782 Q39.8145 780.519 46.212 780.519 Q52.6095 780.519 56.3017 777.814 Q59.9619 775.077 59.9619 770.334 Q59.9619 765.655 56.2698 762.918 Q52.5777 760.181 46.212 760.181 Q39.8781 760.181 36.186 762.918 Q32.4621 765.655 32.4621 770.334 M27.4968 770.334 Q27.4968 762.695 32.4621 758.335 Q37.4273 753.974 46.212 753.974 Q54.9649 753.974 59.9619 758.335 Q64.9272 762.695 64.9272 770.334 Q64.9272 778.005 59.9619 782.365 Q54.9649 786.694 46.212 786.694 Q37.4273 786.694 32.4621 782.365 Q27.4968 778.005 27.4968 770.334 Z" fill="#000000" fill-rule="nonzero" fill-opacity="1"></path><path clip-path="url(#clip930)" d="M42.4881 714.634 L64.0042 714.634 L64.0042 720.491 L42.679 720.491 Q37.6183 720.491 35.1038 722.464 Q32.5894 724.437 32.5894 728.384 Q32.5894 733.127 35.6131 735.864 Q38.6368 738.601 43.8567 738.601 L64.0042 738.601 L64.0042 744.489 L28.3562 744.489 L28.3562 738.601 L33.8944 738.601 Q30.6797 736.5 29.0883 733.668 Q27.4968 730.803 27.4968 727.079 Q27.4968 720.936 31.3163 717.785 Q35.1038 714.634 42.4881 714.634 Z" fill="#000000" fill-rule="nonzero" fill-opacity="1"></path><path clip-path="url(#clip930)" d="M41.7242 659.443 Q42.4244 657.375 44.7161 655.433 Q47.0077 653.46 51.0181 651.486 L64.0042 644.962 L64.0042 651.868 L51.8138 657.948 Q47.0395 660.303 45.48 662.531 Q43.9204 664.727 43.9204 668.546 L43.9204 675.549 L64.0042 675.549 L64.0042 681.978 L16.4842 681.978 L16.4842 667.464 Q16.4842 659.316 19.8898 655.306 Q23.2955 651.295 30.1704 651.295 Q34.6582 651.295 37.6183 653.396 Q40.5784 655.465 41.7242 659.443 M21.7677 675.549 L38.6368 675.549 L38.6368 667.464 Q38.6368 662.817 36.5043 660.462 Q34.34 658.075 30.1704 658.075 Q26.0009 658.075 23.9002 660.462 Q21.7677 662.817 21.7677 667.464 L21.7677 675.549 Z" fill="#000000" fill-rule="nonzero" fill-opacity="1"></path><path clip-path="url(#clip930)" d="M46.0847 622.172 Q46.0847 629.27 47.7079 632.007 Q49.3312 634.745 53.2461 634.745 Q56.3653 634.745 58.2114 632.708 Q60.0256 630.639 60.0256 627.106 Q60.0256 622.236 56.5881 619.308 Q53.1188 616.348 47.3897 616.348 L46.0847 616.348 L46.0847 622.172 M43.6657 610.491 L64.0042 610.491 L64.0042 616.348 L58.5933 616.348 Q61.8398 618.353 63.3994 621.345 Q64.9272 624.337 64.9272 628.665 Q64.9272 634.14 61.8716 637.386 Q58.7843 640.601 53.6281 640.601 Q47.6125 640.601 44.5569 636.591 Q41.5014 632.548 41.5014 624.559 L41.5014 616.348 L40.9285 616.348 Q36.8862 616.348 34.6901 619.021 Q32.4621 621.663 32.4621 626.469 Q32.4621 629.525 33.1941 632.421 Q33.9262 635.317 35.3903 637.991 L29.9795 637.991 Q28.7381 634.776 28.1334 631.753 Q27.4968 628.729 27.4968 625.864 Q27.4968 618.13 31.5072 614.311 Q35.5176 610.491 43.6657 610.491 Z" fill="#000000" fill-rule="nonzero" fill-opacity="1"></path><path clip-path="url(#clip930)" d="M18.2347 592.635 L28.3562 592.635 L28.3562 580.572 L32.9077 580.572 L32.9077 592.635 L52.2594 592.635 Q56.6199 592.635 57.8613 591.458 Q59.1026 590.248 59.1026 586.588 L59.1026 580.572 L64.0042 580.572 L64.0042 586.588 Q64.0042 593.367 61.4897 595.946 Q58.9434 598.524 52.2594 598.524 L32.9077 598.524 L32.9077 602.821 L28.3562 602.821 L28.3562 598.524 L18.2347 598.524 L18.2347 592.635 Z" fill="#000000" fill-rule="nonzero" fill-opacity="1"></path><path clip-path="url(#clip930)" d="M28.3562 572.87 L28.3562 567.013 L64.0042 567.013 L64.0042 572.87 L28.3562 572.87 M14.479 572.87 L14.479 567.013 L21.895 567.013 L21.895 572.87 L14.479 572.87 Z" fill="#000000" fill-rule="nonzero" fill-opacity="1"></path><path clip-path="url(#clip930)" d="M32.4621 540.946 Q32.4621 545.656 36.1542 548.394 Q39.8145 551.131 46.212 551.131 Q52.6095 551.131 56.3017 548.426 Q59.9619 545.688 59.9619 540.946 Q59.9619 536.267 56.2698 533.53 Q52.5777 530.793 46.212 530.793 Q39.8781 530.793 36.186 533.53 Q32.4621 536.267 32.4621 540.946 M27.4968 540.946 Q27.4968 533.307 32.4621 528.947 Q37.4273 524.586 46.212 524.586 Q54.9649 524.586 59.9619 528.947 Q64.9272 533.307 64.9272 540.946 Q64.9272 548.617 59.9619 552.977 Q54.9649 557.306 46.212 557.306 Q37.4273 557.306 32.4621 552.977 Q27.4968 548.617 27.4968 540.946 Z" fill="#000000" fill-rule="nonzero" fill-opacity="1"></path><path clip-path="url(#clip930)" d="M781.195 18.8205 L781.195 65.8515 L791.079 65.8515 Q803.597 65.8515 809.389 60.1802 Q815.223 54.509 815.223 42.2752 Q815.223 30.1225 809.389 24.4918 Q803.597 18.8205 791.079 18.8205 L781.195 18.8205 M773.012 12.096 L789.824 12.096 Q807.405 12.096 815.628 19.4281 Q823.851 26.7198 823.851 42.2752 Q823.851 57.9117 815.587 65.2439 Q807.323 72.576 789.824 72.576 L773.012 72.576 L773.012 12.096 Z" fill="#000000" fill-rule="nonzero" fill-opacity="1"></path><path clip-path="url(#clip930)" d="M836.571 27.2059 L844.025 27.2059 L844.025 72.576 L836.571 72.576 L836.571 27.2059 M836.571 9.54393 L844.025 9.54393 L844.025 18.9825 L836.571 18.9825 L836.571 9.54393 Z" fill="#000000" fill-rule="nonzero" fill-opacity="1"></path><path clip-path="url(#clip930)" d="M888.544 28.5427 L888.544 35.5912 Q885.384 33.9709 881.982 33.1607 Q878.579 32.3505 874.933 32.3505 Q869.383 32.3505 866.588 34.0519 Q863.834 35.7533 863.834 39.156 Q863.834 41.7486 865.819 43.2475 Q867.803 44.7058 873.799 46.0426 L876.351 46.6097 Q884.291 48.3111 887.612 51.4303 Q890.975 54.509 890.975 60.0587 Q890.975 66.3781 885.952 70.0644 Q880.969 73.7508 872.219 73.7508 Q868.573 73.7508 864.603 73.0216 Q860.674 72.3329 856.299 70.9151 L856.299 63.2184 Q860.431 65.3654 864.441 66.4591 Q868.452 67.5124 872.381 67.5124 Q877.647 67.5124 880.483 65.73 Q883.318 63.9071 883.318 60.6258 Q883.318 57.5877 881.252 55.9673 Q879.227 54.3469 872.3 52.8481 L869.707 52.2405 Q862.78 50.7821 859.702 47.7845 Q856.623 44.7463 856.623 39.4801 Q856.623 33.0797 861.16 29.5959 Q865.697 26.1121 874.042 26.1121 Q878.174 26.1121 881.82 26.7198 Q885.465 27.3274 888.544 28.5427 Z" fill="#000000" fill-rule="nonzero" fill-opacity="1"></path><path clip-path="url(#clip930)" d="M910.216 14.324 L910.216 27.2059 L925.569 27.2059 L925.569 32.9987 L910.216 32.9987 L910.216 57.6282 Q910.216 63.1779 911.715 64.7578 Q913.255 66.3376 917.913 66.3376 L925.569 66.3376 L925.569 72.576 L917.913 72.576 Q909.285 72.576 906.004 69.3758 Q902.722 66.1351 902.722 57.6282 L902.722 32.9987 L897.254 32.9987 L897.254 27.2059 L902.722 27.2059 L902.722 14.324 L910.216 14.324 Z" fill="#000000" fill-rule="nonzero" fill-opacity="1"></path><path clip-path="url(#clip930)" d="M952.953 32.4315 Q946.958 32.4315 943.474 37.1306 Q939.991 41.7891 939.991 49.9314 Q939.991 58.0738 943.434 62.7728 Q946.918 67.4314 952.953 67.4314 Q958.908 67.4314 962.392 62.7323 Q965.876 58.0333 965.876 49.9314 Q965.876 41.8701 962.392 37.1711 Q958.908 32.4315 952.953 32.4315 M952.953 26.1121 Q962.676 26.1121 968.225 32.4315 Q973.775 38.7509 973.775 49.9314 Q973.775 61.0714 968.225 67.4314 Q962.676 73.7508 952.953 73.7508 Q943.191 73.7508 937.641 67.4314 Q932.132 61.0714 932.132 49.9314 Q932.132 38.7509 937.641 32.4315 Q943.191 26.1121 952.953 26.1121 Z" fill="#000000" fill-rule="nonzero" fill-opacity="1"></path><path clip-path="url(#clip930)" d="M1012.42 34.1734 Q1011.16 33.4443 1009.67 33.1202 Q1008.21 32.7556 1006.43 32.7556 Q1000.11 32.7556 996.703 36.8875 Q993.341 40.9789 993.341 48.6757 L993.341 72.576 L985.847 72.576 L985.847 27.2059 L993.341 27.2059 L993.341 34.2544 Q995.691 30.1225 999.458 28.1376 Q1003.23 26.1121 1008.61 26.1121 Q1009.38 26.1121 1010.31 26.2337 Q1011.25 26.3147 1012.38 26.5172 L1012.42 34.1734 Z" fill="#000000" fill-rule="nonzero" fill-opacity="1"></path><path clip-path="url(#clip930)" d="M1027.61 14.324 L1027.61 27.2059 L1042.96 27.2059 L1042.96 32.9987 L1027.61 32.9987 L1027.61 57.6282 Q1027.61 63.1779 1029.11 64.7578 Q1030.65 66.3376 1035.31 66.3376 L1042.96 66.3376 L1042.96 72.576 L1035.31 72.576 Q1026.68 72.576 1023.4 69.3758 Q1020.12 66.1351 1020.12 57.6282 L1020.12 32.9987 L1014.65 32.9987 L1014.65 27.2059 L1020.12 27.2059 L1020.12 14.324 L1027.61 14.324 Z" fill="#000000" fill-rule="nonzero" fill-opacity="1"></path><path clip-path="url(#clip930)" d="M1052.77 27.2059 L1060.22 27.2059 L1060.22 72.576 L1052.77 72.576 L1052.77 27.2059 M1052.77 9.54393 L1060.22 9.54393 L1060.22 18.9825 L1052.77 18.9825 L1052.77 9.54393 Z" fill="#000000" fill-rule="nonzero" fill-opacity="1"></path><path clip-path="url(#clip930)" d="M1093.4 32.4315 Q1087.4 32.4315 1083.92 37.1306 Q1080.44 41.7891 1080.44 49.9314 Q1080.44 58.0738 1083.88 62.7728 Q1087.36 67.4314 1093.4 67.4314 Q1099.35 67.4314 1102.84 62.7323 Q1106.32 58.0333 1106.32 49.9314 Q1106.32 41.8701 1102.84 37.1711 Q1099.35 32.4315 1093.4 32.4315 M1093.4 26.1121 Q1103.12 26.1121 1108.67 32.4315 Q1114.22 38.7509 1114.22 49.9314 Q1114.22 61.0714 1108.67 67.4314 Q1103.12 73.7508 1093.4 73.7508 Q1083.64 73.7508 1078.09 67.4314 Q1072.58 61.0714 1072.58 49.9314 Q1072.58 38.7509 1078.09 32.4315 Q1083.64 26.1121 1093.4 26.1121 Z" fill="#000000" fill-rule="nonzero" fill-opacity="1"></path><path clip-path="url(#clip930)" d="M1164.29 45.1919 L1164.29 72.576 L1156.84 72.576 L1156.84 45.4349 Q1156.84 38.994 1154.32 35.7938 Q1151.81 32.5936 1146.79 32.5936 Q1140.75 32.5936 1137.27 36.4419 Q1133.79 40.2903 1133.79 46.9338 L1133.79 72.576 L1126.29 72.576 L1126.29 27.2059 L1133.79 27.2059 L1133.79 34.2544 Q1136.46 30.163 1140.06 28.1376 Q1143.71 26.1121 1148.45 26.1121 Q1156.27 26.1121 1160.28 30.9732 Q1164.29 35.7938 1164.29 45.1919 Z" fill="#000000" fill-rule="nonzero" fill-opacity="1"></path><path clip-path="url(#clip930)" d="M1208.08 28.5427 L1208.08 35.5912 Q1204.92 33.9709 1201.52 33.1607 Q1198.11 32.3505 1194.47 32.3505 Q1188.92 32.3505 1186.12 34.0519 Q1183.37 35.7533 1183.37 39.156 Q1183.37 41.7486 1185.35 43.2475 Q1187.34 44.7058 1193.33 46.0426 L1195.89 46.6097 Q1203.83 48.3111 1207.15 51.4303 Q1210.51 54.509 1210.51 60.0587 Q1210.51 66.3781 1205.49 70.0644 Q1200.5 73.7508 1191.75 73.7508 Q1188.11 73.7508 1184.14 73.0216 Q1180.21 72.3329 1175.83 70.9151 L1175.83 63.2184 Q1179.97 65.3654 1183.98 66.4591 Q1187.99 67.5124 1191.92 67.5124 Q1197.18 67.5124 1200.02 65.73 Q1202.85 63.9071 1202.85 60.6258 Q1202.85 57.5877 1200.79 55.9673 Q1198.76 54.3469 1191.84 52.8481 L1189.24 52.2405 Q1182.32 50.7821 1179.24 47.7845 Q1176.16 44.7463 1176.16 39.4801 Q1176.16 33.0797 1180.7 29.5959 Q1185.23 26.1121 1193.58 26.1121 Q1197.71 26.1121 1201.35 26.7198 Q1205 27.3274 1208.08 28.5427 Z" fill="#000000" fill-rule="nonzero" fill-opacity="1"></path><path clip-path="url(#clip930)" d="M1266.66 9.62495 Q1261.23 18.942 1258.59 28.0566 Q1255.96 37.1711 1255.96 46.5287 Q1255.96 55.8863 1258.59 65.0818 Q1261.27 74.2369 1266.66 83.5134 L1260.17 83.5134 Q1254.1 73.9938 1251.06 64.7983 Q1248.06 55.6027 1248.06 46.5287 Q1248.06 37.4952 1251.06 28.3401 Q1254.06 19.1851 1260.17 9.62495 L1266.66 9.62495 Z" fill="#000000" fill-rule="nonzero" fill-opacity="1"></path><path clip-path="url(#clip930)" d="M1310.97 34.0924 L1310.97 9.54393 L1318.43 9.54393 L1318.43 72.576 L1310.97 72.576 L1310.97 65.7705 Q1308.62 69.8214 1305.02 71.8063 Q1301.45 73.7508 1296.43 73.7508 Q1288.21 73.7508 1283.02 67.1883 Q1277.88 60.6258 1277.88 49.9314 Q1277.88 39.2371 1283.02 32.6746 Q1288.21 26.1121 1296.43 26.1121 Q1301.45 26.1121 1305.02 28.0971 Q1308.62 30.0415 1310.97 34.0924 M1285.57 49.9314 Q1285.57 58.1548 1288.94 62.8538 Q1292.34 67.5124 1298.25 67.5124 Q1304.17 67.5124 1307.57 62.8538 Q1310.97 58.1548 1310.97 49.9314 Q1310.97 41.7081 1307.57 37.0496 Q1304.17 32.3505 1298.25 32.3505 Q1292.34 32.3505 1288.94 37.0496 Q1285.57 41.7081 1285.57 49.9314 Z" fill="#000000" fill-rule="nonzero" fill-opacity="1"></path><path clip-path="url(#clip930)" d="M1361.12 34.9026 L1413.06 34.9026 L1413.06 41.7081 L1361.12 41.7081 L1361.12 34.9026 M1361.12 51.4303 L1413.06 51.4303 L1413.06 58.3168 L1361.12 58.3168 L1361.12 51.4303 Z" fill="#000000" fill-rule="nonzero" fill-opacity="1"></path><path clip-path="url(#clip930)" d="M1458.51 65.6895 L1471.87 65.6895 L1471.87 19.5497 L1457.33 22.4663 L1457.33 15.0127 L1471.79 12.096 L1479.98 12.096 L1479.98 65.6895 L1493.34 65.6895 L1493.34 72.576 L1458.51 72.576 L1458.51 65.6895 Z" fill="#000000" fill-rule="nonzero" fill-opacity="1"></path><path clip-path="url(#clip930)" d="M1527.37 17.4837 Q1521.05 17.4837 1517.85 23.7221 Q1514.69 29.92 1514.69 42.3968 Q1514.69 54.833 1517.85 61.0714 Q1521.05 67.2693 1527.37 67.2693 Q1533.73 67.2693 1536.89 61.0714 Q1540.09 54.833 1540.09 42.3968 Q1540.09 29.92 1536.89 23.7221 Q1533.73 17.4837 1527.37 17.4837 M1527.37 11.0023 Q1537.54 11.0023 1542.89 19.0636 Q1548.27 27.0843 1548.27 42.3968 Q1548.27 57.6687 1542.89 65.73 Q1537.54 73.7508 1527.37 73.7508 Q1517.2 73.7508 1511.82 65.73 Q1506.47 57.6687 1506.47 42.3968 Q1506.47 27.0843 1511.82 19.0636 Q1517.2 11.0023 1527.37 11.0023 Z" fill="#000000" fill-rule="nonzero" fill-opacity="1"></path><path clip-path="url(#clip930)" d="M1563.51 62.2867 L1572.05 62.2867 L1572.05 69.2543 L1565.41 82.2172 L1560.18 82.2172 L1563.51 69.2543 L1563.51 62.2867 Z" fill="#000000" fill-rule="nonzero" fill-opacity="1"></path><path clip-path="url(#clip930)" d="M1614.67 12.096 L1625.69 12.096 L1652.5 62.6918 L1652.5 12.096 L1660.44 12.096 L1660.44 72.576 L1649.43 72.576 L1622.61 21.9802 L1622.61 72.576 L1614.67 72.576 L1614.67 12.096 Z" fill="#000000" fill-rule="nonzero" fill-opacity="1"></path><path clip-path="url(#clip930)" d="M1703.75 34.9026 L1755.68 34.9026 L1755.68 41.7081 L1703.75 41.7081 L1703.75 34.9026 M1703.75 51.4303 L1755.68 51.4303 L1755.68 58.3168 L1703.75 58.3168 L1703.75 51.4303 Z" fill="#000000" fill-rule="nonzero" fill-opacity="1"></path><path clip-path="url(#clip930)" d="M1824.51 39.9662 Q1830.38 41.222 1833.66 45.1919 Q1836.98 49.1618 1836.98 54.9951 Q1836.98 63.9476 1830.82 68.8492 Q1824.67 73.7508 1813.33 73.7508 Q1809.52 73.7508 1805.47 72.9811 Q1801.46 72.2519 1797.16 70.7531 L1797.16 62.8538 Q1800.56 64.8388 1804.62 65.8515 Q1808.67 66.8642 1813.08 66.8642 Q1820.78 66.8642 1824.79 63.826 Q1828.84 60.7879 1828.84 54.9951 Q1828.84 49.6479 1825.07 46.6502 Q1821.35 43.612 1814.66 43.612 L1807.61 43.612 L1807.61 36.8875 L1814.99 36.8875 Q1821.02 36.8875 1824.22 34.4975 Q1827.42 32.067 1827.42 27.5299 Q1827.42 22.8714 1824.1 20.4004 Q1820.82 17.8888 1814.66 17.8888 Q1811.3 17.8888 1807.45 18.618 Q1803.6 19.3471 1798.98 20.8865 L1798.98 13.5948 Q1803.64 12.2985 1807.69 11.6504 Q1811.79 11.0023 1815.39 11.0023 Q1824.71 11.0023 1830.14 15.2557 Q1835.56 19.4686 1835.56 26.6793 Q1835.56 31.7024 1832.69 35.1862 Q1829.81 38.6294 1824.51 39.9662 Z" fill="#000000" fill-rule="nonzero" fill-opacity="1"></path><path clip-path="url(#clip930)" d="M1850.27 9.62495 L1856.75 9.62495 Q1862.83 19.1851 1865.82 28.3401 Q1868.86 37.4952 1868.86 46.5287 Q1868.86 55.6027 1865.82 64.7983 Q1862.83 73.9938 1856.75 83.5134 L1850.27 83.5134 Q1855.66 74.2369 1858.29 65.0818 Q1860.96 55.8863 1860.96 46.5287 Q1860.96 37.1711 1858.29 28.0566 Q1855.66 18.942 1850.27 9.62495 Z" fill="#000000" fill-rule="nonzero" fill-opacity="1"></path><polyline clip-path="url(#clip932)" style="stroke:#009af9; stroke-linecap:round; stroke-linejoin:round; stroke-width:4; stroke-opacity:1; fill:none" stroke-dasharray="2, 4" points="347.524,160.256 367.189,298.784 386.854,288.542 406.519,338.115 426.184,389.399 445.849,486.197 465.514,499.411 485.179,580.41 504.844,597.349 524.508,516.755 544.173,602.609 563.838,599.424 583.503,603.962 603.168,719.86 622.833,773.139 642.498,679.92 662.163,767.436 681.828,716.819 701.493,634.576 721.158,767.496 740.823,716.185 760.487,817.597 780.152,694.128 799.817,788.167 819.482,778.606 839.147,777.832 858.812,742.643 878.477,771.452 898.142,803.764 917.807,827.355 937.472,764.798 957.137,861.654 976.802,860.233 996.466,830.618 1016.13,908.478 1035.8,823.162 1055.46,855.691 1075.13,810.676 1094.79,789.698 1114.46,848.562 1134.12,848.651 1153.79,950 1173.45,917.863 1193.12,823.439 1212.78,944.778 1232.45,883.824 1252.11,900.636 1271.78,945.801 1291.44,952.717 1311.11,867.454 1330.77,892.263 1350.44,872.382 1370.1,925.004 1389.76,967.712 1409.43,909.906 1429.09,912.74 1448.76,939.872 1468.42,944.308 1488.09,1045.21 1507.75,938.991 1527.42,903.992 1547.08,950.317 1566.75,1047.7 1586.41,1078.76 1606.08,928.192 1625.74,931.383 1645.41,928.278 1665.07,984.739 1684.74,1007.17 1704.4,983.702 1724.07,1000.16 1743.73,1132.88 1763.4,968.373 1783.06,1021.41 1802.73,1100.3 1822.39,960.342 1842.06,1031.1 1861.72,1020.51 1881.39,987.856 1901.05,1081.84 1920.72,1040.24 1940.38,1029.32 1960.05,1036.21 1979.71,1059.72 1999.38,1052.1 2019.04,1071.94 2038.71,1110.48 2058.37,1083.13 2078.04,1047.16 2097.7,1055.34 2117.37,1057.46 2137.03,1109.63 2156.7,1045.49 2176.36,1083.2 2196.03,1090.06 2215.69,1076.49 2235.36,1076.41 2255.02,1031.87 2274.69,1060.6 2294.35,1087.36 "></polyline>
<polyline clip-path="url(#clip932)" style="stroke:#e26f46; stroke-linecap:round; stroke-linejoin:round; stroke-width:4; stroke-opacity:1; fill:none" stroke-dasharray="16, 8, 2, 8" points="347.524,173.161 367.189,248.658 386.854,386.649 406.519,401.506 426.184,482.871 445.849,472.833 465.514,521.536 485.179,640.247 504.844,604.635 524.508,606.003 544.173,547.209 563.838,693.205 583.503,772.014 603.168,695.128 622.833,619.138 642.498,690.085 662.163,751.473 681.828,807.418 701.493,735.896 721.158,775.348 740.823,723.805 760.487,766.236 780.152,754.966 799.817,843.619 819.482,814.285 839.147,868.931 858.812,714.927 878.477,879.86 898.142,840.381 917.807,884.861 937.472,809.008 957.137,885.681 976.802,878.669 996.466,939.104 1016.13,1015.5 1035.8,954.083 1055.46,967.593 1075.13,910.144 1094.79,1013.58 1114.46,901.709 1134.12,878.325 1153.79,923.431 1173.45,957.203 1193.12,955.599 1212.78,957.933 1232.45,1011.53 1252.11,1014.11 1271.78,1123.89 1291.44,943.777 1311.11,1041.56 1330.77,1003.04 1350.44,1006.37 1370.1,1018.54 1389.76,980.194 1409.43,1015.85 1429.09,1053.27 1448.76,941.513 1468.42,1026.89 1488.09,1087.31 1507.75,1052.29 1527.42,1064.38 1547.08,1044.92 1566.75,991.172 1586.41,1028.17 1606.08,1116.16 1625.74,1045.95 1645.41,1131.12 1665.07,1118.07 1684.74,1113.17 1704.4,1100.42 1724.07,1078.91 1743.73,1044.18 1763.4,960.346 1783.06,1147.42 1802.73,1023.66 1822.39,1068.32 1842.06,1164.14 1861.72,1172.65 1881.39,1235.62 1901.05,1141.63 1920.72,1121.13 1940.38,1120.42 1960.05,1113.31 1979.71,1208.44 1999.38,1110.13 2019.04,1131.83 2038.71,1154.23 2058.37,1091.73 2078.04,1132.83 2097.7,1097.13 2117.37,1051.92 2137.03,1067.52 2156.7,1103.26 2176.36,1110.54 2196.03,1176.79 2215.69,1220.87 2235.36,1271.9 2255.02,1180.25 2274.69,1138.91 2294.35,1210.33 "></polyline>
<polyline clip-path="url(#clip932)" style="stroke:#3da44d; stroke-linecap:round; stroke-linejoin:round; stroke-width:4; stroke-opacity:1; fill:none" points="347.524,352.126 367.189,348 386.854,441.427 406.519,523.337 426.184,618.302 445.849,633.853 465.514,708.425 485.179,614.438 504.844,765.453 524.508,710.851 544.173,779.937 563.838,784.097 583.503,809.497 603.168,848.757 622.833,830.463 642.498,813.493 662.163,815.651 681.828,925.108 701.493,905.594 721.158,873.015 740.823,863.85 760.487,963.755 780.152,899.657 799.817,921.743 819.482,935.16 839.147,1022.25 858.812,1001.56 878.477,1044.6 898.142,1043.02 917.807,1079.25 937.472,831.719 957.137,942.435 976.802,1027.83 996.466,979.284 1016.13,1040.55 1035.8,985.523 1055.46,947.478 1075.13,1011.57 1094.79,994.668 1114.46,1030.69 1134.12,1043.12 1153.79,1094.84 1173.45,1060.08 1193.12,1048.89 1212.78,1133.22 1232.45,1092.48 1252.11,1148.63 1271.78,1060.28 1291.44,1045.25 1311.11,1020.55 1330.77,1180.85 1350.44,1083.78 1370.1,1092.78 1389.76,1031.65 1409.43,1120.65 1429.09,1092.7 1448.76,1106.12 1468.42,1023.47 1488.09,1160.91 1507.75,1181.64 1527.42,1076.81 1547.08,1139.42 1566.75,1081.52 1586.41,1144.21 1606.08,1136.08 1625.74,1160.25 1645.41,1138.54 1665.07,1096.77 1684.74,1137.78 1704.4,1146.53 1724.07,1162.4 1743.73,1140.81 1763.4,1085.71 1783.06,1134.66 1802.73,1126.86 1822.39,1243.86 1842.06,1160.68 1861.72,1160.46 1881.39,1316.35 1901.05,1207.88 1920.72,1142.33 1940.38,1284.52 1960.05,1204.44 1979.71,1187.23 1999.38,1235.05 2019.04,1258.4 2038.71,1225.09 2058.37,1187.45 2078.04,1166.2 2097.7,1123.79 2117.37,1178.14 2137.03,1181.71 2156.7,1188.04 2176.36,1180.21 2196.03,1206.9 2215.69,1177.09 2235.36,1220.58 2255.02,1232.42 2274.69,1186.05 2294.35,1281.45 "></polyline>
<polyline clip-path="url(#clip932)" style="stroke:#c271d2; stroke-linecap:round; stroke-linejoin:round; stroke-width:4; stroke-opacity:1; fill:none" points="347.524,278.234 367.189,420.838 386.854,470.11 406.519,554.364 426.184,571.458 445.849,753.607 465.514,691.182 485.179,801.593 504.844,798.39 524.508,673.992 544.173,803.452 563.838,722.522 583.503,813.296 603.168,797.001 622.833,768.196 642.498,796.082 662.163,848.729 681.828,868.752 701.493,853.619 721.158,917.948 740.823,912.089 760.487,986.463 780.152,980.96 799.817,882.198 819.482,935.958 839.147,934.754 858.812,976.616 878.477,943.898 898.142,1016.58 917.807,947.513 937.472,968.304 957.137,1023.34 976.802,972.769 996.466,1078.12 1016.13,985.11 1035.8,1021.72 1055.46,1103.75 1075.13,1006.82 1094.79,1002.93 1114.46,1040.65 1134.12,1005.73 1153.79,1056.88 1173.45,1113.55 1193.12,1170.6 1212.78,1086.53 1232.45,1033.13 1252.11,1086.73 1271.78,1063.24 1291.44,1109.75 1311.11,1076.31 1330.77,1041.75 1350.44,1120.25 1370.1,1122.07 1389.76,1082.88 1409.43,1197.61 1429.09,1156.15 1448.76,1079.25 1468.42,1140.1 1488.09,1128.56 1507.75,1196.31 1527.42,1234.54 1547.08,1087 1566.75,1182.45 1586.41,1113.24 1606.08,1126.72 1625.74,1106.29 1645.41,1236.23 1665.07,1204.5 1684.74,1179.12 1704.4,1208.26 1724.07,1171.95 1743.73,1100.05 1763.4,1162.03 1783.06,1271.05 1802.73,1282.87 1822.39,1219.35 1842.06,1219 1861.72,1218.8 1881.39,1238.86 1901.05,1212.82 1920.72,1145.27 1940.38,1169.12 1960.05,1311.17 1979.71,1198.11 1999.38,1268.02 2019.04,1213.62 2038.71,1280.05 2058.37,1184.49 2078.04,1195.06 2097.7,1283.93 2117.37,1236.2 2137.03,1185.05 2156.7,1174.84 2176.36,1195.51 2196.03,1193.93 2215.69,1252.06 2235.36,1274.78 2255.02,1238.8 2274.69,1273.65 2294.35,1328.52 "></polyline>
<polyline clip-path="url(#clip932)" style="stroke:#ac8d18; stroke-linecap:round; stroke-linejoin:round; stroke-width:4; stroke-opacity:1; fill:none" points="347.524,271.603 367.189,446.958 386.854,589.964 406.519,502.349 426.184,630.851 445.849,671.19 465.514,671.052 485.179,655.868 504.844,743.683 524.508,716.435 544.173,830.319 563.838,809.075 583.503,746.144 603.168,872.561 622.833,883.797 642.498,926.89 662.163,924.295 681.828,1007.68 701.493,948.073 721.158,797.26 740.823,921.542 760.487,922.46 780.152,900.987 799.817,1089.79 819.482,983.236 839.147,975.17 858.812,1075.2 878.477,970.164 898.142,1101.03 917.807,1012.12 937.472,1003.85 957.137,1025.37 976.802,1080.26 996.466,992.607 1016.13,1026.1 1035.8,1012.62 1055.46,1109.93 1075.13,1066.07 1094.79,1136.58 1114.46,1098.04 1134.12,1130.54 1153.79,1162.81 1173.45,1050.94 1193.12,1080.69 1212.78,1137.33 1232.45,1217.21 1252.11,1173.04 1271.78,1061.39 1291.44,1183.22 1311.11,1106.83 1330.77,1077.46 1350.44,1100.77 1370.1,1093.25 1389.76,1254.44 1409.43,1172.89 1429.09,1165.31 1448.76,1220.95 1468.42,1142.2 1488.09,1079.56 1507.75,1213.39 1527.42,1227.02 1547.08,1190.01 1566.75,1187.04 1586.41,1183.8 1606.08,1223.85 1625.74,1132.34 1645.41,1167.92 1665.07,1377.79 1684.74,1223.46 1704.4,1207.92 1724.07,1106.86 1743.73,1251.65 1763.4,1185.74 1783.06,1171.74 1802.73,1291.86 1822.39,1186.09 1842.06,1178.57 1861.72,1127.28 1881.39,1263.17 1901.05,1290.74 1920.72,1204.29 1940.38,1219.12 1960.05,1204.34 1979.71,1347.13 1999.38,1202.48 2019.04,1271.15 2038.71,1321.39 2058.37,1325.03 2078.04,1270.08 2097.7,1293.31 2117.37,1291.58 2137.03,1307.25 2156.7,1292.57 2176.36,1246.32 2196.03,1214.71 2215.69,1242.87 2235.36,1338.66 2255.02,1322.09 2274.69,1252.68 2294.35,1327.6 "></polyline>
<polyline clip-path="url(#clip932)" style="stroke:#00a9ad; stroke-linecap:round; stroke-linejoin:round; stroke-width:4; stroke-opacity:1; fill:none" points="347.524,311.493 367.189,460.316 386.854,468.794 406.519,548.489 426.184,536.245 445.849,612.759 465.514,691.228 485.179,798.049 504.844,758.515 524.508,732.91 544.173,851.583 563.838,857.642 583.503,911.713 603.168,909.208 622.833,892.306 642.498,926.194 662.163,828.381 681.828,932.229 701.493,896.934 721.158,973.14 740.823,835.669 760.487,887.008 780.152,1033.19 799.817,1008.37 819.482,946.598 839.147,1002.93 858.812,1054.73 878.477,1013.31 898.142,1075.47 917.807,945.573 937.472,1005.09 957.137,1052.41 976.802,1106.16 996.466,965.668 1016.13,1006.32 1035.8,1094.3 1055.46,1090.04 1075.13,1147.43 1094.79,1160.52 1114.46,1129.05 1134.12,1157.67 1153.79,1027.66 1173.45,1023.06 1193.12,1079.64 1212.78,1072.7 1232.45,1101.09 1252.11,1079.91 1271.78,1158.32 1291.44,1145.44 1311.11,1188.3 1330.77,1119.35 1350.44,1143.82 1370.1,1184.77 1389.76,1192.08 1409.43,1097.87 1429.09,1128.87 1448.76,1052.4 1468.42,1216.47 1488.09,1198.61 1507.75,1118.36 1527.42,1219.06 1547.08,1125.89 1566.75,1200.93 1586.41,1165.54 1606.08,1170.09 1625.74,1188.25 1645.41,1203.89 1665.07,1177.24 1684.74,1103.96 1704.4,1226.76 1724.07,1167.52 1743.73,1242.7 1763.4,1165.38 1783.06,1330.51 1802.73,1169.68 1822.39,1174.07 1842.06,1256.15 1861.72,1278.69 1881.39,1350.14 1901.05,1214.06 1920.72,1247.39 1940.38,1222.63 1960.05,1257.43 1979.71,1194.82 1999.38,1329.18 2019.04,1338.79 2038.71,1262.29 2058.37,1277.15 2078.04,1386.4 2097.7,1241.1 2117.37,1188.05 2137.03,1269.5 2156.7,1187.42 2176.36,1311.1 2196.03,1295.82 2215.69,1258.62 2235.36,1306.55 2255.02,1268.83 2274.69,1314.27 2294.35,1312.01 "></polyline>
<path clip-path="url(#clip930)" d="M1927.14 529.676 L2283.97 529.676 L2283.97 166.796 L1927.14 166.796  Z" fill="#ffffff" fill-rule="evenodd" fill-opacity="1"></path>
<polyline clip-path="url(#clip930)" style="stroke:#000000; stroke-linecap:round; stroke-linejoin:round; stroke-width:4; stroke-opacity:1; fill:none" points="1927.14,529.676 2283.97,529.676 2283.97,166.796 1927.14,166.796 1927.14,529.676 "></polyline>
<polyline clip-path="url(#clip930)" style="stroke:#009af9; stroke-linecap:round; stroke-linejoin:round; stroke-width:4; stroke-opacity:1; fill:none" stroke-dasharray="2, 4" points="1950.07,218.636 2087.65,218.636 "></polyline>
<path clip-path="url(#clip930)" d="M2136.13 230.985 L2136.13 221.703 L2128.49 221.703 L2128.49 217.86 L2140.76 217.86 L2140.76 232.698 Q2138.05 234.619 2134.79 235.615 Q2131.53 236.587 2127.82 236.587 Q2119.72 236.587 2115.14 231.865 Q2110.58 227.119 2110.58 218.67 Q2110.58 210.198 2115.14 205.476 Q2119.72 200.731 2127.82 200.731 Q2131.2 200.731 2134.23 201.564 Q2137.29 202.397 2139.86 204.018 L2139.86 208.995 Q2137.27 206.796 2134.35 205.684 Q2131.43 204.573 2128.22 204.573 Q2121.87 204.573 2118.68 208.115 Q2115.51 211.657 2115.51 218.67 Q2115.51 225.661 2118.68 229.203 Q2121.87 232.744 2128.22 232.744 Q2130.69 232.744 2132.64 232.328 Q2134.58 231.888 2136.13 230.985 Z" fill="#000000" fill-rule="nonzero" fill-opacity="1"></path><path clip-path="url(#clip930)" d="M2142.82 201.356 L2172.06 201.356 L2172.06 205.291 L2159.79 205.291 L2159.79 235.916 L2155.09 235.916 L2155.09 205.291 L2142.82 205.291 L2142.82 201.356 Z" fill="#000000" fill-rule="nonzero" fill-opacity="1"></path><path clip-path="url(#clip930)" d="M2170.95 201.356 L2200.18 201.356 L2200.18 205.291 L2187.91 205.291 L2187.91 235.916 L2183.22 235.916 L2183.22 205.291 L2170.95 205.291 L2170.95 201.356 Z" fill="#000000" fill-rule="nonzero" fill-opacity="1"></path><polyline clip-path="url(#clip930)" style="stroke:#e26f46; stroke-linecap:round; stroke-linejoin:round; stroke-width:4; stroke-opacity:1; fill:none" stroke-dasharray="16, 8, 2, 8" points="1950.07,270.476 2087.65,270.476 "></polyline>
<path clip-path="url(#clip930)" d="M2126.6 256.367 Q2121.5 256.367 2118.49 260.163 Q2115.51 263.96 2115.51 270.51 Q2115.51 277.038 2118.49 280.834 Q2121.5 284.631 2126.6 284.631 Q2131.69 284.631 2134.65 280.834 Q2137.64 277.038 2137.64 270.51 Q2137.64 263.96 2134.65 260.163 Q2131.69 256.367 2126.6 256.367 M2126.6 252.571 Q2133.86 252.571 2138.22 257.455 Q2142.57 262.316 2142.57 270.51 Q2142.57 278.682 2138.22 283.566 Q2133.86 288.427 2126.6 288.427 Q2119.3 288.427 2114.93 283.566 Q2110.58 278.705 2110.58 270.51 Q2110.58 262.316 2114.93 257.455 Q2119.3 252.571 2126.6 252.571 Z" fill="#000000" fill-rule="nonzero" fill-opacity="1"></path><path clip-path="url(#clip930)" d="M2173.45 282.825 L2173.45 273.543 L2165.81 273.543 L2165.81 269.7 L2178.08 269.7 L2178.08 284.538 Q2175.37 286.459 2172.1 287.455 Q2168.84 288.427 2165.14 288.427 Q2157.03 288.427 2152.45 283.705 Q2147.89 278.959 2147.89 270.51 Q2147.89 262.038 2152.45 257.316 Q2157.03 252.571 2165.14 252.571 Q2168.52 252.571 2171.55 253.404 Q2174.6 254.237 2177.17 255.858 L2177.17 260.835 Q2174.58 258.636 2171.66 257.524 Q2168.75 256.413 2165.53 256.413 Q2159.19 256.413 2155.99 259.955 Q2152.82 263.497 2152.82 270.51 Q2152.82 277.501 2155.99 281.043 Q2159.19 284.584 2165.53 284.584 Q2168.01 284.584 2169.95 284.168 Q2171.9 283.728 2173.45 282.825 Z" fill="#000000" fill-rule="nonzero" fill-opacity="1"></path><path clip-path="url(#clip930)" d="M2180.14 253.196 L2209.37 253.196 L2209.37 257.131 L2197.1 257.131 L2197.1 287.756 L2192.4 287.756 L2192.4 257.131 L2180.14 257.131 L2180.14 253.196 Z" fill="#000000" fill-rule="nonzero" fill-opacity="1"></path><path clip-path="url(#clip930)" d="M2208.26 253.196 L2237.5 253.196 L2237.5 257.131 L2225.23 257.131 L2225.23 287.756 L2220.53 287.756 L2220.53 257.131 L2208.26 257.131 L2208.26 253.196 Z" fill="#000000" fill-rule="nonzero" fill-opacity="1"></path><polyline clip-path="url(#clip930)" style="stroke:#3da44d; stroke-linecap:round; stroke-linejoin:round; stroke-width:4; stroke-opacity:1; fill:none" points="1950.07,322.316 2087.65,322.316 "></polyline>
<path clip-path="url(#clip930)" d="M2110.58 305.036 L2139.81 305.036 L2139.81 308.971 L2127.54 308.971 L2127.54 339.596 L2122.85 339.596 L2122.85 308.971 L2110.58 308.971 L2110.58 305.036 Z" fill="#000000" fill-rule="nonzero" fill-opacity="1"></path><path clip-path="url(#clip930)" d="M2138.7 305.036 L2167.94 305.036 L2167.94 308.971 L2155.67 308.971 L2155.67 339.596 L2150.97 339.596 L2150.97 308.971 L2138.7 308.971 L2138.7 305.036 Z" fill="#000000" fill-rule="nonzero" fill-opacity="1"></path><path clip-path="url(#clip930)" d="M2182.5 303.624 Q2179.4 308.948 2177.89 314.156 Q2176.39 319.364 2176.39 324.712 Q2176.39 330.059 2177.89 335.313 Q2179.42 340.545 2182.5 345.846 L2178.79 345.846 Q2175.32 340.406 2173.59 335.151 Q2171.87 329.897 2171.87 324.712 Q2171.87 319.55 2173.59 314.318 Q2175.3 309.087 2178.79 303.624 L2182.5 303.624 Z" fill="#000000" fill-rule="nonzero" fill-opacity="1"></path><path clip-path="url(#clip930)" d="M2192.17 335.661 L2199.81 335.661 L2199.81 309.295 L2191.5 310.962 L2191.5 306.702 L2199.77 305.036 L2204.44 305.036 L2204.44 335.661 L2212.08 335.661 L2212.08 339.596 L2192.17 339.596 L2192.17 335.661 Z" fill="#000000" fill-rule="nonzero" fill-opacity="1"></path><path clip-path="url(#clip930)" d="M2220.25 303.624 L2223.96 303.624 Q2227.43 309.087 2229.14 314.318 Q2230.88 319.55 2230.88 324.712 Q2230.88 329.897 2229.14 335.151 Q2227.43 340.406 2223.96 345.846 L2220.25 345.846 Q2223.33 340.545 2224.84 335.313 Q2226.36 330.059 2226.36 324.712 Q2226.36 319.364 2224.84 314.156 Q2223.33 308.948 2220.25 303.624 Z" fill="#000000" fill-rule="nonzero" fill-opacity="1"></path><polyline clip-path="url(#clip930)" style="stroke:#c271d2; stroke-linecap:round; stroke-linejoin:round; stroke-width:4; stroke-opacity:1; fill:none" points="1950.07,374.156 2087.65,374.156 "></polyline>
<path clip-path="url(#clip930)" d="M2110.58 356.876 L2139.81 356.876 L2139.81 360.811 L2127.54 360.811 L2127.54 391.436 L2122.85 391.436 L2122.85 360.811 L2110.58 360.811 L2110.58 356.876 Z" fill="#000000" fill-rule="nonzero" fill-opacity="1"></path><path clip-path="url(#clip930)" d="M2138.7 356.876 L2167.94 356.876 L2167.94 360.811 L2155.67 360.811 L2155.67 391.436 L2150.97 391.436 L2150.97 360.811 L2138.7 360.811 L2138.7 356.876 Z" fill="#000000" fill-rule="nonzero" fill-opacity="1"></path><path clip-path="url(#clip930)" d="M2182.5 355.464 Q2179.4 360.788 2177.89 365.996 Q2176.39 371.204 2176.39 376.552 Q2176.39 381.899 2177.89 387.153 Q2179.42 392.385 2182.5 397.686 L2178.79 397.686 Q2175.32 392.246 2173.59 386.991 Q2171.87 381.737 2171.87 376.552 Q2171.87 371.39 2173.59 366.158 Q2175.3 360.927 2178.79 355.464 L2182.5 355.464 Z" fill="#000000" fill-rule="nonzero" fill-opacity="1"></path><path clip-path="url(#clip930)" d="M2195.39 387.501 L2211.71 387.501 L2211.71 391.436 L2189.77 391.436 L2189.77 387.501 Q2192.43 384.746 2197.01 380.116 Q2201.62 375.464 2202.8 374.121 Q2205.04 371.598 2205.92 369.862 Q2206.83 368.103 2206.83 366.413 Q2206.83 363.658 2204.88 361.922 Q2202.96 360.186 2199.86 360.186 Q2197.66 360.186 2195.21 360.95 Q2192.78 361.714 2190 363.265 L2190 358.542 Q2192.82 357.408 2195.28 356.829 Q2197.73 356.251 2199.77 356.251 Q2205.14 356.251 2208.33 358.936 Q2211.53 361.621 2211.53 366.112 Q2211.53 368.241 2210.71 370.163 Q2209.93 372.061 2207.82 374.653 Q2207.24 375.325 2204.14 378.542 Q2201.04 381.737 2195.39 387.501 Z" fill="#000000" fill-rule="nonzero" fill-opacity="1"></path><path clip-path="url(#clip930)" d="M2220.25 355.464 L2223.96 355.464 Q2227.43 360.927 2229.14 366.158 Q2230.88 371.39 2230.88 376.552 Q2230.88 381.737 2229.14 386.991 Q2227.43 392.246 2223.96 397.686 L2220.25 397.686 Q2223.33 392.385 2224.84 387.153 Q2226.36 381.899 2226.36 376.552 Q2226.36 371.204 2224.84 365.996 Q2223.33 360.788 2220.25 355.464 Z" fill="#000000" fill-rule="nonzero" fill-opacity="1"></path><polyline clip-path="url(#clip930)" style="stroke:#ac8d18; stroke-linecap:round; stroke-linejoin:round; stroke-width:4; stroke-opacity:1; fill:none" points="1950.07,425.996 2087.65,425.996 "></polyline>
<path clip-path="url(#clip930)" d="M2110.58 408.716 L2139.81 408.716 L2139.81 412.651 L2127.54 412.651 L2127.54 443.276 L2122.85 443.276 L2122.85 412.651 L2110.58 412.651 L2110.58 408.716 Z" fill="#000000" fill-rule="nonzero" fill-opacity="1"></path><path clip-path="url(#clip930)" d="M2138.7 408.716 L2167.94 408.716 L2167.94 412.651 L2155.67 412.651 L2155.67 443.276 L2150.97 443.276 L2150.97 412.651 L2138.7 412.651 L2138.7 408.716 Z" fill="#000000" fill-rule="nonzero" fill-opacity="1"></path><path clip-path="url(#clip930)" d="M2182.5 407.304 Q2179.4 412.628 2177.89 417.836 Q2176.39 423.044 2176.39 428.392 Q2176.39 433.739 2177.89 438.993 Q2179.42 444.225 2182.5 449.526 L2178.79 449.526 Q2175.32 444.086 2173.59 438.831 Q2171.87 433.577 2171.87 428.392 Q2171.87 423.23 2173.59 417.998 Q2175.3 412.767 2178.79 407.304 L2182.5 407.304 Z" fill="#000000" fill-rule="nonzero" fill-opacity="1"></path><path clip-path="url(#clip930)" d="M2191.41 408.716 L2209.77 408.716 L2209.77 412.651 L2195.69 412.651 L2195.69 421.123 Q2196.71 420.776 2197.73 420.614 Q2198.75 420.429 2199.77 420.429 Q2205.55 420.429 2208.93 423.6 Q2212.31 426.771 2212.31 432.188 Q2212.31 437.766 2208.84 440.868 Q2205.37 443.947 2199.05 443.947 Q2196.87 443.947 2194.6 443.577 Q2192.36 443.206 2189.95 442.466 L2189.95 437.766 Q2192.03 438.901 2194.26 439.456 Q2196.48 440.012 2198.96 440.012 Q2202.96 440.012 2205.3 437.905 Q2207.64 435.799 2207.64 432.188 Q2207.64 428.577 2205.3 426.47 Q2202.96 424.364 2198.96 424.364 Q2197.08 424.364 2195.21 424.78 Q2193.35 425.197 2191.41 426.077 L2191.41 408.716 Z" fill="#000000" fill-rule="nonzero" fill-opacity="1"></path><path clip-path="url(#clip930)" d="M2220.25 407.304 L2223.96 407.304 Q2227.43 412.767 2229.14 417.998 Q2230.88 423.23 2230.88 428.392 Q2230.88 433.577 2229.14 438.831 Q2227.43 444.086 2223.96 449.526 L2220.25 449.526 Q2223.33 444.225 2224.84 438.993 Q2226.36 433.739 2226.36 428.392 Q2226.36 423.044 2224.84 417.836 Q2223.33 412.628 2220.25 407.304 Z" fill="#000000" fill-rule="nonzero" fill-opacity="1"></path><polyline clip-path="url(#clip930)" style="stroke:#00a9ad; stroke-linecap:round; stroke-linejoin:round; stroke-width:4; stroke-opacity:1; fill:none" points="1950.07,477.836 2087.65,477.836 "></polyline>
<path clip-path="url(#clip930)" d="M2110.58 460.556 L2139.81 460.556 L2139.81 464.491 L2127.54 464.491 L2127.54 495.116 L2122.85 495.116 L2122.85 464.491 L2110.58 464.491 L2110.58 460.556 Z" fill="#000000" fill-rule="nonzero" fill-opacity="1"></path><path clip-path="url(#clip930)" d="M2138.7 460.556 L2167.94 460.556 L2167.94 464.491 L2155.67 464.491 L2155.67 495.116 L2150.97 495.116 L2150.97 464.491 L2138.7 464.491 L2138.7 460.556 Z" fill="#000000" fill-rule="nonzero" fill-opacity="1"></path><path clip-path="url(#clip930)" d="M2182.5 459.144 Q2179.4 464.468 2177.89 469.676 Q2176.39 474.884 2176.39 480.232 Q2176.39 485.579 2177.89 490.833 Q2179.42 496.065 2182.5 501.366 L2178.79 501.366 Q2175.32 495.926 2173.59 490.671 Q2171.87 485.417 2171.87 480.232 Q2171.87 475.07 2173.59 469.838 Q2175.3 464.607 2178.79 459.144 L2182.5 459.144 Z" fill="#000000" fill-rule="nonzero" fill-opacity="1"></path><path clip-path="url(#clip930)" d="M2192.17 491.181 L2199.81 491.181 L2199.81 464.815 L2191.5 466.482 L2191.5 462.222 L2199.77 460.556 L2204.44 460.556 L2204.44 491.181 L2212.08 491.181 L2212.08 495.116 L2192.17 495.116 L2192.17 491.181 Z" fill="#000000" fill-rule="nonzero" fill-opacity="1"></path><path clip-path="url(#clip930)" d="M2231.52 463.634 Q2227.91 463.634 2226.09 467.199 Q2224.28 470.741 2224.28 477.87 Q2224.28 484.977 2226.09 488.542 Q2227.91 492.083 2231.52 492.083 Q2235.16 492.083 2236.96 488.542 Q2238.79 484.977 2238.79 477.87 Q2238.79 470.741 2236.96 467.199 Q2235.16 463.634 2231.52 463.634 M2231.52 459.931 Q2237.34 459.931 2240.39 464.537 Q2243.47 469.12 2243.47 477.87 Q2243.47 486.597 2240.39 491.204 Q2237.34 495.787 2231.52 495.787 Q2225.71 495.787 2222.64 491.204 Q2219.58 486.597 2219.58 477.87 Q2219.58 469.12 2222.64 464.537 Q2225.71 459.931 2231.52 459.931 Z" fill="#000000" fill-rule="nonzero" fill-opacity="1"></path><path clip-path="url(#clip930)" d="M2250.41 459.144 L2254.12 459.144 Q2257.59 464.607 2259.3 469.838 Q2261.04 475.07 2261.04 480.232 Q2261.04 485.417 2259.3 490.671 Q2257.59 495.926 2254.12 501.366 L2250.41 501.366 Q2253.49 496.065 2255 490.833 Q2256.52 485.579 2256.52 480.232 Q2256.52 474.884 2255 469.676 Q2253.49 464.468 2250.41 459.144 Z" fill="#000000" fill-rule="nonzero" fill-opacity="1"></path></svg>