<svg xmlns="http://www.w3.org/2000/svg" xmlns:xlink="http://www.w3.org/1999/xlink" width="600" height="400" viewBox="0 0 2400 1600">
<defs>
  <clipPath id="clip170">
    <rect x="0" y="0" width="2400" height="1600"></rect>
  </clipPath>
</defs>
<path clip-path="url(#clip170)" d="M0 1600 L2400 1600 L2400 0 L0 0  Z" fill="#ffffff" fill-rule="evenodd" fill-opacity="1"></path>
<defs>
  <clipPath id="clip171">
    <rect x="480" y="0" width="1681" height="1600"></rect>
  </clipPath>
</defs>
<path clip-path="url(#clip170)" d="M252.764 1423.18 L2352.76 1423.18 L2352.76 47.2441 L252.764 47.2441  Z" fill="#ffffff" fill-rule="evenodd" fill-opacity="1"></path>
<defs>
  <clipPath id="clip172">
    <rect x="252" y="47" width="2101" height="1377"></rect>
  </clipPath>
</defs>
<polyline clip-path="url(#clip172)" style="stroke:#000000; stroke-linecap:round; stroke-linejoin:round; stroke-width:2; stroke-opacity:0.1; fill:none" points="292.186,1423.18 292.186,47.2441 "></polyline>
<polyline clip-path="url(#clip172)" style="stroke:#000000; stroke-linecap:round; stroke-linejoin:round; stroke-width:2; stroke-opacity:0.1; fill:none" points="792.47,1423.18 792.47,47.2441 "></polyline>
<polyline clip-path="url(#clip172)" style="stroke:#000000; stroke-linecap:round; stroke-linejoin:round; stroke-width:2; stroke-opacity:0.1; fill:none" points="1292.75,1423.18 1292.75,47.2441 "></polyline>
<polyline clip-path="url(#clip172)" style="stroke:#000000; stroke-linecap:round; stroke-linejoin:round; stroke-width:2; stroke-opacity:0.1; fill:none" points="1793.04,1423.18 1793.04,47.2441 "></polyline>
<polyline clip-path="url(#clip172)" style="stroke:#000000; stroke-linecap:round; stroke-linejoin:round; stroke-width:2; stroke-opacity:0.1; fill:none" points="2293.32,1423.18 2293.32,47.2441 "></polyline>
<polyline clip-path="url(#clip172)" style="stroke:#000000; stroke-linecap:round; stroke-linejoin:round; stroke-width:2; stroke-opacity:0.1; fill:none" points="252.764,1398.06 2352.76,1398.06 "></polyline>
<polyline clip-path="url(#clip172)" style="stroke:#000000; stroke-linecap:round; stroke-linejoin:round; stroke-width:2; stroke-opacity:0.1; fill:none" points="252.764,666.363 2352.76,666.363 "></polyline>
<polyline clip-path="url(#clip170)" style="stroke:#000000; stroke-linecap:round; stroke-linejoin:round; stroke-width:4; stroke-opacity:1; fill:none" points="252.764,1423.18 2352.76,1423.18 "></polyline>
<polyline clip-path="url(#clip170)" style="stroke:#000000; stroke-linecap:round; stroke-linejoin:round; stroke-width:4; stroke-opacity:1; fill:none" points="292.186,1423.18 292.186,1404.28 "></polyline>
<polyline clip-path="url(#clip170)" style="stroke:#000000; stroke-linecap:round; stroke-linejoin:round; stroke-width:4; stroke-opacity:1; fill:none" points="792.47,1423.18 792.47,1404.28 "></polyline>
<polyline clip-path="url(#clip170)" style="stroke:#000000; stroke-linecap:round; stroke-linejoin:round; stroke-width:4; stroke-opacity:1; fill:none" points="1292.75,1423.18 1292.75,1404.28 "></polyline>
<polyline clip-path="url(#clip170)" style="stroke:#000000; stroke-linecap:round; stroke-linejoin:round; stroke-width:4; stroke-opacity:1; fill:none" points="1793.04,1423.18 1793.04,1404.28 "></polyline>
<polyline clip-path="url(#clip170)" style="stroke:#000000; stroke-linecap:round; stroke-linejoin:round; stroke-width:4; stroke-opacity:1; fill:none" points="2293.32,1423.18 2293.32,1404.28 "></polyline>
<path clip-path="url(#clip170)" d="M292.186 1454.1 Q288.575 1454.1 286.747 1457.66 Q284.941 1461.2 284.941 1468.33 Q284.941 1475.44 286.747 1479.01 Q288.575 1482.55 292.186 1482.55 Q295.821 1482.55 297.626 1479.01 Q299.455 1475.44 299.455 1468.33 Q299.455 1461.2 297.626 1457.66 Q295.821 1454.1 292.186 1454.1 M292.186 1450.39 Q297.996 1450.39 301.052 1455 Q304.131 1459.58 304.131 1468.33 Q304.131 1477.06 301.052 1481.67 Q297.996 1486.25 292.186 1486.25 Q286.376 1486.25 283.297 1481.67 Q280.242 1477.06 280.242 1468.33 Q280.242 1459.58 283.297 1455 Q286.376 1450.39 292.186 1450.39 Z" fill="#000000" fill-rule="nonzero" fill-opacity="1"></path><path clip-path="url(#clip170)" d="M771.741 1481.64 L788.061 1481.64 L788.061 1485.58 L766.116 1485.58 L766.116 1481.64 Q768.778 1478.89 773.362 1474.26 Q777.968 1469.61 779.149 1468.27 Q781.394 1465.74 782.274 1464.01 Q783.176 1462.25 783.176 1460.56 Q783.176 1457.8 781.232 1456.07 Q779.311 1454.33 776.209 1454.33 Q774.01 1454.33 771.556 1455.09 Q769.126 1455.86 766.348 1457.41 L766.348 1452.69 Q769.172 1451.55 771.625 1450.97 Q774.079 1450.39 776.116 1450.39 Q781.487 1450.39 784.681 1453.08 Q787.875 1455.77 787.875 1460.26 Q787.875 1462.39 787.065 1464.31 Q786.278 1466.2 784.172 1468.8 Q783.593 1469.47 780.491 1472.69 Q777.389 1475.88 771.741 1481.64 Z" fill="#000000" fill-rule="nonzero" fill-opacity="1"></path><path clip-path="url(#clip170)" d="M797.922 1451.02 L816.278 1451.02 L816.278 1454.96 L802.204 1454.96 L802.204 1463.43 Q803.223 1463.08 804.241 1462.92 Q805.26 1462.73 806.278 1462.73 Q812.065 1462.73 815.445 1465.9 Q818.824 1469.08 818.824 1474.49 Q818.824 1480.07 815.352 1483.17 Q811.88 1486.25 805.56 1486.25 Q803.385 1486.25 801.116 1485.88 Q798.871 1485.51 796.463 1484.77 L796.463 1480.07 Q798.547 1481.2 800.769 1481.76 Q802.991 1482.32 805.468 1482.32 Q809.473 1482.32 811.81 1480.21 Q814.148 1478.1 814.148 1474.49 Q814.148 1470.88 811.81 1468.77 Q809.473 1466.67 805.468 1466.67 Q803.593 1466.67 801.718 1467.08 Q799.866 1467.5 797.922 1468.38 L797.922 1451.02 Z" fill="#000000" fill-rule="nonzero" fill-opacity="1"></path><path clip-path="url(#clip170)" d="M1267.45 1451.02 L1285.81 1451.02 L1285.81 1454.96 L1271.74 1454.96 L1271.74 1463.43 Q1272.75 1463.08 1273.77 1462.92 Q1274.79 1462.73 1275.81 1462.73 Q1281.6 1462.73 1284.98 1465.9 Q1288.36 1469.08 1288.36 1474.49 Q1288.36 1480.07 1284.88 1483.17 Q1281.41 1486.25 1275.09 1486.25 Q1272.92 1486.25 1270.65 1485.88 Q1268.4 1485.51 1266 1484.77 L1266 1480.07 Q1268.08 1481.2 1270.3 1481.76 Q1272.52 1482.32 1275 1482.32 Q1279 1482.32 1281.34 1480.21 Q1283.68 1478.1 1283.68 1474.49 Q1283.68 1470.88 1281.34 1468.77 Q1279 1466.67 1275 1466.67 Q1273.12 1466.67 1271.25 1467.08 Q1269.4 1467.5 1267.45 1468.38 L1267.45 1451.02 Z" fill="#000000" fill-rule="nonzero" fill-opacity="1"></path><path clip-path="url(#clip170)" d="M1307.57 1454.1 Q1303.96 1454.1 1302.13 1457.66 Q1300.32 1461.2 1300.32 1468.33 Q1300.32 1475.44 1302.13 1479.01 Q1303.96 1482.55 1307.57 1482.55 Q1311.2 1482.55 1313.01 1479.01 Q1314.84 1475.44 1314.84 1468.33 Q1314.84 1461.2 1313.01 1457.66 Q1311.2 1454.1 1307.57 1454.1 M1307.57 1450.39 Q1313.38 1450.39 1316.43 1455 Q1319.51 1459.58 1319.51 1468.33 Q1319.51 1477.06 1316.43 1481.67 Q1313.38 1486.25 1307.57 1486.25 Q1301.76 1486.25 1298.68 1481.67 Q1295.62 1477.06 1295.62 1468.33 Q1295.62 1459.58 1298.68 1455 Q1301.76 1450.39 1307.57 1450.39 Z" fill="#000000" fill-rule="nonzero" fill-opacity="1"></path><path clip-path="url(#clip170)" d="M1766.89 1451.02 L1789.11 1451.02 L1789.11 1453.01 L1776.57 1485.58 L1771.68 1485.58 L1783.49 1454.96 L1766.89 1454.96 L1766.89 1451.02 Z" fill="#000000" fill-rule="nonzero" fill-opacity="1"></path><path clip-path="url(#clip170)" d="M1798.28 1451.02 L1816.64 1451.02 L1816.64 1454.96 L1802.56 1454.96 L1802.56 1463.43 Q1803.58 1463.08 1804.6 1462.92 Q1805.62 1462.73 1806.64 1462.73 Q1812.42 1462.73 1815.8 1465.9 Q1819.18 1469.08 1819.18 1474.49 Q1819.18 1480.07 1815.71 1483.17 Q1812.24 1486.25 1805.92 1486.25 Q1803.74 1486.25 1801.48 1485.88 Q1799.23 1485.51 1796.82 1484.77 L1796.82 1480.07 Q1798.91 1481.2 1801.13 1481.76 Q1803.35 1482.32 1805.83 1482.32 Q1809.83 1482.32 1812.17 1480.21 Q1814.51 1478.1 1814.51 1474.49 Q1814.51 1470.88 1812.17 1468.77 Q1809.83 1466.67 1805.83 1466.67 Q1803.95 1466.67 1802.08 1467.08 Q1800.23 1467.5 1798.28 1468.38 L1798.28 1451.02 Z" fill="#000000" fill-rule="nonzero" fill-opacity="1"></path><path clip-path="url(#clip170)" d="M2252.93 1481.64 L2260.57 1481.64 L2260.57 1455.28 L2252.26 1456.95 L2252.26 1452.69 L2260.52 1451.02 L2265.2 1451.02 L2265.2 1481.64 L2272.84 1481.64 L2272.84 1485.58 L2252.93 1485.58 L2252.93 1481.64 Z" fill="#000000" fill-rule="nonzero" fill-opacity="1"></path><path clip-path="url(#clip170)" d="M2292.28 1454.1 Q2288.67 1454.1 2286.84 1457.66 Q2285.04 1461.2 2285.04 1468.33 Q2285.04 1475.44 2286.84 1479.01 Q2288.67 1482.55 2292.28 1482.55 Q2295.91 1482.55 2297.72 1479.01 Q2299.55 1475.44 2299.55 1468.33 Q2299.55 1461.2 2297.72 1457.66 Q2295.91 1454.1 2292.28 1454.1 M2292.28 1450.39 Q2298.09 1450.39 2301.15 1455 Q2304.22 1459.58 2304.22 1468.33 Q2304.22 1477.06 2301.15 1481.67 Q2298.09 1486.25 2292.28 1486.25 Q2286.47 1486.25 2283.39 1481.67 Q2280.34 1477.06 2280.34 1468.33 Q2280.34 1459.58 2283.39 1455 Q2286.47 1450.39 2292.28 1450.39 Z" fill="#000000" fill-rule="nonzero" fill-opacity="1"></path><path clip-path="url(#clip170)" d="M2322.44 1454.1 Q2318.83 1454.1 2317 1457.66 Q2315.2 1461.2 2315.2 1468.33 Q2315.2 1475.44 2317 1479.01 Q2318.83 1482.55 2322.44 1482.55 Q2326.08 1482.55 2327.88 1479.01 Q2329.71 1475.44 2329.71 1468.33 Q2329.71 1461.2 2327.88 1457.66 Q2326.08 1454.1 2322.44 1454.1 M2322.44 1450.39 Q2328.25 1450.39 2331.31 1455 Q2334.39 1459.58 2334.39 1468.33 Q2334.39 1477.06 2331.31 1481.67 Q2328.25 1486.25 2322.44 1486.25 Q2316.63 1486.25 2313.55 1481.67 Q2310.5 1477.06 2310.5 1468.33 Q2310.5 1459.58 2313.55 1455 Q2316.63 1450.39 2322.44 1450.39 Z" fill="#000000" fill-rule="nonzero" fill-opacity="1"></path><path clip-path="url(#clip170)" d="M969.977 1522.08 L969.977 1528.35 Q966.316 1526.6 963.07 1525.74 Q959.823 1524.88 956.8 1524.88 Q951.548 1524.88 948.683 1526.92 Q945.851 1528.96 945.851 1532.71 Q945.851 1535.87 947.729 1537.49 Q949.638 1539.08 954.922 1540.07 L958.805 1540.86 Q965.998 1542.23 969.404 1545.7 Q972.841 1549.14 972.841 1554.93 Q972.841 1561.84 968.194 1565.4 Q963.579 1568.97 954.635 1568.97 Q951.262 1568.97 947.442 1568.2 Q943.655 1567.44 939.58 1565.94 L939.58 1559.32 Q943.495 1561.52 947.251 1562.63 Q951.007 1563.75 954.635 1563.75 Q960.142 1563.75 963.134 1561.58 Q966.125 1559.42 966.125 1555.41 Q966.125 1551.91 963.961 1549.93 Q961.829 1547.96 956.927 1546.97 L953.012 1546.21 Q945.819 1544.78 942.604 1541.72 Q939.389 1538.67 939.389 1533.22 Q939.389 1526.92 943.814 1523.29 Q948.27 1519.66 956.068 1519.66 Q959.41 1519.66 962.879 1520.27 Q966.348 1520.87 969.977 1522.08 Z" fill="#000000" fill-rule="nonzero" fill-opacity="1"></path><path clip-path="url(#clip170)" d="M982.008 1553.98 L982.008 1532.4 L987.864 1532.4 L987.864 1553.75 Q987.864 1558.81 989.838 1561.36 Q991.811 1563.87 995.758 1563.87 Q1000.5 1563.87 1003.24 1560.85 Q1006.01 1557.83 1006.01 1552.61 L1006.01 1532.4 L1011.86 1532.4 L1011.86 1568.04 L1006.01 1568.04 L1006.01 1562.57 Q1003.87 1565.82 1001.04 1567.41 Q998.24 1568.97 994.516 1568.97 Q988.374 1568.97 985.191 1565.15 Q982.008 1561.33 982.008 1553.98 M996.744 1531.54 L996.744 1531.54 Z" fill="#000000" fill-rule="nonzero" fill-opacity="1"></path><path clip-path="url(#clip170)" d="M1049.52 1550.25 Q1049.52 1543.79 1046.84 1540.13 Q1044.2 1536.44 1039.55 1536.44 Q1034.91 1536.44 1032.23 1540.13 Q1029.59 1543.79 1029.59 1550.25 Q1029.59 1556.71 1032.23 1560.4 Q1034.91 1564.07 1039.55 1564.07 Q1044.2 1564.07 1046.84 1560.4 Q1049.52 1556.71 1049.52 1550.25 M1029.59 1537.81 Q1031.44 1534.62 1034.24 1533.1 Q1037.07 1531.54 1040.99 1531.54 Q1047.48 1531.54 1051.52 1536.69 Q1055.6 1541.85 1055.6 1550.25 Q1055.6 1558.65 1051.52 1563.81 Q1047.48 1568.97 1040.99 1568.97 Q1037.07 1568.97 1034.24 1567.44 Q1031.44 1565.88 1029.59 1562.7 L1029.59 1568.04 L1023.7 1568.04 L1023.7 1518.52 L1029.59 1518.52 L1029.59 1537.81 Z" fill="#000000" fill-rule="nonzero" fill-opacity="1"></path><path clip-path="url(#clip170)" d="M1088.03 1533.45 L1088.03 1538.98 Q1085.55 1537.71 1082.87 1537.07 Q1080.2 1536.44 1077.33 1536.44 Q1072.97 1536.44 1070.78 1537.77 Q1068.61 1539.11 1068.61 1541.79 Q1068.61 1543.82 1070.17 1545 Q1071.73 1546.15 1076.44 1547.2 L1078.45 1547.64 Q1084.69 1548.98 1087.3 1551.43 Q1089.94 1553.85 1089.94 1558.21 Q1089.94 1563.17 1085.99 1566.07 Q1082.08 1568.97 1075.2 1568.97 Q1072.34 1568.97 1069.22 1568.39 Q1066.13 1567.85 1062.69 1566.74 L1062.69 1560.69 Q1065.94 1562.38 1069.09 1563.24 Q1072.24 1564.07 1075.33 1564.07 Q1079.47 1564.07 1081.69 1562.66 Q1083.92 1561.23 1083.92 1558.65 Q1083.92 1556.27 1082.3 1554.99 Q1080.71 1553.72 1075.27 1552.54 L1073.23 1552.07 Q1067.79 1550.92 1065.37 1548.56 Q1062.95 1546.18 1062.95 1542.04 Q1062.95 1537.01 1066.51 1534.27 Q1070.08 1531.54 1076.63 1531.54 Q1079.88 1531.54 1082.75 1532.01 Q1085.61 1532.49 1088.03 1533.45 Z" fill="#000000" fill-rule="nonzero" fill-opacity="1"></path><path clip-path="url(#clip170)" d="M1104.93 1562.7 L1104.93 1581.6 L1099.04 1581.6 L1099.04 1532.4 L1104.93 1532.4 L1104.93 1537.81 Q1106.78 1534.62 1109.58 1533.1 Q1112.41 1531.54 1116.32 1531.54 Q1122.82 1531.54 1126.86 1536.69 Q1130.93 1541.85 1130.93 1550.25 Q1130.93 1558.65 1126.86 1563.81 Q1122.82 1568.97 1116.32 1568.97 Q1112.41 1568.97 1109.58 1567.44 Q1106.78 1565.88 1104.93 1562.7 M1124.85 1550.25 Q1124.85 1543.79 1122.18 1540.13 Q1119.54 1536.44 1114.89 1536.44 Q1110.25 1536.44 1107.57 1540.13 Q1104.93 1543.79 1104.93 1550.25 Q1104.93 1556.71 1107.57 1560.4 Q1110.25 1564.07 1114.89 1564.07 Q1119.54 1564.07 1122.18 1560.4 Q1124.85 1556.71 1124.85 1550.25 Z" fill="#000000" fill-rule="nonzero" fill-opacity="1"></path><path clip-path="url(#clip170)" d="M1156.84 1550.12 Q1149.74 1550.12 1147.01 1551.75 Q1144.27 1553.37 1144.27 1557.29 Q1144.27 1560.4 1146.31 1562.25 Q1148.38 1564.07 1151.91 1564.07 Q1156.78 1564.07 1159.71 1560.63 Q1162.67 1557.16 1162.67 1551.43 L1162.67 1550.12 L1156.84 1550.12 M1168.52 1547.71 L1168.52 1568.04 L1162.67 1568.04 L1162.67 1562.63 Q1160.66 1565.88 1157.67 1567.44 Q1154.68 1568.97 1150.35 1568.97 Q1144.87 1568.97 1141.63 1565.91 Q1138.41 1562.82 1138.41 1557.67 Q1138.41 1551.65 1142.42 1548.6 Q1146.47 1545.54 1154.45 1545.54 L1162.67 1545.54 L1162.67 1544.97 Q1162.67 1540.93 1159.99 1538.73 Q1157.35 1536.5 1152.55 1536.5 Q1149.49 1536.5 1146.59 1537.23 Q1143.7 1537.97 1141.02 1539.43 L1141.02 1534.02 Q1144.24 1532.78 1147.26 1532.17 Q1150.29 1531.54 1153.15 1531.54 Q1160.88 1531.54 1164.7 1535.55 Q1168.52 1539.56 1168.52 1547.71 Z" fill="#000000" fill-rule="nonzero" fill-opacity="1"></path><path clip-path="url(#clip170)" d="M1206.24 1533.76 L1206.24 1539.24 Q1203.76 1537.87 1201.24 1537.2 Q1198.76 1536.5 1196.21 1536.5 Q1190.52 1536.5 1187.37 1540.13 Q1184.21 1543.73 1184.21 1550.25 Q1184.21 1556.78 1187.37 1560.4 Q1190.52 1564 1196.21 1564 Q1198.76 1564 1201.24 1563.33 Q1203.76 1562.63 1206.24 1561.26 L1206.24 1566.68 Q1203.79 1567.82 1201.15 1568.39 Q1198.54 1568.97 1195.58 1568.97 Q1187.52 1568.97 1182.78 1563.91 Q1178.04 1558.85 1178.04 1550.25 Q1178.04 1541.53 1182.81 1536.53 Q1187.62 1531.54 1195.96 1531.54 Q1198.66 1531.54 1201.24 1532.11 Q1203.82 1532.65 1206.24 1533.76 Z" fill="#000000" fill-rule="nonzero" fill-opacity="1"></path><path clip-path="url(#clip170)" d="M1246.92 1548.76 L1246.92 1551.62 L1219.99 1551.62 Q1220.37 1557.67 1223.62 1560.85 Q1226.9 1564 1232.72 1564 Q1236.1 1564 1239.25 1563.17 Q1242.43 1562.35 1245.55 1560.69 L1245.55 1566.23 Q1242.4 1567.57 1239.09 1568.27 Q1235.78 1568.97 1232.37 1568.97 Q1223.84 1568.97 1218.84 1564 Q1213.88 1559.04 1213.88 1550.57 Q1213.88 1541.82 1218.59 1536.69 Q1223.33 1531.54 1231.35 1531.54 Q1238.55 1531.54 1242.72 1536.18 Q1246.92 1540.8 1246.92 1548.76 M1241.06 1547.04 Q1241 1542.23 1238.35 1539.37 Q1235.74 1536.5 1231.42 1536.5 Q1226.51 1536.5 1223.55 1539.27 Q1220.63 1542.04 1220.18 1547.07 L1241.06 1547.04 Z" fill="#000000" fill-rule="nonzero" fill-opacity="1"></path><path clip-path="url(#clip170)" d="M1300.71 1537.81 L1300.71 1518.52 L1306.56 1518.52 L1306.56 1568.04 L1300.71 1568.04 L1300.71 1562.7 Q1298.86 1565.88 1296.03 1567.44 Q1293.23 1568.97 1289.28 1568.97 Q1282.82 1568.97 1278.75 1563.81 Q1274.7 1558.65 1274.7 1550.25 Q1274.7 1541.85 1278.75 1536.69 Q1282.82 1531.54 1289.28 1531.54 Q1293.23 1531.54 1296.03 1533.1 Q1298.86 1534.62 1300.71 1537.81 M1280.75 1550.25 Q1280.75 1556.71 1283.39 1560.4 Q1286.07 1564.07 1290.71 1564.07 Q1295.36 1564.07 1298.03 1560.4 Q1300.71 1556.71 1300.71 1550.25 Q1300.71 1543.79 1298.03 1540.13 Q1295.36 1536.44 1290.71 1536.44 Q1286.07 1536.44 1283.39 1540.13 Q1280.75 1543.79 1280.75 1550.25 Z" fill="#000000" fill-rule="nonzero" fill-opacity="1"></path><path clip-path="url(#clip170)" d="M1318.63 1532.4 L1324.48 1532.4 L1324.48 1568.04 L1318.63 1568.04 L1318.63 1532.4 M1318.63 1518.52 L1324.48 1518.52 L1324.48 1525.93 L1318.63 1525.93 L1318.63 1518.52 Z" fill="#000000" fill-rule="nonzero" fill-opacity="1"></path><path clip-path="url(#clip170)" d="M1364.49 1539.24 Q1366.69 1535.29 1369.74 1533.41 Q1372.8 1531.54 1376.94 1531.54 Q1382.51 1531.54 1385.53 1535.45 Q1388.55 1539.33 1388.55 1546.53 L1388.55 1568.04 L1382.67 1568.04 L1382.67 1546.72 Q1382.67 1541.59 1380.85 1539.11 Q1379.04 1536.63 1375.31 1536.63 Q1370.76 1536.63 1368.12 1539.65 Q1365.48 1542.68 1365.48 1547.9 L1365.48 1568.04 L1359.59 1568.04 L1359.59 1546.72 Q1359.59 1541.56 1357.78 1539.11 Q1355.96 1536.63 1352.17 1536.63 Q1347.69 1536.63 1345.04 1539.68 Q1342.4 1542.71 1342.4 1547.9 L1342.4 1568.04 L1336.51 1568.04 L1336.51 1532.4 L1342.4 1532.4 L1342.4 1537.93 Q1344.41 1534.66 1347.21 1533.1 Q1350.01 1531.54 1353.86 1531.54 Q1357.74 1531.54 1360.45 1533.51 Q1363.19 1535.48 1364.49 1539.24 Z" fill="#000000" fill-rule="nonzero" fill-opacity="1"></path><path clip-path="url(#clip170)" d="M1430.73 1548.76 L1430.73 1551.62 L1403.8 1551.62 Q1404.18 1557.67 1407.43 1560.85 Q1410.71 1564 1416.53 1564 Q1419.9 1564 1423.06 1563.17 Q1426.24 1562.35 1429.36 1560.69 L1429.36 1566.23 Q1426.21 1567.57 1422.9 1568.27 Q1419.59 1568.97 1416.18 1568.97 Q1407.65 1568.97 1402.65 1564 Q1397.69 1559.04 1397.69 1550.57 Q1397.69 1541.82 1402.4 1536.69 Q1407.14 1531.54 1415.16 1531.54 Q1422.36 1531.54 1426.53 1536.18 Q1430.73 1540.8 1430.73 1548.76 M1424.87 1547.04 Q1424.81 1542.23 1422.16 1539.37 Q1419.55 1536.5 1415.23 1536.5 Q1410.32 1536.5 1407.36 1539.27 Q1404.44 1542.04 1403.99 1547.07 L1424.87 1547.04 Z" fill="#000000" fill-rule="nonzero" fill-opacity="1"></path><path clip-path="url(#clip170)" d="M1469.97 1546.53 L1469.97 1568.04 L1464.11 1568.04 L1464.11 1546.72 Q1464.11 1541.66 1462.14 1539.14 Q1460.17 1536.63 1456.22 1536.63 Q1451.48 1536.63 1448.74 1539.65 Q1446 1542.68 1446 1547.9 L1446 1568.04 L1440.12 1568.04 L1440.12 1532.4 L1446 1532.4 L1446 1537.93 Q1448.1 1534.72 1450.94 1533.13 Q1453.8 1531.54 1457.53 1531.54 Q1463.67 1531.54 1466.82 1535.36 Q1469.97 1539.14 1469.97 1546.53 Z" fill="#000000" fill-rule="nonzero" fill-opacity="1"></path><path clip-path="url(#clip170)" d="M1504.38 1533.45 L1504.38 1538.98 Q1501.9 1537.71 1499.22 1537.07 Q1496.55 1536.44 1493.68 1536.44 Q1489.32 1536.44 1487.13 1537.77 Q1484.96 1539.11 1484.96 1541.79 Q1484.96 1543.82 1486.52 1545 Q1488.08 1546.15 1492.79 1547.2 L1494.8 1547.64 Q1501.04 1548.98 1503.65 1551.43 Q1506.29 1553.85 1506.29 1558.21 Q1506.29 1563.17 1502.34 1566.07 Q1498.43 1568.97 1491.55 1568.97 Q1488.69 1568.97 1485.57 1568.39 Q1482.48 1567.85 1479.04 1566.74 L1479.04 1560.69 Q1482.29 1562.38 1485.44 1563.24 Q1488.59 1564.07 1491.68 1564.07 Q1495.82 1564.07 1498.04 1562.66 Q1500.27 1561.23 1500.27 1558.65 Q1500.27 1556.27 1498.65 1554.99 Q1497.06 1553.72 1491.61 1552.54 L1489.58 1552.07 Q1484.13 1550.92 1481.72 1548.56 Q1479.3 1546.18 1479.3 1542.04 Q1479.3 1537.01 1482.86 1534.27 Q1486.43 1531.54 1492.98 1531.54 Q1496.23 1531.54 1499.09 1532.01 Q1501.96 1532.49 1504.38 1533.45 Z" fill="#000000" fill-rule="nonzero" fill-opacity="1"></path><path clip-path="url(#clip170)" d="M1515.61 1532.4 L1521.47 1532.4 L1521.47 1568.04 L1515.61 1568.04 L1515.61 1532.4 M1515.61 1518.52 L1521.47 1518.52 L1521.47 1525.93 L1515.61 1525.93 L1515.61 1518.52 Z" fill="#000000" fill-rule="nonzero" fill-opacity="1"></path><path clip-path="url(#clip170)" d="M1547.54 1536.5 Q1542.83 1536.5 1540.09 1540.19 Q1537.35 1543.85 1537.35 1550.25 Q1537.35 1556.65 1540.06 1560.34 Q1542.79 1564 1547.54 1564 Q1552.22 1564 1554.95 1560.31 Q1557.69 1556.62 1557.69 1550.25 Q1557.69 1543.92 1554.95 1540.23 Q1552.22 1536.5 1547.54 1536.5 M1547.54 1531.54 Q1555.18 1531.54 1559.54 1536.5 Q1563.9 1541.47 1563.9 1550.25 Q1563.9 1559 1559.54 1564 Q1555.18 1568.97 1547.54 1568.97 Q1539.87 1568.97 1535.51 1564 Q1531.18 1559 1531.18 1550.25 Q1531.18 1541.47 1535.51 1536.5 Q1539.87 1531.54 1547.54 1531.54 Z" fill="#000000" fill-rule="nonzero" fill-opacity="1"></path><path clip-path="url(#clip170)" d="M1603.24 1546.53 L1603.24 1568.04 L1597.38 1568.04 L1597.38 1546.72 Q1597.38 1541.66 1595.41 1539.14 Q1593.43 1536.63 1589.49 1536.63 Q1584.74 1536.63 1582.01 1539.65 Q1579.27 1542.68 1579.27 1547.9 L1579.27 1568.04 L1573.38 1568.04 L1573.38 1532.4 L1579.27 1532.4 L1579.27 1537.93 Q1581.37 1534.72 1584.2 1533.13 Q1587.07 1531.54 1590.79 1531.54 Q1596.94 1531.54 1600.09 1535.36 Q1603.24 1539.14 1603.24 1546.53 Z" fill="#000000" fill-rule="nonzero" fill-opacity="1"></path><path clip-path="url(#clip170)" d="M1649.68 1524.09 L1666.13 1568.04 L1659.92 1568.04 L1649.93 1541.69 L1637.64 1568.04 L1631.44 1568.04 L1647.07 1533.86 L1644.71 1527.56 Q1643.21 1523.55 1639.81 1523.55 L1636.75 1523.55 L1636.75 1518.52 L1640.48 1518.58 Q1647.67 1518.68 1649.68 1524.09 Z" fill="#000000" fill-rule="nonzero" fill-opacity="1"></path><polyline clip-path="url(#clip170)" style="stroke:#000000; stroke-linecap:round; stroke-linejoin:round; stroke-width:4; stroke-opacity:1; fill:none" points="252.764,1423.18 252.764,47.2441 "></polyline>
<polyline clip-path="url(#clip170)" style="stroke:#000000; stroke-linecap:round; stroke-linejoin:round; stroke-width:4; stroke-opacity:1; fill:none" points="252.764,1398.06 271.662,1398.06 "></polyline>
<polyline clip-path="url(#clip170)" style="stroke:#000000; stroke-linecap:round; stroke-linejoin:round; stroke-width:4; stroke-opacity:1; fill:none" points="252.764,666.363 271.662,666.363 "></polyline>
<path clip-path="url(#clip170)" d="M114.931 1417.86 L122.57 1417.86 L122.57 1391.49 L114.26 1393.16 L114.26 1388.9 L122.524 1387.23 L127.2 1387.23 L127.2 1417.86 L134.839 1417.86 L134.839 1421.79 L114.931 1421.79 L114.931 1417.86 Z" fill="#000000" fill-rule="nonzero" fill-opacity="1"></path><path clip-path="url(#clip170)" d="M154.283 1390.31 Q150.672 1390.31 148.843 1393.87 Q147.038 1397.42 147.038 1404.55 Q147.038 1411.65 148.843 1415.22 Q150.672 1418.76 154.283 1418.76 Q157.917 1418.76 159.723 1415.22 Q161.552 1411.65 161.552 1404.55 Q161.552 1397.42 159.723 1393.87 Q157.917 1390.31 154.283 1390.31 M154.283 1386.61 Q160.093 1386.61 163.149 1391.21 Q166.227 1395.8 166.227 1404.55 Q166.227 1413.27 163.149 1417.88 Q160.093 1422.46 154.283 1422.46 Q148.473 1422.46 145.394 1417.88 Q142.339 1413.27 142.339 1404.55 Q142.339 1395.8 145.394 1391.21 Q148.473 1386.61 154.283 1386.61 Z" fill="#000000" fill-rule="nonzero" fill-opacity="1"></path><path clip-path="url(#clip170)" d="M166.227 1380.71 L190.339 1380.71 L190.339 1383.9 L166.227 1383.9 L166.227 1380.71 Z" fill="#000000" fill-rule="nonzero" fill-opacity="1"></path><path clip-path="url(#clip170)" d="M208.978 1369.61 L199.386 1384.6 L208.978 1384.6 L208.978 1369.61 M207.981 1366.3 L212.758 1366.3 L212.758 1384.6 L216.764 1384.6 L216.764 1387.76 L212.758 1387.76 L212.758 1394.38 L208.978 1394.38 L208.978 1387.76 L196.301 1387.76 L196.301 1384.09 L207.981 1366.3 Z" fill="#000000" fill-rule="nonzero" fill-opacity="1"></path><path clip-path="url(#clip170)" d="M116.624 686.156 L124.263 686.156 L124.263 659.79 L115.953 661.457 L115.953 657.197 L124.217 655.531 L128.893 655.531 L128.893 686.156 L136.531 686.156 L136.531 690.091 L116.624 690.091 L116.624 686.156 Z" fill="#000000" fill-rule="nonzero" fill-opacity="1"></path><path clip-path="url(#clip170)" d="M155.976 658.609 Q152.365 658.609 150.536 662.174 Q148.73 665.716 148.73 672.846 Q148.73 679.952 150.536 683.517 Q152.365 687.058 155.976 687.058 Q159.61 687.058 161.416 683.517 Q163.244 679.952 163.244 672.846 Q163.244 665.716 161.416 662.174 Q159.61 658.609 155.976 658.609 M155.976 654.906 Q161.786 654.906 164.841 659.512 Q167.92 664.096 167.92 672.846 Q167.92 681.572 164.841 686.179 Q161.786 690.762 155.976 690.762 Q150.166 690.762 147.087 686.179 Q144.031 681.572 144.031 672.846 Q144.031 664.096 147.087 659.512 Q150.166 654.906 155.976 654.906 Z" fill="#000000" fill-rule="nonzero" fill-opacity="1"></path><path clip-path="url(#clip170)" d="M167.92 649.007 L192.032 649.007 L192.032 652.204 L167.92 652.204 L167.92 649.007 Z" fill="#000000" fill-rule="nonzero" fill-opacity="1"></path><path clip-path="url(#clip170)" d="M203.504 659.483 L216.764 659.483 L216.764 662.68 L198.934 662.68 L198.934 659.483 Q201.097 657.245 204.821 653.483 Q208.564 649.703 209.523 648.612 Q211.347 646.562 212.062 645.152 Q212.796 643.722 212.796 642.349 Q212.796 640.111 211.216 638.7 Q209.655 637.29 207.134 637.29 Q205.348 637.29 203.354 637.911 Q201.379 638.531 199.122 639.791 L199.122 635.955 Q201.417 635.033 203.41 634.563 Q205.404 634.093 207.059 634.093 Q211.423 634.093 214.018 636.274 Q216.613 638.456 216.613 642.105 Q216.613 643.835 215.955 645.396 Q215.316 646.938 213.604 649.045 Q213.134 649.59 210.614 652.204 Q208.094 654.8 203.504 659.483 Z" fill="#000000" fill-rule="nonzero" fill-opacity="1"></path><path clip-path="url(#clip170)" d="M17.2818 1107.24 L17.2818 1097.66 L49.6196 1085.54 L17.2818 1073.35 L17.2818 1063.77 L64.8018 1063.77 L64.8018 1070.04 L23.0746 1070.04 L55.667 1082.29 L55.667 1088.75 L23.0746 1101.01 L64.8018 1101.01 L64.8018 1107.24 L17.2818 1107.24 Z" fill="#000000" fill-rule="nonzero" fill-opacity="1"></path><path clip-path="url(#clip170)" d="M45.5137 1020.77 L48.3783 1020.77 L48.3783 1047.69 Q54.4257 1047.31 57.6086 1044.06 Q60.7596 1040.79 60.7596 1034.96 Q60.7596 1031.59 59.9321 1028.44 Q59.1045 1025.25 57.4494 1022.13 L62.9876 1022.13 Q64.3244 1025.29 65.0246 1028.6 Q65.7249 1031.91 65.7249 1035.31 Q65.7249 1043.84 60.7596 1048.84 Q55.7944 1053.8 47.328 1053.8 Q38.5751 1053.8 33.4507 1049.09 Q28.2945 1044.35 28.2945 1036.33 Q28.2945 1029.14 32.9415 1024.97 Q37.5566 1020.77 45.5137 1020.77 M43.795 1026.62 Q38.9889 1026.69 36.1243 1029.33 Q33.2598 1031.94 33.2598 1036.27 Q33.2598 1041.17 36.0288 1044.13 Q38.7979 1047.06 43.8268 1047.5 L43.795 1026.62 Z" fill="#000000" fill-rule="nonzero" fill-opacity="1"></path><path clip-path="url(#clip170)" d="M34.5647 987.696 L15.2766 987.696 L15.2766 981.839 L64.8018 981.839 L64.8018 987.696 L59.4546 987.696 Q62.6375 989.542 64.1971 992.374 Q65.7249 995.175 65.7249 999.122 Q65.7249 1005.58 60.5686 1009.66 Q55.4124 1013.7 47.0097 1013.7 Q38.6069 1013.7 33.4507 1009.66 Q28.2945 1005.58 28.2945 999.122 Q28.2945 995.175 29.8541 992.374 Q31.3819 989.542 34.5647 987.696 M47.0097 1007.65 Q53.4709 1007.65 57.163 1005.01 Q60.8233 1002.34 60.8233 997.69 Q60.8233 993.043 57.163 990.369 Q53.4709 987.696 47.0097 987.696 Q40.5485 987.696 36.8882 990.369 Q33.1961 993.043 33.1961 997.69 Q33.1961 1002.34 36.8882 1005.01 Q40.5485 1007.65 47.0097 1007.65 Z" fill="#000000" fill-rule="nonzero" fill-opacity="1"></path><path clip-path="url(#clip170)" d="M29.1539 969.776 L29.1539 963.92 L64.8018 963.92 L64.8018 969.776 L29.1539 969.776 M15.2766 969.776 L15.2766 963.92 L22.6927 963.92 L22.6927 969.776 L15.2766 969.776 Z" fill="#000000" fill-rule="nonzero" fill-opacity="1"></path><path clip-path="url(#clip170)" d="M46.8824 935.465 Q46.8824 942.563 48.5056 945.3 Q50.1289 948.037 54.0438 948.037 Q57.163 948.037 59.009 946 Q60.8233 943.931 60.8233 940.398 Q60.8233 935.529 57.3858 932.6 Q53.9165 929.64 48.1873 929.64 L46.8824 929.64 L46.8824 935.465 M44.4634 923.784 L64.8018 923.784 L64.8018 929.64 L59.391 929.64 Q62.6375 931.645 64.1971 934.637 Q65.7249 937.629 65.7249 941.958 Q65.7249 947.432 62.6693 950.679 Q59.5819 953.894 54.4257 953.894 Q48.4101 953.894 45.3546 949.883 Q42.2991 945.841 42.2991 937.852 L42.2991 929.64 L41.7261 929.64 Q37.6839 929.64 35.4878 932.314 Q33.2598 934.956 33.2598 939.762 Q33.2598 942.817 33.9918 945.714 Q34.7239 948.61 36.188 951.284 L30.7771 951.284 Q29.5358 948.069 28.9311 945.045 Q28.2945 942.022 28.2945 939.157 Q28.2945 931.423 32.3049 927.603 Q36.3153 923.784 44.4634 923.784 Z" fill="#000000" fill-rule="nonzero" fill-opacity="1"></path><path clip-path="url(#clip170)" d="M43.2857 882.088 L64.8018 882.088 L64.8018 887.945 L43.4767 887.945 Q38.416 887.945 35.9015 889.918 Q33.3871 891.892 33.3871 895.838 Q33.3871 900.581 36.4108 903.318 Q39.4345 906.055 44.6544 906.055 L64.8018 906.055 L64.8018 911.944 L29.1539 911.944 L29.1539 906.055 L34.692 906.055 Q31.4774 903.955 29.8859 901.122 Q28.2945 898.257 28.2945 894.533 Q28.2945 888.391 32.1139 885.239 Q35.9015 882.088 43.2857 882.088 Z" fill="#000000" fill-rule="nonzero" fill-opacity="1"></path><path clip-path="url(#clip170)" d="M17.2818 849.432 L17.2818 843.003 L64.8018 843.003 L64.8018 849.432 L17.2818 849.432 Z" fill="#000000" fill-rule="nonzero" fill-opacity="1"></path><path clip-path="url(#clip170)" d="M43.2857 800.83 L64.8018 800.83 L64.8018 806.687 L43.4767 806.687 Q38.416 806.687 35.9015 808.66 Q33.3871 810.633 33.3871 814.58 Q33.3871 819.323 36.4108 822.06 Q39.4345 824.797 44.6544 824.797 L64.8018 824.797 L64.8018 830.685 L29.1539 830.685 L29.1539 824.797 L34.692 824.797 Q31.4774 822.696 29.8859 819.864 Q28.2945 816.999 28.2945 813.275 Q28.2945 807.132 32.1139 803.981 Q35.9015 800.83 43.2857 800.83 Z" fill="#000000" fill-rule="nonzero" fill-opacity="1"></path><path clip-path="url(#clip170)" d="M29.1539 789.149 L29.1539 783.293 L65.4384 783.293 Q72.2497 783.293 75.3052 785.903 Q78.3608 788.481 78.3608 794.242 L78.3608 796.47 L73.3955 796.47 L73.3955 794.91 Q73.3955 791.568 71.8359 790.359 Q70.3082 789.149 65.4384 789.149 L29.1539 789.149 M15.2766 789.149 L15.2766 783.293 L22.6927 783.293 L22.6927 789.149 L15.2766 789.149 Z" fill="#000000" fill-rule="nonzero" fill-opacity="1"></path><path clip-path="url(#clip170)" d="M45.5137 740.547 L48.3783 740.547 L48.3783 767.474 Q54.4257 767.092 57.6086 763.845 Q60.7596 760.567 60.7596 754.742 Q60.7596 751.369 59.9321 748.218 Q59.1045 745.035 57.4494 741.916 L62.9876 741.916 Q64.3244 745.067 65.0246 748.377 Q65.7249 751.687 65.7249 755.093 Q65.7249 763.623 60.7596 768.62 Q55.7944 773.585 47.328 773.585 Q38.5751 773.585 33.4507 768.874 Q28.2945 764.132 28.2945 756.111 Q28.2945 748.918 32.9415 744.748 Q37.5566 740.547 45.5137 740.547 M43.795 746.403 Q38.9889 746.467 36.1243 749.109 Q33.2598 751.719 33.2598 756.047 Q33.2598 760.949 36.0288 763.909 Q38.7979 766.837 43.8268 767.283 L43.795 746.403 Z" fill="#000000" fill-rule="nonzero" fill-opacity="1"></path><path clip-path="url(#clip170)" d="M30.5225 705.281 L35.997 705.281 Q34.6284 707.764 33.96 710.278 Q33.2598 712.761 33.2598 715.307 Q33.2598 721.004 36.8882 724.155 Q40.4848 727.306 47.0097 727.306 Q53.5345 727.306 57.163 724.155 Q60.7596 721.004 60.7596 715.307 Q60.7596 712.761 60.0912 710.278 Q59.391 707.764 58.0224 705.281 L63.4332 705.281 Q64.579 707.732 65.1519 710.374 Q65.7249 712.983 65.7249 715.944 Q65.7249 723.996 60.6641 728.739 Q55.6034 733.481 47.0097 733.481 Q38.2887 733.481 33.2916 728.707 Q28.2945 723.901 28.2945 715.562 Q28.2945 712.856 28.8674 710.278 Q29.4085 707.7 30.5225 705.281 Z" fill="#000000" fill-rule="nonzero" fill-opacity="1"></path><path clip-path="url(#clip170)" d="M19.0324 689.303 L29.1539 689.303 L29.1539 677.24 L33.7054 677.24 L33.7054 689.303 L53.0571 689.303 Q57.4176 689.303 58.6589 688.125 Q59.9002 686.916 59.9002 683.256 L59.9002 677.24 L64.8018 677.24 L64.8018 683.256 Q64.8018 690.035 62.2874 692.613 Q59.7411 695.191 53.0571 695.191 L33.7054 695.191 L33.7054 699.488 L29.1539 699.488 L29.1539 695.191 L19.0324 695.191 L19.0324 689.303 Z" fill="#000000" fill-rule="nonzero" fill-opacity="1"></path><path clip-path="url(#clip170)" d="M29.1539 669.538 L29.1539 663.681 L64.8018 663.681 L64.8018 669.538 L29.1539 669.538 M15.2766 669.538 L15.2766 663.681 L22.6927 663.681 L22.6927 669.538 L15.2766 669.538 Z" fill="#000000" fill-rule="nonzero" fill-opacity="1"></path><path clip-path="url(#clip170)" d="M29.1539 655.628 L29.1539 649.422 L59.0727 638.282 L29.1539 627.142 L29.1539 620.935 L64.8018 634.303 L64.8018 642.26 L29.1539 655.628 Z" fill="#000000" fill-rule="nonzero" fill-opacity="1"></path><path clip-path="url(#clip170)" d="M29.1539 612.851 L29.1539 606.994 L64.8018 606.994 L64.8018 612.851 L29.1539 612.851 M15.2766 612.851 L15.2766 606.994 L22.6927 606.994 L22.6927 612.851 L15.2766 612.851 Z" fill="#000000" fill-rule="nonzero" fill-opacity="1"></path><path clip-path="url(#clip170)" d="M19.0324 588.948 L29.1539 588.948 L29.1539 576.885 L33.7054 576.885 L33.7054 588.948 L53.0571 588.948 Q57.4176 588.948 58.6589 587.77 Q59.9002 586.561 59.9002 582.9 L59.9002 576.885 L64.8018 576.885 L64.8018 582.9 Q64.8018 589.68 62.2874 592.258 Q59.7411 594.836 53.0571 594.836 L33.7054 594.836 L33.7054 599.133 L29.1539 599.133 L29.1539 594.836 L19.0324 594.836 L19.0324 588.948 Z" fill="#000000" fill-rule="nonzero" fill-opacity="1"></path><path clip-path="url(#clip170)" d="M68.112 554.35 Q74.4777 556.833 76.4192 559.188 Q78.3608 561.543 78.3608 565.49 L78.3608 570.169 L73.4592 570.169 L73.4592 566.731 Q73.4592 564.312 72.3134 562.976 Q71.1675 561.639 66.9025 560.016 L64.2289 558.965 L29.1539 573.384 L29.1539 567.177 L57.0357 556.037 L29.1539 544.897 L29.1539 538.69 L68.112 554.35 Z" fill="#000000" fill-rule="nonzero" fill-opacity="1"></path><path clip-path="url(#clip170)" d="M37.9421 460.429 Q40.1966 460.429 40.1966 463.65 L40.1966 470.896 Q43.0951 468.867 47.3785 468.867 Q51.0499 468.867 54.496 470.381 Q57.9098 471.862 60.293 474.245 Q62.6762 476.597 64.1255 479.559 Q65.5426 482.522 65.5426 485.421 Q65.5426 489.833 62.5474 492.571 Q59.5523 495.308 55.1079 495.308 Q52.7568 495.308 50.1482 494.503 Q47.5395 493.666 45.124 492.088 Q42.6764 490.509 40.7118 488.448 Q38.7473 486.355 37.5557 483.65 Q36.3641 480.912 36.3641 478.046 L36.3641 463.006 Q36.3641 462.2 36.4285 461.782 Q36.4607 461.331 36.8471 460.88 Q37.2014 460.429 37.9421 460.429 M46.6055 473.086 Q45.8326 473.086 45.1563 473.183 Q44.4477 473.279 43.5138 473.634 Q42.5476 473.988 41.8713 474.6 Q41.1627 475.212 40.6796 476.403 Q40.1966 477.563 40.1966 479.141 Q40.1966 481.363 41.4204 483.811 Q42.6442 486.258 45.6715 488.126 Q48.248 489.672 51.5974 490.445 Q54.9468 491.218 56.9436 491.218 Q60.3574 491.218 62.2254 489.575 Q64.0611 487.901 64.0611 485.357 Q64.0611 483.263 62.644 480.88 Q61.1948 478.497 58.4573 476.661 Q56.074 475.051 52.5958 474.084 Q49.1176 473.086 46.6055 473.086 Z" fill="#000000" fill-rule="nonzero" fill-opacity="1"></path><path clip-path="url(#clip170)" d="M45.7682 453.737 Q44.9341 453.737 44.6861 453.669 Q44.4381 453.579 44.0549 453.218 L34.1806 444.359 Q28.7249 439.512 23.9681 439.512 Q20.8795 439.512 18.6702 441.135 Q16.4609 442.735 16.4609 445.689 Q16.4609 447.718 17.7008 449.431 Q18.9408 451.144 21.1501 451.933 Q21.105 451.798 21.105 451.325 Q21.105 450.175 21.8264 449.544 Q22.5478 448.89 23.5172 448.89 Q24.7571 448.89 25.3658 449.701 Q25.952 450.491 25.952 451.28 Q25.952 451.595 25.8843 452.024 Q25.8167 452.429 25.1855 453.083 Q24.5317 453.737 23.3819 453.737 Q20.1581 453.737 17.5881 451.302 Q15.0181 448.845 15.0181 445.102 Q15.0181 440.864 17.543 438.091 Q20.0454 435.296 23.9681 435.296 Q25.3433 435.296 26.6057 435.724 Q27.8457 436.13 28.8151 436.694 Q29.7845 437.235 31.34 438.723 Q32.8956 440.21 34.0002 441.405 Q35.1049 442.6 37.4495 445.283 L42.2063 450.175 L42.2063 441.856 Q42.2063 437.798 41.8456 437.483 Q41.1918 437.032 37.7425 436.468 L37.7425 435.296 L45.7682 436.603 L45.7682 453.737 Z" fill="#000000" fill-rule="nonzero" fill-opacity="1"></path><path clip-path="url(#clip170)" d="M77.0695 415.908 Q77.2499 415.908 77.9488 416.111 Q78.6476 416.314 79.7297 416.81 Q80.8119 417.283 81.8038 417.959 Q82.7732 418.613 83.4946 419.695 Q84.1935 420.755 84.1935 421.972 Q84.1935 423.595 83.1114 424.678 Q82.0292 425.76 80.4061 425.76 Q79.5268 425.76 77.8586 425.151 Q70.2387 422.288 67.5108 422.288 Q64.287 422.288 64.287 424.79 Q64.287 426.211 64.8732 427.496 Q65.4593 428.781 66.2709 429.615 Q67.0825 430.449 68.0068 431.103 Q68.9311 431.756 69.5398 432.049 Q70.1485 432.32 70.419 432.388 L81.5558 435.161 Q82.5027 435.386 82.9535 435.544 Q83.4044 435.702 83.7877 436.13 Q84.1935 436.558 84.1935 437.235 Q84.1935 437.798 83.8553 438.204 Q83.5171 438.587 82.931 438.587 Q82.8408 438.587 82.3674 438.475 Q81.894 438.362 81.2402 438.204 Q80.5864 438.046 80.2032 437.979 Q77.1372 437.167 76.7088 437.054 L71.3433 435.769 Q68.6831 435.07 67.5108 435.07 Q64.287 435.07 64.287 437.573 Q64.287 438.813 64.7605 439.985 Q65.2113 441.135 65.8426 441.924 Q66.4738 442.713 67.353 443.434 Q68.2097 444.133 68.7958 444.494 Q69.3594 444.832 69.9231 445.102 L72.2226 445.689 Q72.8538 445.824 75.3111 446.478 L79.4818 447.492 Q82.5928 448.214 82.8859 448.371 Q83.5171 448.597 83.8553 449.093 Q84.1935 449.589 84.1935 450.085 Q84.1935 450.648 83.8553 451.032 Q83.5171 451.415 82.931 451.415 Q82.8408 451.415 82.5027 451.347 Q82.1645 451.28 81.6911 451.167 Q81.2176 451.054 80.9471 451.009 L70.2838 448.326 Q68.345 447.83 67.7363 447.718 Q67.105 447.582 66.4062 447.582 Q64.287 447.582 64.287 449.025 Q64.287 450.197 65.6848 450.964 Q67.0825 451.73 69.7878 452.384 Q70.5317 452.587 70.6896 452.722 Q70.8474 452.835 70.8474 453.173 Q70.8248 453.737 70.3739 453.737 Q70.2612 453.737 69.5398 453.557 Q68.8184 453.376 67.7363 453.038 Q66.6316 452.677 65.9102 452.294 Q65.4368 452.069 65.1212 451.866 Q64.8055 451.663 64.3096 451.257 Q63.8136 450.851 63.5431 450.243 Q63.2725 449.634 63.2725 448.89 Q63.2725 447.244 64.3321 446.027 Q65.3917 444.787 67.2854 444.629 Q63.2725 441.631 63.2725 437.437 Q63.2725 435.07 64.4674 433.65 Q65.6171 432.32 67.7363 432.162 Q63.2725 429.051 63.2725 424.632 Q63.2725 422.085 64.6026 420.71 Q65.9102 419.335 68.2097 419.335 Q69.4045 419.335 71.6815 419.943 Q73.9359 420.552 75.0631 420.958 Q76.1903 421.364 78.3545 422.153 Q80.4286 422.987 81.646 422.987 Q82.435 422.987 82.7957 422.716 Q83.1564 422.446 83.1564 421.86 Q83.1564 420.958 82.6379 420.169 Q82.0969 419.38 81.2176 418.816 Q80.3159 418.23 79.4141 417.847 Q78.4898 417.463 77.4528 417.17 Q76.8892 416.99 76.7539 416.9 Q76.6187 416.787 76.6187 416.471 Q76.6187 415.908 77.0695 415.908 Z" fill="#000000" fill-rule="nonzero" fill-opacity="1"></path><path clip-path="url(#clip170)" d="M54.8185 401.984 Q55.8104 401.984 56.5544 402.795 Q57.2758 403.584 57.2758 404.441 Q57.2758 405.23 56.8024 405.726 Q56.3064 406.199 55.6075 406.199 Q54.6832 406.199 53.9167 405.41 Q53.1502 404.621 53.1502 403.697 Q53.1502 402.931 53.6237 402.457 Q54.0971 401.984 54.8185 401.984 M77.0695 401.578 Q77.2499 401.578 77.9713 401.781 Q78.6702 401.984 79.7523 402.48 Q80.8119 402.953 81.8038 403.607 Q82.7957 404.261 83.4946 405.343 Q84.1935 406.402 84.1935 407.62 Q84.1935 409.265 83.1114 410.348 Q82.0292 411.407 80.4061 411.407 Q79.5268 411.407 76.7088 410.348 Q68.5028 407.282 68.1646 407.169 Q66.8796 406.65 65.7524 406.65 Q65.2339 406.65 64.9183 406.763 Q64.5801 406.876 64.4674 407.101 Q64.3321 407.327 64.3096 407.462 Q64.287 407.575 64.287 407.8 Q64.287 409.13 65.6397 410.37 Q66.9923 411.61 70.0132 412.467 Q70.5768 412.647 70.7121 412.76 Q70.8474 412.872 70.8474 413.211 Q70.8248 413.774 70.3739 413.774 Q70.2387 413.774 69.7202 413.616 Q69.1791 413.459 68.3675 413.166 Q67.5334 412.872 66.6767 412.354 Q65.7975 411.835 65.031 411.204 Q64.2645 410.55 63.7685 409.626 Q63.2725 408.702 63.2725 407.665 Q63.2725 405.974 64.3772 404.937 Q65.4593 403.877 67.06 403.877 Q67.9392 403.877 69.4947 404.486 Q71.5237 405.23 72.1775 405.501 L77.0244 407.304 Q78.7829 407.958 79.3239 408.161 Q79.8425 408.341 80.4737 408.499 Q81.0824 408.634 81.646 408.634 Q82.435 408.634 82.7957 408.386 Q83.1564 408.116 83.1564 407.53 Q83.1564 405.906 81.5558 404.711 Q79.9326 403.517 77.4528 402.818 Q77.3851 402.795 77.2724 402.773 Q76.7088 402.592 76.6412 402.412 Q76.6187 402.322 76.6187 402.141 Q76.6187 401.578 77.0695 401.578 Z" fill="#000000" fill-rule="nonzero" fill-opacity="1"></path><path clip-path="url(#clip170)" d="M77.0695 372.616 Q77.2499 372.616 77.9488 372.819 Q78.6476 373.022 79.7297 373.518 Q80.8119 373.992 81.8038 374.645 Q82.7732 375.299 83.4946 376.381 Q84.1935 377.441 84.1935 378.658 Q84.1935 380.281 83.1114 381.364 Q82.0292 382.446 80.4061 382.446 Q79.5043 382.446 78.2644 381.972 Q70.2612 378.974 67.5108 378.974 Q64.287 378.974 64.287 381.476 Q64.287 382.716 64.7605 383.888 Q65.2113 385.038 65.8426 385.827 Q66.4738 386.616 67.353 387.338 Q68.2097 388.037 68.7958 388.397 Q69.3594 388.735 69.9231 389.006 L72.2226 389.592 Q72.8538 389.727 75.3111 390.381 L79.4818 391.396 Q82.5928 392.117 82.8859 392.275 Q83.5171 392.5 83.8553 392.996 Q84.1935 393.492 84.1935 393.988 Q84.1935 394.552 83.8553 394.935 Q83.5171 395.318 82.931 395.318 Q82.8408 395.318 82.5027 395.251 Q82.1645 395.183 81.6911 395.07 Q81.2176 394.958 80.9471 394.913 L70.2838 392.23 Q68.345 391.734 67.7363 391.621 Q67.105 391.486 66.4062 391.486 Q64.287 391.486 64.287 392.929 Q64.287 394.101 65.6848 394.867 Q67.0825 395.634 69.7878 396.288 Q70.5317 396.491 70.6896 396.626 Q70.8474 396.739 70.8474 397.077 Q70.8248 397.64 70.3739 397.64 Q70.2612 397.64 69.5173 397.46 Q68.7733 397.28 67.7137 396.942 Q66.6316 396.581 65.9102 396.243 Q65.3691 395.95 65.1212 395.792 Q64.8506 395.611 64.3321 395.183 Q63.7911 394.732 63.5431 394.146 Q63.2725 393.537 63.2725 392.793 Q63.2725 391.125 64.3547 389.908 Q65.4142 388.69 67.2854 388.533 Q63.2725 385.534 63.2725 381.341 Q63.2725 378.861 64.5801 377.441 Q65.8877 376.021 68.2097 376.021 Q68.7508 376.021 69.4496 376.133 Q70.1259 376.223 70.9826 376.449 Q71.8393 376.652 72.4931 376.832 Q73.1469 377.013 74.2064 377.373 Q75.2435 377.734 75.6943 377.892 Q76.1452 378.05 77.2048 378.433 Q78.2418 378.794 78.3545 378.839 Q80.4511 379.673 81.646 379.673 Q82.435 379.673 82.7957 379.425 Q83.1564 379.154 83.1564 378.568 Q83.1564 376.99 81.6009 375.818 Q80.0228 374.623 77.4528 373.856 Q76.8892 373.676 76.7539 373.586 Q76.6187 373.473 76.6187 373.157 Q76.6187 372.616 77.0695 372.616 Z" fill="#000000" fill-rule="nonzero" fill-opacity="1"></path><polyline clip-path="url(#clip172)" style="stroke:#000000; stroke-linecap:round; stroke-linejoin:round; stroke-width:4; stroke-opacity:1; fill:none" stroke-dasharray="2, 4" points="312.198,755.128 332.209,987.652 352.22,740.597 372.232,832.791 392.243,656.045 412.254,696.065 432.266,620.785 452.277,584.851 472.289,677.191 492.3,623.133 512.311,559.98 532.323,648.074 552.334,633.291 572.345,606.868 592.357,589.443 612.368,580.441 632.379,596.792 652.391,564.76 672.402,518.206 692.413,490.661 712.425,565.485 732.436,533.696 752.448,514.248 772.459,521.91 792.47,511.423 812.482,508.148 832.493,526.4 852.504,474.772 872.516,497.097 892.527,526.004 912.538,463.639 932.55,504.047 952.561,479.532 972.573,475.374 992.584,492.946 1012.6,418.27 1032.61,481.811 1052.62,490.342 1072.63,465.949 1092.64,439.595 1112.65,454.066 1132.66,444.552 1152.67,449.769 1172.69,449.38 1192.7,450.932 1212.71,430.098 1232.72,423.774 1252.73,447.608 1272.74,438.135 1292.75,403.183 1312.77,426.105 1332.78,441.439 1352.79,402.536 1372.8,407.068 1392.81,418.137 1412.82,418.748 1432.83,422.913 1452.85,398.976 1472.86,419.172 1492.87,396.621 1512.88,428.422 1532.89,410.152 1552.9,401.448 1572.91,397.022 1592.92,393.02 1612.94,411.209 1632.95,395.565 1652.96,422.235 1672.97,426.161 1692.98,382.237 1712.99,385.387 1733,403.208 1753.02,390.592 1773.03,395.434 1793.04,377.986 1813.05,379.831 1833.06,379.97 1853.07,374.504 1873.08,378.515 1893.1,371.93 1913.11,393.008 1933.12,388.086 1953.13,364.729 1973.14,382.089 1993.15,380.36 2013.16,402.299 2033.17,371.508 2053.19,376.339 2073.2,375.677 2093.21,371.879 2113.22,382.287 2133.23,369.839 2153.24,378.101 2173.25,375.272 2193.27,354.345 2213.28,370.703 2233.29,372.833 2253.3,380.51 2273.31,365.071 2293.32,391.343 "></polyline>
<polyline clip-path="url(#clip172)" style="stroke:#e26f46; stroke-linecap:round; stroke-linejoin:round; stroke-width:4; stroke-opacity:1; fill:none" stroke-dasharray="16, 10" points="312.198,856.3 332.209,917.216 352.22,1051.91 372.232,1170.56 392.243,1137.07 412.254,1142.6 432.266,1163.03 452.277,1253.69 472.289,1270.08 492.3,1280.08 512.311,1279.97 532.323,1335.53 552.334,1316.71 572.345,1281.85 592.357,1320.46 612.368,1304.48 632.379,1248.42 652.391,1243.81 672.402,1204.55 692.413,1238.85 712.425,1179.93 732.436,1155.65 752.448,1218.69 772.459,1214.16 792.47,1222.97 812.482,1226.12 832.493,1161.67 852.504,1159.74 872.516,1199.43 892.527,1205.2 912.538,1190.28 932.55,1203.2 952.561,1165.67 972.573,1170.99 992.584,1182.11 1012.6,1186.08 1032.61,1109.77 1052.62,1114.71 1072.63,1189.02 1092.64,1127.96 1112.65,1132.75 1132.66,1133.05 1152.67,1100.26 1172.69,1109.02 1192.7,1114.72 1212.71,1103.11 1232.72,1095.55 1252.73,1096.45 1272.74,1087.03 1292.75,1087.76 1312.77,1087.51 1332.78,1086.02 1352.79,1085.82 1372.8,1087.58 1392.81,1072.95 1412.82,1058.09 1432.83,1059.58 1452.85,1058.7 1472.86,1042.58 1492.87,1047.61 1512.88,1057.02 1532.89,1059.19 1552.9,1052.98 1572.91,1053.61 1592.92,1047.75 1612.94,1041.26 1632.95,1042.89 1652.96,1042.33 1672.97,1023.01 1692.98,1024.54 1712.99,1021.69 1733,1014.79 1753.02,1015.66 1773.03,1017.62 1793.04,1016.23 1813.05,996.286 1833.06,999.093 1853.07,1004.07 1873.08,1004.41 1893.1,997.915 1913.11,996 1933.12,989.611 1953.13,991.078 1973.14,992.078 1993.15,992.583 2013.16,994.655 2033.17,993.097 2053.19,989.021 2073.2,961.861 2093.21,962.268 2113.22,957.179 2133.23,960.116 2153.24,976.695 2173.25,974.43 2193.27,976.839 2213.28,975.147 2233.29,971.727 2253.3,974.835 2273.31,974.797 2293.32,973.499 "></polyline>
<polyline clip-path="url(#clip172)" style="stroke:#3da44d; stroke-linecap:round; stroke-linejoin:round; stroke-width:4; stroke-opacity:1; fill:none" stroke-dasharray="16, 10" points="312.198,269.44 332.209,677.005 352.22,751.476 372.232,827.784 392.243,880.22 412.254,889.036 432.266,803.483 452.277,820.292 472.289,885.542 492.3,828.374 512.311,806.868 532.323,787.57 552.334,779.602 572.345,845.647 592.357,834.074 612.368,834.173 632.379,806.138 652.391,797.532 672.402,809.449 692.413,789.601 712.425,787.836 732.436,771.449 752.448,777.158 772.459,778.435 792.47,780.166 812.482,770.937 832.493,776.679 852.504,766.303 872.516,752.633 892.527,748.838 912.538,757.71 932.55,760.434 952.561,769.082 972.573,768.785 992.584,774.511 1012.6,768.619 1032.61,755.483 1052.62,750.666 1072.63,739.909 1092.64,742.473 1112.65,743.786 1132.66,718.844 1152.67,725.512 1172.69,728.02 1192.7,730.624 1212.71,733.564 1232.72,736.658 1252.73,736.434 1272.74,737.046 1292.75,724.483 1312.77,710.843 1332.78,722.39 1352.79,705.102 1372.8,709.22 1392.81,716.623 1412.82,703.272 1432.83,700.068 1452.85,690.301 1472.86,693.82 1492.87,691.971 1512.88,692.306 1532.89,687.066 1552.9,689.818 1572.91,689.108 1592.92,691.133 1612.94,692.221 1632.95,697.093 1652.96,707.727 1672.97,710.015 1692.98,702.899 1712.99,695.746 1733,693.677 1753.02,689.771 1773.03,679.958 1793.04,682.575 1813.05,684.256 1833.06,684.849 1853.07,689.278 1873.08,686.363 1893.1,678.944 1913.11,679.097 1933.12,681.052 1953.13,682.271 1973.14,686.146 1993.15,682.099 2013.16,685.433 2033.17,680.907 2053.19,683.29 2073.2,681.825 2093.21,680.082 2113.22,682.203 2133.23,685.778 2153.24,688.003 2173.25,689.339 2193.27,685.96 2213.28,685.72 2233.29,681.784 2253.3,679.338 2273.31,674.257 2293.32,668.224 "></polyline>
<polyline clip-path="url(#clip172)" style="stroke:#c271d2; stroke-linecap:round; stroke-linejoin:round; stroke-width:4; stroke-opacity:1; fill:none" stroke-dasharray="16, 10" points="312.198,86.1857 332.209,112.195 352.22,177.392 372.232,168.511 392.243,169.27 412.254,172.837 432.266,184.028 452.277,189.737 472.289,208.645 492.3,196.832 512.311,210.546 532.323,209.952 552.334,213.086 572.345,216.696 592.357,208.439 612.368,215.481 632.379,219.635 652.391,227.063 672.402,226.028 692.413,214.836 712.425,219.878 732.436,216.087 752.448,217.056 772.459,220.404 792.47,228.641 812.482,231.375 832.493,229.576 852.504,227.159 872.516,218.674 892.527,229.505 912.538,226.309 932.55,224.351 952.561,227.532 972.573,224.575 992.584,226.284 1012.6,224.927 1032.61,231.287 1052.62,233.752 1072.63,239.054 1092.64,230.595 1112.65,227.569 1132.66,217.536 1152.67,223.14 1172.69,215.845 1192.7,219.872 1212.71,219.299 1232.72,221.794 1252.73,222.701 1272.74,215.934 1292.75,215.41 1312.77,212.56 1332.78,213.366 1352.79,210.635 1372.8,216.261 1392.81,215.24 1412.82,219.629 1432.83,223.042 1452.85,223.356 1472.86,219.884 1492.87,215.369 1512.88,216.903 1532.89,219.688 1552.9,223.537 1572.91,220.093 1592.92,222.284 1612.94,219.077 1632.95,219.738 1652.96,220.939 1672.97,219.814 1692.98,220.494 1712.99,221.599 1733,215.729 1753.02,218.12 1773.03,218.005 1793.04,217.954 1813.05,218.065 1833.06,216.627 1853.07,221.139 1873.08,220.276 1893.1,220.311 1913.11,219.374 1933.12,220.283 1953.13,221.248 1973.14,220.934 1993.15,217.883 2013.16,219.11 2033.17,218.77 2053.19,217.502 2073.2,216.852 2093.21,216.991 2113.22,219.648 2133.23,218.408 2153.24,218.752 2173.25,218.511 2193.27,217.29 2213.28,216.971 2233.29,215.78 2253.3,216.542 2273.31,216.876 2293.32,217.478 "></polyline>
<polyline clip-path="url(#clip172)" style="stroke:#ac8d18; stroke-linecap:round; stroke-linejoin:round; stroke-width:4; stroke-opacity:1; fill:none" points="312.198,566.244 332.209,1132.66 352.22,1318.16 372.232,1153.13 392.243,1384.24 412.254,1362.53 432.266,1325.2 452.277,1286.99 472.289,1294.59 492.3,1302.52 512.311,1183.29 532.323,1197.85 552.334,1224.15 572.345,1278.18 592.357,1258.29 612.368,1251.11 632.379,1281.71 652.391,1269.03 672.402,1263.1 692.413,1261.24 712.425,1264.23 732.436,1267.35 752.448,1258.34 772.459,1238.19 792.47,1250.32 812.482,1238.9 832.493,1238.61 852.504,1236.3 872.516,1152.27 892.527,1131.15 912.538,1133.43 932.55,1133.32 952.561,1124.93 972.573,1142.37 992.584,1133.68 1012.6,1120.35 1032.61,1121.08 1052.62,1121.74 1072.63,1121.29 1092.64,1107.99 1112.65,1100.26 1132.66,1093.99 1152.67,1082.81 1172.69,1088.18 1192.7,1090.75 1212.71,1091.61 1232.72,1084.46 1252.73,1086.18 1272.74,1076.56 1292.75,1075.9 1312.77,1070.96 1332.78,1059.37 1352.79,1030.49 1372.8,1057.58 1392.81,1023.06 1412.82,1018.33 1432.83,1019.64 1452.85,1014.43 1472.86,999.957 1492.87,1001.84 1512.88,1005.01 1532.89,1006.64 1552.9,1014.59 1572.91,1018.93 1592.92,1017.06 1612.94,1013.59 1632.95,1008.34 1652.96,1005.3 1672.97,1011.32 1692.98,1006.78 1712.99,987.433 1733,991.554 1753.02,990.034 1773.03,1010.78 1793.04,1011.17 1813.05,1005.33 1833.06,1006.16 1853.07,1000.69 1873.08,983.416 1893.1,967.034 1913.11,972.645 1933.12,965.534 1953.13,965.065 1973.14,963.179 1993.15,963.843 2013.16,962.043 2033.17,960.666 2053.19,960.213 2073.2,954.766 2093.21,953.437 2113.22,953.706 2133.23,954.723 2153.24,957.203 2173.25,947.471 2193.27,947.701 2213.28,950.251 2233.29,935.571 2253.3,933.258 2273.31,935.352 2293.32,935.995 "></polyline>
<polyline clip-path="url(#clip172)" style="stroke:#00a9ad; stroke-linecap:round; stroke-linejoin:round; stroke-width:4; stroke-opacity:1; fill:none" points="312.198,760.043 332.209,1040.01 352.22,979.451 372.232,1075.32 392.243,972.898 412.254,964.65 432.266,932.795 452.277,853.689 472.289,790.88 492.3,891.61 512.311,878.781 532.323,904.705 552.334,922.171 572.345,931.476 592.357,873.281 612.368,846.782 632.379,847.963 652.391,886.191 672.402,894.185 692.413,898.726 712.425,886.394 732.436,833.118 752.448,830.435 772.459,836.16 792.47,822.438 812.482,851.408 832.493,843.174 852.504,855.346 872.516,857.536 892.527,848.405 912.538,834.185 932.55,851.316 952.561,841.272 972.573,849.593 992.584,846.918 1012.6,871.914 1032.61,867.625 1052.62,871.87 1072.63,855.48 1092.64,837.54 1112.65,858.363 1132.66,838.722 1152.67,805.38 1172.69,810.197 1192.7,809.385 1212.71,777.138 1232.72,774.802 1252.73,781.355 1272.74,787.513 1292.75,778.751 1312.77,779.619 1332.78,790.005 1352.79,792.695 1372.8,778.655 1392.81,757.115 1412.82,748.635 1432.83,745.952 1452.85,748.757 1472.86,745.502 1492.87,742.589 1512.88,728.583 1532.89,727.323 1552.9,725.421 1572.91,727.823 1592.92,722.127 1612.94,724.373 1632.95,720.303 1652.96,723.772 1672.97,729.959 1692.98,731.3 1712.99,721.435 1733,733.659 1753.02,728.203 1773.03,730.028 1793.04,726.223 1813.05,723.006 1833.06,721.016 1853.07,705.477 1873.08,702.37 1893.1,707.453 1913.11,702.545 1933.12,704.714 1953.13,697.631 1973.14,705.119 1993.15,704.464 2013.16,701.906 2033.17,703.907 2053.19,703.218 2073.2,708.458 2093.21,709.608 2113.22,711.58 2133.23,710.804 2153.24,709.138 2173.25,704.098 2193.27,692.997 2213.28,699.492 2233.29,690.06 2253.3,691.79 2273.31,680.282 2293.32,679.288 "></polyline>
<polyline clip-path="url(#clip172)" style="stroke:#ed5d92; stroke-linecap:round; stroke-linejoin:round; stroke-width:4; stroke-opacity:1; fill:none" points="332.209,222.046 352.22,217.368 372.232,203.576 392.243,193.931 412.254,204.237 432.266,266.741 452.277,224.541 472.289,203.242 492.3,230.411 512.311,250.369 532.323,258.328 552.334,222.386 572.345,222.14 592.357,247.668 612.368,275.822 632.379,256.407 652.391,249.484 672.402,224.835 692.413,222.404 712.425,249.165 732.436,254.835 752.448,248.258 772.459,236.031 792.47,230.268 812.482,266.698 832.493,254.811 852.504,248.821 872.516,238.79 892.527,266.786 912.538,218.415 932.55,247.401 952.561,230.451 972.573,220.411 992.584,221.319 1012.6,208.681 1032.61,202.267 1052.62,209.47 1072.63,200.148 1092.64,202.518 1112.65,190.303 1132.66,184.614 1152.67,178.162 1172.69,191.387 1192.7,197.595 1212.71,193.552 1232.72,188.514 1252.73,189.233 1272.74,189.844 1292.75,188.865 1312.77,187.733 1332.78,182.577 1352.79,179.602 1372.8,186.845 1392.81,181.094 1412.82,182.928 1432.83,178.768 1452.85,192.759 1472.86,186.618 1492.87,183.035 1512.88,177.755 1532.89,174.037 1552.9,182.267 1572.91,177.108 1592.92,175.309 1612.94,180.549 1632.95,176.514 1652.96,182.188 1672.97,174.515 1692.98,169.244 1712.99,164.138 1733,172.127 1753.02,170.38 1773.03,167.242 1793.04,165.932 1813.05,165.014 1833.06,173.632 1853.07,172.617 1873.08,171.567 1893.1,175.754 1913.11,173.675 1933.12,169.469 1953.13,180.045 1973.14,177.451 1993.15,180.001 2013.16,184.066 2033.17,175.306 2053.19,170.724 2073.2,165.897 2093.21,164.043 2113.22,168.562 2133.23,165.83 2153.24,163.112 2173.25,164.91 2193.27,168.405 2213.28,168.557 2233.29,164.155 2253.3,160.062 2273.31,159.862 2293.32,167.662 "></polyline>
<path clip-path="url(#clip170)" d="M322.764 507.829 L882.159 507.829 L882.159 93.1086 L322.764 93.1086  Z" fill="#ffffff" fill-rule="evenodd" fill-opacity="1"></path>
<polyline clip-path="url(#clip170)" style="stroke:#000000; stroke-linecap:round; stroke-linejoin:round; stroke-width:4; stroke-opacity:1; fill:none" points="322.764,507.829 882.159,507.829 882.159,93.1086 322.764,93.1086 322.764,507.829 "></polyline>
<polyline clip-path="url(#clip170)" style="stroke:#000000; stroke-linecap:round; stroke-linejoin:round; stroke-width:4; stroke-opacity:1; fill:none" stroke-dasharray="2, 4" points="346.097,144.949 486.096,144.949 "></polyline>
<path clip-path="url(#clip170)" d="M534.985 157.298 L534.985 148.016 L527.346 148.016 L527.346 144.173 L539.615 144.173 L539.615 159.011 Q536.906 160.932 533.642 161.928 Q530.379 162.9 526.675 162.9 Q518.573 162.9 513.99 158.178 Q509.43 153.432 509.43 144.983 Q509.43 136.511 513.99 131.789 Q518.573 127.044 526.675 127.044 Q530.055 127.044 533.087 127.877 Q536.142 128.71 538.712 130.331 L538.712 135.307 Q536.119 133.108 533.203 131.997 Q530.286 130.886 527.068 130.886 Q520.726 130.886 517.531 134.428 Q514.36 137.969 514.36 144.983 Q514.36 151.974 517.531 155.516 Q520.726 159.057 527.068 159.057 Q529.545 159.057 531.49 158.641 Q533.434 158.201 534.985 157.298 Z" fill="#000000" fill-rule="nonzero" fill-opacity="1"></path><path clip-path="url(#clip170)" d="M541.675 127.669 L570.911 127.669 L570.911 131.604 L558.642 131.604 L558.642 162.229 L553.943 162.229 L553.943 131.604 L541.675 131.604 L541.675 127.669 Z" fill="#000000" fill-rule="nonzero" fill-opacity="1"></path><path clip-path="url(#clip170)" d="M569.8 127.669 L599.036 127.669 L599.036 131.604 L586.767 131.604 L586.767 162.229 L582.068 162.229 L582.068 131.604 L569.8 131.604 L569.8 127.669 Z" fill="#000000" fill-rule="nonzero" fill-opacity="1"></path><polyline clip-path="url(#clip170)" style="stroke:#e26f46; stroke-linecap:round; stroke-linejoin:round; stroke-width:4; stroke-opacity:1; fill:none" stroke-dasharray="16, 10" points="346.097,196.789 486.096,196.789 "></polyline>
<path clip-path="url(#clip170)" d="M509.43 179.509 L538.666 179.509 L538.666 183.444 L526.397 183.444 L526.397 214.069 L521.698 214.069 L521.698 183.444 L509.43 183.444 L509.43 179.509 Z" fill="#000000" fill-rule="nonzero" fill-opacity="1"></path><path clip-path="url(#clip170)" d="M537.554 179.509 L566.79 179.509 L566.79 183.444 L554.522 183.444 L554.522 214.069 L549.823 214.069 L549.823 183.444 L537.554 183.444 L537.554 179.509 Z" fill="#000000" fill-rule="nonzero" fill-opacity="1"></path><path clip-path="url(#clip170)" d="M581.351 178.097 Q578.249 183.421 576.744 188.629 Q575.239 193.837 575.239 199.184 Q575.239 204.532 576.744 209.786 Q578.272 215.018 581.351 220.319 L577.647 220.319 Q574.175 214.879 572.439 209.624 Q570.726 204.37 570.726 199.184 Q570.726 194.022 572.439 188.791 Q574.152 183.56 577.647 178.097 L581.351 178.097 Z" fill="#000000" fill-rule="nonzero" fill-opacity="1"></path><path clip-path="url(#clip170)" d="M591.026 210.133 L598.665 210.133 L598.665 183.768 L590.355 185.435 L590.355 181.175 L598.619 179.509 L603.295 179.509 L603.295 210.133 L610.934 210.133 L610.934 214.069 L591.026 214.069 L591.026 210.133 Z" fill="#000000" fill-rule="nonzero" fill-opacity="1"></path><path clip-path="url(#clip170)" d="M619.105 178.097 L622.809 178.097 Q626.281 183.56 627.994 188.791 Q629.73 194.022 629.73 199.184 Q629.73 204.37 627.994 209.624 Q626.281 214.879 622.809 220.319 L619.105 220.319 Q622.184 215.018 623.688 209.786 Q625.216 204.532 625.216 199.184 Q625.216 193.837 623.688 188.629 Q622.184 183.421 619.105 178.097 Z" fill="#000000" fill-rule="nonzero" fill-opacity="1"></path><polyline clip-path="url(#clip170)" style="stroke:#3da44d; stroke-linecap:round; stroke-linejoin:round; stroke-width:4; stroke-opacity:1; fill:none" stroke-dasharray="16, 10" points="346.097,248.629 486.096,248.629 "></polyline>
<path clip-path="url(#clip170)" d="M509.43 231.349 L538.666 231.349 L538.666 235.284 L526.397 235.284 L526.397 265.909 L521.698 265.909 L521.698 235.284 L509.43 235.284 L509.43 231.349 Z" fill="#000000" fill-rule="nonzero" fill-opacity="1"></path><path clip-path="url(#clip170)" d="M537.554 231.349 L566.79 231.349 L566.79 235.284 L554.522 235.284 L554.522 265.909 L549.823 265.909 L549.823 235.284 L537.554 235.284 L537.554 231.349 Z" fill="#000000" fill-rule="nonzero" fill-opacity="1"></path><path clip-path="url(#clip170)" d="M581.351 229.937 Q578.249 235.261 576.744 240.469 Q575.239 245.677 575.239 251.024 Q575.239 256.372 576.744 261.626 Q578.272 266.858 581.351 272.159 L577.647 272.159 Q574.175 266.719 572.439 261.464 Q570.726 256.21 570.726 251.024 Q570.726 245.862 572.439 240.631 Q574.152 235.4 577.647 229.937 L581.351 229.937 Z" fill="#000000" fill-rule="nonzero" fill-opacity="1"></path><path clip-path="url(#clip170)" d="M594.244 261.973 L610.563 261.973 L610.563 265.909 L588.619 265.909 L588.619 261.973 Q591.281 259.219 595.864 254.589 Q600.471 249.936 601.651 248.594 Q603.897 246.071 604.776 244.335 Q605.679 242.575 605.679 240.886 Q605.679 238.131 603.735 236.395 Q601.813 234.659 598.712 234.659 Q596.512 234.659 594.059 235.423 Q591.628 236.187 588.851 237.737 L588.851 233.015 Q591.675 231.881 594.128 231.302 Q596.582 230.724 598.619 230.724 Q603.989 230.724 607.184 233.409 Q610.378 236.094 610.378 240.585 Q610.378 242.714 609.568 244.636 Q608.781 246.534 606.674 249.126 Q606.096 249.798 602.994 253.015 Q599.892 256.21 594.244 261.973 Z" fill="#000000" fill-rule="nonzero" fill-opacity="1"></path><path clip-path="url(#clip170)" d="M619.105 229.937 L622.809 229.937 Q626.281 235.4 627.994 240.631 Q629.73 245.862 629.73 251.024 Q629.73 256.21 627.994 261.464 Q626.281 266.719 622.809 272.159 L619.105 272.159 Q622.184 266.858 623.688 261.626 Q625.216 256.372 625.216 251.024 Q625.216 245.677 623.688 240.469 Q622.184 235.261 619.105 229.937 Z" fill="#000000" fill-rule="nonzero" fill-opacity="1"></path><polyline clip-path="url(#clip170)" style="stroke:#c271d2; stroke-linecap:round; stroke-linejoin:round; stroke-width:4; stroke-opacity:1; fill:none" stroke-dasharray="16, 10" points="346.097,300.469 486.096,300.469 "></polyline>
<path clip-path="url(#clip170)" d="M509.43 283.189 L538.666 283.189 L538.666 287.124 L526.397 287.124 L526.397 317.749 L521.698 317.749 L521.698 287.124 L509.43 287.124 L509.43 283.189 Z" fill="#000000" fill-rule="nonzero" fill-opacity="1"></path><path clip-path="url(#clip170)" d="M537.554 283.189 L566.79 283.189 L566.79 287.124 L554.522 287.124 L554.522 317.749 L549.823 317.749 L549.823 287.124 L537.554 287.124 L537.554 283.189 Z" fill="#000000" fill-rule="nonzero" fill-opacity="1"></path><path clip-path="url(#clip170)" d="M581.351 281.777 Q578.249 287.101 576.744 292.309 Q575.239 297.517 575.239 302.864 Q575.239 308.212 576.744 313.466 Q578.272 318.698 581.351 323.999 L577.647 323.999 Q574.175 318.559 572.439 313.304 Q570.726 308.05 570.726 302.864 Q570.726 297.702 572.439 292.471 Q574.152 287.24 577.647 281.777 L581.351 281.777 Z" fill="#000000" fill-rule="nonzero" fill-opacity="1"></path><path clip-path="url(#clip170)" d="M591.026 313.813 L598.665 313.813 L598.665 287.448 L590.355 289.115 L590.355 284.855 L598.619 283.189 L603.295 283.189 L603.295 313.813 L610.934 313.813 L610.934 317.749 L591.026 317.749 L591.026 313.813 Z" fill="#000000" fill-rule="nonzero" fill-opacity="1"></path><path clip-path="url(#clip170)" d="M633.225 287.263 L621.42 305.712 L633.225 305.712 L633.225 287.263 M631.998 283.189 L637.878 283.189 L637.878 305.712 L642.809 305.712 L642.809 309.601 L637.878 309.601 L637.878 317.749 L633.225 317.749 L633.225 309.601 L617.623 309.601 L617.623 305.087 L631.998 283.189 Z" fill="#000000" fill-rule="nonzero" fill-opacity="1"></path><path clip-path="url(#clip170)" d="M649.267 281.777 L652.971 281.777 Q656.443 287.24 658.156 292.471 Q659.892 297.702 659.892 302.864 Q659.892 308.05 658.156 313.304 Q656.443 318.559 652.971 323.999 L649.267 323.999 Q652.346 318.698 653.85 313.466 Q655.378 308.212 655.378 302.864 Q655.378 297.517 653.85 292.309 Q652.346 287.101 649.267 281.777 Z" fill="#000000" fill-rule="nonzero" fill-opacity="1"></path><polyline clip-path="url(#clip170)" style="stroke:#ac8d18; stroke-linecap:round; stroke-linejoin:round; stroke-width:4; stroke-opacity:1; fill:none" points="346.097,352.309 486.096,352.309 "></polyline>
<path clip-path="url(#clip170)" d="M509.43 335.029 L538.666 335.029 L538.666 338.964 L526.397 338.964 L526.397 369.589 L521.698 369.589 L521.698 338.964 L509.43 338.964 L509.43 335.029 Z" fill="#000000" fill-rule="nonzero" fill-opacity="1"></path><path clip-path="url(#clip170)" d="M537.554 335.029 L566.79 335.029 L566.79 338.964 L554.522 338.964 L554.522 369.589 L549.823 369.589 L549.823 338.964 L537.554 338.964 L537.554 335.029 Z" fill="#000000" fill-rule="nonzero" fill-opacity="1"></path><path clip-path="url(#clip170)" d="M581.351 333.617 Q578.249 338.941 576.744 344.149 Q575.239 349.357 575.239 354.704 Q575.239 360.052 576.744 365.306 Q578.272 370.538 581.351 375.839 L577.647 375.839 Q574.175 370.399 572.439 365.144 Q570.726 359.89 570.726 354.704 Q570.726 349.542 572.439 344.311 Q574.152 339.08 577.647 333.617 L581.351 333.617 Z" fill="#000000" fill-rule="nonzero" fill-opacity="1"></path><path clip-path="url(#clip170)" d="M589.452 333.57 L593.735 333.57 L593.735 354.843 L606.443 343.663 L611.883 343.663 L598.133 355.792 L612.461 369.589 L606.906 369.589 L593.735 356.927 L593.735 369.589 L589.452 369.589 L589.452 333.57 Z" fill="#000000" fill-rule="nonzero" fill-opacity="1"></path><path clip-path="url(#clip170)" d="M627.299 333.617 Q624.198 338.941 622.693 344.149 Q621.188 349.357 621.188 354.704 Q621.188 360.052 622.693 365.306 Q624.221 370.538 627.299 375.839 L623.596 375.839 Q620.123 370.399 618.387 365.144 Q616.674 359.89 616.674 354.704 Q616.674 349.542 618.387 344.311 Q620.1 339.08 623.596 333.617 L627.299 333.617 Z" fill="#000000" fill-rule="nonzero" fill-opacity="1"></path><path clip-path="url(#clip170)" d="M645.771 337.621 L657.739 369.589 L653.225 369.589 L645.957 350.422 L637.022 369.589 L632.508 369.589 L643.873 344.728 L642.16 340.144 Q641.072 337.228 638.596 337.228 L636.373 337.228 L636.373 333.57 L639.082 333.617 Q644.313 333.686 645.771 337.621 Z" fill="#000000" fill-rule="nonzero" fill-opacity="1"></path><path clip-path="url(#clip170)" d="M662.947 333.617 L666.651 333.617 Q670.123 339.08 671.836 344.311 Q673.572 349.542 673.572 354.704 Q673.572 359.89 671.836 365.144 Q670.123 370.399 666.651 375.839 L662.947 375.839 Q666.026 370.538 667.531 365.306 Q669.058 360.052 669.058 354.704 Q669.058 349.357 667.531 344.149 Q666.026 338.941 662.947 333.617 Z" fill="#000000" fill-rule="nonzero" fill-opacity="1"></path><path clip-path="url(#clip170)" d="M689.683 335.029 L693.618 335.029 L681.581 373.987 L677.646 373.987 L689.683 335.029 Z" fill="#000000" fill-rule="nonzero" fill-opacity="1"></path><path clip-path="url(#clip170)" d="M699.498 365.653 L707.137 365.653 L707.137 339.288 L698.827 340.955 L698.827 336.695 L707.091 335.029 L711.767 335.029 L711.767 365.653 L719.405 365.653 L719.405 369.589 L699.498 369.589 L699.498 365.653 Z" fill="#000000" fill-rule="nonzero" fill-opacity="1"></path><path clip-path="url(#clip170)" d="M729.336 363.709 L734.22 363.709 L734.22 367.69 L730.424 375.098 L727.438 375.098 L729.336 367.69 L729.336 363.709 Z" fill="#000000" fill-rule="nonzero" fill-opacity="1"></path><path clip-path="url(#clip170)" d="M759.799 365.653 L767.438 365.653 L767.438 339.288 L759.127 340.955 L759.127 336.695 L767.391 335.029 L772.067 335.029 L772.067 365.653 L779.706 365.653 L779.706 369.589 L759.799 369.589 L759.799 365.653 Z" fill="#000000" fill-rule="nonzero" fill-opacity="1"></path><path clip-path="url(#clip170)" d="M787.877 333.617 L791.581 333.617 Q795.053 339.08 796.766 344.311 Q798.502 349.542 798.502 354.704 Q798.502 359.89 796.766 365.144 Q795.053 370.399 791.581 375.839 L787.877 375.839 Q790.956 370.538 792.461 365.306 Q793.988 360.052 793.988 354.704 Q793.988 349.357 792.461 344.149 Q790.956 338.941 787.877 333.617 Z" fill="#000000" fill-rule="nonzero" fill-opacity="1"></path><polyline clip-path="url(#clip170)" style="stroke:#00a9ad; stroke-linecap:round; stroke-linejoin:round; stroke-width:4; stroke-opacity:1; fill:none" points="346.097,404.149 486.096,404.149 "></polyline>
<path clip-path="url(#clip170)" d="M509.43 386.869 L538.666 386.869 L538.666 390.804 L526.397 390.804 L526.397 421.429 L521.698 421.429 L521.698 390.804 L509.43 390.804 L509.43 386.869 Z" fill="#000000" fill-rule="nonzero" fill-opacity="1"></path><path clip-path="url(#clip170)" d="M537.554 386.869 L566.79 386.869 L566.79 390.804 L554.522 390.804 L554.522 421.429 L549.823 421.429 L549.823 390.804 L537.554 390.804 L537.554 386.869 Z" fill="#000000" fill-rule="nonzero" fill-opacity="1"></path><path clip-path="url(#clip170)" d="M581.351 385.457 Q578.249 390.781 576.744 395.989 Q575.239 401.197 575.239 406.544 Q575.239 411.892 576.744 417.146 Q578.272 422.378 581.351 427.679 L577.647 427.679 Q574.175 422.239 572.439 416.984 Q570.726 411.73 570.726 406.544 Q570.726 401.382 572.439 396.151 Q574.152 390.92 577.647 385.457 L581.351 385.457 Z" fill="#000000" fill-rule="nonzero" fill-opacity="1"></path><path clip-path="url(#clip170)" d="M589.452 385.41 L593.735 385.41 L593.735 406.683 L606.443 395.503 L611.883 395.503 L598.133 407.632 L612.461 421.429 L606.906 421.429 L593.735 408.767 L593.735 421.429 L589.452 421.429 L589.452 385.41 Z" fill="#000000" fill-rule="nonzero" fill-opacity="1"></path><path clip-path="url(#clip170)" d="M627.299 385.457 Q624.198 390.781 622.693 395.989 Q621.188 401.197 621.188 406.544 Q621.188 411.892 622.693 417.146 Q624.221 422.378 627.299 427.679 L623.596 427.679 Q620.123 422.239 618.387 416.984 Q616.674 411.73 616.674 406.544 Q616.674 401.382 618.387 396.151 Q620.1 390.92 623.596 385.457 L627.299 385.457 Z" fill="#000000" fill-rule="nonzero" fill-opacity="1"></path><path clip-path="url(#clip170)" d="M645.771 389.461 L657.739 421.429 L653.225 421.429 L645.957 402.262 L637.022 421.429 L632.508 421.429 L643.873 396.568 L642.16 391.984 Q641.072 389.068 638.596 389.068 L636.373 389.068 L636.373 385.41 L639.082 385.457 Q644.313 385.526 645.771 389.461 Z" fill="#000000" fill-rule="nonzero" fill-opacity="1"></path><path clip-path="url(#clip170)" d="M662.947 385.457 L666.651 385.457 Q670.123 390.92 671.836 396.151 Q673.572 401.382 673.572 406.544 Q673.572 411.73 671.836 416.984 Q670.123 422.239 666.651 427.679 L662.947 427.679 Q666.026 422.378 667.531 417.146 Q669.058 411.892 669.058 406.544 Q669.058 401.197 667.531 395.989 Q666.026 390.781 662.947 385.457 Z" fill="#000000" fill-rule="nonzero" fill-opacity="1"></path><path clip-path="url(#clip170)" d="M689.683 386.869 L693.618 386.869 L681.581 425.827 L677.646 425.827 L689.683 386.869 Z" fill="#000000" fill-rule="nonzero" fill-opacity="1"></path><path clip-path="url(#clip170)" d="M702.716 417.493 L719.035 417.493 L719.035 421.429 L697.091 421.429 L697.091 417.493 Q699.753 414.739 704.336 410.109 Q708.942 405.456 710.123 404.114 Q712.368 401.591 713.248 399.855 Q714.151 398.095 714.151 396.406 Q714.151 393.651 712.206 391.915 Q710.285 390.179 707.183 390.179 Q704.984 390.179 702.53 390.943 Q700.1 391.707 697.322 393.257 L697.322 388.535 Q700.146 387.401 702.6 386.822 Q705.054 386.244 707.091 386.244 Q712.461 386.244 715.655 388.929 Q718.85 391.614 718.85 396.105 Q718.85 398.234 718.04 400.156 Q717.253 402.054 715.146 404.646 Q714.567 405.318 711.466 408.535 Q708.364 411.73 702.716 417.493 Z" fill="#000000" fill-rule="nonzero" fill-opacity="1"></path><path clip-path="url(#clip170)" d="M729.336 415.549 L734.22 415.549 L734.22 419.53 L730.424 426.938 L727.438 426.938 L729.336 419.53 L729.336 415.549 Z" fill="#000000" fill-rule="nonzero" fill-opacity="1"></path><path clip-path="url(#clip170)" d="M763.016 417.493 L779.336 417.493 L779.336 421.429 L757.391 421.429 L757.391 417.493 Q760.053 414.739 764.637 410.109 Q769.243 405.456 770.424 404.114 Q772.669 401.591 773.549 399.855 Q774.451 398.095 774.451 396.406 Q774.451 393.651 772.507 391.915 Q770.586 390.179 767.484 390.179 Q765.285 390.179 762.831 390.943 Q760.401 391.707 757.623 393.257 L757.623 388.535 Q760.447 387.401 762.9 386.822 Q765.354 386.244 767.391 386.244 Q772.762 386.244 775.956 388.929 Q779.15 391.614 779.15 396.105 Q779.15 398.234 778.34 400.156 Q777.553 402.054 775.447 404.646 Q774.868 405.318 771.766 408.535 Q768.664 411.73 763.016 417.493 Z" fill="#000000" fill-rule="nonzero" fill-opacity="1"></path><path clip-path="url(#clip170)" d="M787.877 385.457 L791.581 385.457 Q795.053 390.92 796.766 396.151 Q798.502 401.382 798.502 406.544 Q798.502 411.73 796.766 416.984 Q795.053 422.239 791.581 427.679 L787.877 427.679 Q790.956 422.378 792.461 417.146 Q793.988 411.892 793.988 406.544 Q793.988 401.197 792.461 395.989 Q790.956 390.781 787.877 385.457 Z" fill="#000000" fill-rule="nonzero" fill-opacity="1"></path><polyline clip-path="url(#clip170)" style="stroke:#ed5d92; stroke-linecap:round; stroke-linejoin:round; stroke-width:4; stroke-opacity:1; fill:none" points="346.097,455.989 486.096,455.989 "></polyline>
<path clip-path="url(#clip170)" d="M509.43 438.709 L538.666 438.709 L538.666 442.644 L526.397 442.644 L526.397 473.269 L521.698 473.269 L521.698 442.644 L509.43 442.644 L509.43 438.709 Z" fill="#000000" fill-rule="nonzero" fill-opacity="1"></path><path clip-path="url(#clip170)" d="M537.554 438.709 L566.79 438.709 L566.79 442.644 L554.522 442.644 L554.522 473.269 L549.823 473.269 L549.823 442.644 L537.554 442.644 L537.554 438.709 Z" fill="#000000" fill-rule="nonzero" fill-opacity="1"></path><path clip-path="url(#clip170)" d="M581.351 437.297 Q578.249 442.621 576.744 447.829 Q575.239 453.037 575.239 458.384 Q575.239 463.732 576.744 468.986 Q578.272 474.218 581.351 479.519 L577.647 479.519 Q574.175 474.079 572.439 468.824 Q570.726 463.57 570.726 458.384 Q570.726 453.222 572.439 447.991 Q574.152 442.76 577.647 437.297 L581.351 437.297 Z" fill="#000000" fill-rule="nonzero" fill-opacity="1"></path><path clip-path="url(#clip170)" d="M589.452 437.25 L593.735 437.25 L593.735 458.523 L606.443 447.343 L611.883 447.343 L598.133 459.472 L612.461 473.269 L606.906 473.269 L593.735 460.607 L593.735 473.269 L589.452 473.269 L589.452 437.25 Z" fill="#000000" fill-rule="nonzero" fill-opacity="1"></path><path clip-path="url(#clip170)" d="M627.299 437.297 Q624.198 442.621 622.693 447.829 Q621.188 453.037 621.188 458.384 Q621.188 463.732 622.693 468.986 Q624.221 474.218 627.299 479.519 L623.596 479.519 Q620.123 474.079 618.387 468.824 Q616.674 463.57 616.674 458.384 Q616.674 453.222 618.387 447.991 Q620.1 442.76 623.596 437.297 L627.299 437.297 Z" fill="#000000" fill-rule="nonzero" fill-opacity="1"></path><path clip-path="url(#clip170)" d="M645.771 441.301 L657.739 473.269 L653.225 473.269 L645.957 454.102 L637.022 473.269 L632.508 473.269 L643.873 448.408 L642.16 443.824 Q641.072 440.908 638.596 440.908 L636.373 440.908 L636.373 437.25 L639.082 437.297 Q644.313 437.366 645.771 441.301 Z" fill="#000000" fill-rule="nonzero" fill-opacity="1"></path><path clip-path="url(#clip170)" d="M662.947 437.297 L666.651 437.297 Q670.123 442.76 671.836 447.991 Q673.572 453.222 673.572 458.384 Q673.572 463.57 671.836 468.824 Q670.123 474.079 666.651 479.519 L662.947 479.519 Q666.026 474.218 667.531 468.986 Q669.058 463.732 669.058 458.384 Q669.058 453.037 667.531 447.829 Q666.026 442.621 662.947 437.297 Z" fill="#000000" fill-rule="nonzero" fill-opacity="1"></path><path clip-path="url(#clip170)" d="M689.683 438.709 L693.618 438.709 L681.581 477.667 L677.646 477.667 L689.683 438.709 Z" fill="#000000" fill-rule="nonzero" fill-opacity="1"></path><path clip-path="url(#clip170)" d="M699.498 469.333 L707.137 469.333 L707.137 442.968 L698.827 444.635 L698.827 440.375 L707.091 438.709 L711.767 438.709 L711.767 469.333 L719.405 469.333 L719.405 473.269 L699.498 473.269 L699.498 469.333 Z" fill="#000000" fill-rule="nonzero" fill-opacity="1"></path><path clip-path="url(#clip170)" d="M741.697 442.783 L729.891 461.232 L741.697 461.232 L741.697 442.783 M740.47 438.709 L746.35 438.709 L746.35 461.232 L751.28 461.232 L751.28 465.121 L746.35 465.121 L746.35 473.269 L741.697 473.269 L741.697 465.121 L726.095 465.121 L726.095 460.607 L740.47 438.709 Z" fill="#000000" fill-rule="nonzero" fill-opacity="1"></path><path clip-path="url(#clip170)" d="M759.498 467.389 L764.382 467.389 L764.382 471.37 L760.586 478.778 L757.6 478.778 L759.498 471.37 L759.498 467.389 Z" fill="#000000" fill-rule="nonzero" fill-opacity="1"></path><path clip-path="url(#clip170)" d="M789.961 469.333 L797.599 469.333 L797.599 442.968 L789.289 444.635 L789.289 440.375 L797.553 438.709 L802.229 438.709 L802.229 469.333 L809.868 469.333 L809.868 473.269 L789.961 473.269 L789.961 469.333 Z" fill="#000000" fill-rule="nonzero" fill-opacity="1"></path><path clip-path="url(#clip170)" d="M832.159 442.783 L820.354 461.232 L832.159 461.232 L832.159 442.783 M830.933 438.709 L836.812 438.709 L836.812 461.232 L841.743 461.232 L841.743 465.121 L836.812 465.121 L836.812 473.269 L832.159 473.269 L832.159 465.121 L816.558 465.121 L816.558 460.607 L830.933 438.709 Z" fill="#000000" fill-rule="nonzero" fill-opacity="1"></path><path clip-path="url(#clip170)" d="M848.201 437.297 L851.905 437.297 Q855.377 442.76 857.09 447.991 Q858.826 453.222 858.826 458.384 Q858.826 463.57 857.09 468.824 Q855.377 474.079 851.905 479.519 L848.201 479.519 Q851.28 474.218 852.784 468.986 Q854.312 463.732 854.312 458.384 Q854.312 453.037 852.784 447.829 Q851.28 442.621 848.201 437.297 Z" fill="#000000" fill-rule="nonzero" fill-opacity="1"></path></svg>