<svg xmlns="http://www.w3.org/2000/svg" xmlns:xlink="http://www.w3.org/1999/xlink" width="600" height="400" viewBox="0 0 2400 1600">
<defs>
  <clipPath id="clip330">
    <rect x="0" y="0" width="2400" height="1600"></rect>
  </clipPath>
</defs>
<path clip-path="url(#clip330)" d="M0 1600 L2400 1600 L2400 0 L0 0  Z" fill="#ffffff" fill-rule="evenodd" fill-opacity="1"></path>
<defs>
  <clipPath id="clip331">
    <rect x="480" y="0" width="1681" height="1600"></rect>
  </clipPath>
</defs>
<path clip-path="url(#clip330)" d="M251.372 1423.18 L2352.76 1423.18 L2352.76 47.2441 L251.372 47.2441  Z" fill="#ffffff" fill-rule="evenodd" fill-opacity="1"></path>
<defs>
  <clipPath id="clip332">
    <rect x="251" y="47" width="2102" height="1377"></rect>
  </clipPath>
</defs>
<polyline clip-path="url(#clip332)" style="stroke:#000000; stroke-linecap:round; stroke-linejoin:round; stroke-width:2; stroke-opacity:0.1; fill:none" points="290.821,1423.18 290.821,47.2441 "></polyline>
<polyline clip-path="url(#clip332)" style="stroke:#000000; stroke-linecap:round; stroke-linejoin:round; stroke-width:2; stroke-opacity:0.1; fill:none" points="791.436,1423.18 791.436,47.2441 "></polyline>
<polyline clip-path="url(#clip332)" style="stroke:#000000; stroke-linecap:round; stroke-linejoin:round; stroke-width:2; stroke-opacity:0.1; fill:none" points="1292.05,1423.18 1292.05,47.2441 "></polyline>
<polyline clip-path="url(#clip332)" style="stroke:#000000; stroke-linecap:round; stroke-linejoin:round; stroke-width:2; stroke-opacity:0.1; fill:none" points="1792.67,1423.18 1792.67,47.2441 "></polyline>
<polyline clip-path="url(#clip332)" style="stroke:#000000; stroke-linecap:round; stroke-linejoin:round; stroke-width:2; stroke-opacity:0.1; fill:none" points="2293.28,1423.18 2293.28,47.2441 "></polyline>
<polyline clip-path="url(#clip332)" style="stroke:#000000; stroke-linecap:round; stroke-linejoin:round; stroke-width:2; stroke-opacity:0.1; fill:none" points="251.372,1196.97 2352.76,1196.97 "></polyline>
<polyline clip-path="url(#clip332)" style="stroke:#000000; stroke-linecap:round; stroke-linejoin:round; stroke-width:2; stroke-opacity:0.1; fill:none" points="251.372,280.422 2352.76,280.422 "></polyline>
<polyline clip-path="url(#clip330)" style="stroke:#000000; stroke-linecap:round; stroke-linejoin:round; stroke-width:4; stroke-opacity:1; fill:none" points="251.372,1423.18 2352.76,1423.18 "></polyline>
<polyline clip-path="url(#clip330)" style="stroke:#000000; stroke-linecap:round; stroke-linejoin:round; stroke-width:4; stroke-opacity:1; fill:none" points="290.821,1423.18 290.821,1404.28 "></polyline>
<polyline clip-path="url(#clip330)" style="stroke:#000000; stroke-linecap:round; stroke-linejoin:round; stroke-width:4; stroke-opacity:1; fill:none" points="791.436,1423.18 791.436,1404.28 "></polyline>
<polyline clip-path="url(#clip330)" style="stroke:#000000; stroke-linecap:round; stroke-linejoin:round; stroke-width:4; stroke-opacity:1; fill:none" points="1292.05,1423.18 1292.05,1404.28 "></polyline>
<polyline clip-path="url(#clip330)" style="stroke:#000000; stroke-linecap:round; stroke-linejoin:round; stroke-width:4; stroke-opacity:1; fill:none" points="1792.67,1423.18 1792.67,1404.28 "></polyline>
<polyline clip-path="url(#clip330)" style="stroke:#000000; stroke-linecap:round; stroke-linejoin:round; stroke-width:4; stroke-opacity:1; fill:none" points="2293.28,1423.18 2293.28,1404.28 "></polyline>
<path clip-path="url(#clip330)" d="M290.821 1454.1 Q287.21 1454.1 285.381 1457.66 Q283.575 1461.2 283.575 1468.33 Q283.575 1475.44 285.381 1479.01 Q287.21 1482.55 290.821 1482.55 Q294.455 1482.55 296.26 1479.01 Q298.089 1475.44 298.089 1468.33 Q298.089 1461.2 296.26 1457.66 Q294.455 1454.1 290.821 1454.1 M290.821 1450.39 Q296.631 1450.39 299.686 1455 Q302.765 1459.58 302.765 1468.33 Q302.765 1477.06 299.686 1481.67 Q296.631 1486.25 290.821 1486.25 Q285.011 1486.25 281.932 1481.67 Q278.876 1477.06 278.876 1468.33 Q278.876 1459.58 281.932 1455 Q285.011 1450.39 290.821 1450.39 Z" fill="#000000" fill-rule="nonzero" fill-opacity="1"></path><path clip-path="url(#clip330)" d="M770.707 1481.64 L787.027 1481.64 L787.027 1485.58 L765.082 1485.58 L765.082 1481.64 Q767.744 1478.89 772.328 1474.26 Q776.934 1469.61 778.115 1468.27 Q780.36 1465.74 781.239 1464.01 Q782.142 1462.25 782.142 1460.56 Q782.142 1457.8 780.198 1456.07 Q778.277 1454.33 775.175 1454.33 Q772.976 1454.33 770.522 1455.09 Q768.091 1455.86 765.314 1457.41 L765.314 1452.69 Q768.138 1451.55 770.591 1450.97 Q773.045 1450.39 775.082 1450.39 Q780.452 1450.39 783.647 1453.08 Q786.841 1455.77 786.841 1460.26 Q786.841 1462.39 786.031 1464.31 Q785.244 1466.2 783.138 1468.8 Q782.559 1469.47 779.457 1472.69 Q776.355 1475.88 770.707 1481.64 Z" fill="#000000" fill-rule="nonzero" fill-opacity="1"></path><path clip-path="url(#clip330)" d="M796.888 1451.02 L815.244 1451.02 L815.244 1454.96 L801.17 1454.96 L801.17 1463.43 Q802.188 1463.08 803.207 1462.92 Q804.225 1462.73 805.244 1462.73 Q811.031 1462.73 814.411 1465.9 Q817.79 1469.08 817.79 1474.49 Q817.79 1480.07 814.318 1483.17 Q810.846 1486.25 804.526 1486.25 Q802.35 1486.25 800.082 1485.88 Q797.837 1485.51 795.429 1484.77 L795.429 1480.07 Q797.513 1481.2 799.735 1481.76 Q801.957 1482.32 804.434 1482.32 Q808.438 1482.32 810.776 1480.21 Q813.114 1478.1 813.114 1474.49 Q813.114 1470.88 810.776 1468.77 Q808.438 1466.67 804.434 1466.67 Q802.559 1466.67 800.684 1467.08 Q798.832 1467.5 796.888 1468.38 L796.888 1451.02 Z" fill="#000000" fill-rule="nonzero" fill-opacity="1"></path><path clip-path="url(#clip330)" d="M1266.75 1451.02 L1285.11 1451.02 L1285.11 1454.96 L1271.03 1454.96 L1271.03 1463.43 Q1272.05 1463.08 1273.07 1462.92 Q1274.09 1462.73 1275.11 1462.73 Q1280.89 1462.73 1284.27 1465.9 Q1287.65 1469.08 1287.65 1474.49 Q1287.65 1480.07 1284.18 1483.17 Q1280.71 1486.25 1274.39 1486.25 Q1272.21 1486.25 1269.95 1485.88 Q1267.7 1485.51 1265.29 1484.77 L1265.29 1480.07 Q1267.38 1481.2 1269.6 1481.76 Q1271.82 1482.32 1274.3 1482.32 Q1278.3 1482.32 1280.64 1480.21 Q1282.98 1478.1 1282.98 1474.49 Q1282.98 1470.88 1280.64 1468.77 Q1278.3 1466.67 1274.3 1466.67 Q1272.42 1466.67 1270.55 1467.08 Q1268.7 1467.5 1266.75 1468.38 L1266.75 1451.02 Z" fill="#000000" fill-rule="nonzero" fill-opacity="1"></path><path clip-path="url(#clip330)" d="M1306.87 1454.1 Q1303.26 1454.1 1301.43 1457.66 Q1299.62 1461.2 1299.62 1468.33 Q1299.62 1475.44 1301.43 1479.01 Q1303.26 1482.55 1306.87 1482.55 Q1310.5 1482.55 1312.31 1479.01 Q1314.13 1475.44 1314.13 1468.33 Q1314.13 1461.2 1312.31 1457.66 Q1310.5 1454.1 1306.87 1454.1 M1306.87 1450.39 Q1312.68 1450.39 1315.73 1455 Q1318.81 1459.58 1318.81 1468.33 Q1318.81 1477.06 1315.73 1481.67 Q1312.68 1486.25 1306.87 1486.25 Q1301.06 1486.25 1297.98 1481.67 Q1294.92 1477.06 1294.92 1468.33 Q1294.92 1459.58 1297.98 1455 Q1301.06 1450.39 1306.87 1450.39 Z" fill="#000000" fill-rule="nonzero" fill-opacity="1"></path><path clip-path="url(#clip330)" d="M1766.52 1451.02 L1788.74 1451.02 L1788.74 1453.01 L1776.2 1485.58 L1771.31 1485.58 L1783.12 1454.96 L1766.52 1454.96 L1766.52 1451.02 Z" fill="#000000" fill-rule="nonzero" fill-opacity="1"></path><path clip-path="url(#clip330)" d="M1797.91 1451.02 L1816.27 1451.02 L1816.27 1454.96 L1802.19 1454.96 L1802.19 1463.43 Q1803.21 1463.08 1804.23 1462.92 Q1805.25 1462.73 1806.27 1462.73 Q1812.05 1462.73 1815.43 1465.9 Q1818.81 1469.08 1818.81 1474.49 Q1818.81 1480.07 1815.34 1483.17 Q1811.87 1486.25 1805.55 1486.25 Q1803.37 1486.25 1801.1 1485.88 Q1798.86 1485.51 1796.45 1484.77 L1796.45 1480.07 Q1798.54 1481.2 1800.76 1481.76 Q1802.98 1482.32 1805.46 1482.32 Q1809.46 1482.32 1811.8 1480.21 Q1814.14 1478.1 1814.14 1474.49 Q1814.14 1470.88 1811.8 1468.77 Q1809.46 1466.67 1805.46 1466.67 Q1803.58 1466.67 1801.71 1467.08 Q1799.85 1467.5 1797.91 1468.38 L1797.91 1451.02 Z" fill="#000000" fill-rule="nonzero" fill-opacity="1"></path><path clip-path="url(#clip330)" d="M2252.89 1481.64 L2260.53 1481.64 L2260.53 1455.28 L2252.22 1456.95 L2252.22 1452.69 L2260.48 1451.02 L2265.16 1451.02 L2265.16 1481.64 L2272.8 1481.64 L2272.8 1485.58 L2252.89 1485.58 L2252.89 1481.64 Z" fill="#000000" fill-rule="nonzero" fill-opacity="1"></path><path clip-path="url(#clip330)" d="M2292.24 1454.1 Q2288.63 1454.1 2286.8 1457.66 Q2285 1461.2 2285 1468.33 Q2285 1475.44 2286.8 1479.01 Q2288.63 1482.55 2292.24 1482.55 Q2295.88 1482.55 2297.68 1479.01 Q2299.51 1475.44 2299.51 1468.33 Q2299.51 1461.2 2297.68 1457.66 Q2295.88 1454.1 2292.24 1454.1 M2292.24 1450.39 Q2298.05 1450.39 2301.11 1455 Q2304.19 1459.58 2304.19 1468.33 Q2304.19 1477.06 2301.11 1481.67 Q2298.05 1486.25 2292.24 1486.25 Q2286.43 1486.25 2283.35 1481.67 Q2280.3 1477.06 2280.3 1468.33 Q2280.3 1459.58 2283.35 1455 Q2286.43 1450.39 2292.24 1450.39 Z" fill="#000000" fill-rule="nonzero" fill-opacity="1"></path><path clip-path="url(#clip330)" d="M2322.4 1454.1 Q2318.79 1454.1 2316.96 1457.66 Q2315.16 1461.2 2315.16 1468.33 Q2315.16 1475.44 2316.96 1479.01 Q2318.79 1482.55 2322.4 1482.55 Q2326.04 1482.55 2327.84 1479.01 Q2329.67 1475.44 2329.67 1468.33 Q2329.67 1461.2 2327.84 1457.66 Q2326.04 1454.1 2322.4 1454.1 M2322.4 1450.39 Q2328.21 1450.39 2331.27 1455 Q2334.35 1459.58 2334.35 1468.33 Q2334.35 1477.06 2331.27 1481.67 Q2328.21 1486.25 2322.4 1486.25 Q2316.59 1486.25 2313.51 1481.67 Q2310.46 1477.06 2310.46 1468.33 Q2310.46 1459.58 2313.51 1455 Q2316.59 1450.39 2322.4 1450.39 Z" fill="#000000" fill-rule="nonzero" fill-opacity="1"></path><path clip-path="url(#clip330)" d="M969.281 1522.08 L969.281 1528.35 Q965.621 1526.6 962.374 1525.74 Q959.128 1524.88 956.104 1524.88 Q950.852 1524.88 947.988 1526.92 Q945.155 1528.96 945.155 1532.71 Q945.155 1535.87 947.033 1537.49 Q948.942 1539.08 954.226 1540.07 L958.109 1540.86 Q965.302 1542.23 968.708 1545.7 Q972.145 1549.14 972.145 1554.93 Q972.145 1561.84 967.498 1565.4 Q962.883 1568.97 953.939 1568.97 Q950.566 1568.97 946.746 1568.2 Q942.959 1567.44 938.885 1565.94 L938.885 1559.32 Q942.799 1561.52 946.555 1562.63 Q950.311 1563.75 953.939 1563.75 Q959.446 1563.75 962.438 1561.58 Q965.43 1559.42 965.43 1555.41 Q965.43 1551.91 963.265 1549.93 Q961.133 1547.96 956.231 1546.97 L952.316 1546.21 Q945.123 1544.78 941.908 1541.72 Q938.694 1538.67 938.694 1533.22 Q938.694 1526.92 943.118 1523.29 Q947.574 1519.66 955.372 1519.66 Q958.714 1519.66 962.183 1520.27 Q965.652 1520.87 969.281 1522.08 Z" fill="#000000" fill-rule="nonzero" fill-opacity="1"></path><path clip-path="url(#clip330)" d="M981.312 1553.98 L981.312 1532.4 L987.168 1532.4 L987.168 1553.75 Q987.168 1558.81 989.142 1561.36 Q991.115 1563.87 995.062 1563.87 Q999.804 1563.87 1002.54 1560.85 Q1005.31 1557.83 1005.31 1552.61 L1005.31 1532.4 L1011.17 1532.4 L1011.17 1568.04 L1005.31 1568.04 L1005.31 1562.57 Q1003.18 1565.82 1000.35 1567.41 Q997.545 1568.97 993.821 1568.97 Q987.678 1568.97 984.495 1565.15 Q981.312 1561.33 981.312 1553.98 M996.049 1531.54 L996.049 1531.54 Z" fill="#000000" fill-rule="nonzero" fill-opacity="1"></path><path clip-path="url(#clip330)" d="M1048.82 1550.25 Q1048.82 1543.79 1046.15 1540.13 Q1043.5 1536.44 1038.86 1536.44 Q1034.21 1536.44 1031.54 1540.13 Q1028.9 1543.79 1028.9 1550.25 Q1028.9 1556.71 1031.54 1560.4 Q1034.21 1564.07 1038.86 1564.07 Q1043.5 1564.07 1046.15 1560.4 Q1048.82 1556.71 1048.82 1550.25 M1028.9 1537.81 Q1030.74 1534.62 1033.54 1533.1 Q1036.38 1531.54 1040.29 1531.54 Q1046.78 1531.54 1050.83 1536.69 Q1054.9 1541.85 1054.9 1550.25 Q1054.9 1558.65 1050.83 1563.81 Q1046.78 1568.97 1040.29 1568.97 Q1036.38 1568.97 1033.54 1567.44 Q1030.74 1565.88 1028.9 1562.7 L1028.9 1568.04 L1023.01 1568.04 L1023.01 1518.52 L1028.9 1518.52 L1028.9 1537.81 Z" fill="#000000" fill-rule="nonzero" fill-opacity="1"></path><path clip-path="url(#clip330)" d="M1087.33 1533.45 L1087.33 1538.98 Q1084.85 1537.71 1082.18 1537.07 Q1079.5 1536.44 1076.64 1536.44 Q1072.28 1536.44 1070.08 1537.77 Q1067.92 1539.11 1067.92 1541.79 Q1067.92 1543.82 1069.48 1545 Q1071.04 1546.15 1075.75 1547.2 L1077.75 1547.64 Q1083.99 1548.98 1086.6 1551.43 Q1089.24 1553.85 1089.24 1558.21 Q1089.24 1563.17 1085.3 1566.07 Q1081.38 1568.97 1074.51 1568.97 Q1071.64 1568.97 1068.52 1568.39 Q1065.43 1567.85 1062 1566.74 L1062 1560.69 Q1065.24 1562.38 1068.39 1563.24 Q1071.55 1564.07 1074.63 1564.07 Q1078.77 1564.07 1081 1562.66 Q1083.23 1561.23 1083.23 1558.65 Q1083.23 1556.27 1081.6 1554.99 Q1080.01 1553.72 1074.57 1552.54 L1072.53 1552.07 Q1067.09 1550.92 1064.67 1548.56 Q1062.25 1546.18 1062.25 1542.04 Q1062.25 1537.01 1065.82 1534.27 Q1069.38 1531.54 1075.94 1531.54 Q1079.18 1531.54 1082.05 1532.01 Q1084.91 1532.49 1087.33 1533.45 Z" fill="#000000" fill-rule="nonzero" fill-opacity="1"></path><path clip-path="url(#clip330)" d="M1104.23 1562.7 L1104.23 1581.6 L1098.35 1581.6 L1098.35 1532.4 L1104.23 1532.4 L1104.23 1537.81 Q1106.08 1534.62 1108.88 1533.1 Q1111.71 1531.54 1115.63 1531.54 Q1122.12 1531.54 1126.16 1536.69 Q1130.24 1541.85 1130.24 1550.25 Q1130.24 1558.65 1126.16 1563.81 Q1122.12 1568.97 1115.63 1568.97 Q1111.71 1568.97 1108.88 1567.44 Q1106.08 1565.88 1104.23 1562.7 M1124.16 1550.25 Q1124.16 1543.79 1121.48 1540.13 Q1118.84 1536.44 1114.2 1536.44 Q1109.55 1536.44 1106.88 1540.13 Q1104.23 1543.79 1104.23 1550.25 Q1104.23 1556.71 1106.88 1560.4 Q1109.55 1564.07 1114.2 1564.07 Q1118.84 1564.07 1121.48 1560.4 Q1124.16 1556.71 1124.16 1550.25 Z" fill="#000000" fill-rule="nonzero" fill-opacity="1"></path><path clip-path="url(#clip330)" d="M1156.15 1550.12 Q1149.05 1550.12 1146.31 1551.75 Q1143.57 1553.37 1143.57 1557.29 Q1143.57 1560.4 1145.61 1562.25 Q1147.68 1564.07 1151.21 1564.07 Q1156.08 1564.07 1159.01 1560.63 Q1161.97 1557.16 1161.97 1551.43 L1161.97 1550.12 L1156.15 1550.12 M1167.83 1547.71 L1167.83 1568.04 L1161.97 1568.04 L1161.97 1562.63 Q1159.97 1565.88 1156.97 1567.44 Q1153.98 1568.97 1149.65 1568.97 Q1144.18 1568.97 1140.93 1565.91 Q1137.72 1562.82 1137.72 1557.67 Q1137.72 1551.65 1141.73 1548.6 Q1145.77 1545.54 1153.76 1545.54 L1161.97 1545.54 L1161.97 1544.97 Q1161.97 1540.93 1159.3 1538.73 Q1156.66 1536.5 1151.85 1536.5 Q1148.79 1536.5 1145.9 1537.23 Q1143 1537.97 1140.33 1539.43 L1140.33 1534.02 Q1143.54 1532.78 1146.57 1532.17 Q1149.59 1531.54 1152.45 1531.54 Q1160.19 1531.54 1164.01 1535.55 Q1167.83 1539.56 1167.83 1547.71 Z" fill="#000000" fill-rule="nonzero" fill-opacity="1"></path><path clip-path="url(#clip330)" d="M1205.54 1533.76 L1205.54 1539.24 Q1203.06 1537.87 1200.55 1537.2 Q1198.06 1536.5 1195.52 1536.5 Q1189.82 1536.5 1186.67 1540.13 Q1183.52 1543.73 1183.52 1550.25 Q1183.52 1556.78 1186.67 1560.4 Q1189.82 1564 1195.52 1564 Q1198.06 1564 1200.55 1563.33 Q1203.06 1562.63 1205.54 1561.26 L1205.54 1566.68 Q1203.09 1567.82 1200.45 1568.39 Q1197.84 1568.97 1194.88 1568.97 Q1186.83 1568.97 1182.09 1563.91 Q1177.34 1558.85 1177.34 1550.25 Q1177.34 1541.53 1182.12 1536.53 Q1186.92 1531.54 1195.26 1531.54 Q1197.97 1531.54 1200.55 1532.11 Q1203.13 1532.65 1205.54 1533.76 Z" fill="#000000" fill-rule="nonzero" fill-opacity="1"></path><path clip-path="url(#clip330)" d="M1246.22 1548.76 L1246.22 1551.62 L1219.29 1551.62 Q1219.68 1557.67 1222.92 1560.85 Q1226.2 1564 1232.03 1564 Q1235.4 1564 1238.55 1563.17 Q1241.73 1562.35 1244.85 1560.69 L1244.85 1566.23 Q1241.7 1567.57 1238.39 1568.27 Q1235.08 1568.97 1231.68 1568.97 Q1223.15 1568.97 1218.15 1564 Q1213.18 1559.04 1213.18 1550.57 Q1213.18 1541.82 1217.89 1536.69 Q1222.64 1531.54 1230.66 1531.54 Q1237.85 1531.54 1242.02 1536.18 Q1246.22 1540.8 1246.22 1548.76 M1240.36 1547.04 Q1240.3 1542.23 1237.66 1539.37 Q1235.05 1536.5 1230.72 1536.5 Q1225.82 1536.5 1222.86 1539.27 Q1219.93 1542.04 1219.48 1547.07 L1240.36 1547.04 Z" fill="#000000" fill-rule="nonzero" fill-opacity="1"></path><path clip-path="url(#clip330)" d="M1300.01 1537.81 L1300.01 1518.52 L1305.87 1518.52 L1305.87 1568.04 L1300.01 1568.04 L1300.01 1562.7 Q1298.17 1565.88 1295.33 1567.44 Q1292.53 1568.97 1288.58 1568.97 Q1282.12 1568.97 1278.05 1563.81 Q1274.01 1558.65 1274.01 1550.25 Q1274.01 1541.85 1278.05 1536.69 Q1282.12 1531.54 1288.58 1531.54 Q1292.53 1531.54 1295.33 1533.1 Q1298.17 1534.62 1300.01 1537.81 M1280.05 1550.25 Q1280.05 1556.71 1282.7 1560.4 Q1285.37 1564.07 1290.02 1564.07 Q1294.66 1564.07 1297.34 1560.4 Q1300.01 1556.71 1300.01 1550.25 Q1300.01 1543.79 1297.34 1540.13 Q1294.66 1536.44 1290.02 1536.44 Q1285.37 1536.44 1282.7 1540.13 Q1280.05 1543.79 1280.05 1550.25 Z" fill="#000000" fill-rule="nonzero" fill-opacity="1"></path><path clip-path="url(#clip330)" d="M1317.93 1532.4 L1323.79 1532.4 L1323.79 1568.04 L1317.93 1568.04 L1317.93 1532.4 M1317.93 1518.52 L1323.79 1518.52 L1323.79 1525.93 L1317.93 1525.93 L1317.93 1518.52 Z" fill="#000000" fill-rule="nonzero" fill-opacity="1"></path><path clip-path="url(#clip330)" d="M1363.8 1539.24 Q1365.99 1535.29 1369.05 1533.41 Q1372.1 1531.54 1376.24 1531.54 Q1381.81 1531.54 1384.83 1535.45 Q1387.86 1539.33 1387.86 1546.53 L1387.86 1568.04 L1381.97 1568.04 L1381.97 1546.72 Q1381.97 1541.59 1380.16 1539.11 Q1378.34 1536.63 1374.62 1536.63 Q1370.07 1536.63 1367.42 1539.65 Q1364.78 1542.68 1364.78 1547.9 L1364.78 1568.04 L1358.89 1568.04 L1358.89 1546.72 Q1358.89 1541.56 1357.08 1539.11 Q1355.27 1536.63 1351.48 1536.63 Q1346.99 1536.63 1344.35 1539.68 Q1341.71 1542.71 1341.71 1547.9 L1341.71 1568.04 L1335.82 1568.04 L1335.82 1532.4 L1341.71 1532.4 L1341.71 1537.93 Q1343.71 1534.66 1346.51 1533.1 Q1349.31 1531.54 1353.16 1531.54 Q1357.05 1531.54 1359.75 1533.51 Q1362.49 1535.48 1363.8 1539.24 Z" fill="#000000" fill-rule="nonzero" fill-opacity="1"></path><path clip-path="url(#clip330)" d="M1430.03 1548.76 L1430.03 1551.62 L1403.1 1551.62 Q1403.49 1557.67 1406.73 1560.85 Q1410.01 1564 1415.84 1564 Q1419.21 1564 1422.36 1563.17 Q1425.54 1562.35 1428.66 1560.69 L1428.66 1566.23 Q1425.51 1567.57 1422.2 1568.27 Q1418.89 1568.97 1415.49 1568.97 Q1406.95 1568.97 1401.96 1564 Q1396.99 1559.04 1396.99 1550.57 Q1396.99 1541.82 1401.7 1536.69 Q1406.45 1531.54 1414.47 1531.54 Q1421.66 1531.54 1425.83 1536.18 Q1430.03 1540.8 1430.03 1548.76 M1424.17 1547.04 Q1424.11 1542.23 1421.47 1539.37 Q1418.86 1536.5 1414.53 1536.5 Q1409.63 1536.5 1406.67 1539.27 Q1403.74 1542.04 1403.29 1547.07 L1424.17 1547.04 Z" fill="#000000" fill-rule="nonzero" fill-opacity="1"></path><path clip-path="url(#clip330)" d="M1469.28 1546.53 L1469.28 1568.04 L1463.42 1568.04 L1463.42 1546.72 Q1463.42 1541.66 1461.45 1539.14 Q1459.47 1536.63 1455.53 1536.63 Q1450.78 1536.63 1448.05 1539.65 Q1445.31 1542.68 1445.31 1547.9 L1445.31 1568.04 L1439.42 1568.04 L1439.42 1532.4 L1445.31 1532.4 L1445.31 1537.93 Q1447.41 1534.72 1450.24 1533.13 Q1453.11 1531.54 1456.83 1531.54 Q1462.97 1531.54 1466.12 1535.36 Q1469.28 1539.14 1469.28 1546.53 Z" fill="#000000" fill-rule="nonzero" fill-opacity="1"></path><path clip-path="url(#clip330)" d="M1503.68 1533.45 L1503.68 1538.98 Q1501.2 1537.71 1498.53 1537.07 Q1495.85 1536.44 1492.99 1536.44 Q1488.63 1536.44 1486.43 1537.77 Q1484.27 1539.11 1484.27 1541.79 Q1484.27 1543.82 1485.83 1545 Q1487.39 1546.15 1492.1 1547.2 L1494.1 1547.64 Q1500.34 1548.98 1502.95 1551.43 Q1505.59 1553.85 1505.59 1558.21 Q1505.59 1563.17 1501.64 1566.07 Q1497.73 1568.97 1490.85 1568.97 Q1487.99 1568.97 1484.87 1568.39 Q1481.78 1567.85 1478.35 1566.74 L1478.35 1560.69 Q1481.59 1562.38 1484.74 1563.24 Q1487.89 1564.07 1490.98 1564.07 Q1495.12 1564.07 1497.35 1562.66 Q1499.58 1561.23 1499.58 1558.65 Q1499.58 1556.27 1497.95 1554.99 Q1496.36 1553.72 1490.92 1552.54 L1488.88 1552.07 Q1483.44 1550.92 1481.02 1548.56 Q1478.6 1546.18 1478.6 1542.04 Q1478.6 1537.01 1482.17 1534.27 Q1485.73 1531.54 1492.29 1531.54 Q1495.53 1531.54 1498.4 1532.01 Q1501.26 1532.49 1503.68 1533.45 Z" fill="#000000" fill-rule="nonzero" fill-opacity="1"></path><path clip-path="url(#clip330)" d="M1514.92 1532.4 L1520.77 1532.4 L1520.77 1568.04 L1514.92 1568.04 L1514.92 1532.4 M1514.92 1518.52 L1520.77 1518.52 L1520.77 1525.93 L1514.92 1525.93 L1514.92 1518.52 Z" fill="#000000" fill-rule="nonzero" fill-opacity="1"></path><path clip-path="url(#clip330)" d="M1546.84 1536.5 Q1542.13 1536.5 1539.39 1540.19 Q1536.66 1543.85 1536.66 1550.25 Q1536.66 1556.65 1539.36 1560.34 Q1542.1 1564 1546.84 1564 Q1551.52 1564 1554.26 1560.31 Q1556.99 1556.62 1556.99 1550.25 Q1556.99 1543.92 1554.26 1540.23 Q1551.52 1536.5 1546.84 1536.5 M1546.84 1531.54 Q1554.48 1531.54 1558.84 1536.5 Q1563.2 1541.47 1563.2 1550.25 Q1563.2 1559 1558.84 1564 Q1554.48 1568.97 1546.84 1568.97 Q1539.17 1568.97 1534.81 1564 Q1530.48 1559 1530.48 1550.25 Q1530.48 1541.47 1534.81 1536.5 Q1539.17 1531.54 1546.84 1531.54 Z" fill="#000000" fill-rule="nonzero" fill-opacity="1"></path><path clip-path="url(#clip330)" d="M1602.54 1546.53 L1602.54 1568.04 L1596.68 1568.04 L1596.68 1546.72 Q1596.68 1541.66 1594.71 1539.14 Q1592.74 1536.63 1588.79 1536.63 Q1584.05 1536.63 1581.31 1539.65 Q1578.57 1542.68 1578.57 1547.9 L1578.57 1568.04 L1572.69 1568.04 L1572.69 1532.4 L1578.57 1532.4 L1578.57 1537.93 Q1580.68 1534.72 1583.51 1533.13 Q1586.37 1531.54 1590.1 1531.54 Q1596.24 1531.54 1599.39 1535.36 Q1602.54 1539.14 1602.54 1546.53 Z" fill="#000000" fill-rule="nonzero" fill-opacity="1"></path><path clip-path="url(#clip330)" d="M1648.98 1524.09 L1665.43 1568.04 L1659.23 1568.04 L1649.23 1541.69 L1636.95 1568.04 L1630.74 1568.04 L1646.37 1533.86 L1644.01 1527.56 Q1642.52 1523.55 1639.11 1523.55 L1636.06 1523.55 L1636.06 1518.52 L1639.78 1518.58 Q1646.97 1518.68 1648.98 1524.09 Z" fill="#000000" fill-rule="nonzero" fill-opacity="1"></path><polyline clip-path="url(#clip330)" style="stroke:#000000; stroke-linecap:round; stroke-linejoin:round; stroke-width:4; stroke-opacity:1; fill:none" points="251.372,1423.18 251.372,47.2441 "></polyline>
<polyline clip-path="url(#clip330)" style="stroke:#000000; stroke-linecap:round; stroke-linejoin:round; stroke-width:4; stroke-opacity:1; fill:none" points="251.372,1196.97 270.27,1196.97 "></polyline>
<polyline clip-path="url(#clip330)" style="stroke:#000000; stroke-linecap:round; stroke-linejoin:round; stroke-width:4; stroke-opacity:1; fill:none" points="251.372,280.422 270.27,280.422 "></polyline>
<path clip-path="url(#clip330)" d="M114.931 1216.76 L122.57 1216.76 L122.57 1190.39 L114.26 1192.06 L114.26 1187.8 L122.524 1186.14 L127.2 1186.14 L127.2 1216.76 L134.839 1216.76 L134.839 1220.7 L114.931 1220.7 L114.931 1216.76 Z" fill="#000000" fill-rule="nonzero" fill-opacity="1"></path><path clip-path="url(#clip330)" d="M154.283 1189.21 Q150.672 1189.21 148.843 1192.78 Q147.038 1196.32 147.038 1203.45 Q147.038 1210.56 148.843 1214.12 Q150.672 1217.66 154.283 1217.66 Q157.917 1217.66 159.723 1214.12 Q161.552 1210.56 161.552 1203.45 Q161.552 1196.32 159.723 1192.78 Q157.917 1189.21 154.283 1189.21 M154.283 1185.51 Q160.093 1185.51 163.149 1190.12 Q166.227 1194.7 166.227 1203.45 Q166.227 1212.18 163.149 1216.78 Q160.093 1221.37 154.283 1221.37 Q148.473 1221.37 145.394 1216.78 Q142.339 1212.18 142.339 1203.45 Q142.339 1194.7 145.394 1190.12 Q148.473 1185.51 154.283 1185.51 Z" fill="#000000" fill-rule="nonzero" fill-opacity="1"></path><path clip-path="url(#clip330)" d="M166.227 1179.61 L190.339 1179.61 L190.339 1182.81 L166.227 1182.81 L166.227 1179.61 Z" fill="#000000" fill-rule="nonzero" fill-opacity="1"></path><path clip-path="url(#clip330)" d="M199.197 1190.09 L205.404 1190.09 L205.404 1168.67 L198.652 1170.02 L198.652 1166.56 L205.366 1165.21 L209.166 1165.21 L209.166 1190.09 L215.372 1190.09 L215.372 1193.29 L199.197 1193.29 L199.197 1190.09 Z" fill="#000000" fill-rule="nonzero" fill-opacity="1"></path><path clip-path="url(#clip330)" d="M144.667 300.215 L152.305 300.215 L152.305 273.849 L143.995 275.516 L143.995 271.257 L152.259 269.59 L156.935 269.59 L156.935 300.215 L164.574 300.215 L164.574 304.15 L144.667 304.15 L144.667 300.215 Z" fill="#000000" fill-rule="nonzero" fill-opacity="1"></path><path clip-path="url(#clip330)" d="M184.018 272.669 Q180.407 272.669 178.578 276.234 Q176.773 279.775 176.773 286.905 Q176.773 294.011 178.578 297.576 Q180.407 301.118 184.018 301.118 Q187.652 301.118 189.458 297.576 Q191.287 294.011 191.287 286.905 Q191.287 279.775 189.458 276.234 Q187.652 272.669 184.018 272.669 M184.018 268.965 Q189.828 268.965 192.884 273.572 Q195.963 278.155 195.963 286.905 Q195.963 295.632 192.884 300.238 Q189.828 304.821 184.018 304.821 Q178.208 304.821 175.129 300.238 Q172.074 295.632 172.074 286.905 Q172.074 278.155 175.129 273.572 Q178.208 268.965 184.018 268.965 Z" fill="#000000" fill-rule="nonzero" fill-opacity="1"></path><path clip-path="url(#clip330)" d="M205.667 251.161 Q202.733 251.161 201.248 254.057 Q199.781 256.935 199.781 262.728 Q199.781 268.502 201.248 271.398 Q202.733 274.276 205.667 274.276 Q208.62 274.276 210.087 271.398 Q211.573 268.502 211.573 262.728 Q211.573 256.935 210.087 254.057 Q208.62 251.161 205.667 251.161 M205.667 248.152 Q210.388 248.152 212.871 251.895 Q215.372 255.619 215.372 262.728 Q215.372 269.818 212.871 273.561 Q210.388 277.285 205.667 277.285 Q200.947 277.285 198.445 273.561 Q195.963 269.818 195.963 262.728 Q195.963 255.619 198.445 251.895 Q200.947 248.152 205.667 248.152 Z" fill="#000000" fill-rule="nonzero" fill-opacity="1"></path><path clip-path="url(#clip330)" d="M17.2818 1107.24 L17.2818 1097.66 L49.6196 1085.54 L17.2818 1073.35 L17.2818 1063.77 L64.8018 1063.77 L64.8018 1070.04 L23.0746 1070.04 L55.667 1082.29 L55.667 1088.75 L23.0746 1101.01 L64.8018 1101.01 L64.8018 1107.24 L17.2818 1107.24 Z" fill="#000000" fill-rule="nonzero" fill-opacity="1"></path><path clip-path="url(#clip330)" d="M45.5137 1020.77 L48.3783 1020.77 L48.3783 1047.69 Q54.4257 1047.31 57.6086 1044.06 Q60.7596 1040.79 60.7596 1034.96 Q60.7596 1031.59 59.9321 1028.44 Q59.1045 1025.25 57.4494 1022.13 L62.9876 1022.13 Q64.3244 1025.29 65.0246 1028.6 Q65.7249 1031.91 65.7249 1035.31 Q65.7249 1043.84 60.7596 1048.84 Q55.7944 1053.8 47.328 1053.8 Q38.5751 1053.8 33.4507 1049.09 Q28.2945 1044.35 28.2945 1036.33 Q28.2945 1029.14 32.9415 1024.97 Q37.5566 1020.77 45.5137 1020.77 M43.795 1026.62 Q38.9889 1026.69 36.1243 1029.33 Q33.2598 1031.94 33.2598 1036.27 Q33.2598 1041.17 36.0288 1044.13 Q38.7979 1047.06 43.8268 1047.5 L43.795 1026.62 Z" fill="#000000" fill-rule="nonzero" fill-opacity="1"></path><path clip-path="url(#clip330)" d="M34.5647 987.696 L15.2766 987.696 L15.2766 981.839 L64.8018 981.839 L64.8018 987.696 L59.4546 987.696 Q62.6375 989.542 64.1971 992.374 Q65.7249 995.175 65.7249 999.122 Q65.7249 1005.58 60.5686 1009.66 Q55.4124 1013.7 47.0097 1013.7 Q38.6069 1013.7 33.4507 1009.66 Q28.2945 1005.58 28.2945 999.122 Q28.2945 995.175 29.8541 992.374 Q31.3819 989.542 34.5647 987.696 M47.0097 1007.65 Q53.4709 1007.65 57.163 1005.01 Q60.8233 1002.34 60.8233 997.69 Q60.8233 993.043 57.163 990.369 Q53.4709 987.696 47.0097 987.696 Q40.5485 987.696 36.8882 990.369 Q33.1961 993.043 33.1961 997.69 Q33.1961 1002.34 36.8882 1005.01 Q40.5485 1007.65 47.0097 1007.65 Z" fill="#000000" fill-rule="nonzero" fill-opacity="1"></path><path clip-path="url(#clip330)" d="M29.1539 969.776 L29.1539 963.92 L64.8018 963.92 L64.8018 969.776 L29.1539 969.776 M15.2766 969.776 L15.2766 963.92 L22.6927 963.92 L22.6927 969.776 L15.2766 969.776 Z" fill="#000000" fill-rule="nonzero" fill-opacity="1"></path><path clip-path="url(#clip330)" d="M46.8824 935.465 Q46.8824 942.563 48.5056 945.3 Q50.1289 948.037 54.0438 948.037 Q57.163 948.037 59.009 946 Q60.8233 943.931 60.8233 940.398 Q60.8233 935.529 57.3858 932.6 Q53.9165 929.64 48.1873 929.64 L46.8824 929.64 L46.8824 935.465 M44.4634 923.784 L64.8018 923.784 L64.8018 929.64 L59.391 929.64 Q62.6375 931.645 64.1971 934.637 Q65.7249 937.629 65.7249 941.958 Q65.7249 947.432 62.6693 950.679 Q59.5819 953.894 54.4257 953.894 Q48.4101 953.894 45.3546 949.883 Q42.2991 945.841 42.2991 937.852 L42.2991 929.64 L41.7261 929.64 Q37.6839 929.64 35.4878 932.314 Q33.2598 934.956 33.2598 939.762 Q33.2598 942.817 33.9918 945.714 Q34.7239 948.61 36.188 951.284 L30.7771 951.284 Q29.5358 948.069 28.9311 945.045 Q28.2945 942.022 28.2945 939.157 Q28.2945 931.423 32.3049 927.603 Q36.3153 923.784 44.4634 923.784 Z" fill="#000000" fill-rule="nonzero" fill-opacity="1"></path><path clip-path="url(#clip330)" d="M43.2857 882.088 L64.8018 882.088 L64.8018 887.945 L43.4767 887.945 Q38.416 887.945 35.9015 889.918 Q33.3871 891.892 33.3871 895.838 Q33.3871 900.581 36.4108 903.318 Q39.4345 906.055 44.6544 906.055 L64.8018 906.055 L64.8018 911.944 L29.1539 911.944 L29.1539 906.055 L34.692 906.055 Q31.4774 903.955 29.8859 901.122 Q28.2945 898.257 28.2945 894.533 Q28.2945 888.391 32.1139 885.239 Q35.9015 882.088 43.2857 882.088 Z" fill="#000000" fill-rule="nonzero" fill-opacity="1"></path><path clip-path="url(#clip330)" d="M17.2818 849.432 L17.2818 843.003 L64.8018 843.003 L64.8018 849.432 L17.2818 849.432 Z" fill="#000000" fill-rule="nonzero" fill-opacity="1"></path><path clip-path="url(#clip330)" d="M43.2857 800.83 L64.8018 800.83 L64.8018 806.687 L43.4767 806.687 Q38.416 806.687 35.9015 808.66 Q33.3871 810.633 33.3871 814.58 Q33.3871 819.323 36.4108 822.06 Q39.4345 824.797 44.6544 824.797 L64.8018 824.797 L64.8018 830.685 L29.1539 830.685 L29.1539 824.797 L34.692 824.797 Q31.4774 822.696 29.8859 819.864 Q28.2945 816.999 28.2945 813.275 Q28.2945 807.132 32.1139 803.981 Q35.9015 800.83 43.2857 800.83 Z" fill="#000000" fill-rule="nonzero" fill-opacity="1"></path><path clip-path="url(#clip330)" d="M29.1539 789.149 L29.1539 783.293 L65.4384 783.293 Q72.2497 783.293 75.3052 785.903 Q78.3608 788.481 78.3608 794.242 L78.3608 796.47 L73.3955 796.47 L73.3955 794.91 Q73.3955 791.568 71.8359 790.359 Q70.3082 789.149 65.4384 789.149 L29.1539 789.149 M15.2766 789.149 L15.2766 783.293 L22.6927 783.293 L22.6927 789.149 L15.2766 789.149 Z" fill="#000000" fill-rule="nonzero" fill-opacity="1"></path><path clip-path="url(#clip330)" d="M45.5137 740.547 L48.3783 740.547 L48.3783 767.474 Q54.4257 767.092 57.6086 763.845 Q60.7596 760.567 60.7596 754.742 Q60.7596 751.369 59.9321 748.218 Q59.1045 745.035 57.4494 741.916 L62.9876 741.916 Q64.3244 745.067 65.0246 748.377 Q65.7249 751.687 65.7249 755.093 Q65.7249 763.623 60.7596 768.62 Q55.7944 773.585 47.328 773.585 Q38.5751 773.585 33.4507 768.874 Q28.2945 764.132 28.2945 756.111 Q28.2945 748.918 32.9415 744.748 Q37.5566 740.547 45.5137 740.547 M43.795 746.403 Q38.9889 746.467 36.1243 749.109 Q33.2598 751.719 33.2598 756.047 Q33.2598 760.949 36.0288 763.909 Q38.7979 766.837 43.8268 767.283 L43.795 746.403 Z" fill="#000000" fill-rule="nonzero" fill-opacity="1"></path><path clip-path="url(#clip330)" d="M30.5225 705.281 L35.997 705.281 Q34.6284 707.764 33.96 710.278 Q33.2598 712.761 33.2598 715.307 Q33.2598 721.004 36.8882 724.155 Q40.4848 727.306 47.0097 727.306 Q53.5345 727.306 57.163 724.155 Q60.7596 721.004 60.7596 715.307 Q60.7596 712.761 60.0912 710.278 Q59.391 707.764 58.0224 705.281 L63.4332 705.281 Q64.579 707.732 65.1519 710.374 Q65.7249 712.983 65.7249 715.944 Q65.7249 723.996 60.6641 728.739 Q55.6034 733.481 47.0097 733.481 Q38.2887 733.481 33.2916 728.707 Q28.2945 723.901 28.2945 715.562 Q28.2945 712.856 28.8674 710.278 Q29.4085 707.7 30.5225 705.281 Z" fill="#000000" fill-rule="nonzero" fill-opacity="1"></path><path clip-path="url(#clip330)" d="M19.0324 689.303 L29.1539 689.303 L29.1539 677.24 L33.7054 677.24 L33.7054 689.303 L53.0571 689.303 Q57.4176 689.303 58.6589 688.125 Q59.9002 686.916 59.9002 683.256 L59.9002 677.24 L64.8018 677.24 L64.8018 683.256 Q64.8018 690.035 62.2874 692.613 Q59.7411 695.191 53.0571 695.191 L33.7054 695.191 L33.7054 699.488 L29.1539 699.488 L29.1539 695.191 L19.0324 695.191 L19.0324 689.303 Z" fill="#000000" fill-rule="nonzero" fill-opacity="1"></path><path clip-path="url(#clip330)" d="M29.1539 669.538 L29.1539 663.681 L64.8018 663.681 L64.8018 669.538 L29.1539 669.538 M15.2766 669.538 L15.2766 663.681 L22.6927 663.681 L22.6927 669.538 L15.2766 669.538 Z" fill="#000000" fill-rule="nonzero" fill-opacity="1"></path><path clip-path="url(#clip330)" d="M29.1539 655.628 L29.1539 649.422 L59.0727 638.282 L29.1539 627.142 L29.1539 620.935 L64.8018 634.303 L64.8018 642.26 L29.1539 655.628 Z" fill="#000000" fill-rule="nonzero" fill-opacity="1"></path><path clip-path="url(#clip330)" d="M29.1539 612.851 L29.1539 606.994 L64.8018 606.994 L64.8018 612.851 L29.1539 612.851 M15.2766 612.851 L15.2766 606.994 L22.6927 606.994 L22.6927 612.851 L15.2766 612.851 Z" fill="#000000" fill-rule="nonzero" fill-opacity="1"></path><path clip-path="url(#clip330)" d="M19.0324 588.948 L29.1539 588.948 L29.1539 576.885 L33.7054 576.885 L33.7054 588.948 L53.0571 588.948 Q57.4176 588.948 58.6589 587.77 Q59.9002 586.561 59.9002 582.9 L59.9002 576.885 L64.8018 576.885 L64.8018 582.9 Q64.8018 589.68 62.2874 592.258 Q59.7411 594.836 53.0571 594.836 L33.7054 594.836 L33.7054 599.133 L29.1539 599.133 L29.1539 594.836 L19.0324 594.836 L19.0324 588.948 Z" fill="#000000" fill-rule="nonzero" fill-opacity="1"></path><path clip-path="url(#clip330)" d="M68.112 554.35 Q74.4777 556.833 76.4192 559.188 Q78.3608 561.543 78.3608 565.49 L78.3608 570.169 L73.4592 570.169 L73.4592 566.731 Q73.4592 564.312 72.3134 562.976 Q71.1675 561.639 66.9025 560.016 L64.2289 558.965 L29.1539 573.384 L29.1539 567.177 L57.0357 556.037 L29.1539 544.897 L29.1539 538.69 L68.112 554.35 Z" fill="#000000" fill-rule="nonzero" fill-opacity="1"></path><path clip-path="url(#clip330)" d="M37.9421 460.429 Q40.1966 460.429 40.1966 463.65 L40.1966 470.896 Q43.0951 468.867 47.3785 468.867 Q51.0499 468.867 54.496 470.381 Q57.9098 471.862 60.293 474.245 Q62.6762 476.597 64.1255 479.559 Q65.5426 482.522 65.5426 485.421 Q65.5426 489.833 62.5474 492.571 Q59.5523 495.308 55.1079 495.308 Q52.7568 495.308 50.1482 494.503 Q47.5395 493.666 45.124 492.088 Q42.6764 490.509 40.7118 488.448 Q38.7473 486.355 37.5557 483.65 Q36.3641 480.912 36.3641 478.046 L36.3641 463.006 Q36.3641 462.2 36.4285 461.782 Q36.4607 461.331 36.8471 460.88 Q37.2014 460.429 37.9421 460.429 M46.6055 473.086 Q45.8326 473.086 45.1563 473.183 Q44.4477 473.279 43.5138 473.634 Q42.5476 473.988 41.8713 474.6 Q41.1627 475.212 40.6796 476.403 Q40.1966 477.563 40.1966 479.141 Q40.1966 481.363 41.4204 483.811 Q42.6442 486.258 45.6715 488.126 Q48.248 489.672 51.5974 490.445 Q54.9468 491.218 56.9436 491.218 Q60.3574 491.218 62.2254 489.575 Q64.0611 487.901 64.0611 485.357 Q64.0611 483.263 62.644 480.88 Q61.1948 478.497 58.4573 476.661 Q56.074 475.051 52.5958 474.084 Q49.1176 473.086 46.6055 473.086 Z" fill="#000000" fill-rule="nonzero" fill-opacity="1"></path><path clip-path="url(#clip330)" d="M45.7682 453.737 Q44.9341 453.737 44.6861 453.669 Q44.4381 453.579 44.0549 453.218 L34.1806 444.359 Q28.7249 439.512 23.9681 439.512 Q20.8795 439.512 18.6702 441.135 Q16.4609 442.735 16.4609 445.689 Q16.4609 447.718 17.7008 449.431 Q18.9408 451.144 21.1501 451.933 Q21.105 451.798 21.105 451.325 Q21.105 450.175 21.8264 449.544 Q22.5478 448.89 23.5172 448.89 Q24.7571 448.89 25.3658 449.701 Q25.952 450.491 25.952 451.28 Q25.952 451.595 25.8843 452.024 Q25.8167 452.429 25.1855 453.083 Q24.5317 453.737 23.3819 453.737 Q20.1581 453.737 17.5881 451.302 Q15.0181 448.845 15.0181 445.102 Q15.0181 440.864 17.543 438.091 Q20.0454 435.296 23.9681 435.296 Q25.3433 435.296 26.6057 435.724 Q27.8457 436.13 28.8151 436.694 Q29.7845 437.235 31.34 438.723 Q32.8956 440.21 34.0002 441.405 Q35.1049 442.6 37.4495 445.283 L42.2063 450.175 L42.2063 441.856 Q42.2063 437.798 41.8456 437.483 Q41.1918 437.032 37.7425 436.468 L37.7425 435.296 L45.7682 436.603 L45.7682 453.737 Z" fill="#000000" fill-rule="nonzero" fill-opacity="1"></path><path clip-path="url(#clip330)" d="M77.0695 415.908 Q77.2499 415.908 77.9488 416.111 Q78.6476 416.314 79.7297 416.81 Q80.8119 417.283 81.8038 417.959 Q82.7732 418.613 83.4946 419.695 Q84.1935 420.755 84.1935 421.972 Q84.1935 423.595 83.1114 424.678 Q82.0292 425.76 80.4061 425.76 Q79.5268 425.76 77.8586 425.151 Q70.2387 422.288 67.5108 422.288 Q64.287 422.288 64.287 424.79 Q64.287 426.211 64.8732 427.496 Q65.4593 428.781 66.2709 429.615 Q67.0825 430.449 68.0068 431.103 Q68.9311 431.756 69.5398 432.049 Q70.1485 432.32 70.419 432.388 L81.5558 435.161 Q82.5027 435.386 82.9535 435.544 Q83.4044 435.702 83.7877 436.13 Q84.1935 436.558 84.1935 437.235 Q84.1935 437.798 83.8553 438.204 Q83.5171 438.587 82.931 438.587 Q82.8408 438.587 82.3674 438.475 Q81.894 438.362 81.2402 438.204 Q80.5864 438.046 80.2032 437.979 Q77.1372 437.167 76.7088 437.054 L71.3433 435.769 Q68.6831 435.07 67.5108 435.07 Q64.287 435.07 64.287 437.573 Q64.287 438.813 64.7605 439.985 Q65.2113 441.135 65.8426 441.924 Q66.4738 442.713 67.353 443.434 Q68.2097 444.133 68.7958 444.494 Q69.3594 444.832 69.9231 445.102 L72.2226 445.689 Q72.8538 445.824 75.3111 446.478 L79.4818 447.492 Q82.5928 448.214 82.8859 448.371 Q83.5171 448.597 83.8553 449.093 Q84.1935 449.589 84.1935 450.085 Q84.1935 450.648 83.8553 451.032 Q83.5171 451.415 82.931 451.415 Q82.8408 451.415 82.5027 451.347 Q82.1645 451.28 81.6911 451.167 Q81.2176 451.054 80.9471 451.009 L70.2838 448.326 Q68.345 447.83 67.7363 447.718 Q67.105 447.582 66.4062 447.582 Q64.287 447.582 64.287 449.025 Q64.287 450.197 65.6848 450.964 Q67.0825 451.73 69.7878 452.384 Q70.5317 452.587 70.6896 452.722 Q70.8474 452.835 70.8474 453.173 Q70.8248 453.737 70.3739 453.737 Q70.2612 453.737 69.5398 453.557 Q68.8184 453.376 67.7363 453.038 Q66.6316 452.677 65.9102 452.294 Q65.4368 452.069 65.1212 451.866 Q64.8055 451.663 64.3096 451.257 Q63.8136 450.851 63.5431 450.243 Q63.2725 449.634 63.2725 448.89 Q63.2725 447.244 64.3321 446.027 Q65.3917 444.787 67.2854 444.629 Q63.2725 441.631 63.2725 437.437 Q63.2725 435.07 64.4674 433.65 Q65.6171 432.32 67.7363 432.162 Q63.2725 429.051 63.2725 424.632 Q63.2725 422.085 64.6026 420.71 Q65.9102 419.335 68.2097 419.335 Q69.4045 419.335 71.6815 419.943 Q73.9359 420.552 75.0631 420.958 Q76.1903 421.364 78.3545 422.153 Q80.4286 422.987 81.646 422.987 Q82.435 422.987 82.7957 422.716 Q83.1564 422.446 83.1564 421.86 Q83.1564 420.958 82.6379 420.169 Q82.0969 419.38 81.2176 418.816 Q80.3159 418.23 79.4141 417.847 Q78.4898 417.463 77.4528 417.17 Q76.8892 416.99 76.7539 416.9 Q76.6187 416.787 76.6187 416.471 Q76.6187 415.908 77.0695 415.908 Z" fill="#000000" fill-rule="nonzero" fill-opacity="1"></path><path clip-path="url(#clip330)" d="M54.8185 401.984 Q55.8104 401.984 56.5544 402.795 Q57.2758 403.584 57.2758 404.441 Q57.2758 405.23 56.8024 405.726 Q56.3064 406.199 55.6075 406.199 Q54.6832 406.199 53.9167 405.41 Q53.1502 404.621 53.1502 403.697 Q53.1502 402.931 53.6237 402.457 Q54.0971 401.984 54.8185 401.984 M77.0695 401.578 Q77.2499 401.578 77.9713 401.781 Q78.6702 401.984 79.7523 402.48 Q80.8119 402.953 81.8038 403.607 Q82.7957 404.261 83.4946 405.343 Q84.1935 406.402 84.1935 407.62 Q84.1935 409.265 83.1114 410.348 Q82.0292 411.407 80.4061 411.407 Q79.5268 411.407 76.7088 410.348 Q68.5028 407.282 68.1646 407.169 Q66.8796 406.65 65.7524 406.65 Q65.2339 406.65 64.9183 406.763 Q64.5801 406.876 64.4674 407.101 Q64.3321 407.327 64.3096 407.462 Q64.287 407.575 64.287 407.8 Q64.287 409.13 65.6397 410.37 Q66.9923 411.61 70.0132 412.467 Q70.5768 412.647 70.7121 412.76 Q70.8474 412.872 70.8474 413.211 Q70.8248 413.774 70.3739 413.774 Q70.2387 413.774 69.7202 413.616 Q69.1791 413.459 68.3675 413.166 Q67.5334 412.872 66.6767 412.354 Q65.7975 411.835 65.031 411.204 Q64.2645 410.55 63.7685 409.626 Q63.2725 408.702 63.2725 407.665 Q63.2725 405.974 64.3772 404.937 Q65.4593 403.877 67.06 403.877 Q67.9392 403.877 69.4947 404.486 Q71.5237 405.23 72.1775 405.501 L77.0244 407.304 Q78.7829 407.958 79.3239 408.161 Q79.8425 408.341 80.4737 408.499 Q81.0824 408.634 81.646 408.634 Q82.435 408.634 82.7957 408.386 Q83.1564 408.116 83.1564 407.53 Q83.1564 405.906 81.5558 404.711 Q79.9326 403.517 77.4528 402.818 Q77.3851 402.795 77.2724 402.773 Q76.7088 402.592 76.6412 402.412 Q76.6187 402.322 76.6187 402.141 Q76.6187 401.578 77.0695 401.578 Z" fill="#000000" fill-rule="nonzero" fill-opacity="1"></path><path clip-path="url(#clip330)" d="M77.0695 372.616 Q77.2499 372.616 77.9488 372.819 Q78.6476 373.022 79.7297 373.518 Q80.8119 373.992 81.8038 374.645 Q82.7732 375.299 83.4946 376.381 Q84.1935 377.441 84.1935 378.658 Q84.1935 380.281 83.1114 381.364 Q82.0292 382.446 80.4061 382.446 Q79.5043 382.446 78.2644 381.972 Q70.2612 378.974 67.5108 378.974 Q64.287 378.974 64.287 381.476 Q64.287 382.716 64.7605 383.888 Q65.2113 385.038 65.8426 385.827 Q66.4738 386.616 67.353 387.338 Q68.2097 388.037 68.7958 388.397 Q69.3594 388.735 69.9231 389.006 L72.2226 389.592 Q72.8538 389.727 75.3111 390.381 L79.4818 391.396 Q82.5928 392.117 82.8859 392.275 Q83.5171 392.5 83.8553 392.996 Q84.1935 393.492 84.1935 393.988 Q84.1935 394.552 83.8553 394.935 Q83.5171 395.318 82.931 395.318 Q82.8408 395.318 82.5027 395.251 Q82.1645 395.183 81.6911 395.07 Q81.2176 394.958 80.9471 394.913 L70.2838 392.23 Q68.345 391.734 67.7363 391.621 Q67.105 391.486 66.4062 391.486 Q64.287 391.486 64.287 392.929 Q64.287 394.101 65.6848 394.867 Q67.0825 395.634 69.7878 396.288 Q70.5317 396.491 70.6896 396.626 Q70.8474 396.739 70.8474 397.077 Q70.8248 397.64 70.3739 397.64 Q70.2612 397.64 69.5173 397.46 Q68.7733 397.28 67.7137 396.942 Q66.6316 396.581 65.9102 396.243 Q65.3691 395.95 65.1212 395.792 Q64.8506 395.611 64.3321 395.183 Q63.7911 394.732 63.5431 394.146 Q63.2725 393.537 63.2725 392.793 Q63.2725 391.125 64.3547 389.908 Q65.4142 388.69 67.2854 388.533 Q63.2725 385.534 63.2725 381.341 Q63.2725 378.861 64.5801 377.441 Q65.8877 376.021 68.2097 376.021 Q68.7508 376.021 69.4496 376.133 Q70.1259 376.223 70.9826 376.449 Q71.8393 376.652 72.4931 376.832 Q73.1469 377.013 74.2064 377.373 Q75.2435 377.734 75.6943 377.892 Q76.1452 378.05 77.2048 378.433 Q78.2418 378.794 78.3545 378.839 Q80.4511 379.673 81.646 379.673 Q82.435 379.673 82.7957 379.425 Q83.1564 379.154 83.1564 378.568 Q83.1564 376.99 81.6009 375.818 Q80.0228 374.623 77.4528 373.856 Q76.8892 373.676 76.7539 373.586 Q76.6187 373.473 76.6187 373.157 Q76.6187 372.616 77.0695 372.616 Z" fill="#000000" fill-rule="nonzero" fill-opacity="1"></path><polyline clip-path="url(#clip332)" style="stroke:#000000; stroke-linecap:round; stroke-linejoin:round; stroke-width:4; stroke-opacity:1; fill:none" stroke-dasharray="2, 4" points="310.845,419.576 330.87,1053.02 350.895,1312.13 370.919,1359.85 390.944,1050.4 410.968,1134.78 430.993,1195.52 451.018,1189.08 471.042,1084.65 491.067,1109.87 511.092,1238.13 531.116,1191.99 551.141,1164.77 571.165,1181.97 591.19,1203.24 611.215,1197.2 631.239,1247.8 651.264,1185.63 671.288,1157.71 691.313,1171.29 711.338,1174.6 731.362,1112.7 751.387,1121.61 771.412,1174.91 791.436,1264.08 811.461,1184.02 831.485,1121.85 851.51,1179.03 871.535,1135.51 891.559,1152.52 911.584,1228.91 931.609,1224.05 951.633,1179.55 971.658,1166.63 991.682,1204.04 1011.71,1204.62 1031.73,1197.27 1051.76,1206.34 1071.78,1158.56 1091.81,1255.38 1111.83,1209.32 1131.85,1232.2 1151.88,1224.35 1171.9,1158.59 1191.93,1160.88 1211.95,1172.01 1231.98,1176.99 1252,1187.24 1272.03,1166.06 1292.05,1238.45 1312.08,1160.77 1332.1,1158.69 1352.13,1183.78 1372.15,1210.54 1392.17,1166.55 1412.2,1184.02 1432.22,1236.54 1452.25,1195.16 1472.27,1170.68 1492.3,1182.98 1512.32,1192.11 1532.35,1152.77 1552.37,1220.63 1572.4,1208.92 1592.42,1198.43 1612.45,1181.03 1632.47,1166.41 1652.49,1204.76 1672.52,1228.56 1692.54,1188.28 1712.57,1193.76 1732.59,1164.86 1752.62,1197.65 1772.64,1191.2 1792.67,1200.08 1812.69,1199.23 1832.72,1176.1 1852.74,1211.13 1872.77,1196.69 1892.79,1157.18 1912.81,1211.09 1932.84,1180.63 1952.86,1223.85 1972.89,1168.23 1992.91,1196.57 2012.94,1184.75 2032.96,1162.47 2052.99,1190.23 2073.01,1174.87 2093.04,1182.84 2113.06,1191.35 2133.09,1224.12 2153.11,1173.62 2173.14,1175.6 2193.16,1191.71 2213.18,1208.1 2233.21,1225.25 2253.23,1163.42 2273.26,1184.23 2293.28,1186.66 "></polyline>
<polyline clip-path="url(#clip332)" style="stroke:#e26f46; stroke-linecap:round; stroke-linejoin:round; stroke-width:4; stroke-opacity:1; fill:none" stroke-dasharray="16, 10" points="310.845,396.123 330.87,596.496 350.895,645.913 370.919,665.223 390.944,784.181 410.968,837.491 430.993,905.135 451.018,900.708 471.042,953.358 491.067,904.582 511.092,901.967 531.116,900.561 551.141,906.884 571.165,913.333 591.19,889.183 611.215,901.691 631.239,939.818 651.264,953.68 671.288,915.238 691.313,910.642 711.338,923.386 731.362,936.533 751.387,938.991 771.412,922.672 791.436,938.527 811.461,924.629 831.485,931.898 851.51,924.617 871.535,936.928 891.559,950.555 911.584,933.163 931.609,929.485 951.633,915.311 971.658,914.175 991.682,917.943 1011.71,922.994 1031.73,928.321 1051.76,936.694 1071.78,937.084 1091.81,947.309 1111.83,940.56 1131.85,937.176 1151.88,939.973 1171.9,938.958 1191.93,939.615 1211.95,930.803 1231.98,926.205 1252,932.618 1272.03,932.566 1292.05,940.594 1312.08,939.55 1332.1,939.828 1352.13,940.463 1372.15,944.188 1392.17,944.848 1412.2,950.05 1432.22,948.336 1452.25,952.008 1472.27,955.757 1492.3,948.431 1512.32,945.54 1532.35,942.655 1552.37,939.892 1572.4,945.368 1592.42,950.74 1612.45,952.037 1632.47,953.905 1652.49,945.186 1672.52,943.667 1692.54,941.196 1712.57,944.313 1732.59,947.67 1752.62,937.025 1772.64,936.58 1792.67,943.911 1812.69,954.91 1832.72,945.922 1852.74,946.189 1872.77,934.492 1892.79,943.059 1912.81,940.165 1932.84,936.837 1952.86,942.207 1972.89,942.923 1992.91,945.211 2012.94,941.121 2032.96,946.589 2052.99,948.307 2073.01,951.194 2093.04,953.713 2113.06,952.962 2133.09,952.497 2153.11,950.023 2173.14,950.731 2193.16,942.848 2213.18,946.683 2233.21,948.188 2253.23,946.467 2273.26,952.109 2293.28,953.539 "></polyline>
<polyline clip-path="url(#clip332)" style="stroke:#3da44d; stroke-linecap:round; stroke-linejoin:round; stroke-width:4; stroke-opacity:1; fill:none" stroke-dasharray="16, 10" points="310.845,691.441 330.87,957.138 350.895,986.062 370.919,1032.27 390.944,1015.69 410.968,1100.85 430.993,1194.35 451.018,1180.69 471.042,1117.33 491.067,1146.18 511.092,1210.96 531.116,1206.08 551.141,1280.09 571.165,1251.21 591.19,1260.73 611.215,1207.54 631.239,1193.06 651.264,1232.59 671.288,1301.13 691.313,1286.19 711.338,1301.96 731.362,1264.24 751.387,1284.79 771.412,1297.62 791.436,1315.82 811.461,1275.23 831.485,1273.54 851.51,1278.53 871.535,1272.38 891.559,1285.72 911.584,1284.23 931.609,1298.28 951.633,1282.26 971.658,1296.8 991.682,1299.97 1011.71,1298.87 1031.73,1300.72 1051.76,1300.59 1071.78,1315.69 1091.81,1308.92 1111.83,1303.53 1131.85,1304.33 1151.88,1311.7 1171.9,1310.19 1191.93,1310.23 1211.95,1308.84 1231.98,1317.99 1252,1319.82 1272.03,1319.56 1292.05,1321.82 1312.08,1340.23 1332.1,1346.5 1352.13,1349.01 1372.15,1339.63 1392.17,1331.72 1412.2,1337.62 1432.22,1316.14 1452.25,1318.2 1472.27,1321.24 1492.3,1327.54 1512.32,1327.81 1532.35,1330.22 1552.37,1333.93 1572.4,1338.26 1592.42,1334.81 1612.45,1334.98 1632.47,1338.57 1652.49,1360.8 1672.52,1363.35 1692.54,1363.11 1712.57,1373.38 1732.59,1368.92 1752.62,1371.82 1772.64,1363.22 1792.67,1374.29 1812.69,1360.34 1832.72,1372.71 1852.74,1369.29 1872.77,1363.66 1892.79,1353.2 1912.81,1365.1 1932.84,1370.19 1952.86,1366.17 1972.89,1360.54 1992.91,1357.06 2012.94,1345.08 2032.96,1358.3 2052.99,1360.79 2073.01,1365.63 2093.04,1366.05 2113.06,1369.86 2133.09,1370.83 2153.11,1375.69 2173.14,1377.22 2193.16,1381.82 2213.18,1384.24 2233.21,1375.63 2253.23,1377.94 2273.26,1379.53 2293.28,1376.65 "></polyline>
<polyline clip-path="url(#clip332)" style="stroke:#c271d2; stroke-linecap:round; stroke-linejoin:round; stroke-width:4; stroke-opacity:1; fill:none" stroke-dasharray="16, 10" points="310.845,315.45 330.87,535.074 350.895,573.492 370.919,607.154 390.944,682.427 410.968,689.318 430.993,704.804 451.018,714.944 471.042,756.78 491.067,735.709 511.092,741.832 531.116,785.605 551.141,830.84 571.165,859.026 591.19,880.563 611.215,873.584 631.239,869.486 651.264,842.724 671.288,838.235 691.313,855.498 711.338,858.826 731.362,869.724 751.387,899.783 771.412,869.072 791.436,868.788 811.461,873.589 831.485,898.56 851.51,883.972 871.535,885.778 891.559,894.347 911.584,886.463 931.609,907.493 951.633,897.946 971.658,902.69 991.682,903.344 1011.71,930.07 1031.73,925.742 1051.76,931.932 1071.78,925.513 1091.81,927.627 1111.83,900.85 1131.85,900.191 1151.88,927.343 1171.9,932.186 1191.93,939.269 1211.95,930.358 1231.98,928.478 1252,931.09 1272.03,926.535 1292.05,930.872 1312.08,925.727 1332.1,928.132 1352.13,934.982 1372.15,926.533 1392.17,932.756 1412.2,949.098 1432.22,951.307 1452.25,947.99 1472.27,943.986 1492.3,933.088 1512.32,934.031 1532.35,935.79 1552.37,938.368 1572.4,931.831 1592.42,931.15 1612.45,935.065 1632.47,941.96 1652.49,932.134 1672.52,937.296 1692.54,935.174 1712.57,939 1732.59,929.3 1752.62,935.463 1772.64,938.629 1792.67,939.468 1812.69,934.314 1832.72,928.208 1852.74,929.609 1872.77,931.919 1892.79,944.553 1912.81,945.22 1932.84,950.091 1952.86,954.698 1972.89,953.922 1992.91,952.463 2012.94,946.692 2032.96,947.13 2052.99,943.115 2073.01,948.055 2093.04,948.014 2113.06,949.486 2133.09,955.069 2153.11,954.201 2173.14,951.279 2193.16,952.878 2213.18,948.406 2233.21,960.525 2253.23,954.475 2273.26,956.217 2293.28,950.832 "></polyline>
<polyline clip-path="url(#clip332)" style="stroke:#ac8d18; stroke-linecap:round; stroke-linejoin:round; stroke-width:4; stroke-opacity:1; fill:none" points="310.845,391.108 330.87,683.618 350.895,799.47 370.919,838.038 390.944,836.703 410.968,908.659 430.993,856.095 451.018,883.368 471.042,907.361 491.067,911.224 511.092,844.508 531.116,861.688 551.141,886.791 571.165,890.927 591.19,893.527 611.215,905.433 631.239,899.612 651.264,892.834 671.288,905.906 691.313,916.422 711.338,923.606 731.362,923.699 751.387,904.064 771.412,899.822 791.436,908.818 811.461,916.991 831.485,919.844 851.51,920.804 871.535,946.29 891.559,940.939 911.584,937.83 931.609,930.514 951.633,934.949 971.658,930.77 991.682,937.747 1011.71,938.278 1031.73,941.357 1051.76,923.064 1071.78,922.643 1091.81,932.087 1111.83,927.688 1131.85,932.78 1151.88,925.421 1171.9,926.29 1191.93,933.138 1211.95,923.756 1231.98,915.112 1252,940.122 1272.03,944.933 1292.05,938.937 1312.08,943.085 1332.1,949.387 1352.13,937.43 1372.15,941.645 1392.17,935.241 1412.2,939.305 1432.22,933.068 1452.25,942.324 1472.27,953.026 1492.3,941.517 1512.32,944.488 1532.35,942.745 1552.37,945.727 1572.4,946.098 1592.42,939.087 1612.45,937.709 1632.47,939.646 1652.49,936.569 1672.52,939.118 1692.54,938.771 1712.57,943.81 1732.59,948.471 1752.62,941.171 1772.64,932.142 1792.67,932.662 1812.69,929.948 1832.72,939.729 1852.74,945.831 1872.77,946.743 1892.79,945.832 1912.81,944.267 1932.84,948.146 1952.86,939.967 1972.89,944.48 1992.91,947.456 2012.94,948.98 2032.96,948.686 2052.99,949.065 2073.01,955.177 2093.04,954.309 2113.06,952.44 2133.09,953.085 2153.11,952.643 2173.14,954.024 2193.16,950.07 2213.18,949.316 2233.21,951.722 2253.23,952.907 2273.26,954.021 2293.28,952.017 "></polyline>
<polyline clip-path="url(#clip332)" style="stroke:#00a9ad; stroke-linecap:round; stroke-linejoin:round; stroke-width:4; stroke-opacity:1; fill:none" points="310.845,673.277 330.87,786.53 350.895,787.317 370.919,844.61 390.944,915.612 410.968,1009.45 430.993,1062.01 451.018,1167.68 471.042,1134.59 491.067,1188.01 511.092,1128.9 531.116,1101.37 551.141,1216.8 571.165,1180.42 591.19,1201.94 611.215,1211.1 631.239,1223.24 651.264,1242.96 671.288,1231.38 691.313,1254.75 711.338,1258.82 731.362,1268.3 751.387,1279.77 771.412,1284.79 791.436,1280.36 811.461,1297.96 831.485,1320.87 851.51,1284.19 871.535,1285.56 891.559,1288.2 911.584,1295.48 931.609,1287.73 951.633,1314.66 971.658,1297.07 991.682,1276.36 1011.71,1273.73 1031.73,1272.84 1051.76,1272.53 1071.78,1275.05 1091.81,1309 1111.83,1298.45 1131.85,1296.02 1151.88,1312.24 1171.9,1307.03 1191.93,1318.53 1211.95,1312.6 1231.98,1324.52 1252,1311.1 1272.03,1308.43 1292.05,1302.15 1312.08,1295.7 1332.1,1306.54 1352.13,1284.57 1372.15,1300.08 1392.17,1305.32 1412.2,1314 1432.22,1314.06 1452.25,1328.65 1472.27,1311.82 1492.3,1321.27 1512.32,1336.65 1532.35,1348.94 1552.37,1356.39 1572.4,1357.4 1592.42,1355.62 1612.45,1348.27 1632.47,1351.68 1652.49,1337.99 1672.52,1322.23 1692.54,1328.26 1712.57,1337.93 1732.59,1324.68 1752.62,1317.9 1772.64,1319.84 1792.67,1310.54 1812.69,1317.95 1832.72,1312.68 1852.74,1322.93 1872.77,1319.93 1892.79,1326.74 1912.81,1324.88 1932.84,1328.28 1952.86,1322.41 1972.89,1334.63 1992.91,1343.42 2012.94,1354.3 2032.96,1353.85 2052.99,1337.61 2073.01,1335.32 2093.04,1327.1 2113.06,1329.68 2133.09,1325.99 2153.11,1329.3 2173.14,1324.71 2193.16,1316.77 2213.18,1334.62 2233.21,1331.1 2253.23,1333.53 2273.26,1332.97 2293.28,1334.14 "></polyline>
<polyline clip-path="url(#clip332)" style="stroke:#ed5d92; stroke-linecap:round; stroke-linejoin:round; stroke-width:4; stroke-opacity:1; fill:none" points="330.87,310.061 350.895,163.754 370.919,86.1857 390.944,117.5 410.968,151.654 430.993,455.35 451.018,423.445 471.042,418.409 491.067,367.584 511.092,379.655 531.116,510.241 551.141,497.027 571.165,471.641 591.19,472.938 611.215,585.132 631.239,547.122 651.264,510.957 671.288,513.73 691.313,482.812 711.338,538.358 731.362,524.528 751.387,536.465 771.412,510.707 791.436,521.78 811.461,588.785 831.485,596.008 851.51,568.815 871.535,558.55 891.559,616.563 911.584,612.841 931.609,585.58 951.633,567.232 971.658,578.022 991.682,616.062 1011.71,602.332 1031.73,584.504 1051.76,594.17 1071.78,578.646 1091.81,619.361 1111.83,615.175 1131.85,625.53 1151.88,619.977 1171.9,648.741 1191.93,629.083 1211.95,624.167 1231.98,613.436 1252,605.789 1272.03,639.255 1292.05,620.691 1312.08,625.825 1332.1,604.55 1352.13,595.712 1372.15,630.989 1392.17,619.246 1412.2,609.89 1432.22,605.561 1452.25,640.769 1472.27,637.036 1492.3,639.584 1512.32,620.416 1532.35,624.572 1552.37,647.769 1572.4,630.981 1592.42,617.453 1612.45,629.383 1632.47,627.694 1652.49,641.752 1672.52,631.546 1692.54,629.198 1712.57,627.582 1732.59,653.297 1752.62,642.152 1772.64,649.944 1792.67,655.571 1812.69,658.456 1832.72,675.353 1852.74,656.759 1872.77,656.652 1892.79,655.218 1912.81,660.031 1932.84,674.232 1952.86,661.179 1972.89,657.105 1992.91,646.178 2012.94,667.216 2032.96,666.165 2052.99,670.983 2073.01,663.933 2093.04,654.383 2113.06,669.748 2133.09,663.511 2153.11,659.223 2173.14,659.206 2193.16,651.681 2213.18,670.134 2233.21,664.825 2253.23,655.051 2273.26,650.811 2293.28,668.057 "></polyline>
<path clip-path="url(#clip330)" d="M321.418 507.829 L880.953 507.829 L880.953 93.1086 L321.418 93.1086  Z" fill="#ffffff" fill-rule="evenodd" fill-opacity="1"></path>
<polyline clip-path="url(#clip330)" style="stroke:#000000; stroke-linecap:round; stroke-linejoin:round; stroke-width:4; stroke-opacity:1; fill:none" points="321.418,507.829 880.953,507.829 880.953,93.1086 321.418,93.1086 321.418,507.829 "></polyline>
<polyline clip-path="url(#clip330)" style="stroke:#000000; stroke-linecap:round; stroke-linejoin:round; stroke-width:4; stroke-opacity:1; fill:none" stroke-dasharray="2, 4" points="344.767,144.949 484.859,144.949 "></polyline>
<path clip-path="url(#clip330)" d="M533.763 157.298 L533.763 148.016 L526.125 148.016 L526.125 144.173 L538.393 144.173 L538.393 159.011 Q535.685 160.932 532.421 161.928 Q529.157 162.9 525.453 162.9 Q517.351 162.9 512.768 158.178 Q508.208 153.432 508.208 144.983 Q508.208 136.511 512.768 131.789 Q517.351 127.044 525.453 127.044 Q528.833 127.044 531.865 127.877 Q534.921 128.71 537.49 130.331 L537.49 135.307 Q534.898 133.108 531.981 131.997 Q529.064 130.886 525.847 130.886 Q519.504 130.886 516.31 134.428 Q513.138 137.969 513.138 144.983 Q513.138 151.974 516.31 155.516 Q519.504 159.057 525.847 159.057 Q528.324 159.057 530.268 158.641 Q532.212 158.201 533.763 157.298 Z" fill="#000000" fill-rule="nonzero" fill-opacity="1"></path><path clip-path="url(#clip330)" d="M540.453 127.669 L569.689 127.669 L569.689 131.604 L557.421 131.604 L557.421 162.229 L552.722 162.229 L552.722 131.604 L540.453 131.604 L540.453 127.669 Z" fill="#000000" fill-rule="nonzero" fill-opacity="1"></path><path clip-path="url(#clip330)" d="M568.578 127.669 L597.814 127.669 L597.814 131.604 L585.546 131.604 L585.546 162.229 L580.846 162.229 L580.846 131.604 L568.578 131.604 L568.578 127.669 Z" fill="#000000" fill-rule="nonzero" fill-opacity="1"></path><polyline clip-path="url(#clip330)" style="stroke:#e26f46; stroke-linecap:round; stroke-linejoin:round; stroke-width:4; stroke-opacity:1; fill:none" stroke-dasharray="16, 10" points="344.767,196.789 484.859,196.789 "></polyline>
<path clip-path="url(#clip330)" d="M508.208 179.509 L537.444 179.509 L537.444 183.444 L525.175 183.444 L525.175 214.069 L520.476 214.069 L520.476 183.444 L508.208 183.444 L508.208 179.509 Z" fill="#000000" fill-rule="nonzero" fill-opacity="1"></path><path clip-path="url(#clip330)" d="M536.333 179.509 L565.569 179.509 L565.569 183.444 L553.3 183.444 L553.3 214.069 L548.601 214.069 L548.601 183.444 L536.333 183.444 L536.333 179.509 Z" fill="#000000" fill-rule="nonzero" fill-opacity="1"></path><path clip-path="url(#clip330)" d="M580.129 178.097 Q577.027 183.421 575.522 188.629 Q574.018 193.837 574.018 199.184 Q574.018 204.532 575.522 209.786 Q577.05 215.018 580.129 220.319 L576.425 220.319 Q572.953 214.879 571.217 209.624 Q569.504 204.37 569.504 199.184 Q569.504 194.022 571.217 188.791 Q572.93 183.56 576.425 178.097 L580.129 178.097 Z" fill="#000000" fill-rule="nonzero" fill-opacity="1"></path><path clip-path="url(#clip330)" d="M589.805 210.133 L597.444 210.133 L597.444 183.768 L589.133 185.435 L589.133 181.175 L597.397 179.509 L602.073 179.509 L602.073 210.133 L609.712 210.133 L609.712 214.069 L589.805 214.069 L589.805 210.133 Z" fill="#000000" fill-rule="nonzero" fill-opacity="1"></path><path clip-path="url(#clip330)" d="M617.883 178.097 L621.587 178.097 Q625.059 183.56 626.772 188.791 Q628.508 194.022 628.508 199.184 Q628.508 204.37 626.772 209.624 Q625.059 214.879 621.587 220.319 L617.883 220.319 Q620.962 215.018 622.467 209.786 Q623.994 204.532 623.994 199.184 Q623.994 193.837 622.467 188.629 Q620.962 183.421 617.883 178.097 Z" fill="#000000" fill-rule="nonzero" fill-opacity="1"></path><polyline clip-path="url(#clip330)" style="stroke:#3da44d; stroke-linecap:round; stroke-linejoin:round; stroke-width:4; stroke-opacity:1; fill:none" stroke-dasharray="16, 10" points="344.767,248.629 484.859,248.629 "></polyline>
<path clip-path="url(#clip330)" d="M508.208 231.349 L537.444 231.349 L537.444 235.284 L525.175 235.284 L525.175 265.909 L520.476 265.909 L520.476 235.284 L508.208 235.284 L508.208 231.349 Z" fill="#000000" fill-rule="nonzero" fill-opacity="1"></path><path clip-path="url(#clip330)" d="M536.333 231.349 L565.569 231.349 L565.569 235.284 L553.3 235.284 L553.3 265.909 L548.601 265.909 L548.601 235.284 L536.333 235.284 L536.333 231.349 Z" fill="#000000" fill-rule="nonzero" fill-opacity="1"></path><path clip-path="url(#clip330)" d="M580.129 229.937 Q577.027 235.261 575.522 240.469 Q574.018 245.677 574.018 251.024 Q574.018 256.372 575.522 261.626 Q577.05 266.858 580.129 272.159 L576.425 272.159 Q572.953 266.719 571.217 261.464 Q569.504 256.21 569.504 251.024 Q569.504 245.862 571.217 240.631 Q572.93 235.4 576.425 229.937 L580.129 229.937 Z" fill="#000000" fill-rule="nonzero" fill-opacity="1"></path><path clip-path="url(#clip330)" d="M593.022 261.973 L609.342 261.973 L609.342 265.909 L587.397 265.909 L587.397 261.973 Q590.059 259.219 594.643 254.589 Q599.249 249.936 600.43 248.594 Q602.675 246.071 603.555 244.335 Q604.457 242.575 604.457 240.886 Q604.457 238.131 602.513 236.395 Q600.592 234.659 597.49 234.659 Q595.291 234.659 592.837 235.423 Q590.407 236.187 587.629 237.737 L587.629 233.015 Q590.453 231.881 592.907 231.302 Q595.36 230.724 597.397 230.724 Q602.768 230.724 605.962 233.409 Q609.156 236.094 609.156 240.585 Q609.156 242.714 608.346 244.636 Q607.559 246.534 605.453 249.126 Q604.874 249.798 601.772 253.015 Q598.67 256.21 593.022 261.973 Z" fill="#000000" fill-rule="nonzero" fill-opacity="1"></path><path clip-path="url(#clip330)" d="M617.883 229.937 L621.587 229.937 Q625.059 235.4 626.772 240.631 Q628.508 245.862 628.508 251.024 Q628.508 256.21 626.772 261.464 Q625.059 266.719 621.587 272.159 L617.883 272.159 Q620.962 266.858 622.467 261.626 Q623.994 256.372 623.994 251.024 Q623.994 245.677 622.467 240.469 Q620.962 235.261 617.883 229.937 Z" fill="#000000" fill-rule="nonzero" fill-opacity="1"></path><polyline clip-path="url(#clip330)" style="stroke:#c271d2; stroke-linecap:round; stroke-linejoin:round; stroke-width:4; stroke-opacity:1; fill:none" stroke-dasharray="16, 10" points="344.767,300.469 484.859,300.469 "></polyline>
<path clip-path="url(#clip330)" d="M508.208 283.189 L537.444 283.189 L537.444 287.124 L525.175 287.124 L525.175 317.749 L520.476 317.749 L520.476 287.124 L508.208 287.124 L508.208 283.189 Z" fill="#000000" fill-rule="nonzero" fill-opacity="1"></path><path clip-path="url(#clip330)" d="M536.333 283.189 L565.569 283.189 L565.569 287.124 L553.3 287.124 L553.3 317.749 L548.601 317.749 L548.601 287.124 L536.333 287.124 L536.333 283.189 Z" fill="#000000" fill-rule="nonzero" fill-opacity="1"></path><path clip-path="url(#clip330)" d="M580.129 281.777 Q577.027 287.101 575.522 292.309 Q574.018 297.517 574.018 302.864 Q574.018 308.212 575.522 313.466 Q577.05 318.698 580.129 323.999 L576.425 323.999 Q572.953 318.559 571.217 313.304 Q569.504 308.05 569.504 302.864 Q569.504 297.702 571.217 292.471 Q572.93 287.24 576.425 281.777 L580.129 281.777 Z" fill="#000000" fill-rule="nonzero" fill-opacity="1"></path><path clip-path="url(#clip330)" d="M589.805 313.813 L597.444 313.813 L597.444 287.448 L589.133 289.115 L589.133 284.855 L597.397 283.189 L602.073 283.189 L602.073 313.813 L609.712 313.813 L609.712 317.749 L589.805 317.749 L589.805 313.813 Z" fill="#000000" fill-rule="nonzero" fill-opacity="1"></path><path clip-path="url(#clip330)" d="M632.004 287.263 L620.198 305.712 L632.004 305.712 L632.004 287.263 M630.777 283.189 L636.656 283.189 L636.656 305.712 L641.587 305.712 L641.587 309.601 L636.656 309.601 L636.656 317.749 L632.004 317.749 L632.004 309.601 L616.402 309.601 L616.402 305.087 L630.777 283.189 Z" fill="#000000" fill-rule="nonzero" fill-opacity="1"></path><path clip-path="url(#clip330)" d="M648.045 281.777 L651.749 281.777 Q655.221 287.24 656.934 292.471 Q658.67 297.702 658.67 302.864 Q658.67 308.05 656.934 313.304 Q655.221 318.559 651.749 323.999 L648.045 323.999 Q651.124 318.698 652.628 313.466 Q654.156 308.212 654.156 302.864 Q654.156 297.517 652.628 292.309 Q651.124 287.101 648.045 281.777 Z" fill="#000000" fill-rule="nonzero" fill-opacity="1"></path><polyline clip-path="url(#clip330)" style="stroke:#ac8d18; stroke-linecap:round; stroke-linejoin:round; stroke-width:4; stroke-opacity:1; fill:none" points="344.767,352.309 484.859,352.309 "></polyline>
<path clip-path="url(#clip330)" d="M508.208 335.029 L537.444 335.029 L537.444 338.964 L525.175 338.964 L525.175 369.589 L520.476 369.589 L520.476 338.964 L508.208 338.964 L508.208 335.029 Z" fill="#000000" fill-rule="nonzero" fill-opacity="1"></path><path clip-path="url(#clip330)" d="M536.333 335.029 L565.569 335.029 L565.569 338.964 L553.3 338.964 L553.3 369.589 L548.601 369.589 L548.601 338.964 L536.333 338.964 L536.333 335.029 Z" fill="#000000" fill-rule="nonzero" fill-opacity="1"></path><path clip-path="url(#clip330)" d="M580.129 333.617 Q577.027 338.941 575.522 344.149 Q574.018 349.357 574.018 354.704 Q574.018 360.052 575.522 365.306 Q577.05 370.538 580.129 375.839 L576.425 375.839 Q572.953 370.399 571.217 365.144 Q569.504 359.89 569.504 354.704 Q569.504 349.542 571.217 344.311 Q572.93 339.08 576.425 333.617 L580.129 333.617 Z" fill="#000000" fill-rule="nonzero" fill-opacity="1"></path><path clip-path="url(#clip330)" d="M588.231 333.57 L592.513 333.57 L592.513 354.843 L605.221 343.663 L610.661 343.663 L596.911 355.792 L611.24 369.589 L605.684 369.589 L592.513 356.927 L592.513 369.589 L588.231 369.589 L588.231 333.57 Z" fill="#000000" fill-rule="nonzero" fill-opacity="1"></path><path clip-path="url(#clip330)" d="M626.078 333.617 Q622.976 338.941 621.471 344.149 Q619.967 349.357 619.967 354.704 Q619.967 360.052 621.471 365.306 Q622.999 370.538 626.078 375.839 L622.374 375.839 Q618.902 370.399 617.166 365.144 Q615.453 359.89 615.453 354.704 Q615.453 349.542 617.166 344.311 Q618.879 339.08 622.374 333.617 L626.078 333.617 Z" fill="#000000" fill-rule="nonzero" fill-opacity="1"></path><path clip-path="url(#clip330)" d="M644.55 337.621 L656.517 369.589 L652.003 369.589 L644.735 350.422 L635.8 369.589 L631.286 369.589 L642.652 344.728 L640.939 340.144 Q639.851 337.228 637.374 337.228 L635.152 337.228 L635.152 333.57 L637.86 333.617 Q643.091 333.686 644.55 337.621 Z" fill="#000000" fill-rule="nonzero" fill-opacity="1"></path><path clip-path="url(#clip330)" d="M661.726 333.617 L665.429 333.617 Q668.902 339.08 670.615 344.311 Q672.351 349.542 672.351 354.704 Q672.351 359.89 670.615 365.144 Q668.902 370.399 665.429 375.839 L661.726 375.839 Q664.804 370.538 666.309 365.306 Q667.837 360.052 667.837 354.704 Q667.837 349.357 666.309 344.149 Q664.804 338.941 661.726 333.617 Z" fill="#000000" fill-rule="nonzero" fill-opacity="1"></path><path clip-path="url(#clip330)" d="M688.462 335.029 L692.397 335.029 L680.36 373.987 L676.425 373.987 L688.462 335.029 Z" fill="#000000" fill-rule="nonzero" fill-opacity="1"></path><path clip-path="url(#clip330)" d="M698.276 365.653 L705.915 365.653 L705.915 339.288 L697.605 340.955 L697.605 336.695 L705.869 335.029 L710.545 335.029 L710.545 365.653 L718.184 365.653 L718.184 369.589 L698.276 369.589 L698.276 365.653 Z" fill="#000000" fill-rule="nonzero" fill-opacity="1"></path><path clip-path="url(#clip330)" d="M728.114 363.709 L732.998 363.709 L732.998 367.69 L729.202 375.098 L726.216 375.098 L728.114 367.69 L728.114 363.709 Z" fill="#000000" fill-rule="nonzero" fill-opacity="1"></path><path clip-path="url(#clip330)" d="M758.577 365.653 L766.216 365.653 L766.216 339.288 L757.906 340.955 L757.906 336.695 L766.17 335.029 L770.845 335.029 L770.845 365.653 L778.484 365.653 L778.484 369.589 L758.577 369.589 L758.577 365.653 Z" fill="#000000" fill-rule="nonzero" fill-opacity="1"></path><path clip-path="url(#clip330)" d="M786.656 333.617 L790.359 333.617 Q793.831 339.08 795.544 344.311 Q797.28 349.542 797.28 354.704 Q797.28 359.89 795.544 365.144 Q793.831 370.399 790.359 375.839 L786.656 375.839 Q789.734 370.538 791.239 365.306 Q792.767 360.052 792.767 354.704 Q792.767 349.357 791.239 344.149 Q789.734 338.941 786.656 333.617 Z" fill="#000000" fill-rule="nonzero" fill-opacity="1"></path><polyline clip-path="url(#clip330)" style="stroke:#00a9ad; stroke-linecap:round; stroke-linejoin:round; stroke-width:4; stroke-opacity:1; fill:none" points="344.767,404.149 484.859,404.149 "></polyline>
<path clip-path="url(#clip330)" d="M508.208 386.869 L537.444 386.869 L537.444 390.804 L525.175 390.804 L525.175 421.429 L520.476 421.429 L520.476 390.804 L508.208 390.804 L508.208 386.869 Z" fill="#000000" fill-rule="nonzero" fill-opacity="1"></path><path clip-path="url(#clip330)" d="M536.333 386.869 L565.569 386.869 L565.569 390.804 L553.3 390.804 L553.3 421.429 L548.601 421.429 L548.601 390.804 L536.333 390.804 L536.333 386.869 Z" fill="#000000" fill-rule="nonzero" fill-opacity="1"></path><path clip-path="url(#clip330)" d="M580.129 385.457 Q577.027 390.781 575.522 395.989 Q574.018 401.197 574.018 406.544 Q574.018 411.892 575.522 417.146 Q577.05 422.378 580.129 427.679 L576.425 427.679 Q572.953 422.239 571.217 416.984 Q569.504 411.73 569.504 406.544 Q569.504 401.382 571.217 396.151 Q572.93 390.92 576.425 385.457 L580.129 385.457 Z" fill="#000000" fill-rule="nonzero" fill-opacity="1"></path><path clip-path="url(#clip330)" d="M588.231 385.41 L592.513 385.41 L592.513 406.683 L605.221 395.503 L610.661 395.503 L596.911 407.632 L611.24 421.429 L605.684 421.429 L592.513 408.767 L592.513 421.429 L588.231 421.429 L588.231 385.41 Z" fill="#000000" fill-rule="nonzero" fill-opacity="1"></path><path clip-path="url(#clip330)" d="M626.078 385.457 Q622.976 390.781 621.471 395.989 Q619.967 401.197 619.967 406.544 Q619.967 411.892 621.471 417.146 Q622.999 422.378 626.078 427.679 L622.374 427.679 Q618.902 422.239 617.166 416.984 Q615.453 411.73 615.453 406.544 Q615.453 401.382 617.166 396.151 Q618.879 390.92 622.374 385.457 L626.078 385.457 Z" fill="#000000" fill-rule="nonzero" fill-opacity="1"></path><path clip-path="url(#clip330)" d="M644.55 389.461 L656.517 421.429 L652.003 421.429 L644.735 402.262 L635.8 421.429 L631.286 421.429 L642.652 396.568 L640.939 391.984 Q639.851 389.068 637.374 389.068 L635.152 389.068 L635.152 385.41 L637.86 385.457 Q643.091 385.526 644.55 389.461 Z" fill="#000000" fill-rule="nonzero" fill-opacity="1"></path><path clip-path="url(#clip330)" d="M661.726 385.457 L665.429 385.457 Q668.902 390.92 670.615 396.151 Q672.351 401.382 672.351 406.544 Q672.351 411.73 670.615 416.984 Q668.902 422.239 665.429 427.679 L661.726 427.679 Q664.804 422.378 666.309 417.146 Q667.837 411.892 667.837 406.544 Q667.837 401.197 666.309 395.989 Q664.804 390.781 661.726 385.457 Z" fill="#000000" fill-rule="nonzero" fill-opacity="1"></path><path clip-path="url(#clip330)" d="M688.462 386.869 L692.397 386.869 L680.36 425.827 L676.425 425.827 L688.462 386.869 Z" fill="#000000" fill-rule="nonzero" fill-opacity="1"></path><path clip-path="url(#clip330)" d="M701.494 417.493 L717.813 417.493 L717.813 421.429 L695.869 421.429 L695.869 417.493 Q698.531 414.739 703.114 410.109 Q707.721 405.456 708.901 404.114 Q711.147 401.591 712.026 399.855 Q712.929 398.095 712.929 396.406 Q712.929 393.651 710.985 391.915 Q709.063 390.179 705.962 390.179 Q703.762 390.179 701.309 390.943 Q698.878 391.707 696.1 393.257 L696.1 388.535 Q698.925 387.401 701.378 386.822 Q703.832 386.244 705.869 386.244 Q711.239 386.244 714.434 388.929 Q717.628 391.614 717.628 396.105 Q717.628 398.234 716.818 400.156 Q716.031 402.054 713.924 404.646 Q713.346 405.318 710.244 408.535 Q707.142 411.73 701.494 417.493 Z" fill="#000000" fill-rule="nonzero" fill-opacity="1"></path><path clip-path="url(#clip330)" d="M728.114 415.549 L732.998 415.549 L732.998 419.53 L729.202 426.938 L726.216 426.938 L728.114 419.53 L728.114 415.549 Z" fill="#000000" fill-rule="nonzero" fill-opacity="1"></path><path clip-path="url(#clip330)" d="M761.795 417.493 L778.114 417.493 L778.114 421.429 L756.17 421.429 L756.17 417.493 Q758.832 414.739 763.415 410.109 Q768.021 405.456 769.202 404.114 Q771.447 401.591 772.327 399.855 Q773.23 398.095 773.23 396.406 Q773.23 393.651 771.285 391.915 Q769.364 390.179 766.262 390.179 Q764.063 390.179 761.609 390.943 Q759.179 391.707 756.401 393.257 L756.401 388.535 Q759.225 387.401 761.679 386.822 Q764.133 386.244 766.17 386.244 Q771.54 386.244 774.734 388.929 Q777.929 391.614 777.929 396.105 Q777.929 398.234 777.119 400.156 Q776.332 402.054 774.225 404.646 Q773.646 405.318 770.545 408.535 Q767.443 411.73 761.795 417.493 Z" fill="#000000" fill-rule="nonzero" fill-opacity="1"></path><path clip-path="url(#clip330)" d="M786.656 385.457 L790.359 385.457 Q793.831 390.92 795.544 396.151 Q797.28 401.382 797.28 406.544 Q797.28 411.73 795.544 416.984 Q793.831 422.239 790.359 427.679 L786.656 427.679 Q789.734 422.378 791.239 417.146 Q792.767 411.892 792.767 406.544 Q792.767 401.197 791.239 395.989 Q789.734 390.781 786.656 385.457 Z" fill="#000000" fill-rule="nonzero" fill-opacity="1"></path><polyline clip-path="url(#clip330)" style="stroke:#ed5d92; stroke-linecap:round; stroke-linejoin:round; stroke-width:4; stroke-opacity:1; fill:none" points="344.767,455.989 484.859,455.989 "></polyline>
<path clip-path="url(#clip330)" d="M508.208 438.709 L537.444 438.709 L537.444 442.644 L525.175 442.644 L525.175 473.269 L520.476 473.269 L520.476 442.644 L508.208 442.644 L508.208 438.709 Z" fill="#000000" fill-rule="nonzero" fill-opacity="1"></path><path clip-path="url(#clip330)" d="M536.333 438.709 L565.569 438.709 L565.569 442.644 L553.3 442.644 L553.3 473.269 L548.601 473.269 L548.601 442.644 L536.333 442.644 L536.333 438.709 Z" fill="#000000" fill-rule="nonzero" fill-opacity="1"></path><path clip-path="url(#clip330)" d="M580.129 437.297 Q577.027 442.621 575.522 447.829 Q574.018 453.037 574.018 458.384 Q574.018 463.732 575.522 468.986 Q577.05 474.218 580.129 479.519 L576.425 479.519 Q572.953 474.079 571.217 468.824 Q569.504 463.57 569.504 458.384 Q569.504 453.222 571.217 447.991 Q572.93 442.76 576.425 437.297 L580.129 437.297 Z" fill="#000000" fill-rule="nonzero" fill-opacity="1"></path><path clip-path="url(#clip330)" d="M588.231 437.25 L592.513 437.25 L592.513 458.523 L605.221 447.343 L610.661 447.343 L596.911 459.472 L611.24 473.269 L605.684 473.269 L592.513 460.607 L592.513 473.269 L588.231 473.269 L588.231 437.25 Z" fill="#000000" fill-rule="nonzero" fill-opacity="1"></path><path clip-path="url(#clip330)" d="M626.078 437.297 Q622.976 442.621 621.471 447.829 Q619.967 453.037 619.967 458.384 Q619.967 463.732 621.471 468.986 Q622.999 474.218 626.078 479.519 L622.374 479.519 Q618.902 474.079 617.166 468.824 Q615.453 463.57 615.453 458.384 Q615.453 453.222 617.166 447.991 Q618.879 442.76 622.374 437.297 L626.078 437.297 Z" fill="#000000" fill-rule="nonzero" fill-opacity="1"></path><path clip-path="url(#clip330)" d="M644.55 441.301 L656.517 473.269 L652.003 473.269 L644.735 454.102 L635.8 473.269 L631.286 473.269 L642.652 448.408 L640.939 443.824 Q639.851 440.908 637.374 440.908 L635.152 440.908 L635.152 437.25 L637.86 437.297 Q643.091 437.366 644.55 441.301 Z" fill="#000000" fill-rule="nonzero" fill-opacity="1"></path><path clip-path="url(#clip330)" d="M661.726 437.297 L665.429 437.297 Q668.902 442.76 670.615 447.991 Q672.351 453.222 672.351 458.384 Q672.351 463.57 670.615 468.824 Q668.902 474.079 665.429 479.519 L661.726 479.519 Q664.804 474.218 666.309 468.986 Q667.837 463.732 667.837 458.384 Q667.837 453.037 666.309 447.829 Q664.804 442.621 661.726 437.297 Z" fill="#000000" fill-rule="nonzero" fill-opacity="1"></path><path clip-path="url(#clip330)" d="M688.462 438.709 L692.397 438.709 L680.36 477.667 L676.425 477.667 L688.462 438.709 Z" fill="#000000" fill-rule="nonzero" fill-opacity="1"></path><path clip-path="url(#clip330)" d="M698.276 469.333 L705.915 469.333 L705.915 442.968 L697.605 444.635 L697.605 440.375 L705.869 438.709 L710.545 438.709 L710.545 469.333 L718.184 469.333 L718.184 473.269 L698.276 473.269 L698.276 469.333 Z" fill="#000000" fill-rule="nonzero" fill-opacity="1"></path><path clip-path="url(#clip330)" d="M740.475 442.783 L728.67 461.232 L740.475 461.232 L740.475 442.783 M739.248 438.709 L745.128 438.709 L745.128 461.232 L750.059 461.232 L750.059 465.121 L745.128 465.121 L745.128 473.269 L740.475 473.269 L740.475 465.121 L724.873 465.121 L724.873 460.607 L739.248 438.709 Z" fill="#000000" fill-rule="nonzero" fill-opacity="1"></path><path clip-path="url(#clip330)" d="M758.276 467.389 L763.16 467.389 L763.16 471.37 L759.364 478.778 L756.378 478.778 L758.276 471.37 L758.276 467.389 Z" fill="#000000" fill-rule="nonzero" fill-opacity="1"></path><path clip-path="url(#clip330)" d="M788.739 469.333 L796.378 469.333 L796.378 442.968 L788.068 444.635 L788.068 440.375 L796.331 438.709 L801.007 438.709 L801.007 469.333 L808.646 469.333 L808.646 473.269 L788.739 473.269 L788.739 469.333 Z" fill="#000000" fill-rule="nonzero" fill-opacity="1"></path><path clip-path="url(#clip330)" d="M830.938 442.783 L819.132 461.232 L830.938 461.232 L830.938 442.783 M829.711 438.709 L835.59 438.709 L835.59 461.232 L840.521 461.232 L840.521 465.121 L835.59 465.121 L835.59 473.269 L830.938 473.269 L830.938 465.121 L815.336 465.121 L815.336 460.607 L829.711 438.709 Z" fill="#000000" fill-rule="nonzero" fill-opacity="1"></path><path clip-path="url(#clip330)" d="M846.979 437.297 L850.683 437.297 Q854.155 442.76 855.868 447.991 Q857.604 453.222 857.604 458.384 Q857.604 463.57 855.868 468.824 Q854.155 474.079 850.683 479.519 L846.979 479.519 Q850.058 474.218 851.563 468.986 Q853.09 463.732 853.09 458.384 Q853.09 453.037 851.563 447.829 Q850.058 442.621 846.979 437.297 Z" fill="#000000" fill-rule="nonzero" fill-opacity="1"></path></svg>