<svg xmlns="http://www.w3.org/2000/svg" xmlns:xlink="http://www.w3.org/1999/xlink" width="600" height="400" viewBox="0 0 2400 1600">
<defs>
  <clipPath id="clip190">
    <rect x="0" y="0" width="2400" height="1600"></rect>
  </clipPath>
</defs>
<path clip-path="url(#clip190)" d="M0 1600 L2400 1600 L2400 0 L0 0  Z" fill="#ffffff" fill-rule="evenodd" fill-opacity="1"></path>
<defs>
  <clipPath id="clip191">
    <rect x="480" y="0" width="1681" height="1600"></rect>
  </clipPath>
</defs>
<path clip-path="url(#clip190)" d="M251.372 1423.18 L2352.76 1423.18 L2352.76 123.472 L251.372 123.472  Z" fill="#ffffff" fill-rule="evenodd" fill-opacity="1"></path>
<defs>
  <clipPath id="clip192">
    <rect x="251" y="123" width="2102" height="1301"></rect>
  </clipPath>
</defs>
<polyline clip-path="url(#clip192)" style="stroke:#000000; stroke-linecap:round; stroke-linejoin:round; stroke-width:2; stroke-opacity:0.1; fill:none" points="290.821,1423.18 290.821,123.472 "></polyline>
<polyline clip-path="url(#clip192)" style="stroke:#000000; stroke-linecap:round; stroke-linejoin:round; stroke-width:2; stroke-opacity:0.1; fill:none" points="791.436,1423.18 791.436,123.472 "></polyline>
<polyline clip-path="url(#clip192)" style="stroke:#000000; stroke-linecap:round; stroke-linejoin:round; stroke-width:2; stroke-opacity:0.1; fill:none" points="1292.05,1423.18 1292.05,123.472 "></polyline>
<polyline clip-path="url(#clip192)" style="stroke:#000000; stroke-linecap:round; stroke-linejoin:round; stroke-width:2; stroke-opacity:0.1; fill:none" points="1792.67,1423.18 1792.67,123.472 "></polyline>
<polyline clip-path="url(#clip192)" style="stroke:#000000; stroke-linecap:round; stroke-linejoin:round; stroke-width:2; stroke-opacity:0.1; fill:none" points="2293.28,1423.18 2293.28,123.472 "></polyline>
<polyline clip-path="url(#clip192)" style="stroke:#000000; stroke-linecap:round; stroke-linejoin:round; stroke-width:2; stroke-opacity:0.1; fill:none" points="251.372,1185.45 2352.76,1185.45 "></polyline>
<polyline clip-path="url(#clip192)" style="stroke:#000000; stroke-linecap:round; stroke-linejoin:round; stroke-width:2; stroke-opacity:0.1; fill:none" points="251.372,366.65 2352.76,366.65 "></polyline>
<polyline clip-path="url(#clip190)" style="stroke:#000000; stroke-linecap:round; stroke-linejoin:round; stroke-width:4; stroke-opacity:1; fill:none" points="251.372,1423.18 2352.76,1423.18 "></polyline>
<polyline clip-path="url(#clip190)" style="stroke:#000000; stroke-linecap:round; stroke-linejoin:round; stroke-width:4; stroke-opacity:1; fill:none" points="290.821,1423.18 290.821,1404.28 "></polyline>
<polyline clip-path="url(#clip190)" style="stroke:#000000; stroke-linecap:round; stroke-linejoin:round; stroke-width:4; stroke-opacity:1; fill:none" points="791.436,1423.18 791.436,1404.28 "></polyline>
<polyline clip-path="url(#clip190)" style="stroke:#000000; stroke-linecap:round; stroke-linejoin:round; stroke-width:4; stroke-opacity:1; fill:none" points="1292.05,1423.18 1292.05,1404.28 "></polyline>
<polyline clip-path="url(#clip190)" style="stroke:#000000; stroke-linecap:round; stroke-linejoin:round; stroke-width:4; stroke-opacity:1; fill:none" points="1792.67,1423.18 1792.67,1404.28 "></polyline>
<polyline clip-path="url(#clip190)" style="stroke:#000000; stroke-linecap:round; stroke-linejoin:round; stroke-width:4; stroke-opacity:1; fill:none" points="2293.28,1423.18 2293.28,1404.28 "></polyline>
<path clip-path="url(#clip190)" d="M290.821 1454.1 Q287.21 1454.1 285.381 1457.66 Q283.575 1461.2 283.575 1468.33 Q283.575 1475.44 285.381 1479.01 Q287.21 1482.55 290.821 1482.55 Q294.455 1482.55 296.26 1479.01 Q298.089 1475.44 298.089 1468.33 Q298.089 1461.2 296.26 1457.66 Q294.455 1454.1 290.821 1454.1 M290.821 1450.39 Q296.631 1450.39 299.686 1455 Q302.765 1459.58 302.765 1468.33 Q302.765 1477.06 299.686 1481.67 Q296.631 1486.25 290.821 1486.25 Q285.011 1486.25 281.932 1481.67 Q278.876 1477.06 278.876 1468.33 Q278.876 1459.58 281.932 1455 Q285.011 1450.39 290.821 1450.39 Z" fill="#000000" fill-rule="nonzero" fill-opacity="1"></path><path clip-path="url(#clip190)" d="M770.707 1481.64 L787.027 1481.64 L787.027 1485.58 L765.082 1485.58 L765.082 1481.64 Q767.744 1478.89 772.328 1474.26 Q776.934 1469.61 778.115 1468.27 Q780.36 1465.74 781.239 1464.01 Q782.142 1462.25 782.142 1460.56 Q782.142 1457.8 780.198 1456.07 Q778.277 1454.33 775.175 1454.33 Q772.976 1454.33 770.522 1455.09 Q768.091 1455.86 765.314 1457.41 L765.314 1452.69 Q768.138 1451.55 770.591 1450.97 Q773.045 1450.39 775.082 1450.39 Q780.452 1450.39 783.647 1453.08 Q786.841 1455.77 786.841 1460.26 Q786.841 1462.39 786.031 1464.31 Q785.244 1466.2 783.138 1468.8 Q782.559 1469.47 779.457 1472.69 Q776.355 1475.88 770.707 1481.64 Z" fill="#000000" fill-rule="nonzero" fill-opacity="1"></path><path clip-path="url(#clip190)" d="M796.888 1451.02 L815.244 1451.02 L815.244 1454.96 L801.17 1454.96 L801.17 1463.43 Q802.188 1463.08 803.207 1462.92 Q804.225 1462.73 805.244 1462.73 Q811.031 1462.73 814.411 1465.9 Q817.79 1469.08 817.79 1474.49 Q817.79 1480.07 814.318 1483.17 Q810.846 1486.25 804.526 1486.25 Q802.35 1486.25 800.082 1485.88 Q797.837 1485.51 795.429 1484.77 L795.429 1480.07 Q797.513 1481.2 799.735 1481.76 Q801.957 1482.32 804.434 1482.32 Q808.438 1482.32 810.776 1480.21 Q813.114 1478.1 813.114 1474.49 Q813.114 1470.88 810.776 1468.77 Q808.438 1466.67 804.434 1466.67 Q802.559 1466.67 800.684 1467.08 Q798.832 1467.5 796.888 1468.38 L796.888 1451.02 Z" fill="#000000" fill-rule="nonzero" fill-opacity="1"></path><path clip-path="url(#clip190)" d="M1266.75 1451.02 L1285.11 1451.02 L1285.11 1454.96 L1271.03 1454.96 L1271.03 1463.43 Q1272.05 1463.08 1273.07 1462.92 Q1274.09 1462.73 1275.11 1462.73 Q1280.89 1462.73 1284.27 1465.9 Q1287.65 1469.08 1287.65 1474.49 Q1287.65 1480.07 1284.18 1483.17 Q1280.71 1486.25 1274.39 1486.25 Q1272.21 1486.25 1269.95 1485.88 Q1267.7 1485.51 1265.29 1484.77 L1265.29 1480.07 Q1267.38 1481.2 1269.6 1481.76 Q1271.82 1482.32 1274.3 1482.32 Q1278.3 1482.32 1280.64 1480.21 Q1282.98 1478.1 1282.98 1474.49 Q1282.98 1470.88 1280.64 1468.77 Q1278.3 1466.67 1274.3 1466.67 Q1272.42 1466.67 1270.55 1467.08 Q1268.7 1467.5 1266.75 1468.38 L1266.75 1451.02 Z" fill="#000000" fill-rule="nonzero" fill-opacity="1"></path><path clip-path="url(#clip190)" d="M1306.87 1454.1 Q1303.26 1454.1 1301.43 1457.66 Q1299.62 1461.2 1299.62 1468.33 Q1299.62 1475.44 1301.43 1479.01 Q1303.26 1482.55 1306.87 1482.55 Q1310.5 1482.55 1312.31 1479.01 Q1314.13 1475.44 1314.13 1468.33 Q1314.13 1461.2 1312.31 1457.66 Q1310.5 1454.1 1306.87 1454.1 M1306.87 1450.39 Q1312.68 1450.39 1315.73 1455 Q1318.81 1459.58 1318.81 1468.33 Q1318.81 1477.06 1315.73 1481.67 Q1312.68 1486.25 1306.87 1486.25 Q1301.06 1486.25 1297.98 1481.67 Q1294.92 1477.06 1294.92 1468.33 Q1294.92 1459.58 1297.98 1455 Q1301.06 1450.39 1306.87 1450.39 Z" fill="#000000" fill-rule="nonzero" fill-opacity="1"></path><path clip-path="url(#clip190)" d="M1766.52 1451.02 L1788.74 1451.02 L1788.74 1453.01 L1776.2 1485.58 L1771.31 1485.58 L1783.12 1454.96 L1766.52 1454.96 L1766.52 1451.02 Z" fill="#000000" fill-rule="nonzero" fill-opacity="1"></path><path clip-path="url(#clip190)" d="M1797.91 1451.02 L1816.27 1451.02 L1816.27 1454.96 L1802.19 1454.96 L1802.19 1463.43 Q1803.21 1463.08 1804.23 1462.92 Q1805.25 1462.73 1806.27 1462.73 Q1812.05 1462.73 1815.43 1465.9 Q1818.81 1469.08 1818.81 1474.49 Q1818.81 1480.07 1815.34 1483.17 Q1811.87 1486.25 1805.55 1486.25 Q1803.37 1486.25 1801.1 1485.88 Q1798.86 1485.51 1796.45 1484.77 L1796.45 1480.07 Q1798.54 1481.2 1800.76 1481.76 Q1802.98 1482.32 1805.46 1482.32 Q1809.46 1482.32 1811.8 1480.21 Q1814.14 1478.1 1814.14 1474.49 Q1814.14 1470.88 1811.8 1468.77 Q1809.46 1466.67 1805.46 1466.67 Q1803.58 1466.67 1801.71 1467.08 Q1799.85 1467.5 1797.91 1468.38 L1797.91 1451.02 Z" fill="#000000" fill-rule="nonzero" fill-opacity="1"></path><path clip-path="url(#clip190)" d="M2252.89 1481.64 L2260.53 1481.64 L2260.53 1455.28 L2252.22 1456.95 L2252.22 1452.69 L2260.48 1451.02 L2265.16 1451.02 L2265.16 1481.64 L2272.8 1481.64 L2272.8 1485.58 L2252.89 1485.58 L2252.89 1481.64 Z" fill="#000000" fill-rule="nonzero" fill-opacity="1"></path><path clip-path="url(#clip190)" d="M2292.24 1454.1 Q2288.63 1454.1 2286.8 1457.66 Q2285 1461.2 2285 1468.33 Q2285 1475.44 2286.8 1479.01 Q2288.63 1482.55 2292.24 1482.55 Q2295.88 1482.55 2297.68 1479.01 Q2299.51 1475.44 2299.51 1468.33 Q2299.51 1461.2 2297.68 1457.66 Q2295.88 1454.1 2292.24 1454.1 M2292.24 1450.39 Q2298.05 1450.39 2301.11 1455 Q2304.19 1459.58 2304.19 1468.33 Q2304.19 1477.06 2301.11 1481.67 Q2298.05 1486.25 2292.24 1486.25 Q2286.43 1486.25 2283.35 1481.67 Q2280.3 1477.06 2280.3 1468.33 Q2280.3 1459.58 2283.35 1455 Q2286.43 1450.39 2292.24 1450.39 Z" fill="#000000" fill-rule="nonzero" fill-opacity="1"></path><path clip-path="url(#clip190)" d="M2322.4 1454.1 Q2318.79 1454.1 2316.96 1457.66 Q2315.16 1461.2 2315.16 1468.33 Q2315.16 1475.44 2316.96 1479.01 Q2318.79 1482.55 2322.4 1482.55 Q2326.04 1482.55 2327.84 1479.01 Q2329.67 1475.44 2329.67 1468.33 Q2329.67 1461.2 2327.84 1457.66 Q2326.04 1454.1 2322.4 1454.1 M2322.4 1450.39 Q2328.21 1450.39 2331.27 1455 Q2334.35 1459.58 2334.35 1468.33 Q2334.35 1477.06 2331.27 1481.67 Q2328.21 1486.25 2322.4 1486.25 Q2316.59 1486.25 2313.51 1481.67 Q2310.46 1477.06 2310.46 1468.33 Q2310.46 1459.58 2313.51 1455 Q2316.59 1450.39 2322.4 1450.39 Z" fill="#000000" fill-rule="nonzero" fill-opacity="1"></path><path clip-path="url(#clip190)" d="M939.569 1520.52 L969.615 1520.52 L969.615 1525.93 L945.998 1525.93 L945.998 1540 L968.628 1540 L968.628 1545.41 L945.998 1545.41 L945.998 1562.63 L970.188 1562.63 L970.188 1568.04 L939.569 1568.04 L939.569 1520.52 Z" fill="#000000" fill-rule="nonzero" fill-opacity="1"></path><path clip-path="url(#clip190)" d="M1008.25 1539.24 Q1010.45 1535.29 1013.51 1533.41 Q1016.56 1531.54 1020.7 1531.54 Q1026.27 1531.54 1029.29 1535.45 Q1032.32 1539.33 1032.32 1546.53 L1032.32 1568.04 L1026.43 1568.04 L1026.43 1546.72 Q1026.43 1541.59 1024.61 1539.11 Q1022.8 1536.63 1019.08 1536.63 Q1014.53 1536.63 1011.88 1539.65 Q1009.24 1542.68 1009.24 1547.9 L1009.24 1568.04 L1003.35 1568.04 L1003.35 1546.72 Q1003.35 1541.56 1001.54 1539.11 Q999.725 1536.63 995.937 1536.63 Q991.449 1536.63 988.808 1539.68 Q986.166 1542.71 986.166 1547.9 L986.166 1568.04 L980.278 1568.04 L980.278 1532.4 L986.166 1532.4 L986.166 1537.93 Q988.171 1534.66 990.972 1533.1 Q993.773 1531.54 997.624 1531.54 Q1001.51 1531.54 1004.21 1533.51 Q1006.95 1535.48 1008.25 1539.24 Z" fill="#000000" fill-rule="nonzero" fill-opacity="1"></path><path clip-path="url(#clip190)" d="M1069.59 1550.25 Q1069.59 1543.79 1066.91 1540.13 Q1064.27 1536.44 1059.63 1536.44 Q1054.98 1536.44 1052.31 1540.13 Q1049.66 1543.79 1049.66 1550.25 Q1049.66 1556.71 1052.31 1560.4 Q1054.98 1564.07 1059.63 1564.07 Q1064.27 1564.07 1066.91 1560.4 Q1069.59 1556.71 1069.59 1550.25 M1049.66 1537.81 Q1051.51 1534.62 1054.31 1533.1 Q1057.14 1531.54 1061.06 1531.54 Q1067.55 1531.54 1071.59 1536.69 Q1075.67 1541.85 1075.67 1550.25 Q1075.67 1558.65 1071.59 1563.81 Q1067.55 1568.97 1061.06 1568.97 Q1057.14 1568.97 1054.31 1567.44 Q1051.51 1565.88 1049.66 1562.7 L1049.66 1568.04 L1043.78 1568.04 L1043.78 1518.52 L1049.66 1518.52 L1049.66 1537.81 Z" fill="#000000" fill-rule="nonzero" fill-opacity="1"></path><path clip-path="url(#clip190)" d="M1115.87 1548.76 L1115.87 1551.62 L1088.94 1551.62 Q1089.32 1557.67 1092.57 1560.85 Q1095.85 1564 1101.67 1564 Q1105.05 1564 1108.2 1563.17 Q1111.38 1562.35 1114.5 1560.69 L1114.5 1566.23 Q1111.35 1567.57 1108.04 1568.27 Q1104.73 1568.97 1101.32 1568.97 Q1092.79 1568.97 1087.79 1564 Q1082.83 1559.04 1082.83 1550.57 Q1082.83 1541.82 1087.54 1536.69 Q1092.28 1531.54 1100.3 1531.54 Q1107.5 1531.54 1111.67 1536.18 Q1115.87 1540.8 1115.87 1548.76 M1110.01 1547.04 Q1109.95 1542.23 1107.31 1539.37 Q1104.7 1536.5 1100.37 1536.5 Q1095.47 1536.5 1092.5 1539.27 Q1089.58 1542.04 1089.13 1547.07 L1110.01 1547.04 Z" fill="#000000" fill-rule="nonzero" fill-opacity="1"></path><path clip-path="url(#clip190)" d="M1148.94 1537.81 L1148.94 1518.52 L1154.79 1518.52 L1154.79 1568.04 L1148.94 1568.04 L1148.94 1562.7 Q1147.09 1565.88 1144.26 1567.44 Q1141.46 1568.97 1137.51 1568.97 Q1131.05 1568.97 1126.98 1563.81 Q1122.93 1558.65 1122.93 1550.25 Q1122.93 1541.85 1126.98 1536.69 Q1131.05 1531.54 1137.51 1531.54 Q1141.46 1531.54 1144.26 1533.1 Q1147.09 1534.62 1148.94 1537.81 M1128.98 1550.25 Q1128.98 1556.71 1131.62 1560.4 Q1134.3 1564.07 1138.94 1564.07 Q1143.59 1564.07 1146.26 1560.4 Q1148.94 1556.71 1148.94 1550.25 Q1148.94 1543.79 1146.26 1540.13 Q1143.59 1536.44 1138.94 1536.44 Q1134.3 1536.44 1131.62 1540.13 Q1128.98 1543.79 1128.98 1550.25 Z" fill="#000000" fill-rule="nonzero" fill-opacity="1"></path><path clip-path="url(#clip190)" d="M1190.31 1537.81 L1190.31 1518.52 L1196.17 1518.52 L1196.17 1568.04 L1190.31 1568.04 L1190.31 1562.7 Q1188.47 1565.88 1185.64 1567.44 Q1182.83 1568.97 1178.89 1568.97 Q1172.43 1568.97 1168.35 1563.81 Q1164.31 1558.65 1164.31 1550.25 Q1164.31 1541.85 1168.35 1536.69 Q1172.43 1531.54 1178.89 1531.54 Q1182.83 1531.54 1185.64 1533.1 Q1188.47 1534.62 1190.31 1537.81 M1170.36 1550.25 Q1170.36 1556.71 1173 1560.4 Q1175.67 1564.07 1180.32 1564.07 Q1184.97 1564.07 1187.64 1560.4 Q1190.31 1556.71 1190.31 1550.25 Q1190.31 1543.79 1187.64 1540.13 Q1184.97 1536.44 1180.32 1536.44 Q1175.67 1536.44 1173 1540.13 Q1170.36 1543.79 1170.36 1550.25 Z" fill="#000000" fill-rule="nonzero" fill-opacity="1"></path><path clip-path="url(#clip190)" d="M1208.23 1532.4 L1214.09 1532.4 L1214.09 1568.04 L1208.23 1568.04 L1208.23 1532.4 M1208.23 1518.52 L1214.09 1518.52 L1214.09 1525.93 L1208.23 1525.93 L1208.23 1518.52 Z" fill="#000000" fill-rule="nonzero" fill-opacity="1"></path><path clip-path="url(#clip190)" d="M1255.98 1546.53 L1255.98 1568.04 L1250.12 1568.04 L1250.12 1546.72 Q1250.12 1541.66 1248.15 1539.14 Q1246.17 1536.63 1242.23 1536.63 Q1237.48 1536.63 1234.75 1539.65 Q1232.01 1542.68 1232.01 1547.9 L1232.01 1568.04 L1226.12 1568.04 L1226.12 1532.4 L1232.01 1532.4 L1232.01 1537.93 Q1234.11 1534.72 1236.94 1533.13 Q1239.81 1531.54 1243.53 1531.54 Q1249.67 1531.54 1252.83 1535.36 Q1255.98 1539.14 1255.98 1546.53 Z" fill="#000000" fill-rule="nonzero" fill-opacity="1"></path><path clip-path="url(#clip190)" d="M1291.12 1549.81 Q1291.12 1543.44 1288.47 1539.94 Q1285.86 1536.44 1281.12 1536.44 Q1276.41 1536.44 1273.77 1539.94 Q1271.16 1543.44 1271.16 1549.81 Q1271.16 1556.14 1273.77 1559.64 Q1276.41 1563.14 1281.12 1563.14 Q1285.86 1563.14 1288.47 1559.64 Q1291.12 1556.14 1291.12 1549.81 M1296.97 1563.62 Q1296.97 1572.72 1292.93 1577.15 Q1288.89 1581.6 1280.55 1581.6 Q1277.46 1581.6 1274.72 1581.13 Q1271.99 1580.68 1269.41 1579.72 L1269.41 1574.03 Q1271.99 1575.43 1274.5 1576.1 Q1277.01 1576.76 1279.62 1576.76 Q1285.39 1576.76 1288.25 1573.74 Q1291.12 1570.75 1291.12 1564.67 L1291.12 1561.77 Q1289.3 1564.92 1286.47 1566.48 Q1283.64 1568.04 1279.69 1568.04 Q1273.13 1568.04 1269.12 1563.05 Q1265.11 1558.05 1265.11 1549.81 Q1265.11 1541.53 1269.12 1536.53 Q1273.13 1531.54 1279.69 1531.54 Q1283.64 1531.54 1286.47 1533.1 Q1289.3 1534.66 1291.12 1537.81 L1291.12 1532.4 L1296.97 1532.4 L1296.97 1563.62 Z" fill="#000000" fill-rule="nonzero" fill-opacity="1"></path><path clip-path="url(#clip190)" d="M1336.44 1525.81 L1336.44 1562.76 L1344.21 1562.76 Q1354.04 1562.76 1358.59 1558.3 Q1363.17 1553.85 1363.17 1544.24 Q1363.17 1534.69 1358.59 1530.26 Q1354.04 1525.81 1344.21 1525.81 L1336.44 1525.81 M1330.01 1520.52 L1343.22 1520.52 Q1357.03 1520.52 1363.49 1526.28 Q1369.95 1532.01 1369.95 1544.24 Q1369.95 1556.52 1363.46 1562.28 Q1356.97 1568.04 1343.22 1568.04 L1330.01 1568.04 L1330.01 1520.52 Z" fill="#000000" fill-rule="nonzero" fill-opacity="1"></path><path clip-path="url(#clip190)" d="M1379.95 1532.4 L1385.8 1532.4 L1385.8 1568.04 L1379.95 1568.04 L1379.95 1532.4 M1379.95 1518.52 L1385.8 1518.52 L1385.8 1525.93 L1379.95 1525.93 L1379.95 1518.52 Z" fill="#000000" fill-rule="nonzero" fill-opacity="1"></path><path clip-path="url(#clip190)" d="M1425.81 1539.24 Q1428.01 1535.29 1431.07 1533.41 Q1434.12 1531.54 1438.26 1531.54 Q1443.83 1531.54 1446.85 1535.45 Q1449.88 1539.33 1449.88 1546.53 L1449.88 1568.04 L1443.99 1568.04 L1443.99 1546.72 Q1443.99 1541.59 1442.17 1539.11 Q1440.36 1536.63 1436.64 1536.63 Q1432.08 1536.63 1429.44 1539.65 Q1426.8 1542.68 1426.8 1547.9 L1426.8 1568.04 L1420.91 1568.04 L1420.91 1546.72 Q1420.91 1541.56 1419.1 1539.11 Q1417.28 1536.63 1413.5 1536.63 Q1409.01 1536.63 1406.37 1539.68 Q1403.72 1542.71 1403.72 1547.9 L1403.72 1568.04 L1397.84 1568.04 L1397.84 1532.4 L1403.72 1532.4 L1403.72 1537.93 Q1405.73 1534.66 1408.53 1533.1 Q1411.33 1531.54 1415.18 1531.54 Q1419.07 1531.54 1421.77 1533.51 Q1424.51 1535.48 1425.81 1539.24 Z" fill="#000000" fill-rule="nonzero" fill-opacity="1"></path><path clip-path="url(#clip190)" d="M1492.05 1548.76 L1492.05 1551.62 L1465.12 1551.62 Q1465.5 1557.67 1468.75 1560.85 Q1472.03 1564 1477.85 1564 Q1481.23 1564 1484.38 1563.17 Q1487.56 1562.35 1490.68 1560.69 L1490.68 1566.23 Q1487.53 1567.57 1484.22 1568.27 Q1480.91 1568.97 1477.5 1568.97 Q1468.97 1568.97 1463.98 1564 Q1459.01 1559.04 1459.01 1550.57 Q1459.01 1541.82 1463.72 1536.69 Q1468.46 1531.54 1476.48 1531.54 Q1483.68 1531.54 1487.85 1536.18 Q1492.05 1540.8 1492.05 1548.76 M1486.19 1547.04 Q1486.13 1542.23 1483.49 1539.37 Q1480.88 1536.5 1476.55 1536.5 Q1471.65 1536.5 1468.69 1539.27 Q1465.76 1542.04 1465.31 1547.07 L1486.19 1547.04 Z" fill="#000000" fill-rule="nonzero" fill-opacity="1"></path><path clip-path="url(#clip190)" d="M1531.29 1546.53 L1531.29 1568.04 L1525.44 1568.04 L1525.44 1546.72 Q1525.44 1541.66 1523.46 1539.14 Q1521.49 1536.63 1517.54 1536.63 Q1512.8 1536.63 1510.06 1539.65 Q1507.33 1542.68 1507.33 1547.9 L1507.33 1568.04 L1501.44 1568.04 L1501.44 1532.4 L1507.33 1532.4 L1507.33 1537.93 Q1509.43 1534.72 1512.26 1533.13 Q1515.12 1531.54 1518.85 1531.54 Q1524.99 1531.54 1528.14 1535.36 Q1531.29 1539.14 1531.29 1546.53 Z" fill="#000000" fill-rule="nonzero" fill-opacity="1"></path><path clip-path="url(#clip190)" d="M1565.7 1533.45 L1565.7 1538.98 Q1563.22 1537.71 1560.54 1537.07 Q1557.87 1536.44 1555.01 1536.44 Q1550.64 1536.44 1548.45 1537.77 Q1546.28 1539.11 1546.28 1541.79 Q1546.28 1543.82 1547.84 1545 Q1549.4 1546.15 1554.11 1547.2 L1556.12 1547.64 Q1562.36 1548.98 1564.97 1551.43 Q1567.61 1553.85 1567.61 1558.21 Q1567.61 1563.17 1563.66 1566.07 Q1559.75 1568.97 1552.87 1568.97 Q1550.01 1568.97 1546.89 1568.39 Q1543.8 1567.85 1540.36 1566.74 L1540.36 1560.69 Q1543.61 1562.38 1546.76 1563.24 Q1549.91 1564.07 1553 1564.07 Q1557.14 1564.07 1559.37 1562.66 Q1561.59 1561.23 1561.59 1558.65 Q1561.59 1556.27 1559.97 1554.99 Q1558.38 1553.72 1552.94 1552.54 L1550.9 1552.07 Q1545.46 1550.92 1543.04 1548.56 Q1540.62 1546.18 1540.62 1542.04 Q1540.62 1537.01 1544.18 1534.27 Q1547.75 1531.54 1554.31 1531.54 Q1557.55 1531.54 1560.42 1532.01 Q1563.28 1532.49 1565.7 1533.45 Z" fill="#000000" fill-rule="nonzero" fill-opacity="1"></path><path clip-path="url(#clip190)" d="M1576.94 1532.4 L1582.79 1532.4 L1582.79 1568.04 L1576.94 1568.04 L1576.94 1532.4 M1576.94 1518.52 L1582.79 1518.52 L1582.79 1525.93 L1576.94 1525.93 L1576.94 1518.52 Z" fill="#000000" fill-rule="nonzero" fill-opacity="1"></path><path clip-path="url(#clip190)" d="M1608.86 1536.5 Q1604.15 1536.5 1601.41 1540.19 Q1598.67 1543.85 1598.67 1550.25 Q1598.67 1556.65 1601.38 1560.34 Q1604.12 1564 1608.86 1564 Q1613.54 1564 1616.28 1560.31 Q1619.01 1556.62 1619.01 1550.25 Q1619.01 1543.92 1616.28 1540.23 Q1613.54 1536.5 1608.86 1536.5 M1608.86 1531.54 Q1616.5 1531.54 1620.86 1536.5 Q1625.22 1541.47 1625.22 1550.25 Q1625.22 1559 1620.86 1564 Q1616.5 1568.97 1608.86 1568.97 Q1601.19 1568.97 1596.83 1564 Q1592.5 1559 1592.5 1550.25 Q1592.5 1541.47 1596.83 1536.5 Q1601.19 1531.54 1608.86 1531.54 Z" fill="#000000" fill-rule="nonzero" fill-opacity="1"></path><path clip-path="url(#clip190)" d="M1664.56 1546.53 L1664.56 1568.04 L1658.7 1568.04 L1658.7 1546.72 Q1658.7 1541.66 1656.73 1539.14 Q1654.76 1536.63 1650.81 1536.63 Q1646.07 1536.63 1643.33 1539.65 Q1640.59 1542.68 1640.59 1547.9 L1640.59 1568.04 L1634.7 1568.04 L1634.7 1532.4 L1640.59 1532.4 L1640.59 1537.93 Q1642.69 1534.72 1645.53 1533.13 Q1648.39 1531.54 1652.11 1531.54 Q1658.26 1531.54 1661.41 1535.36 Q1664.56 1539.14 1664.56 1546.53 Z" fill="#000000" fill-rule="nonzero" fill-opacity="1"></path><polyline clip-path="url(#clip190)" style="stroke:#000000; stroke-linecap:round; stroke-linejoin:round; stroke-width:4; stroke-opacity:1; fill:none" points="251.372,1423.18 251.372,123.472 "></polyline>
<polyline clip-path="url(#clip190)" style="stroke:#000000; stroke-linecap:round; stroke-linejoin:round; stroke-width:4; stroke-opacity:1; fill:none" points="251.372,1185.45 270.27,1185.45 "></polyline>
<polyline clip-path="url(#clip190)" style="stroke:#000000; stroke-linecap:round; stroke-linejoin:round; stroke-width:4; stroke-opacity:1; fill:none" points="251.372,366.65 270.27,366.65 "></polyline>
<path clip-path="url(#clip190)" d="M114.931 1205.25 L122.57 1205.25 L122.57 1178.88 L114.26 1180.55 L114.26 1176.29 L122.524 1174.62 L127.2 1174.62 L127.2 1205.25 L134.839 1205.25 L134.839 1209.18 L114.931 1209.18 L114.931 1205.25 Z" fill="#000000" fill-rule="nonzero" fill-opacity="1"></path><path clip-path="url(#clip190)" d="M154.283 1177.7 Q150.672 1177.7 148.843 1181.26 Q147.038 1184.81 147.038 1191.94 Q147.038 1199.04 148.843 1202.61 Q150.672 1206.15 154.283 1206.15 Q157.917 1206.15 159.723 1202.61 Q161.552 1199.04 161.552 1191.94 Q161.552 1184.81 159.723 1181.26 Q157.917 1177.7 154.283 1177.7 M154.283 1174 Q160.093 1174 163.149 1178.6 Q166.227 1183.19 166.227 1191.94 Q166.227 1200.66 163.149 1205.27 Q160.093 1209.85 154.283 1209.85 Q148.473 1209.85 145.394 1205.27 Q142.339 1200.66 142.339 1191.94 Q142.339 1183.19 145.394 1178.6 Q148.473 1174 154.283 1174 Z" fill="#000000" fill-rule="nonzero" fill-opacity="1"></path><path clip-path="url(#clip190)" d="M166.227 1168.1 L190.339 1168.1 L190.339 1171.29 L166.227 1171.29 L166.227 1168.1 Z" fill="#000000" fill-rule="nonzero" fill-opacity="1"></path><path clip-path="url(#clip190)" d="M199.197 1178.57 L205.404 1178.57 L205.404 1157.15 L198.652 1158.51 L198.652 1155.04 L205.366 1153.69 L209.166 1153.69 L209.166 1178.57 L215.372 1178.57 L215.372 1181.77 L199.197 1181.77 L199.197 1178.57 Z" fill="#000000" fill-rule="nonzero" fill-opacity="1"></path><path clip-path="url(#clip190)" d="M144.667 386.442 L152.305 386.442 L152.305 360.077 L143.995 361.744 L143.995 357.484 L152.259 355.818 L156.935 355.818 L156.935 386.442 L164.574 386.442 L164.574 390.378 L144.667 390.378 L144.667 386.442 Z" fill="#000000" fill-rule="nonzero" fill-opacity="1"></path><path clip-path="url(#clip190)" d="M184.018 358.896 Q180.407 358.896 178.578 362.461 Q176.773 366.003 176.773 373.132 Q176.773 380.239 178.578 383.804 Q180.407 387.345 184.018 387.345 Q187.652 387.345 189.458 383.804 Q191.287 380.239 191.287 373.132 Q191.287 366.003 189.458 362.461 Q187.652 358.896 184.018 358.896 M184.018 355.193 Q189.828 355.193 192.884 359.799 Q195.963 364.382 195.963 373.132 Q195.963 381.859 192.884 386.466 Q189.828 391.049 184.018 391.049 Q178.208 391.049 175.129 386.466 Q172.074 381.859 172.074 373.132 Q172.074 364.382 175.129 359.799 Q178.208 355.193 184.018 355.193 Z" fill="#000000" fill-rule="nonzero" fill-opacity="1"></path><path clip-path="url(#clip190)" d="M205.667 337.389 Q202.733 337.389 201.248 340.285 Q199.781 343.163 199.781 348.955 Q199.781 354.729 201.248 357.626 Q202.733 360.503 205.667 360.503 Q208.62 360.503 210.087 357.626 Q211.573 354.729 211.573 348.955 Q211.573 343.163 210.087 340.285 Q208.62 337.389 205.667 337.389 M205.667 334.379 Q210.388 334.379 212.871 338.122 Q215.372 341.846 215.372 348.955 Q215.372 356.046 212.871 359.789 Q210.388 363.513 205.667 363.513 Q200.947 363.513 198.445 359.789 Q195.963 356.046 195.963 348.955 Q195.963 341.846 198.445 338.122 Q200.947 334.379 205.667 334.379 Z" fill="#000000" fill-rule="nonzero" fill-opacity="1"></path><path clip-path="url(#clip190)" d="M21.7677 1015.64 L58.7206 1015.64 L58.7206 1007.87 Q58.7206 998.035 54.2646 993.484 Q49.8086 988.901 40.1964 988.901 Q30.6479 988.901 26.2237 993.484 Q21.7677 998.035 21.7677 1007.87 L21.7677 1015.64 M16.4842 1022.07 L16.4842 1008.86 Q16.4842 995.044 22.2451 988.582 Q27.9743 982.121 40.1964 982.121 Q52.4822 982.121 58.2432 988.614 Q64.0042 995.107 64.0042 1008.86 L64.0042 1022.07 L16.4842 1022.07 Z" fill="#000000" fill-rule="nonzero" fill-opacity="1"></path><path clip-path="url(#clip190)" d="M28.3562 972.127 L28.3562 966.271 L64.0042 966.271 L64.0042 972.127 L28.3562 972.127 M14.479 972.127 L14.479 966.271 L21.895 966.271 L21.895 972.127 L14.479 972.127 Z" fill="#000000" fill-rule="nonzero" fill-opacity="1"></path><path clip-path="url(#clip190)" d="M29.4065 931.291 L34.9447 931.291 Q33.6716 933.774 33.035 936.447 Q32.3984 939.121 32.3984 941.985 Q32.3984 946.346 33.7352 948.542 Q35.072 950.706 37.7456 950.706 Q39.7826 950.706 40.9603 949.147 Q42.1061 947.587 43.1565 942.877 L43.6021 940.871 Q44.9389 934.633 47.3897 932.023 Q49.8086 929.381 54.1691 929.381 Q59.1344 929.381 62.0308 933.328 Q64.9272 937.243 64.9272 944.118 Q64.9272 946.982 64.3543 950.102 Q63.8132 953.189 62.6992 956.627 L56.6518 956.627 Q58.3387 953.38 59.198 950.229 Q60.0256 947.078 60.0256 943.991 Q60.0256 939.853 58.6251 937.625 Q57.1929 935.397 54.6147 935.397 Q52.2276 935.397 50.9545 937.02 Q49.6813 938.612 48.5037 944.054 L48.0262 946.091 Q46.8804 951.534 44.5251 953.953 Q42.138 956.372 38.0002 956.372 Q32.9713 956.372 30.2341 952.807 Q27.4968 949.242 27.4968 942.686 Q27.4968 939.439 27.9743 936.575 Q28.4517 933.71 29.4065 931.291 Z" fill="#000000" fill-rule="nonzero" fill-opacity="1"></path><path clip-path="url(#clip190)" d="M18.2347 914.263 L28.3562 914.263 L28.3562 902.2 L32.9077 902.2 L32.9077 914.263 L52.2594 914.263 Q56.6199 914.263 57.8613 913.085 Q59.1026 911.876 59.1026 908.215 L59.1026 902.2 L64.0042 902.2 L64.0042 908.215 Q64.0042 914.995 61.4897 917.573 Q58.9434 920.151 52.2594 920.151 L32.9077 920.151 L32.9077 924.448 L28.3562 924.448 L28.3562 920.151 L18.2347 920.151 L18.2347 914.263 Z" fill="#000000" fill-rule="nonzero" fill-opacity="1"></path><path clip-path="url(#clip190)" d="M32.4621 880.684 Q32.4621 885.394 36.1542 888.132 Q39.8145 890.869 46.212 890.869 Q52.6095 890.869 56.3017 888.163 Q59.9619 885.426 59.9619 880.684 Q59.9619 876.005 56.2698 873.268 Q52.5777 870.53 46.212 870.53 Q39.8781 870.53 36.186 873.268 Q32.4621 876.005 32.4621 880.684 M27.4968 880.684 Q27.4968 873.045 32.4621 868.684 Q37.4273 864.324 46.212 864.324 Q54.9649 864.324 59.9619 868.684 Q64.9272 873.045 64.9272 880.684 Q64.9272 888.354 59.9619 892.715 Q54.9649 897.043 46.212 897.043 Q37.4273 897.043 32.4621 892.715 Q27.4968 888.354 27.4968 880.684 Z" fill="#000000" fill-rule="nonzero" fill-opacity="1"></path><path clip-path="url(#clip190)" d="M33.8307 833.959 Q33.2578 834.946 33.0032 836.124 Q32.7167 837.27 32.7167 838.67 Q32.7167 843.635 35.9632 846.309 Q39.1779 848.951 45.2253 848.951 L64.0042 848.951 L64.0042 854.839 L28.3562 854.839 L28.3562 848.951 L33.8944 848.951 Q30.6479 847.105 29.0883 844.144 Q27.4968 841.184 27.4968 836.951 Q27.4968 836.346 27.5923 835.614 Q27.656 834.882 27.8151 833.991 L33.8307 833.959 Z" fill="#000000" fill-rule="nonzero" fill-opacity="1"></path><path clip-path="url(#clip190)" d="M18.2347 822.024 L28.3562 822.024 L28.3562 809.961 L32.9077 809.961 L32.9077 822.024 L52.2594 822.024 Q56.6199 822.024 57.8613 820.846 Q59.1026 819.636 59.1026 815.976 L59.1026 809.961 L64.0042 809.961 L64.0042 815.976 Q64.0042 822.756 61.4897 825.334 Q58.9434 827.912 52.2594 827.912 L32.9077 827.912 L32.9077 832.209 L28.3562 832.209 L28.3562 827.912 L18.2347 827.912 L18.2347 822.024 Z" fill="#000000" fill-rule="nonzero" fill-opacity="1"></path><path clip-path="url(#clip190)" d="M28.3562 802.258 L28.3562 796.402 L64.0042 796.402 L64.0042 802.258 L28.3562 802.258 M14.479 802.258 L14.479 796.402 L21.895 796.402 L21.895 802.258 L14.479 802.258 Z" fill="#000000" fill-rule="nonzero" fill-opacity="1"></path><path clip-path="url(#clip190)" d="M32.4621 770.334 Q32.4621 775.045 36.1542 777.782 Q39.8145 780.519 46.212 780.519 Q52.6095 780.519 56.3017 777.814 Q59.9619 775.077 59.9619 770.334 Q59.9619 765.655 56.2698 762.918 Q52.5777 760.181 46.212 760.181 Q39.8781 760.181 36.186 762.918 Q32.4621 765.655 32.4621 770.334 M27.4968 770.334 Q27.4968 762.695 32.4621 758.335 Q37.4273 753.974 46.212 753.974 Q54.9649 753.974 59.9619 758.335 Q64.9272 762.695 64.9272 770.334 Q64.9272 778.005 59.9619 782.365 Q54.9649 786.694 46.212 786.694 Q37.4273 786.694 32.4621 782.365 Q27.4968 778.005 27.4968 770.334 Z" fill="#000000" fill-rule="nonzero" fill-opacity="1"></path><path clip-path="url(#clip190)" d="M42.4881 714.634 L64.0042 714.634 L64.0042 720.491 L42.679 720.491 Q37.6183 720.491 35.1038 722.464 Q32.5894 724.437 32.5894 728.384 Q32.5894 733.127 35.6131 735.864 Q38.6368 738.601 43.8567 738.601 L64.0042 738.601 L64.0042 744.489 L28.3562 744.489 L28.3562 738.601 L33.8944 738.601 Q30.6797 736.5 29.0883 733.668 Q27.4968 730.803 27.4968 727.079 Q27.4968 720.936 31.3163 717.785 Q35.1038 714.634 42.4881 714.634 Z" fill="#000000" fill-rule="nonzero" fill-opacity="1"></path><path clip-path="url(#clip190)" d="M41.7242 659.443 Q42.4244 657.375 44.7161 655.433 Q47.0077 653.46 51.0181 651.486 L64.0042 644.962 L64.0042 651.868 L51.8138 657.948 Q47.0395 660.303 45.48 662.531 Q43.9204 664.727 43.9204 668.546 L43.9204 675.549 L64.0042 675.549 L64.0042 681.978 L16.4842 681.978 L16.4842 667.464 Q16.4842 659.316 19.8898 655.306 Q23.2955 651.295 30.1704 651.295 Q34.6582 651.295 37.6183 653.396 Q40.5784 655.465 41.7242 659.443 M21.7677 675.549 L38.6368 675.549 L38.6368 667.464 Q38.6368 662.817 36.5043 660.462 Q34.34 658.075 30.1704 658.075 Q26.0009 658.075 23.9002 660.462 Q21.7677 662.817 21.7677 667.464 L21.7677 675.549 Z" fill="#000000" fill-rule="nonzero" fill-opacity="1"></path><path clip-path="url(#clip190)" d="M46.0847 622.172 Q46.0847 629.27 47.7079 632.007 Q49.3312 634.745 53.2461 634.745 Q56.3653 634.745 58.2114 632.708 Q60.0256 630.639 60.0256 627.106 Q60.0256 622.236 56.5881 619.308 Q53.1188 616.348 47.3897 616.348 L46.0847 616.348 L46.0847 622.172 M43.6657 610.491 L64.0042 610.491 L64.0042 616.348 L58.5933 616.348 Q61.8398 618.353 63.3994 621.345 Q64.9272 624.337 64.9272 628.665 Q64.9272 634.14 61.8716 637.386 Q58.7843 640.601 53.6281 640.601 Q47.6125 640.601 44.5569 636.591 Q41.5014 632.548 41.5014 624.559 L41.5014 616.348 L40.9285 616.348 Q36.8862 616.348 34.6901 619.021 Q32.4621 621.663 32.4621 626.469 Q32.4621 629.525 33.1941 632.421 Q33.9262 635.317 35.3903 637.991 L29.9795 637.991 Q28.7381 634.776 28.1334 631.753 Q27.4968 628.729 27.4968 625.864 Q27.4968 618.13 31.5072 614.311 Q35.5176 610.491 43.6657 610.491 Z" fill="#000000" fill-rule="nonzero" fill-opacity="1"></path><path clip-path="url(#clip190)" d="M18.2347 592.635 L28.3562 592.635 L28.3562 580.572 L32.9077 580.572 L32.9077 592.635 L52.2594 592.635 Q56.6199 592.635 57.8613 591.458 Q59.1026 590.248 59.1026 586.588 L59.1026 580.572 L64.0042 580.572 L64.0042 586.588 Q64.0042 593.367 61.4897 595.946 Q58.9434 598.524 52.2594 598.524 L32.9077 598.524 L32.9077 602.821 L28.3562 602.821 L28.3562 598.524 L18.2347 598.524 L18.2347 592.635 Z" fill="#000000" fill-rule="nonzero" fill-opacity="1"></path><path clip-path="url(#clip190)" d="M28.3562 572.87 L28.3562 567.013 L64.0042 567.013 L64.0042 572.87 L28.3562 572.87 M14.479 572.87 L14.479 567.013 L21.895 567.013 L21.895 572.87 L14.479 572.87 Z" fill="#000000" fill-rule="nonzero" fill-opacity="1"></path><path clip-path="url(#clip190)" d="M32.4621 540.946 Q32.4621 545.656 36.1542 548.394 Q39.8145 551.131 46.212 551.131 Q52.6095 551.131 56.3017 548.426 Q59.9619 545.688 59.9619 540.946 Q59.9619 536.267 56.2698 533.53 Q52.5777 530.793 46.212 530.793 Q39.8781 530.793 36.186 533.53 Q32.4621 536.267 32.4621 540.946 M27.4968 540.946 Q27.4968 533.307 32.4621 528.947 Q37.4273 524.586 46.212 524.586 Q54.9649 524.586 59.9619 528.947 Q64.9272 533.307 64.9272 540.946 Q64.9272 548.617 59.9619 552.977 Q54.9649 557.306 46.212 557.306 Q37.4273 557.306 32.4621 552.977 Q27.4968 548.617 27.4968 540.946 Z" fill="#000000" fill-rule="nonzero" fill-opacity="1"></path><path clip-path="url(#clip190)" d="M762.322 18.8205 L762.322 65.8515 L772.206 65.8515 Q784.723 65.8515 790.516 60.1802 Q796.349 54.509 796.349 42.2752 Q796.349 30.1225 790.516 24.4918 Q784.723 18.8205 772.206 18.8205 L762.322 18.8205 M754.139 12.096 L770.95 12.096 Q788.531 12.096 796.754 19.4281 Q804.978 26.7198 804.978 42.2752 Q804.978 57.9117 796.714 65.2439 Q788.45 72.576 770.95 72.576 L754.139 72.576 L754.139 12.096 Z" fill="#000000" fill-rule="nonzero" fill-opacity="1"></path><path clip-path="url(#clip190)" d="M817.697 27.2059 L825.151 27.2059 L825.151 72.576 L817.697 72.576 L817.697 27.2059 M817.697 9.54393 L825.151 9.54393 L825.151 18.9825 L817.697 18.9825 L817.697 9.54393 Z" fill="#000000" fill-rule="nonzero" fill-opacity="1"></path><path clip-path="url(#clip190)" d="M869.671 28.5427 L869.671 35.5912 Q866.511 33.9709 863.108 33.1607 Q859.705 32.3505 856.059 32.3505 Q850.51 32.3505 847.715 34.0519 Q844.96 35.7533 844.96 39.156 Q844.96 41.7486 846.945 43.2475 Q848.93 44.7058 854.925 46.0426 L857.477 46.6097 Q865.417 48.3111 868.739 51.4303 Q872.101 54.509 872.101 60.0587 Q872.101 66.3781 867.078 70.0644 Q862.095 73.7508 853.345 73.7508 Q849.7 73.7508 845.73 73.0216 Q841.8 72.3329 837.425 70.9151 L837.425 63.2184 Q841.557 65.3654 845.568 66.4591 Q849.578 67.5124 853.507 67.5124 Q858.774 67.5124 861.609 65.73 Q864.445 63.9071 864.445 60.6258 Q864.445 57.5877 862.379 55.9673 Q860.353 54.3469 853.426 52.8481 L850.834 52.2405 Q843.907 50.7821 840.828 47.7845 Q837.749 44.7463 837.749 39.4801 Q837.749 33.0797 842.286 29.5959 Q846.823 26.1121 855.168 26.1121 Q859.3 26.1121 862.946 26.7198 Q866.592 27.3274 869.671 28.5427 Z" fill="#000000" fill-rule="nonzero" fill-opacity="1"></path><path clip-path="url(#clip190)" d="M891.343 14.324 L891.343 27.2059 L906.696 27.2059 L906.696 32.9987 L891.343 32.9987 L891.343 57.6282 Q891.343 63.1779 892.842 64.7578 Q894.381 66.3376 899.04 66.3376 L906.696 66.3376 L906.696 72.576 L899.04 72.576 Q890.411 72.576 887.13 69.3758 Q883.849 66.1351 883.849 57.6282 L883.849 32.9987 L878.38 32.9987 L878.38 27.2059 L883.849 27.2059 L883.849 14.324 L891.343 14.324 Z" fill="#000000" fill-rule="nonzero" fill-opacity="1"></path><path clip-path="url(#clip190)" d="M934.08 32.4315 Q928.085 32.4315 924.601 37.1306 Q921.117 41.7891 921.117 49.9314 Q921.117 58.0738 924.56 62.7728 Q928.044 67.4314 934.08 67.4314 Q940.035 67.4314 943.519 62.7323 Q947.002 58.0333 947.002 49.9314 Q947.002 41.8701 943.519 37.1711 Q940.035 32.4315 934.08 32.4315 M934.08 26.1121 Q943.802 26.1121 949.352 32.4315 Q954.902 38.7509 954.902 49.9314 Q954.902 61.0714 949.352 67.4314 Q943.802 73.7508 934.08 73.7508 Q924.317 73.7508 918.767 67.4314 Q913.258 61.0714 913.258 49.9314 Q913.258 38.7509 918.767 32.4315 Q924.317 26.1121 934.08 26.1121 Z" fill="#000000" fill-rule="nonzero" fill-opacity="1"></path><path clip-path="url(#clip190)" d="M993.547 34.1734 Q992.291 33.4443 990.793 33.1202 Q989.334 32.7556 987.552 32.7556 Q981.232 32.7556 977.83 36.8875 Q974.467 40.9789 974.467 48.6757 L974.467 72.576 L966.973 72.576 L966.973 27.2059 L974.467 27.2059 L974.467 34.2544 Q976.817 30.1225 980.584 28.1376 Q984.352 26.1121 989.739 26.1121 Q990.509 26.1121 991.441 26.2337 Q992.372 26.3147 993.507 26.5172 L993.547 34.1734 Z" fill="#000000" fill-rule="nonzero" fill-opacity="1"></path><path clip-path="url(#clip190)" d="M1008.74 14.324 L1008.74 27.2059 L1024.09 27.2059 L1024.09 32.9987 L1008.74 32.9987 L1008.74 57.6282 Q1008.74 63.1779 1010.24 64.7578 Q1011.78 66.3376 1016.43 66.3376 L1024.09 66.3376 L1024.09 72.576 L1016.43 72.576 Q1007.81 72.576 1004.53 69.3758 Q1001.24 66.1351 1001.24 57.6282 L1001.24 32.9987 L995.775 32.9987 L995.775 27.2059 L1001.24 27.2059 L1001.24 14.324 L1008.74 14.324 Z" fill="#000000" fill-rule="nonzero" fill-opacity="1"></path><path clip-path="url(#clip190)" d="M1033.89 27.2059 L1041.35 27.2059 L1041.35 72.576 L1033.89 72.576 L1033.89 27.2059 M1033.89 9.54393 L1041.35 9.54393 L1041.35 18.9825 L1033.89 18.9825 L1033.89 9.54393 Z" fill="#000000" fill-rule="nonzero" fill-opacity="1"></path><path clip-path="url(#clip190)" d="M1074.52 32.4315 Q1068.53 32.4315 1065.05 37.1306 Q1061.56 41.7891 1061.56 49.9314 Q1061.56 58.0738 1065.01 62.7728 Q1068.49 67.4314 1074.52 67.4314 Q1080.48 67.4314 1083.96 62.7323 Q1087.45 58.0333 1087.45 49.9314 Q1087.45 41.8701 1083.96 37.1711 Q1080.48 32.4315 1074.52 32.4315 M1074.52 26.1121 Q1084.25 26.1121 1089.8 32.4315 Q1095.35 38.7509 1095.35 49.9314 Q1095.35 61.0714 1089.8 67.4314 Q1084.25 73.7508 1074.52 73.7508 Q1064.76 73.7508 1059.21 67.4314 Q1053.7 61.0714 1053.7 49.9314 Q1053.7 38.7509 1059.21 32.4315 Q1064.76 26.1121 1074.52 26.1121 Z" fill="#000000" fill-rule="nonzero" fill-opacity="1"></path><path clip-path="url(#clip190)" d="M1145.42 45.1919 L1145.42 72.576 L1137.96 72.576 L1137.96 45.4349 Q1137.96 38.994 1135.45 35.7938 Q1132.94 32.5936 1127.92 32.5936 Q1121.88 32.5936 1118.4 36.4419 Q1114.91 40.2903 1114.91 46.9338 L1114.91 72.576 L1107.42 72.576 L1107.42 27.2059 L1114.91 27.2059 L1114.91 34.2544 Q1117.59 30.163 1121.19 28.1376 Q1124.84 26.1121 1129.58 26.1121 Q1137.39 26.1121 1141.41 30.9732 Q1145.42 35.7938 1145.42 45.1919 Z" fill="#000000" fill-rule="nonzero" fill-opacity="1"></path><path clip-path="url(#clip190)" d="M1189.21 28.5427 L1189.21 35.5912 Q1186.05 33.9709 1182.64 33.1607 Q1179.24 32.3505 1175.59 32.3505 Q1170.05 32.3505 1167.25 34.0519 Q1164.5 35.7533 1164.5 39.156 Q1164.5 41.7486 1166.48 43.2475 Q1168.47 44.7058 1174.46 46.0426 L1177.01 46.6097 Q1184.95 48.3111 1188.27 51.4303 Q1191.64 54.509 1191.64 60.0587 Q1191.64 66.3781 1186.61 70.0644 Q1181.63 73.7508 1172.88 73.7508 Q1169.23 73.7508 1165.27 73.0216 Q1161.34 72.3329 1156.96 70.9151 L1156.96 63.2184 Q1161.09 65.3654 1165.1 66.4591 Q1169.11 67.5124 1173.04 67.5124 Q1178.31 67.5124 1181.14 65.73 Q1183.98 63.9071 1183.98 60.6258 Q1183.98 57.5877 1181.91 55.9673 Q1179.89 54.3469 1172.96 52.8481 L1170.37 52.2405 Q1163.44 50.7821 1160.36 47.7845 Q1157.28 44.7463 1157.28 39.4801 Q1157.28 33.0797 1161.82 29.5959 Q1166.36 26.1121 1174.7 26.1121 Q1178.84 26.1121 1182.48 26.7198 Q1186.13 27.3274 1189.21 28.5427 Z" fill="#000000" fill-rule="nonzero" fill-opacity="1"></path><path clip-path="url(#clip190)" d="M1247.78 9.62495 Q1242.35 18.942 1239.72 28.0566 Q1237.09 37.1711 1237.09 46.5287 Q1237.09 55.8863 1239.72 65.0818 Q1242.39 74.2369 1247.78 83.5134 L1241.3 83.5134 Q1235.22 73.9938 1232.19 64.7983 Q1229.19 55.6027 1229.19 46.5287 Q1229.19 37.4952 1232.19 28.3401 Q1235.18 19.1851 1241.3 9.62495 L1247.78 9.62495 Z" fill="#000000" fill-rule="nonzero" fill-opacity="1"></path><path clip-path="url(#clip190)" d="M1292.1 34.0924 L1292.1 9.54393 L1299.55 9.54393 L1299.55 72.576 L1292.1 72.576 L1292.1 65.7705 Q1289.75 69.8214 1286.14 71.8063 Q1282.58 73.7508 1277.56 73.7508 Q1269.33 73.7508 1264.15 67.1883 Q1259 60.6258 1259 49.9314 Q1259 39.2371 1264.15 32.6746 Q1269.33 26.1121 1277.56 26.1121 Q1282.58 26.1121 1286.14 28.0971 Q1289.75 30.0415 1292.1 34.0924 M1266.7 49.9314 Q1266.7 58.1548 1270.06 62.8538 Q1273.46 67.5124 1279.38 67.5124 Q1285.29 67.5124 1288.7 62.8538 Q1292.1 58.1548 1292.1 49.9314 Q1292.1 41.7081 1288.7 37.0496 Q1285.29 32.3505 1279.38 32.3505 Q1273.46 32.3505 1270.06 37.0496 Q1266.7 41.7081 1266.7 49.9314 Z" fill="#000000" fill-rule="nonzero" fill-opacity="1"></path><path clip-path="url(#clip190)" d="M1342.25 34.9026 L1394.18 34.9026 L1394.18 41.7081 L1342.25 41.7081 L1342.25 34.9026 M1342.25 51.4303 L1394.18 51.4303 L1394.18 58.3168 L1342.25 58.3168 L1342.25 51.4303 Z" fill="#000000" fill-rule="nonzero" fill-opacity="1"></path><path clip-path="url(#clip190)" d="M1445.26 65.6895 L1473.82 65.6895 L1473.82 72.576 L1435.42 72.576 L1435.42 65.6895 Q1440.08 60.8689 1448.1 52.7671 Q1456.16 44.6248 1458.23 42.2752 Q1462.16 37.8598 1463.7 34.8216 Q1465.27 31.7429 1465.27 28.7857 Q1465.27 23.9651 1461.87 20.927 Q1458.51 17.8888 1453.08 17.8888 Q1449.23 17.8888 1444.94 19.2256 Q1440.69 20.5624 1435.82 23.2765 L1435.82 15.0127 Q1440.77 13.0277 1445.06 12.015 Q1449.35 11.0023 1452.92 11.0023 Q1462.32 11.0023 1467.91 15.7013 Q1473.5 20.4004 1473.5 28.2591 Q1473.5 31.9859 1472.08 35.3482 Q1470.7 38.6699 1467.02 43.2069 Q1466 44.3817 1460.58 50.0125 Q1455.15 55.6027 1445.26 65.6895 Z" fill="#000000" fill-rule="nonzero" fill-opacity="1"></path><path clip-path="url(#clip190)" d="M1491.85 62.2867 L1500.4 62.2867 L1500.4 69.2543 L1493.75 82.2172 L1488.53 82.2172 L1491.85 69.2543 L1491.85 62.2867 Z" fill="#000000" fill-rule="nonzero" fill-opacity="1"></path><path clip-path="url(#clip190)" d="M1543.01 12.096 L1554.03 12.096 L1580.85 62.6918 L1580.85 12.096 L1588.79 12.096 L1588.79 72.576 L1577.77 72.576 L1550.95 21.9802 L1550.95 72.576 L1543.01 72.576 L1543.01 12.096 Z" fill="#000000" fill-rule="nonzero" fill-opacity="1"></path><path clip-path="url(#clip190)" d="M1632.09 34.9026 L1684.02 34.9026 L1684.02 41.7081 L1632.09 41.7081 L1632.09 34.9026 M1632.09 51.4303 L1684.02 51.4303 L1684.02 58.3168 L1632.09 58.3168 L1632.09 51.4303 Z" fill="#000000" fill-rule="nonzero" fill-opacity="1"></path><path clip-path="url(#clip190)" d="M1729.47 65.6895 L1742.84 65.6895 L1742.84 19.5497 L1728.3 22.4663 L1728.3 15.0127 L1742.76 12.096 L1750.94 12.096 L1750.94 65.6895 L1764.31 65.6895 L1764.31 72.576 L1729.47 72.576 L1729.47 65.6895 Z" fill="#000000" fill-rule="nonzero" fill-opacity="1"></path><path clip-path="url(#clip190)" d="M1798.34 17.4837 Q1792.02 17.4837 1788.82 23.7221 Q1785.66 29.92 1785.66 42.3968 Q1785.66 54.833 1788.82 61.0714 Q1792.02 67.2693 1798.34 67.2693 Q1804.7 67.2693 1807.86 61.0714 Q1811.06 54.833 1811.06 42.3968 Q1811.06 29.92 1807.86 23.7221 Q1804.7 17.4837 1798.34 17.4837 M1798.34 11.0023 Q1808.51 11.0023 1813.86 19.0636 Q1819.24 27.0843 1819.24 42.3968 Q1819.24 57.6687 1813.86 65.73 Q1808.51 73.7508 1798.34 73.7508 Q1788.17 73.7508 1782.78 65.73 Q1777.44 57.6687 1777.44 42.3968 Q1777.44 27.0843 1782.78 19.0636 Q1788.17 11.0023 1798.34 11.0023 Z" fill="#000000" fill-rule="nonzero" fill-opacity="1"></path><path clip-path="url(#clip190)" d="M1831.4 9.62495 L1837.88 9.62495 Q1843.95 19.1851 1846.95 28.3401 Q1849.99 37.4952 1849.99 46.5287 Q1849.99 55.6027 1846.95 64.7983 Q1843.95 73.9938 1837.88 83.5134 L1831.4 83.5134 Q1836.78 74.2369 1839.42 65.0818 Q1842.09 55.8863 1842.09 46.5287 Q1842.09 37.1711 1839.42 28.0566 Q1836.78 18.942 1831.4 9.62495 Z" fill="#000000" fill-rule="nonzero" fill-opacity="1"></path><polyline clip-path="url(#clip192)" style="stroke:#009af9; stroke-linecap:round; stroke-linejoin:round; stroke-width:4; stroke-opacity:1; fill:none" stroke-dasharray="16, 10" points="310.845,452.988 330.87,515.176 350.895,508.59 370.919,519.816 390.944,668.301 410.968,602.94 430.993,611.32 451.018,678.186 471.042,888.422 491.067,652.384 511.092,692.275 531.116,897.514 551.141,831.251 571.165,695.594 591.19,701.225 611.215,678.678 631.239,785.662 651.264,820.761 671.288,777.65 691.313,774.49 711.338,938.075 731.362,760.114 751.387,866.624 771.412,757.802 791.436,833.577 811.461,846.887 831.485,823.128 851.51,779.234 871.535,795.755 891.559,829.347 911.584,857.722 931.609,869.833 951.633,804.153 971.658,863.389 991.682,879.601 1011.71,940.318 1031.73,767.939 1051.76,909.586 1071.78,690.549 1091.81,749.539 1111.83,856.638 1131.85,746.882 1151.88,738.076 1171.9,819.356 1191.93,872.686 1211.95,815.74 1231.98,832.43 1252,836.809 1272.03,834.397 1292.05,781.209 1312.08,755.511 1332.1,804.408 1352.13,840.684 1372.15,918.304 1392.17,807.002 1412.2,806.397 1432.22,787.567 1452.25,760.13 1472.27,774.569 1492.3,799.665 1512.32,717.061 1532.35,732.999 1552.37,739.712 1572.4,760.359 1592.42,802.066 1612.45,800.856 1632.47,894.4 1652.49,781.043 1672.52,850.368 1692.54,807.077 1712.57,801.032 1732.59,768.36 1752.62,757.277 1772.64,871.34 1792.67,826.386 1812.69,817.053 1832.72,812.562 1852.74,779.081 1872.77,813.467 1892.79,790.298 1912.81,889.183 1932.84,891.827 1952.86,776.249 1972.89,895.09 1992.91,823.011 2012.94,772.627 2032.96,832.307 2052.99,807.23 2073.01,817.122 2093.04,886.961 2113.06,815.637 2133.09,766.783 2153.11,866.907 2173.14,806.461 2193.16,812.474 2213.18,834.051 2233.21,830.454 2253.23,817.223 2273.26,791.996 2293.28,892.219 "></polyline>
<polyline clip-path="url(#clip192)" style="stroke:#e26f46; stroke-linecap:round; stroke-linejoin:round; stroke-width:4; stroke-opacity:1; fill:none" stroke-dasharray="2, 4" points="310.845,398.936 330.87,268.932 350.895,233.636 370.919,186.118 390.944,160.256 410.968,447.312 430.993,309.349 451.018,455.271 471.042,511.701 491.067,341.434 511.092,468.412 531.116,628.608 551.141,277.176 571.165,541.7 591.19,441.867 611.215,646.842 631.239,261.476 651.264,391.253 671.288,537.798 691.313,818.761 711.338,669.574 731.362,436.917 751.387,486.358 771.412,577.519 791.436,657.022 811.461,521.525 831.485,652.373 851.51,566.832 871.535,724.172 891.559,520.265 911.584,590.138 931.609,638.969 951.633,505.066 971.658,656.632 991.682,650.923 1011.71,618.777 1031.73,718.849 1051.76,674.638 1071.78,789.344 1091.81,790.899 1111.83,613.49 1131.85,687.218 1151.88,538.237 1171.9,798.97 1191.93,800.26 1211.95,692.006 1231.98,587.979 1252,797.247 1272.03,846.129 1292.05,705.766 1312.08,682.807 1332.1,595.558 1352.13,780.041 1372.15,756.117 1392.17,800.003 1412.2,814.351 1432.22,797.381 1452.25,750.664 1472.27,642.67 1492.3,725.061 1512.32,766.488 1532.35,824.974 1552.37,1072.79 1572.4,734.575 1592.42,654.494 1612.45,868.195 1632.47,803.89 1652.49,759.919 1672.52,852.339 1692.54,832.594 1712.57,930.176 1732.59,858.859 1752.62,789.637 1772.64,819.869 1792.67,777.48 1812.69,843.477 1832.72,816.844 1852.74,675.02 1872.77,942.601 1892.79,837.787 1912.81,777.206 1932.84,673.355 1952.86,773.693 1972.89,1013.06 1992.91,895.091 2012.94,849.426 2032.96,865.375 2052.99,769.656 2073.01,847.653 2093.04,979.148 2113.06,649.115 2133.09,764.06 2153.11,846.551 2173.14,692.408 2193.16,1063.42 2213.18,790.841 2233.21,880.406 2253.23,913.839 2273.26,740.544 2293.28,836.817 "></polyline>
<polyline clip-path="url(#clip192)" style="stroke:#3da44d; stroke-linecap:round; stroke-linejoin:round; stroke-width:4; stroke-opacity:1; fill:none" stroke-dasharray="16, 8, 2, 8" points="310.845,275.109 330.87,226.633 350.895,516.91 370.919,444.69 390.944,394.596 410.968,624.036 430.993,603.936 451.018,467.229 471.042,599.868 491.067,1027.4 511.092,752.799 531.116,739.255 551.141,662.823 571.165,867.478 591.19,818.517 611.215,578.859 631.239,605.148 651.264,831.042 671.288,732.906 691.313,667.046 711.338,756.841 731.362,810.514 751.387,801.56 771.412,867.532 791.436,864.217 811.461,829.678 831.485,996.99 851.51,756.771 871.535,786.79 891.559,721.053 911.584,933.225 931.609,824.592 951.633,873.872 971.658,796.393 991.682,1154.11 1011.71,1051.9 1031.73,994.381 1051.76,955.469 1071.78,965.697 1091.81,985.95 1111.83,967.559 1131.85,905.837 1151.88,869.448 1171.9,726.079 1191.93,1071.53 1211.95,929.008 1231.98,1093.69 1252,976.749 1272.03,957.427 1292.05,1010.84 1312.08,1183.4 1332.1,1101.8 1352.13,1067.73 1372.15,1019.4 1392.17,983.465 1412.2,1043.99 1432.22,1170.8 1452.25,1091.53 1472.27,1107.25 1492.3,1111.73 1512.32,1074.84 1532.35,1037.48 1552.37,827.717 1572.4,1006.83 1592.42,924.838 1612.45,1057.99 1632.47,923.902 1652.49,986.354 1672.52,1030.39 1692.54,999.256 1712.57,1043.32 1732.59,1238.84 1752.62,1035.4 1772.64,1224.17 1792.67,1174.02 1812.69,1154.94 1832.72,1027.43 1852.74,1015.74 1872.77,1103.03 1892.79,1116.63 1912.81,952.644 1932.84,1099.93 1952.86,1140.1 1972.89,1012.11 1992.91,1094.59 2012.94,1026.24 2032.96,1058.21 2052.99,1112.73 2073.01,1057.87 2093.04,963.601 2113.06,1112.5 2133.09,1152.6 2153.11,1212.72 2173.14,1081.44 2193.16,1226.04 2213.18,1188.09 2233.21,978.512 2253.23,1184.75 2273.26,1116.78 2293.28,1160.69 "></polyline>
<polyline clip-path="url(#clip192)" style="stroke:#c271d2; stroke-linecap:round; stroke-linejoin:round; stroke-width:4; stroke-opacity:1; fill:none" points="310.845,368.743 330.87,546.639 350.895,344.844 370.919,572.654 390.944,604.419 410.968,699.36 430.993,782.031 451.018,724.149 471.042,784.3 491.067,664.028 511.092,650.281 531.116,788.72 551.141,958.833 571.165,1005.04 591.19,868.997 611.215,887.108 631.239,793.424 651.264,988.91 671.288,805.58 691.313,1048.72 711.338,711.343 731.362,771.966 751.387,779.408 771.412,728.448 791.436,833.701 811.461,990.881 831.485,1079.67 851.51,924.885 871.535,865.744 891.559,936.255 911.584,906.409 931.609,833.736 951.633,927.067 971.658,917.574 991.682,894.722 1011.71,1084.03 1031.73,827.925 1051.76,726.562 1071.78,1073.36 1091.81,958.523 1111.83,968.413 1131.85,967.376 1151.88,954.046 1171.9,1083.7 1191.93,989.662 1211.95,891.228 1231.98,1003.24 1252,847.304 1272.03,1030.14 1292.05,926.12 1312.08,1029.08 1332.1,1053.23 1352.13,1048.32 1372.15,1089.65 1392.17,933.904 1412.2,961.788 1432.22,945.024 1452.25,920.11 1472.27,958.063 1492.3,1155.88 1512.32,940.216 1532.35,1039.77 1552.37,1058.6 1572.4,946.334 1592.42,1140.05 1612.45,1045.47 1632.47,1086.8 1652.49,1041.57 1672.52,1002.17 1692.54,1137.64 1712.57,1011.99 1732.59,954.327 1752.62,1033.57 1772.64,1039.87 1792.67,953.028 1812.69,1181.1 1832.72,1039.57 1852.74,1102.07 1872.77,1028.1 1892.79,865.912 1912.81,1124.77 1932.84,1162.8 1952.86,1107.43 1972.89,1141.93 1992.91,1005.39 2012.94,1133.03 2032.96,1176.6 2052.99,1116.7 2073.01,1016.46 2093.04,1085.84 2113.06,1093.77 2133.09,1047.25 2153.11,1152.03 2173.14,1101.25 2193.16,1064.72 2213.18,1063.43 2233.21,978.361 2253.23,1107 2273.26,1086.25 2293.28,1128.88 "></polyline>
<polyline clip-path="url(#clip192)" style="stroke:#ac8d18; stroke-linecap:round; stroke-linejoin:round; stroke-width:4; stroke-opacity:1; fill:none" points="310.845,417.677 330.87,608.639 350.895,313.98 370.919,638.291 390.944,617.566 410.968,628.427 430.993,557.231 451.018,655.766 471.042,790.466 491.067,679.596 511.092,843.232 531.116,722.527 551.141,810.627 571.165,512.257 591.19,882.593 611.215,618.91 631.239,637.596 651.264,774.376 671.288,915.948 691.313,696.754 711.338,688.355 731.362,877.508 751.387,367.485 771.412,946.156 791.436,753.973 811.461,653.247 831.485,727.679 851.51,810.35 871.535,882.683 891.559,755.765 911.584,853.204 931.609,914.014 951.633,766.639 971.658,932.68 991.682,803.621 1011.71,734.013 1031.73,880.72 1051.76,951.202 1071.78,1194.79 1091.81,853.524 1111.83,794.21 1131.85,956.971 1151.88,939.609 1171.9,987.488 1191.93,933.405 1211.95,949.212 1231.98,899.921 1252,959.792 1272.03,938.98 1292.05,789.018 1312.08,938.477 1332.1,935.567 1352.13,788.321 1372.15,829.255 1392.17,968.207 1412.2,812.41 1432.22,1024.51 1452.25,928.091 1472.27,942.438 1492.3,981.938 1512.32,991.002 1532.35,925.296 1552.37,920.052 1572.4,801.23 1592.42,1099.8 1612.45,1204.36 1632.47,996.82 1652.49,1152.53 1672.52,1053.92 1692.54,1075.18 1712.57,935.475 1732.59,915.23 1752.62,975.359 1772.64,1011.64 1792.67,1019.79 1812.69,1090.28 1832.72,995.716 1852.74,990.528 1872.77,1100.15 1892.79,1095.33 1912.81,1019.47 1932.84,1062.83 1952.86,1097.23 1972.89,1056.07 1992.91,1077.85 2012.94,1089.6 2032.96,1070.18 2052.99,1031.8 2073.01,1132.72 2093.04,878.376 2113.06,911.52 2133.09,1109.97 2153.11,897.212 2173.14,1056.29 2193.16,979.414 2213.18,865.035 2233.21,1144.55 2253.23,1003.93 2273.26,1155.14 2293.28,970.765 "></polyline>
<polyline clip-path="url(#clip192)" style="stroke:#00a9ad; stroke-linecap:round; stroke-linejoin:round; stroke-width:4; stroke-opacity:1; fill:none" points="310.845,503.165 330.87,514.123 350.895,456.99 370.919,682.776 390.944,507.564 410.968,554.656 430.993,695.525 451.018,611.295 471.042,720.046 491.067,908.057 511.092,870.611 531.116,872.514 551.141,657.624 571.165,692.788 591.19,689.453 611.215,604.762 631.239,754.929 651.264,793.482 671.288,666.705 691.313,871.971 711.338,852.602 731.362,799.821 751.387,896.581 771.412,826.798 791.436,940.922 811.461,949.104 831.485,1003.57 851.51,1022.96 871.535,1010.92 891.559,935.592 911.584,1181.2 931.609,938.915 951.633,1056.65 971.658,860.512 991.682,921.848 1011.71,968.607 1031.73,740.838 1051.76,1089.02 1071.78,1005.79 1091.81,833.489 1111.83,1073.58 1131.85,989.941 1151.88,1333.41 1171.9,869.225 1191.93,941.975 1211.95,1074.04 1231.98,1015.59 1252,856.097 1272.03,957.926 1292.05,968.843 1312.08,1100.93 1332.1,1221.35 1352.13,990.662 1372.15,968.801 1392.17,983.71 1412.2,900.569 1432.22,925.703 1452.25,1051.7 1472.27,925.529 1492.3,1119.16 1512.32,1059.06 1532.35,1071.84 1552.37,1194.2 1572.4,1109.48 1592.42,1231.29 1612.45,1102.31 1632.47,1129.63 1652.49,1166.04 1672.52,1056.29 1692.54,1117.04 1712.57,1110.72 1732.59,978.171 1752.62,1075.06 1772.64,1029.59 1792.67,1180.68 1812.69,994.025 1832.72,1266.97 1852.74,1046.96 1872.77,1046.58 1892.79,1148.72 1912.81,1103.61 1932.84,1112.99 1952.86,1311.06 1972.89,1230.62 1992.91,1179.17 2012.94,1104.58 2032.96,1143.28 2052.99,976.168 2073.01,1106.59 2093.04,998.782 2113.06,1033.97 2133.09,933.154 2153.11,1128.79 2173.14,1044.43 2193.16,1147.82 2213.18,1041.3 2233.21,1386.4 2253.23,1089.24 2273.26,1058.27 2293.28,996.455 "></polyline>
<polyline clip-path="url(#clip192)" style="stroke:#ed5d92; stroke-linecap:round; stroke-linejoin:round; stroke-width:4; stroke-opacity:1; fill:none" points="310.845,289.916 330.87,639.619 350.895,562.419 370.919,528.75 390.944,813.874 410.968,884.567 430.993,647.818 451.018,626.17 471.042,664.053 491.067,816.062 511.092,771.582 531.116,940.114 551.141,832.956 571.165,816.587 591.19,809.164 611.215,992.615 631.239,967.943 651.264,845.737 671.288,904.203 691.313,824.679 711.338,856.068 731.362,846.384 751.387,886.231 771.412,940.551 791.436,934.916 811.461,973.725 831.485,1003.47 851.51,1158.41 871.535,993.204 891.559,981.835 911.584,1101.38 931.609,974.686 951.633,998.614 971.658,1190.89 991.682,1163.07 1011.71,969.268 1031.73,1083.15 1051.76,1048.53 1071.78,1069.03 1091.81,1039.61 1111.83,933.55 1131.85,1027.93 1151.88,997.176 1171.9,907.848 1191.93,1240.12 1211.95,980.096 1231.98,987.301 1252,1110.71 1272.03,1139.47 1292.05,1247.99 1312.08,1001.51 1332.1,954.693 1352.13,1033.9 1372.15,1026.54 1392.17,992.364 1412.2,1011.37 1432.22,997.256 1452.25,1216.15 1472.27,1071.3 1492.3,981.315 1512.32,1069.54 1532.35,1215.85 1552.37,1033.28 1572.4,1235.02 1592.42,1131.11 1612.45,1105.09 1632.47,1083.24 1652.49,1119.03 1672.52,1084.58 1692.54,1067.59 1712.57,1163.23 1732.59,1217.41 1752.62,1250.53 1772.64,1227.12 1792.67,1141.35 1812.69,1206.4 1832.72,989.23 1852.74,1026.69 1872.77,1199.87 1892.79,1237.04 1912.81,1116.12 1932.84,1290.91 1952.86,1140.4 1972.89,1196.44 1992.91,1091.91 2012.94,1111.38 2032.96,1238.32 2052.99,1082.64 2073.01,1265.96 2093.04,1131.21 2113.06,1122.22 2133.09,1298.85 2153.11,1088.24 2173.14,1151.39 2193.16,1106.73 2213.18,1323.14 2233.21,1203.33 2253.23,1194.55 2273.26,1131.24 2293.28,1126.7 "></polyline>
<path clip-path="url(#clip190)" d="M1782.76 581.516 L2282.71 581.516 L2282.71 166.796 L1782.76 166.796  Z" fill="#ffffff" fill-rule="evenodd" fill-opacity="1"></path>
<polyline clip-path="url(#clip190)" style="stroke:#000000; stroke-linecap:round; stroke-linejoin:round; stroke-width:4; stroke-opacity:1; fill:none" points="1782.76,581.516 2282.71,581.516 2282.71,166.796 1782.76,166.796 1782.76,581.516 "></polyline>
<polyline clip-path="url(#clip190)" style="stroke:#009af9; stroke-linecap:round; stroke-linejoin:round; stroke-width:4; stroke-opacity:1; fill:none" stroke-dasharray="16, 10" points="1806.11,218.636 1946.2,218.636 "></polyline>
<path clip-path="url(#clip190)" d="M1995.1 230.985 L1995.1 221.703 L1987.46 221.703 L1987.46 217.86 L1999.73 217.86 L1999.73 232.698 Q1997.02 234.619 1993.76 235.615 Q1990.5 236.587 1986.79 236.587 Q1978.69 236.587 1974.11 231.865 Q1969.55 227.119 1969.55 218.67 Q1969.55 210.198 1974.11 205.476 Q1978.69 200.731 1986.79 200.731 Q1990.17 200.731 1993.21 201.564 Q1996.26 202.397 1998.83 204.018 L1998.83 208.995 Q1996.24 206.796 1993.32 205.684 Q1990.4 204.573 1987.19 204.573 Q1980.84 204.573 1977.65 208.115 Q1974.48 211.657 1974.48 218.67 Q1974.48 225.661 1977.65 229.203 Q1980.84 232.744 1987.19 232.744 Q1989.66 232.744 1991.61 232.328 Q1993.55 231.888 1995.1 230.985 Z" fill="#000000" fill-rule="nonzero" fill-opacity="1"></path><path clip-path="url(#clip190)" d="M2019.87 222.883 Q2014.71 222.883 2012.72 224.064 Q2010.73 225.244 2010.73 228.092 Q2010.73 230.36 2012.21 231.703 Q2013.71 233.022 2016.28 233.022 Q2019.83 233.022 2021.95 230.522 Q2024.11 227.999 2024.11 223.832 L2024.11 222.883 L2019.87 222.883 M2028.37 221.124 L2028.37 235.916 L2024.11 235.916 L2024.11 231.981 Q2022.65 234.342 2020.47 235.476 Q2018.3 236.587 2015.15 236.587 Q2011.17 236.587 2008.81 234.365 Q2006.47 232.119 2006.47 228.369 Q2006.47 223.994 2009.39 221.772 Q2012.33 219.55 2018.14 219.55 L2024.11 219.55 L2024.11 219.133 Q2024.11 216.194 2022.16 214.596 Q2020.24 212.976 2016.75 212.976 Q2014.52 212.976 2012.42 213.508 Q2010.31 214.041 2008.37 215.106 L2008.37 211.17 Q2010.7 210.268 2012.9 209.828 Q2015.1 209.365 2017.19 209.365 Q2022.81 209.365 2025.59 212.282 Q2028.37 215.198 2028.37 221.124 Z" fill="#000000" fill-rule="nonzero" fill-opacity="1"></path><path clip-path="url(#clip190)" d="M2036.7 225.684 L2036.7 209.99 L2040.96 209.99 L2040.96 225.522 Q2040.96 229.203 2042.39 231.055 Q2043.83 232.883 2046.7 232.883 Q2050.15 232.883 2052.14 230.684 Q2054.15 228.485 2054.15 224.689 L2054.15 209.99 L2058.41 209.99 L2058.41 235.916 L2054.15 235.916 L2054.15 231.934 Q2052.6 234.295 2050.54 235.453 Q2048.51 236.587 2045.8 236.587 Q2041.33 236.587 2039.02 233.809 Q2036.7 231.031 2036.7 225.684 M2047.42 209.365 L2047.42 209.365 Z" fill="#000000" fill-rule="nonzero" fill-opacity="1"></path><path clip-path="url(#clip190)" d="M2083.71 210.754 L2083.71 214.782 Q2081.91 213.856 2079.96 213.393 Q2078.02 212.93 2075.94 212.93 Q2072.76 212.93 2071.17 213.902 Q2069.59 214.874 2069.59 216.819 Q2069.59 218.3 2070.73 219.157 Q2071.86 219.99 2075.29 220.754 L2076.75 221.078 Q2081.28 222.05 2083.18 223.832 Q2085.1 225.592 2085.1 228.763 Q2085.1 232.374 2082.23 234.481 Q2079.39 236.587 2074.39 236.587 Q2072.3 236.587 2070.03 236.17 Q2067.79 235.777 2065.29 234.967 L2065.29 230.569 Q2067.65 231.795 2069.94 232.42 Q2072.23 233.022 2074.48 233.022 Q2077.49 233.022 2079.11 232.004 Q2080.73 230.962 2080.73 229.087 Q2080.73 227.351 2079.55 226.425 Q2078.39 225.499 2074.43 224.643 L2072.95 224.295 Q2068.99 223.462 2067.23 221.749 Q2065.47 220.013 2065.47 217.004 Q2065.47 213.346 2068.07 211.356 Q2070.66 209.365 2075.43 209.365 Q2077.79 209.365 2079.87 209.712 Q2081.95 210.059 2083.71 210.754 Z" fill="#000000" fill-rule="nonzero" fill-opacity="1"></path><path clip-path="url(#clip190)" d="M2108.41 210.754 L2108.41 214.782 Q2106.61 213.856 2104.66 213.393 Q2102.72 212.93 2100.64 212.93 Q2097.46 212.93 2095.87 213.902 Q2094.29 214.874 2094.29 216.819 Q2094.29 218.3 2095.43 219.157 Q2096.56 219.99 2099.99 220.754 L2101.45 221.078 Q2105.98 222.05 2107.88 223.832 Q2109.8 225.592 2109.8 228.763 Q2109.8 232.374 2106.93 234.481 Q2104.08 236.587 2099.08 236.587 Q2097 236.587 2094.73 236.17 Q2092.49 235.777 2089.99 234.967 L2089.99 230.569 Q2092.35 231.795 2094.64 232.42 Q2096.93 233.022 2099.18 233.022 Q2102.19 233.022 2103.81 232.004 Q2105.43 230.962 2105.43 229.087 Q2105.43 227.351 2104.25 226.425 Q2103.09 225.499 2099.13 224.643 L2097.65 224.295 Q2093.69 223.462 2091.93 221.749 Q2090.17 220.013 2090.17 217.004 Q2090.17 213.346 2092.76 211.356 Q2095.36 209.365 2100.13 209.365 Q2102.49 209.365 2104.57 209.712 Q2106.65 210.059 2108.41 210.754 Z" fill="#000000" fill-rule="nonzero" fill-opacity="1"></path><path clip-path="url(#clip190)" d="M2116.58 209.99 L2120.84 209.99 L2120.84 235.916 L2116.58 235.916 L2116.58 209.99 M2116.58 199.897 L2120.84 199.897 L2120.84 205.291 L2116.58 205.291 L2116.58 199.897 Z" fill="#000000" fill-rule="nonzero" fill-opacity="1"></path><path clip-path="url(#clip190)" d="M2141.54 222.883 Q2136.38 222.883 2134.38 224.064 Q2132.39 225.244 2132.39 228.092 Q2132.39 230.36 2133.88 231.703 Q2135.38 233.022 2137.95 233.022 Q2141.49 233.022 2143.62 230.522 Q2145.77 227.999 2145.77 223.832 L2145.77 222.883 L2141.54 222.883 M2150.03 221.124 L2150.03 235.916 L2145.77 235.916 L2145.77 231.981 Q2144.32 234.342 2142.14 235.476 Q2139.96 236.587 2136.82 236.587 Q2132.83 236.587 2130.47 234.365 Q2128.13 232.119 2128.13 228.369 Q2128.13 223.994 2131.05 221.772 Q2133.99 219.55 2139.8 219.55 L2145.77 219.55 L2145.77 219.133 Q2145.77 216.194 2143.83 214.596 Q2141.91 212.976 2138.41 212.976 Q2136.19 212.976 2134.08 213.508 Q2131.98 214.041 2130.03 215.106 L2130.03 211.17 Q2132.37 210.268 2134.57 209.828 Q2136.77 209.365 2138.85 209.365 Q2144.48 209.365 2147.26 212.282 Q2150.03 215.198 2150.03 221.124 Z" fill="#000000" fill-rule="nonzero" fill-opacity="1"></path><path clip-path="url(#clip190)" d="M2180.36 220.268 L2180.36 235.916 L2176.1 235.916 L2176.1 220.407 Q2176.1 216.726 2174.66 214.897 Q2173.23 213.069 2170.36 213.069 Q2166.91 213.069 2164.92 215.268 Q2162.93 217.467 2162.93 221.263 L2162.93 235.916 L2158.64 235.916 L2158.64 209.99 L2162.93 209.99 L2162.93 214.018 Q2164.45 211.68 2166.51 210.522 Q2168.6 209.365 2171.31 209.365 Q2175.77 209.365 2178.07 212.143 Q2180.36 214.897 2180.36 220.268 Z" fill="#000000" fill-rule="nonzero" fill-opacity="1"></path><path clip-path="url(#clip190)" d="M2220.5 219.712 Q2222 220.221 2223.41 221.888 Q2224.85 223.555 2226.28 226.471 L2231.03 235.916 L2226 235.916 L2221.58 227.05 Q2219.87 223.578 2218.25 222.444 Q2216.65 221.309 2213.88 221.309 L2208.78 221.309 L2208.78 235.916 L2204.11 235.916 L2204.11 201.356 L2214.66 201.356 Q2220.59 201.356 2223.5 203.833 Q2226.42 206.309 2226.42 211.309 Q2226.42 214.573 2224.89 216.726 Q2223.39 218.879 2220.5 219.712 M2208.78 205.198 L2208.78 217.467 L2214.66 217.467 Q2218.04 217.467 2219.75 215.916 Q2221.49 214.342 2221.49 211.309 Q2221.49 208.277 2219.75 206.749 Q2218.04 205.198 2214.66 205.198 L2208.78 205.198 Z" fill="#000000" fill-rule="nonzero" fill-opacity="1"></path><path clip-path="url(#clip190)" d="M2241.72 205.198 L2241.72 218.184 L2247.6 218.184 Q2250.87 218.184 2252.65 216.495 Q2254.43 214.805 2254.43 211.68 Q2254.43 208.578 2252.65 206.888 Q2250.87 205.198 2247.6 205.198 L2241.72 205.198 M2237.05 201.356 L2247.6 201.356 Q2253.41 201.356 2256.37 203.995 Q2259.36 206.61 2259.36 211.68 Q2259.36 216.795 2256.37 219.411 Q2253.41 222.027 2247.6 222.027 L2241.72 222.027 L2241.72 235.916 L2237.05 235.916 L2237.05 201.356 Z" fill="#000000" fill-rule="nonzero" fill-opacity="1"></path><polyline clip-path="url(#clip190)" style="stroke:#e26f46; stroke-linecap:round; stroke-linejoin:round; stroke-width:4; stroke-opacity:1; fill:none" stroke-dasharray="2, 4" points="1806.11,270.476 1946.2,270.476 "></polyline>
<path clip-path="url(#clip190)" d="M1995.1 282.825 L1995.1 273.543 L1987.46 273.543 L1987.46 269.7 L1999.73 269.7 L1999.73 284.538 Q1997.02 286.459 1993.76 287.455 Q1990.5 288.427 1986.79 288.427 Q1978.69 288.427 1974.11 283.705 Q1969.55 278.959 1969.55 270.51 Q1969.55 262.038 1974.11 257.316 Q1978.69 252.571 1986.79 252.571 Q1990.17 252.571 1993.21 253.404 Q1996.26 254.237 1998.83 255.858 L1998.83 260.835 Q1996.24 258.636 1993.32 257.524 Q1990.4 256.413 1987.19 256.413 Q1980.84 256.413 1977.65 259.955 Q1974.48 263.497 1974.48 270.51 Q1974.48 277.501 1977.65 281.043 Q1980.84 284.584 1987.19 284.584 Q1989.66 284.584 1991.61 284.168 Q1993.55 283.728 1995.1 282.825 Z" fill="#000000" fill-rule="nonzero" fill-opacity="1"></path><path clip-path="url(#clip190)" d="M2001.79 253.196 L2031.03 253.196 L2031.03 257.131 L2018.76 257.131 L2018.76 287.756 L2014.06 287.756 L2014.06 257.131 L2001.79 257.131 L2001.79 253.196 Z" fill="#000000" fill-rule="nonzero" fill-opacity="1"></path><path clip-path="url(#clip190)" d="M2029.92 253.196 L2059.15 253.196 L2059.15 257.131 L2046.89 257.131 L2046.89 287.756 L2042.19 287.756 L2042.19 257.131 L2029.92 257.131 L2029.92 253.196 Z" fill="#000000" fill-rule="nonzero" fill-opacity="1"></path><polyline clip-path="url(#clip190)" style="stroke:#3da44d; stroke-linecap:round; stroke-linejoin:round; stroke-width:4; stroke-opacity:1; fill:none" stroke-dasharray="16, 8, 2, 8" points="1806.11,322.316 1946.2,322.316 "></polyline>
<path clip-path="url(#clip190)" d="M1985.57 308.207 Q1980.47 308.207 1977.46 312.003 Q1974.48 315.8 1974.48 322.35 Q1974.48 328.878 1977.46 332.674 Q1980.47 336.471 1985.57 336.471 Q1990.66 336.471 1993.62 332.674 Q1996.61 328.878 1996.61 322.35 Q1996.61 315.8 1993.62 312.003 Q1990.66 308.207 1985.57 308.207 M1985.57 304.411 Q1992.83 304.411 1997.19 309.295 Q2001.54 314.156 2001.54 322.35 Q2001.54 330.522 1997.19 335.406 Q1992.83 340.267 1985.57 340.267 Q1978.27 340.267 1973.9 335.406 Q1969.55 330.545 1969.55 322.35 Q1969.55 314.156 1973.9 309.295 Q1978.27 304.411 1985.57 304.411 Z" fill="#000000" fill-rule="nonzero" fill-opacity="1"></path><path clip-path="url(#clip190)" d="M2032.42 334.665 L2032.42 325.383 L2024.78 325.383 L2024.78 321.54 L2037.05 321.54 L2037.05 336.378 Q2034.34 338.299 2031.08 339.295 Q2027.81 340.267 2024.11 340.267 Q2016.01 340.267 2011.42 335.545 Q2006.86 330.799 2006.86 322.35 Q2006.86 313.878 2011.42 309.156 Q2016.01 304.411 2024.11 304.411 Q2027.49 304.411 2030.52 305.244 Q2033.58 306.077 2036.14 307.698 L2036.14 312.675 Q2033.55 310.476 2030.64 309.364 Q2027.72 308.253 2024.5 308.253 Q2018.16 308.253 2014.96 311.795 Q2011.79 315.337 2011.79 322.35 Q2011.79 329.341 2014.96 332.883 Q2018.16 336.424 2024.5 336.424 Q2026.98 336.424 2028.92 336.008 Q2030.87 335.568 2032.42 334.665 Z" fill="#000000" fill-rule="nonzero" fill-opacity="1"></path><path clip-path="url(#clip190)" d="M2039.11 305.036 L2068.34 305.036 L2068.34 308.971 L2056.08 308.971 L2056.08 339.596 L2051.38 339.596 L2051.38 308.971 L2039.11 308.971 L2039.11 305.036 Z" fill="#000000" fill-rule="nonzero" fill-opacity="1"></path><path clip-path="url(#clip190)" d="M2067.23 305.036 L2096.47 305.036 L2096.47 308.971 L2084.2 308.971 L2084.2 339.596 L2079.5 339.596 L2079.5 308.971 L2067.23 308.971 L2067.23 305.036 Z" fill="#000000" fill-rule="nonzero" fill-opacity="1"></path><polyline clip-path="url(#clip190)" style="stroke:#c271d2; stroke-linecap:round; stroke-linejoin:round; stroke-width:4; stroke-opacity:1; fill:none" points="1806.11,374.156 1946.2,374.156 "></polyline>
<path clip-path="url(#clip190)" d="M1969.55 356.876 L1998.78 356.876 L1998.78 360.811 L1986.52 360.811 L1986.52 391.436 L1981.82 391.436 L1981.82 360.811 L1969.55 360.811 L1969.55 356.876 Z" fill="#000000" fill-rule="nonzero" fill-opacity="1"></path><path clip-path="url(#clip190)" d="M1997.67 356.876 L2026.91 356.876 L2026.91 360.811 L2014.64 360.811 L2014.64 391.436 L2009.94 391.436 L2009.94 360.811 L1997.67 360.811 L1997.67 356.876 Z" fill="#000000" fill-rule="nonzero" fill-opacity="1"></path><path clip-path="url(#clip190)" d="M2041.47 355.464 Q2038.37 360.788 2036.86 365.996 Q2035.36 371.204 2035.36 376.552 Q2035.36 381.899 2036.86 387.153 Q2038.39 392.385 2041.47 397.686 L2037.77 397.686 Q2034.29 392.246 2032.56 386.991 Q2030.84 381.737 2030.84 376.552 Q2030.84 371.39 2032.56 366.158 Q2034.27 360.927 2037.77 355.464 L2041.47 355.464 Z" fill="#000000" fill-rule="nonzero" fill-opacity="1"></path><path clip-path="url(#clip190)" d="M2051.14 387.501 L2058.78 387.501 L2058.78 361.135 L2050.47 362.802 L2050.47 358.542 L2058.74 356.876 L2063.41 356.876 L2063.41 387.501 L2071.05 387.501 L2071.05 391.436 L2051.14 391.436 L2051.14 387.501 Z" fill="#000000" fill-rule="nonzero" fill-opacity="1"></path><path clip-path="url(#clip190)" d="M2079.22 355.464 L2082.93 355.464 Q2086.4 360.927 2088.11 366.158 Q2089.85 371.39 2089.85 376.552 Q2089.85 381.737 2088.11 386.991 Q2086.4 392.246 2082.93 397.686 L2079.22 397.686 Q2082.3 392.385 2083.81 387.153 Q2085.33 381.899 2085.33 376.552 Q2085.33 371.204 2083.81 365.996 Q2082.3 360.788 2079.22 355.464 Z" fill="#000000" fill-rule="nonzero" fill-opacity="1"></path><polyline clip-path="url(#clip190)" style="stroke:#ac8d18; stroke-linecap:round; stroke-linejoin:round; stroke-width:4; stroke-opacity:1; fill:none" points="1806.11,425.996 1946.2,425.996 "></polyline>
<path clip-path="url(#clip190)" d="M1969.55 408.716 L1998.78 408.716 L1998.78 412.651 L1986.52 412.651 L1986.52 443.276 L1981.82 443.276 L1981.82 412.651 L1969.55 412.651 L1969.55 408.716 Z" fill="#000000" fill-rule="nonzero" fill-opacity="1"></path><path clip-path="url(#clip190)" d="M1997.67 408.716 L2026.91 408.716 L2026.91 412.651 L2014.64 412.651 L2014.64 443.276 L2009.94 443.276 L2009.94 412.651 L1997.67 412.651 L1997.67 408.716 Z" fill="#000000" fill-rule="nonzero" fill-opacity="1"></path><path clip-path="url(#clip190)" d="M2041.47 407.304 Q2038.37 412.628 2036.86 417.836 Q2035.36 423.044 2035.36 428.392 Q2035.36 433.739 2036.86 438.993 Q2038.39 444.225 2041.47 449.526 L2037.77 449.526 Q2034.29 444.086 2032.56 438.831 Q2030.84 433.577 2030.84 428.392 Q2030.84 423.23 2032.56 417.998 Q2034.27 412.767 2037.77 407.304 L2041.47 407.304 Z" fill="#000000" fill-rule="nonzero" fill-opacity="1"></path><path clip-path="url(#clip190)" d="M2054.36 439.341 L2070.68 439.341 L2070.68 443.276 L2048.74 443.276 L2048.74 439.341 Q2051.4 436.586 2055.98 431.956 Q2060.59 427.304 2061.77 425.961 Q2064.01 423.438 2064.89 421.702 Q2065.8 419.943 2065.8 418.253 Q2065.8 415.498 2063.85 413.762 Q2061.93 412.026 2058.83 412.026 Q2056.63 412.026 2054.18 412.79 Q2051.75 413.554 2048.97 415.105 L2048.97 410.382 Q2051.79 409.248 2054.25 408.669 Q2056.7 408.091 2058.74 408.091 Q2064.11 408.091 2067.3 410.776 Q2070.5 413.461 2070.5 417.952 Q2070.5 420.081 2069.69 422.003 Q2068.9 423.901 2066.79 426.493 Q2066.21 427.165 2063.11 430.382 Q2060.01 433.577 2054.36 439.341 Z" fill="#000000" fill-rule="nonzero" fill-opacity="1"></path><path clip-path="url(#clip190)" d="M2079.22 407.304 L2082.93 407.304 Q2086.4 412.767 2088.11 417.998 Q2089.85 423.23 2089.85 428.392 Q2089.85 433.577 2088.11 438.831 Q2086.4 444.086 2082.93 449.526 L2079.22 449.526 Q2082.3 444.225 2083.81 438.993 Q2085.33 433.739 2085.33 428.392 Q2085.33 423.044 2083.81 417.836 Q2082.3 412.628 2079.22 407.304 Z" fill="#000000" fill-rule="nonzero" fill-opacity="1"></path><polyline clip-path="url(#clip190)" style="stroke:#00a9ad; stroke-linecap:round; stroke-linejoin:round; stroke-width:4; stroke-opacity:1; fill:none" points="1806.11,477.836 1946.2,477.836 "></polyline>
<path clip-path="url(#clip190)" d="M1969.55 460.556 L1998.78 460.556 L1998.78 464.491 L1986.52 464.491 L1986.52 495.116 L1981.82 495.116 L1981.82 464.491 L1969.55 464.491 L1969.55 460.556 Z" fill="#000000" fill-rule="nonzero" fill-opacity="1"></path><path clip-path="url(#clip190)" d="M1997.67 460.556 L2026.91 460.556 L2026.91 464.491 L2014.64 464.491 L2014.64 495.116 L2009.94 495.116 L2009.94 464.491 L1997.67 464.491 L1997.67 460.556 Z" fill="#000000" fill-rule="nonzero" fill-opacity="1"></path><path clip-path="url(#clip190)" d="M2041.47 459.144 Q2038.37 464.468 2036.86 469.676 Q2035.36 474.884 2035.36 480.232 Q2035.36 485.579 2036.86 490.833 Q2038.39 496.065 2041.47 501.366 L2037.77 501.366 Q2034.29 495.926 2032.56 490.671 Q2030.84 485.417 2030.84 480.232 Q2030.84 475.07 2032.56 469.838 Q2034.27 464.607 2037.77 459.144 L2041.47 459.144 Z" fill="#000000" fill-rule="nonzero" fill-opacity="1"></path><path clip-path="url(#clip190)" d="M2050.38 460.556 L2068.74 460.556 L2068.74 464.491 L2054.66 464.491 L2054.66 472.963 Q2055.68 472.616 2056.7 472.454 Q2057.72 472.269 2058.74 472.269 Q2064.52 472.269 2067.9 475.44 Q2071.28 478.611 2071.28 484.028 Q2071.28 489.606 2067.81 492.708 Q2064.34 495.787 2058.02 495.787 Q2055.84 495.787 2053.58 495.417 Q2051.33 495.046 2048.92 494.306 L2048.92 489.606 Q2051.01 490.741 2053.23 491.296 Q2055.45 491.852 2057.93 491.852 Q2061.93 491.852 2064.27 489.745 Q2066.61 487.639 2066.61 484.028 Q2066.61 480.417 2064.27 478.31 Q2061.93 476.204 2057.93 476.204 Q2056.05 476.204 2054.18 476.62 Q2052.33 477.037 2050.38 477.917 L2050.38 460.556 Z" fill="#000000" fill-rule="nonzero" fill-opacity="1"></path><path clip-path="url(#clip190)" d="M2079.22 459.144 L2082.93 459.144 Q2086.4 464.607 2088.11 469.838 Q2089.85 475.07 2089.85 480.232 Q2089.85 485.417 2088.11 490.671 Q2086.4 495.926 2082.93 501.366 L2079.22 501.366 Q2082.3 496.065 2083.81 490.833 Q2085.33 485.579 2085.33 480.232 Q2085.33 474.884 2083.81 469.676 Q2082.3 464.468 2079.22 459.144 Z" fill="#000000" fill-rule="nonzero" fill-opacity="1"></path><polyline clip-path="url(#clip190)" style="stroke:#ed5d92; stroke-linecap:round; stroke-linejoin:round; stroke-width:4; stroke-opacity:1; fill:none" points="1806.11,529.676 1946.2,529.676 "></polyline>
<path clip-path="url(#clip190)" d="M1969.55 512.396 L1998.78 512.396 L1998.78 516.331 L1986.52 516.331 L1986.52 546.956 L1981.82 546.956 L1981.82 516.331 L1969.55 516.331 L1969.55 512.396 Z" fill="#000000" fill-rule="nonzero" fill-opacity="1"></path><path clip-path="url(#clip190)" d="M1997.67 512.396 L2026.91 512.396 L2026.91 516.331 L2014.64 516.331 L2014.64 546.956 L2009.94 546.956 L2009.94 516.331 L1997.67 516.331 L1997.67 512.396 Z" fill="#000000" fill-rule="nonzero" fill-opacity="1"></path><path clip-path="url(#clip190)" d="M2041.47 510.984 Q2038.37 516.308 2036.86 521.516 Q2035.36 526.724 2035.36 532.072 Q2035.36 537.419 2036.86 542.673 Q2038.39 547.905 2041.47 553.206 L2037.77 553.206 Q2034.29 547.766 2032.56 542.511 Q2030.84 537.257 2030.84 532.072 Q2030.84 526.91 2032.56 521.678 Q2034.27 516.447 2037.77 510.984 L2041.47 510.984 Z" fill="#000000" fill-rule="nonzero" fill-opacity="1"></path><path clip-path="url(#clip190)" d="M2051.14 543.021 L2058.78 543.021 L2058.78 516.655 L2050.47 518.322 L2050.47 514.062 L2058.74 512.396 L2063.41 512.396 L2063.41 543.021 L2071.05 543.021 L2071.05 546.956 L2051.14 546.956 L2051.14 543.021 Z" fill="#000000" fill-rule="nonzero" fill-opacity="1"></path><path clip-path="url(#clip190)" d="M2090.5 515.474 Q2086.89 515.474 2085.06 519.039 Q2083.25 522.581 2083.25 529.71 Q2083.25 536.817 2085.06 540.382 Q2086.89 543.923 2090.5 543.923 Q2094.13 543.923 2095.94 540.382 Q2097.76 536.817 2097.76 529.71 Q2097.76 522.581 2095.94 519.039 Q2094.13 515.474 2090.5 515.474 M2090.5 511.771 Q2096.31 511.771 2099.36 516.377 Q2102.44 520.96 2102.44 529.71 Q2102.44 538.437 2099.36 543.044 Q2096.31 547.627 2090.5 547.627 Q2084.69 547.627 2081.61 543.044 Q2078.55 538.437 2078.55 529.71 Q2078.55 520.96 2081.61 516.377 Q2084.69 511.771 2090.5 511.771 Z" fill="#000000" fill-rule="nonzero" fill-opacity="1"></path><path clip-path="url(#clip190)" d="M2109.39 510.984 L2113.09 510.984 Q2116.56 516.447 2118.27 521.678 Q2120.01 526.91 2120.01 532.072 Q2120.01 537.257 2118.27 542.511 Q2116.56 547.766 2113.09 553.206 L2109.39 553.206 Q2112.46 547.905 2113.97 542.673 Q2115.5 537.419 2115.5 532.072 Q2115.5 526.724 2113.97 521.516 Q2112.46 516.308 2109.39 510.984 Z" fill="#000000" fill-rule="nonzero" fill-opacity="1"></path></svg>