<svg xmlns="http://www.w3.org/2000/svg" xmlns:xlink="http://www.w3.org/1999/xlink" width="600" height="400" viewBox="0 0 2400 1600">
<defs>
  <clipPath id="clip100">
    <rect x="0" y="0" width="2400" height="1600"></rect>
  </clipPath>
</defs>
<path clip-path="url(#clip100)" d="M0 1600 L2400 1600 L2400 0 L0 0  Z" fill="#ffffff" fill-rule="evenodd" fill-opacity="1"></path>
<defs>
  <clipPath id="clip101">
    <rect x="480" y="0" width="1681" height="1600"></rect>
  </clipPath>
</defs>
<path clip-path="url(#clip100)" d="M258.387 1423.18 L2352.76 1423.18 L2352.76 123.472 L258.387 123.472  Z" fill="#ffffff" fill-rule="evenodd" fill-opacity="1"></path>
<defs>
  <clipPath id="clip102">
    <rect x="258" y="123" width="2095" height="1301"></rect>
  </clipPath>
</defs>
<polyline clip-path="url(#clip102)" style="stroke:#000000; stroke-linecap:round; stroke-linejoin:round; stroke-width:2; stroke-opacity:0.1; fill:none" points="297.704,1423.18 297.704,123.472 "></polyline>
<polyline clip-path="url(#clip102)" style="stroke:#000000; stroke-linecap:round; stroke-linejoin:round; stroke-width:2; stroke-opacity:0.1; fill:none" points="796.649,1423.18 796.649,123.472 "></polyline>
<polyline clip-path="url(#clip102)" style="stroke:#000000; stroke-linecap:round; stroke-linejoin:round; stroke-width:2; stroke-opacity:0.1; fill:none" points="1295.59,1423.18 1295.59,123.472 "></polyline>
<polyline clip-path="url(#clip102)" style="stroke:#000000; stroke-linecap:round; stroke-linejoin:round; stroke-width:2; stroke-opacity:0.1; fill:none" points="1794.54,1423.18 1794.54,123.472 "></polyline>
<polyline clip-path="url(#clip102)" style="stroke:#000000; stroke-linecap:round; stroke-linejoin:round; stroke-width:2; stroke-opacity:0.1; fill:none" points="2293.48,1423.18 2293.48,123.472 "></polyline>
<polyline clip-path="url(#clip102)" style="stroke:#000000; stroke-linecap:round; stroke-linejoin:round; stroke-width:2; stroke-opacity:0.1; fill:none" points="258.387,1050 2352.76,1050 "></polyline>
<polyline clip-path="url(#clip102)" style="stroke:#000000; stroke-linecap:round; stroke-linejoin:round; stroke-width:2; stroke-opacity:0.1; fill:none" points="258.387,558.894 2352.76,558.894 "></polyline>
<polyline clip-path="url(#clip100)" style="stroke:#000000; stroke-linecap:round; stroke-linejoin:round; stroke-width:4; stroke-opacity:1; fill:none" points="258.387,1423.18 2352.76,1423.18 "></polyline>
<polyline clip-path="url(#clip100)" style="stroke:#000000; stroke-linecap:round; stroke-linejoin:round; stroke-width:4; stroke-opacity:1; fill:none" points="297.704,1423.18 297.704,1404.28 "></polyline>
<polyline clip-path="url(#clip100)" style="stroke:#000000; stroke-linecap:round; stroke-linejoin:round; stroke-width:4; stroke-opacity:1; fill:none" points="796.649,1423.18 796.649,1404.28 "></polyline>
<polyline clip-path="url(#clip100)" style="stroke:#000000; stroke-linecap:round; stroke-linejoin:round; stroke-width:4; stroke-opacity:1; fill:none" points="1295.59,1423.18 1295.59,1404.28 "></polyline>
<polyline clip-path="url(#clip100)" style="stroke:#000000; stroke-linecap:round; stroke-linejoin:round; stroke-width:4; stroke-opacity:1; fill:none" points="1794.54,1423.18 1794.54,1404.28 "></polyline>
<polyline clip-path="url(#clip100)" style="stroke:#000000; stroke-linecap:round; stroke-linejoin:round; stroke-width:4; stroke-opacity:1; fill:none" points="2293.48,1423.18 2293.48,1404.28 "></polyline>
<path clip-path="url(#clip100)" d="M297.704 1454.1 Q294.093 1454.1 292.264 1457.66 Q290.459 1461.2 290.459 1468.33 Q290.459 1475.44 292.264 1479.01 Q294.093 1482.55 297.704 1482.55 Q301.339 1482.55 303.144 1479.01 Q304.973 1475.44 304.973 1468.33 Q304.973 1461.2 303.144 1457.66 Q301.339 1454.1 297.704 1454.1 M297.704 1450.39 Q303.514 1450.39 306.57 1455 Q309.649 1459.58 309.649 1468.33 Q309.649 1477.06 306.57 1481.67 Q303.514 1486.25 297.704 1486.25 Q291.894 1486.25 288.815 1481.67 Q285.76 1477.06 285.76 1468.33 Q285.76 1459.58 288.815 1455 Q291.894 1450.39 297.704 1450.39 Z" fill="#000000" fill-rule="nonzero" fill-opacity="1"></path><path clip-path="url(#clip100)" d="M775.919 1481.64 L792.239 1481.64 L792.239 1485.58 L770.295 1485.58 L770.295 1481.64 Q772.957 1478.89 777.54 1474.26 Q782.146 1469.61 783.327 1468.27 Q785.572 1465.74 786.452 1464.01 Q787.355 1462.25 787.355 1460.56 Q787.355 1457.8 785.41 1456.07 Q783.489 1454.33 780.387 1454.33 Q778.188 1454.33 775.734 1455.09 Q773.304 1455.86 770.526 1457.41 L770.526 1452.69 Q773.35 1451.55 775.804 1450.97 Q778.257 1450.39 780.294 1450.39 Q785.665 1450.39 788.859 1453.08 Q792.054 1455.77 792.054 1460.26 Q792.054 1462.39 791.243 1464.31 Q790.456 1466.2 788.35 1468.8 Q787.771 1469.47 784.669 1472.69 Q781.568 1475.88 775.919 1481.64 Z" fill="#000000" fill-rule="nonzero" fill-opacity="1"></path><path clip-path="url(#clip100)" d="M802.1 1451.02 L820.456 1451.02 L820.456 1454.96 L806.382 1454.96 L806.382 1463.43 Q807.401 1463.08 808.419 1462.92 Q809.438 1462.73 810.456 1462.73 Q816.243 1462.73 819.623 1465.9 Q823.003 1469.08 823.003 1474.49 Q823.003 1480.07 819.53 1483.17 Q816.058 1486.25 809.739 1486.25 Q807.563 1486.25 805.294 1485.88 Q803.049 1485.51 800.642 1484.77 L800.642 1480.07 Q802.725 1481.2 804.947 1481.76 Q807.169 1482.32 809.646 1482.32 Q813.651 1482.32 815.989 1480.21 Q818.327 1478.1 818.327 1474.49 Q818.327 1470.88 815.989 1468.77 Q813.651 1466.67 809.646 1466.67 Q807.771 1466.67 805.896 1467.08 Q804.044 1467.5 802.1 1468.38 L802.1 1451.02 Z" fill="#000000" fill-rule="nonzero" fill-opacity="1"></path><path clip-path="url(#clip100)" d="M1270.29 1451.02 L1288.65 1451.02 L1288.65 1454.96 L1274.57 1454.96 L1274.57 1463.43 Q1275.59 1463.08 1276.61 1462.92 Q1277.63 1462.73 1278.65 1462.73 Q1284.44 1462.73 1287.82 1465.9 Q1291.19 1469.08 1291.19 1474.49 Q1291.19 1480.07 1287.72 1483.17 Q1284.25 1486.25 1277.93 1486.25 Q1275.75 1486.25 1273.49 1485.88 Q1271.24 1485.51 1268.83 1484.77 L1268.83 1480.07 Q1270.92 1481.2 1273.14 1481.76 Q1275.36 1482.32 1277.84 1482.32 Q1281.84 1482.32 1284.18 1480.21 Q1286.52 1478.1 1286.52 1474.49 Q1286.52 1470.88 1284.18 1468.77 Q1281.84 1466.67 1277.84 1466.67 Q1275.96 1466.67 1274.09 1467.08 Q1272.24 1467.5 1270.29 1468.38 L1270.29 1451.02 Z" fill="#000000" fill-rule="nonzero" fill-opacity="1"></path><path clip-path="url(#clip100)" d="M1310.41 1454.1 Q1306.8 1454.1 1304.97 1457.66 Q1303.16 1461.2 1303.16 1468.33 Q1303.16 1475.44 1304.97 1479.01 Q1306.8 1482.55 1310.41 1482.55 Q1314.04 1482.55 1315.85 1479.01 Q1317.68 1475.44 1317.68 1468.33 Q1317.68 1461.2 1315.85 1457.66 Q1314.04 1454.1 1310.41 1454.1 M1310.41 1450.39 Q1316.22 1450.39 1319.27 1455 Q1322.35 1459.58 1322.35 1468.33 Q1322.35 1477.06 1319.27 1481.67 Q1316.22 1486.25 1310.41 1486.25 Q1304.6 1486.25 1301.52 1481.67 Q1298.46 1477.06 1298.46 1468.33 Q1298.46 1459.58 1301.52 1455 Q1304.6 1450.39 1310.41 1450.39 Z" fill="#000000" fill-rule="nonzero" fill-opacity="1"></path><path clip-path="url(#clip100)" d="M1768.39 1451.02 L1790.61 1451.02 L1790.61 1453.01 L1778.07 1485.58 L1773.18 1485.58 L1784.99 1454.96 L1768.39 1454.96 L1768.39 1451.02 Z" fill="#000000" fill-rule="nonzero" fill-opacity="1"></path><path clip-path="url(#clip100)" d="M1799.78 1451.02 L1818.14 1451.02 L1818.14 1454.96 L1804.06 1454.96 L1804.06 1463.43 Q1805.08 1463.08 1806.1 1462.92 Q1807.12 1462.73 1808.14 1462.73 Q1813.92 1462.73 1817.3 1465.9 Q1820.68 1469.08 1820.68 1474.49 Q1820.68 1480.07 1817.21 1483.17 Q1813.74 1486.25 1807.42 1486.25 Q1805.24 1486.25 1802.97 1485.88 Q1800.73 1485.51 1798.32 1484.77 L1798.32 1480.07 Q1800.41 1481.2 1802.63 1481.76 Q1804.85 1482.32 1807.33 1482.32 Q1811.33 1482.32 1813.67 1480.21 Q1816.01 1478.1 1816.01 1474.49 Q1816.01 1470.88 1813.67 1468.77 Q1811.33 1466.67 1807.33 1466.67 Q1805.45 1466.67 1803.58 1467.08 Q1801.72 1467.5 1799.78 1468.38 L1799.78 1451.02 Z" fill="#000000" fill-rule="nonzero" fill-opacity="1"></path><path clip-path="url(#clip100)" d="M2253.09 1481.64 L2260.73 1481.64 L2260.73 1455.28 L2252.42 1456.95 L2252.42 1452.69 L2260.68 1451.02 L2265.36 1451.02 L2265.36 1481.64 L2273 1481.64 L2273 1485.58 L2253.09 1485.58 L2253.09 1481.64 Z" fill="#000000" fill-rule="nonzero" fill-opacity="1"></path><path clip-path="url(#clip100)" d="M2292.44 1454.1 Q2288.83 1454.1 2287 1457.66 Q2285.19 1461.2 2285.19 1468.33 Q2285.19 1475.44 2287 1479.01 Q2288.83 1482.55 2292.44 1482.55 Q2296.07 1482.55 2297.88 1479.01 Q2299.71 1475.44 2299.71 1468.33 Q2299.71 1461.2 2297.88 1457.66 Q2296.07 1454.1 2292.44 1454.1 M2292.44 1450.39 Q2298.25 1450.39 2301.31 1455 Q2304.38 1459.58 2304.38 1468.33 Q2304.38 1477.06 2301.31 1481.67 Q2298.25 1486.25 2292.44 1486.25 Q2286.63 1486.25 2283.55 1481.67 Q2280.5 1477.06 2280.5 1468.33 Q2280.5 1459.58 2283.55 1455 Q2286.63 1450.39 2292.44 1450.39 Z" fill="#000000" fill-rule="nonzero" fill-opacity="1"></path><path clip-path="url(#clip100)" d="M2322.6 1454.1 Q2318.99 1454.1 2317.16 1457.66 Q2315.36 1461.2 2315.36 1468.33 Q2315.36 1475.44 2317.16 1479.01 Q2318.99 1482.55 2322.6 1482.55 Q2326.24 1482.55 2328.04 1479.01 Q2329.87 1475.44 2329.87 1468.33 Q2329.87 1461.2 2328.04 1457.66 Q2326.24 1454.1 2322.6 1454.1 M2322.6 1450.39 Q2328.41 1450.39 2331.47 1455 Q2334.55 1459.58 2334.55 1468.33 Q2334.55 1477.06 2331.47 1481.67 Q2328.41 1486.25 2322.6 1486.25 Q2316.79 1486.25 2313.71 1481.67 Q2310.66 1477.06 2310.66 1468.33 Q2310.66 1459.58 2313.71 1455 Q2316.79 1450.39 2322.6 1450.39 Z" fill="#000000" fill-rule="nonzero" fill-opacity="1"></path><path clip-path="url(#clip100)" d="M1004.24 1522.08 L1004.24 1528.35 Q1000.57 1526.6 997.328 1525.74 Q994.082 1524.88 991.058 1524.88 Q985.806 1524.88 982.942 1526.92 Q980.109 1528.96 980.109 1532.71 Q980.109 1535.87 981.987 1537.49 Q983.897 1539.08 989.18 1540.07 L993.063 1540.86 Q1000.26 1542.23 1003.66 1545.7 Q1007.1 1549.14 1007.1 1554.93 Q1007.1 1561.84 1002.45 1565.4 Q997.838 1568.97 988.894 1568.97 Q985.52 1568.97 981.7 1568.2 Q977.913 1567.44 973.839 1565.94 L973.839 1559.32 Q977.754 1561.52 981.509 1562.63 Q985.265 1563.75 988.894 1563.75 Q994.4 1563.75 997.392 1561.58 Q1000.38 1559.42 1000.38 1555.41 Q1000.38 1551.91 998.219 1549.93 Q996.087 1547.96 991.185 1546.97 L987.27 1546.21 Q980.077 1544.78 976.863 1541.72 Q973.648 1538.67 973.648 1533.22 Q973.648 1526.92 978.072 1523.29 Q982.528 1519.66 990.326 1519.66 Q993.668 1519.66 997.137 1520.27 Q1000.61 1520.87 1004.24 1522.08 Z" fill="#000000" fill-rule="nonzero" fill-opacity="1"></path><path clip-path="url(#clip100)" d="M1016.27 1553.98 L1016.27 1532.4 L1022.12 1532.4 L1022.12 1553.75 Q1022.12 1558.81 1024.1 1561.36 Q1026.07 1563.87 1030.02 1563.87 Q1034.76 1563.87 1037.5 1560.85 Q1040.26 1557.83 1040.26 1552.61 L1040.26 1532.4 L1046.12 1532.4 L1046.12 1568.04 L1040.26 1568.04 L1040.26 1562.57 Q1038.13 1565.82 1035.3 1567.41 Q1032.5 1568.97 1028.77 1568.97 Q1022.63 1568.97 1019.45 1565.15 Q1016.27 1561.33 1016.27 1553.98 M1031 1531.54 L1031 1531.54 Z" fill="#000000" fill-rule="nonzero" fill-opacity="1"></path><path clip-path="url(#clip100)" d="M1083.77 1550.25 Q1083.77 1543.79 1081.1 1540.13 Q1078.46 1536.44 1073.81 1536.44 Q1069.17 1536.44 1066.49 1540.13 Q1063.85 1543.79 1063.85 1550.25 Q1063.85 1556.71 1066.49 1560.4 Q1069.17 1564.07 1073.81 1564.07 Q1078.46 1564.07 1081.1 1560.4 Q1083.77 1556.71 1083.77 1550.25 M1063.85 1537.81 Q1065.7 1534.62 1068.5 1533.1 Q1071.33 1531.54 1075.24 1531.54 Q1081.74 1531.54 1085.78 1536.69 Q1089.85 1541.85 1089.85 1550.25 Q1089.85 1558.65 1085.78 1563.81 Q1081.74 1568.97 1075.24 1568.97 Q1071.33 1568.97 1068.5 1567.44 Q1065.7 1565.88 1063.85 1562.7 L1063.85 1568.04 L1057.96 1568.04 L1057.96 1518.52 L1063.85 1518.52 L1063.85 1537.81 Z" fill="#000000" fill-rule="nonzero" fill-opacity="1"></path><path clip-path="url(#clip100)" d="M1122.29 1533.45 L1122.29 1538.98 Q1119.8 1537.71 1117.13 1537.07 Q1114.46 1536.44 1111.59 1536.44 Q1107.23 1536.44 1105.04 1537.77 Q1102.87 1539.11 1102.87 1541.79 Q1102.87 1543.82 1104.43 1545 Q1105.99 1546.15 1110.7 1547.2 L1112.71 1547.64 Q1118.95 1548.98 1121.56 1551.43 Q1124.2 1553.85 1124.2 1558.21 Q1124.2 1563.17 1120.25 1566.07 Q1116.34 1568.97 1109.46 1568.97 Q1106.6 1568.97 1103.48 1568.39 Q1100.39 1567.85 1096.95 1566.74 L1096.95 1560.69 Q1100.2 1562.38 1103.35 1563.24 Q1106.5 1564.07 1109.59 1564.07 Q1113.73 1564.07 1115.95 1562.66 Q1118.18 1561.23 1118.18 1558.65 Q1118.18 1556.27 1116.56 1554.99 Q1114.97 1553.72 1109.52 1552.54 L1107.49 1552.07 Q1102.04 1550.92 1099.63 1548.56 Q1097.21 1546.18 1097.21 1542.04 Q1097.21 1537.01 1100.77 1534.27 Q1104.34 1531.54 1110.89 1531.54 Q1114.14 1531.54 1117 1532.01 Q1119.87 1532.49 1122.29 1533.45 Z" fill="#000000" fill-rule="nonzero" fill-opacity="1"></path><path clip-path="url(#clip100)" d="M1139.19 1562.7 L1139.19 1581.6 L1133.3 1581.6 L1133.3 1532.4 L1139.19 1532.4 L1139.19 1537.81 Q1141.03 1534.62 1143.83 1533.1 Q1146.67 1531.54 1150.58 1531.54 Q1157.08 1531.54 1161.12 1536.69 Q1165.19 1541.85 1165.19 1550.25 Q1165.19 1558.65 1161.12 1563.81 Q1157.08 1568.97 1150.58 1568.97 Q1146.67 1568.97 1143.83 1567.44 Q1141.03 1565.88 1139.19 1562.7 M1159.11 1550.25 Q1159.11 1543.79 1156.44 1540.13 Q1153.8 1536.44 1149.15 1536.44 Q1144.5 1536.44 1141.83 1540.13 Q1139.19 1543.79 1139.19 1550.25 Q1139.19 1556.71 1141.83 1560.4 Q1144.5 1564.07 1149.15 1564.07 Q1153.8 1564.07 1156.44 1560.4 Q1159.11 1556.71 1159.11 1550.25 Z" fill="#000000" fill-rule="nonzero" fill-opacity="1"></path><path clip-path="url(#clip100)" d="M1191.1 1550.12 Q1184 1550.12 1181.27 1551.75 Q1178.53 1553.37 1178.53 1557.29 Q1178.53 1560.4 1180.57 1562.25 Q1182.63 1564.07 1186.17 1564.07 Q1191.04 1564.07 1193.96 1560.63 Q1196.92 1557.16 1196.92 1551.43 L1196.92 1550.12 L1191.1 1550.12 M1202.78 1547.71 L1202.78 1568.04 L1196.92 1568.04 L1196.92 1562.63 Q1194.92 1565.88 1191.93 1567.44 Q1188.94 1568.97 1184.61 1568.97 Q1179.13 1568.97 1175.89 1565.91 Q1172.67 1562.82 1172.67 1557.67 Q1172.67 1551.65 1176.68 1548.6 Q1180.72 1545.54 1188.71 1545.54 L1196.92 1545.54 L1196.92 1544.97 Q1196.92 1540.93 1194.25 1538.73 Q1191.61 1536.5 1186.8 1536.5 Q1183.75 1536.5 1180.85 1537.23 Q1177.96 1537.97 1175.28 1539.43 L1175.28 1534.02 Q1178.5 1532.78 1181.52 1532.17 Q1184.54 1531.54 1187.41 1531.54 Q1195.14 1531.54 1198.96 1535.55 Q1202.78 1539.56 1202.78 1547.71 Z" fill="#000000" fill-rule="nonzero" fill-opacity="1"></path><path clip-path="url(#clip100)" d="M1240.5 1533.76 L1240.5 1539.24 Q1238.02 1537.87 1235.5 1537.2 Q1233.02 1536.5 1230.47 1536.5 Q1224.77 1536.5 1221.62 1540.13 Q1218.47 1543.73 1218.47 1550.25 Q1218.47 1556.78 1221.62 1560.4 Q1224.77 1564 1230.47 1564 Q1233.02 1564 1235.5 1563.33 Q1238.02 1562.63 1240.5 1561.26 L1240.5 1566.68 Q1238.05 1567.82 1235.41 1568.39 Q1232.8 1568.97 1229.84 1568.97 Q1221.78 1568.97 1217.04 1563.91 Q1212.3 1558.85 1212.3 1550.25 Q1212.3 1541.53 1217.07 1536.53 Q1221.88 1531.54 1230.22 1531.54 Q1232.92 1531.54 1235.5 1532.11 Q1238.08 1532.65 1240.5 1533.76 Z" fill="#000000" fill-rule="nonzero" fill-opacity="1"></path><path clip-path="url(#clip100)" d="M1281.18 1548.76 L1281.18 1551.62 L1254.25 1551.62 Q1254.63 1557.67 1257.88 1560.85 Q1261.15 1564 1266.98 1564 Q1270.35 1564 1273.5 1563.17 Q1276.69 1562.35 1279.81 1560.69 L1279.81 1566.23 Q1276.66 1567.57 1273.35 1568.27 Q1270.04 1568.97 1266.63 1568.97 Q1258.1 1568.97 1253.1 1564 Q1248.14 1559.04 1248.14 1550.57 Q1248.14 1541.82 1252.85 1536.69 Q1257.59 1531.54 1265.61 1531.54 Q1272.8 1531.54 1276.97 1536.18 Q1281.18 1540.8 1281.18 1548.76 M1275.32 1547.04 Q1275.26 1542.23 1272.61 1539.37 Q1270 1536.5 1265.67 1536.5 Q1260.77 1536.5 1257.81 1539.27 Q1254.88 1542.04 1254.44 1547.07 L1275.32 1547.04 Z" fill="#000000" fill-rule="nonzero" fill-opacity="1"></path><path clip-path="url(#clip100)" d="M1334.97 1537.81 L1334.97 1518.52 L1340.82 1518.52 L1340.82 1568.04 L1334.97 1568.04 L1334.97 1562.7 Q1333.12 1565.88 1330.29 1567.44 Q1327.49 1568.97 1323.54 1568.97 Q1317.08 1568.97 1313 1563.81 Q1308.96 1558.65 1308.96 1550.25 Q1308.96 1541.85 1313 1536.69 Q1317.08 1531.54 1323.54 1531.54 Q1327.49 1531.54 1330.29 1533.1 Q1333.12 1534.62 1334.97 1537.81 M1315.01 1550.25 Q1315.01 1556.71 1317.65 1560.4 Q1320.32 1564.07 1324.97 1564.07 Q1329.62 1564.07 1332.29 1560.4 Q1334.97 1556.71 1334.97 1550.25 Q1334.97 1543.79 1332.29 1540.13 Q1329.62 1536.44 1324.97 1536.44 Q1320.32 1536.44 1317.65 1540.13 Q1315.01 1543.79 1315.01 1550.25 Z" fill="#000000" fill-rule="nonzero" fill-opacity="1"></path><path clip-path="url(#clip100)" d="M1352.88 1532.4 L1358.74 1532.4 L1358.74 1568.04 L1352.88 1568.04 L1352.88 1532.4 M1352.88 1518.52 L1358.74 1518.52 L1358.74 1525.93 L1352.88 1525.93 L1352.88 1518.52 Z" fill="#000000" fill-rule="nonzero" fill-opacity="1"></path><path clip-path="url(#clip100)" d="M1398.75 1539.24 Q1400.95 1535.29 1404 1533.41 Q1407.06 1531.54 1411.19 1531.54 Q1416.76 1531.54 1419.79 1535.45 Q1422.81 1539.33 1422.81 1546.53 L1422.81 1568.04 L1416.92 1568.04 L1416.92 1546.72 Q1416.92 1541.59 1415.11 1539.11 Q1413.3 1536.63 1409.57 1536.63 Q1405.02 1536.63 1402.38 1539.65 Q1399.74 1542.68 1399.74 1547.9 L1399.74 1568.04 L1393.85 1568.04 L1393.85 1546.72 Q1393.85 1541.56 1392.03 1539.11 Q1390.22 1536.63 1386.43 1536.63 Q1381.94 1536.63 1379.3 1539.68 Q1376.66 1542.71 1376.66 1547.9 L1376.66 1568.04 L1370.77 1568.04 L1370.77 1532.4 L1376.66 1532.4 L1376.66 1537.93 Q1378.67 1534.66 1381.47 1533.1 Q1384.27 1531.54 1388.12 1531.54 Q1392 1531.54 1394.71 1533.51 Q1397.44 1535.48 1398.75 1539.24 Z" fill="#000000" fill-rule="nonzero" fill-opacity="1"></path><path clip-path="url(#clip100)" d="M1464.98 1548.76 L1464.98 1551.62 L1438.06 1551.62 Q1438.44 1557.67 1441.69 1560.85 Q1444.96 1564 1450.79 1564 Q1454.16 1564 1457.31 1563.17 Q1460.5 1562.35 1463.62 1560.69 L1463.62 1566.23 Q1460.47 1567.57 1457.16 1568.27 Q1453.84 1568.97 1450.44 1568.97 Q1441.91 1568.97 1436.91 1564 Q1431.95 1559.04 1431.95 1550.57 Q1431.95 1541.82 1436.66 1536.69 Q1441.4 1531.54 1449.42 1531.54 Q1456.61 1531.54 1460.78 1536.18 Q1464.98 1540.8 1464.98 1548.76 M1459.13 1547.04 Q1459.06 1542.23 1456.42 1539.37 Q1453.81 1536.5 1449.48 1536.5 Q1444.58 1536.5 1441.62 1539.27 Q1438.69 1542.04 1438.25 1547.07 L1459.13 1547.04 Z" fill="#000000" fill-rule="nonzero" fill-opacity="1"></path><path clip-path="url(#clip100)" d="M1504.23 1546.53 L1504.23 1568.04 L1498.37 1568.04 L1498.37 1546.72 Q1498.37 1541.66 1496.4 1539.14 Q1494.43 1536.63 1490.48 1536.63 Q1485.74 1536.63 1483 1539.65 Q1480.26 1542.68 1480.26 1547.9 L1480.26 1568.04 L1474.37 1568.04 L1474.37 1532.4 L1480.26 1532.4 L1480.26 1537.93 Q1482.36 1534.72 1485.2 1533.13 Q1488.06 1531.54 1491.78 1531.54 Q1497.93 1531.54 1501.08 1535.36 Q1504.23 1539.14 1504.23 1546.53 Z" fill="#000000" fill-rule="nonzero" fill-opacity="1"></path><path clip-path="url(#clip100)" d="M1538.64 1533.45 L1538.64 1538.98 Q1536.15 1537.71 1533.48 1537.07 Q1530.81 1536.44 1527.94 1536.44 Q1523.58 1536.44 1521.39 1537.77 Q1519.22 1539.11 1519.22 1541.79 Q1519.22 1543.82 1520.78 1545 Q1522.34 1546.15 1527.05 1547.2 L1529.06 1547.64 Q1535.29 1548.98 1537.9 1551.43 Q1540.55 1553.85 1540.55 1558.21 Q1540.55 1563.17 1536.6 1566.07 Q1532.68 1568.97 1525.81 1568.97 Q1522.94 1568.97 1519.83 1568.39 Q1516.74 1567.85 1513.3 1566.74 L1513.3 1560.69 Q1516.55 1562.38 1519.7 1563.24 Q1522.85 1564.07 1525.94 1564.07 Q1530.07 1564.07 1532.3 1562.66 Q1534.53 1561.23 1534.53 1558.65 Q1534.53 1556.27 1532.91 1554.99 Q1531.32 1553.72 1525.87 1552.54 L1523.84 1552.07 Q1518.39 1550.92 1515.97 1548.56 Q1513.56 1546.18 1513.56 1542.04 Q1513.56 1537.01 1517.12 1534.27 Q1520.68 1531.54 1527.24 1531.54 Q1530.49 1531.54 1533.35 1532.01 Q1536.22 1532.49 1538.64 1533.45 Z" fill="#000000" fill-rule="nonzero" fill-opacity="1"></path><path clip-path="url(#clip100)" d="M1549.87 1532.4 L1555.73 1532.4 L1555.73 1568.04 L1549.87 1568.04 L1549.87 1532.4 M1549.87 1518.52 L1555.73 1518.52 L1555.73 1525.93 L1549.87 1525.93 L1549.87 1518.52 Z" fill="#000000" fill-rule="nonzero" fill-opacity="1"></path><path clip-path="url(#clip100)" d="M1581.8 1536.5 Q1577.08 1536.5 1574.35 1540.19 Q1571.61 1543.85 1571.61 1550.25 Q1571.61 1556.65 1574.32 1560.34 Q1577.05 1564 1581.8 1564 Q1586.47 1564 1589.21 1560.31 Q1591.95 1556.62 1591.95 1550.25 Q1591.95 1543.92 1589.21 1540.23 Q1586.47 1536.5 1581.8 1536.5 M1581.8 1531.54 Q1589.43 1531.54 1593.79 1536.5 Q1598.16 1541.47 1598.16 1550.25 Q1598.16 1559 1593.79 1564 Q1589.43 1568.97 1581.8 1568.97 Q1574.12 1568.97 1569.76 1564 Q1565.44 1559 1565.44 1550.25 Q1565.44 1541.47 1569.76 1536.5 Q1574.12 1531.54 1581.8 1531.54 Z" fill="#000000" fill-rule="nonzero" fill-opacity="1"></path><path clip-path="url(#clip100)" d="M1637.5 1546.53 L1637.5 1568.04 L1631.64 1568.04 L1631.64 1546.72 Q1631.64 1541.66 1629.67 1539.14 Q1627.69 1536.63 1623.75 1536.63 Q1619 1536.63 1616.27 1539.65 Q1613.53 1542.68 1613.53 1547.9 L1613.53 1568.04 L1607.64 1568.04 L1607.64 1532.4 L1613.53 1532.4 L1613.53 1537.93 Q1615.63 1534.72 1618.46 1533.13 Q1621.33 1531.54 1625.05 1531.54 Q1631.19 1531.54 1634.34 1535.36 Q1637.5 1539.14 1637.5 1546.53 Z" fill="#000000" fill-rule="nonzero" fill-opacity="1"></path><polyline clip-path="url(#clip100)" style="stroke:#000000; stroke-linecap:round; stroke-linejoin:round; stroke-width:4; stroke-opacity:1; fill:none" points="258.387,1423.18 258.387,123.472 "></polyline>
<polyline clip-path="url(#clip100)" style="stroke:#000000; stroke-linecap:round; stroke-linejoin:round; stroke-width:4; stroke-opacity:1; fill:none" points="258.387,1050 277.285,1050 "></polyline>
<polyline clip-path="url(#clip100)" style="stroke:#000000; stroke-linecap:round; stroke-linejoin:round; stroke-width:4; stroke-opacity:1; fill:none" points="258.387,558.894 277.285,558.894 "></polyline>
<path clip-path="url(#clip100)" d="M114.931 1069.79 L122.57 1069.79 L122.57 1043.43 L114.26 1045.09 L114.26 1040.83 L122.524 1039.17 L127.2 1039.17 L127.2 1069.79 L134.839 1069.79 L134.839 1073.73 L114.931 1073.73 L114.931 1069.79 Z" fill="#000000" fill-rule="nonzero" fill-opacity="1"></path><path clip-path="url(#clip100)" d="M154.283 1042.24 Q150.672 1042.24 148.843 1045.81 Q147.038 1049.35 147.038 1056.48 Q147.038 1063.59 148.843 1067.15 Q150.672 1070.69 154.283 1070.69 Q157.917 1070.69 159.723 1067.15 Q161.552 1063.59 161.552 1056.48 Q161.552 1049.35 159.723 1045.81 Q157.917 1042.24 154.283 1042.24 M154.283 1038.54 Q160.093 1038.54 163.149 1043.15 Q166.227 1047.73 166.227 1056.48 Q166.227 1065.21 163.149 1069.81 Q160.093 1074.4 154.283 1074.4 Q148.473 1074.4 145.394 1069.81 Q142.339 1065.21 142.339 1056.48 Q142.339 1047.73 145.394 1043.15 Q148.473 1038.54 154.283 1038.54 Z" fill="#000000" fill-rule="nonzero" fill-opacity="1"></path><path clip-path="url(#clip100)" d="M175.932 1020.74 Q172.998 1020.74 171.512 1023.63 Q170.045 1026.51 170.045 1032.3 Q170.045 1038.08 171.512 1040.97 Q172.998 1043.85 175.932 1043.85 Q178.885 1043.85 180.352 1040.97 Q181.838 1038.08 181.838 1032.3 Q181.838 1026.51 180.352 1023.63 Q178.885 1020.74 175.932 1020.74 M175.932 1017.73 Q180.653 1017.73 183.136 1021.47 Q185.637 1025.19 185.637 1032.3 Q185.637 1039.39 183.136 1043.14 Q180.653 1046.86 175.932 1046.86 Q171.212 1046.86 168.71 1043.14 Q166.227 1039.39 166.227 1032.3 Q166.227 1025.19 168.71 1021.47 Q171.212 1017.73 175.932 1017.73 Z" fill="#000000" fill-rule="nonzero" fill-opacity="1"></path><path clip-path="url(#clip100)" d="M192.314 1041.54 L196.282 1041.54 L196.282 1046.32 L192.314 1046.32 L192.314 1041.54 Z" fill="#000000" fill-rule="nonzero" fill-opacity="1"></path><path clip-path="url(#clip100)" d="M212.683 1020.74 Q209.749 1020.74 208.263 1023.63 Q206.796 1026.51 206.796 1032.3 Q206.796 1038.08 208.263 1040.97 Q209.749 1043.85 212.683 1043.85 Q215.635 1043.85 217.102 1040.97 Q218.588 1038.08 218.588 1032.3 Q218.588 1026.51 217.102 1023.63 Q215.635 1020.74 212.683 1020.74 M212.683 1017.73 Q217.403 1017.73 219.886 1021.47 Q222.387 1025.19 222.387 1032.3 Q222.387 1039.39 219.886 1043.14 Q217.403 1046.86 212.683 1046.86 Q207.962 1046.86 205.46 1043.14 Q202.978 1039.39 202.978 1032.3 Q202.978 1025.19 205.46 1021.47 Q207.962 1017.73 212.683 1017.73 Z" fill="#000000" fill-rule="nonzero" fill-opacity="1"></path><path clip-path="url(#clip100)" d="M115.458 578.686 L123.097 578.686 L123.097 552.321 L114.787 553.987 L114.787 549.728 L123.051 548.061 L127.727 548.061 L127.727 578.686 L135.365 578.686 L135.365 582.621 L115.458 582.621 L115.458 578.686 Z" fill="#000000" fill-rule="nonzero" fill-opacity="1"></path><path clip-path="url(#clip100)" d="M154.81 551.14 Q151.199 551.14 149.37 554.705 Q147.564 558.246 147.564 565.376 Q147.564 572.483 149.37 576.047 Q151.199 579.589 154.81 579.589 Q158.444 579.589 160.249 576.047 Q162.078 572.483 162.078 565.376 Q162.078 558.246 160.249 554.705 Q158.444 551.14 154.81 551.14 M154.81 547.436 Q160.62 547.436 163.675 552.043 Q166.754 556.626 166.754 565.376 Q166.754 574.103 163.675 578.709 Q160.62 583.293 154.81 583.293 Q149 583.293 145.921 578.709 Q142.865 574.103 142.865 565.376 Q142.865 556.626 145.921 552.043 Q149 547.436 154.81 547.436 Z" fill="#000000" fill-rule="nonzero" fill-opacity="1"></path><path clip-path="url(#clip100)" d="M176.459 529.632 Q173.525 529.632 172.039 532.529 Q170.572 535.406 170.572 541.199 Q170.572 546.973 172.039 549.87 Q173.525 552.747 176.459 552.747 Q179.412 552.747 180.879 549.87 Q182.365 546.973 182.365 541.199 Q182.365 535.406 180.879 532.529 Q179.412 529.632 176.459 529.632 M176.459 526.623 Q181.18 526.623 183.662 530.366 Q186.164 534.09 186.164 541.199 Q186.164 548.29 183.662 552.032 Q181.18 555.756 176.459 555.756 Q171.738 555.756 169.237 552.032 Q166.754 548.29 166.754 541.199 Q166.754 534.09 169.237 530.366 Q171.738 526.623 176.459 526.623 Z" fill="#000000" fill-rule="nonzero" fill-opacity="1"></path><path clip-path="url(#clip100)" d="M192.84 550.434 L196.809 550.434 L196.809 555.211 L192.84 555.211 L192.84 550.434 Z" fill="#000000" fill-rule="nonzero" fill-opacity="1"></path><path clip-path="url(#clip100)" d="M216.595 540.071 Q219.322 540.654 220.845 542.497 Q222.387 544.34 222.387 547.048 Q222.387 551.205 219.529 553.481 Q216.67 555.756 211.404 555.756 Q209.636 555.756 207.755 555.399 Q205.893 555.06 203.899 554.365 L203.899 550.697 Q205.479 551.619 207.36 552.089 Q209.241 552.559 211.291 552.559 Q214.864 552.559 216.726 551.148 Q218.607 549.738 218.607 547.048 Q218.607 544.566 216.858 543.174 Q215.128 541.763 212.024 541.763 L208.752 541.763 L208.752 538.641 L212.175 538.641 Q214.977 538.641 216.463 537.532 Q217.949 536.403 217.949 534.297 Q217.949 532.134 216.407 530.987 Q214.883 529.82 212.024 529.82 Q210.463 529.82 208.677 530.159 Q206.89 530.498 204.746 531.212 L204.746 527.827 Q206.909 527.225 208.789 526.924 Q210.689 526.623 212.363 526.623 Q216.689 526.623 219.209 528.598 Q221.729 530.554 221.729 533.902 Q221.729 536.234 220.394 537.851 Q219.058 539.45 216.595 540.071 Z" fill="#000000" fill-rule="nonzero" fill-opacity="1"></path><path clip-path="url(#clip100)" d="M16.4842 1021.87 L16.4842 1012.29 L48.8219 1000.17 L16.4842 987.978 L16.4842 978.397 L64.0042 978.397 L64.0042 984.667 L22.277 984.667 L54.8694 996.921 L54.8694 1003.38 L22.277 1015.64 L64.0042 1015.64 L64.0042 1021.87 L16.4842 1021.87 Z" fill="#000000" fill-rule="nonzero" fill-opacity="1"></path><path clip-path="url(#clip100)" d="M44.7161 935.397 L47.5806 935.397 L47.5806 962.324 Q53.6281 961.942 56.8109 958.695 Q59.9619 955.417 59.9619 949.592 Q59.9619 946.219 59.1344 943.068 Q58.3069 939.885 56.6518 936.766 L62.1899 936.766 Q63.5267 939.917 64.227 943.227 Q64.9272 946.537 64.9272 949.943 Q64.9272 958.473 59.9619 963.47 Q54.9967 968.435 46.5303 968.435 Q37.7774 968.435 32.6531 963.724 Q27.4968 958.982 27.4968 950.961 Q27.4968 943.768 32.1438 939.598 Q36.7589 935.397 44.7161 935.397 M42.9973 941.253 Q38.1912 941.317 35.3266 943.959 Q32.4621 946.569 32.4621 950.897 Q32.4621 955.799 35.2312 958.759 Q38.0002 961.687 43.0292 962.133 L42.9973 941.253 Z" fill="#000000" fill-rule="nonzero" fill-opacity="1"></path><path clip-path="url(#clip100)" d="M33.7671 902.327 L14.479 902.327 L14.479 896.471 L64.0042 896.471 L64.0042 902.327 L58.657 902.327 Q61.8398 904.173 63.3994 907.006 Q64.9272 909.807 64.9272 913.753 Q64.9272 920.215 59.771 924.289 Q54.6147 928.331 46.212 928.331 Q37.8093 928.331 32.6531 924.289 Q27.4968 920.215 27.4968 913.753 Q27.4968 909.807 29.0564 907.006 Q30.5842 904.173 33.7671 902.327 M46.212 922.284 Q52.6732 922.284 56.3653 919.642 Q60.0256 916.968 60.0256 912.321 Q60.0256 907.674 56.3653 905.001 Q52.6732 902.327 46.212 902.327 Q39.7508 902.327 36.0905 905.001 Q32.3984 907.674 32.3984 912.321 Q32.3984 916.968 36.0905 919.642 Q39.7508 922.284 46.212 922.284 Z" fill="#000000" fill-rule="nonzero" fill-opacity="1"></path><path clip-path="url(#clip100)" d="M28.3562 884.408 L28.3562 878.551 L64.0042 878.551 L64.0042 884.408 L28.3562 884.408 M14.479 884.408 L14.479 878.551 L21.895 878.551 L21.895 884.408 L14.479 884.408 Z" fill="#000000" fill-rule="nonzero" fill-opacity="1"></path><path clip-path="url(#clip100)" d="M46.0847 850.096 Q46.0847 857.194 47.7079 859.931 Q49.3312 862.669 53.2461 862.669 Q56.3653 862.669 58.2114 860.632 Q60.0256 858.563 60.0256 855.03 Q60.0256 850.16 56.5881 847.232 Q53.1188 844.272 47.3897 844.272 L46.0847 844.272 L46.0847 850.096 M43.6657 838.415 L64.0042 838.415 L64.0042 844.272 L58.5933 844.272 Q61.8398 846.277 63.3994 849.269 Q64.9272 852.261 64.9272 856.589 Q64.9272 862.064 61.8716 865.31 Q58.7843 868.525 53.6281 868.525 Q47.6125 868.525 44.5569 864.515 Q41.5014 860.473 41.5014 852.484 L41.5014 844.272 L40.9285 844.272 Q36.8862 844.272 34.6901 846.945 Q32.4621 849.587 32.4621 854.393 Q32.4621 857.449 33.1941 860.345 Q33.9262 863.242 35.3903 865.915 L29.9795 865.915 Q28.7381 862.701 28.1334 859.677 Q27.4968 856.653 27.4968 853.789 Q27.4968 846.054 31.5072 842.235 Q35.5176 838.415 43.6657 838.415 Z" fill="#000000" fill-rule="nonzero" fill-opacity="1"></path><path clip-path="url(#clip100)" d="M42.4881 796.72 L64.0042 796.72 L64.0042 802.576 L42.679 802.576 Q37.6183 802.576 35.1038 804.55 Q32.5894 806.523 32.5894 810.47 Q32.5894 815.212 35.6131 817.95 Q38.6368 820.687 43.8567 820.687 L64.0042 820.687 L64.0042 826.575 L28.3562 826.575 L28.3562 820.687 L33.8944 820.687 Q30.6797 818.586 29.0883 815.753 Q27.4968 812.889 27.4968 809.165 Q27.4968 803.022 31.3163 799.871 Q35.1038 796.72 42.4881 796.72 Z" fill="#000000" fill-rule="nonzero" fill-opacity="1"></path><path clip-path="url(#clip100)" d="M21.7677 757.635 L58.7206 757.635 L58.7206 749.868 Q58.7206 740.033 54.2646 735.482 Q49.8086 730.899 40.1964 730.899 Q30.6479 730.899 26.2237 735.482 Q21.7677 740.033 21.7677 749.868 L21.7677 757.635 M16.4842 764.064 L16.4842 750.855 Q16.4842 737.041 22.2451 730.58 Q27.9743 724.119 40.1964 724.119 Q52.4822 724.119 58.2432 730.612 Q64.0042 737.105 64.0042 750.855 L64.0042 764.064 L16.4842 764.064 Z" fill="#000000" fill-rule="nonzero" fill-opacity="1"></path><path clip-path="url(#clip100)" d="M28.3562 714.125 L28.3562 708.268 L64.0042 708.268 L64.0042 714.125 L28.3562 714.125 M14.479 714.125 L14.479 708.268 L21.895 708.268 L21.895 714.125 L14.479 714.125 Z" fill="#000000" fill-rule="nonzero" fill-opacity="1"></path><path clip-path="url(#clip100)" d="M14.479 696.014 L14.479 690.158 L64.0042 690.158 L64.0042 696.014 L14.479 696.014 Z" fill="#000000" fill-rule="nonzero" fill-opacity="1"></path><path clip-path="url(#clip100)" d="M46.0847 661.703 Q46.0847 668.801 47.7079 671.538 Q49.3312 674.276 53.2461 674.276 Q56.3653 674.276 58.2114 672.239 Q60.0256 670.17 60.0256 666.637 Q60.0256 661.767 56.5881 658.839 Q53.1188 655.879 47.3897 655.879 L46.0847 655.879 L46.0847 661.703 M43.6657 650.022 L64.0042 650.022 L64.0042 655.879 L58.5933 655.879 Q61.8398 657.884 63.3994 660.876 Q64.9272 663.868 64.9272 668.196 Q64.9272 673.671 61.8716 676.917 Q58.7843 680.132 53.6281 680.132 Q47.6125 680.132 44.5569 676.122 Q41.5014 672.079 41.5014 664.09 L41.5014 655.879 L40.9285 655.879 Q36.8862 655.879 34.6901 658.552 Q32.4621 661.194 32.4621 666 Q32.4621 669.056 33.1941 671.952 Q33.9262 674.849 35.3903 677.522 L29.9795 677.522 Q28.7381 674.307 28.1334 671.284 Q27.4968 668.26 27.4968 665.395 Q27.4968 657.661 31.5072 653.842 Q35.5176 650.022 43.6657 650.022 Z" fill="#000000" fill-rule="nonzero" fill-opacity="1"></path><path clip-path="url(#clip100)" d="M18.2347 632.166 L28.3562 632.166 L28.3562 620.103 L32.9077 620.103 L32.9077 632.166 L52.2594 632.166 Q56.6199 632.166 57.8613 630.989 Q59.1026 629.779 59.1026 626.119 L59.1026 620.103 L64.0042 620.103 L64.0042 626.119 Q64.0042 632.898 61.4897 635.477 Q58.9434 638.055 52.2594 638.055 L32.9077 638.055 L32.9077 642.352 L28.3562 642.352 L28.3562 638.055 L18.2347 638.055 L18.2347 632.166 Z" fill="#000000" fill-rule="nonzero" fill-opacity="1"></path><path clip-path="url(#clip100)" d="M28.3562 612.401 L28.3562 606.544 L64.0042 606.544 L64.0042 612.401 L28.3562 612.401 M14.479 612.401 L14.479 606.544 L21.895 606.544 L21.895 612.401 L14.479 612.401 Z" fill="#000000" fill-rule="nonzero" fill-opacity="1"></path><path clip-path="url(#clip100)" d="M32.4621 580.477 Q32.4621 585.188 36.1542 587.925 Q39.8145 590.662 46.212 590.662 Q52.6095 590.662 56.3017 587.957 Q59.9619 585.219 59.9619 580.477 Q59.9619 575.798 56.2698 573.061 Q52.5777 570.324 46.212 570.324 Q39.8781 570.324 36.186 573.061 Q32.4621 575.798 32.4621 580.477 M27.4968 580.477 Q27.4968 572.838 32.4621 568.478 Q37.4273 564.117 46.212 564.117 Q54.9649 564.117 59.9619 568.478 Q64.9272 572.838 64.9272 580.477 Q64.9272 588.148 59.9619 592.508 Q54.9649 596.837 46.212 596.837 Q37.4273 596.837 32.4621 592.508 Q27.4968 588.148 27.4968 580.477 Z" fill="#000000" fill-rule="nonzero" fill-opacity="1"></path><path clip-path="url(#clip100)" d="M42.4881 524.777 L64.0042 524.777 L64.0042 530.633 L42.679 530.633 Q37.6183 530.633 35.1038 532.607 Q32.5894 534.58 32.5894 538.527 Q32.5894 543.269 35.6131 546.007 Q38.6368 548.744 43.8567 548.744 L64.0042 548.744 L64.0042 554.632 L28.3562 554.632 L28.3562 548.744 L33.8944 548.744 Q30.6797 546.643 29.0883 543.81 Q27.4968 540.946 27.4968 537.222 Q27.4968 531.079 31.3163 527.928 Q35.1038 524.777 42.4881 524.777 Z" fill="#000000" fill-rule="nonzero" fill-opacity="1"></path><path clip-path="url(#clip100)" d="M830.806 18.8205 L830.806 65.8515 L840.69 65.8515 Q853.207 65.8515 859 60.1802 Q864.833 54.509 864.833 42.2752 Q864.833 30.1225 859 24.4918 Q853.207 18.8205 840.69 18.8205 L830.806 18.8205 M822.623 12.096 L839.434 12.096 Q857.015 12.096 865.238 19.4281 Q873.462 26.7198 873.462 42.2752 Q873.462 57.9117 865.198 65.2439 Q856.934 72.576 839.434 72.576 L822.623 72.576 L822.623 12.096 Z" fill="#000000" fill-rule="nonzero" fill-opacity="1"></path><path clip-path="url(#clip100)" d="M886.182 27.2059 L893.635 27.2059 L893.635 72.576 L886.182 72.576 L886.182 27.2059 M886.182 9.54393 L893.635 9.54393 L893.635 18.9825 L886.182 18.9825 L886.182 9.54393 Z" fill="#000000" fill-rule="nonzero" fill-opacity="1"></path><path clip-path="url(#clip100)" d="M909.231 9.54393 L916.685 9.54393 L916.685 72.576 L909.231 72.576 L909.231 9.54393 Z" fill="#000000" fill-rule="nonzero" fill-opacity="1"></path><path clip-path="url(#clip100)" d="M952.9 49.7694 Q943.866 49.7694 940.383 51.8354 Q936.899 53.9013 936.899 58.8839 Q936.899 62.8538 939.491 65.2034 Q942.125 67.5124 946.621 67.5124 Q952.819 67.5124 956.546 63.1374 Q960.313 58.7219 960.313 51.4303 L960.313 49.7694 L952.9 49.7694 M967.767 46.6907 L967.767 72.576 L960.313 72.576 L960.313 65.6895 Q957.761 69.8214 953.953 71.8063 Q950.145 73.7508 944.636 73.7508 Q937.669 73.7508 933.537 69.8619 Q929.445 65.9325 929.445 59.3701 Q929.445 51.7138 934.549 47.825 Q939.694 43.9361 949.862 43.9361 L960.313 43.9361 L960.313 43.2069 Q960.313 38.0623 956.91 35.2672 Q953.548 32.4315 947.431 32.4315 Q943.542 32.4315 939.856 33.3632 Q936.17 34.295 932.767 36.1584 L932.767 29.2718 Q936.858 27.692 940.707 26.9223 Q944.555 26.1121 948.201 26.1121 Q958.045 26.1121 962.906 31.2163 Q967.767 36.3204 967.767 46.6907 Z" fill="#000000" fill-rule="nonzero" fill-opacity="1"></path><path clip-path="url(#clip100)" d="M990.492 14.324 L990.492 27.2059 L1005.85 27.2059 L1005.85 32.9987 L990.492 32.9987 L990.492 57.6282 Q990.492 63.1779 991.991 64.7578 Q993.531 66.3376 998.189 66.3376 L1005.85 66.3376 L1005.85 72.576 L998.189 72.576 Q989.561 72.576 986.279 69.3758 Q982.998 66.1351 982.998 57.6282 L982.998 32.9987 L977.529 32.9987 L977.529 27.2059 L982.998 27.2059 L982.998 14.324 L990.492 14.324 Z" fill="#000000" fill-rule="nonzero" fill-opacity="1"></path><path clip-path="url(#clip100)" d="M1015.65 27.2059 L1023.1 27.2059 L1023.1 72.576 L1015.65 72.576 L1015.65 27.2059 M1015.65 9.54393 L1023.1 9.54393 L1023.1 18.9825 L1015.65 18.9825 L1015.65 9.54393 Z" fill="#000000" fill-rule="nonzero" fill-opacity="1"></path><path clip-path="url(#clip100)" d="M1056.28 32.4315 Q1050.28 32.4315 1046.8 37.1306 Q1043.32 41.7891 1043.32 49.9314 Q1043.32 58.0738 1046.76 62.7728 Q1050.24 67.4314 1056.28 67.4314 Q1062.23 67.4314 1065.72 62.7323 Q1069.2 58.0333 1069.2 49.9314 Q1069.2 41.8701 1065.72 37.1711 Q1062.23 32.4315 1056.28 32.4315 M1056.28 26.1121 Q1066 26.1121 1071.55 32.4315 Q1077.1 38.7509 1077.1 49.9314 Q1077.1 61.0714 1071.55 67.4314 Q1066 73.7508 1056.28 73.7508 Q1046.52 73.7508 1040.97 67.4314 Q1035.46 61.0714 1035.46 49.9314 Q1035.46 38.7509 1040.97 32.4315 Q1046.52 26.1121 1056.28 26.1121 Z" fill="#000000" fill-rule="nonzero" fill-opacity="1"></path><path clip-path="url(#clip100)" d="M1127.17 45.1919 L1127.17 72.576 L1119.72 72.576 L1119.72 45.4349 Q1119.72 38.994 1117.2 35.7938 Q1114.69 32.5936 1109.67 32.5936 Q1103.63 32.5936 1100.15 36.4419 Q1096.67 40.2903 1096.67 46.9338 L1096.67 72.576 L1089.17 72.576 L1089.17 27.2059 L1096.67 27.2059 L1096.67 34.2544 Q1099.34 30.163 1102.95 28.1376 Q1106.59 26.1121 1111.33 26.1121 Q1119.15 26.1121 1123.16 30.9732 Q1127.17 35.7938 1127.17 45.1919 Z" fill="#000000" fill-rule="nonzero" fill-opacity="1"></path><path clip-path="url(#clip100)" d="M1186.31 9.62495 Q1180.88 18.942 1178.25 28.0566 Q1175.62 37.1711 1175.62 46.5287 Q1175.62 55.8863 1178.25 65.0818 Q1180.93 74.2369 1186.31 83.5134 L1179.83 83.5134 Q1173.76 73.9938 1170.72 64.7983 Q1167.72 55.6027 1167.72 46.5287 Q1167.72 37.4952 1170.72 28.3401 Q1173.71 19.1851 1179.83 9.62495 L1186.31 9.62495 Z" fill="#000000" fill-rule="nonzero" fill-opacity="1"></path><path clip-path="url(#clip100)" d="M1230.63 34.0924 L1230.63 9.54393 L1238.08 9.54393 L1238.08 72.576 L1230.63 72.576 L1230.63 65.7705 Q1228.28 69.8214 1224.68 71.8063 Q1221.11 73.7508 1216.09 73.7508 Q1207.86 73.7508 1202.68 67.1883 Q1197.53 60.6258 1197.53 49.9314 Q1197.53 39.2371 1202.68 32.6746 Q1207.86 26.1121 1216.09 26.1121 Q1221.11 26.1121 1224.68 28.0971 Q1228.28 30.0415 1230.63 34.0924 M1205.23 49.9314 Q1205.23 58.1548 1208.59 62.8538 Q1212 67.5124 1217.91 67.5124 Q1223.82 67.5124 1227.23 62.8538 Q1230.63 58.1548 1230.63 49.9314 Q1230.63 41.7081 1227.23 37.0496 Q1223.82 32.3505 1217.91 32.3505 Q1212 32.3505 1208.59 37.0496 Q1205.23 41.7081 1205.23 49.9314 Z" fill="#000000" fill-rule="nonzero" fill-opacity="1"></path><path clip-path="url(#clip100)" d="M1280.78 34.9026 L1332.71 34.9026 L1332.71 41.7081 L1280.78 41.7081 L1280.78 34.9026 M1280.78 51.4303 L1332.71 51.4303 L1332.71 58.3168 L1280.78 58.3168 L1280.78 51.4303 Z" fill="#000000" fill-rule="nonzero" fill-opacity="1"></path><path clip-path="url(#clip100)" d="M1383.79 65.6895 L1412.35 65.6895 L1412.35 72.576 L1373.95 72.576 L1373.95 65.6895 Q1378.61 60.8689 1386.63 52.7671 Q1394.69 44.6248 1396.76 42.2752 Q1400.69 37.8598 1402.23 34.8216 Q1403.81 31.7429 1403.81 28.7857 Q1403.81 23.9651 1400.4 20.927 Q1397.04 17.8888 1391.61 17.8888 Q1387.76 17.8888 1383.47 19.2256 Q1379.22 20.5624 1374.36 23.2765 L1374.36 15.0127 Q1379.3 13.0277 1383.59 12.015 Q1387.89 11.0023 1391.45 11.0023 Q1400.85 11.0023 1406.44 15.7013 Q1412.03 20.4004 1412.03 28.2591 Q1412.03 31.9859 1410.61 35.3482 Q1409.23 38.6699 1405.55 43.2069 Q1404.54 44.3817 1399.11 50.0125 Q1393.68 55.6027 1383.79 65.6895 Z" fill="#000000" fill-rule="nonzero" fill-opacity="1"></path><path clip-path="url(#clip100)" d="M1430.38 62.2867 L1438.93 62.2867 L1438.93 69.2543 L1432.28 82.2172 L1427.06 82.2172 L1430.38 69.2543 L1430.38 62.2867 Z" fill="#000000" fill-rule="nonzero" fill-opacity="1"></path><path clip-path="url(#clip100)" d="M1481.54 12.096 L1492.56 12.096 L1519.38 62.6918 L1519.38 12.096 L1527.32 12.096 L1527.32 72.576 L1516.3 72.576 L1489.48 21.9802 L1489.48 72.576 L1481.54 72.576 L1481.54 12.096 Z" fill="#000000" fill-rule="nonzero" fill-opacity="1"></path><path clip-path="url(#clip100)" d="M1570.62 34.9026 L1622.55 34.9026 L1622.55 41.7081 L1570.62 41.7081 L1570.62 34.9026 M1570.62 51.4303 L1622.55 51.4303 L1622.55 58.3168 L1570.62 58.3168 L1570.62 51.4303 Z" fill="#000000" fill-rule="nonzero" fill-opacity="1"></path><path clip-path="url(#clip100)" d="M1668.01 65.6895 L1681.37 65.6895 L1681.37 19.5497 L1666.83 22.4663 L1666.83 15.0127 L1681.29 12.096 L1689.48 12.096 L1689.48 65.6895 L1702.84 65.6895 L1702.84 72.576 L1668.01 72.576 L1668.01 65.6895 Z" fill="#000000" fill-rule="nonzero" fill-opacity="1"></path><path clip-path="url(#clip100)" d="M1736.87 17.4837 Q1730.55 17.4837 1727.35 23.7221 Q1724.19 29.92 1724.19 42.3968 Q1724.19 54.833 1727.35 61.0714 Q1730.55 67.2693 1736.87 67.2693 Q1743.23 67.2693 1746.39 61.0714 Q1749.59 54.833 1749.59 42.3968 Q1749.59 29.92 1746.39 23.7221 Q1743.23 17.4837 1736.87 17.4837 M1736.87 11.0023 Q1747.04 11.0023 1752.39 19.0636 Q1757.77 27.0843 1757.77 42.3968 Q1757.77 57.6687 1752.39 65.73 Q1747.04 73.7508 1736.87 73.7508 Q1726.7 73.7508 1721.32 65.73 Q1715.97 57.6687 1715.97 42.3968 Q1715.97 27.0843 1721.32 19.0636 Q1726.7 11.0023 1736.87 11.0023 Z" fill="#000000" fill-rule="nonzero" fill-opacity="1"></path><path clip-path="url(#clip100)" d="M1769.93 9.62495 L1776.41 9.62495 Q1782.48 19.1851 1785.48 28.3401 Q1788.52 37.4952 1788.52 46.5287 Q1788.52 55.6027 1785.48 64.7983 Q1782.48 73.9938 1776.41 83.5134 L1769.93 83.5134 Q1775.31 74.2369 1777.95 65.0818 Q1780.62 55.8863 1780.62 46.5287 Q1780.62 37.1711 1777.95 28.0566 Q1775.31 18.942 1769.93 9.62495 Z" fill="#000000" fill-rule="nonzero" fill-opacity="1"></path><polyline clip-path="url(#clip102)" style="stroke:#009af9; stroke-linecap:round; stroke-linejoin:round; stroke-width:4; stroke-opacity:1; fill:none" points="317.662,1386.4 337.62,938.715 357.578,721.996 377.535,551.705 397.493,605.008 417.451,472.387 437.409,544.464 457.366,376.779 477.324,436.929 497.282,357.165 517.24,393.7 537.198,303.213 557.155,289.157 577.113,340.477 597.071,323.258 617.029,282.513 636.986,315.425 656.944,265.922 676.902,289.547 696.86,284.149 716.817,248.673 736.775,292.987 756.733,249.733 776.691,234.709 796.649,239.108 816.606,275.877 836.564,235.411 856.522,246.436 876.48,214.369 896.437,228.068 916.395,224.073 936.353,235.427 956.311,237.87 976.268,204.28 996.226,238.277 1016.18,231.549 1036.14,210.749 1056.1,219.743 1076.06,201.782 1096.02,226.61 1115.97,216.273 1135.93,222.152 1155.89,205.282 1175.85,194.36 1195.8,216.615 1215.76,209.074 1235.72,212.898 1255.68,222.537 1275.64,205.322 1295.59,190.17 1315.55,222.124 1335.51,233.612 1355.47,176.871 1375.42,193.367 1395.38,181.005 1415.34,195.124 1435.3,183.554 1455.25,180.459 1475.21,185.08 1495.17,200.081 1515.13,188.021 1535.09,197.889 1555.04,193.684 1575,175.238 1594.96,177.353 1614.92,195.905 1634.87,183.395 1654.83,168.804 1674.79,195.711 1694.75,183.502 1714.71,164.774 1734.66,176.207 1754.62,167.949 1774.58,177.028 1794.54,181.347 1814.49,193.284 1834.45,168.999 1854.41,173.108 1874.37,184.191 1894.33,166.263 1914.28,172.06 1934.24,174.669 1954.2,177.515 1974.16,190.143 1994.11,181.13 2014.07,171.038 2034.03,187.527 2053.99,160.256 2073.95,181.001 2093.9,192.027 2113.86,177.324 2133.82,176.198 2153.78,167.412 2173.73,185.522 2193.69,162.027 2213.65,184.145 2233.61,166.707 2253.57,177.849 2273.52,170.445 2293.48,164.636 "></polyline>
<polyline clip-path="url(#clip102)" style="stroke:#e26f46; stroke-linecap:round; stroke-linejoin:round; stroke-width:4; stroke-opacity:1; fill:none" points="317.662,1061.3 337.62,919.814 357.578,765.952 377.535,711.459 397.493,659.192 417.451,618.427 437.409,588.093 457.366,574.232 477.324,572.022 497.282,551.398 517.24,563.094 537.198,568.608 557.155,529.418 577.113,533.314 597.071,529.01 617.029,525.818 636.986,520.988 656.944,519.445 676.902,518.751 696.86,516.814 716.817,509.727 736.775,499.662 756.733,506.005 776.691,507.494 796.649,498.949 816.606,502.672 836.564,492.961 856.522,499.858 876.48,501.022 896.437,495.257 916.395,500.009 936.353,495.118 956.311,499.677 976.268,491.029 996.226,500.188 1016.18,497.027 1036.14,492.015 1056.1,501.03 1076.06,501.04 1096.02,506.649 1115.97,496.673 1135.93,499.568 1155.89,502.632 1175.85,502.798 1195.8,502.503 1215.76,497.056 1235.72,500.317 1255.68,506.852 1275.64,505.058 1295.59,503.058 1315.55,507.5 1335.51,501.132 1355.47,507.581 1375.42,505.717 1395.38,509.869 1415.34,507.691 1435.3,508.366 1455.25,509.602 1475.21,510.572 1495.17,509.186 1515.13,506.023 1535.09,516.981 1555.04,516.416 1575,512.392 1594.96,515.982 1614.92,516.762 1634.87,516.97 1654.83,521.226 1674.79,519.554 1694.75,524.492 1714.71,520.211 1734.66,523.465 1754.62,527.427 1774.58,523.631 1794.54,527.196 1814.49,527.721 1834.45,527.085 1854.41,527.619 1874.37,526.519 1894.33,531.655 1914.28,531.434 1934.24,532.456 1954.2,533.892 1974.16,534.971 1994.11,537.601 2014.07,539.708 2034.03,538.761 2053.99,539.376 2073.95,542.874 2093.9,544.001 2113.86,541.063 2133.82,544.444 2153.78,545.691 2173.73,547.122 2193.69,548.445 2213.65,551.572 2233.61,552.778 2253.57,557.003 2273.52,555.111 2293.48,555.076 "></polyline>
<polyline clip-path="url(#clip102)" style="stroke:#3da44d; stroke-linecap:round; stroke-linejoin:round; stroke-width:4; stroke-opacity:1; fill:none" stroke-dasharray="16, 10" points="317.662,1141.72 337.62,862.276 357.578,765.902 377.535,696.027 397.493,678.633 417.451,637.867 437.409,628.147 457.366,606.726 477.324,594.279 497.282,571.156 517.24,554.662 537.198,540.595 557.155,535.315 577.113,527.098 597.071,527.136 617.029,523.904 636.986,514.206 656.944,508.436 676.902,503.523 696.86,496.108 716.817,494.193 736.775,494.705 756.733,495.174 776.691,488.284 796.649,479.504 816.606,475.749 836.564,476.293 856.522,474.32 876.48,470.624 896.437,471.237 916.395,467.477 936.353,464.298 956.311,466.749 976.268,466.088 996.226,463.942 1016.18,463.558 1036.14,461.389 1056.1,462.271 1076.06,458.409 1096.02,457.613 1115.97,456.148 1135.93,456.696 1155.89,453.369 1175.85,454.529 1195.8,452.226 1215.76,448.1 1235.72,447.939 1255.68,444.006 1275.64,449.154 1295.59,447.461 1315.55,447.66 1335.51,447.969 1355.47,447.711 1375.42,447.278 1395.38,447.512 1415.34,448.071 1435.3,448.191 1455.25,446.113 1475.21,443.665 1495.17,443.906 1515.13,442.82 1535.09,440.408 1555.04,439.378 1575,438.676 1594.96,439.597 1614.92,438.315 1634.87,438.205 1654.83,436.154 1674.79,437.867 1694.75,435.233 1714.71,436.279 1734.66,436.236 1754.62,437.919 1774.58,435.741 1794.54,435.933 1814.49,436.926 1834.45,435.817 1854.41,435.499 1874.37,435.357 1894.33,434.654 1914.28,434.934 1934.24,434.576 1954.2,434.543 1974.16,434.633 1994.11,434.574 2014.07,436.514 2034.03,436.28 2053.99,434.669 2073.95,435.073 2093.9,433.759 2113.86,433.535 2133.82,431.396 2153.78,430.828 2173.73,430.751 2193.69,431.934 2213.65,431.077 2233.61,430.845 2253.57,430.104 2273.52,429.772 2293.48,430.999 "></polyline>
<polyline clip-path="url(#clip102)" style="stroke:#c271d2; stroke-linecap:round; stroke-linejoin:round; stroke-width:4; stroke-opacity:1; fill:none" stroke-dasharray="16, 8, 2, 8" points="317.662,1066.91 337.62,869.013 357.578,781.234 377.535,704.392 397.493,663.766 417.451,624.715 437.409,623.371 457.366,596.092 477.324,584.794 497.282,567.557 517.24,562.355 537.198,555.396 557.155,549.017 577.113,531.888 597.071,514.243 617.029,510.668 636.986,501.692 656.944,502.332 676.902,504.172 696.86,498.153 716.817,490.455 736.775,490.929 756.733,486.563 776.691,484.318 796.649,479.895 816.606,480.195 836.564,481.916 856.522,480.509 876.48,476.013 896.437,476.378 916.395,474.624 936.353,476.294 956.311,476.696 976.268,472.285 996.226,474.812 1016.18,470.661 1036.14,468.518 1056.1,469.112 1076.06,466.033 1096.02,465.367 1115.97,465.751 1135.93,461.405 1155.89,461.056 1175.85,464.194 1195.8,459.89 1215.76,460.078 1235.72,457.391 1255.68,456.387 1275.64,455.804 1295.59,452.291 1315.55,452.826 1335.51,451.35 1355.47,452.407 1375.42,450.578 1395.38,449.113 1415.34,447.458 1435.3,445.345 1455.25,444.929 1475.21,443.708 1495.17,444.975 1515.13,443.222 1535.09,440.457 1555.04,440.675 1575,439.381 1594.96,441.035 1614.92,442.394 1634.87,440.855 1654.83,439.932 1674.79,438.085 1694.75,437.615 1714.71,438.719 1734.66,435.882 1754.62,436.337 1774.58,436.545 1794.54,436.534 1814.49,434.231 1834.45,433.976 1854.41,434.099 1874.37,435.723 1894.33,432.246 1914.28,431.528 1934.24,432.817 1954.2,431.632 1974.16,430.813 1994.11,430.807 2014.07,431.158 2034.03,432.658 2053.99,431.368 2073.95,432.369 2093.9,430.836 2113.86,430.38 2133.82,431.825 2153.78,430.782 2173.73,429.704 2193.69,429.863 2213.65,431.295 2233.61,431.155 2253.57,431.87 2273.52,431.22 2293.48,431.149 "></polyline>
<polyline clip-path="url(#clip102)" style="stroke:#ac8d18; stroke-linecap:round; stroke-linejoin:round; stroke-width:4; stroke-opacity:1; fill:none" stroke-dasharray="16, 10" points="317.662,1114.33 337.62,894.213 357.578,756.393 377.535,699.274 397.493,676.944 417.451,610.581 437.409,598.509 457.366,577.395 477.324,557.674 497.282,518.853 517.24,508.689 537.198,519.619 557.155,501.651 577.113,498.594 597.071,497.107 617.029,482.336 636.986,482.7 656.944,475.354 676.902,471.612 696.86,461.89 716.817,459.905 736.775,457.92 756.733,457.227 776.691,449.427 796.649,447.529 816.606,442.138 836.564,440 856.522,443.29 876.48,440.253 896.437,437.07 916.395,430.481 936.353,432.678 956.311,431.226 976.268,430.978 996.226,428.235 1016.18,427.282 1036.14,423.274 1056.1,419.68 1076.06,418.221 1096.02,421.884 1115.97,422.138 1135.93,421.396 1155.89,418.502 1175.85,419.134 1195.8,421.119 1215.76,416.718 1235.72,417.92 1255.68,420.137 1275.64,420.98 1295.59,417.777 1315.55,416.604 1335.51,417.847 1355.47,414.198 1375.42,410.983 1395.38,413.124 1415.34,408.153 1435.3,408.883 1455.25,406.927 1475.21,405.714 1495.17,405.433 1515.13,404.112 1535.09,405.367 1555.04,403.444 1575,401.709 1594.96,399.907 1614.92,399.443 1634.87,402.105 1654.83,403.319 1674.79,402.766 1694.75,402.25 1714.71,400.811 1734.66,401.906 1754.62,401.81 1774.58,401.579 1794.54,401.266 1814.49,399.145 1834.45,396.829 1854.41,397.389 1874.37,395.538 1894.33,395.544 1914.28,394.867 1934.24,394.408 1954.2,392.751 1974.16,391.841 1994.11,393.898 2014.07,393.137 2034.03,392.206 2053.99,391.639 2073.95,390.962 2093.9,392.485 2113.86,391.18 2133.82,388.476 2153.78,388.189 2173.73,389.056 2193.69,389.162 2213.65,388.992 2233.61,388.715 2253.57,390.373 2273.52,388.119 2293.48,388.362 "></polyline>
<polyline clip-path="url(#clip102)" style="stroke:#00a9ad; stroke-linecap:round; stroke-linejoin:round; stroke-width:4; stroke-opacity:1; fill:none" stroke-dasharray="16, 8, 2, 8" points="317.662,1086.19 337.62,885.646 357.578,772.409 377.535,713.571 397.493,672.478 417.451,641.22 437.409,609.146 457.366,594.243 477.324,577.955 497.282,572.062 517.24,563.686 537.198,553.804 557.155,546.575 577.113,531.578 597.071,529.248 617.029,524.582 636.986,511.048 656.944,508.995 676.902,500.962 696.86,497.895 716.817,492.77 736.775,488.97 756.733,485.02 776.691,483.389 796.649,479.576 816.606,482.552 836.564,483.294 856.522,477.602 876.48,476.481 896.437,476.894 916.395,470.805 936.353,470.651 956.311,470.36 976.268,467.513 996.226,462.403 1016.18,464.951 1036.14,461.826 1056.1,460.728 1076.06,459.028 1096.02,457.424 1115.97,454.139 1135.93,452.438 1155.89,453.132 1175.85,453.954 1195.8,454.8 1215.76,454.334 1235.72,452.206 1255.68,452.067 1275.64,453.295 1295.59,452.373 1315.55,453.577 1335.51,450.789 1355.47,451.291 1375.42,451.331 1395.38,446.926 1415.34,445.071 1435.3,443.902 1455.25,443.734 1475.21,443.482 1495.17,443.094 1515.13,444.643 1535.09,441.737 1555.04,441.279 1575,441.264 1594.96,438.275 1614.92,437.413 1634.87,436.083 1654.83,435.152 1674.79,433.073 1694.75,432.543 1714.71,433.072 1734.66,435.092 1754.62,433.958 1774.58,433.706 1794.54,433.136 1814.49,434.907 1834.45,433.107 1854.41,434.439 1874.37,434.264 1894.33,433.339 1914.28,432.54 1934.24,433.531 1954.2,431.247 1974.16,431.84 1994.11,431.915 2014.07,433.23 2034.03,428.716 2053.99,430.134 2073.95,429.752 2093.9,429.934 2113.86,430.921 2133.82,430.649 2153.78,428.573 2173.73,430.172 2193.69,429.068 2213.65,428.23 2233.61,427.998 2253.57,428.289 2273.52,428.824 2293.48,428.457 "></polyline>
<polyline clip-path="url(#clip102)" style="stroke:#ed5d92; stroke-linecap:round; stroke-linejoin:round; stroke-width:4; stroke-opacity:1; fill:none" stroke-dasharray="16, 10" points="317.662,1173.58 337.62,893.526 357.578,769.164 377.535,699.128 397.493,665.358 417.451,628.353 437.409,603.668 457.366,585.538 477.324,580.622 497.282,566.372 517.24,556.397 537.198,532.451 557.155,528.916 577.113,518.86 597.071,509.315 617.029,506.51 636.986,503.455 656.944,501.632 676.902,504.077 696.86,495.93 716.817,492.973 736.775,485.772 756.733,477.324 776.691,479.255 796.649,481.074 816.606,474.695 836.564,469.299 856.522,468.594 876.48,464.962 896.437,460.603 916.395,462.06 936.353,457.585 956.311,459.646 976.268,458.416 996.226,458.618 1016.18,457.362 1036.14,453.095 1056.1,454.403 1076.06,452.76 1096.02,455.149 1115.97,451.341 1135.93,449.838 1155.89,447.638 1175.85,447.397 1195.8,443.386 1215.76,443.113 1235.72,438.062 1255.68,438.234 1275.64,435.254 1295.59,435.104 1315.55,433.645 1335.51,431.96 1355.47,431.993 1375.42,429.866 1395.38,429.058 1415.34,428.741 1435.3,430.774 1455.25,429.724 1475.21,427.987 1495.17,427.418 1515.13,426.016 1535.09,425.143 1555.04,425.106 1575,425.162 1594.96,423.821 1614.92,419.319 1634.87,419.931 1654.83,421.848 1674.79,419.975 1694.75,419.035 1714.71,420.595 1734.66,417.444 1754.62,419.031 1774.58,418.914 1794.54,417.451 1814.49,416.104 1834.45,415.168 1854.41,413.283 1874.37,413.149 1894.33,412.034 1914.28,413.913 1934.24,414.724 1954.2,414.572 1974.16,413.297 1994.11,411.453 2014.07,410.24 2034.03,411.064 2053.99,413.276 2073.95,414.599 2093.9,411.459 2113.86,413.773 2133.82,413.212 2153.78,412.045 2173.73,411.142 2193.69,413.26 2213.65,411.264 2233.61,412.573 2253.57,411.327 2273.52,411.027 2293.48,410.979 "></polyline>
<polyline clip-path="url(#clip102)" style="stroke:#c68125; stroke-linecap:round; stroke-linejoin:round; stroke-width:4; stroke-opacity:1; fill:none" stroke-dasharray="16, 8, 2, 8" points="317.662,1060.4 337.62,877.571 357.578,786.03 377.535,714.24 397.493,682.1 417.451,641.352 437.409,620.526 457.366,610.366 477.324,591.502 497.282,568.747 517.24,558.429 537.198,550.098 557.155,548.02 577.113,537.155 597.071,530.097 617.029,513.082 636.986,511.702 656.944,510.212 676.902,506.263 696.86,504.709 716.817,499.743 736.775,495.54 756.733,493.359 776.691,489.812 796.649,490.023 816.606,487.873 836.564,484.667 856.522,481.514 876.48,483.421 896.437,474.631 916.395,476.629 936.353,471.381 956.311,473.696 976.268,466.548 996.226,469.43 1016.18,466.539 1036.14,467.719 1056.1,465.978 1076.06,461.991 1096.02,463.32 1115.97,463.661 1135.93,460.301 1155.89,459.382 1175.85,458.004 1195.8,457.99 1215.76,457.355 1235.72,455.297 1255.68,454.839 1275.64,454.833 1295.59,453.336 1315.55,454.578 1335.51,454.649 1355.47,453.387 1375.42,452.419 1395.38,453.464 1415.34,451.032 1435.3,450.656 1455.25,450.491 1475.21,450.17 1495.17,447.741 1515.13,449.162 1535.09,449.266 1555.04,448.565 1575,446.221 1594.96,444.805 1614.92,446.896 1634.87,447.09 1654.83,448.082 1674.79,445.014 1694.75,445.378 1714.71,445.137 1734.66,445.818 1754.62,443.418 1774.58,442.361 1794.54,442.499 1814.49,440.235 1834.45,439.988 1854.41,440.564 1874.37,439.663 1894.33,436.946 1914.28,437.197 1934.24,437.205 1954.2,437.3 1974.16,437.744 1994.11,436.814 2014.07,436.475 2034.03,435.89 2053.99,435.303 2073.95,434.689 2093.9,434.232 2113.86,434.274 2133.82,433.846 2153.78,434.036 2173.73,432.129 2193.69,431.32 2213.65,432.441 2233.61,432.812 2253.57,431.861 2273.52,431.176 2293.48,431.326 "></polyline>
<path clip-path="url(#clip100)" d="M1888.53 1379.86 L2282.94 1379.86 L2282.94 913.296 L1888.53 913.296  Z" fill="#ffffff" fill-rule="evenodd" fill-opacity="1"></path>
<polyline clip-path="url(#clip100)" style="stroke:#000000; stroke-linecap:round; stroke-linejoin:round; stroke-width:4; stroke-opacity:1; fill:none" points="1888.53,1379.86 2282.94,1379.86 2282.94,913.296 1888.53,913.296 1888.53,1379.86 "></polyline>
<polyline clip-path="url(#clip100)" style="stroke:#009af9; stroke-linecap:round; stroke-linejoin:round; stroke-width:4; stroke-opacity:1; fill:none" points="1911.8,965.136 2051.43,965.136 "></polyline>
<path clip-path="url(#clip100)" d="M2100.25 977.486 L2100.25 968.203 L2092.61 968.203 L2092.61 964.361 L2104.88 964.361 L2104.88 979.199 Q2102.17 981.12 2098.91 982.115 Q2095.65 983.088 2091.94 983.088 Q2083.84 983.088 2079.26 978.365 Q2074.7 973.62 2074.7 965.171 Q2074.7 956.699 2079.26 951.977 Q2083.84 947.231 2091.94 947.231 Q2095.32 947.231 2098.35 948.065 Q2101.41 948.898 2103.98 950.518 L2103.98 955.495 Q2101.39 953.296 2098.47 952.185 Q2095.55 951.074 2092.34 951.074 Q2085.99 951.074 2082.8 954.615 Q2079.63 958.157 2079.63 965.171 Q2079.63 972.162 2082.8 975.703 Q2085.99 979.245 2092.34 979.245 Q2094.81 979.245 2096.76 978.828 Q2098.7 978.388 2100.25 977.486 Z" fill="#000000" fill-rule="nonzero" fill-opacity="1"></path><path clip-path="url(#clip100)" d="M2106.94 947.856 L2136.18 947.856 L2136.18 951.791 L2123.91 951.791 L2123.91 982.416 L2119.21 982.416 L2119.21 951.791 L2106.94 951.791 L2106.94 947.856 Z" fill="#000000" fill-rule="nonzero" fill-opacity="1"></path><path clip-path="url(#clip100)" d="M2135.07 947.856 L2164.3 947.856 L2164.3 951.791 L2152.03 951.791 L2152.03 982.416 L2147.34 982.416 L2147.34 951.791 L2135.07 951.791 L2135.07 947.856 Z" fill="#000000" fill-rule="nonzero" fill-opacity="1"></path><polyline clip-path="url(#clip100)" style="stroke:#e26f46; stroke-linecap:round; stroke-linejoin:round; stroke-width:4; stroke-opacity:1; fill:none" points="1911.8,1016.98 2051.43,1016.98 "></polyline>
<path clip-path="url(#clip100)" d="M2090.72 1002.87 Q2085.62 1002.87 2082.61 1006.66 Q2079.63 1010.46 2079.63 1017.01 Q2079.63 1023.54 2082.61 1027.33 Q2085.62 1031.13 2090.72 1031.13 Q2095.81 1031.13 2098.77 1027.33 Q2101.76 1023.54 2101.76 1017.01 Q2101.76 1010.46 2098.77 1006.66 Q2095.81 1002.87 2090.72 1002.87 M2090.72 999.071 Q2097.98 999.071 2102.34 1003.96 Q2106.69 1008.82 2106.69 1017.01 Q2106.69 1025.18 2102.34 1030.07 Q2097.98 1034.93 2090.72 1034.93 Q2083.42 1034.93 2079.05 1030.07 Q2074.7 1025.21 2074.7 1017.01 Q2074.7 1008.82 2079.05 1003.96 Q2083.42 999.071 2090.72 999.071 Z" fill="#000000" fill-rule="nonzero" fill-opacity="1"></path><path clip-path="url(#clip100)" d="M2137.57 1029.33 L2137.57 1020.04 L2129.93 1020.04 L2129.93 1016.2 L2142.2 1016.2 L2142.2 1031.04 Q2139.49 1032.96 2136.22 1033.96 Q2132.96 1034.93 2129.26 1034.93 Q2121.16 1034.93 2116.57 1030.21 Q2112.01 1025.46 2112.01 1017.01 Q2112.01 1008.54 2116.57 1003.82 Q2121.16 999.071 2129.26 999.071 Q2132.64 999.071 2135.67 999.905 Q2138.72 1000.74 2141.29 1002.36 L2141.29 1007.34 Q2138.7 1005.14 2135.78 1004.02 Q2132.87 1002.91 2129.65 1002.91 Q2123.31 1002.91 2120.11 1006.46 Q2116.94 1010 2116.94 1017.01 Q2116.94 1024 2120.11 1027.54 Q2123.31 1031.08 2129.65 1031.08 Q2132.13 1031.08 2134.07 1030.67 Q2136.02 1030.23 2137.57 1029.33 Z" fill="#000000" fill-rule="nonzero" fill-opacity="1"></path><path clip-path="url(#clip100)" d="M2144.26 999.696 L2173.49 999.696 L2173.49 1003.63 L2161.22 1003.63 L2161.22 1034.26 L2156.53 1034.26 L2156.53 1003.63 L2144.26 1003.63 L2144.26 999.696 Z" fill="#000000" fill-rule="nonzero" fill-opacity="1"></path><path clip-path="url(#clip100)" d="M2172.38 999.696 L2201.62 999.696 L2201.62 1003.63 L2189.35 1003.63 L2189.35 1034.26 L2184.65 1034.26 L2184.65 1003.63 L2172.38 1003.63 L2172.38 999.696 Z" fill="#000000" fill-rule="nonzero" fill-opacity="1"></path><polyline clip-path="url(#clip100)" style="stroke:#3da44d; stroke-linecap:round; stroke-linejoin:round; stroke-width:4; stroke-opacity:1; fill:none" stroke-dasharray="16, 10" points="1911.8,1068.82 2051.43,1068.82 "></polyline>
<path clip-path="url(#clip100)" d="M2074.7 1051.54 L2103.93 1051.54 L2103.93 1055.47 L2091.66 1055.47 L2091.66 1086.1 L2086.97 1086.1 L2086.97 1055.47 L2074.7 1055.47 L2074.7 1051.54 Z" fill="#000000" fill-rule="nonzero" fill-opacity="1"></path><path clip-path="url(#clip100)" d="M2102.82 1051.54 L2132.06 1051.54 L2132.06 1055.47 L2119.79 1055.47 L2119.79 1086.1 L2115.09 1086.1 L2115.09 1055.47 L2102.82 1055.47 L2102.82 1051.54 Z" fill="#000000" fill-rule="nonzero" fill-opacity="1"></path><path clip-path="url(#clip100)" d="M2146.62 1050.12 Q2143.52 1055.45 2142.01 1060.66 Q2140.51 1065.86 2140.51 1071.21 Q2140.51 1076.56 2142.01 1081.81 Q2143.54 1087.05 2146.62 1092.35 L2142.91 1092.35 Q2139.44 1086.91 2137.71 1081.65 Q2135.99 1076.4 2135.99 1071.21 Q2135.99 1066.05 2137.71 1060.82 Q2139.42 1055.59 2142.91 1050.12 L2146.62 1050.12 Z" fill="#000000" fill-rule="nonzero" fill-opacity="1"></path><path clip-path="url(#clip100)" d="M2156.29 1082.16 L2163.93 1082.16 L2163.93 1055.8 L2155.62 1057.46 L2155.62 1053.2 L2163.89 1051.54 L2168.56 1051.54 L2168.56 1082.16 L2176.2 1082.16 L2176.2 1086.1 L2156.29 1086.1 L2156.29 1082.16 Z" fill="#000000" fill-rule="nonzero" fill-opacity="1"></path><path clip-path="url(#clip100)" d="M2184.37 1050.12 L2188.08 1050.12 Q2191.55 1055.59 2193.26 1060.82 Q2195 1066.05 2195 1071.21 Q2195 1076.4 2193.26 1081.65 Q2191.55 1086.91 2188.08 1092.35 L2184.37 1092.35 Q2187.45 1087.05 2188.96 1081.81 Q2190.48 1076.56 2190.48 1071.21 Q2190.48 1065.86 2188.96 1060.66 Q2187.45 1055.45 2184.37 1050.12 Z" fill="#000000" fill-rule="nonzero" fill-opacity="1"></path><polyline clip-path="url(#clip100)" style="stroke:#c271d2; stroke-linecap:round; stroke-linejoin:round; stroke-width:4; stroke-opacity:1; fill:none" stroke-dasharray="16, 8, 2, 8" points="1911.8,1120.66 2051.43,1120.66 "></polyline>
<path clip-path="url(#clip100)" d="M2090.72 1106.55 Q2085.62 1106.55 2082.61 1110.34 Q2079.63 1114.14 2079.63 1120.69 Q2079.63 1127.22 2082.61 1131.01 Q2085.62 1134.81 2090.72 1134.81 Q2095.81 1134.81 2098.77 1131.01 Q2101.76 1127.22 2101.76 1120.69 Q2101.76 1114.14 2098.77 1110.34 Q2095.81 1106.55 2090.72 1106.55 M2090.72 1102.75 Q2097.98 1102.75 2102.34 1107.64 Q2106.69 1112.5 2106.69 1120.69 Q2106.69 1128.86 2102.34 1133.75 Q2097.98 1138.61 2090.72 1138.61 Q2083.42 1138.61 2079.05 1133.75 Q2074.7 1128.89 2074.7 1120.69 Q2074.7 1112.5 2079.05 1107.64 Q2083.42 1102.75 2090.72 1102.75 Z" fill="#000000" fill-rule="nonzero" fill-opacity="1"></path><path clip-path="url(#clip100)" d="M2109.21 1103.38 L2138.45 1103.38 L2138.45 1107.31 L2126.18 1107.31 L2126.18 1137.94 L2121.48 1137.94 L2121.48 1107.31 L2109.21 1107.31 L2109.21 1103.38 Z" fill="#000000" fill-rule="nonzero" fill-opacity="1"></path><path clip-path="url(#clip100)" d="M2137.34 1103.38 L2166.57 1103.38 L2166.57 1107.31 L2154.3 1107.31 L2154.3 1137.94 L2149.6 1137.94 L2149.6 1107.31 L2137.34 1107.31 L2137.34 1103.38 Z" fill="#000000" fill-rule="nonzero" fill-opacity="1"></path><path clip-path="url(#clip100)" d="M2181.13 1101.96 Q2178.03 1107.29 2176.53 1112.5 Q2175.02 1117.7 2175.02 1123.05 Q2175.02 1128.4 2176.53 1133.65 Q2178.05 1138.89 2181.13 1144.19 L2177.43 1144.19 Q2173.96 1138.75 2172.22 1133.49 Q2170.51 1128.24 2170.51 1123.05 Q2170.51 1117.89 2172.22 1112.66 Q2173.93 1107.43 2177.43 1101.96 L2181.13 1101.96 Z" fill="#000000" fill-rule="nonzero" fill-opacity="1"></path><path clip-path="url(#clip100)" d="M2190.81 1134 L2198.45 1134 L2198.45 1107.64 L2190.14 1109.3 L2190.14 1105.04 L2198.4 1103.38 L2203.08 1103.38 L2203.08 1134 L2210.71 1134 L2210.71 1137.94 L2190.81 1137.94 L2190.81 1134 Z" fill="#000000" fill-rule="nonzero" fill-opacity="1"></path><path clip-path="url(#clip100)" d="M2218.89 1101.96 L2222.59 1101.96 Q2226.06 1107.43 2227.77 1112.66 Q2229.51 1117.89 2229.51 1123.05 Q2229.51 1128.24 2227.77 1133.49 Q2226.06 1138.75 2222.59 1144.19 L2218.89 1144.19 Q2221.96 1138.89 2223.47 1133.65 Q2225 1128.4 2225 1123.05 Q2225 1117.7 2223.47 1112.5 Q2221.96 1107.29 2218.89 1101.96 Z" fill="#000000" fill-rule="nonzero" fill-opacity="1"></path><polyline clip-path="url(#clip100)" style="stroke:#ac8d18; stroke-linecap:round; stroke-linejoin:round; stroke-width:4; stroke-opacity:1; fill:none" stroke-dasharray="16, 10" points="1911.8,1172.5 2051.43,1172.5 "></polyline>
<path clip-path="url(#clip100)" d="M2074.7 1155.22 L2103.93 1155.22 L2103.93 1159.15 L2091.66 1159.15 L2091.66 1189.78 L2086.97 1189.78 L2086.97 1159.15 L2074.7 1159.15 L2074.7 1155.22 Z" fill="#000000" fill-rule="nonzero" fill-opacity="1"></path><path clip-path="url(#clip100)" d="M2102.82 1155.22 L2132.06 1155.22 L2132.06 1159.15 L2119.79 1159.15 L2119.79 1189.78 L2115.09 1189.78 L2115.09 1159.15 L2102.82 1159.15 L2102.82 1155.22 Z" fill="#000000" fill-rule="nonzero" fill-opacity="1"></path><path clip-path="url(#clip100)" d="M2146.62 1153.8 Q2143.52 1159.13 2142.01 1164.34 Q2140.51 1169.54 2140.51 1174.89 Q2140.51 1180.24 2142.01 1185.49 Q2143.54 1190.73 2146.62 1196.03 L2142.91 1196.03 Q2139.44 1190.59 2137.71 1185.33 Q2135.99 1180.08 2135.99 1174.89 Q2135.99 1169.73 2137.71 1164.5 Q2139.42 1159.27 2142.91 1153.8 L2146.62 1153.8 Z" fill="#000000" fill-rule="nonzero" fill-opacity="1"></path><path clip-path="url(#clip100)" d="M2156.29 1185.84 L2163.93 1185.84 L2163.93 1159.48 L2155.62 1161.14 L2155.62 1156.88 L2163.89 1155.22 L2168.56 1155.22 L2168.56 1185.84 L2176.2 1185.84 L2176.2 1189.78 L2156.29 1189.78 L2156.29 1185.84 Z" fill="#000000" fill-rule="nonzero" fill-opacity="1"></path><path clip-path="url(#clip100)" d="M2195.65 1158.29 Q2192.03 1158.29 2190.21 1161.86 Q2188.4 1165.4 2188.4 1172.53 Q2188.4 1179.64 2190.21 1183.2 Q2192.03 1186.74 2195.65 1186.74 Q2199.28 1186.74 2201.09 1183.2 Q2202.91 1179.64 2202.91 1172.53 Q2202.91 1165.4 2201.09 1161.86 Q2199.28 1158.29 2195.65 1158.29 M2195.65 1154.59 Q2201.46 1154.59 2204.51 1159.2 Q2207.59 1163.78 2207.59 1172.53 Q2207.59 1181.26 2204.51 1185.86 Q2201.46 1190.45 2195.65 1190.45 Q2189.84 1190.45 2186.76 1185.86 Q2183.7 1181.26 2183.7 1172.53 Q2183.7 1163.78 2186.76 1159.2 Q2189.84 1154.59 2195.65 1154.59 Z" fill="#000000" fill-rule="nonzero" fill-opacity="1"></path><path clip-path="url(#clip100)" d="M2214.53 1153.8 L2218.24 1153.8 Q2221.71 1159.27 2223.42 1164.5 Q2225.16 1169.73 2225.16 1174.89 Q2225.16 1180.08 2223.42 1185.33 Q2221.71 1190.59 2218.24 1196.03 L2214.53 1196.03 Q2217.61 1190.73 2219.12 1185.49 Q2220.65 1180.24 2220.65 1174.89 Q2220.65 1169.54 2219.12 1164.34 Q2217.61 1159.13 2214.53 1153.8 Z" fill="#000000" fill-rule="nonzero" fill-opacity="1"></path><polyline clip-path="url(#clip100)" style="stroke:#00a9ad; stroke-linecap:round; stroke-linejoin:round; stroke-width:4; stroke-opacity:1; fill:none" stroke-dasharray="16, 8, 2, 8" points="1911.8,1224.34 2051.43,1224.34 "></polyline>
<path clip-path="url(#clip100)" d="M2090.72 1210.23 Q2085.62 1210.23 2082.61 1214.02 Q2079.63 1217.82 2079.63 1224.37 Q2079.63 1230.9 2082.61 1234.69 Q2085.62 1238.49 2090.72 1238.49 Q2095.81 1238.49 2098.77 1234.69 Q2101.76 1230.9 2101.76 1224.37 Q2101.76 1217.82 2098.77 1214.02 Q2095.81 1210.23 2090.72 1210.23 M2090.72 1206.43 Q2097.98 1206.43 2102.34 1211.32 Q2106.69 1216.18 2106.69 1224.37 Q2106.69 1232.54 2102.34 1237.43 Q2097.98 1242.29 2090.72 1242.29 Q2083.42 1242.29 2079.05 1237.43 Q2074.7 1232.57 2074.7 1224.37 Q2074.7 1216.18 2079.05 1211.32 Q2083.42 1206.43 2090.72 1206.43 Z" fill="#000000" fill-rule="nonzero" fill-opacity="1"></path><path clip-path="url(#clip100)" d="M2109.21 1207.06 L2138.45 1207.06 L2138.45 1210.99 L2126.18 1210.99 L2126.18 1241.62 L2121.48 1241.62 L2121.48 1210.99 L2109.21 1210.99 L2109.21 1207.06 Z" fill="#000000" fill-rule="nonzero" fill-opacity="1"></path><path clip-path="url(#clip100)" d="M2137.34 1207.06 L2166.57 1207.06 L2166.57 1210.99 L2154.3 1210.99 L2154.3 1241.62 L2149.6 1241.62 L2149.6 1210.99 L2137.34 1210.99 L2137.34 1207.06 Z" fill="#000000" fill-rule="nonzero" fill-opacity="1"></path><path clip-path="url(#clip100)" d="M2181.13 1205.64 Q2178.03 1210.97 2176.53 1216.18 Q2175.02 1221.38 2175.02 1226.73 Q2175.02 1232.08 2176.53 1237.33 Q2178.05 1242.57 2181.13 1247.87 L2177.43 1247.87 Q2173.96 1242.43 2172.22 1237.17 Q2170.51 1231.92 2170.51 1226.73 Q2170.51 1221.57 2172.22 1216.34 Q2173.93 1211.11 2177.43 1205.64 L2181.13 1205.64 Z" fill="#000000" fill-rule="nonzero" fill-opacity="1"></path><path clip-path="url(#clip100)" d="M2190.81 1237.68 L2198.45 1237.68 L2198.45 1211.32 L2190.14 1212.98 L2190.14 1208.72 L2198.4 1207.06 L2203.08 1207.06 L2203.08 1237.68 L2210.71 1237.68 L2210.71 1241.62 L2190.81 1241.62 L2190.81 1237.68 Z" fill="#000000" fill-rule="nonzero" fill-opacity="1"></path><path clip-path="url(#clip100)" d="M2230.16 1210.13 Q2226.55 1210.13 2224.72 1213.7 Q2222.91 1217.24 2222.91 1224.37 Q2222.91 1231.48 2224.72 1235.04 Q2226.55 1238.58 2230.16 1238.58 Q2233.79 1238.58 2235.6 1235.04 Q2237.43 1231.48 2237.43 1224.37 Q2237.43 1217.24 2235.6 1213.7 Q2233.79 1210.13 2230.16 1210.13 M2230.16 1206.43 Q2235.97 1206.43 2239.02 1211.04 Q2242.1 1215.62 2242.1 1224.37 Q2242.1 1233.1 2239.02 1237.7 Q2235.97 1242.29 2230.16 1242.29 Q2224.35 1242.29 2221.27 1237.7 Q2218.21 1233.1 2218.21 1224.37 Q2218.21 1215.62 2221.27 1211.04 Q2224.35 1206.43 2230.16 1206.43 Z" fill="#000000" fill-rule="nonzero" fill-opacity="1"></path><path clip-path="url(#clip100)" d="M2249.05 1205.64 L2252.75 1205.64 Q2256.22 1211.11 2257.94 1216.34 Q2259.67 1221.57 2259.67 1226.73 Q2259.67 1231.92 2257.94 1237.17 Q2256.22 1242.43 2252.75 1247.87 L2249.05 1247.87 Q2252.13 1242.57 2253.63 1237.33 Q2255.16 1232.08 2255.16 1226.73 Q2255.16 1221.38 2253.63 1216.18 Q2252.13 1210.97 2249.05 1205.64 Z" fill="#000000" fill-rule="nonzero" fill-opacity="1"></path><polyline clip-path="url(#clip100)" style="stroke:#ed5d92; stroke-linecap:round; stroke-linejoin:round; stroke-width:4; stroke-opacity:1; fill:none" stroke-dasharray="16, 10" points="1911.8,1276.18 2051.43,1276.18 "></polyline>
<path clip-path="url(#clip100)" d="M2074.7 1258.9 L2103.93 1258.9 L2103.93 1262.83 L2091.66 1262.83 L2091.66 1293.46 L2086.97 1293.46 L2086.97 1262.83 L2074.7 1262.83 L2074.7 1258.9 Z" fill="#000000" fill-rule="nonzero" fill-opacity="1"></path><path clip-path="url(#clip100)" d="M2102.82 1258.9 L2132.06 1258.9 L2132.06 1262.83 L2119.79 1262.83 L2119.79 1293.46 L2115.09 1293.46 L2115.09 1262.83 L2102.82 1262.83 L2102.82 1258.9 Z" fill="#000000" fill-rule="nonzero" fill-opacity="1"></path><path clip-path="url(#clip100)" d="M2146.62 1257.48 Q2143.52 1262.81 2142.01 1268.02 Q2140.51 1273.22 2140.51 1278.57 Q2140.51 1283.92 2142.01 1289.17 Q2143.54 1294.41 2146.62 1299.71 L2142.91 1299.71 Q2139.44 1294.27 2137.71 1289.01 Q2135.99 1283.76 2135.99 1278.57 Q2135.99 1273.41 2137.71 1268.18 Q2139.42 1262.95 2142.91 1257.48 L2146.62 1257.48 Z" fill="#000000" fill-rule="nonzero" fill-opacity="1"></path><path clip-path="url(#clip100)" d="M2159.51 1289.52 L2175.83 1289.52 L2175.83 1293.46 L2153.89 1293.46 L2153.89 1289.52 Q2156.55 1286.77 2161.13 1282.14 Q2165.74 1277.48 2166.92 1276.14 Q2169.16 1273.62 2170.04 1271.88 Q2170.95 1270.12 2170.95 1268.43 Q2170.95 1265.68 2169 1263.94 Q2167.08 1262.21 2163.98 1262.21 Q2161.78 1262.21 2159.33 1262.97 Q2156.9 1263.73 2154.12 1265.29 L2154.12 1260.56 Q2156.94 1259.43 2159.4 1258.85 Q2161.85 1258.27 2163.89 1258.27 Q2169.26 1258.27 2172.45 1260.96 Q2175.65 1263.64 2175.65 1268.13 Q2175.65 1270.26 2174.84 1272.18 Q2174.05 1274.08 2171.94 1276.67 Q2171.36 1277.35 2168.26 1280.56 Q2165.16 1283.76 2159.51 1289.52 Z" fill="#000000" fill-rule="nonzero" fill-opacity="1"></path><path clip-path="url(#clip100)" d="M2195.65 1261.97 Q2192.03 1261.97 2190.21 1265.54 Q2188.4 1269.08 2188.4 1276.21 Q2188.4 1283.32 2190.21 1286.88 Q2192.03 1290.42 2195.65 1290.42 Q2199.28 1290.42 2201.09 1286.88 Q2202.91 1283.32 2202.91 1276.21 Q2202.91 1269.08 2201.09 1265.54 Q2199.28 1261.97 2195.65 1261.97 M2195.65 1258.27 Q2201.46 1258.27 2204.51 1262.88 Q2207.59 1267.46 2207.59 1276.21 Q2207.59 1284.94 2204.51 1289.54 Q2201.46 1294.13 2195.65 1294.13 Q2189.84 1294.13 2186.76 1289.54 Q2183.7 1284.94 2183.7 1276.21 Q2183.7 1267.46 2186.76 1262.88 Q2189.84 1258.27 2195.65 1258.27 Z" fill="#000000" fill-rule="nonzero" fill-opacity="1"></path><path clip-path="url(#clip100)" d="M2214.53 1257.48 L2218.24 1257.48 Q2221.71 1262.95 2223.42 1268.18 Q2225.16 1273.41 2225.16 1278.57 Q2225.16 1283.76 2223.42 1289.01 Q2221.71 1294.27 2218.24 1299.71 L2214.53 1299.71 Q2217.61 1294.41 2219.12 1289.17 Q2220.65 1283.92 2220.65 1278.57 Q2220.65 1273.22 2219.12 1268.02 Q2217.61 1262.81 2214.53 1257.48 Z" fill="#000000" fill-rule="nonzero" fill-opacity="1"></path><polyline clip-path="url(#clip100)" style="stroke:#c68125; stroke-linecap:round; stroke-linejoin:round; stroke-width:4; stroke-opacity:1; fill:none" stroke-dasharray="16, 8, 2, 8" points="1911.8,1328.02 2051.43,1328.02 "></polyline>
<path clip-path="url(#clip100)" d="M2090.72 1313.91 Q2085.62 1313.91 2082.61 1317.7 Q2079.63 1321.5 2079.63 1328.05 Q2079.63 1334.58 2082.61 1338.37 Q2085.62 1342.17 2090.72 1342.17 Q2095.81 1342.17 2098.77 1338.37 Q2101.76 1334.58 2101.76 1328.05 Q2101.76 1321.5 2098.77 1317.7 Q2095.81 1313.91 2090.72 1313.91 M2090.72 1310.11 Q2097.98 1310.11 2102.34 1315 Q2106.69 1319.86 2106.69 1328.05 Q2106.69 1336.22 2102.34 1341.11 Q2097.98 1345.97 2090.72 1345.97 Q2083.42 1345.97 2079.05 1341.11 Q2074.7 1336.25 2074.7 1328.05 Q2074.7 1319.86 2079.05 1315 Q2083.42 1310.11 2090.72 1310.11 Z" fill="#000000" fill-rule="nonzero" fill-opacity="1"></path><path clip-path="url(#clip100)" d="M2109.21 1310.74 L2138.45 1310.74 L2138.45 1314.67 L2126.18 1314.67 L2126.18 1345.3 L2121.48 1345.3 L2121.48 1314.67 L2109.21 1314.67 L2109.21 1310.74 Z" fill="#000000" fill-rule="nonzero" fill-opacity="1"></path><path clip-path="url(#clip100)" d="M2137.34 1310.74 L2166.57 1310.74 L2166.57 1314.67 L2154.3 1314.67 L2154.3 1345.3 L2149.6 1345.3 L2149.6 1314.67 L2137.34 1314.67 L2137.34 1310.74 Z" fill="#000000" fill-rule="nonzero" fill-opacity="1"></path><path clip-path="url(#clip100)" d="M2181.13 1309.32 Q2178.03 1314.65 2176.53 1319.86 Q2175.02 1325.06 2175.02 1330.41 Q2175.02 1335.76 2176.53 1341.01 Q2178.05 1346.25 2181.13 1351.55 L2177.43 1351.55 Q2173.96 1346.11 2172.22 1340.85 Q2170.51 1335.6 2170.51 1330.41 Q2170.51 1325.25 2172.22 1320.02 Q2173.93 1314.79 2177.43 1309.32 L2181.13 1309.32 Z" fill="#000000" fill-rule="nonzero" fill-opacity="1"></path><path clip-path="url(#clip100)" d="M2194.03 1341.36 L2210.34 1341.36 L2210.34 1345.3 L2188.4 1345.3 L2188.4 1341.36 Q2191.06 1338.61 2195.65 1333.98 Q2200.25 1329.32 2201.43 1327.98 Q2203.68 1325.46 2204.56 1323.72 Q2205.46 1321.96 2205.46 1320.27 Q2205.46 1317.52 2203.52 1315.78 Q2201.59 1314.05 2198.49 1314.05 Q2196.29 1314.05 2193.84 1314.81 Q2191.41 1315.57 2188.63 1317.13 L2188.63 1312.4 Q2191.46 1311.27 2193.91 1310.69 Q2196.36 1310.11 2198.4 1310.11 Q2203.77 1310.11 2206.96 1312.8 Q2210.16 1315.48 2210.16 1319.97 Q2210.16 1322.1 2209.35 1324.02 Q2208.56 1325.92 2206.46 1328.51 Q2205.88 1329.19 2202.78 1332.4 Q2199.67 1335.6 2194.03 1341.36 Z" fill="#000000" fill-rule="nonzero" fill-opacity="1"></path><path clip-path="url(#clip100)" d="M2230.16 1313.81 Q2226.55 1313.81 2224.72 1317.38 Q2222.91 1320.92 2222.91 1328.05 Q2222.91 1335.16 2224.72 1338.72 Q2226.55 1342.26 2230.16 1342.26 Q2233.79 1342.26 2235.6 1338.72 Q2237.43 1335.16 2237.43 1328.05 Q2237.43 1320.92 2235.6 1317.38 Q2233.79 1313.81 2230.16 1313.81 M2230.16 1310.11 Q2235.97 1310.11 2239.02 1314.72 Q2242.1 1319.3 2242.1 1328.05 Q2242.1 1336.78 2239.02 1341.38 Q2235.97 1345.97 2230.16 1345.97 Q2224.35 1345.97 2221.27 1341.38 Q2218.21 1336.78 2218.21 1328.05 Q2218.21 1319.3 2221.27 1314.72 Q2224.35 1310.11 2230.16 1310.11 Z" fill="#000000" fill-rule="nonzero" fill-opacity="1"></path><path clip-path="url(#clip100)" d="M2249.05 1309.32 L2252.75 1309.32 Q2256.22 1314.79 2257.94 1320.02 Q2259.67 1325.25 2259.67 1330.41 Q2259.67 1335.6 2257.94 1340.85 Q2256.22 1346.11 2252.75 1351.55 L2249.05 1351.55 Q2252.13 1346.25 2253.63 1341.01 Q2255.16 1335.76 2255.16 1330.41 Q2255.16 1325.06 2253.63 1319.86 Q2252.13 1314.65 2249.05 1309.32 Z" fill="#000000" fill-rule="nonzero" fill-opacity="1"></path></svg>