<svg xmlns="http://www.w3.org/2000/svg" xmlns:xlink="http://www.w3.org/1999/xlink" width="600" height="400" viewBox="0 0 2400 1600">
<defs>
  <clipPath id="clip060">
    <rect x="0" y="0" width="2400" height="1600"></rect>
  </clipPath>
</defs>
<path clip-path="url(#clip060)" d="M0 1600 L2400 1600 L2400 0 L0 0  Z" fill="#ffffff" fill-rule="evenodd" fill-opacity="1"></path>
<defs>
  <clipPath id="clip061">
    <rect x="480" y="0" width="1681" height="1600"></rect>
  </clipPath>
</defs>
<path clip-path="url(#clip060)" d="M289.251 1423.18 L2352.76 1423.18 L2352.76 123.472 L289.251 123.472  Z" fill="#ffffff" fill-rule="evenodd" fill-opacity="1"></path>
<defs>
  <clipPath id="clip062">
    <rect x="289" y="123" width="2065" height="1301"></rect>
  </clipPath>
</defs>
<polyline clip-path="url(#clip062)" style="stroke:#000000; stroke-linecap:round; stroke-linejoin:round; stroke-width:2; stroke-opacity:0.1; fill:none" points="327.988,1423.18 327.988,123.472 "></polyline>
<polyline clip-path="url(#clip062)" style="stroke:#000000; stroke-linecap:round; stroke-linejoin:round; stroke-width:2; stroke-opacity:0.1; fill:none" points="819.58,1423.18 819.58,123.472 "></polyline>
<polyline clip-path="url(#clip062)" style="stroke:#000000; stroke-linecap:round; stroke-linejoin:round; stroke-width:2; stroke-opacity:0.1; fill:none" points="1311.17,1423.18 1311.17,123.472 "></polyline>
<polyline clip-path="url(#clip062)" style="stroke:#000000; stroke-linecap:round; stroke-linejoin:round; stroke-width:2; stroke-opacity:0.1; fill:none" points="1802.76,1423.18 1802.76,123.472 "></polyline>
<polyline clip-path="url(#clip062)" style="stroke:#000000; stroke-linecap:round; stroke-linejoin:round; stroke-width:2; stroke-opacity:0.1; fill:none" points="2294.35,1423.18 2294.35,123.472 "></polyline>
<polyline clip-path="url(#clip062)" style="stroke:#000000; stroke-linecap:round; stroke-linejoin:round; stroke-width:2; stroke-opacity:0.1; fill:none" points="289.251,1290.97 2352.76,1290.97 "></polyline>
<polyline clip-path="url(#clip062)" style="stroke:#000000; stroke-linecap:round; stroke-linejoin:round; stroke-width:2; stroke-opacity:0.1; fill:none" points="289.251,911.387 2352.76,911.387 "></polyline>
<polyline clip-path="url(#clip062)" style="stroke:#000000; stroke-linecap:round; stroke-linejoin:round; stroke-width:2; stroke-opacity:0.1; fill:none" points="289.251,531.804 2352.76,531.804 "></polyline>
<polyline clip-path="url(#clip062)" style="stroke:#000000; stroke-linecap:round; stroke-linejoin:round; stroke-width:2; stroke-opacity:0.1; fill:none" points="289.251,152.221 2352.76,152.221 "></polyline>
<polyline clip-path="url(#clip060)" style="stroke:#000000; stroke-linecap:round; stroke-linejoin:round; stroke-width:4; stroke-opacity:1; fill:none" points="289.251,1423.18 2352.76,1423.18 "></polyline>
<polyline clip-path="url(#clip060)" style="stroke:#000000; stroke-linecap:round; stroke-linejoin:round; stroke-width:4; stroke-opacity:1; fill:none" points="327.988,1423.18 327.988,1404.28 "></polyline>
<polyline clip-path="url(#clip060)" style="stroke:#000000; stroke-linecap:round; stroke-linejoin:round; stroke-width:4; stroke-opacity:1; fill:none" points="819.58,1423.18 819.58,1404.28 "></polyline>
<polyline clip-path="url(#clip060)" style="stroke:#000000; stroke-linecap:round; stroke-linejoin:round; stroke-width:4; stroke-opacity:1; fill:none" points="1311.17,1423.18 1311.17,1404.28 "></polyline>
<polyline clip-path="url(#clip060)" style="stroke:#000000; stroke-linecap:round; stroke-linejoin:round; stroke-width:4; stroke-opacity:1; fill:none" points="1802.76,1423.18 1802.76,1404.28 "></polyline>
<polyline clip-path="url(#clip060)" style="stroke:#000000; stroke-linecap:round; stroke-linejoin:round; stroke-width:4; stroke-opacity:1; fill:none" points="2294.35,1423.18 2294.35,1404.28 "></polyline>
<path clip-path="url(#clip060)" d="M327.988 1454.1 Q324.377 1454.1 322.549 1457.66 Q320.743 1461.2 320.743 1468.33 Q320.743 1475.44 322.549 1479.01 Q324.377 1482.55 327.988 1482.55 Q331.623 1482.55 333.428 1479.01 Q335.257 1475.44 335.257 1468.33 Q335.257 1461.2 333.428 1457.66 Q331.623 1454.1 327.988 1454.1 M327.988 1450.39 Q333.799 1450.39 336.854 1455 Q339.933 1459.58 339.933 1468.33 Q339.933 1477.06 336.854 1481.67 Q333.799 1486.25 327.988 1486.25 Q322.178 1486.25 319.1 1481.67 Q316.044 1477.06 316.044 1468.33 Q316.044 1459.58 319.1 1455 Q322.178 1450.39 327.988 1450.39 Z" fill="#000000" fill-rule="nonzero" fill-opacity="1"></path><path clip-path="url(#clip060)" d="M798.851 1481.64 L815.17 1481.64 L815.17 1485.58 L793.226 1485.58 L793.226 1481.64 Q795.888 1478.89 800.471 1474.26 Q805.078 1469.61 806.258 1468.27 Q808.504 1465.74 809.383 1464.01 Q810.286 1462.25 810.286 1460.56 Q810.286 1457.8 808.342 1456.07 Q806.42 1454.33 803.319 1454.33 Q801.119 1454.33 798.666 1455.09 Q796.235 1455.86 793.457 1457.41 L793.457 1452.69 Q796.282 1451.55 798.735 1450.97 Q801.189 1450.39 803.226 1450.39 Q808.596 1450.39 811.791 1453.08 Q814.985 1455.77 814.985 1460.26 Q814.985 1462.39 814.175 1464.31 Q813.388 1466.2 811.281 1468.8 Q810.703 1469.47 807.601 1472.69 Q804.499 1475.88 798.851 1481.64 Z" fill="#000000" fill-rule="nonzero" fill-opacity="1"></path><path clip-path="url(#clip060)" d="M825.031 1451.02 L843.388 1451.02 L843.388 1454.96 L829.314 1454.96 L829.314 1463.43 Q830.332 1463.08 831.351 1462.92 Q832.369 1462.73 833.388 1462.73 Q839.175 1462.73 842.554 1465.9 Q845.934 1469.08 845.934 1474.49 Q845.934 1480.07 842.462 1483.17 Q838.99 1486.25 832.67 1486.25 Q830.494 1486.25 828.226 1485.88 Q825.98 1485.51 823.573 1484.77 L823.573 1480.07 Q825.656 1481.2 827.879 1481.76 Q830.101 1482.32 832.578 1482.32 Q836.582 1482.32 838.92 1480.21 Q841.258 1478.1 841.258 1474.49 Q841.258 1470.88 838.92 1468.77 Q836.582 1466.67 832.578 1466.67 Q830.703 1466.67 828.828 1467.08 Q826.976 1467.5 825.031 1468.38 L825.031 1451.02 Z" fill="#000000" fill-rule="nonzero" fill-opacity="1"></path><path clip-path="url(#clip060)" d="M1285.87 1451.02 L1304.23 1451.02 L1304.23 1454.96 L1290.15 1454.96 L1290.15 1463.43 Q1291.17 1463.08 1292.19 1462.92 Q1293.21 1462.73 1294.23 1462.73 Q1300.01 1462.73 1303.39 1465.9 Q1306.77 1469.08 1306.77 1474.49 Q1306.77 1480.07 1303.3 1483.17 Q1299.83 1486.25 1293.51 1486.25 Q1291.33 1486.25 1289.07 1485.88 Q1286.82 1485.51 1284.41 1484.77 L1284.41 1480.07 Q1286.5 1481.2 1288.72 1481.76 Q1290.94 1482.32 1293.42 1482.32 Q1297.42 1482.32 1299.76 1480.21 Q1302.1 1478.1 1302.1 1474.49 Q1302.1 1470.88 1299.76 1468.77 Q1297.42 1466.67 1293.42 1466.67 Q1291.54 1466.67 1289.67 1467.08 Q1287.82 1467.5 1285.87 1468.38 L1285.87 1451.02 Z" fill="#000000" fill-rule="nonzero" fill-opacity="1"></path><path clip-path="url(#clip060)" d="M1325.99 1454.1 Q1322.38 1454.1 1320.55 1457.66 Q1318.74 1461.2 1318.74 1468.33 Q1318.74 1475.44 1320.55 1479.01 Q1322.38 1482.55 1325.99 1482.55 Q1329.62 1482.55 1331.43 1479.01 Q1333.25 1475.44 1333.25 1468.33 Q1333.25 1461.2 1331.43 1457.66 Q1329.62 1454.1 1325.99 1454.1 M1325.99 1450.39 Q1331.8 1450.39 1334.85 1455 Q1337.93 1459.58 1337.93 1468.33 Q1337.93 1477.06 1334.85 1481.67 Q1331.8 1486.25 1325.99 1486.25 Q1320.18 1486.25 1317.1 1481.67 Q1314.04 1477.06 1314.04 1468.33 Q1314.04 1459.58 1317.1 1455 Q1320.18 1450.39 1325.99 1450.39 Z" fill="#000000" fill-rule="nonzero" fill-opacity="1"></path><path clip-path="url(#clip060)" d="M1776.62 1451.02 L1798.84 1451.02 L1798.84 1453.01 L1786.29 1485.58 L1781.41 1485.58 L1793.21 1454.96 L1776.62 1454.96 L1776.62 1451.02 Z" fill="#000000" fill-rule="nonzero" fill-opacity="1"></path><path clip-path="url(#clip060)" d="M1808.01 1451.02 L1826.36 1451.02 L1826.36 1454.96 L1812.29 1454.96 L1812.29 1463.43 Q1813.31 1463.08 1814.33 1462.92 Q1815.34 1462.73 1816.36 1462.73 Q1822.15 1462.73 1825.53 1465.9 Q1828.91 1469.08 1828.91 1474.49 Q1828.91 1480.07 1825.44 1483.17 Q1821.96 1486.25 1815.65 1486.25 Q1813.47 1486.25 1811.2 1485.88 Q1808.96 1485.51 1806.55 1484.77 L1806.55 1480.07 Q1808.63 1481.2 1810.85 1481.76 Q1813.08 1482.32 1815.55 1482.32 Q1819.56 1482.32 1821.9 1480.21 Q1824.23 1478.1 1824.23 1474.49 Q1824.23 1470.88 1821.9 1468.77 Q1819.56 1466.67 1815.55 1466.67 Q1813.68 1466.67 1811.8 1467.08 Q1809.95 1467.5 1808.01 1468.38 L1808.01 1451.02 Z" fill="#000000" fill-rule="nonzero" fill-opacity="1"></path><path clip-path="url(#clip060)" d="M2253.96 1481.64 L2261.6 1481.64 L2261.6 1455.28 L2253.29 1456.95 L2253.29 1452.69 L2261.55 1451.02 L2266.23 1451.02 L2266.23 1481.64 L2273.87 1481.64 L2273.87 1485.58 L2253.96 1485.58 L2253.96 1481.64 Z" fill="#000000" fill-rule="nonzero" fill-opacity="1"></path><path clip-path="url(#clip060)" d="M2293.31 1454.1 Q2289.7 1454.1 2287.87 1457.66 Q2286.07 1461.2 2286.07 1468.33 Q2286.07 1475.44 2287.87 1479.01 Q2289.7 1482.55 2293.31 1482.55 Q2296.95 1482.55 2298.75 1479.01 Q2300.58 1475.44 2300.58 1468.33 Q2300.58 1461.2 2298.75 1457.66 Q2296.95 1454.1 2293.31 1454.1 M2293.31 1450.39 Q2299.12 1450.39 2302.18 1455 Q2305.26 1459.58 2305.26 1468.33 Q2305.26 1477.06 2302.18 1481.67 Q2299.12 1486.25 2293.31 1486.25 Q2287.5 1486.25 2284.42 1481.67 Q2281.37 1477.06 2281.37 1468.33 Q2281.37 1459.58 2284.42 1455 Q2287.5 1450.39 2293.31 1450.39 Z" fill="#000000" fill-rule="nonzero" fill-opacity="1"></path><path clip-path="url(#clip060)" d="M2323.48 1454.1 Q2319.86 1454.1 2318.04 1457.66 Q2316.23 1461.2 2316.23 1468.33 Q2316.23 1475.44 2318.04 1479.01 Q2319.86 1482.55 2323.48 1482.55 Q2327.11 1482.55 2328.91 1479.01 Q2330.74 1475.44 2330.74 1468.33 Q2330.74 1461.2 2328.91 1457.66 Q2327.11 1454.1 2323.48 1454.1 M2323.48 1450.39 Q2329.29 1450.39 2332.34 1455 Q2335.42 1459.58 2335.42 1468.33 Q2335.42 1477.06 2332.34 1481.67 Q2329.29 1486.25 2323.48 1486.25 Q2317.66 1486.25 2314.59 1481.67 Q2311.53 1477.06 2311.53 1468.33 Q2311.53 1459.58 2314.59 1455 Q2317.66 1450.39 2323.48 1450.39 Z" fill="#000000" fill-rule="nonzero" fill-opacity="1"></path><path clip-path="url(#clip060)" d="M1019.67 1522.08 L1019.67 1528.35 Q1016.01 1526.6 1012.76 1525.74 Q1009.51 1524.88 1006.49 1524.88 Q1001.24 1524.88 998.374 1526.92 Q995.541 1528.96 995.541 1532.71 Q995.541 1535.87 997.419 1537.49 Q999.328 1539.08 1004.61 1540.07 L1008.5 1540.86 Q1015.69 1542.23 1019.09 1545.7 Q1022.53 1549.14 1022.53 1554.93 Q1022.53 1561.84 1017.88 1565.4 Q1013.27 1568.97 1004.33 1568.97 Q1000.95 1568.97 997.132 1568.2 Q993.345 1567.44 989.271 1565.94 L989.271 1559.32 Q993.185 1561.52 996.941 1562.63 Q1000.7 1563.75 1004.33 1563.75 Q1009.83 1563.75 1012.82 1561.58 Q1015.82 1559.42 1015.82 1555.41 Q1015.82 1551.91 1013.65 1549.93 Q1011.52 1547.96 1006.62 1546.97 L1002.7 1546.21 Q995.509 1544.78 992.294 1541.72 Q989.08 1538.67 989.08 1533.22 Q989.08 1526.92 993.504 1523.29 Q997.96 1519.66 1005.76 1519.66 Q1009.1 1519.66 1012.57 1520.27 Q1016.04 1520.87 1019.67 1522.08 Z" fill="#000000" fill-rule="nonzero" fill-opacity="1"></path><path clip-path="url(#clip060)" d="M1031.7 1553.98 L1031.7 1532.4 L1037.55 1532.4 L1037.55 1553.75 Q1037.55 1558.81 1039.53 1561.36 Q1041.5 1563.87 1045.45 1563.87 Q1050.19 1563.87 1052.93 1560.85 Q1055.7 1557.83 1055.7 1552.61 L1055.7 1532.4 L1061.55 1532.4 L1061.55 1568.04 L1055.7 1568.04 L1055.7 1562.57 Q1053.56 1565.82 1050.73 1567.41 Q1047.93 1568.97 1044.21 1568.97 Q1038.06 1568.97 1034.88 1565.15 Q1031.7 1561.33 1031.7 1553.98 M1046.43 1531.54 L1046.43 1531.54 Z" fill="#000000" fill-rule="nonzero" fill-opacity="1"></path><path clip-path="url(#clip060)" d="M1099.21 1550.25 Q1099.21 1543.79 1096.53 1540.13 Q1093.89 1536.44 1089.24 1536.44 Q1084.6 1536.44 1081.92 1540.13 Q1079.28 1543.79 1079.28 1550.25 Q1079.28 1556.71 1081.92 1560.4 Q1084.6 1564.07 1089.24 1564.07 Q1093.89 1564.07 1096.53 1560.4 Q1099.21 1556.71 1099.21 1550.25 M1079.28 1537.81 Q1081.13 1534.62 1083.93 1533.1 Q1086.76 1531.54 1090.68 1531.54 Q1097.17 1531.54 1101.21 1536.69 Q1105.29 1541.85 1105.29 1550.25 Q1105.29 1558.65 1101.21 1563.81 Q1097.17 1568.97 1090.68 1568.97 Q1086.76 1568.97 1083.93 1567.44 Q1081.13 1565.88 1079.28 1562.7 L1079.28 1568.04 L1073.39 1568.04 L1073.39 1518.52 L1079.28 1518.52 L1079.28 1537.81 Z" fill="#000000" fill-rule="nonzero" fill-opacity="1"></path><path clip-path="url(#clip060)" d="M1137.72 1533.45 L1137.72 1538.98 Q1135.24 1537.71 1132.56 1537.07 Q1129.89 1536.44 1127.02 1536.44 Q1122.66 1536.44 1120.47 1537.77 Q1118.3 1539.11 1118.3 1541.79 Q1118.3 1543.82 1119.86 1545 Q1121.42 1546.15 1126.13 1547.2 L1128.14 1547.64 Q1134.38 1548.98 1136.99 1551.43 Q1139.63 1553.85 1139.63 1558.21 Q1139.63 1563.17 1135.68 1566.07 Q1131.77 1568.97 1124.89 1568.97 Q1122.03 1568.97 1118.91 1568.39 Q1115.82 1567.85 1112.38 1566.74 L1112.38 1560.69 Q1115.63 1562.38 1118.78 1563.24 Q1121.93 1564.07 1125.02 1564.07 Q1129.16 1564.07 1131.38 1562.66 Q1133.61 1561.23 1133.61 1558.65 Q1133.61 1556.27 1131.99 1554.99 Q1130.4 1553.72 1124.96 1552.54 L1122.92 1552.07 Q1117.48 1550.92 1115.06 1548.56 Q1112.64 1546.18 1112.64 1542.04 Q1112.64 1537.01 1116.2 1534.27 Q1119.77 1531.54 1126.32 1531.54 Q1129.57 1531.54 1132.44 1532.01 Q1135.3 1532.49 1137.72 1533.45 Z" fill="#000000" fill-rule="nonzero" fill-opacity="1"></path><path clip-path="url(#clip060)" d="M1154.62 1562.7 L1154.62 1581.6 L1148.73 1581.6 L1148.73 1532.4 L1154.62 1532.4 L1154.62 1537.81 Q1156.47 1534.62 1159.27 1533.1 Q1162.1 1531.54 1166.01 1531.54 Q1172.51 1531.54 1176.55 1536.69 Q1180.62 1541.85 1180.62 1550.25 Q1180.62 1558.65 1176.55 1563.81 Q1172.51 1568.97 1166.01 1568.97 Q1162.1 1568.97 1159.27 1567.44 Q1156.47 1565.88 1154.62 1562.7 M1174.54 1550.25 Q1174.54 1543.79 1171.87 1540.13 Q1169.23 1536.44 1164.58 1536.44 Q1159.94 1536.44 1157.26 1540.13 Q1154.62 1543.79 1154.62 1550.25 Q1154.62 1556.71 1157.26 1560.4 Q1159.94 1564.07 1164.58 1564.07 Q1169.23 1564.07 1171.87 1560.4 Q1174.54 1556.71 1174.54 1550.25 Z" fill="#000000" fill-rule="nonzero" fill-opacity="1"></path><path clip-path="url(#clip060)" d="M1206.53 1550.12 Q1199.43 1550.12 1196.7 1551.75 Q1193.96 1553.37 1193.96 1557.29 Q1193.96 1560.4 1196 1562.25 Q1198.07 1564.07 1201.6 1564.07 Q1206.47 1564.07 1209.4 1560.63 Q1212.36 1557.16 1212.36 1551.43 L1212.36 1550.12 L1206.53 1550.12 M1218.21 1547.71 L1218.21 1568.04 L1212.36 1568.04 L1212.36 1562.63 Q1210.35 1565.88 1207.36 1567.44 Q1204.37 1568.97 1200.04 1568.97 Q1194.56 1568.97 1191.32 1565.91 Q1188.1 1562.82 1188.1 1557.67 Q1188.1 1551.65 1192.11 1548.6 Q1196.16 1545.54 1204.15 1545.54 L1212.36 1545.54 L1212.36 1544.97 Q1212.36 1540.93 1209.68 1538.73 Q1207.04 1536.5 1202.24 1536.5 Q1199.18 1536.5 1196.28 1537.23 Q1193.39 1537.97 1190.71 1539.43 L1190.71 1534.02 Q1193.93 1532.78 1196.95 1532.17 Q1199.98 1531.54 1202.84 1531.54 Q1210.57 1531.54 1214.39 1535.55 Q1218.21 1539.56 1218.21 1547.71 Z" fill="#000000" fill-rule="nonzero" fill-opacity="1"></path><path clip-path="url(#clip060)" d="M1255.93 1533.76 L1255.93 1539.24 Q1253.45 1537.87 1250.93 1537.2 Q1248.45 1536.5 1245.9 1536.5 Q1240.21 1536.5 1237.06 1540.13 Q1233.9 1543.73 1233.9 1550.25 Q1233.9 1556.78 1237.06 1560.4 Q1240.21 1564 1245.9 1564 Q1248.45 1564 1250.93 1563.33 Q1253.45 1562.63 1255.93 1561.26 L1255.93 1566.68 Q1253.48 1567.82 1250.84 1568.39 Q1248.23 1568.97 1245.27 1568.97 Q1237.21 1568.97 1232.47 1563.91 Q1227.73 1558.85 1227.73 1550.25 Q1227.73 1541.53 1232.5 1536.53 Q1237.31 1531.54 1245.65 1531.54 Q1248.35 1531.54 1250.93 1532.11 Q1253.51 1532.65 1255.93 1533.76 Z" fill="#000000" fill-rule="nonzero" fill-opacity="1"></path><path clip-path="url(#clip060)" d="M1296.61 1548.76 L1296.61 1551.62 L1269.68 1551.62 Q1270.06 1557.67 1273.31 1560.85 Q1276.59 1564 1282.41 1564 Q1285.79 1564 1288.94 1563.17 Q1292.12 1562.35 1295.24 1560.69 L1295.24 1566.23 Q1292.09 1567.57 1288.78 1568.27 Q1285.47 1568.97 1282.06 1568.97 Q1273.53 1568.97 1268.53 1564 Q1263.57 1559.04 1263.57 1550.57 Q1263.57 1541.82 1268.28 1536.69 Q1273.02 1531.54 1281.04 1531.54 Q1288.24 1531.54 1292.41 1536.18 Q1296.61 1540.8 1296.61 1548.76 M1290.75 1547.04 Q1290.69 1542.23 1288.05 1539.37 Q1285.44 1536.5 1281.11 1536.5 Q1276.2 1536.5 1273.24 1539.27 Q1270.32 1542.04 1269.87 1547.07 L1290.75 1547.04 Z" fill="#000000" fill-rule="nonzero" fill-opacity="1"></path><path clip-path="url(#clip060)" d="M1350.4 1537.81 L1350.4 1518.52 L1356.25 1518.52 L1356.25 1568.04 L1350.4 1568.04 L1350.4 1562.7 Q1348.55 1565.88 1345.72 1567.44 Q1342.92 1568.97 1338.97 1568.97 Q1332.51 1568.97 1328.44 1563.81 Q1324.39 1558.65 1324.39 1550.25 Q1324.39 1541.85 1328.44 1536.69 Q1332.51 1531.54 1338.97 1531.54 Q1342.92 1531.54 1345.72 1533.1 Q1348.55 1534.62 1350.4 1537.81 M1330.44 1550.25 Q1330.44 1556.71 1333.08 1560.4 Q1335.76 1564.07 1340.4 1564.07 Q1345.05 1564.07 1347.72 1560.4 Q1350.4 1556.71 1350.4 1550.25 Q1350.4 1543.79 1347.72 1540.13 Q1345.05 1536.44 1340.4 1536.44 Q1335.76 1536.44 1333.08 1540.13 Q1330.44 1543.79 1330.44 1550.25 Z" fill="#000000" fill-rule="nonzero" fill-opacity="1"></path><path clip-path="url(#clip060)" d="M1368.32 1532.4 L1374.17 1532.4 L1374.17 1568.04 L1368.32 1568.04 L1368.32 1532.4 M1368.32 1518.52 L1374.17 1518.52 L1374.17 1525.93 L1368.32 1525.93 L1368.32 1518.52 Z" fill="#000000" fill-rule="nonzero" fill-opacity="1"></path><path clip-path="url(#clip060)" d="M1414.18 1539.24 Q1416.38 1535.29 1419.43 1533.41 Q1422.49 1531.54 1426.63 1531.54 Q1432.2 1531.54 1435.22 1535.45 Q1438.24 1539.33 1438.24 1546.53 L1438.24 1568.04 L1432.36 1568.04 L1432.36 1546.72 Q1432.36 1541.59 1430.54 1539.11 Q1428.73 1536.63 1425 1536.63 Q1420.45 1536.63 1417.81 1539.65 Q1415.17 1542.68 1415.17 1547.9 L1415.17 1568.04 L1409.28 1568.04 L1409.28 1546.72 Q1409.28 1541.56 1407.47 1539.11 Q1405.65 1536.63 1401.86 1536.63 Q1397.38 1536.63 1394.73 1539.68 Q1392.09 1542.71 1392.09 1547.9 L1392.09 1568.04 L1386.2 1568.04 L1386.2 1532.4 L1392.09 1532.4 L1392.09 1537.93 Q1394.1 1534.66 1396.9 1533.1 Q1399.7 1531.54 1403.55 1531.54 Q1407.43 1531.54 1410.14 1533.51 Q1412.88 1535.48 1414.18 1539.24 Z" fill="#000000" fill-rule="nonzero" fill-opacity="1"></path><path clip-path="url(#clip060)" d="M1480.42 1548.76 L1480.42 1551.62 L1453.49 1551.62 Q1453.87 1557.67 1457.12 1560.85 Q1460.4 1564 1466.22 1564 Q1469.59 1564 1472.75 1563.17 Q1475.93 1562.35 1479.05 1560.69 L1479.05 1566.23 Q1475.9 1567.57 1472.59 1568.27 Q1469.28 1568.97 1465.87 1568.97 Q1457.34 1568.97 1452.34 1564 Q1447.38 1559.04 1447.38 1550.57 Q1447.38 1541.82 1452.09 1536.69 Q1456.83 1531.54 1464.85 1531.54 Q1472.05 1531.54 1476.22 1536.18 Q1480.42 1540.8 1480.42 1548.76 M1474.56 1547.04 Q1474.5 1542.23 1471.85 1539.37 Q1469.24 1536.5 1464.92 1536.5 Q1460.01 1536.5 1457.05 1539.27 Q1454.13 1542.04 1453.68 1547.07 L1474.56 1547.04 Z" fill="#000000" fill-rule="nonzero" fill-opacity="1"></path><path clip-path="url(#clip060)" d="M1519.66 1546.53 L1519.66 1568.04 L1513.8 1568.04 L1513.8 1546.72 Q1513.8 1541.66 1511.83 1539.14 Q1509.86 1536.63 1505.91 1536.63 Q1501.17 1536.63 1498.43 1539.65 Q1495.69 1542.68 1495.69 1547.9 L1495.69 1568.04 L1489.81 1568.04 L1489.81 1532.4 L1495.69 1532.4 L1495.69 1537.93 Q1497.8 1534.72 1500.63 1533.13 Q1503.49 1531.54 1507.22 1531.54 Q1513.36 1531.54 1516.51 1535.36 Q1519.66 1539.14 1519.66 1546.53 Z" fill="#000000" fill-rule="nonzero" fill-opacity="1"></path><path clip-path="url(#clip060)" d="M1554.07 1533.45 L1554.07 1538.98 Q1551.59 1537.71 1548.91 1537.07 Q1546.24 1536.44 1543.37 1536.44 Q1539.01 1536.44 1536.82 1537.77 Q1534.65 1539.11 1534.65 1541.79 Q1534.65 1543.82 1536.21 1545 Q1537.77 1546.15 1542.48 1547.2 L1544.49 1547.64 Q1550.73 1548.98 1553.34 1551.43 Q1555.98 1553.85 1555.98 1558.21 Q1555.98 1563.17 1552.03 1566.07 Q1548.12 1568.97 1541.24 1568.97 Q1538.38 1568.97 1535.26 1568.39 Q1532.17 1567.85 1528.73 1566.74 L1528.73 1560.69 Q1531.98 1562.38 1535.13 1563.24 Q1538.28 1564.07 1541.37 1564.07 Q1545.51 1564.07 1547.73 1562.66 Q1549.96 1561.23 1549.96 1558.65 Q1549.96 1556.27 1548.34 1554.99 Q1546.75 1553.72 1541.3 1552.54 L1539.27 1552.07 Q1533.82 1550.92 1531.41 1548.56 Q1528.99 1546.18 1528.99 1542.04 Q1528.99 1537.01 1532.55 1534.27 Q1536.12 1531.54 1542.67 1531.54 Q1545.92 1531.54 1548.78 1532.01 Q1551.65 1532.49 1554.07 1533.45 Z" fill="#000000" fill-rule="nonzero" fill-opacity="1"></path><path clip-path="url(#clip060)" d="M1565.3 1532.4 L1571.16 1532.4 L1571.16 1568.04 L1565.3 1568.04 L1565.3 1532.4 M1565.3 1518.52 L1571.16 1518.52 L1571.16 1525.93 L1565.3 1525.93 L1565.3 1518.52 Z" fill="#000000" fill-rule="nonzero" fill-opacity="1"></path><path clip-path="url(#clip060)" d="M1597.23 1536.5 Q1592.52 1536.5 1589.78 1540.19 Q1587.04 1543.85 1587.04 1550.25 Q1587.04 1556.65 1589.75 1560.34 Q1592.48 1564 1597.23 1564 Q1601.91 1564 1604.64 1560.31 Q1607.38 1556.62 1607.38 1550.25 Q1607.38 1543.92 1604.64 1540.23 Q1601.91 1536.5 1597.23 1536.5 M1597.23 1531.54 Q1604.87 1531.54 1609.23 1536.5 Q1613.59 1541.47 1613.59 1550.25 Q1613.59 1559 1609.23 1564 Q1604.87 1568.97 1597.23 1568.97 Q1589.56 1568.97 1585.2 1564 Q1580.87 1559 1580.87 1550.25 Q1580.87 1541.47 1585.2 1536.5 Q1589.56 1531.54 1597.23 1531.54 Z" fill="#000000" fill-rule="nonzero" fill-opacity="1"></path><path clip-path="url(#clip060)" d="M1652.93 1546.53 L1652.93 1568.04 L1647.07 1568.04 L1647.07 1546.72 Q1647.07 1541.66 1645.1 1539.14 Q1643.12 1536.63 1639.18 1536.63 Q1634.43 1536.63 1631.7 1539.65 Q1628.96 1542.68 1628.96 1547.9 L1628.96 1568.04 L1623.07 1568.04 L1623.07 1532.4 L1628.96 1532.4 L1628.96 1537.93 Q1631.06 1534.72 1633.89 1533.13 Q1636.76 1531.54 1640.48 1531.54 Q1646.63 1531.54 1649.78 1535.36 Q1652.93 1539.14 1652.93 1546.53 Z" fill="#000000" fill-rule="nonzero" fill-opacity="1"></path><polyline clip-path="url(#clip060)" style="stroke:#000000; stroke-linecap:round; stroke-linejoin:round; stroke-width:4; stroke-opacity:1; fill:none" points="289.251,1423.18 289.251,123.472 "></polyline>
<polyline clip-path="url(#clip060)" style="stroke:#000000; stroke-linecap:round; stroke-linejoin:round; stroke-width:4; stroke-opacity:1; fill:none" points="289.251,1290.97 308.149,1290.97 "></polyline>
<polyline clip-path="url(#clip060)" style="stroke:#000000; stroke-linecap:round; stroke-linejoin:round; stroke-width:4; stroke-opacity:1; fill:none" points="289.251,911.387 308.149,911.387 "></polyline>
<polyline clip-path="url(#clip060)" style="stroke:#000000; stroke-linecap:round; stroke-linejoin:round; stroke-width:4; stroke-opacity:1; fill:none" points="289.251,531.804 308.149,531.804 "></polyline>
<polyline clip-path="url(#clip060)" style="stroke:#000000; stroke-linecap:round; stroke-linejoin:round; stroke-width:4; stroke-opacity:1; fill:none" points="289.251,152.221 308.149,152.221 "></polyline>
<path clip-path="url(#clip060)" d="M115.214 1310.76 L122.852 1310.76 L122.852 1284.4 L114.542 1286.06 L114.542 1281.81 L122.806 1280.14 L127.482 1280.14 L127.482 1310.76 L135.121 1310.76 L135.121 1314.7 L115.214 1314.7 L115.214 1310.76 Z" fill="#000000" fill-rule="nonzero" fill-opacity="1"></path><path clip-path="url(#clip060)" d="M154.565 1283.22 Q150.954 1283.22 149.125 1286.78 Q147.32 1290.32 147.32 1297.45 Q147.32 1304.56 149.125 1308.12 Q150.954 1311.67 154.565 1311.67 Q158.199 1311.67 160.005 1308.12 Q161.834 1304.56 161.834 1297.45 Q161.834 1290.32 160.005 1286.78 Q158.199 1283.22 154.565 1283.22 M154.565 1279.51 Q160.375 1279.51 163.431 1284.12 Q166.51 1288.7 166.51 1297.45 Q166.51 1306.18 163.431 1310.79 Q160.375 1315.37 154.565 1315.37 Q148.755 1315.37 145.676 1310.79 Q142.621 1306.18 142.621 1297.45 Q142.621 1288.7 145.676 1284.12 Q148.755 1279.51 154.565 1279.51 Z" fill="#000000" fill-rule="nonzero" fill-opacity="1"></path><path clip-path="url(#clip060)" d="M166.51 1273.61 L190.621 1273.61 L190.621 1276.81 L166.51 1276.81 L166.51 1273.61 Z" fill="#000000" fill-rule="nonzero" fill-opacity="1"></path><path clip-path="url(#clip060)" d="M206.946 1261.71 Q204.012 1261.71 202.526 1264.61 Q201.059 1267.48 201.059 1273.28 Q201.059 1279.05 202.526 1281.95 Q204.012 1284.82 206.946 1284.82 Q209.899 1284.82 211.366 1281.95 Q212.852 1279.05 212.852 1273.28 Q212.852 1267.48 211.366 1264.61 Q209.899 1261.71 206.946 1261.71 M206.946 1258.7 Q211.667 1258.7 214.15 1262.44 Q216.651 1266.17 216.651 1273.28 Q216.651 1280.37 214.15 1284.11 Q211.667 1287.83 206.946 1287.83 Q202.226 1287.83 199.724 1284.11 Q197.241 1280.37 197.241 1273.28 Q197.241 1266.17 199.724 1262.44 Q202.226 1258.7 206.946 1258.7 Z" fill="#000000" fill-rule="nonzero" fill-opacity="1"></path><path clip-path="url(#clip060)" d="M223.328 1282.51 L227.296 1282.51 L227.296 1287.29 L223.328 1287.29 L223.328 1282.51 Z" fill="#000000" fill-rule="nonzero" fill-opacity="1"></path><path clip-path="url(#clip060)" d="M235.685 1286.7 L235.685 1283.24 Q237.114 1283.92 238.581 1284.28 Q240.048 1284.64 241.459 1284.64 Q245.22 1284.64 247.195 1282.12 Q249.189 1279.58 249.471 1274.42 Q248.38 1276.04 246.706 1276.91 Q245.032 1277.77 243.001 1277.77 Q238.788 1277.77 236.324 1275.23 Q233.879 1272.67 233.879 1268.25 Q233.879 1263.93 236.437 1261.31 Q238.995 1258.7 243.245 1258.7 Q248.117 1258.7 250.674 1262.44 Q253.251 1266.17 253.251 1273.28 Q253.251 1279.92 250.091 1283.88 Q246.95 1287.83 241.628 1287.83 Q240.198 1287.83 238.731 1287.55 Q237.264 1287.27 235.685 1286.7 M243.245 1274.8 Q245.803 1274.8 247.289 1273.05 Q248.794 1271.3 248.794 1268.25 Q248.794 1265.23 247.289 1263.48 Q245.803 1261.71 243.245 1261.71 Q240.687 1261.71 239.183 1263.48 Q237.697 1265.23 237.697 1268.25 Q237.697 1271.3 239.183 1273.05 Q240.687 1274.8 243.245 1274.8 Z" fill="#000000" fill-rule="nonzero" fill-opacity="1"></path><path clip-path="url(#clip060)" d="M114.931 931.18 L122.57 931.18 L122.57 904.814 L114.26 906.481 L114.26 902.222 L122.524 900.555 L127.2 900.555 L127.2 931.18 L134.839 931.18 L134.839 935.115 L114.931 935.115 L114.931 931.18 Z" fill="#000000" fill-rule="nonzero" fill-opacity="1"></path><path clip-path="url(#clip060)" d="M154.283 903.634 Q150.672 903.634 148.843 907.198 Q147.038 910.74 147.038 917.87 Q147.038 924.976 148.843 928.541 Q150.672 932.083 154.283 932.083 Q157.917 932.083 159.723 928.541 Q161.552 924.976 161.552 917.87 Q161.552 910.74 159.723 907.198 Q157.917 903.634 154.283 903.634 M154.283 899.93 Q160.093 899.93 163.149 904.536 Q166.227 909.12 166.227 917.87 Q166.227 926.596 163.149 931.203 Q160.093 935.786 154.283 935.786 Q148.473 935.786 145.394 931.203 Q142.339 926.596 142.339 917.87 Q142.339 909.12 145.394 904.536 Q148.473 899.93 154.283 899.93 Z" fill="#000000" fill-rule="nonzero" fill-opacity="1"></path><path clip-path="url(#clip060)" d="M166.227 894.031 L190.339 894.031 L190.339 897.229 L166.227 897.229 L166.227 894.031 Z" fill="#000000" fill-rule="nonzero" fill-opacity="1"></path><path clip-path="url(#clip060)" d="M206.664 882.126 Q203.73 882.126 202.244 885.022 Q200.777 887.9 200.777 893.693 Q200.777 899.467 202.244 902.363 Q203.73 905.241 206.664 905.241 Q209.617 905.241 211.084 902.363 Q212.57 899.467 212.57 893.693 Q212.57 887.9 211.084 885.022 Q209.617 882.126 206.664 882.126 M206.664 879.117 Q211.385 879.117 213.868 882.859 Q216.369 886.583 216.369 893.693 Q216.369 900.783 213.868 904.526 Q211.385 908.25 206.664 908.25 Q201.943 908.25 199.442 904.526 Q196.959 900.783 196.959 893.693 Q196.959 886.583 199.442 882.859 Q201.943 879.117 206.664 879.117 Z" fill="#000000" fill-rule="nonzero" fill-opacity="1"></path><path clip-path="url(#clip060)" d="M223.046 902.927 L227.014 902.927 L227.014 907.705 L223.046 907.705 L223.046 902.927 Z" fill="#000000" fill-rule="nonzero" fill-opacity="1"></path><path clip-path="url(#clip060)" d="M243.885 892.151 Q241.327 892.151 239.822 893.9 Q238.336 895.649 238.336 898.696 Q238.336 901.724 239.822 903.492 Q241.327 905.241 243.885 905.241 Q246.443 905.241 247.928 903.492 Q249.433 901.724 249.433 898.696 Q249.433 895.649 247.928 893.9 Q246.443 892.151 243.885 892.151 M251.427 880.245 L251.427 883.706 Q249.997 883.029 248.53 882.671 Q247.082 882.314 245.653 882.314 Q241.891 882.314 239.898 884.853 Q237.923 887.392 237.641 892.527 Q238.75 890.89 240.424 890.025 Q242.098 889.141 244.11 889.141 Q248.342 889.141 250.787 891.718 Q253.251 894.276 253.251 898.696 Q253.251 903.021 250.693 905.636 Q248.135 908.25 243.885 908.25 Q239.014 908.25 236.437 904.526 Q233.86 900.783 233.86 893.693 Q233.86 887.035 237.02 883.085 Q240.18 879.117 245.502 879.117 Q246.932 879.117 248.38 879.399 Q249.847 879.681 251.427 880.245 Z" fill="#000000" fill-rule="nonzero" fill-opacity="1"></path><path clip-path="url(#clip060)" d="M115.59 551.596 L123.229 551.596 L123.229 525.231 L114.918 526.897 L114.918 522.638 L123.182 520.972 L127.858 520.972 L127.858 551.596 L135.497 551.596 L135.497 555.532 L115.59 555.532 L115.59 551.596 Z" fill="#000000" fill-rule="nonzero" fill-opacity="1"></path><path clip-path="url(#clip060)" d="M154.941 524.05 Q151.33 524.05 149.502 527.615 Q147.696 531.157 147.696 538.286 Q147.696 545.393 149.502 548.957 Q151.33 552.499 154.941 552.499 Q158.576 552.499 160.381 548.957 Q162.21 545.393 162.21 538.286 Q162.21 531.157 160.381 527.615 Q158.576 524.05 154.941 524.05 M154.941 520.347 Q160.752 520.347 163.807 524.953 Q166.886 529.536 166.886 538.286 Q166.886 547.013 163.807 551.62 Q160.752 556.203 154.941 556.203 Q149.131 556.203 146.053 551.62 Q142.997 547.013 142.997 538.286 Q142.997 529.536 146.053 524.953 Q149.131 520.347 154.941 520.347 Z" fill="#000000" fill-rule="nonzero" fill-opacity="1"></path><path clip-path="url(#clip060)" d="M166.886 514.448 L190.997 514.448 L190.997 517.645 L166.886 517.645 L166.886 514.448 Z" fill="#000000" fill-rule="nonzero" fill-opacity="1"></path><path clip-path="url(#clip060)" d="M207.322 502.543 Q204.388 502.543 202.903 505.439 Q201.436 508.317 201.436 514.109 Q201.436 519.883 202.903 522.78 Q204.388 525.657 207.322 525.657 Q210.275 525.657 211.742 522.78 Q213.228 519.883 213.228 514.109 Q213.228 508.317 211.742 505.439 Q210.275 502.543 207.322 502.543 M207.322 499.533 Q212.043 499.533 214.526 503.276 Q217.027 507 217.027 514.109 Q217.027 521.2 214.526 524.943 Q212.043 528.667 207.322 528.667 Q202.602 528.667 200.1 524.943 Q197.618 521.2 197.618 514.109 Q197.618 507 200.1 503.276 Q202.602 499.533 207.322 499.533 Z" fill="#000000" fill-rule="nonzero" fill-opacity="1"></path><path clip-path="url(#clip060)" d="M223.704 523.344 L227.672 523.344 L227.672 528.121 L223.704 528.121 L223.704 523.344 Z" fill="#000000" fill-rule="nonzero" fill-opacity="1"></path><path clip-path="url(#clip060)" d="M247.458 512.981 Q250.185 513.564 251.709 515.407 Q253.251 517.25 253.251 519.959 Q253.251 524.115 250.392 526.391 Q247.533 528.667 242.267 528.667 Q240.499 528.667 238.619 528.309 Q236.757 527.971 234.763 527.275 L234.763 523.607 Q236.343 524.529 238.224 524.999 Q240.104 525.469 242.154 525.469 Q245.728 525.469 247.59 524.059 Q249.471 522.648 249.471 519.959 Q249.471 517.476 247.722 516.084 Q245.991 514.674 242.888 514.674 L239.615 514.674 L239.615 511.551 L243.038 511.551 Q245.841 511.551 247.327 510.442 Q248.812 509.313 248.812 507.207 Q248.812 505.044 247.27 503.897 Q245.747 502.731 242.888 502.731 Q241.327 502.731 239.54 503.069 Q237.753 503.408 235.609 504.122 L235.609 500.737 Q237.772 500.135 239.653 499.834 Q241.553 499.533 243.226 499.533 Q247.552 499.533 250.073 501.508 Q252.593 503.464 252.593 506.812 Q252.593 509.144 251.257 510.762 Q249.922 512.36 247.458 512.981 Z" fill="#000000" fill-rule="nonzero" fill-opacity="1"></path><path clip-path="url(#clip060)" d="M145.795 172.013 L153.434 172.013 L153.434 145.647 L145.124 147.314 L145.124 143.055 L153.388 141.388 L158.063 141.388 L158.063 172.013 L165.702 172.013 L165.702 175.948 L145.795 175.948 L145.795 172.013 Z" fill="#000000" fill-rule="nonzero" fill-opacity="1"></path><path clip-path="url(#clip060)" d="M185.147 144.467 Q181.536 144.467 179.707 148.032 Q177.901 151.573 177.901 158.703 Q177.901 165.809 179.707 169.374 Q181.536 172.916 185.147 172.916 Q188.781 172.916 190.586 169.374 Q192.415 165.809 192.415 158.703 Q192.415 151.573 190.586 148.032 Q188.781 144.467 185.147 144.467 M185.147 140.763 Q190.957 140.763 194.012 145.37 Q197.091 149.953 197.091 158.703 Q197.091 167.43 194.012 172.036 Q190.957 176.619 185.147 176.619 Q179.336 176.619 176.258 172.036 Q173.202 167.43 173.202 158.703 Q173.202 149.953 176.258 145.37 Q179.336 140.763 185.147 140.763 Z" fill="#000000" fill-rule="nonzero" fill-opacity="1"></path><path clip-path="url(#clip060)" d="M206.796 122.959 Q203.862 122.959 202.376 125.856 Q200.909 128.733 200.909 134.526 Q200.909 140.3 202.376 143.196 Q203.862 146.074 206.796 146.074 Q209.749 146.074 211.216 143.196 Q212.701 140.3 212.701 134.526 Q212.701 128.733 211.216 125.856 Q209.749 122.959 206.796 122.959 M206.796 119.95 Q211.517 119.95 213.999 123.693 Q216.501 127.417 216.501 134.526 Q216.501 141.616 213.999 145.359 Q211.517 149.083 206.796 149.083 Q202.075 149.083 199.574 145.359 Q197.091 141.616 197.091 134.526 Q197.091 127.417 199.574 123.693 Q202.075 119.95 206.796 119.95 Z" fill="#000000" fill-rule="nonzero" fill-opacity="1"></path><path clip-path="url(#clip060)" d="M223.177 143.761 L227.146 143.761 L227.146 148.538 L223.177 148.538 L223.177 143.761 Z" fill="#000000" fill-rule="nonzero" fill-opacity="1"></path><path clip-path="url(#clip060)" d="M243.546 122.959 Q240.612 122.959 239.126 125.856 Q237.659 128.733 237.659 134.526 Q237.659 140.3 239.126 143.196 Q240.612 146.074 243.546 146.074 Q246.499 146.074 247.966 143.196 Q249.452 140.3 249.452 134.526 Q249.452 128.733 247.966 125.856 Q246.499 122.959 243.546 122.959 M243.546 119.95 Q248.267 119.95 250.75 123.693 Q253.251 127.417 253.251 134.526 Q253.251 141.616 250.75 145.359 Q248.267 149.083 243.546 149.083 Q238.825 149.083 236.324 145.359 Q233.841 141.616 233.841 134.526 Q233.841 127.417 236.324 123.693 Q238.825 119.95 243.546 119.95 Z" fill="#000000" fill-rule="nonzero" fill-opacity="1"></path><path clip-path="url(#clip060)" d="M16.4842 1057.6 L16.4842 1048.02 L48.8219 1035.9 L16.4842 1023.71 L16.4842 1014.12 L64.0042 1014.12 L64.0042 1020.39 L22.277 1020.39 L54.8694 1032.65 L54.8694 1039.11 L22.277 1051.36 L64.0042 1051.36 L64.0042 1057.6 L16.4842 1057.6 Z" fill="#000000" fill-rule="nonzero" fill-opacity="1"></path><path clip-path="url(#clip060)" d="M44.7161 971.124 L47.5806 971.124 L47.5806 998.051 Q53.6281 997.669 56.8109 994.423 Q59.9619 991.145 59.9619 985.32 Q59.9619 981.946 59.1344 978.795 Q58.3069 975.612 56.6518 972.493 L62.1899 972.493 Q63.5267 975.644 64.227 978.954 Q64.9272 982.264 64.9272 985.67 Q64.9272 994.2 59.9619 999.197 Q54.9967 1004.16 46.5303 1004.16 Q37.7774 1004.16 32.6531 999.452 Q27.4968 994.709 27.4968 986.689 Q27.4968 979.495 32.1438 975.326 Q36.7589 971.124 44.7161 971.124 M42.9973 976.981 Q38.1912 977.045 35.3266 979.686 Q32.4621 982.296 32.4621 986.625 Q32.4621 991.526 35.2312 994.487 Q38.0002 997.415 43.0292 997.86 L42.9973 976.981 Z" fill="#000000" fill-rule="nonzero" fill-opacity="1"></path><path clip-path="url(#clip060)" d="M33.7671 938.055 L14.479 938.055 L14.479 932.198 L64.0042 932.198 L64.0042 938.055 L58.657 938.055 Q61.8398 939.901 63.3994 942.733 Q64.9272 945.534 64.9272 949.481 Q64.9272 955.942 59.771 960.016 Q54.6147 964.058 46.212 964.058 Q37.8093 964.058 32.6531 960.016 Q27.4968 955.942 27.4968 949.481 Q27.4968 945.534 29.0564 942.733 Q30.5842 939.901 33.7671 938.055 M46.212 958.011 Q52.6732 958.011 56.3653 955.369 Q60.0256 952.696 60.0256 948.049 Q60.0256 943.402 56.3653 940.728 Q52.6732 938.055 46.212 938.055 Q39.7508 938.055 36.0905 940.728 Q32.3984 943.402 32.3984 948.049 Q32.3984 952.696 36.0905 955.369 Q39.7508 958.011 46.212 958.011 Z" fill="#000000" fill-rule="nonzero" fill-opacity="1"></path><path clip-path="url(#clip060)" d="M28.3562 920.135 L28.3562 914.279 L64.0042 914.279 L64.0042 920.135 L28.3562 920.135 M14.479 920.135 L14.479 914.279 L21.895 914.279 L21.895 920.135 L14.479 920.135 Z" fill="#000000" fill-rule="nonzero" fill-opacity="1"></path><path clip-path="url(#clip060)" d="M46.0847 885.824 Q46.0847 892.922 47.7079 895.659 Q49.3312 898.396 53.2461 898.396 Q56.3653 898.396 58.2114 896.359 Q60.0256 894.29 60.0256 890.757 Q60.0256 885.888 56.5881 882.959 Q53.1188 879.999 47.3897 879.999 L46.0847 879.999 L46.0847 885.824 M43.6657 874.143 L64.0042 874.143 L64.0042 879.999 L58.5933 879.999 Q61.8398 882.005 63.3994 884.996 Q64.9272 887.988 64.9272 892.317 Q64.9272 897.791 61.8716 901.038 Q58.7843 904.253 53.6281 904.253 Q47.6125 904.253 44.5569 900.242 Q41.5014 896.2 41.5014 888.211 L41.5014 879.999 L40.9285 879.999 Q36.8862 879.999 34.6901 882.673 Q32.4621 885.315 32.4621 890.121 Q32.4621 893.176 33.1941 896.073 Q33.9262 898.969 35.3903 901.643 L29.9795 901.643 Q28.7381 898.428 28.1334 895.404 Q27.4968 892.381 27.4968 889.516 Q27.4968 881.782 31.5072 877.962 Q35.5176 874.143 43.6657 874.143 Z" fill="#000000" fill-rule="nonzero" fill-opacity="1"></path><path clip-path="url(#clip060)" d="M42.4881 832.447 L64.0042 832.447 L64.0042 838.304 L42.679 838.304 Q37.6183 838.304 35.1038 840.277 Q32.5894 842.251 32.5894 846.197 Q32.5894 850.94 35.6131 853.677 Q38.6368 856.414 43.8567 856.414 L64.0042 856.414 L64.0042 862.303 L28.3562 862.303 L28.3562 856.414 L33.8944 856.414 Q30.6797 854.314 29.0883 851.481 Q27.4968 848.616 27.4968 844.892 Q27.4968 838.75 31.3163 835.599 Q35.1038 832.447 42.4881 832.447 Z" fill="#000000" fill-rule="nonzero" fill-opacity="1"></path><path clip-path="url(#clip060)" d="M16.4842 799.791 L16.4842 793.362 L64.0042 793.362 L64.0042 799.791 L16.4842 799.791 Z" fill="#000000" fill-rule="nonzero" fill-opacity="1"></path><path clip-path="url(#clip060)" d="M42.4881 751.189 L64.0042 751.189 L64.0042 757.046 L42.679 757.046 Q37.6183 757.046 35.1038 759.019 Q32.5894 760.992 32.5894 764.939 Q32.5894 769.682 35.6131 772.419 Q38.6368 775.156 43.8567 775.156 L64.0042 775.156 L64.0042 781.044 L28.3562 781.044 L28.3562 775.156 L33.8944 775.156 Q30.6797 773.055 29.0883 770.223 Q27.4968 767.358 27.4968 763.634 Q27.4968 757.491 31.3163 754.34 Q35.1038 751.189 42.4881 751.189 Z" fill="#000000" fill-rule="nonzero" fill-opacity="1"></path><path clip-path="url(#clip060)" d="M28.3562 739.508 L28.3562 733.652 L64.6407 733.652 Q71.452 733.652 74.5076 736.262 Q77.5631 738.84 77.5631 744.601 L77.5631 746.829 L72.5979 746.829 L72.5979 745.269 Q72.5979 741.927 71.0383 740.718 Q69.5105 739.508 64.6407 739.508 L28.3562 739.508 M14.479 739.508 L14.479 733.652 L21.895 733.652 L21.895 739.508 L14.479 739.508 Z" fill="#000000" fill-rule="nonzero" fill-opacity="1"></path><path clip-path="url(#clip060)" d="M44.7161 690.906 L47.5806 690.906 L47.5806 717.833 Q53.6281 717.451 56.8109 714.204 Q59.9619 710.926 59.9619 705.102 Q59.9619 701.728 59.1344 698.577 Q58.3069 695.394 56.6518 692.275 L62.1899 692.275 Q63.5267 695.426 64.227 698.736 Q64.9272 702.046 64.9272 705.452 Q64.9272 713.982 59.9619 718.979 Q54.9967 723.944 46.5303 723.944 Q37.7774 723.944 32.6531 719.233 Q27.4968 714.491 27.4968 706.47 Q27.4968 699.277 32.1438 695.107 Q36.7589 690.906 44.7161 690.906 M42.9973 696.762 Q38.1912 696.826 35.3266 699.468 Q32.4621 702.078 32.4621 706.406 Q32.4621 711.308 35.2312 714.268 Q38.0002 717.196 43.0292 717.642 L42.9973 696.762 Z" fill="#000000" fill-rule="nonzero" fill-opacity="1"></path><path clip-path="url(#clip060)" d="M29.7248 655.64 L35.1993 655.64 Q33.8307 658.123 33.1623 660.637 Q32.4621 663.12 32.4621 665.666 Q32.4621 671.363 36.0905 674.514 Q39.6872 677.665 46.212 677.665 Q52.7369 677.665 56.3653 674.514 Q59.9619 671.363 59.9619 665.666 Q59.9619 663.12 59.2935 660.637 Q58.5933 658.123 57.2247 655.64 L62.6355 655.64 Q63.7814 658.091 64.3543 660.733 Q64.9272 663.342 64.9272 666.303 Q64.9272 674.355 59.8664 679.098 Q54.8057 683.84 46.212 683.84 Q37.491 683.84 32.4939 679.066 Q27.4968 674.26 27.4968 665.921 Q27.4968 663.215 28.0697 660.637 Q28.6108 658.059 29.7248 655.64 Z" fill="#000000" fill-rule="nonzero" fill-opacity="1"></path><path clip-path="url(#clip060)" d="M18.2347 639.662 L28.3562 639.662 L28.3562 627.599 L32.9077 627.599 L32.9077 639.662 L52.2594 639.662 Q56.6199 639.662 57.8613 638.484 Q59.1026 637.275 59.1026 633.615 L59.1026 627.599 L64.0042 627.599 L64.0042 633.615 Q64.0042 640.394 61.4897 642.972 Q58.9434 645.55 52.2594 645.55 L32.9077 645.55 L32.9077 649.847 L28.3562 649.847 L28.3562 645.55 L18.2347 645.55 L18.2347 639.662 Z" fill="#000000" fill-rule="nonzero" fill-opacity="1"></path><path clip-path="url(#clip060)" d="M28.3562 619.897 L28.3562 614.04 L64.0042 614.04 L64.0042 619.897 L28.3562 619.897 M14.479 619.897 L14.479 614.04 L21.895 614.04 L21.895 619.897 L14.479 619.897 Z" fill="#000000" fill-rule="nonzero" fill-opacity="1"></path><path clip-path="url(#clip060)" d="M28.3562 605.987 L28.3562 599.781 L58.275 588.641 L28.3562 577.501 L28.3562 571.294 L64.0042 584.662 L64.0042 592.619 L28.3562 605.987 Z" fill="#000000" fill-rule="nonzero" fill-opacity="1"></path><path clip-path="url(#clip060)" d="M28.3562 563.21 L28.3562 557.353 L64.0042 557.353 L64.0042 563.21 L28.3562 563.21 M14.479 563.21 L14.479 557.353 L21.895 557.353 L21.895 563.21 L14.479 563.21 Z" fill="#000000" fill-rule="nonzero" fill-opacity="1"></path><path clip-path="url(#clip060)" d="M18.2347 539.307 L28.3562 539.307 L28.3562 527.244 L32.9077 527.244 L32.9077 539.307 L52.2594 539.307 Q56.6199 539.307 57.8613 538.129 Q59.1026 536.92 59.1026 533.259 L59.1026 527.244 L64.0042 527.244 L64.0042 533.259 Q64.0042 540.039 61.4897 542.617 Q58.9434 545.195 52.2594 545.195 L32.9077 545.195 L32.9077 549.492 L28.3562 549.492 L28.3562 545.195 L18.2347 545.195 L18.2347 539.307 Z" fill="#000000" fill-rule="nonzero" fill-opacity="1"></path><path clip-path="url(#clip060)" d="M67.3143 504.709 Q73.68 507.192 75.6216 509.547 Q77.5631 511.902 77.5631 515.849 L77.5631 520.528 L72.6615 520.528 L72.6615 517.09 Q72.6615 514.671 71.5157 513.335 Q70.3699 511.998 66.1048 510.375 L63.4312 509.324 L28.3562 523.743 L28.3562 517.536 L56.238 506.396 L28.3562 495.256 L28.3562 489.049 L67.3143 504.709 Z" fill="#000000" fill-rule="nonzero" fill-opacity="1"></path><path clip-path="url(#clip060)" d="M760.763 12.096 L768.946 12.096 L768.946 72.576 L760.763 72.576 L760.763 12.096 Z" fill="#000000" fill-rule="nonzero" fill-opacity="1"></path><path clip-path="url(#clip060)" d="M822.621 45.1919 L822.621 72.576 L815.167 72.576 L815.167 45.4349 Q815.167 38.994 812.655 35.7938 Q810.144 32.5936 805.121 32.5936 Q799.085 32.5936 795.601 36.4419 Q792.117 40.2903 792.117 46.9338 L792.117 72.576 L784.623 72.576 L784.623 27.2059 L792.117 27.2059 L792.117 34.2544 Q794.791 30.163 798.396 28.1376 Q802.042 26.1121 806.782 26.1121 Q814.6 26.1121 818.61 30.9732 Q822.621 35.7938 822.621 45.1919 Z" fill="#000000" fill-rule="nonzero" fill-opacity="1"></path><path clip-path="url(#clip060)" d="M837.488 27.2059 L844.941 27.2059 L844.941 73.3862 Q844.941 82.0551 841.619 85.944 Q838.338 89.8329 831.006 89.8329 L828.17 89.8329 L828.17 83.5134 L830.155 83.5134 Q834.409 83.5134 835.948 81.5285 Q837.488 79.5841 837.488 73.3862 L837.488 27.2059 M837.488 9.54393 L844.941 9.54393 L844.941 18.9825 L837.488 18.9825 L837.488 9.54393 Z" fill="#000000" fill-rule="nonzero" fill-opacity="1"></path><path clip-path="url(#clip060)" d="M899.345 48.0275 L899.345 51.6733 L865.074 51.6733 Q865.56 59.3701 869.692 63.421 Q873.865 67.4314 881.278 67.4314 Q885.572 67.4314 889.582 66.3781 Q893.633 65.3249 897.603 63.2184 L897.603 70.267 Q893.593 71.9684 889.38 72.8596 Q885.167 73.7508 880.832 73.7508 Q869.976 73.7508 863.616 67.4314 Q857.296 61.1119 857.296 50.3365 Q857.296 39.1965 863.292 32.6746 Q869.328 26.1121 879.536 26.1121 Q888.691 26.1121 893.998 32.0264 Q899.345 37.9003 899.345 48.0275 M891.891 45.84 Q891.81 39.7232 888.448 36.0774 Q885.126 32.4315 879.617 32.4315 Q873.379 32.4315 869.611 35.9558 Q865.884 39.4801 865.317 45.8805 L891.891 45.84 Z" fill="#000000" fill-rule="nonzero" fill-opacity="1"></path><path clip-path="url(#clip060)" d="M944.229 28.9478 L944.229 35.9153 Q941.069 34.1734 937.869 33.3227 Q934.709 32.4315 931.469 32.4315 Q924.217 32.4315 920.207 37.0496 Q916.197 41.6271 916.197 49.9314 Q916.197 58.2358 920.207 62.8538 Q924.217 67.4314 931.469 67.4314 Q934.709 67.4314 937.869 66.5807 Q941.069 65.6895 944.229 63.9476 L944.229 70.8341 Q941.11 72.2924 937.747 73.0216 Q934.426 73.7508 930.658 73.7508 Q920.41 73.7508 914.374 67.3098 Q908.338 60.8689 908.338 49.9314 Q908.338 38.832 914.414 32.472 Q920.531 26.1121 931.144 26.1121 Q934.588 26.1121 937.869 26.8413 Q941.15 27.5299 944.229 28.9478 Z" fill="#000000" fill-rule="nonzero" fill-opacity="1"></path><path clip-path="url(#clip060)" d="M964.564 14.324 L964.564 27.2059 L979.917 27.2059 L979.917 32.9987 L964.564 32.9987 L964.564 57.6282 Q964.564 63.1779 966.063 64.7578 Q967.603 66.3376 972.261 66.3376 L979.917 66.3376 L979.917 72.576 L972.261 72.576 Q963.633 72.576 960.351 69.3758 Q957.07 66.1351 957.07 57.6282 L957.07 32.9987 L951.602 32.9987 L951.602 27.2059 L957.07 27.2059 L957.07 14.324 L964.564 14.324 Z" fill="#000000" fill-rule="nonzero" fill-opacity="1"></path><path clip-path="url(#clip060)" d="M989.721 27.2059 L997.174 27.2059 L997.174 72.576 L989.721 72.576 L989.721 27.2059 M989.721 9.54393 L997.174 9.54393 L997.174 18.9825 L989.721 18.9825 L989.721 9.54393 Z" fill="#000000" fill-rule="nonzero" fill-opacity="1"></path><path clip-path="url(#clip060)" d="M1007.42 27.2059 L1015.32 27.2059 L1029.5 65.2844 L1043.68 27.2059 L1051.58 27.2059 L1034.56 72.576 L1024.44 72.576 L1007.42 27.2059 Z" fill="#000000" fill-rule="nonzero" fill-opacity="1"></path><path clip-path="url(#clip060)" d="M1061.87 27.2059 L1069.32 27.2059 L1069.32 72.576 L1061.87 72.576 L1061.87 27.2059 M1061.87 9.54393 L1069.32 9.54393 L1069.32 18.9825 L1061.87 18.9825 L1061.87 9.54393 Z" fill="#000000" fill-rule="nonzero" fill-opacity="1"></path><path clip-path="url(#clip060)" d="M1092.29 14.324 L1092.29 27.2059 L1107.64 27.2059 L1107.64 32.9987 L1092.29 32.9987 L1092.29 57.6282 Q1092.29 63.1779 1093.79 64.7578 Q1095.33 66.3376 1099.99 66.3376 L1107.64 66.3376 L1107.64 72.576 L1099.99 72.576 Q1091.36 72.576 1088.08 69.3758 Q1084.8 66.1351 1084.8 57.6282 L1084.8 32.9987 L1079.33 32.9987 L1079.33 27.2059 L1084.8 27.2059 L1084.8 14.324 L1092.29 14.324 Z" fill="#000000" fill-rule="nonzero" fill-opacity="1"></path><path clip-path="url(#clip060)" d="M1117.45 27.2059 L1124.9 27.2059 L1124.9 72.576 L1117.45 72.576 L1117.45 27.2059 M1117.45 9.54393 L1124.9 9.54393 L1124.9 18.9825 L1117.45 18.9825 L1117.45 9.54393 Z" fill="#000000" fill-rule="nonzero" fill-opacity="1"></path><path clip-path="url(#clip060)" d="M1179.3 48.0275 L1179.3 51.6733 L1145.03 51.6733 Q1145.52 59.3701 1149.65 63.421 Q1153.82 67.4314 1161.24 67.4314 Q1165.53 67.4314 1169.54 66.3781 Q1173.59 65.3249 1177.56 63.2184 L1177.56 70.267 Q1173.55 71.9684 1169.34 72.8596 Q1165.12 73.7508 1160.79 73.7508 Q1149.93 73.7508 1143.57 67.4314 Q1137.25 61.1119 1137.25 50.3365 Q1137.25 39.1965 1143.25 32.6746 Q1149.29 26.1121 1159.49 26.1121 Q1168.65 26.1121 1173.96 32.0264 Q1179.3 37.9003 1179.3 48.0275 M1171.85 45.84 Q1171.77 39.7232 1168.41 36.0774 Q1165.08 32.4315 1159.57 32.4315 Q1153.34 32.4315 1149.57 35.9558 Q1145.84 39.4801 1145.28 45.8805 L1171.85 45.84 Z" fill="#000000" fill-rule="nonzero" fill-opacity="1"></path><path clip-path="url(#clip060)" d="M1220.46 28.5427 L1220.46 35.5912 Q1217.3 33.9709 1213.9 33.1607 Q1210.49 32.3505 1206.85 32.3505 Q1201.3 32.3505 1198.5 34.0519 Q1195.75 35.7533 1195.75 39.156 Q1195.75 41.7486 1197.73 43.2475 Q1199.72 44.7058 1205.71 46.0426 L1208.27 46.6097 Q1216.21 48.3111 1219.53 51.4303 Q1222.89 54.509 1222.89 60.0587 Q1222.89 66.3781 1217.87 70.0644 Q1212.88 73.7508 1204.13 73.7508 Q1200.49 73.7508 1196.52 73.0216 Q1192.59 72.3329 1188.21 70.9151 L1188.21 63.2184 Q1192.35 65.3654 1196.36 66.4591 Q1200.37 67.5124 1204.3 67.5124 Q1209.56 67.5124 1212.4 65.73 Q1215.23 63.9071 1215.23 60.6258 Q1215.23 57.5877 1213.17 55.9673 Q1211.14 54.3469 1204.22 52.8481 L1201.62 52.2405 Q1194.7 50.7821 1191.62 47.7845 Q1188.54 44.7463 1188.54 39.4801 Q1188.54 33.0797 1193.08 29.5959 Q1197.61 26.1121 1205.96 26.1121 Q1210.09 26.1121 1213.74 26.7198 Q1217.38 27.3274 1220.46 28.5427 Z" fill="#000000" fill-rule="nonzero" fill-opacity="1"></path><path clip-path="url(#clip060)" d="M1279.04 9.62495 Q1273.61 18.942 1270.97 28.0566 Q1268.34 37.1711 1268.34 46.5287 Q1268.34 55.8863 1270.97 65.0818 Q1273.65 74.2369 1279.04 83.5134 L1272.55 83.5134 Q1266.48 73.9938 1263.44 64.7983 Q1260.44 55.6027 1260.44 46.5287 Q1260.44 37.4952 1263.44 28.3401 Q1266.44 19.1851 1272.55 9.62495 L1279.04 9.62495 Z" fill="#000000" fill-rule="nonzero" fill-opacity="1"></path><path clip-path="url(#clip060)" d="M1323.35 34.0924 L1323.35 9.54393 L1330.81 9.54393 L1330.81 72.576 L1323.35 72.576 L1323.35 65.7705 Q1321 69.8214 1317.4 71.8063 Q1313.83 73.7508 1308.81 73.7508 Q1300.59 73.7508 1295.4 67.1883 Q1290.26 60.6258 1290.26 49.9314 Q1290.26 39.2371 1295.4 32.6746 Q1300.59 26.1121 1308.81 26.1121 Q1313.83 26.1121 1317.4 28.0971 Q1321 30.0415 1323.35 34.0924 M1297.95 49.9314 Q1297.95 58.1548 1301.32 62.8538 Q1304.72 67.5124 1310.63 67.5124 Q1316.55 67.5124 1319.95 62.8538 Q1323.35 58.1548 1323.35 49.9314 Q1323.35 41.7081 1319.95 37.0496 Q1316.55 32.3505 1310.63 32.3505 Q1304.72 32.3505 1301.32 37.0496 Q1297.95 41.7081 1297.95 49.9314 Z" fill="#000000" fill-rule="nonzero" fill-opacity="1"></path><path clip-path="url(#clip060)" d="M1373.5 34.9026 L1425.44 34.9026 L1425.44 41.7081 L1373.5 41.7081 L1373.5 34.9026 M1373.5 51.4303 L1425.44 51.4303 L1425.44 58.3168 L1373.5 58.3168 L1373.5 51.4303 Z" fill="#000000" fill-rule="nonzero" fill-opacity="1"></path><path clip-path="url(#clip060)" d="M1476.52 65.6895 L1505.08 65.6895 L1505.08 72.576 L1466.67 72.576 L1466.67 65.6895 Q1471.33 60.8689 1479.35 52.7671 Q1487.41 44.6248 1489.48 42.2752 Q1493.41 37.8598 1494.95 34.8216 Q1496.53 31.7429 1496.53 28.7857 Q1496.53 23.9651 1493.13 20.927 Q1489.76 17.8888 1484.34 17.8888 Q1480.49 17.8888 1476.19 19.2256 Q1471.94 20.5624 1467.08 23.2765 L1467.08 15.0127 Q1472.02 13.0277 1476.32 12.015 Q1480.61 11.0023 1484.17 11.0023 Q1493.57 11.0023 1499.16 15.7013 Q1504.75 20.4004 1504.75 28.2591 Q1504.75 31.9859 1503.33 35.3482 Q1501.96 38.6699 1498.27 43.2069 Q1497.26 44.3817 1491.83 50.0125 Q1486.4 55.6027 1476.52 65.6895 Z" fill="#000000" fill-rule="nonzero" fill-opacity="1"></path><path clip-path="url(#clip060)" d="M1523.1 62.2867 L1531.65 62.2867 L1531.65 69.2543 L1525.01 82.2172 L1519.78 82.2172 L1523.1 69.2543 L1523.1 62.2867 Z" fill="#000000" fill-rule="nonzero" fill-opacity="1"></path><path clip-path="url(#clip060)" d="M1574.27 12.096 L1585.28 12.096 L1612.1 62.6918 L1612.1 12.096 L1620.04 12.096 L1620.04 72.576 L1609.02 72.576 L1582.21 21.9802 L1582.21 72.576 L1574.27 72.576 L1574.27 12.096 Z" fill="#000000" fill-rule="nonzero" fill-opacity="1"></path><path clip-path="url(#clip060)" d="M1663.35 34.9026 L1715.28 34.9026 L1715.28 41.7081 L1663.35 41.7081 L1663.35 34.9026 M1663.35 51.4303 L1715.28 51.4303 L1715.28 58.3168 L1663.35 58.3168 L1663.35 51.4303 Z" fill="#000000" fill-rule="nonzero" fill-opacity="1"></path><path clip-path="url(#clip060)" d="M1760.73 65.6895 L1774.1 65.6895 L1774.1 19.5497 L1759.55 22.4663 L1759.55 15.0127 L1774.02 12.096 L1782.2 12.096 L1782.2 65.6895 L1795.57 65.6895 L1795.57 72.576 L1760.73 72.576 L1760.73 65.6895 Z" fill="#000000" fill-rule="nonzero" fill-opacity="1"></path><path clip-path="url(#clip060)" d="M1829.59 17.4837 Q1823.28 17.4837 1820.07 23.7221 Q1816.92 29.92 1816.92 42.3968 Q1816.92 54.833 1820.07 61.0714 Q1823.28 67.2693 1829.59 67.2693 Q1835.95 67.2693 1839.11 61.0714 Q1842.31 54.833 1842.31 42.3968 Q1842.31 29.92 1839.11 23.7221 Q1835.95 17.4837 1829.59 17.4837 M1829.59 11.0023 Q1839.76 11.0023 1845.11 19.0636 Q1850.5 27.0843 1850.5 42.3968 Q1850.5 57.6687 1845.11 65.73 Q1839.76 73.7508 1829.59 73.7508 Q1819.43 73.7508 1814.04 65.73 Q1808.69 57.6687 1808.69 42.3968 Q1808.69 27.0843 1814.04 19.0636 Q1819.43 11.0023 1829.59 11.0023 Z" fill="#000000" fill-rule="nonzero" fill-opacity="1"></path><path clip-path="url(#clip060)" d="M1862.65 9.62495 L1869.13 9.62495 Q1875.21 19.1851 1878.21 28.3401 Q1881.24 37.4952 1881.24 46.5287 Q1881.24 55.6027 1878.21 64.7983 Q1875.21 73.9938 1869.13 83.5134 L1862.65 83.5134 Q1868.04 74.2369 1870.67 65.0818 Q1873.34 55.8863 1873.34 46.5287 Q1873.34 37.1711 1870.67 28.0566 Q1868.04 18.942 1862.65 9.62495 Z" fill="#000000" fill-rule="nonzero" fill-opacity="1"></path><polyline clip-path="url(#clip062)" style="stroke:#009af9; stroke-linecap:round; stroke-linejoin:round; stroke-width:4; stroke-opacity:1; fill:none" points="347.652,412.228 367.316,687.777 386.979,707.494 406.643,900.827 426.307,1015.22 445.97,1047.74 465.634,1047.24 485.298,1068.72 504.961,1135.66 524.625,1150.64 544.289,1144.34 563.952,1156.44 583.616,1199.53 603.28,1175.46 622.943,1239.73 642.607,1214.78 662.271,1242.66 681.934,1241.84 701.598,1262.79 721.262,1276.42 740.925,1262.25 760.589,1281.02 780.253,1269.56 799.916,1291.31 819.58,1269 839.244,1319.69 858.907,1296.27 878.571,1295.15 898.235,1289.44 917.898,1284.92 937.562,1303.38 957.226,1292.64 976.889,1296.54 996.553,1287.93 1016.22,1327.25 1035.88,1310.69 1055.54,1323.31 1075.21,1340.83 1094.87,1310.67 1114.53,1311.05 1134.2,1319.07 1153.86,1313.13 1173.53,1321.02 1193.19,1340.94 1212.85,1328.07 1232.52,1342.08 1252.18,1335.16 1271.84,1348.96 1291.51,1335.03 1311.17,1331.96 1330.84,1356.25 1350.5,1358.47 1370.16,1347.95 1389.83,1347.08 1409.49,1346.46 1429.15,1356.6 1448.82,1352.25 1468.48,1346.09 1488.14,1354.48 1507.81,1366.8 1527.47,1362.73 1547.14,1367.64 1566.8,1357.38 1586.46,1350.53 1606.13,1351.91 1625.79,1361.71 1645.45,1375.28 1665.12,1361.12 1684.78,1370.68 1704.44,1360.34 1724.11,1365.14 1743.77,1352.37 1763.44,1364.99 1783.1,1370.77 1802.76,1366.03 1822.43,1380.81 1842.09,1359.87 1861.75,1363.35 1881.42,1376.4 1901.08,1360.29 1920.75,1370.6 1940.41,1373.23 1960.07,1375.98 1979.74,1377.26 1999.4,1386.4 2019.06,1370.94 2038.73,1383.25 2058.39,1364.82 2078.05,1381.8 2097.72,1368.73 2117.38,1382.98 2137.05,1384.39 2156.71,1374.56 2176.37,1381.12 2196.04,1375.89 2215.7,1382.88 2235.36,1372.56 2255.03,1373.13 2274.69,1372.14 2294.35,1375.44 "></polyline>
<polyline clip-path="url(#clip062)" style="stroke:#e26f46; stroke-linecap:round; stroke-linejoin:round; stroke-width:4; stroke-opacity:1; fill:none" points="347.652,160.958 367.316,458.061 386.979,549.179 406.643,640.926 426.307,679.894 445.97,697.121 465.634,760.465 485.298,752.311 504.961,798.859 524.625,840.316 544.289,831.612 563.952,863.475 583.616,847.593 603.28,882.217 622.943,885.379 642.607,877.996 662.271,873.313 681.934,897.24 701.598,895.013 721.262,919.863 740.925,913.35 760.589,911.923 780.253,910.974 799.916,926.531 819.58,923.445 839.244,923.27 858.907,953.286 878.571,936.089 898.235,942.986 917.898,944.065 937.562,949.957 957.226,947.403 976.889,952.318 996.553,948.459 1016.22,958.03 1035.88,940.737 1055.54,953.569 1075.21,962.681 1094.87,955.989 1114.53,970.259 1134.2,951.089 1153.86,959.167 1173.53,957.15 1193.19,966.977 1212.85,967.25 1232.52,956.25 1252.18,964.5 1271.84,961.253 1291.51,966.959 1311.17,964.512 1330.84,964.978 1350.5,962.551 1370.16,964.615 1389.83,962.7 1409.49,963.408 1429.15,959.662 1448.82,969.842 1468.48,957.558 1488.14,957.705 1507.81,961.995 1527.47,960.313 1547.14,949.152 1566.8,964.484 1586.46,956.842 1606.13,962.114 1625.79,966.911 1645.45,952.921 1665.12,960.543 1684.78,959.899 1704.44,958.569 1724.11,953.389 1743.77,961.042 1763.44,966.248 1783.1,962.108 1802.76,961.304 1822.43,961.262 1842.09,958.923 1861.75,953.194 1881.42,954.82 1901.08,948.865 1920.75,960.314 1940.41,964.405 1960.07,960.39 1979.74,948.465 1999.4,947.248 2019.06,959.831 2038.73,955.748 2058.39,960.819 2078.05,949.752 2097.72,950.796 2117.38,944.64 2137.05,948.556 2156.71,952.491 2176.37,949.411 2196.04,946.772 2215.7,946.374 2235.36,945 2255.03,950.779 2274.69,941.109 2294.35,946.542 "></polyline>
<polyline clip-path="url(#clip062)" style="stroke:#3da44d; stroke-linecap:round; stroke-linejoin:round; stroke-width:4; stroke-opacity:1; fill:none" stroke-dasharray="16, 10" points="347.652,223.11 367.316,386.64 386.979,500.889 406.643,564.792 426.307,656.169 445.97,702.414 465.634,730.765 485.298,754.916 504.961,769.936 524.625,795.494 544.289,799.611 563.952,828.1 583.616,839.444 603.28,848.696 622.943,850.475 642.607,868.56 662.271,876.508 681.934,897.97 701.598,895.011 721.262,902.098 740.925,904.085 760.589,917.22 780.253,915.813 799.916,913.64 819.58,915.944 839.244,925.454 858.907,935.975 878.571,942.696 898.235,940.011 917.898,946.357 937.562,953.373 957.226,957.02 976.889,960.94 996.553,967.661 1016.22,972.07 1035.88,976.548 1055.54,977.738 1075.21,975.377 1094.87,975.935 1114.53,979.447 1134.2,982.536 1153.86,980.006 1173.53,992.473 1193.19,991.505 1212.85,991.082 1232.52,990.267 1252.18,992.714 1271.84,993.317 1291.51,992.836 1311.17,996.431 1330.84,998.993 1350.5,998.483 1370.16,1003.31 1389.83,1005.87 1409.49,1007.83 1429.15,1002.07 1448.82,1004.83 1468.48,1005.48 1488.14,1005.05 1507.81,1004.4 1527.47,1015.44 1547.14,1011.93 1566.8,1012.79 1586.46,1007.5 1606.13,1008.81 1625.79,1014.68 1645.45,1014.74 1665.12,1016.81 1684.78,1015.58 1704.44,1014.13 1724.11,1014.09 1743.77,1012.54 1763.44,1012.51 1783.1,1017.73 1802.76,1022.76 1822.43,1019.84 1842.09,1020.56 1861.75,1021.69 1881.42,1024.5 1901.08,1027.08 1920.75,1029.4 1940.41,1033.44 1960.07,1032.25 1979.74,1030.67 1999.4,1033.27 2019.06,1035.12 2038.73,1034.84 2058.39,1031.64 2078.05,1032.57 2097.72,1033.28 2117.38,1030.82 2137.05,1034.32 2156.71,1034.14 2176.37,1033.51 2196.04,1033.66 2215.7,1034.22 2235.36,1033.77 2255.03,1035.6 2274.69,1036.76 2294.35,1038.25 "></polyline>
<polyline clip-path="url(#clip062)" style="stroke:#c271d2; stroke-linecap:round; stroke-linejoin:round; stroke-width:4; stroke-opacity:1; fill:none" stroke-dasharray="16, 8, 2, 8" points="347.652,165.294 367.316,384.064 386.979,501.759 406.643,578.335 426.307,641.292 445.97,668.096 465.634,715.672 485.298,741.897 504.961,775.819 524.625,774.223 544.289,803.041 563.952,817.5 583.616,827.785 603.28,850.145 622.943,860.501 642.607,862.907 662.271,883.625 681.934,889.105 701.598,903.676 721.262,908.98 740.925,910.19 760.589,911.433 780.253,908.859 799.916,927.652 819.58,931.079 839.244,934.34 858.907,944.266 878.571,944.728 898.235,946.584 917.898,952.677 937.562,947.898 957.226,958.433 976.889,965.011 996.553,966.202 1016.22,976.278 1035.88,980.363 1055.54,972.542 1075.21,977.009 1094.87,973.309 1114.53,973.049 1134.2,980.139 1153.86,982.84 1173.53,984.923 1193.19,980.969 1212.85,982.708 1232.52,980.078 1252.18,985.524 1271.84,985.493 1291.51,986.633 1311.17,988.506 1330.84,996.993 1350.5,997.631 1370.16,1000.73 1389.83,1000.54 1409.49,994.251 1429.15,999.961 1448.82,1001.57 1468.48,1001.19 1488.14,1004.77 1507.81,1006.73 1527.47,1008.17 1547.14,1015.01 1566.8,1012.34 1586.46,1010.63 1606.13,1009.42 1625.79,1010.06 1645.45,1009.73 1665.12,1012.28 1684.78,1015.37 1704.44,1020.21 1724.11,1019.4 1743.77,1016.2 1763.44,1018.78 1783.1,1022.78 1802.76,1019.47 1822.43,1024.5 1842.09,1025.82 1861.75,1027.11 1881.42,1026.93 1901.08,1026.2 1920.75,1024.92 1940.41,1026.26 1960.07,1026.05 1979.74,1027.6 1999.4,1029.18 2019.06,1030.36 2038.73,1029.47 2058.39,1030.48 2078.05,1028.63 2097.72,1030.83 2117.38,1031.31 2137.05,1034.58 2156.71,1035.89 2176.37,1037.62 2196.04,1036.41 2215.7,1035.77 2235.36,1036.99 2255.03,1036.4 2274.69,1038.36 2294.35,1040.14 "></polyline>
<polyline clip-path="url(#clip062)" style="stroke:#ac8d18; stroke-linecap:round; stroke-linejoin:round; stroke-width:4; stroke-opacity:1; fill:none" stroke-dasharray="16, 10" points="347.652,201.945 367.316,369.53 386.979,507.025 406.643,570.817 426.307,651.075 445.97,704.577 465.634,765.968 485.298,772.544 504.961,786.917 524.625,804.086 544.289,836.415 563.952,849.59 583.616,860.265 603.28,877.599 622.943,888.201 642.607,900.978 662.271,900.259 681.934,905.227 701.598,922.576 721.262,929.14 740.925,943.286 760.589,941.753 780.253,962.709 799.916,958.579 819.58,959.64 839.244,963.406 858.907,965.899 878.571,971.171 898.235,968.194 917.898,976.83 937.562,979.261 957.226,987.391 976.889,998.134 996.553,993.546 1016.22,997.808 1035.88,997.499 1055.54,1001.36 1075.21,1005.22 1094.87,1007.16 1114.53,1010.47 1134.2,1016.85 1153.86,1016.87 1173.53,1023.36 1193.19,1022.94 1212.85,1024.22 1232.52,1027.37 1252.18,1030.15 1271.84,1023.54 1291.51,1028.87 1311.17,1033.61 1330.84,1037.37 1350.5,1036.76 1370.16,1032.3 1389.83,1034.06 1409.49,1040.79 1429.15,1041.51 1448.82,1042.12 1468.48,1041.4 1488.14,1040.77 1507.81,1040.78 1527.47,1039.85 1547.14,1043.03 1566.8,1045.96 1586.46,1049.18 1606.13,1051.21 1625.79,1053.45 1645.45,1054.49 1665.12,1051.74 1684.78,1050.11 1704.44,1052.07 1724.11,1052.38 1743.77,1052.07 1763.44,1059.39 1783.1,1058.83 1802.76,1057.94 1822.43,1059.64 1842.09,1062 1861.75,1065.24 1881.42,1065.52 1901.08,1064.71 1920.75,1061.47 1940.41,1061.55 1960.07,1063.61 1979.74,1062.13 1999.4,1059.66 2019.06,1062.64 2038.73,1061.59 2058.39,1065.83 2078.05,1066.74 2097.72,1065.56 2117.38,1065.32 2137.05,1065.69 2156.71,1064.86 2176.37,1065.18 2196.04,1064.23 2215.7,1065.05 2235.36,1065.5 2255.03,1067.51 2274.69,1069.75 2294.35,1071.43 "></polyline>
<polyline clip-path="url(#clip062)" style="stroke:#00a9ad; stroke-linecap:round; stroke-linejoin:round; stroke-width:4; stroke-opacity:1; fill:none" stroke-dasharray="16, 8, 2, 8" points="347.652,180.194 367.316,398.05 386.979,495.641 406.643,564.371 426.307,617.606 445.97,664.471 465.634,688.018 485.298,730.586 504.961,764.356 524.625,788.683 544.289,813.78 563.952,829.883 583.616,831.371 603.28,843.287 622.943,866.864 642.607,874.792 662.271,882.268 681.934,889.128 701.598,893.478 721.262,896.053 740.925,910.153 760.589,911.855 780.253,926.778 799.916,930.279 819.58,938.594 839.244,932.333 858.907,934.233 878.571,946.865 898.235,950.356 917.898,947.136 937.562,945.865 957.226,956.063 976.889,958.646 996.553,959.778 1016.22,963.557 1035.88,971.127 1055.54,970.14 1075.21,971.721 1094.87,968.466 1114.53,975.037 1134.2,980.658 1153.86,980.111 1173.53,981.81 1193.19,982.741 1212.85,987.838 1232.52,991.484 1252.18,990.198 1271.84,992.339 1291.51,991.885 1311.17,1002.42 1330.84,995.111 1350.5,998.891 1370.16,1002.4 1389.83,999.708 1409.49,1001.76 1429.15,1003.61 1448.82,1003.14 1468.48,1006.42 1488.14,1007.07 1507.81,1008.96 1527.47,1009.72 1547.14,1011.13 1566.8,1012.1 1586.46,1015.35 1606.13,1015.21 1625.79,1017.42 1645.45,1018.9 1665.12,1019.69 1684.78,1019.78 1704.44,1021.85 1724.11,1021.84 1743.77,1021.4 1763.44,1020.89 1783.1,1019.82 1802.76,1022.57 1822.43,1022.9 1842.09,1022.41 1861.75,1019.98 1881.42,1025.82 1901.08,1023.08 1920.75,1027.34 1940.41,1030.31 1960.07,1028.02 1979.74,1029.52 1999.4,1034 2019.06,1035.79 2038.73,1032.16 2058.39,1033.99 2078.05,1030.74 2097.72,1030.81 2117.38,1029.91 2137.05,1032.66 2156.71,1034.88 2176.37,1034.51 2196.04,1037.57 2215.7,1038.33 2235.36,1039.3 2255.03,1036.22 2274.69,1042.2 2294.35,1041.64 "></polyline>
<polyline clip-path="url(#clip062)" style="stroke:#ed5d92; stroke-linecap:round; stroke-linejoin:round; stroke-width:4; stroke-opacity:1; fill:none" stroke-dasharray="16, 10" points="347.652,247.742 367.316,377.987 386.979,499.452 406.643,576.54 426.307,630.089 445.97,659.24 465.634,707.856 485.298,749.3 504.961,774.464 524.625,812.046 544.289,795.089 563.952,830.348 583.616,842.73 603.28,870.394 622.943,877.554 642.607,883.097 662.271,899.666 681.934,909.27 701.598,922.789 721.262,924.385 740.925,922.195 760.589,927.664 780.253,935.311 799.916,941.345 819.58,947.655 839.244,946.238 858.907,944.088 878.571,953.759 898.235,959.196 917.898,951.312 937.562,967.869 957.226,974.673 976.889,980.502 996.553,982.932 1016.22,987.925 1035.88,984.956 1055.54,987.455 1075.21,994.844 1094.87,996.263 1114.53,994.352 1134.2,998.885 1153.86,1003.95 1173.53,1003.98 1193.19,1003.78 1212.85,1007.67 1232.52,1007.13 1252.18,1008.63 1271.84,1009.73 1291.51,1009.16 1311.17,1007.04 1330.84,1008.3 1350.5,1011.77 1370.16,1009.14 1389.83,1010.98 1409.49,1011.8 1429.15,1014.19 1448.82,1015.56 1468.48,1016.65 1488.14,1017.84 1507.81,1018 1527.47,1020.87 1547.14,1022.58 1566.8,1024.56 1586.46,1030.04 1606.13,1025.32 1625.79,1025.14 1645.45,1030.08 1665.12,1031.45 1684.78,1032.77 1704.44,1033.17 1724.11,1035.83 1743.77,1035.97 1763.44,1037 1783.1,1037.13 1802.76,1036.59 1822.43,1041.25 1842.09,1041.98 1861.75,1044.81 1881.42,1044.95 1901.08,1043.65 1920.75,1044.27 1940.41,1042.61 1960.07,1042.63 1979.74,1046.58 1999.4,1046.93 2019.06,1048.33 2038.73,1051 2058.39,1046.4 2078.05,1047.89 2097.72,1046.61 2117.38,1047.67 2137.05,1046.36 2156.71,1049.71 2176.37,1053.22 2196.04,1055.52 2215.7,1053.56 2235.36,1056.68 2255.03,1057.05 2274.69,1052.28 2294.35,1055.4 "></polyline>
<polyline clip-path="url(#clip062)" style="stroke:#c68125; stroke-linecap:round; stroke-linejoin:round; stroke-width:4; stroke-opacity:1; fill:none" stroke-dasharray="16, 8, 2, 8" points="347.652,160.256 367.316,374.636 386.979,506.629 406.643,594.831 426.307,635.11 445.97,667.39 465.634,692.996 485.298,714.206 504.961,752.533 524.625,775.297 544.289,789.381 563.952,819.591 583.616,829.782 603.28,843.148 622.943,860.177 642.607,866.27 662.271,865.591 681.934,884.975 701.598,903.051 721.262,908.426 740.925,901.539 760.589,908.914 780.253,916.389 799.916,917.853 819.58,924.396 839.244,931.928 858.907,932.839 878.571,937.291 898.235,945.187 917.898,947.12 937.562,950.23 957.226,955.368 976.889,948.437 996.553,957.229 1016.22,961.583 1035.88,966.217 1055.54,966.569 1075.21,966.105 1094.87,972.571 1114.53,976.899 1134.2,974.965 1153.86,973.943 1173.53,986.341 1193.19,988.611 1212.85,981.96 1232.52,978.313 1252.18,983.134 1271.84,987.055 1291.51,995.948 1311.17,996.199 1330.84,996.194 1350.5,1000 1370.16,999.034 1389.83,1001.91 1409.49,999.756 1429.15,1002.41 1448.82,1001.79 1468.48,1007.59 1488.14,1010.45 1507.81,1014.41 1527.47,1015.83 1547.14,1012.97 1566.8,1014.1 1586.46,1013.74 1606.13,1020.31 1625.79,1021.23 1645.45,1022.32 1665.12,1019.26 1684.78,1017.43 1704.44,1024.7 1724.11,1023.26 1743.77,1028.63 1763.44,1026.64 1783.1,1025.83 1802.76,1027.66 1822.43,1024.52 1842.09,1028.75 1861.75,1026.98 1881.42,1025.26 1901.08,1021.81 1920.75,1026.7 1940.41,1024.92 1960.07,1025.7 1979.74,1026.92 1999.4,1028.33 2019.06,1031.27 2038.73,1031.04 2058.39,1029.24 2078.05,1029.28 2097.72,1031.98 2117.38,1034.46 2137.05,1031.37 2156.71,1033.78 2176.37,1036.2 2196.04,1036.79 2215.7,1037.12 2235.36,1036.53 2255.03,1039.47 2274.69,1038.42 2294.35,1036.93 "></polyline>
<path clip-path="url(#clip060)" d="M1892.65 633.356 L2283.97 633.356 L2283.97 166.796 L1892.65 166.796  Z" fill="#ffffff" fill-rule="evenodd" fill-opacity="1"></path>
<polyline clip-path="url(#clip060)" style="stroke:#000000; stroke-linecap:round; stroke-linejoin:round; stroke-width:4; stroke-opacity:1; fill:none" points="1892.65,633.356 2283.97,633.356 2283.97,166.796 1892.65,166.796 1892.65,633.356 "></polyline>
<polyline clip-path="url(#clip060)" style="stroke:#009af9; stroke-linecap:round; stroke-linejoin:round; stroke-width:4; stroke-opacity:1; fill:none" points="1915.57,218.636 2053.14,218.636 "></polyline>
<path clip-path="url(#clip060)" d="M2101.62 230.985 L2101.62 221.703 L2093.99 221.703 L2093.99 217.86 L2106.25 217.86 L2106.25 232.698 Q2103.55 234.619 2100.28 235.615 Q2097.02 236.587 2093.31 236.587 Q2085.21 236.587 2080.63 231.865 Q2076.07 227.119 2076.07 218.67 Q2076.07 210.198 2080.63 205.476 Q2085.21 200.731 2093.31 200.731 Q2096.69 200.731 2099.73 201.564 Q2102.78 202.397 2105.35 204.018 L2105.35 208.995 Q2102.76 206.796 2099.84 205.684 Q2096.93 204.573 2093.71 204.573 Q2087.36 204.573 2084.17 208.115 Q2081 211.657 2081 218.67 Q2081 225.661 2084.17 229.203 Q2087.36 232.744 2093.71 232.744 Q2096.18 232.744 2098.13 232.328 Q2100.07 231.888 2101.62 230.985 Z" fill="#000000" fill-rule="nonzero" fill-opacity="1"></path><path clip-path="url(#clip060)" d="M2108.31 201.356 L2137.55 201.356 L2137.55 205.291 L2125.28 205.291 L2125.28 235.916 L2120.58 235.916 L2120.58 205.291 L2108.31 205.291 L2108.31 201.356 Z" fill="#000000" fill-rule="nonzero" fill-opacity="1"></path><path clip-path="url(#clip060)" d="M2136.44 201.356 L2165.67 201.356 L2165.67 205.291 L2153.41 205.291 L2153.41 235.916 L2148.71 235.916 L2148.71 205.291 L2136.44 205.291 L2136.44 201.356 Z" fill="#000000" fill-rule="nonzero" fill-opacity="1"></path><polyline clip-path="url(#clip060)" style="stroke:#e26f46; stroke-linecap:round; stroke-linejoin:round; stroke-width:4; stroke-opacity:1; fill:none" points="1915.57,270.476 2053.14,270.476 "></polyline>
<path clip-path="url(#clip060)" d="M2092.09 256.367 Q2086.99 256.367 2083.99 260.163 Q2081 263.96 2081 270.51 Q2081 277.038 2083.99 280.834 Q2086.99 284.631 2092.09 284.631 Q2097.18 284.631 2100.14 280.834 Q2103.13 277.038 2103.13 270.51 Q2103.13 263.96 2100.14 260.163 Q2097.18 256.367 2092.09 256.367 M2092.09 252.571 Q2099.36 252.571 2103.71 257.455 Q2108.06 262.316 2108.06 270.51 Q2108.06 278.682 2103.71 283.566 Q2099.36 288.427 2092.09 288.427 Q2084.8 288.427 2080.42 283.566 Q2076.07 278.705 2076.07 270.51 Q2076.07 262.316 2080.42 257.455 Q2084.8 252.571 2092.09 252.571 Z" fill="#000000" fill-rule="nonzero" fill-opacity="1"></path><path clip-path="url(#clip060)" d="M2138.94 282.825 L2138.94 273.543 L2131.3 273.543 L2131.3 269.7 L2143.57 269.7 L2143.57 284.538 Q2140.86 286.459 2137.6 287.455 Q2134.33 288.427 2130.63 288.427 Q2122.53 288.427 2117.94 283.705 Q2113.38 278.959 2113.38 270.51 Q2113.38 262.038 2117.94 257.316 Q2122.53 252.571 2130.63 252.571 Q2134.01 252.571 2137.04 253.404 Q2140.1 254.237 2142.67 255.858 L2142.67 260.835 Q2140.07 258.636 2137.16 257.524 Q2134.24 256.413 2131.02 256.413 Q2124.68 256.413 2121.49 259.955 Q2118.31 263.497 2118.31 270.51 Q2118.31 277.501 2121.49 281.043 Q2124.68 284.584 2131.02 284.584 Q2133.5 284.584 2135.44 284.168 Q2137.39 283.728 2138.94 282.825 Z" fill="#000000" fill-rule="nonzero" fill-opacity="1"></path><path clip-path="url(#clip060)" d="M2145.63 253.196 L2174.86 253.196 L2174.86 257.131 L2162.6 257.131 L2162.6 287.756 L2157.9 287.756 L2157.9 257.131 L2145.63 257.131 L2145.63 253.196 Z" fill="#000000" fill-rule="nonzero" fill-opacity="1"></path><path clip-path="url(#clip060)" d="M2173.75 253.196 L2202.99 253.196 L2202.99 257.131 L2190.72 257.131 L2190.72 287.756 L2186.02 287.756 L2186.02 257.131 L2173.75 257.131 L2173.75 253.196 Z" fill="#000000" fill-rule="nonzero" fill-opacity="1"></path><polyline clip-path="url(#clip060)" style="stroke:#3da44d; stroke-linecap:round; stroke-linejoin:round; stroke-width:4; stroke-opacity:1; fill:none" stroke-dasharray="16, 10" points="1915.57,322.316 2053.14,322.316 "></polyline>
<path clip-path="url(#clip060)" d="M2076.07 305.036 L2105.3 305.036 L2105.3 308.971 L2093.04 308.971 L2093.04 339.596 L2088.34 339.596 L2088.34 308.971 L2076.07 308.971 L2076.07 305.036 Z" fill="#000000" fill-rule="nonzero" fill-opacity="1"></path><path clip-path="url(#clip060)" d="M2104.19 305.036 L2133.43 305.036 L2133.43 308.971 L2121.16 308.971 L2121.16 339.596 L2116.46 339.596 L2116.46 308.971 L2104.19 308.971 L2104.19 305.036 Z" fill="#000000" fill-rule="nonzero" fill-opacity="1"></path><path clip-path="url(#clip060)" d="M2147.99 303.624 Q2144.89 308.948 2143.38 314.156 Q2141.88 319.364 2141.88 324.712 Q2141.88 330.059 2143.38 335.313 Q2144.91 340.545 2147.99 345.846 L2144.29 345.846 Q2140.81 340.406 2139.08 335.151 Q2137.36 329.897 2137.36 324.712 Q2137.36 319.55 2139.08 314.318 Q2140.79 309.087 2144.29 303.624 L2147.99 303.624 Z" fill="#000000" fill-rule="nonzero" fill-opacity="1"></path><path clip-path="url(#clip060)" d="M2157.67 335.661 L2165.3 335.661 L2165.3 309.295 L2156.99 310.962 L2156.99 306.702 L2165.26 305.036 L2169.93 305.036 L2169.93 335.661 L2177.57 335.661 L2177.57 339.596 L2157.67 339.596 L2157.67 335.661 Z" fill="#000000" fill-rule="nonzero" fill-opacity="1"></path><path clip-path="url(#clip060)" d="M2185.74 303.624 L2189.45 303.624 Q2192.92 309.087 2194.63 314.318 Q2196.37 319.55 2196.37 324.712 Q2196.37 329.897 2194.63 335.151 Q2192.92 340.406 2189.45 345.846 L2185.74 345.846 Q2188.82 340.545 2190.33 335.313 Q2191.86 330.059 2191.86 324.712 Q2191.86 319.364 2190.33 314.156 Q2188.82 308.948 2185.74 303.624 Z" fill="#000000" fill-rule="nonzero" fill-opacity="1"></path><polyline clip-path="url(#clip060)" style="stroke:#c271d2; stroke-linecap:round; stroke-linejoin:round; stroke-width:4; stroke-opacity:1; fill:none" stroke-dasharray="16, 8, 2, 8" points="1915.57,374.156 2053.14,374.156 "></polyline>
<path clip-path="url(#clip060)" d="M2092.09 360.047 Q2086.99 360.047 2083.99 363.843 Q2081 367.64 2081 374.19 Q2081 380.718 2083.99 384.514 Q2086.99 388.311 2092.09 388.311 Q2097.18 388.311 2100.14 384.514 Q2103.13 380.718 2103.13 374.19 Q2103.13 367.64 2100.14 363.843 Q2097.18 360.047 2092.09 360.047 M2092.09 356.251 Q2099.36 356.251 2103.71 361.135 Q2108.06 365.996 2108.06 374.19 Q2108.06 382.362 2103.71 387.246 Q2099.36 392.107 2092.09 392.107 Q2084.8 392.107 2080.42 387.246 Q2076.07 382.385 2076.07 374.19 Q2076.07 365.996 2080.42 361.135 Q2084.8 356.251 2092.09 356.251 Z" fill="#000000" fill-rule="nonzero" fill-opacity="1"></path><path clip-path="url(#clip060)" d="M2110.58 356.876 L2139.82 356.876 L2139.82 360.811 L2127.55 360.811 L2127.55 391.436 L2122.85 391.436 L2122.85 360.811 L2110.58 360.811 L2110.58 356.876 Z" fill="#000000" fill-rule="nonzero" fill-opacity="1"></path><path clip-path="url(#clip060)" d="M2138.71 356.876 L2167.94 356.876 L2167.94 360.811 L2155.67 360.811 L2155.67 391.436 L2150.98 391.436 L2150.98 360.811 L2138.71 360.811 L2138.71 356.876 Z" fill="#000000" fill-rule="nonzero" fill-opacity="1"></path><path clip-path="url(#clip060)" d="M2182.5 355.464 Q2179.4 360.788 2177.9 365.996 Q2176.39 371.204 2176.39 376.552 Q2176.39 381.899 2177.9 387.153 Q2179.42 392.385 2182.5 397.686 L2178.8 397.686 Q2175.33 392.246 2173.59 386.991 Q2171.88 381.737 2171.88 376.552 Q2171.88 371.39 2173.59 366.158 Q2175.3 360.927 2178.8 355.464 L2182.5 355.464 Z" fill="#000000" fill-rule="nonzero" fill-opacity="1"></path><path clip-path="url(#clip060)" d="M2192.18 387.501 L2199.82 387.501 L2199.82 361.135 L2191.51 362.802 L2191.51 358.542 L2199.77 356.876 L2204.45 356.876 L2204.45 387.501 L2212.09 387.501 L2212.09 391.436 L2192.18 391.436 L2192.18 387.501 Z" fill="#000000" fill-rule="nonzero" fill-opacity="1"></path><path clip-path="url(#clip060)" d="M2220.26 355.464 L2223.96 355.464 Q2227.43 360.927 2229.15 366.158 Q2230.88 371.39 2230.88 376.552 Q2230.88 381.737 2229.15 386.991 Q2227.43 392.246 2223.96 397.686 L2220.26 397.686 Q2223.34 392.385 2224.84 387.153 Q2226.37 381.899 2226.37 376.552 Q2226.37 371.204 2224.84 365.996 Q2223.34 360.788 2220.26 355.464 Z" fill="#000000" fill-rule="nonzero" fill-opacity="1"></path><polyline clip-path="url(#clip060)" style="stroke:#ac8d18; stroke-linecap:round; stroke-linejoin:round; stroke-width:4; stroke-opacity:1; fill:none" stroke-dasharray="16, 10" points="1915.57,425.996 2053.14,425.996 "></polyline>
<path clip-path="url(#clip060)" d="M2076.07 408.716 L2105.3 408.716 L2105.3 412.651 L2093.04 412.651 L2093.04 443.276 L2088.34 443.276 L2088.34 412.651 L2076.07 412.651 L2076.07 408.716 Z" fill="#000000" fill-rule="nonzero" fill-opacity="1"></path><path clip-path="url(#clip060)" d="M2104.19 408.716 L2133.43 408.716 L2133.43 412.651 L2121.16 412.651 L2121.16 443.276 L2116.46 443.276 L2116.46 412.651 L2104.19 412.651 L2104.19 408.716 Z" fill="#000000" fill-rule="nonzero" fill-opacity="1"></path><path clip-path="url(#clip060)" d="M2147.99 407.304 Q2144.89 412.628 2143.38 417.836 Q2141.88 423.044 2141.88 428.392 Q2141.88 433.739 2143.38 438.993 Q2144.91 444.225 2147.99 449.526 L2144.29 449.526 Q2140.81 444.086 2139.08 438.831 Q2137.36 433.577 2137.36 428.392 Q2137.36 423.23 2139.08 417.998 Q2140.79 412.767 2144.29 407.304 L2147.99 407.304 Z" fill="#000000" fill-rule="nonzero" fill-opacity="1"></path><path clip-path="url(#clip060)" d="M2157.67 439.341 L2165.3 439.341 L2165.3 412.975 L2156.99 414.642 L2156.99 410.382 L2165.26 408.716 L2169.93 408.716 L2169.93 439.341 L2177.57 439.341 L2177.57 443.276 L2157.67 443.276 L2157.67 439.341 Z" fill="#000000" fill-rule="nonzero" fill-opacity="1"></path><path clip-path="url(#clip060)" d="M2197.02 411.794 Q2193.41 411.794 2191.58 415.359 Q2189.77 418.901 2189.77 426.03 Q2189.77 433.137 2191.58 436.702 Q2193.41 440.243 2197.02 440.243 Q2200.65 440.243 2202.46 436.702 Q2204.29 433.137 2204.29 426.03 Q2204.29 418.901 2202.46 415.359 Q2200.65 411.794 2197.02 411.794 M2197.02 408.091 Q2202.83 408.091 2205.88 412.697 Q2208.96 417.28 2208.96 426.03 Q2208.96 434.757 2205.88 439.364 Q2202.83 443.947 2197.02 443.947 Q2191.21 443.947 2188.13 439.364 Q2185.07 434.757 2185.07 426.03 Q2185.07 417.28 2188.13 412.697 Q2191.21 408.091 2197.02 408.091 Z" fill="#000000" fill-rule="nonzero" fill-opacity="1"></path><path clip-path="url(#clip060)" d="M2215.91 407.304 L2219.61 407.304 Q2223.08 412.767 2224.79 417.998 Q2226.53 423.23 2226.53 428.392 Q2226.53 433.577 2224.79 438.831 Q2223.08 444.086 2219.61 449.526 L2215.91 449.526 Q2218.98 444.225 2220.49 438.993 Q2222.02 433.739 2222.02 428.392 Q2222.02 423.044 2220.49 417.836 Q2218.98 412.628 2215.91 407.304 Z" fill="#000000" fill-rule="nonzero" fill-opacity="1"></path><polyline clip-path="url(#clip060)" style="stroke:#00a9ad; stroke-linecap:round; stroke-linejoin:round; stroke-width:4; stroke-opacity:1; fill:none" stroke-dasharray="16, 8, 2, 8" points="1915.57,477.836 2053.14,477.836 "></polyline>
<path clip-path="url(#clip060)" d="M2092.09 463.727 Q2086.99 463.727 2083.99 467.523 Q2081 471.32 2081 477.87 Q2081 484.398 2083.99 488.194 Q2086.99 491.991 2092.09 491.991 Q2097.18 491.991 2100.14 488.194 Q2103.13 484.398 2103.13 477.87 Q2103.13 471.32 2100.14 467.523 Q2097.18 463.727 2092.09 463.727 M2092.09 459.931 Q2099.36 459.931 2103.71 464.815 Q2108.06 469.676 2108.06 477.87 Q2108.06 486.042 2103.71 490.926 Q2099.36 495.787 2092.09 495.787 Q2084.8 495.787 2080.42 490.926 Q2076.07 486.065 2076.07 477.87 Q2076.07 469.676 2080.42 464.815 Q2084.8 459.931 2092.09 459.931 Z" fill="#000000" fill-rule="nonzero" fill-opacity="1"></path><path clip-path="url(#clip060)" d="M2110.58 460.556 L2139.82 460.556 L2139.82 464.491 L2127.55 464.491 L2127.55 495.116 L2122.85 495.116 L2122.85 464.491 L2110.58 464.491 L2110.58 460.556 Z" fill="#000000" fill-rule="nonzero" fill-opacity="1"></path><path clip-path="url(#clip060)" d="M2138.71 460.556 L2167.94 460.556 L2167.94 464.491 L2155.67 464.491 L2155.67 495.116 L2150.98 495.116 L2150.98 464.491 L2138.71 464.491 L2138.71 460.556 Z" fill="#000000" fill-rule="nonzero" fill-opacity="1"></path><path clip-path="url(#clip060)" d="M2182.5 459.144 Q2179.4 464.468 2177.9 469.676 Q2176.39 474.884 2176.39 480.232 Q2176.39 485.579 2177.9 490.833 Q2179.42 496.065 2182.5 501.366 L2178.8 501.366 Q2175.33 495.926 2173.59 490.671 Q2171.88 485.417 2171.88 480.232 Q2171.88 475.07 2173.59 469.838 Q2175.3 464.607 2178.8 459.144 L2182.5 459.144 Z" fill="#000000" fill-rule="nonzero" fill-opacity="1"></path><path clip-path="url(#clip060)" d="M2192.18 491.181 L2199.82 491.181 L2199.82 464.815 L2191.51 466.482 L2191.51 462.222 L2199.77 460.556 L2204.45 460.556 L2204.45 491.181 L2212.09 491.181 L2212.09 495.116 L2192.18 495.116 L2192.18 491.181 Z" fill="#000000" fill-rule="nonzero" fill-opacity="1"></path><path clip-path="url(#clip060)" d="M2231.53 463.634 Q2227.92 463.634 2226.09 467.199 Q2224.29 470.741 2224.29 477.87 Q2224.29 484.977 2226.09 488.542 Q2227.92 492.083 2231.53 492.083 Q2235.17 492.083 2236.97 488.542 Q2238.8 484.977 2238.8 477.87 Q2238.8 470.741 2236.97 467.199 Q2235.17 463.634 2231.53 463.634 M2231.53 459.931 Q2237.34 459.931 2240.4 464.537 Q2243.48 469.12 2243.48 477.87 Q2243.48 486.597 2240.4 491.204 Q2237.34 495.787 2231.53 495.787 Q2225.72 495.787 2222.64 491.204 Q2219.59 486.597 2219.59 477.87 Q2219.59 469.12 2222.64 464.537 Q2225.72 459.931 2231.53 459.931 Z" fill="#000000" fill-rule="nonzero" fill-opacity="1"></path><path clip-path="url(#clip060)" d="M2250.42 459.144 L2254.12 459.144 Q2257.6 464.607 2259.31 469.838 Q2261.04 475.07 2261.04 480.232 Q2261.04 485.417 2259.31 490.671 Q2257.6 495.926 2254.12 501.366 L2250.42 501.366 Q2253.5 496.065 2255 490.833 Q2256.53 485.579 2256.53 480.232 Q2256.53 474.884 2255 469.676 Q2253.5 464.468 2250.42 459.144 Z" fill="#000000" fill-rule="nonzero" fill-opacity="1"></path><polyline clip-path="url(#clip060)" style="stroke:#ed5d92; stroke-linecap:round; stroke-linejoin:round; stroke-width:4; stroke-opacity:1; fill:none" stroke-dasharray="16, 10" points="1915.57,529.676 2053.14,529.676 "></polyline>
<path clip-path="url(#clip060)" d="M2076.07 512.396 L2105.3 512.396 L2105.3 516.331 L2093.04 516.331 L2093.04 546.956 L2088.34 546.956 L2088.34 516.331 L2076.07 516.331 L2076.07 512.396 Z" fill="#000000" fill-rule="nonzero" fill-opacity="1"></path><path clip-path="url(#clip060)" d="M2104.19 512.396 L2133.43 512.396 L2133.43 516.331 L2121.16 516.331 L2121.16 546.956 L2116.46 546.956 L2116.46 516.331 L2104.19 516.331 L2104.19 512.396 Z" fill="#000000" fill-rule="nonzero" fill-opacity="1"></path><path clip-path="url(#clip060)" d="M2147.99 510.984 Q2144.89 516.308 2143.38 521.516 Q2141.88 526.724 2141.88 532.072 Q2141.88 537.419 2143.38 542.673 Q2144.91 547.905 2147.99 553.206 L2144.29 553.206 Q2140.81 547.766 2139.08 542.511 Q2137.36 537.257 2137.36 532.072 Q2137.36 526.91 2139.08 521.678 Q2140.79 516.447 2144.29 510.984 L2147.99 510.984 Z" fill="#000000" fill-rule="nonzero" fill-opacity="1"></path><path clip-path="url(#clip060)" d="M2160.88 543.021 L2177.2 543.021 L2177.2 546.956 L2155.26 546.956 L2155.26 543.021 Q2157.92 540.266 2162.5 535.636 Q2167.11 530.984 2168.29 529.641 Q2170.54 527.118 2171.42 525.382 Q2172.32 523.623 2172.32 521.933 Q2172.32 519.178 2170.37 517.442 Q2168.45 515.706 2165.35 515.706 Q2163.15 515.706 2160.7 516.47 Q2158.27 517.234 2155.49 518.785 L2155.49 514.062 Q2158.31 512.928 2160.77 512.349 Q2163.22 511.771 2165.26 511.771 Q2170.63 511.771 2173.82 514.456 Q2177.02 517.141 2177.02 521.632 Q2177.02 523.761 2176.21 525.683 Q2175.42 527.581 2173.31 530.173 Q2172.73 530.845 2169.63 534.062 Q2166.53 537.257 2160.88 543.021 Z" fill="#000000" fill-rule="nonzero" fill-opacity="1"></path><path clip-path="url(#clip060)" d="M2197.02 515.474 Q2193.41 515.474 2191.58 519.039 Q2189.77 522.581 2189.77 529.71 Q2189.77 536.817 2191.58 540.382 Q2193.41 543.923 2197.02 543.923 Q2200.65 543.923 2202.46 540.382 Q2204.29 536.817 2204.29 529.71 Q2204.29 522.581 2202.46 519.039 Q2200.65 515.474 2197.02 515.474 M2197.02 511.771 Q2202.83 511.771 2205.88 516.377 Q2208.96 520.96 2208.96 529.71 Q2208.96 538.437 2205.88 543.044 Q2202.83 547.627 2197.02 547.627 Q2191.21 547.627 2188.13 543.044 Q2185.07 538.437 2185.07 529.71 Q2185.07 520.96 2188.13 516.377 Q2191.21 511.771 2197.02 511.771 Z" fill="#000000" fill-rule="nonzero" fill-opacity="1"></path><path clip-path="url(#clip060)" d="M2215.91 510.984 L2219.61 510.984 Q2223.08 516.447 2224.79 521.678 Q2226.53 526.91 2226.53 532.072 Q2226.53 537.257 2224.79 542.511 Q2223.08 547.766 2219.61 553.206 L2215.91 553.206 Q2218.98 547.905 2220.49 542.673 Q2222.02 537.419 2222.02 532.072 Q2222.02 526.724 2220.49 521.516 Q2218.98 516.308 2215.91 510.984 Z" fill="#000000" fill-rule="nonzero" fill-opacity="1"></path><polyline clip-path="url(#clip060)" style="stroke:#c68125; stroke-linecap:round; stroke-linejoin:round; stroke-width:4; stroke-opacity:1; fill:none" stroke-dasharray="16, 8, 2, 8" points="1915.57,581.516 2053.14,581.516 "></polyline>
<path clip-path="url(#clip060)" d="M2092.09 567.407 Q2086.99 567.407 2083.99 571.203 Q2081 575 2081 581.55 Q2081 588.078 2083.99 591.874 Q2086.99 595.671 2092.09 595.671 Q2097.18 595.671 2100.14 591.874 Q2103.13 588.078 2103.13 581.55 Q2103.13 575 2100.14 571.203 Q2097.18 567.407 2092.09 567.407 M2092.09 563.611 Q2099.36 563.611 2103.71 568.495 Q2108.06 573.356 2108.06 581.55 Q2108.06 589.722 2103.71 594.606 Q2099.36 599.467 2092.09 599.467 Q2084.8 599.467 2080.42 594.606 Q2076.07 589.745 2076.07 581.55 Q2076.07 573.356 2080.42 568.495 Q2084.8 563.611 2092.09 563.611 Z" fill="#000000" fill-rule="nonzero" fill-opacity="1"></path><path clip-path="url(#clip060)" d="M2110.58 564.236 L2139.82 564.236 L2139.82 568.171 L2127.55 568.171 L2127.55 598.796 L2122.85 598.796 L2122.85 568.171 L2110.58 568.171 L2110.58 564.236 Z" fill="#000000" fill-rule="nonzero" fill-opacity="1"></path><path clip-path="url(#clip060)" d="M2138.71 564.236 L2167.94 564.236 L2167.94 568.171 L2155.67 568.171 L2155.67 598.796 L2150.98 598.796 L2150.98 568.171 L2138.71 568.171 L2138.71 564.236 Z" fill="#000000" fill-rule="nonzero" fill-opacity="1"></path><path clip-path="url(#clip060)" d="M2182.5 562.824 Q2179.4 568.148 2177.9 573.356 Q2176.39 578.564 2176.39 583.912 Q2176.39 589.259 2177.9 594.513 Q2179.42 599.745 2182.5 605.046 L2178.8 605.046 Q2175.33 599.606 2173.59 594.351 Q2171.88 589.097 2171.88 583.912 Q2171.88 578.75 2173.59 573.518 Q2175.3 568.287 2178.8 562.824 L2182.5 562.824 Z" fill="#000000" fill-rule="nonzero" fill-opacity="1"></path><path clip-path="url(#clip060)" d="M2195.4 594.861 L2211.72 594.861 L2211.72 598.796 L2189.77 598.796 L2189.77 594.861 Q2192.43 592.106 2197.02 587.476 Q2201.62 582.824 2202.8 581.481 Q2205.05 578.958 2205.93 577.222 Q2206.83 575.463 2206.83 573.773 Q2206.83 571.018 2204.89 569.282 Q2202.97 567.546 2199.86 567.546 Q2197.67 567.546 2195.21 568.31 Q2192.78 569.074 2190 570.625 L2190 565.902 Q2192.83 564.768 2195.28 564.189 Q2197.73 563.611 2199.77 563.611 Q2205.14 563.611 2208.34 566.296 Q2211.53 568.981 2211.53 573.472 Q2211.53 575.601 2210.72 577.523 Q2209.93 579.421 2207.83 582.013 Q2207.25 582.685 2204.15 585.902 Q2201.04 589.097 2195.4 594.861 Z" fill="#000000" fill-rule="nonzero" fill-opacity="1"></path><path clip-path="url(#clip060)" d="M2231.53 567.314 Q2227.92 567.314 2226.09 570.879 Q2224.29 574.421 2224.29 581.55 Q2224.29 588.657 2226.09 592.222 Q2227.92 595.763 2231.53 595.763 Q2235.17 595.763 2236.97 592.222 Q2238.8 588.657 2238.8 581.55 Q2238.8 574.421 2236.97 570.879 Q2235.17 567.314 2231.53 567.314 M2231.53 563.611 Q2237.34 563.611 2240.4 568.217 Q2243.48 572.8 2243.48 581.55 Q2243.48 590.277 2240.4 594.884 Q2237.34 599.467 2231.53 599.467 Q2225.72 599.467 2222.64 594.884 Q2219.59 590.277 2219.59 581.55 Q2219.59 572.8 2222.64 568.217 Q2225.72 563.611 2231.53 563.611 Z" fill="#000000" fill-rule="nonzero" fill-opacity="1"></path><path clip-path="url(#clip060)" d="M2250.42 562.824 L2254.12 562.824 Q2257.6 568.287 2259.31 573.518 Q2261.04 578.75 2261.04 583.912 Q2261.04 589.097 2259.31 594.351 Q2257.6 599.606 2254.12 605.046 L2250.42 605.046 Q2253.5 599.745 2255 594.513 Q2256.53 589.259 2256.53 583.912 Q2256.53 578.564 2255 573.356 Q2253.5 568.148 2250.42 562.824 Z" fill="#000000" fill-rule="nonzero" fill-opacity="1"></path></svg>